G04 ================== begin FILE IDENTIFICATION RECORD ==================*
G04 Layout Name:  C:/Jeonghyun/Lab/EEM2TTL3/allegro/eem2ttl.brd*
G04 Film Name:    BOTTOM*
G04 File Format:  Gerber RS274X*
G04 File Origin:  Cadence Allegro 23.1-S003*
G04 Origin Date:  Sat Jul 27 12:53:41 2024*
G04 *
G04 Layer:  ETCH/BOTTOM*
G04 Layer:  PIN/BOTTOM*
G04 Layer:  VIA CLASS/BOTTOM*
G04 *
G04 Offset:    (0.0000 0.0000)*
G04 Mirror:    No*
G04 Mode:      Positive*
G04 Rotation:  0*
G04 FullContactRelief:  No*
G04 UndefLineWidth:     0.0000*
G04 ================== end FILE IDENTIFICATION RECORD ====================*
%FSLAX25Y25*MOMM*%
%IR0*IPPOS*OFA0.00000B0.00000*MIA0B0*SFA1.00000B1.00000*%
%ADD11C,.508*%
%AMMACRO20*
4,1,38,.9,-1.25,
.9,1.25,
.886327,1.406283,
.845723,1.557818,
.779423,1.7,
.68944,1.828509,
.578509,1.93944,
.45,2.029423,
.307818,2.095723,
.156283,2.136327,
0.0,2.15,
-.156283,2.136327,
-.307818,2.095723,
-.45,2.029423,
-.578509,1.93944,
-.68944,1.828509,
-.779423,1.7,
-.845723,1.557818,
-.886327,1.406283,
-.9,1.25,
-.9,-1.25,
-.886327,-1.406283,
-.845723,-1.557818,
-.779423,-1.7,
-.68944,-1.828509,
-.578509,-1.93944,
-.45,-2.029423,
-.307818,-2.095723,
-.156283,-2.136327,
0.0,-2.15,
.156283,-2.136327,
.307818,-2.095723,
.45,-2.029423,
.578509,-1.93944,
.68944,-1.828509,
.779423,-1.7,
.845723,-1.557818,
.886327,-1.406283,
.9,-1.25,
0.0*
%
%ADD20MACRO20*%
%AMMACRO21*
4,1,38,2.4,0.0,
2.386327,.156283,
2.345723,.307818,
2.279423,.45,
2.18944,.578509,
2.078509,.68944,
1.95,.779423,
1.807818,.845723,
1.656283,.886327,
1.5,.9,
-1.5,.9,
-1.656283,.886327,
-1.807818,.845723,
-1.95,.779423,
-2.078509,.68944,
-2.18944,.578509,
-2.279423,.45,
-2.345723,.307818,
-2.386327,.156283,
-2.4,0.0,
-2.386327,-.156283,
-2.345723,-.307818,
-2.279423,-.45,
-2.18944,-.578509,
-2.078509,-.68944,
-1.95,-.779423,
-1.807818,-.845723,
-1.656283,-.886327,
-1.5,-.9,
1.5,-.9,
1.656283,-.886327,
1.807818,-.845723,
1.95,-.779423,
2.078509,-.68944,
2.18944,-.578509,
2.279423,-.45,
2.345723,-.307818,
2.386327,-.156283,
2.4,0.0,
0.0*
%
%ADD21MACRO21*%
%ADD15C,1.2*%
%ADD14C,3.*%
%ADD10C,5.*%
%ADD13C,1.5*%
%ADD17C,1.8*%
%ADD19C,1.651*%
%ADD16R,1.8X1.8*%
%ADD18R,1.651X1.651*%
%ADD12R,1.778X1.778*%
%ADD22C,.2*%
%ADD23C,.127*%
%ADD24C,.238*%
%ADD31C,.7624*%
%ADD28C,2.0544*%
%ADD29C,1.4544*%
%ADD27C,3.2544*%
%ADD32C,1.9054*%
%ADD26C,5.2544*%
%ADD30C,1.7544*%
%ADD25O,2.0544X4.5544*%
G75*
%LPD*%
G75*
G36*
G01X10Y9999990D02*
X9999990D01*
Y10D01*
X10D01*
Y9999990D01*
G37*
%LPC*%
G75*
G36*
G01X8356580Y9715500D02*
Y9893300D01*
G02X8369300Y9906020I12720J0D01*
G01X8547100D01*
G02X8559820Y9893300I0J-12720D01*
G01Y9715500D01*
G02X8547100Y9702780I-12720J0D01*
G01X8369300D01*
G02X8356580Y9715500I0J12720D01*
G37*
G36*
G01X9827400Y9133280D02*
X9527400D01*
G02Y9338720I0J102720D01*
G01X9827400D01*
G02Y9133280I0J-102720D01*
G37*
G36*
G01X3206730Y9061450D02*
Y9226550D01*
G02X3219450Y9239270I12720J0D01*
G01X3384550D01*
G02X3397270Y9226550I0J-12720D01*
G01Y9061450D01*
G02X3384550Y9048730I-12720J0D01*
G01X3219450D01*
G02X3206730Y9061450I0J12720D01*
G37*
G36*
G01X9827400Y8533280D02*
X9527400D01*
G02Y8738720I0J102720D01*
G01X9827400D01*
G02Y8533280I0J-102720D01*
G37*
G36*
G01X9042380Y6769100D02*
Y6946900D01*
G02X9055100Y6959620I12720J0D01*
G01X9232900D01*
G02X9245620Y6946900I0J-12720D01*
G01Y6769100D01*
G02X9232900Y6756380I-12720J0D01*
G01X9055100D01*
G02X9042380Y6769100I0J12720D01*
G37*
G36*
G01X8026380D02*
Y6946900D01*
G02X8039100Y6959620I12720J0D01*
G01X8216900D01*
G02X8229620Y6946900I0J-12720D01*
G01Y6769100D01*
G02X8216900Y6756380I-12720J0D01*
G01X8039100D01*
G02X8026380Y6769100I0J12720D01*
G37*
G36*
G01X1168380D02*
Y6946900D01*
G02X1181100Y6959620I12720J0D01*
G01X1358900D01*
G02X1371620Y6946900I0J-12720D01*
G01Y6769100D01*
G02X1358900Y6756380I-12720J0D01*
G01X1181100D01*
G02X1168380Y6769100I0J12720D01*
G37*
G36*
G01X9042380Y6515100D02*
Y6692900D01*
G02X9055100Y6705620I12720J0D01*
G01X9232900D01*
G02X9245620Y6692900I0J-12720D01*
G01Y6515100D01*
G02X9232900Y6502380I-12720J0D01*
G01X9055100D01*
G02X9042380Y6515100I0J12720D01*
G37*
G36*
G01X8026380D02*
Y6692900D01*
G02X8039100Y6705620I12720J0D01*
G01X8216900D01*
G02X8229620Y6692900I0J-12720D01*
G01Y6515100D01*
G02X8216900Y6502380I-12720J0D01*
G01X8039100D01*
G02X8026380Y6515100I0J12720D01*
G37*
G36*
G01X4571980Y6388100D02*
Y6565900D01*
G02X4584700Y6578620I12720J0D01*
G01X4762500D01*
G02X4775220Y6565900I0J-12720D01*
G01Y6388100D01*
G02X4762500Y6375380I-12720J0D01*
G01X4584700D01*
G02X4571980Y6388100I0J12720D01*
G37*
G36*
G01X152380Y6515100D02*
Y6692900D01*
G02X165100Y6705620I12720J0D01*
G01X342900D01*
G02X355620Y6692900I0J-12720D01*
G01Y6515100D01*
G02X342900Y6502380I-12720J0D01*
G01X165100D01*
G02X152380Y6515100I0J12720D01*
G37*
G36*
G01X9042380Y5753100D02*
Y5930900D01*
G02X9055100Y5943620I12720J0D01*
G01X9232900D01*
G02X9245620Y5930900I0J-12720D01*
G01Y5753100D01*
G02X9232900Y5740380I-12720J0D01*
G01X9055100D01*
G02X9042380Y5753100I0J12720D01*
G37*
G36*
G01X8026380D02*
Y5930900D01*
G02X8039100Y5943620I12720J0D01*
G01X8216900D01*
G02X8229620Y5930900I0J-12720D01*
G01Y5753100D01*
G02X8216900Y5740380I-12720J0D01*
G01X8039100D01*
G02X8026380Y5753100I0J12720D01*
G37*
G36*
G01X1168380D02*
Y5930900D01*
G02X1181100Y5943620I12720J0D01*
G01X1358900D01*
G02X1371620Y5930900I0J-12720D01*
G01Y5753100D01*
G02X1358900Y5740380I-12720J0D01*
G01X1181100D01*
G02X1168380Y5753100I0J12720D01*
G37*
G36*
G01X9042380Y5499100D02*
Y5676900D01*
G02X9055100Y5689620I12720J0D01*
G01X9232900D01*
G02X9245620Y5676900I0J-12720D01*
G01Y5499100D01*
G02X9232900Y5486380I-12720J0D01*
G01X9055100D01*
G02X9042380Y5499100I0J12720D01*
G37*
G36*
G01X8026380D02*
Y5676900D01*
G02X8039100Y5689620I12720J0D01*
G01X8216900D01*
G02X8229620Y5676900I0J-12720D01*
G01Y5499100D01*
G02X8216900Y5486380I-12720J0D01*
G01X8039100D01*
G02X8026380Y5499100I0J12720D01*
G37*
G36*
G01X152380D02*
Y5676900D01*
G02X165100Y5689620I12720J0D01*
G01X342900D01*
G02X355620Y5676900I0J-12720D01*
G01Y5499100D01*
G02X342900Y5486380I-12720J0D01*
G01X165100D01*
G02X152380Y5499100I0J12720D01*
G37*
G36*
G01X9296380Y3721100D02*
Y3898900D01*
G02X9309100Y3911620I12720J0D01*
G01X9486900D01*
G02X9499620Y3898900I0J-12720D01*
G01Y3721100D01*
G02X9486900Y3708380I-12720J0D01*
G01X9309100D01*
G02X9296380Y3721100I0J12720D01*
G37*
G36*
G01X7772380D02*
Y3898900D01*
G02X7785100Y3911620I12720J0D01*
G01X7962900D01*
G02X7975620Y3898900I0J-12720D01*
G01Y3721100D01*
G02X7962900Y3708380I-12720J0D01*
G01X7785100D01*
G02X7772380Y3721100I0J12720D01*
G37*
G36*
G01X7010380D02*
Y3898900D01*
G02X7023100Y3911620I12720J0D01*
G01X7200900D01*
G02X7213620Y3898900I0J-12720D01*
G01Y3721100D01*
G02X7200900Y3708380I-12720J0D01*
G01X7023100D01*
G02X7010380Y3721100I0J12720D01*
G37*
G36*
G01X5486380D02*
Y3898900D01*
G02X5499100Y3911620I12720J0D01*
G01X5676900D01*
G02X5689620Y3898900I0J-12720D01*
G01Y3721100D01*
G02X5676900Y3708380I-12720J0D01*
G01X5499100D01*
G02X5486380Y3721100I0J12720D01*
G37*
G36*
G01X2692380D02*
Y3898900D01*
G02X2705100Y3911620I12720J0D01*
G01X2882900D01*
G02X2895620Y3898900I0J-12720D01*
G01Y3721100D01*
G02X2882900Y3708380I-12720J0D01*
G01X2705100D01*
G02X2692380Y3721100I0J12720D01*
G37*
G36*
G01X1930380D02*
Y3898900D01*
G02X1943100Y3911620I12720J0D01*
G01X2120900D01*
G02X2133620Y3898900I0J-12720D01*
G01Y3721100D01*
G02X2120900Y3708380I-12720J0D01*
G01X1943100D01*
G02X1930380Y3721100I0J12720D01*
G37*
G36*
G01X406380D02*
Y3898900D01*
G02X419100Y3911620I12720J0D01*
G01X596900D01*
G02X609620Y3898900I0J-12720D01*
G01Y3721100D01*
G02X596900Y3708380I-12720J0D01*
G01X419100D01*
G02X406380Y3721100I0J12720D01*
G37*
G36*
G01X8660280Y545000D02*
Y725000D01*
G02X8673000Y737720I12720J0D01*
G01X8853000D01*
G02X8865720Y725000I0J-12720D01*
G01Y545000D01*
G02X8853000Y532280I-12720J0D01*
G01X8673000D01*
G02X8660280Y545000I0J12720D01*
G37*
G36*
G01X6628280D02*
Y725000D01*
G02X6641000Y737720I12720J0D01*
G01X6821000D01*
G02X6833720Y725000I0J-12720D01*
G01Y545000D01*
G02X6821000Y532280I-12720J0D01*
G01X6641000D01*
G02X6628280Y545000I0J12720D01*
G37*
G36*
G01X4596280D02*
Y725000D01*
G02X4609000Y737720I12720J0D01*
G01X4789000D01*
G02X4801720Y725000I0J-12720D01*
G01Y545000D01*
G02X4789000Y532280I-12720J0D01*
G01X4609000D01*
G02X4596280Y545000I0J12720D01*
G37*
G36*
G01X2564280D02*
Y725000D01*
G02X2577000Y737720I12720J0D01*
G01X2757000D01*
G02X2769720Y725000I0J-12720D01*
G01Y545000D01*
G02X2757000Y532280I-12720J0D01*
G01X2577000D01*
G02X2564280Y545000I0J12720D01*
G37*
G36*
G01X1170390Y4170280D02*
G03Y4186320I-6243J8020D01*
G02X1155680Y4216400I23400J30080D01*
G02X1231920I38120J0D01*
G02X1217210Y4186320I-38110J0D01*
G03Y4170280I6243J-8020D01*
G02X1231920Y4140200I-23400J-30080D01*
G02X1155680I-38120J0D01*
G02X1170390Y4170280I38110J0D01*
G37*
G36*
G01X8536390D02*
G03Y4186320I-6243J8020D01*
G02X8521680Y4216400I23400J30080D01*
G02X8597920I38120J0D01*
G02X8583210Y4186320I-38110J0D01*
G03Y4170280I6243J-8020D01*
G02X8597920Y4140200I-23400J-30080D01*
G02X8521680I-38120J0D01*
G02X8536390Y4170280I38110J0D01*
G37*
G36*
G01X1170390Y4525880D02*
G03Y4541920I-6243J8020D01*
G02X1155680Y4572000I23400J30080D01*
G02X1231920I38120J0D01*
G02X1217210Y4541920I-38110J0D01*
G03Y4525880I6243J-8020D01*
G02X1231920Y4495800I-23400J-30080D01*
G02X1155680I-38120J0D01*
G02X1170390Y4525880I38110J0D01*
G37*
G36*
G01X1703840Y4559270D02*
G03X1714530Y4569960I550J10140D01*
G02X1714480Y4572000I38072J1954D01*
G02X1752600Y4533880I38120J0D01*
G02X1750560Y4533930I-86J38122D01*
G03X1739870Y4523240I-550J-10140D01*
G02X1739920Y4521200I-38072J-1954D01*
G02X1701800Y4559320I-38120J0D01*
G02X1703840Y4559270I86J-38122D01*
G37*
G36*
G01X3456390Y4525880D02*
G03Y4541920I-6243J8020D01*
G02X3441680Y4572000I23400J30080D01*
G02X3517920I38120J0D01*
G02X3503210Y4541920I-38110J0D01*
G03Y4525880I6243J-8020D01*
G02X3517920Y4495800I-23400J-30080D01*
G02X3441680I-38120J0D01*
G02X3456390Y4525880I38110J0D01*
G37*
G36*
G01X6250390D02*
G03Y4541920I-6243J8020D01*
G02X6235680Y4572000I23400J30080D01*
G02X6311920I38120J0D01*
G02X6297210Y4541920I-38110J0D01*
G03Y4525880I6243J-8020D01*
G02X6311920Y4495800I-23400J-30080D01*
G02X6235680I-38120J0D01*
G02X6250390Y4525880I38110J0D01*
G37*
G36*
G01X8536390D02*
G03Y4541920I-6243J8020D01*
G02X8521680Y4572000I23400J30080D01*
G02X8597920I38120J0D01*
G02X8583210Y4541920I-38110J0D01*
G03Y4525880I6243J-8020D01*
G02X8597920Y4495800I-23400J-30080D01*
G02X8521680I-38120J0D01*
G02X8536390Y4525880I38110J0D01*
G37*
G36*
G01X2840120Y6250390D02*
G03X2824080I-8020J-6243D01*
G02X2794000Y6235680I-30080J23400D01*
G02Y6311920I0J38120D01*
G02X2824080Y6297210I0J-38110D01*
G03X2840120I8020J6243D01*
G02X2870200Y6311920I30080J-23400D01*
G02Y6235680I0J-38120D01*
G02X2840120Y6250390I0J38110D01*
G37*
G36*
G01X3779920D02*
G03X3763880I-8020J-6243D01*
G02X3733800Y6235680I-30080J23400D01*
G02Y6311920I0J38120D01*
G02X3763880Y6297210I0J-38110D01*
G03X3779920I8020J6243D01*
G02X3810000Y6311920I30080J-23400D01*
G02Y6235680I0J-38120D01*
G02X3779920Y6250390I0J38110D01*
G37*
G36*
G01X7361320D02*
G03X7345280I-8020J-6243D01*
G02X7315200Y6235680I-30080J23400D01*
G02Y6311920I0J38120D01*
G02X7345280Y6297210I0J-38110D01*
G03X7361320I8020J6243D01*
G02X7391400Y6311920I30080J-23400D01*
G02Y6235680I0J-38120D01*
G02X7361320Y6250390I0J38110D01*
G37*
G36*
G01X6396120Y6263090D02*
G03X6380080I-8020J-6243D01*
G02X6350000Y6248380I-30080J23400D01*
G02Y6324620I0J38120D01*
G02X6380080Y6309910I0J-38110D01*
G03X6396120I8020J6243D01*
G02X6426200Y6324620I30080J-23400D01*
G02Y6248380I0J-38120D01*
G02X6396120Y6263090I0J38110D01*
G37*
G36*
G01X6301700Y6082520D02*
X6611990Y6392810D01*
G02X6629400Y6400020I17410J-17415D01*
G01X6731000D01*
G02X6748410Y6392810I0J-24625D01*
G01X6850010Y6291210D01*
G02X6857220Y6273800I-17415J-17410D01*
G01Y5985400D01*
G02X6870720Y5956300I-24613J-29100D01*
G02X6794480I-38120J0D01*
G02X6807980Y5985400I38113J0D01*
G01Y6263600D01*
X6720800Y6350780D01*
X6639600D01*
X6329310Y6040490D01*
G02X6311900Y6033280I-17410J17415D01*
G01X6234320D01*
G02X6205220Y6019780I-29100J24613D01*
G02Y6096020I0J38120D01*
G02X6234320Y6082520I0J-38113D01*
G01X6301700D01*
G37*
G36*
G01X3259190Y6265810D02*
X3436990Y6443610D01*
G02X3454400Y6450820I17410J-17415D01*
G01X3987800D01*
G02X4005210Y6443610I0J-24625D01*
G01X4208410Y6240410D01*
G02X4215620Y6223000I-17415J-17410D01*
G01Y6048900D01*
G02X4229120Y6019800I-24613J-29100D01*
G02X4152880I-38120J0D01*
G02X4166380Y6048900I38113J0D01*
G01Y6212800D01*
X3977600Y6401580D01*
X3464600D01*
X3301220Y6238200D01*
Y6048900D01*
G02X3314720Y6019800I-24613J-29100D01*
G02X3238480I-38120J0D01*
G02X3251980Y6048900I38113J0D01*
G01Y6248400D01*
G02X3259190Y6265810I24625J0D01*
G37*
G36*
G01X3906920Y6674390D02*
G03X3890880I-8020J-6243D01*
G02X3860800Y6659680I-30080J23400D01*
G02Y6735920I0J38120D01*
G02X3890880Y6721210I0J-38110D01*
G03X3906920I8020J6243D01*
G02X3937000Y6735920I30080J-23400D01*
G02Y6659680I0J-38120D01*
G02X3906920Y6674390I0J38110D01*
G37*
G36*
G01X8357380Y6035000D02*
X7420030Y6972350D01*
X7417840Y6972290D01*
G02X7416800Y6972280I-887J38111D01*
G02X7454920Y7010400I0J38120D01*
G02X7454910Y7009360I-38121J-153D01*
G01X7454850Y7007170D01*
X8399410Y6062610D01*
G02X8406620Y6045200I-17415J-17410D01*
G01Y5926270D01*
X8410070Y5925110D01*
G02X8469720Y5842000I-28073J-83110D01*
G02X8294280I-87720J0D01*
G02X8353930Y5925110I87723J0D01*
G01X8357380Y5926270D01*
Y6035000D01*
G37*
G36*
G01X7297570Y7040280D02*
G03X7284210I-6680J-7651D01*
G02X7259140Y7030880I-25070J28731D01*
G02Y7107120I0J38120D01*
G02X7284210Y7097720I0J-38131D01*
G03X7297570I6680J7651D01*
G02X7322640Y7107120I25070J-28731D01*
G02Y7030880I0J-38120D01*
G02X7297570Y7040280I0J38131D01*
G37*
G36*
G01X3754520Y7063190D02*
G03X3738480I-8020J-6243D01*
G02X3708400Y7048480I-30080J23400D01*
G02Y7124720I0J38120D01*
G02X3738480Y7110010I0J-38110D01*
G03X3754520I8020J6243D01*
G02X3784600Y7124720I30080J-23400D01*
G02Y7048480I0J-38120D01*
G02X3754520Y7063190I0J38110D01*
G37*
G36*
G01X7965400Y7239780D02*
X6963300D01*
G02X6934200Y7226280I-29100J24613D01*
G02Y7302520I0J38120D01*
G02X6963300Y7289020I0J-38113D01*
G01X7975600D01*
G02X7993010Y7281810I0J-24625D01*
G01X8339870Y6934940D01*
G02X8382000Y6945720I42130J-76935D01*
G02X8469720Y6858000I0J-87720D01*
G02X8460620Y6819090I-87721J-4D01*
G01X8459000Y6815820D01*
X8526410Y6748410D01*
G02X8533620Y6731000I-17415J-17410D01*
G01Y6538000D01*
X8907410Y6164210D01*
G02X8914620Y6146800I-17415J-17410D01*
G01Y5445790D01*
X9313810Y5046600D01*
G02X9321020Y5029190I-17415J-17410D01*
G01Y4389520D01*
G03X9338120Y4382100I10160J1D01*
G02X9398000Y4405720I59880J-64092D01*
G02Y4230280I0J-87720D01*
G02X9338120Y4253900I0J87712D01*
G03X9321020Y4246480I-6940J-7421D01*
G01Y4191000D01*
G02X9313810Y4173590I-24625J0D01*
G01X9161410Y4021190D01*
G02X9144000Y4013980I-17410J17415D01*
G01X8563500D01*
G02X8534400Y4000480I-29100J24613D01*
G02Y4076720I0J38120D01*
G02X8563500Y4063220I0J-38113D01*
G01X9133800D01*
X9271780Y4201200D01*
Y5018990D01*
X8872590Y5418180D01*
G02X8865380Y5435590I17415J17410D01*
G01Y6136600D01*
X8491590Y6510390D01*
G02X8484380Y6527800I17415J17410D01*
G01Y6720800D01*
X8424130Y6781060D01*
G02X8382000Y6770280I-42130J76935D01*
G02X8294280Y6858000I0J87720D01*
G02X8305060Y6900130I87715J0D01*
G01X7965400Y7239780D01*
G37*
G36*
G01X7462920Y9552390D02*
G03X7446880I-8020J-6243D01*
G02X7416800Y9537680I-30080J23400D01*
G02Y9613920I0J38120D01*
G02X7446880Y9599210I0J-38110D01*
G03X7462920I8020J6243D01*
G02X7493000Y9613920I30080J-23400D01*
G02Y9537680I0J-38120D01*
G02X7462920Y9552390I0J38110D01*
G37*
G36*
G01X7463630Y6680470D02*
G02X7429680Y6659680I-33950J17325D01*
G02Y6735920I0J38120D01*
G02X7463630Y6715130I0J-38115D01*
G03X7481730I9050J4623D01*
G02X7515680Y6735920I33950J-17325D01*
G02Y6659680I0J-38120D01*
G02X7481730Y6680470I0J38115D01*
G03X7463630I-9050J-4623D01*
G37*
G36*
G01X6408790Y7561210D02*
G02X6426200Y7568420I17410J-17415D01*
G01X9550400D01*
G02X9567810Y7561210I0J-24625D01*
G01X9847210Y7281810D01*
G02X9854420Y7264400I-17415J-17410D01*
G01Y6273800D01*
G02X9847210Y6256390I-24625J0D01*
G01X9549620Y5958800D01*
Y5715000D01*
G02X9542410Y5697590I-24625J0D01*
G01X9475000Y5630180D01*
X9476620Y5626910D01*
G02X9485720Y5588000I-78621J-38906D01*
G02X9398000Y5675720I-87720J0D01*
G02X9436910Y5666620I4J-87721D01*
G01X9440180Y5665000D01*
X9500380Y5725200D01*
Y5969000D01*
G02X9507590Y5986410I24625J0D01*
G01X9805180Y6284000D01*
Y6495030D01*
G03X9787840Y6502220I-10159J4D01*
G01X9669010Y6383390D01*
G02X9651600Y6376180I-17410J17415D01*
G01X9433600D01*
X9422620Y6365200D01*
Y5926270D01*
X9426070Y5925110D01*
G02X9485720Y5842000I-28073J-83110D01*
G02X9310280I-87720J0D01*
G02X9369930Y5925110I87723J0D01*
G01X9373380Y5926270D01*
Y6375400D01*
G02X9380590Y6392810I24625J0D01*
G01X9405990Y6418210D01*
G02X9423400Y6425420I17410J-17415D01*
G01X9641400D01*
X9754380Y6538400D01*
Y7228800D01*
X9617760Y7365420D01*
G03X9600420Y7358230I-7181J-7186D01*
G01Y6946680D01*
G03X9614880Y6937480I10159J4D01*
G02X9652000Y6945720I37120J-79490D01*
G02Y6770280I0J-87720D01*
G02X9593910Y6792270I0J87722D01*
G03X9577020Y6784660I-6730J-7610D01*
G01Y6758400D01*
G02X9569810Y6740990I-24625J0D01*
G01X9475000Y6646180D01*
X9476620Y6642910D01*
G02X9485720Y6604000I-78621J-38906D01*
G02X9398000Y6691720I-87720J0D01*
G02X9436910Y6682620I4J-87721D01*
G01X9440180Y6681000D01*
X9527780Y6768600D01*
Y6899270D01*
G02X9534990Y6916680I24625J0D01*
G01X9551180Y6932870D01*
Y7355800D01*
X9489400Y7417580D01*
X8897770D01*
G03X8890580Y7400240I-4J-10159D01*
G01X9355820Y6935000D01*
X9359090Y6936620D01*
G02X9398000Y6945720I38906J-78621D01*
G02X9310280Y6858000I0J-87720D01*
G02X9319380Y6896910I87721J4D01*
G01X9321000Y6900180D01*
X8854400Y7366780D01*
X6817000D01*
X6807620Y7357400D01*
Y7292300D01*
G02Y7234100I-24613J-29100D01*
G01Y6833800D01*
G02X6800410Y6816390I-24625J0D01*
G01X6494410Y6510390D01*
G02X6477000Y6503180I-17410J17415D01*
G01X6019020D01*
Y5943600D01*
G02X6011810Y5926190I-24625J0D01*
G01X5333220Y5247600D01*
Y4887000D01*
X6106200Y4114020D01*
X6228260D01*
G03X6237840Y4127550I-4J10160D01*
G02X6235680Y4140200I35962J12650D01*
G02X6250390Y4170280I38110J0D01*
G03Y4186320I-6243J8020D01*
G02X6235680Y4216400I23400J30080D01*
G02X6311920I38120J0D01*
G02X6297210Y4186320I-38110J0D01*
G03Y4170280I6243J-8020D01*
G02X6311920Y4140200I-23400J-30080D01*
G02X6300110Y4112620I-38109J0D01*
G03X6299940Y4098080I7012J-7353D01*
G01X6555150Y3842870D01*
X6727300D01*
G02X6756400Y3856370I29100J-24613D01*
G02Y3780130I0J-38120D01*
G02X6727300Y3793630I0J38113D01*
G01X6544950D01*
G02X6527540Y3800840I0J24625D01*
G01X6308540Y4019840D01*
G03X6291270Y4013820I-7179J-7187D01*
G02X6253400Y3980080I-37870J4383D01*
G02X6224300Y3993580I0J38113D01*
G01X6091000D01*
G02X6073590Y4000790I0J24625D01*
G01X5240390Y4833990D01*
G02X5233180Y4851400I17415J17410D01*
G01Y5283200D01*
G02X5240390Y5300610I24625J0D01*
G01X5751140Y5811360D01*
Y6685440D01*
X5743630Y6692950D01*
X5741440Y6692890D01*
G02X5740400Y6692880I-887J38111D01*
G02Y6769120I0J38120D01*
G02X5741440Y6769110I153J-38121D01*
G01X5743630Y6769050D01*
X5751140Y6776560D01*
Y6809390D01*
G03X5733800Y6816580I-10159J4D01*
G01X5698780Y6781560D01*
Y6766360D01*
G02X5691570Y6748950I-24625J0D01*
G01X5676850Y6734230D01*
X5676910Y6732040D01*
G02X5676920Y6731000I-38111J-887D01*
G02X5638800Y6769120I-38120J0D01*
G02X5639840Y6769110I153J-38121D01*
G01X5642030Y6769050D01*
X5649540Y6776560D01*
Y6791760D01*
G02X5656750Y6809170I24625J0D01*
G01X6408790Y7561210D01*
G37*
G36*
G01X541390Y7662810D02*
G02X558800Y7670020I17410J-17415D01*
G01X3606800D01*
G02X3624210Y7662810I0J-24625D01*
G01X4360810Y6926210D01*
G02X4368020Y6908800I-17415J-17410D01*
G01Y6604000D01*
G02X4360810Y6586590I-24625J0D01*
G01X4314450Y6540230D01*
X4314110Y6539610D01*
G02X4310010Y6534190I-21500J12003D01*
G01X4286210Y6510390D01*
G02X4268800Y6503180I-17410J17415D01*
G01X4145680D01*
G02X4128270Y6510390I0J24625D01*
G01X4098000Y6540660D01*
X4096350Y6540920D01*
G02X4063980Y6578600I5746J37680D01*
G02X4140220I38120J0D01*
G02X4139610Y6571790I-38122J-18D01*
G01X4139130Y6569170D01*
X4155880Y6552420D01*
X4258600D01*
X4270750Y6564570D01*
X4271090Y6565190D01*
G02X4275190Y6570610I21500J-12003D01*
G01X4278710Y6574130D01*
G03X4270620Y6591430I-7183J7183D01*
G02X4267200Y6591280I-3379J37972D01*
G02X4239470Y6603250I5J38118D01*
G03X4222170Y6598530I-7392J-6971D01*
G02X4185000Y6568880I-37170J8474D01*
G02X4146880Y6607000I0J38120D01*
G02X4160380Y6636100I38113J0D01*
G01Y6904600D01*
X4067230Y6997750D01*
X4065040Y6997690D01*
G02X4064000Y6997680I-887J38111D01*
G02X4051350Y6999840I0J38122D01*
G03X4037820Y6990260I-3370J-9584D01*
G01Y6582300D01*
G02X4051320Y6553200I-24613J-29100D01*
G02X4051180Y6549910I-38121J-26D01*
G01X4050970Y6547560D01*
X4836740Y5761790D01*
G03X4854080Y5768980I7180J7188D01*
G01Y5781790D01*
X4298240Y6337630D01*
X4295890Y6337420D01*
G02X4292600Y6337280I-3264J37981D01*
G02X4330720Y6375400I0J38120D01*
G02X4330580Y6372110I-38121J-26D01*
G01X4330370Y6369760D01*
X4892870Y5807270D01*
G02X4899520Y5791200I-16073J-16062D01*
G01Y3759200D01*
G02X4892870Y3743130I-22723J-8D01*
G01X4765870Y3616130D01*
G02X4749800Y3609480I-16062J16073D01*
G01X4348610D01*
G02X4318000Y3594080I-30610J22721D01*
G02X4279880Y3632200I0J38120D01*
G02X4282600Y3646350I38122J8D01*
G03X4273170Y3660280I-9433J3771D01*
G01X4191000D01*
G02X4174930Y3666930I-8J22723D01*
G01X3800590Y4041280D01*
X3485010D01*
G02X3454400Y4025880I-30610J22721D01*
G02X3416280Y4064000I0J38120D01*
G02X3444360Y4100770I38115J0D01*
G03X3449700Y4116810I-2680J9801D01*
G02X3441680Y4140200I30098J23390D01*
G02X3456390Y4170280I38110J0D01*
G03Y4186320I-6243J8020D01*
G02X3441680Y4216400I23400J30080D01*
G02X3517920I38120J0D01*
G02X3503210Y4186320I-38110J0D01*
G03Y4170280I6243J-8020D01*
G02X3517920Y4140200I-23400J-30080D01*
G02X3481920Y4102140I-38119J0D01*
G03X3478930Y4093180I280J-5072D01*
G02X3485010Y4086720I-24531J-29179D01*
G01X3810000D01*
G02X3826070Y4080070I8J-22723D01*
G01X4200410Y3705720D01*
X4206820D01*
G03X4216720Y3718200I7J10161D01*
G02X4216380Y3721100I12378J2921D01*
G01Y3898900D01*
G02X4229100Y3911620I12720J0D01*
G01X4406900D01*
G02X4419620Y3898900I0J-12720D01*
G01Y3721100D01*
G02X4419280Y3718200I-12718J21D01*
G03X4429180Y3705720I9893J-2319D01*
G01X4714990D01*
X4803280Y3794010D01*
Y5730990D01*
X4018840Y6515430D01*
X4016490Y6515220D01*
G02X4013200Y6515080I-3264J37981D01*
G02X3975080Y6553200I0J38120D01*
G02X3988580Y6582300I38113J0D01*
G01Y7000200D01*
X3723600Y7265180D01*
X3464600D01*
X3390850Y7191430D01*
X3390910Y7189240D01*
G02X3390920Y7188200I-38111J-887D01*
G02X3314680I-38120J0D01*
G02X3314690Y7189240I38121J153D01*
G01X3314750Y7191430D01*
X3306470Y7199710D01*
G03X3289170Y7191620I-7183J-7183D01*
G02X3289320Y7188200I-37972J-3379D01*
G02X3213080I-38120J0D01*
G02X3213090Y7189240I38121J153D01*
G01X3213150Y7191430D01*
X3198430Y7206150D01*
G02X3191220Y7223560I17415J17410D01*
G01Y7238760D01*
X3012400Y7417580D01*
X1558000D01*
X1548620Y7408200D01*
Y6942270D01*
X1552070Y6941110D01*
G02X1611720Y6858000I-28073J-83110D01*
G02X1524000Y6770280I-87720J0D01*
G02X1483400Y6780240I0J87729D01*
G01X1480100Y6781970D01*
X1419720Y6721590D01*
Y6502400D01*
G02X1413070Y6486330I-22723J-8D01*
G01X1140320Y6213590D01*
Y5562600D01*
G02X1133670Y5546530I-22723J-8D01*
G01X1011990Y5424860D01*
G03X1019180Y5407520I7188J-7180D01*
G01X1285990D01*
X1347510Y5469040D01*
G03X1340320Y5486380I-7188J7180D01*
G01X1181100D01*
G02X1168380Y5499100I0J12720D01*
G01Y5676900D01*
G02X1181100Y5689620I12720J0D01*
G01X1358900D01*
G02X1361800Y5689280I-21J-12718D01*
G03X1374280Y5699180I2319J9893D01*
G01Y5715000D01*
G02X1380930Y5731070I22723J8D01*
G01X1448020Y5798150D01*
G02X1436280Y5842000I75983J43840D01*
G02X1524000Y5929720I87720J0D01*
G02X1562910Y5920620I4J-87721D01*
G01X1566180Y5919000D01*
X2637130Y6989950D01*
G02X2644080Y6994830I17412J-17408D01*
G01X2644890Y6995210D01*
X2654350Y7004670D01*
X2654290Y7006860D01*
G02X2654280Y7007900I38111J887D01*
G02X2692400Y6969780I38120J0D01*
G02X2691360Y6969790I-153J38121D01*
G01X2689170Y6969850D01*
X2674450Y6955130D01*
G02X2667500Y6950250I-17412J17408D01*
G01X2666690Y6949870D01*
X1601000Y5884180D01*
X1602620Y5880910D01*
G02X1611720Y5842000I-78621J-38906D01*
G02X1524000Y5754280I-87720J0D01*
G02X1483400Y5764240I0J87729D01*
G01X1480100Y5765970D01*
X1419720Y5705590D01*
Y5486400D01*
G02X1413070Y5470330I-22723J-8D01*
G01X1311470Y5368730D01*
G02X1295400Y5362080I-16062J16073D01*
G01X1025420D01*
X886320Y5222980D01*
Y4352810D01*
X1188160Y4050970D01*
X1190510Y4051180D01*
G02X1193800Y4051320I3264J-37981D01*
G02X1231920Y4013200I0J-38120D01*
G02X1206350Y3977200I-38127J0D01*
G03X1202510Y3960430I3343J-9590D01*
G01X1355610Y3807320D01*
X1645790D01*
G02X1676400Y3822720I30610J-22721D01*
G02Y3746480I0J-38120D01*
G02X1645790Y3761880I0J38121D01*
G01X1346200D01*
G02X1330130Y3768530I-8J22723D01*
G01X796730Y4301930D01*
G02X790080Y4318000I16073J16062D01*
G01Y5257800D01*
G02X796730Y5273870I22723J8D01*
G01X1094880Y5572010D01*
Y6223000D01*
G02X1101530Y6239070I22723J8D01*
G01X1347510Y6485040D01*
G03X1340320Y6502380I-7188J7180D01*
G01X1181100D01*
G02X1168380Y6515100I0J12720D01*
G01Y6692900D01*
G02X1181100Y6705620I12720J0D01*
G01X1358900D01*
G02X1361800Y6705280I-21J-12718D01*
G03X1374280Y6715180I2319J9893D01*
G01Y6731000D01*
G02X1380930Y6747070I22723J8D01*
G01X1448020Y6814150D01*
G02X1436280Y6858000I75983J43840D01*
G02X1495930Y6941110I87723J0D01*
G01X1499380Y6942270D01*
Y7418400D01*
G02X1506590Y7435810I24625J0D01*
G01X1521820Y7451040D01*
G03X1514630Y7468380I-7186J7181D01*
G01X1432600D01*
X1015220Y7051000D01*
Y6324600D01*
G02X1008010Y6307190I-24625J0D01*
G01X585000Y5884180D01*
X586620Y5880910D01*
G02X595720Y5842000I-78621J-38906D01*
G02X508000Y5929720I-87720J0D01*
G02X546910Y5920620I4J-87721D01*
G01X550180Y5919000D01*
X965980Y6334800D01*
Y7061200D01*
G02X973190Y7078610I24625J0D01*
G01X1396420Y7501840D01*
G03X1389230Y7519180I-7186J7181D01*
G01X1204000D01*
X585000Y6900180D01*
X586620Y6896910D01*
G02X595720Y6858000I-78621J-38906D01*
G02X508000Y6945720I-87720J0D01*
G02X546910Y6936620I4J-87721D01*
G01X550180Y6935000D01*
X1167820Y7552640D01*
G03X1160630Y7569980I-7186J7181D01*
G01X721400D01*
X507220Y7355800D01*
Y7061190D01*
G02X500010Y7043780I-24625J0D01*
G01X405620Y6949390D01*
Y6741200D01*
X465820Y6681000D01*
X469090Y6682620D01*
G02X508000Y6691720I38906J-78621D01*
G02X420280Y6604000I0J-87720D01*
G02X429380Y6642910I87721J4D01*
G01X431000Y6646180D01*
X363590Y6713590D01*
G02X356380Y6731000I17415J17410D01*
G01Y6746460D01*
G03X344750Y6756510I-10158J-1D01*
G02X342900Y6756380I-1814J12592D01*
G01X165100D01*
G02X152380Y6769100I0J12720D01*
G01Y6946900D01*
G02X165100Y6959620I12720J0D01*
G01X342900D01*
G02X345510Y6959350I3J-12720D01*
G03X357360Y6966460I2093J9942D01*
G02X363590Y6977000I23644J-6864D01*
G01X457980Y7071390D01*
Y7366000D01*
G02X465190Y7383410I24625J0D01*
G01X685220Y7603440D01*
G03X678030Y7620780I-7186J7181D01*
G01X569000D01*
X126220Y7178000D01*
Y6258600D01*
X398410Y5986410D01*
G02X405620Y5969000I-17415J-17410D01*
G01Y5725200D01*
X465820Y5665000D01*
X469090Y5666620D01*
G02X508000Y5675720I38906J-78621D01*
G02X420280Y5588000I0J-87720D01*
G02X429380Y5626910I87721J4D01*
G01X431000Y5630180D01*
X363590Y5697590D01*
G02X356380Y5715000I17415J17410D01*
G01Y5730460D01*
G03X344750Y5740510I-10158J-1D01*
G02X342900Y5740380I-1814J12592D01*
G01X165100D01*
G02X152380Y5753100I0J12720D01*
G01Y5930900D01*
G02X165100Y5943620I12720J0D01*
G01X342900D01*
G02X344750Y5943490I36J-12722D01*
G03X356380Y5953540I1472J10051D01*
G01Y5958800D01*
X84190Y6230990D01*
G02X76980Y6248400I17415J17410D01*
G01Y7188200D01*
G02X84190Y7205610I24625J0D01*
G01X541390Y7662810D01*
G37*
G54D31*
X4038600Y4572000D03*
X6832600D03*
X9118600D03*
X2743200Y6697800D03*
X2641600D03*
X2768600Y7069000D03*
X2870200D03*
X8432800Y8356600D03*
X8559800D03*
X8432800Y8229600D03*
X8559800D03*
X8686800D03*
Y8356600D03*
X8432800Y8610600D03*
X8559800D03*
Y8483600D03*
X8432800D03*
X8686800D03*
Y8610600D03*
G54D28*
X2921000Y635000D03*
X4953000D03*
X6985000D03*
X9017000D03*
X2667000Y889000D03*
X2921000D03*
X4699000D03*
X4953000D03*
X6731000D03*
X6985000D03*
X8763000D03*
X9017000D03*
G54D29*
X1778000Y1270000D03*
X3810000D03*
X5842000D03*
X7874000D03*
X1520000Y1524000D03*
X1778000D03*
X2033000D03*
X3552000D03*
X3810000D03*
X4065000D03*
X5584000D03*
X5842000D03*
X6097000D03*
X7616000D03*
X7874000D03*
X8129000D03*
G54D27*
X1270000Y635000D03*
X2286000D03*
X3302000D03*
X4318000D03*
X5334000D03*
X6350000D03*
X7366000D03*
X8382000D03*
G54D32*
X3556000Y9144000D03*
X3810000D03*
X4064000D03*
X4318000D03*
X4572000D03*
X4826000D03*
X5080000D03*
X5334000D03*
X5588000D03*
X5842000D03*
X6096000D03*
X6604000D03*
X6350000D03*
X6858000D03*
X3302000Y9398000D03*
X3556000D03*
X3810000D03*
X4064000D03*
X4318000D03*
X4572000D03*
X4826000D03*
X5080000D03*
X5334000D03*
X5588000D03*
X5842000D03*
X6096000D03*
X6604000D03*
X6350000D03*
X6858000D03*
G54D26*
X400000Y400000D03*
X9600000D03*
X400000Y8000000D03*
X9600000D03*
G54D30*
X508000Y4064000D03*
X2032000D03*
X2794000D03*
X4318000D03*
X5588000D03*
X7112000D03*
X7874000D03*
X9398000D03*
X508000Y4318000D03*
X2032000D03*
X2794000D03*
X4318000D03*
X5588000D03*
X7112000D03*
X7874000D03*
X762000Y5588000D03*
X1524000D03*
X1778000D03*
X8382000D03*
X8636000D03*
X9652000D03*
X762000Y5842000D03*
X1778000D03*
X8636000D03*
X9652000D03*
X762000Y6604000D03*
X1524000D03*
X1778000D03*
X4927600Y6477000D03*
X5181600D03*
X8382000Y6604000D03*
X8636000D03*
X9652000D03*
X762000Y6858000D03*
X1778000D03*
X8636000D03*
X7950200Y9804400D03*
X8204200D03*
G54D25*
X9212400Y8886000D03*
%LPD*%
G75*
G36*
G01X3081170Y7519180D02*
X3545800D01*
X3733220Y7331760D01*
G02X3726030Y7314420I-7186J-7181D01*
G01X3454400D01*
G03X3436990Y7307210I0J-24625D01*
G01X3356030Y7226250D01*
X3353840Y7226310D01*
G03X3352800Y7226320I-887J-38111D01*
G03X3351760Y7226310I-153J-38121D01*
G01X3349570Y7226250D01*
X3073980Y7501840D01*
G02X3081170Y7519180I7186J7181D01*
G37*
G36*
G01X5814490Y6695880D02*
G03X5829300Y6692880I14822J35117D01*
G03X5844110Y6695880I-12J38117D01*
G02X5858220Y6686510I3949J-9363D01*
G01Y6639360D01*
G03X5865430Y6621950I24625J0D01*
G01X5969780Y6517600D01*
Y5953800D01*
X5817720Y5801740D01*
G02X5800380Y5808930I-7181J7186D01*
G01Y6686510D01*
G02X5814490Y6695880I10161J7D01*
G37*
G36*
G01X6715800Y7417580D02*
X6773630D01*
G02X6780820Y7400240I4J-10159D01*
G01X6765590Y7385010D01*
G03X6758380Y7367600I17415J-17410D01*
G01Y7292300D01*
G03Y7234100I24613J-29100D01*
G01Y6844000D01*
X6466800Y6552420D01*
X6004600D01*
X5907460Y6649560D01*
Y6685440D01*
X5914970Y6692950D01*
X5917160Y6692890D01*
G03X5918200Y6692880I887J38111D01*
G03X5880080Y6731000I0J38120D01*
G03X5880090Y6729960I38121J-153D01*
G01X5880150Y6727770D01*
X5872330Y6719940D01*
X5867050Y6725220D01*
X5867270Y6727580D01*
G03X5867420Y6731000I-37972J3379D01*
G03X5855510Y6758680I-38121J0D01*
G01X5853920Y6760190D01*
Y6770800D01*
X5992700Y6909580D01*
X6527800D01*
G03X6545210Y6916790I0J24625D01*
G01X6672210Y7043790D01*
G03X6679420Y7061200I-17415J17410D01*
G01Y7381200D01*
X6715800Y7417580D01*
G37*
G36*
G01X6614200Y7468380D02*
X6672430D01*
G02X6679620Y7451040I4J-10159D01*
G01X6637390Y7408810D01*
G03X6630180Y7391400I17415J-17410D01*
G01Y7071400D01*
X6517600Y6958820D01*
X5982500D01*
G03X5965090Y6951610I0J-24625D01*
G01X5809050Y6795570D01*
G02X5800380Y6799160I-3591J3593D01*
G01Y6806960D01*
X5985240Y6991820D01*
X6219300D01*
G03X6248400Y6978320I29100J24613D01*
G03X6286520Y7016440I0J38120D01*
G03X6273020Y7045540I-38113J0D01*
G01Y7127200D01*
X6614200Y7468380D01*
G37*
G36*
G01X6436400Y7519180D02*
X6570830D01*
G02X6578020Y7501840I4J-10159D01*
G01X6230990Y7154810D01*
G03X6223780Y7137400I17415J-17410D01*
G01Y7045540D01*
G03X6219300Y7041060I24620J-29100D01*
G01X5982810D01*
G02X5975620Y7058400I-4J10159D01*
G01X6436400Y7519180D01*
G37*
%LPC*%
G75*
G36*
G01X6236490Y6675740D02*
G02X6205400Y6659680I-31090J22063D01*
G02Y6735920I0J38120D01*
G02X6236490Y6719860I0J-38123D01*
G03X6253050I8280J5885D01*
G02X6284140Y6735920I31090J-22063D01*
G02Y6659680I0J-38120D01*
G02X6253050Y6675740I0J38123D01*
G03X6236490I-8280J-5885D01*
G37*
G36*
G01X6436870Y7040280D02*
G03X6423510I-6680J-7651D01*
G02X6398440Y7030880I-25070J28731D01*
G02Y7107120I0J38120D01*
G02X6423510Y7097720I0J-38131D01*
G03X6436870I6680J7651D01*
G02X6461940Y7107120I25070J-28731D01*
G02Y7030880I0J-38120D01*
G02X6436870Y7040280I0J38131D01*
G37*
%LPD*%
G75*
G54D10*
X400000Y400000D03*
Y8000000D03*
X9600000Y400000D03*
Y8000000D03*
G54D20*
X9212400Y8886000D03*
G54D11*
X222200Y1066800D03*
Y1466800D03*
X120600Y2108200D03*
Y2508200D03*
Y2971800D03*
Y3371800D03*
Y3810000D03*
Y4210000D03*
Y4673600D03*
Y5073600D03*
X177800Y8356600D03*
Y8756600D03*
Y9156600D03*
Y9556600D03*
X381000Y3962400D03*
Y4165600D03*
X355600Y6121400D03*
Y6299200D03*
Y7137400D03*
Y7340600D03*
X622200Y1066800D03*
Y1466800D03*
X603200Y2451000D03*
Y2851000D03*
X730200Y3187600D03*
Y3587600D03*
X685800Y3860800D03*
X609600Y3962400D03*
Y4165600D03*
X711200Y4267200D03*
X552400Y4686200D03*
Y5086200D03*
X609600Y6121400D03*
Y6299200D03*
Y7137400D03*
Y7340600D03*
X577800Y8356600D03*
Y8756600D03*
Y9156600D03*
Y9556600D03*
X914400Y158600D03*
X948790Y1797950D03*
X1019500Y1727240D03*
X919300Y1993500D03*
Y1893500D03*
Y2293500D03*
Y2193500D03*
Y2093500D03*
X852500Y2581410D03*
X893010Y2489980D03*
X919300Y2393500D03*
X852500Y2776260D03*
X875050Y2678840D03*
X919300Y3064000D03*
Y2964000D03*
X877850Y2873000D03*
X919300Y3364000D03*
Y3264000D03*
Y3164000D03*
Y3564000D03*
Y3464000D03*
Y3864000D03*
Y3764000D03*
Y3664000D03*
X812800Y3860800D03*
X929500Y4422600D03*
Y4522600D03*
Y4622600D03*
Y4722600D03*
X993210Y4799670D03*
X984200Y5702200D03*
Y6102200D03*
X977800Y8001000D03*
Y8356600D03*
Y8756600D03*
Y9156600D03*
Y9556600D03*
X1219200Y863600D03*
X1092200D03*
X1219200Y1168400D03*
X1231630Y1515110D03*
X1192070Y1801590D03*
X1262780Y1730880D03*
X1090210Y1656530D03*
X1160920Y1585820D03*
X1093900Y2068460D03*
Y1968460D03*
X1121360Y1872300D03*
X1093900Y2268460D03*
Y2168460D03*
X1081030Y2567630D03*
X1093900Y2468460D03*
Y2368460D03*
X1266110Y2868290D03*
X1093890Y2864000D03*
X1076970Y2765440D03*
X1093600Y2666830D03*
X1262680Y3068240D03*
X1265820Y2968290D03*
X1093900Y3064000D03*
Y2964000D03*
X1274210Y3366520D03*
X1260200Y3267500D03*
X1269910Y3167980D03*
X1093900Y3364000D03*
Y3264000D03*
Y3164000D03*
Y3564000D03*
Y3464000D03*
Y3864000D03*
Y3764000D03*
Y3664000D03*
X1193800Y4140200D03*
Y4013200D03*
X1092200Y4394200D03*
X1193800Y4216400D03*
X1092200Y4470400D03*
X1104100Y4622600D03*
X1193800Y4495800D03*
Y4572000D03*
X1063920Y4870390D03*
X1134640Y4941100D03*
X1151250Y4710790D03*
X1221960Y4781500D03*
X1205350Y5011810D03*
X1276060Y5082520D03*
X1066800Y5080000D03*
X1314400Y158600D03*
X1503500Y720300D03*
Y620300D03*
Y520300D03*
X1498600Y838200D03*
X1371600Y863600D03*
X1514480Y1232260D03*
X1302340Y1444400D03*
X1373050Y1373680D03*
X1443770Y1302970D03*
X1446100Y1784430D03*
X1485860Y1692680D03*
X1333490Y1660170D03*
X1404200Y1589460D03*
X1446100Y1984430D03*
Y1884430D03*
Y2284430D03*
Y2184430D03*
Y2084430D03*
Y2584430D03*
Y2484430D03*
Y2384430D03*
X1335170Y2795960D03*
X1434420Y2783750D03*
X1446100Y2684430D03*
Y3564000D03*
Y3464000D03*
X1352550Y3428680D03*
X1446100Y3864000D03*
Y3664000D03*
X1295400Y4140200D03*
X1397000Y4064000D03*
Y3937000D03*
X1295400Y4216400D03*
X1437500Y4322600D03*
Y4422600D03*
X1397000Y4191000D03*
X1295400Y4495800D03*
Y4572000D03*
X1437500Y4522600D03*
Y4622600D03*
X1292670Y4852210D03*
X1363380Y4922920D03*
X1437500Y4722600D03*
X1486120Y4809980D03*
X1346770Y5153230D03*
X1417480Y5223940D03*
X1434090Y4993630D03*
X1504800Y5064340D03*
X1488190Y5294650D03*
X1371600Y6121400D03*
Y6299200D03*
Y7137400D03*
Y7340600D03*
X1377800Y8001000D03*
Y8356600D03*
Y8756600D03*
Y9156600D03*
Y9556600D03*
X1714400Y158600D03*
X1765200Y558800D03*
Y958800D03*
X1601330Y1182700D03*
X1701800Y1168400D03*
X1616330Y1377330D03*
X1701800Y1371600D03*
X1676400Y1447800D03*
X1654300Y1771160D03*
X1725010Y1700450D03*
X1620700Y2065340D03*
Y1965340D03*
Y1865340D03*
X1752600Y2076400D03*
X1620700Y2265340D03*
Y2165340D03*
Y2565340D03*
Y2465340D03*
Y2365340D03*
X1752600Y2476400D03*
X1614100Y2865130D03*
X1620700Y2765340D03*
Y2665340D03*
X1610590Y3065090D03*
X1611580Y2965100D03*
X1752600Y2876400D03*
X1617190Y3364060D03*
X1606430Y3264640D03*
X1614860Y3165000D03*
X1752600Y3276400D03*
X1620700Y3564000D03*
Y3464000D03*
Y3864000D03*
Y3664000D03*
X1752600Y3860800D03*
X1676400Y3784600D03*
X1600200Y4394200D03*
X1803400Y4521200D03*
X1600200Y4470400D03*
X1612100Y4622600D03*
X1701800Y4521200D03*
X1752600Y4572000D03*
X1556830Y4880690D03*
X1627540Y4951400D03*
X1641300Y4718240D03*
X1712010Y4788950D03*
X1575510Y5135050D03*
X1673940Y5152720D03*
X1773940D03*
X1722790Y4981880D03*
X1582700Y5327320D03*
X1682700D03*
X1782700D03*
X1625600Y6121400D03*
Y6299200D03*
Y7137400D03*
Y7340600D03*
X1777800Y8001000D03*
Y8356600D03*
Y8756600D03*
Y9156600D03*
Y9556600D03*
X2062300Y720300D03*
Y620300D03*
Y520300D03*
X1854200Y1168400D03*
Y1371600D03*
Y1447800D03*
Y1651000D03*
X1879600Y3860800D03*
X1930400Y3987800D03*
Y4165600D03*
X1854200Y4572000D03*
X1810320Y4807280D03*
X1910320D03*
X2010320D03*
X1873940Y5152720D03*
X1973940D03*
X1822790Y4981880D03*
X1922790D03*
X2022790D03*
X1882700Y5327320D03*
X1982700D03*
X1924000Y9759800D03*
X2114400Y158600D03*
X2082800Y838200D03*
X2209800Y863600D03*
X2152600Y1676400D03*
Y2076400D03*
Y2476400D03*
Y2876400D03*
X2279600Y3752800D03*
X2133600Y3987800D03*
Y4165600D03*
X2279600Y4191000D03*
Y4591000D03*
X2110320Y4807280D03*
X2210320D03*
X2310320D03*
X2073940Y5152720D03*
X2173940D03*
X2273940D03*
X2122790Y4981880D03*
X2222790D03*
X2322790D03*
X2082700Y5327320D03*
X2182700D03*
X2282240Y5336870D03*
X2152600Y5702200D03*
Y6102200D03*
X2260600Y6908800D03*
X2108200Y7315200D03*
X2108000Y8001000D03*
Y8356600D03*
Y8756600D03*
Y9156600D03*
Y9556600D03*
X2311400Y9759800D03*
X2565400Y158600D03*
X2514600Y482600D03*
Y736600D03*
Y609600D03*
X2362200Y863600D03*
X2489200D03*
X2349400Y1092200D03*
Y1492200D03*
X2552600Y1676400D03*
Y2076400D03*
Y2476400D03*
Y3276400D03*
X2533600Y3752800D03*
Y4191000D03*
Y4591000D03*
X2410320Y4807280D03*
X2506610Y4834250D03*
X2577320Y4904960D03*
X2370610Y5178310D03*
X2421740Y4996300D03*
X2492450Y5067010D03*
X2563160Y5137720D03*
X2352960Y5407580D03*
X2423670Y5478290D03*
X2441320Y5249020D03*
X2512030Y5319730D03*
X2582740Y5390440D03*
X2494380Y5549000D03*
X2565090Y5619710D03*
X2508200Y5803800D03*
Y6203800D03*
X2489200Y7035800D03*
X2438400Y7264400D03*
X2514600Y7848600D03*
X2438400Y8128000D03*
Y8559800D03*
X2533600Y8737600D03*
Y9137600D03*
X2438400Y8991600D03*
X2463800Y9372600D03*
X2692400Y3962400D03*
Y4165600D03*
X2633870Y5208430D03*
X2648030Y4975670D03*
X2718740Y5046380D03*
X2789460Y5117090D03*
X2653450Y5461150D03*
X2704580Y5279150D03*
X2775290Y5349860D03*
X2846010Y5420570D03*
X2635800Y5690420D03*
X2724160Y5531860D03*
X2794870Y5602570D03*
X2706510Y5761130D03*
X2777220Y5831840D03*
X2847930Y5902550D03*
X2794000Y6273800D03*
Y6350000D03*
X2743200Y6604000D03*
X2667000D03*
X2743200Y6697800D03*
X2641600D03*
X2768600Y7069000D03*
X2692400Y7007900D03*
X2794000Y7162800D03*
X2819400Y7264400D03*
X2711400Y9759800D03*
X2965400Y158600D03*
X3073400Y1320800D03*
X3009800Y1676400D03*
Y2076400D03*
Y2476400D03*
X3036460Y3054100D03*
X3101450Y2978100D03*
X3114170Y3222820D03*
X3041650Y3153970D03*
X3098800Y3860800D03*
X2997200D03*
X2895600Y4165600D03*
Y3962400D03*
X3098800Y4267200D03*
X2997200D03*
X2990800Y4597400D03*
X2860170Y5187810D03*
X2990800Y4997400D03*
X2916720Y5491280D03*
X2930880Y5258520D03*
X3001590Y5329230D03*
X3072300Y5399940D03*
X2865580Y5673280D03*
X2936300Y5743990D03*
X2987430Y5561990D03*
X3058140Y5632700D03*
X3118180Y5712670D03*
X2918640Y5973260D03*
X3007010Y5814710D03*
X3077720Y5885420D03*
X3118180Y5812670D03*
X2970860Y6058540D03*
Y6158540D03*
X2870200Y6273800D03*
Y6350000D03*
X3098800Y6604000D03*
X2870200Y7069000D03*
Y7162800D03*
X2921000Y7848600D03*
X2933600Y8737600D03*
Y9137600D03*
X2971800Y9398000D03*
X3092400Y9759800D03*
X3365400Y158600D03*
X3124200Y431800D03*
X3251200D03*
X3276600Y863600D03*
X3149600D03*
X3276600Y1092200D03*
X3246250Y1471530D03*
X3316960Y1400820D03*
X3379900Y1765980D03*
Y1665980D03*
X3205300Y1762760D03*
Y1662760D03*
Y1562760D03*
X3379900Y2065980D03*
Y1965980D03*
Y1865980D03*
X3205300Y2062760D03*
Y1962760D03*
Y1862760D03*
X3379900Y2265980D03*
Y2165980D03*
X3205300Y2262760D03*
Y2162760D03*
X3379900Y2565980D03*
Y2465980D03*
Y2365980D03*
X3205300Y2562760D03*
Y2462760D03*
Y2362760D03*
X3379900Y2865980D03*
Y2765980D03*
Y2665980D03*
X3205300Y2862760D03*
Y2762760D03*
Y2662760D03*
X3364560Y3064800D03*
X3379900Y2965980D03*
X3200250Y2962630D03*
X3379900Y3364000D03*
Y3264000D03*
X3376820Y3164050D03*
X3205300Y3364000D03*
Y3264000D03*
X3379900Y3564000D03*
Y3464000D03*
X3205300Y3564000D03*
Y3464000D03*
X3379900Y3864000D03*
Y3764000D03*
Y3664000D03*
X3205300Y3864000D03*
Y3764000D03*
Y3664000D03*
X3378200Y4394200D03*
X3215500Y4360890D03*
X3200400Y4267200D03*
X3378200Y4470400D03*
X3215500Y4660890D03*
Y4560890D03*
Y4460890D03*
Y4960890D03*
Y4860890D03*
Y4760890D03*
X3315030Y5134370D03*
X3265450Y5047520D03*
X3143010Y5470650D03*
X3315130Y5422810D03*
X3348670Y5328610D03*
X3315210Y5234370D03*
X3213720Y5541360D03*
X3284430Y5612070D03*
X3352790Y5701750D03*
X3351400Y5516000D03*
X3145460Y5958970D03*
X3315030Y5894370D03*
X3315090Y5794370D03*
X3276600Y6019800D03*
X3127000Y6175000D03*
Y6098800D03*
X3327000Y6172600D03*
Y6096400D03*
X3302000Y6502400D03*
Y6400800D03*
Y6604000D03*
X3200400D03*
X3302000Y6705600D03*
Y7035800D03*
Y6832600D03*
Y7112000D03*
X3352800Y7188200D03*
X3251200D03*
X3327400Y7416800D03*
X3302000Y7797800D03*
X3327400Y8305800D03*
X3403600Y431800D03*
X3530600D03*
X3535500Y745700D03*
Y645700D03*
Y545700D03*
X3530600Y863600D03*
X3403600D03*
X3458380Y1259400D03*
X3529090Y1188680D03*
X3628920Y1182700D03*
X3611230Y1357300D03*
X3387670Y1330110D03*
X3397210Y1567490D03*
X3467160Y2529680D03*
X3538140Y2459240D03*
X3637560Y2448500D03*
X3468050Y2829530D03*
X3463440Y2729630D03*
X3464170Y2629640D03*
X3639680Y2908700D03*
X3540170Y2898800D03*
X3581400Y4140200D03*
X3403600Y3987800D03*
X3479800Y4140200D03*
X3454400Y4064000D03*
X3581400Y4216400D03*
X3479800D03*
X3581400Y4495800D03*
Y4572000D03*
X3390100Y4619330D03*
X3479800Y4495800D03*
Y4572000D03*
X3390100Y4919330D03*
Y4819330D03*
Y4719330D03*
X3593960Y5188710D03*
X3493970Y5187640D03*
X3489630Y5087730D03*
X3457790Y4992940D03*
X3489630Y5994370D03*
Y5894370D03*
X3606800Y5842000D03*
X3477000Y6175000D03*
Y6098800D03*
X3638220Y6193620D03*
X3403600Y6604000D03*
X3505200D03*
X3581400Y7391400D03*
X3403600Y8559800D03*
X3632200Y8737600D03*
X3479800Y9759800D03*
X3765400Y158600D03*
X3797200Y533400D03*
Y933400D03*
X3728920Y1182700D03*
X3711230Y1357300D03*
X3897300Y1792810D03*
Y1692810D03*
Y1592810D03*
X3722700Y1796040D03*
Y1696040D03*
Y1596040D03*
X3897300Y1992810D03*
Y1892810D03*
X3722700Y1996040D03*
Y1896040D03*
X3897300Y2292810D03*
Y2192810D03*
Y2092810D03*
X3722700Y2296040D03*
Y2196040D03*
Y2096040D03*
X3860220Y2585710D03*
X3897220Y2492810D03*
X3897300Y2392810D03*
X3722700Y2396040D03*
X3897220Y2864380D03*
X3860250Y2771470D03*
X3897300Y2678580D03*
Y3064380D03*
Y2964380D03*
X3722700Y3064440D03*
Y2964440D03*
X3897300Y3364380D03*
Y3264380D03*
Y3164380D03*
X3722700Y3364440D03*
Y3264440D03*
Y3164440D03*
X3897300Y3564380D03*
Y3464380D03*
X3722700Y3564440D03*
Y3464440D03*
X3905960Y3864000D03*
X3897300Y3764380D03*
Y3664380D03*
X3722700Y3864440D03*
Y3764440D03*
Y3664440D03*
X3698100Y4116980D03*
X3708400Y3987800D03*
X3886200Y4394200D03*
X3723500Y4396380D03*
X3698100Y4316980D03*
Y4216980D03*
X3886200Y4470400D03*
X3898100Y4649660D03*
Y4549660D03*
X3723500Y4696380D03*
Y4596380D03*
Y4496380D03*
X3898100Y4749660D03*
X3725800Y4896360D03*
X3723500Y4796380D03*
X3736900Y5193760D03*
X3727410Y5094210D03*
X3741200Y4995160D03*
X3681810Y5428030D03*
X3711510Y5332550D03*
X3681430Y5237170D03*
X3898100Y5491230D03*
X3711460Y5523530D03*
X3898100Y5691230D03*
Y5591230D03*
X3708400Y5664200D03*
X3815900Y5967180D03*
X3886610Y5896470D03*
X3708400Y5765800D03*
X3663620Y6119020D03*
X3745190Y6037890D03*
X3733800Y6273800D03*
X3810000D03*
X3733800Y6350000D03*
X3810000D03*
X3860800Y6604000D03*
Y6697800D03*
X3708400Y7162800D03*
X3784600D03*
X3708400Y7086600D03*
X3784600D03*
X3657600Y7899400D03*
X3784600Y8737600D03*
X3879800Y9759800D03*
X4114800Y431800D03*
X4094300Y745700D03*
Y645700D03*
Y545700D03*
X4089400Y863600D03*
X3911600Y1168400D03*
Y1371600D03*
X4108400Y1676400D03*
Y2076400D03*
Y2476400D03*
Y2876400D03*
X4089400Y4521200D03*
X4140200Y4572000D03*
X4038600D03*
X4137970Y4890700D03*
X4054990Y4834900D03*
X3955030Y4831870D03*
X4158520Y5185190D03*
X4141560Y5086640D03*
X4159730Y4988310D03*
X3997720Y5482470D03*
X4095860Y5463310D03*
X4156510Y5383790D03*
X4145740Y5284380D03*
X3911600Y5791200D03*
X3937000Y6604000D03*
Y6697800D03*
X4013200Y6553200D03*
X4102100Y6578600D03*
X4064000Y7035800D03*
X3937000Y7670800D03*
X4203600Y158600D03*
X4241800Y431800D03*
X4394200D03*
X4216400Y863600D03*
X4343400D03*
X4356000Y1066800D03*
Y1466800D03*
X4318000Y3632200D03*
X4368800Y4775200D03*
X4362400Y5245000D03*
Y5645000D03*
X4191000Y6019800D03*
X4292600Y6375400D03*
X4185000Y6607000D03*
X4267200Y6629400D03*
X4216400Y7416800D03*
X4191000Y8737600D03*
X4279800Y9759800D03*
X4603600Y158600D03*
X4546600Y482600D03*
Y736600D03*
Y609600D03*
X4470400Y863600D03*
X4565600Y1676400D03*
Y2076400D03*
Y2476400D03*
Y2876400D03*
X4622800Y6248400D03*
X4653280Y6101080D03*
X4514800Y6743600D03*
Y7143600D03*
X4572000Y7747000D03*
Y8229600D03*
Y8737600D03*
X4679800Y9759800D03*
X4718000Y4381400D03*
X4724400Y4775200D03*
X4718000Y5245000D03*
Y5645000D03*
X4724400Y6248400D03*
X4754880Y6101080D03*
X4953000Y8712200D03*
X4978400Y158600D03*
X5207000Y406400D03*
Y863600D03*
X5156200Y1244600D03*
X5073600Y1676400D03*
Y2076400D03*
Y2476400D03*
Y2876400D03*
Y3276600D03*
Y3676600D03*
Y4076600D03*
X5054600Y4394200D03*
Y4775200D03*
X5073600Y5245000D03*
Y5645000D03*
X5003800Y7416800D03*
X4978400Y7848600D03*
X5130800Y9759800D03*
X5378400Y158600D03*
X5359400Y406400D03*
Y863600D03*
X5410020Y1292430D03*
X5435600Y1066800D03*
X5340680Y1364480D03*
Y1464480D03*
Y1564480D03*
Y1664480D03*
Y1764480D03*
Y1864480D03*
Y1964480D03*
X5362530Y2062070D03*
X5433240Y2132780D03*
X5276800Y5499000D03*
Y5899000D03*
X5384800Y7035800D03*
X5410200Y7670800D03*
X5334000Y7950200D03*
Y8255000D03*
Y8712200D03*
X5537200Y406400D03*
X5567500Y745700D03*
Y645700D03*
Y545700D03*
X5511800Y863600D03*
X5709560Y1278980D03*
X5609870Y1286840D03*
X5509870D03*
X5740400Y1168400D03*
X5715000Y1473200D03*
X5515280Y1654340D03*
Y1754340D03*
X5715000Y1600200D03*
X5515280Y1854340D03*
Y1954340D03*
X5578890Y2031510D03*
X5503950Y2203490D03*
X5574660Y2274200D03*
X5645370Y2344910D03*
X5649600Y2102220D03*
X5720310Y2172930D03*
X5716080Y2415620D03*
X5530800Y2876400D03*
Y3276600D03*
X5664200Y3962400D03*
X5486400D03*
Y4165600D03*
X5664200D03*
X5740400Y4267200D03*
X5690670Y4957320D03*
X5687470Y5152440D03*
X5667170Y5054520D03*
X5721580Y5335030D03*
X5668090Y5250540D03*
X5638800Y6731000D03*
X5740400D03*
X5664200Y7467600D03*
X5734000Y8001000D03*
Y8401000D03*
X5530800Y9759800D03*
X5778400Y158600D03*
X5829200Y584200D03*
Y984200D03*
X5943600Y1168400D03*
Y1371600D03*
X5929770Y1808340D03*
X5929300Y1708350D03*
Y1608350D03*
X5754700Y1791970D03*
Y1691970D03*
X6000480Y1879060D03*
X5907260Y2032760D03*
X5836550Y1962050D03*
X5765840Y1891340D03*
X5791020Y2243640D03*
X5861730Y2314350D03*
X5977970Y2103470D03*
X5786790Y2486330D03*
X5857500Y2557040D03*
X5932440Y2385060D03*
X6003150Y2455770D03*
X5928210Y2627750D03*
X5998920Y2698470D03*
X5999300Y2798460D03*
Y2898460D03*
Y2998460D03*
Y3098460D03*
Y3198460D03*
Y3298460D03*
Y3398460D03*
Y3498460D03*
Y3598460D03*
Y3698460D03*
Y3798460D03*
X5892800Y3835400D03*
X5791200D03*
X5774640Y4903010D03*
X5874600Y4900470D03*
X5974600D03*
X5918240Y5360670D03*
X5818240D03*
X5867400Y6197600D03*
Y6350000D03*
X5829300Y6731000D03*
X5918200D03*
X5842000Y8763000D03*
X5930800Y9759800D03*
X6178400Y158600D03*
X6248400Y889000D03*
X6141900Y2020480D03*
X6071190Y1949770D03*
X6212610Y2091190D03*
X6190110Y2315610D03*
X6119400Y2244900D03*
X6048680Y2174190D03*
X6073860Y2526480D03*
X6144570Y2597190D03*
X6260820Y2386320D03*
X6173900Y2692790D03*
Y2792790D03*
Y2892790D03*
Y2992790D03*
Y3092790D03*
Y3192790D03*
Y3292790D03*
Y3392790D03*
Y3492790D03*
Y3592790D03*
Y3692790D03*
Y3792790D03*
X6197600Y3886200D03*
X6253400Y4018200D03*
X6172200Y4394200D03*
X6009500Y4406760D03*
X6019800Y4292600D03*
X6172200Y4470400D03*
X6184100Y4696660D03*
Y4596660D03*
X6009500Y4706760D03*
Y4606760D03*
Y4506760D03*
X6184100Y4896660D03*
Y4796660D03*
X6009500Y4806760D03*
X6167740Y5194960D03*
X6179500Y5095650D03*
X6172040Y4995930D03*
X6240260Y5476720D03*
X6184100Y5393990D03*
X6181380Y5294020D03*
X6009500Y5401560D03*
X6229960Y5713340D03*
X6159250Y5642630D03*
X6088540Y5571920D03*
X6017830Y5501210D03*
X6205220Y6057900D03*
X6207580Y6611800D03*
X6205400Y6697800D03*
X6248400Y7016440D03*
X6146800Y7112000D03*
Y7696200D03*
X6134000Y8001000D03*
Y8401000D03*
X6400800Y889000D03*
X6527800D03*
Y1752600D03*
Y2057400D03*
X6424740Y2303320D03*
X6354030Y2232610D03*
X6283320Y2161900D03*
X6495450Y2374030D03*
X6472950Y2598450D03*
X6402240Y2527740D03*
X6331530Y2457030D03*
X6526100Y2783150D03*
Y2683150D03*
X6358140Y3088650D03*
X6448940Y3046770D03*
X6526100Y2983150D03*
Y2883150D03*
X6321200Y3367300D03*
X6358230Y3274410D03*
X6321120Y3181550D03*
X6526100Y3564000D03*
X6444440Y3506280D03*
X6355090Y3461380D03*
X6526100Y3664000D03*
X6375400Y4140200D03*
X6483680Y4172000D03*
Y3972000D03*
Y4072000D03*
X6273800Y4140200D03*
X6375400Y4216400D03*
X6517500Y4349560D03*
X6483680Y4272000D03*
X6273800Y4216400D03*
X6375400Y4495800D03*
Y4572000D03*
X6517500Y4649560D03*
Y4549560D03*
Y4449560D03*
X6273800Y4495800D03*
Y4572000D03*
X6522750Y4948280D03*
X6520630Y4749510D03*
X6517500Y5147520D03*
X6528470Y5048120D03*
X6517500Y5447520D03*
Y5347520D03*
Y5247520D03*
X6452400Y5688860D03*
X6381690Y5618150D03*
X6310980Y5547430D03*
X6517500Y5747520D03*
Y5647520D03*
Y5547520D03*
X6512800Y5996180D03*
X6442090Y5925470D03*
X6371380Y5854760D03*
X6300670Y5784050D03*
X6521780Y6195780D03*
Y6095780D03*
X6426200Y6350000D03*
X6350000D03*
X6426200Y6286500D03*
X6350000D03*
X6289220Y6611800D03*
X6284140Y6697800D03*
X6461940Y7069000D03*
X6398440D03*
X6456860Y7155000D03*
X6393360D03*
X6324600Y7340600D03*
X6502400Y7696200D03*
X6350000Y8686800D03*
X6330800Y9759800D03*
X6629400Y158600D03*
X6553200Y508000D03*
Y685800D03*
X6700700Y2592430D03*
X6636870Y2515450D03*
X6566160Y2444740D03*
X6700700Y2792430D03*
Y2692430D03*
X6700560Y3092430D03*
X6700700Y2992430D03*
Y2892430D03*
X6661490Y3371990D03*
X6700660Y3279980D03*
X6665880Y3186230D03*
X6700700Y3564000D03*
X6700660Y3464000D03*
X6700700Y3664000D03*
X6756400Y3818250D03*
X6680200Y4394200D03*
Y4470400D03*
X6749120Y4680910D03*
X6692100Y4598760D03*
X6532710Y4848780D03*
X6692100Y5141280D03*
X6792100Y5141110D03*
X6692100Y5441280D03*
Y5341280D03*
Y5241280D03*
X6734260Y5731960D03*
X6692100Y5641280D03*
Y5541280D03*
X6671640Y5993760D03*
X6651240Y5895860D03*
X6580530Y5825150D03*
X6683000Y6175000D03*
Y6098800D03*
X6756400Y6604000D03*
X6654800D03*
X6783000Y7263200D03*
X6629400Y8407400D03*
Y8737600D03*
X6769000Y9759800D03*
X7029400Y158600D03*
X6858000Y1752600D03*
Y2057400D03*
Y3835400D03*
X6959600D03*
X7010400Y3987800D03*
Y4140200D03*
X6985000Y4267200D03*
X6883400Y4521200D03*
X6934200Y4572000D03*
X6945720Y4706780D03*
X6849120Y4680910D03*
X6832600Y4572000D03*
X6979290Y4889470D03*
X6998960Y4791430D03*
X6892070Y5138620D03*
X6976150Y5084490D03*
X6999850Y4987340D03*
X6890920Y5696020D03*
X6961630Y5625310D03*
X7032340Y5554600D03*
X6804970Y5802670D03*
X7044360Y5993760D03*
Y5893760D03*
Y5793760D03*
X6869760Y5893760D03*
Y5793760D03*
X6832600Y5956300D03*
X6883000Y6172600D03*
Y6096400D03*
X7033000Y6175000D03*
Y6098800D03*
X6858000Y6502400D03*
Y6400800D03*
Y6604000D03*
X6959600D03*
X6858000Y6705600D03*
Y6807200D03*
X6858400Y7035400D03*
Y7111600D03*
X6934200Y7264400D03*
X6858000Y7696200D03*
X6985000Y8001000D03*
Y8407400D03*
Y8737600D03*
X7188200Y457200D03*
X7162800Y762000D03*
Y584200D03*
X7239000Y863600D03*
X7086600Y1168400D03*
X7213600Y3987800D03*
Y4140200D03*
X7221120Y5144040D03*
X7277370Y5061360D03*
X7103050Y5483890D03*
X7173760Y5413180D03*
X7244470Y5342470D03*
X7237250Y5242730D03*
X7112910Y5720950D03*
X7183620Y5650240D03*
X7254330Y5579530D03*
X7269880Y5687660D03*
X7210300Y5994160D03*
X7281010Y5923450D03*
X7128460Y5829080D03*
X7199170Y5758370D03*
X7196760Y6193240D03*
Y6093240D03*
X7315200Y6273800D03*
Y6350000D03*
X7061200Y6604000D03*
X7259140Y7069000D03*
X7259500Y7155000D03*
X7169000Y9759800D03*
X7302400Y9912200D03*
X7429400Y158600D03*
X7543800Y457200D03*
X7518400Y863600D03*
X7391400D03*
X7577590Y1209270D03*
X7506880Y1279980D03*
X7416800Y1066800D03*
X7436170Y1350690D03*
X7365460Y1421400D03*
X7321880Y1511400D03*
Y1611400D03*
Y1711400D03*
Y1811400D03*
X7496480Y1594420D03*
Y1694420D03*
Y1794420D03*
X7321880Y1911400D03*
Y2011400D03*
X7496480Y1894420D03*
Y1994420D03*
X7321880Y2111400D03*
X7341300Y2209500D03*
X7412010Y2280210D03*
X7496480Y2094420D03*
X7554550Y2175830D03*
X7482720Y2350920D03*
X7553430Y2421630D03*
X7359600Y2946400D03*
Y3346400D03*
Y3778200D03*
Y4216400D03*
Y4616400D03*
X7418660Y4922510D03*
X7495200Y4858170D03*
X7561560Y4783360D03*
X7357680Y5001780D03*
X7395750Y5438110D03*
X7462480Y5363630D03*
X7529460Y5289370D03*
X7482020Y5475520D03*
X7561160Y5414400D03*
X7325040Y5508820D03*
X7493140Y5711320D03*
X7563850Y5640610D03*
X7340590Y5616950D03*
X7411300Y5546230D03*
X7351720Y5852740D03*
X7422430Y5782030D03*
X7569200Y5918200D03*
Y6223000D03*
X7391400Y6273800D03*
Y6350000D03*
X7434400Y6611800D03*
X7515680D03*
X7429680Y6697800D03*
X7515680D03*
X7322640Y7069000D03*
X7416800Y7010400D03*
X7323000Y7155000D03*
X7340600Y7696200D03*
Y8001000D03*
X7416800Y9575800D03*
X7493000D03*
X7829400Y158600D03*
X7599500Y745700D03*
Y645700D03*
Y545700D03*
X7774000Y1182700D03*
X7674000D03*
X7774000Y1357300D03*
X7674030Y1359750D03*
X7786700Y1732600D03*
Y1632600D03*
X7832260Y1821620D03*
X7625260Y2246540D03*
X7695970Y2317250D03*
X7624140Y2492340D03*
X7694850Y2563050D03*
X7766680Y2387960D03*
X7837390Y2458670D03*
X7765560Y2633760D03*
X7836270Y2704470D03*
X7759600Y2946400D03*
Y3346400D03*
X7613600Y3778200D03*
X7772400Y3962400D03*
Y4165600D03*
X7613600Y4216400D03*
Y4616400D03*
X7661190Y4774780D03*
X7742290Y4833290D03*
X7818450Y4768490D03*
X7601560Y5220080D03*
X7673410Y5150530D03*
X7740060Y5075980D03*
X7816390Y5011370D03*
X7764460Y5196610D03*
X7833380Y5124160D03*
X7625600Y5337930D03*
X7704780Y5276860D03*
X7663570Y5648120D03*
X7762310Y5663980D03*
X7823200Y6883400D03*
X7645400Y7137400D03*
X7696200Y7696200D03*
Y9271000D03*
X7620400Y9346800D03*
X7702400Y9912200D03*
X7861200Y609600D03*
Y1009600D03*
X7975600Y1143000D03*
Y1397000D03*
X8021310Y1763750D03*
X7961300Y1683760D03*
Y1583760D03*
X8092020Y1834460D03*
X8044390Y2033750D03*
X7973680Y1963040D03*
X7902970Y1892330D03*
X7908100Y2529380D03*
X7978810Y2600090D03*
X7906980Y2775180D03*
X7977690Y2845890D03*
X8049520Y2670800D03*
X8048400Y2916610D03*
X8077200Y3835400D03*
X7975600Y3962400D03*
Y4165600D03*
X8051800Y4267200D03*
X7889160Y4697780D03*
X7959870Y4627070D03*
X8030580Y4556360D03*
X8101290Y4485640D03*
X7890080Y4943780D03*
X7960790Y4873070D03*
X8031510Y4802360D03*
X8102220Y4731650D03*
X8045510Y4912030D03*
X8002240Y5202220D03*
X8072950Y5131510D03*
X7904090Y5053450D03*
X7974800Y4982740D03*
X7983710Y5466120D03*
X7998870Y5367270D03*
X7944120Y5283590D03*
X7844830Y5607500D03*
X7904660Y5527370D03*
X7848600Y5918200D03*
Y6223000D03*
X8026400Y7696200D03*
Y8001000D03*
X8267600Y158600D03*
X8280400Y863600D03*
X8304160Y2046600D03*
X8233450Y1975890D03*
X8162740Y1905170D03*
X8327230Y2316600D03*
X8256520Y2245880D03*
X8185810Y2175170D03*
X8115100Y2104460D03*
X8120240Y2741510D03*
X8190950Y2812230D03*
X8119110Y2987320D03*
X8189830Y3058030D03*
X8260540Y3128740D03*
X8261660Y2882940D03*
X8332370Y2953650D03*
X8285300Y3225620D03*
Y3325620D03*
Y3425620D03*
Y3525620D03*
Y3625620D03*
Y3725620D03*
Y3825620D03*
X8178800Y3835400D03*
X8172010Y4414930D03*
X8242720Y4344220D03*
X8128000Y4267200D03*
X8172930Y4660930D03*
X8243640Y4590220D03*
X8314350Y4519510D03*
X8257640Y4699900D03*
X8328350Y4629190D03*
X8285080Y4919380D03*
X8355790Y4848670D03*
X8116220Y4841320D03*
X8186930Y4770610D03*
X8143660Y5060800D03*
X8214370Y4990090D03*
X8229600Y6121400D03*
Y6299200D03*
Y7315200D03*
Y7137400D03*
X8356600Y7696200D03*
Y8001000D03*
X8331200Y9169400D03*
X8280400Y9118600D03*
X8585200Y711200D03*
Y533400D03*
X8432800Y863600D03*
X8587000Y2329440D03*
X8516290Y2258730D03*
X8445580Y2188020D03*
X8374870Y2117310D03*
X8610080Y2599440D03*
X8539370Y2528730D03*
X8468660Y2458020D03*
X8397950Y2387310D03*
X8403080Y3024360D03*
X8459900Y3106650D03*
Y3206650D03*
Y3306650D03*
Y3406650D03*
Y3506650D03*
Y3606650D03*
Y3706650D03*
Y3806650D03*
X8559800Y4140200D03*
X8534400Y4038600D03*
X8458200Y4394200D03*
X8559800Y4216400D03*
X8458200Y4470400D03*
X8385060Y4448800D03*
X8401410Y4560900D03*
X8559800Y4495800D03*
Y4572000D03*
X8426500Y4777960D03*
X8517040Y4735500D03*
X8617040D03*
X8509000Y5003800D03*
Y5308600D03*
X8483600Y6121400D03*
Y6299200D03*
Y7315200D03*
Y7137400D03*
X8432800Y8356600D03*
X8559800D03*
X8432800Y8229600D03*
X8559800D03*
X8432800Y8610600D03*
X8559800D03*
Y8483600D03*
X8432800D03*
X8509000Y9220200D03*
Y9296400D03*
X8667600Y158600D03*
X8731200Y1879600D03*
Y2279600D03*
X8799130Y2541570D03*
X8728420Y2470860D03*
X8657710Y2400150D03*
X8869840Y2612280D03*
X8812100Y2820410D03*
X8751500Y2740860D03*
X8680790Y2670150D03*
X8812100Y3120410D03*
Y3020410D03*
Y2920410D03*
X8704390Y3344840D03*
X8801210Y3319810D03*
X8812100Y3220410D03*
X8750020Y3585600D03*
X8668870Y3527170D03*
X8650250Y3428920D03*
X8812100Y3864000D03*
Y3764000D03*
Y3664000D03*
X8661400Y4140200D03*
X8763000Y3962400D03*
Y4114800D03*
X8661400Y4216400D03*
X8803500Y4357070D03*
X8763000Y4241800D03*
X8661400Y4495800D03*
Y4572000D03*
X8790650Y4667810D03*
X8861360Y4597100D03*
X8763020Y4448520D03*
X8717040Y4735500D03*
X8788400Y5003800D03*
Y5308600D03*
X8661400Y7696200D03*
Y8001000D03*
X8686800Y8229600D03*
Y8356600D03*
Y8483600D03*
Y8610600D03*
X8839200Y9220200D03*
Y9296400D03*
Y9575800D03*
X8712200D03*
Y9702800D03*
X8839200D03*
Y9829800D03*
X8712200D03*
X9131200Y1879600D03*
Y2279600D03*
X8986700Y2771710D03*
X8940550Y2682990D03*
X8986700Y3071710D03*
Y2971710D03*
Y2871710D03*
X8986150Y3371710D03*
X8986700Y3271710D03*
Y3171710D03*
Y3564000D03*
X8958930Y3467930D03*
X8986700Y3864000D03*
Y3764000D03*
Y3664000D03*
X9118600Y3860800D03*
X8966200Y4394200D03*
Y4470400D03*
X8932070Y4526390D03*
X9118600Y4572000D03*
X9067800Y4775200D03*
X8985200Y5727600D03*
Y6127600D03*
X8909000Y6794400D03*
Y7194400D03*
X8966200Y7696200D03*
Y8001000D03*
Y9575800D03*
Y9829800D03*
Y9702800D03*
X9417000Y914400D03*
Y1314400D03*
X9194800Y2692400D03*
Y2997200D03*
X9220200Y3860800D03*
X9296400Y3962400D03*
X9169400Y4521200D03*
X9220200Y4572000D03*
X9398000Y4648200D03*
X9271000Y5257800D03*
X9245600Y6121400D03*
Y6299200D03*
Y7137400D03*
Y7315200D03*
X9601200Y1879600D03*
Y2184400D03*
Y2463800D03*
Y2768600D03*
Y3073400D03*
Y3378200D03*
X9474200Y3962400D03*
X9652000Y3937000D03*
X9474200Y4191000D03*
X9652000Y4318000D03*
X9525000Y5003800D03*
X9499600Y6121400D03*
Y6299200D03*
Y7137400D03*
Y7315200D03*
X9817000Y914400D03*
Y1314400D03*
X9925000Y1689000D03*
Y2089000D03*
Y2501800D03*
Y2882800D03*
Y3282800D03*
Y3695600D03*
Y4095600D03*
Y4457600D03*
Y4857600D03*
Y5295800D03*
Y5695800D03*
Y6108600D03*
Y6508600D03*
Y6870600D03*
Y7270600D03*
G54D12*
X254000Y5588000D03*
Y5842000D03*
Y6604000D03*
Y6858000D03*
X508000Y3810000D03*
X1270000Y5588000D03*
Y5842000D03*
Y6604000D03*
Y6858000D03*
X2032000Y3810000D03*
X2794000D03*
X4318000D03*
X4673600Y6477000D03*
X5588000Y3810000D03*
X7112000D03*
X7874000D03*
X8128000Y5588000D03*
Y5842000D03*
Y6604000D03*
Y6858000D03*
X8458200Y9804400D03*
X9144000Y5588000D03*
Y5842000D03*
Y6604000D03*
Y6858000D03*
X9398000Y3810000D03*
G54D21*
X9677400Y8636000D03*
Y9236000D03*
G54D22*
G01X1524000Y6858000D02*
X1397000Y6731000D01*
Y6502400D01*
X1117600Y6223000D01*
Y5562600D01*
X812800Y5257800D01*
Y4318000D01*
X1346200Y3784600D01*
X1676400D01*
G01X1193800Y4013200D02*
X863600Y4343400D01*
Y5232390D01*
X1016010Y5384800D01*
X1295400D01*
X1397000Y5486400D01*
Y5715000D01*
X1524000Y5842000D01*
G01X4013200Y6553200D02*
X4826000Y5740400D01*
Y3784600D01*
X4724400Y3683000D01*
X4191000D01*
X3810000Y4064000D01*
X3454400D01*
G01X4318000Y3632200D02*
X4749800D01*
X4876800Y3759200D01*
Y5791200D01*
X4292600Y6375400D01*
G54D13*
X508000Y4064000D03*
Y4318000D03*
Y5588000D03*
Y5842000D03*
Y6604000D03*
Y6858000D03*
X762000Y5588000D03*
Y5842000D03*
Y6604000D03*
Y6858000D03*
X1524000Y5588000D03*
Y5842000D03*
Y6604000D03*
Y6858000D03*
X1778000Y5588000D03*
Y5842000D03*
Y6604000D03*
Y6858000D03*
X2032000Y4064000D03*
Y4318000D03*
X2794000Y4064000D03*
Y4318000D03*
X4318000Y4064000D03*
Y4318000D03*
X4927600Y6477000D03*
X5181600D03*
X5588000Y4064000D03*
Y4318000D03*
X7112000Y4064000D03*
Y4318000D03*
X7874000Y4064000D03*
Y4318000D03*
X7950200Y9804400D03*
X8382000Y5588000D03*
Y5842000D03*
Y6604000D03*
Y6858000D03*
X8204200Y9804400D03*
X8636000Y5588000D03*
Y5842000D03*
Y6604000D03*
Y6858000D03*
X9398000Y4064000D03*
Y4318000D03*
Y5588000D03*
Y5842000D03*
Y6604000D03*
Y6858000D03*
X9652000Y5588000D03*
Y5842000D03*
Y6604000D03*
Y6858000D03*
G54D23*
G01X132200Y400000D02*
X400000D01*
G01X132200Y8000000D02*
X400000D01*
G01Y132200D02*
Y400000D01*
G01D02*
Y667800D01*
G01Y400000D02*
X667800D01*
G01X415200Y4318000D02*
X508000D01*
G01X400000Y7732200D02*
Y8000000D01*
G01D02*
Y8267800D01*
G01Y8000000D02*
X667800D01*
G01X508000Y4225200D02*
Y4318000D01*
G01D02*
Y4410800D01*
G01Y4318000D02*
X600800D01*
G01X669200Y5588000D02*
X762000D01*
G01X669200Y5842000D02*
X762000D01*
G01X669200Y6604000D02*
X762000D01*
G01X669200Y6858000D02*
X762000D01*
G01Y5495200D02*
Y5588000D01*
G01D02*
Y5680800D01*
G01Y5588000D02*
X854800D01*
G01X762000Y5749200D02*
Y5842000D01*
G01D02*
Y5934800D01*
G01Y5842000D02*
X854800D01*
G01X762000Y6511200D02*
Y6604000D01*
G01D02*
Y6696800D01*
G01Y6604000D02*
X854800D01*
G01X762000Y6765200D02*
Y6858000D01*
G01D02*
Y6950800D01*
G01Y6858000D02*
X854800D01*
G01X1102200Y635000D02*
X1270000D01*
G01Y467200D02*
Y635000D01*
G01D02*
Y802800D01*
G01Y635000D02*
X1437800D01*
G01X1442200Y1524000D02*
X1520000D01*
G01Y1446200D02*
Y1524000D01*
G01D02*
Y1601800D01*
G01Y1524000D02*
X1597800D01*
G01X1685200Y5588000D02*
X1778000D01*
G01X1685200Y5842000D02*
X1778000D01*
G01X1685200Y6604000D02*
X1778000D01*
G01X1685200Y6858000D02*
X1778000D01*
G01X2033000Y1446200D02*
Y1524000D01*
G01D02*
Y1601800D01*
G01X1955200Y1524000D02*
X2033000D01*
G01D02*
X2110800D01*
G01X2032000Y4225200D02*
Y4318000D01*
G01D02*
Y4410800D01*
G01X1939200Y4318000D02*
X2032000D01*
G01D02*
X2124800D01*
G01X1778000Y5495200D02*
Y5588000D01*
G01D02*
Y5680800D01*
G01Y5588000D02*
X1870800D01*
G01X1778000Y5749200D02*
Y5842000D01*
G01D02*
Y5934800D01*
G01Y5842000D02*
X1870800D01*
G01X1778000Y6511200D02*
Y6604000D01*
G01D02*
Y6696800D01*
G01Y6604000D02*
X1870800D01*
G01X1778000Y6765200D02*
Y6858000D01*
G01D02*
Y6950800D01*
G01Y6858000D02*
X1870800D01*
G01X2286000Y467200D02*
Y635000D01*
G01D02*
Y802800D01*
G01X2118200Y635000D02*
X2286000D01*
G01D02*
X2453800D01*
G01X2813200D02*
X2921000D01*
G01X2813200Y889000D02*
X2921000D01*
G01X2794000Y4225200D02*
Y4318000D01*
G01D02*
Y4410800D01*
G01X2701200Y4318000D02*
X2794000D01*
G01D02*
X2886800D01*
G01X2921000Y527200D02*
Y635000D01*
G01D02*
Y742800D01*
G01Y635000D02*
X3028800D01*
G01X2921000Y781200D02*
Y889000D01*
G01D02*
Y996800D01*
G01Y889000D02*
X3028800D01*
G01X3302000Y467200D02*
Y635000D01*
G01D02*
Y802800D01*
G01X3134200Y635000D02*
X3302000D01*
G01D02*
X3469800D01*
G01X3302000Y9043650D02*
Y9144000D01*
G01D02*
Y9244350D01*
G01X3201650Y9144000D02*
X3302000D01*
G01D02*
X3402350D01*
G01X3552000Y1446200D02*
Y1524000D01*
G01D02*
Y1601800D01*
G01X3474200Y1524000D02*
X3552000D01*
G01D02*
X3629800D01*
G01X3556000Y9297650D02*
Y9398000D01*
G01D02*
Y9498350D01*
G01X3455650Y9398000D02*
X3556000D01*
G01D02*
X3656350D01*
G01X4065000Y1446200D02*
Y1524000D01*
G01D02*
Y1601800D01*
G01X3987200Y1524000D02*
X4065000D01*
G01D02*
X4142800D01*
G01X4064000Y9043650D02*
Y9144000D01*
G01D02*
Y9244350D01*
G01X3963650Y9144000D02*
X4064000D01*
G01D02*
X4164350D01*
G01X4318000Y467200D02*
Y635000D01*
G01D02*
Y802800D01*
G01X4150200Y635000D02*
X4318000D01*
G01D02*
X4485800D01*
G01X4318000Y4225200D02*
Y4318000D01*
G01D02*
Y4410800D01*
G01X4225200Y4318000D02*
X4318000D01*
G01D02*
X4410800D01*
G01X4318000Y9297650D02*
Y9398000D01*
G01D02*
Y9498350D01*
G01X4217650Y9398000D02*
X4318000D01*
G01D02*
X4418350D01*
G01X4845200Y635000D02*
X4953000D01*
G01X4845200Y889000D02*
X4953000D01*
G01X4826000Y9043650D02*
Y9144000D01*
G01D02*
Y9244350D01*
G01X4725650Y9144000D02*
X4826000D01*
G01D02*
X4926350D01*
G01X5166200Y635000D02*
X5334000D01*
G01X4953000Y527200D02*
Y635000D01*
G01D02*
Y742800D01*
G01Y635000D02*
X5060800D01*
G01X4953000Y781200D02*
Y889000D01*
G01D02*
Y996800D01*
G01Y889000D02*
X5060800D01*
G01X5181600Y6384200D02*
Y6477000D01*
G01D02*
Y6569800D01*
G01X5088800Y6477000D02*
X5181600D01*
G01D02*
X5274400D01*
G01X5080000Y9297650D02*
Y9398000D01*
G01D02*
Y9498350D01*
G01X4979650Y9398000D02*
X5080000D01*
G01D02*
X5180350D01*
G01X5334000Y467200D02*
Y635000D01*
G01D02*
Y802800D01*
G01Y635000D02*
X5501800D01*
G01X5584000Y1446200D02*
Y1524000D01*
G01D02*
Y1601800D01*
G01X5506200Y1524000D02*
X5584000D01*
G01D02*
X5661800D01*
G01X5588000Y4225200D02*
Y4318000D01*
G01D02*
Y4410800D01*
G01X5495200Y4318000D02*
X5588000D01*
G01D02*
X5680800D01*
G01X5588000Y9043650D02*
Y9144000D01*
G01D02*
Y9244350D01*
G01X5487650Y9144000D02*
X5588000D01*
G01D02*
X5688350D01*
G01X5842000Y9297650D02*
Y9398000D01*
G01D02*
Y9498350D01*
G01X5741650Y9398000D02*
X5842000D01*
G01D02*
X5942350D01*
G01X6182200Y635000D02*
X6350000D01*
G01X6097000Y1446200D02*
Y1524000D01*
G01D02*
Y1601800D01*
G01X6019200Y1524000D02*
X6097000D01*
G01D02*
X6174800D01*
G01X6350000Y467200D02*
Y635000D01*
G01D02*
Y802800D01*
G01Y635000D02*
X6517800D01*
G01X6350000Y9043650D02*
Y9144000D01*
G01D02*
Y9244350D01*
G01X6249650Y9144000D02*
X6350000D01*
G01D02*
X6450350D01*
G01X6985000Y527200D02*
Y635000D01*
G01D02*
Y742800D01*
G01X6877200Y635000D02*
X6985000D01*
G01D02*
X7092800D01*
G01X6985000Y781200D02*
Y889000D01*
G01D02*
Y996800D01*
G01X6877200Y889000D02*
X6985000D01*
G01D02*
X7092800D01*
G01X7019200Y4318000D02*
X7112000D01*
G01X7198200Y635000D02*
X7366000D01*
G01X7112000Y4225200D02*
Y4318000D01*
G01D02*
Y4410800D01*
G01Y4318000D02*
X7204800D01*
G01X7366000Y467200D02*
Y635000D01*
G01D02*
Y802800D01*
G01Y635000D02*
X7533800D01*
G01X7538200Y1524000D02*
X7616000D01*
G01Y1446200D02*
Y1524000D01*
G01D02*
Y1601800D01*
G01Y1524000D02*
X7693800D01*
G01X7781200Y4318000D02*
X7874000D01*
G01X8051200Y1524000D02*
X8129000D01*
G01X7874000Y4225200D02*
Y4318000D01*
G01D02*
Y4410800D01*
G01Y4318000D02*
X7966800D01*
G01X8214200Y635000D02*
X8382000D01*
G01X8129000Y1446200D02*
Y1524000D01*
G01D02*
Y1601800D01*
G01Y1524000D02*
X8206800D01*
G01X8382000Y467200D02*
Y635000D01*
G01D02*
Y802800D01*
G01Y635000D02*
X8549800D01*
G01X8543200Y5588000D02*
X8636000D01*
G01X8543200Y5842000D02*
X8636000D01*
G01X8543200Y6604000D02*
X8636000D01*
G01X8543200Y6858000D02*
X8636000D01*
G01Y5495200D02*
Y5588000D01*
G01D02*
Y5680800D01*
G01Y5588000D02*
X8728800D01*
G01X8636000Y5749200D02*
Y5842000D01*
G01D02*
Y5934800D01*
G01Y5842000D02*
X8728800D01*
G01X8636000Y6511200D02*
Y6604000D01*
G01D02*
Y6696800D01*
G01Y6604000D02*
X8728800D01*
G01X8636000Y6765200D02*
Y6858000D01*
G01D02*
Y6950800D01*
G01Y6858000D02*
X8728800D01*
G01X9017000Y527200D02*
Y635000D01*
G01D02*
Y742800D01*
G01X8909200Y635000D02*
X9017000D01*
G01D02*
X9124800D01*
G01X9017000Y781200D02*
Y889000D01*
G01D02*
Y996800D01*
G01X8909200Y889000D02*
X9017000D01*
G01D02*
X9124800D01*
G01X9104600Y8886000D02*
X9212400D01*
G01X9332200Y400000D02*
X9600000D01*
G01X9332200Y8000000D02*
X9600000D01*
G01X9212400Y8653200D02*
Y8886000D01*
G01D02*
X9320200D01*
G01X9212400D02*
Y9118800D01*
G01X9600000Y132200D02*
Y400000D01*
G01D02*
Y667800D01*
G01Y400000D02*
X9867800D01*
G01X9398000Y4225200D02*
Y4318000D01*
G01D02*
Y4410800D01*
G01Y4318000D02*
X9490800D01*
G01X9559200Y5588000D02*
X9652000D01*
G01X9559200Y5842000D02*
X9652000D01*
G01X9559200Y6604000D02*
X9652000D01*
G01X9600000Y7732200D02*
Y8000000D01*
G01D02*
Y8267800D01*
G01Y8000000D02*
X9867800D01*
G01X9419600Y9236000D02*
X9677400D01*
G01X9652000Y5495200D02*
Y5588000D01*
G01D02*
Y5680800D01*
G01Y5588000D02*
X9744800D01*
G01X9652000Y5749200D02*
Y5842000D01*
G01D02*
Y5934800D01*
G01Y5842000D02*
X9744800D01*
G01X9652000Y6511200D02*
Y6604000D01*
G01Y6765200D02*
Y6858000D01*
G01Y6604000D02*
Y6696800D01*
G01Y6604000D02*
X9744800D01*
G01X9652000Y6858000D02*
Y6950800D01*
G01Y6858000D02*
X9744800D01*
G01X9677400Y9128200D02*
Y9236000D01*
G01D02*
X9935200D01*
G01X9677400D02*
Y9343800D01*
G54D14*
X1270000Y635000D03*
X2286000D03*
X3302000D03*
X4318000D03*
X5334000D03*
X6350000D03*
X7366000D03*
X8382000D03*
G54D24*
G01X508000Y5588000D02*
X381000Y5715000D01*
Y5969000D01*
X101600Y6248400D01*
Y7188200D01*
X558800Y7645400D01*
X3606800D01*
X4343400Y6908800D01*
Y6604000D01*
X4292600Y6553200D01*
Y6551600D01*
X4268800Y6527800D01*
X4145680D01*
X4102100Y6571380D01*
Y6578600D01*
G01X4267200Y6629400D02*
Y6908800D01*
X3581400Y7594600D01*
X711200D01*
X482600Y7366000D01*
Y7061190D01*
X381000Y6959590D01*
Y6731000D01*
X508000Y6604000D01*
G01X3352800Y7188200D02*
X3048000Y7493000D01*
X1422400D01*
X990600Y7061200D01*
Y6324600D01*
X508000Y5842000D01*
G01X4064000Y7035800D02*
X3556000Y7543800D01*
X1193800D01*
X508000Y6858000D01*
G01X1524000Y5842000D02*
X2654540Y6972540D01*
X2657040D01*
X2692400Y7007900D01*
G01X3251200Y7188200D02*
X3215840Y7223560D01*
Y7248960D01*
X3022600Y7442200D01*
X1547800D01*
X1524000Y7418400D01*
Y6858000D01*
G01X4191000Y6019800D02*
Y6223000D01*
X3987800Y6426200D01*
X3454400D01*
X3276600Y6248400D01*
Y6019800D01*
G01X4013200Y6553200D02*
Y7010400D01*
X3733800Y7289800D01*
X3454400D01*
X3352800Y7188200D01*
G01X4185000Y6607000D02*
Y6914800D01*
X4064000Y7035800D01*
G01X5740400Y6731000D02*
X5775760Y6695640D01*
Y5801160D01*
X5257800Y5283200D01*
Y4851400D01*
X6091000Y4018200D01*
X6253400D01*
G01X5994400Y6527800D02*
Y5943600D01*
X5308600Y5257800D01*
Y4876800D01*
X6096000Y4089400D01*
X6273800D01*
X6544950Y3818250D01*
X6756400D01*
G01X5638800Y6731000D02*
X5674160Y6766360D01*
Y6791760D01*
X6426200Y7543800D01*
X9550400D01*
X9829800Y7264400D01*
Y6273800D01*
X9525000Y5969000D01*
Y5715000D01*
X9398000Y5588000D01*
G01X5829300Y6731000D02*
Y6781000D01*
X5982500Y6934200D01*
X6527800D01*
X6654800Y7061200D01*
Y7391400D01*
X6705600Y7442200D01*
X9499600D01*
X9575800Y7366000D01*
Y6922670D01*
X9552400Y6899270D01*
Y6758400D01*
X9398000Y6604000D01*
G01X5918200Y6731000D02*
X5882840Y6695640D01*
Y6639360D01*
X5994400Y6527800D01*
G01X6248400Y7016440D02*
X5975040D01*
X5775760Y6817160D01*
Y6766360D01*
X5740400Y6731000D01*
G01X6832600Y5956300D02*
Y6273800D01*
X6731000Y6375400D01*
X6629400D01*
X6311900Y6057900D01*
X6205220D01*
G01X5994400Y6527800D02*
X6477000D01*
X6783000Y6833800D01*
Y7263200D01*
G01X9398000Y5842000D02*
Y6375400D01*
X9423400Y6400800D01*
X9651600D01*
X9779000Y6528200D01*
Y7239000D01*
X9525000Y7493000D01*
X6604000D01*
X6248400Y7137400D01*
Y7016440D01*
G01X8382000Y6858000D02*
X7975600Y7264400D01*
X6934200D01*
G01X9398000Y6858000D02*
X8864600Y7391400D01*
X6806800D01*
X6783000Y7367600D01*
Y7263200D01*
G01X7416800Y7010400D02*
X8382000Y6045200D01*
Y5842000D01*
G01X8534400Y4038600D02*
X9144000D01*
X9296400Y4191000D01*
Y5029190D01*
X8890000Y5435590D01*
Y6146800D01*
X8509000Y6527800D01*
Y6731000D01*
X8382000Y6858000D01*
G54D15*
X1520000Y1524000D03*
X1778000Y1270000D03*
Y1524000D03*
X2033000D03*
X3552000D03*
X3810000Y1270000D03*
Y1524000D03*
X4065000D03*
X5584000D03*
X5842000Y1270000D03*
Y1524000D03*
X6097000D03*
X7616000D03*
X7874000Y1270000D03*
Y1524000D03*
X8129000D03*
G54D16*
X2667000Y635000D03*
X4699000D03*
X6731000D03*
X8763000D03*
G54D17*
X2667000Y889000D03*
X2921000Y635000D03*
Y889000D03*
X4699000D03*
X4953000Y635000D03*
Y889000D03*
X6731000D03*
X6985000Y635000D03*
Y889000D03*
X8763000D03*
X9017000Y635000D03*
Y889000D03*
G54D18*
X3302000Y9144000D03*
G54D19*
Y9398000D03*
X3556000Y9144000D03*
Y9398000D03*
X3810000Y9144000D03*
Y9398000D03*
X4064000Y9144000D03*
Y9398000D03*
X4318000Y9144000D03*
Y9398000D03*
X4572000Y9144000D03*
Y9398000D03*
X4826000Y9144000D03*
Y9398000D03*
X5080000Y9144000D03*
Y9398000D03*
X5334000Y9144000D03*
Y9398000D03*
X5588000Y9144000D03*
Y9398000D03*
X5842000Y9144000D03*
Y9398000D03*
X6096000Y9144000D03*
Y9398000D03*
X6604000Y9144000D03*
X6350000D03*
X6604000Y9398000D03*
X6350000D03*
X6858000Y9144000D03*
Y9398000D03*
M02*
