G04 ================== begin FILE IDENTIFICATION RECORD ==================*
G04 Layout Name:  C:/Jeonghyun/Lab/EEM2TTL3/allegro/eem2ttl.brd*
G04 Film Name:    DRILL*
G04 File Format:  Gerber RS274X*
G04 File Origin:  Cadence Allegro 23.1-S003*
G04 Origin Date:  Sat Jul 27 12:53:41 2024*
G04 *
G04 Layer:  MANUFACTURING/NCLEGEND-1-4*
G04 Layer:  BOARD GEOMETRY/DESIGN_OUTLINE*
G04 *
G04 Offset:    (0.0000 0.0000)*
G04 Mirror:    No*
G04 Mode:      Positive*
G04 Rotation:  0*
G04 FullContactRelief:  No*
G04 UndefLineWidth:     0.0500*
G04 ================== end FILE IDENTIFICATION RECORD ====================*
%FSLAX25Y25*MOMM*%
%IR0*IPPOS*OFA0.00000B0.00000*MIA0B0*SFA1.00000B1.00000*%
%AMMACRO12*
1,1,.05,-.4,-1.25*
20,1,.05,-.4,-1.25,-.4,1.25,0.0*
1,1,.05,-.4,1.25*
20,1,.05,-.4,1.25,-.393923,1.319459,0.0*
1,1,.05,-.393923,1.319459*
20,1,.05,-.393923,1.319459,-.375877,1.386808,0.0*
1,1,.05,-.375877,1.386808*
20,1,.05,-.375877,1.386808,-.34641,1.45,0.0*
1,1,.05,-.34641,1.45*
20,1,.05,-.34641,1.45,-.306418,1.507115,0.0*
1,1,.05,-.306418,1.507115*
20,1,.05,-.306418,1.507115,-.257115,1.556418,0.0*
1,1,.05,-.257115,1.556418*
20,1,.05,-.257115,1.556418,-.2,1.59641,0.0*
1,1,.05,-.2,1.59641*
20,1,.05,-.2,1.59641,-.136808,1.625877,0.0*
1,1,.05,-.136808,1.625877*
20,1,.05,-.136808,1.625877,-.069459,1.643923,0.0*
1,1,.05,-.069459,1.643923*
20,1,.05,-.069459,1.643923,0.0,1.65,0.0*
1,1,.05,0.0,1.65*
20,1,.05,0.0,1.65,.069459,1.643923,0.0*
1,1,.05,.069459,1.643923*
20,1,.05,.069459,1.643923,.136808,1.625877,0.0*
1,1,.05,.136808,1.625877*
20,1,.05,.136808,1.625877,.2,1.59641,0.0*
1,1,.05,.2,1.59641*
20,1,.05,.2,1.59641,.257115,1.556418,0.0*
1,1,.05,.257115,1.556418*
20,1,.05,.257115,1.556418,.306418,1.507115,0.0*
1,1,.05,.306418,1.507115*
20,1,.05,.306418,1.507115,.34641,1.45,0.0*
1,1,.05,.34641,1.45*
20,1,.05,.34641,1.45,.375877,1.386808,0.0*
1,1,.05,.375877,1.386808*
20,1,.05,.375877,1.386808,.393923,1.319459,0.0*
1,1,.05,.393923,1.319459*
20,1,.05,.393923,1.319459,.4,1.25,0.0*
1,1,.05,.4,1.25*
20,1,.05,.4,1.25,.4,-1.25,0.0*
1,1,.05,.4,-1.25*
20,1,.05,.4,-1.25,.393923,-1.319459,0.0*
1,1,.05,.393923,-1.319459*
20,1,.05,.393923,-1.319459,.375877,-1.386808,0.0*
1,1,.05,.375877,-1.386808*
20,1,.05,.375877,-1.386808,.34641,-1.45,0.0*
1,1,.05,.34641,-1.45*
20,1,.05,.34641,-1.45,.306418,-1.507115,0.0*
1,1,.05,.306418,-1.507115*
20,1,.05,.306418,-1.507115,.257115,-1.556418,0.0*
1,1,.05,.257115,-1.556418*
20,1,.05,.257115,-1.556418,.2,-1.59641,0.0*
1,1,.05,.2,-1.59641*
20,1,.05,.2,-1.59641,.136808,-1.625877,0.0*
1,1,.05,.136808,-1.625877*
20,1,.05,.136808,-1.625877,.069459,-1.643923,0.0*
1,1,.05,.069459,-1.643923*
20,1,.05,.069459,-1.643923,0.0,-1.65,0.0*
1,1,.05,0.0,-1.65*
20,1,.05,0.0,-1.65,-.069459,-1.643923,0.0*
1,1,.05,-.069459,-1.643923*
20,1,.05,-.069459,-1.643923,-.136808,-1.625877,0.0*
1,1,.05,-.136808,-1.625877*
20,1,.05,-.136808,-1.625877,-.2,-1.59641,0.0*
1,1,.05,-.2,-1.59641*
20,1,.05,-.2,-1.59641,-.257115,-1.556418,0.0*
1,1,.05,-.257115,-1.556418*
20,1,.05,-.257115,-1.556418,-.306418,-1.507115,0.0*
1,1,.05,-.306418,-1.507115*
20,1,.05,-.306418,-1.507115,-.34641,-1.45,0.0*
1,1,.05,-.34641,-1.45*
20,1,.05,-.34641,-1.45,-.375877,-1.386808,0.0*
1,1,.05,-.375877,-1.386808*
20,1,.05,-.375877,-1.386808,-.393923,-1.319459,0.0*
1,1,.05,-.393923,-1.319459*
20,1,.05,-.393923,-1.319459,-.4,-1.25,0.0*
1,1,.05,-.4,-1.25*
1,1,.05,-.2,-.2*
20,1,.05,-.2,-.2,-.2533,-.1933,0.0*
1,1,.05,-.2533,-.1933*
20,1,.05,-.2533,-.1933,-.3,-.1667,0.0*
1,1,.05,-.3,-.1667*
20,1,.05,-.3,-.1667,-.34,-.1267,0.0*
1,1,.05,-.34,-.1267*
20,1,.05,-.34,-.1267,-.3667,-.08,0.0*
1,1,.05,-.3667,-.08*
20,1,.05,-.3667,-.08,-.38,-.0267,0.0*
1,1,.05,-.38,-.0267*
20,1,.05,-.38,-.0267,-.38,.0267,0.0*
1,1,.05,-.38,.0267*
20,1,.05,-.38,.0267,-.3667,.08,0.0*
1,1,.05,-.3667,.08*
20,1,.05,-.3667,.08,-.34,.1267,0.0*
1,1,.05,-.34,.1267*
20,1,.05,-.34,.1267,-.3,.1667,0.0*
1,1,.05,-.3,.1667*
20,1,.05,-.3,.1667,-.2533,.1933,0.0*
1,1,.05,-.2533,.1933*
20,1,.05,-.2533,.1933,-.2,.2,0.0*
1,1,.05,-.2,.2*
20,1,.05,-.2,.2,-.1467,.1933,0.0*
1,1,.05,-.1467,.1933*
20,1,.05,-.1467,.1933,-.1,.1667,0.0*
1,1,.05,-.1,.1667*
20,1,.05,-.1,.1667,-.06,.1267,0.0*
1,1,.05,-.06,.1267*
20,1,.05,-.06,.1267,-.0333,.08,0.0*
1,1,.05,-.0333,.08*
20,1,.05,-.0333,.08,-.02,.0267,0.0*
1,1,.05,-.02,.0267*
20,1,.05,-.02,.0267,-.02,-.0267,0.0*
1,1,.05,-.02,-.0267*
20,1,.05,-.02,-.0267,-.0333,-.08,0.0*
1,1,.05,-.0333,-.08*
20,1,.05,-.0333,-.08,-.06,-.1267,0.0*
1,1,.05,-.06,-.1267*
20,1,.05,-.06,-.1267,-.1,-.1667,0.0*
1,1,.05,-.1,-.1667*
20,1,.05,-.1,-.1667,-.1467,-.1933,0.0*
1,1,.05,-.1467,-.1933*
20,1,.05,-.1467,-.1933,-.2,-.2,0.0*
1,1,.05,-.2,-.2*
1,1,.05,.2534,.0133*
20,1,.05,.2534,.0133,.2801,.0333,0.0*
1,1,.05,.2801,.0333*
20,1,.05,.2801,.0333,.3001,.0667,0.0*
1,1,.05,.3001,.0667*
20,1,.05,.3001,.0667,.3134,.1133,0.0*
1,1,.05,.3134,.1133*
20,1,.05,.3134,.1133,.3001,.1533,0.0*
1,1,.05,.3001,.1533*
20,1,.05,.3001,.1533,.2734,.18,0.0*
1,1,.05,.2734,.18*
20,1,.05,.2734,.18,.2268,.2,0.0*
1,1,.05,.2268,.2*
20,1,.05,.2268,.2,.0468,.2,0.0*
1,1,.05,.0468,.2*
20,1,.05,.0468,.2,.0468,-.2,0.0*
1,1,.05,.0468,-.2*
20,1,.05,.0468,-.2,.2668,-.2,0.0*
1,1,.05,.2668,-.2*
20,1,.05,.2668,-.2,.3134,-.1733,0.0*
1,1,.05,.3134,-.1733*
20,1,.05,.3134,-.1733,.3401,-.1333,0.0*
1,1,.05,.3401,-.1333*
20,1,.05,.3401,-.1333,.3534,-.0867,0.0*
1,1,.05,.3534,-.0867*
20,1,.05,.3534,-.0867,.3401,-.04,0.0*
1,1,.05,.3401,-.04*
20,1,.05,.3401,-.04,.3001,0.0,0.0*
1,1,.05,.3001,0.0*
20,1,.05,.3001,0.0,.2534,.0133,0.0*
1,1,.05,.2534,.0133*
20,1,.05,.2534,.0133,.0468,.0133,0.0*
1,1,.05,.0468,.0133*
%
%ADD12MACRO12*%
%AMMACRO18*
1,1,.05,.45,.45*
20,1,.05,.45,.45,.45,-.45,0.0*
1,1,.05,.45,-.45*
20,1,.05,.45,-.45,-.45,-.45,0.0*
1,1,.05,-.45,-.45*
20,1,.05,-.45,-.45,-.45,.45,0.0*
1,1,.05,-.45,.45*
20,1,.05,-.45,.45,.45,.45,0.0*
1,1,.05,.45,.45*
%
%ADD18MACRO18*%
%AMMACRO19*
1,1,.05,.127,0.0*
20,1,.05,.127,0.0,-.127,0.0,0.0*
1,1,.05,-.127,0.0*
1,1,.05,0.0,.127*
20,1,.05,0.0,.127,0.0,-.127,0.0*
1,1,.05,0.0,-.127*
%
%ADD19MACRO19*%
%AMMACRO10*
1,1,.05,-1.5,.4*
20,1,.05,-1.5,.4,1.5,.4,0.0*
1,1,.05,1.5,.4*
20,1,.05,1.5,.4,1.569459,.393923,0.0*
1,1,.05,1.569459,.393923*
20,1,.05,1.569459,.393923,1.636808,.375877,0.0*
1,1,.05,1.636808,.375877*
20,1,.05,1.636808,.375877,1.7,.34641,0.0*
1,1,.05,1.7,.34641*
20,1,.05,1.7,.34641,1.757115,.306418,0.0*
1,1,.05,1.757115,.306418*
20,1,.05,1.757115,.306418,1.806418,.257115,0.0*
1,1,.05,1.806418,.257115*
20,1,.05,1.806418,.257115,1.84641,.2,0.0*
1,1,.05,1.84641,.2*
20,1,.05,1.84641,.2,1.875877,.136808,0.0*
1,1,.05,1.875877,.136808*
20,1,.05,1.875877,.136808,1.893923,.069459,0.0*
1,1,.05,1.893923,.069459*
20,1,.05,1.893923,.069459,1.9,0.0,0.0*
1,1,.05,1.9,0.0*
20,1,.05,1.9,0.0,1.893923,-.069459,0.0*
1,1,.05,1.893923,-.069459*
20,1,.05,1.893923,-.069459,1.875877,-.136808,0.0*
1,1,.05,1.875877,-.136808*
20,1,.05,1.875877,-.136808,1.84641,-.2,0.0*
1,1,.05,1.84641,-.2*
20,1,.05,1.84641,-.2,1.806418,-.257115,0.0*
1,1,.05,1.806418,-.257115*
20,1,.05,1.806418,-.257115,1.757115,-.306418,0.0*
1,1,.05,1.757115,-.306418*
20,1,.05,1.757115,-.306418,1.7,-.34641,0.0*
1,1,.05,1.7,-.34641*
20,1,.05,1.7,-.34641,1.636808,-.375877,0.0*
1,1,.05,1.636808,-.375877*
20,1,.05,1.636808,-.375877,1.569459,-.393923,0.0*
1,1,.05,1.569459,-.393923*
20,1,.05,1.569459,-.393923,1.5,-.4,0.0*
1,1,.05,1.5,-.4*
20,1,.05,1.5,-.4,-1.5,-.4,0.0*
1,1,.05,-1.5,-.4*
20,1,.05,-1.5,-.4,-1.569459,-.393923,0.0*
1,1,.05,-1.569459,-.393923*
20,1,.05,-1.569459,-.393923,-1.636808,-.375877,0.0*
1,1,.05,-1.636808,-.375877*
20,1,.05,-1.636808,-.375877,-1.7,-.34641,0.0*
1,1,.05,-1.7,-.34641*
20,1,.05,-1.7,-.34641,-1.757115,-.306418,0.0*
1,1,.05,-1.757115,-.306418*
20,1,.05,-1.757115,-.306418,-1.806418,-.257115,0.0*
1,1,.05,-1.806418,-.257115*
20,1,.05,-1.806418,-.257115,-1.84641,-.2,0.0*
1,1,.05,-1.84641,-.2*
20,1,.05,-1.84641,-.2,-1.875877,-.136808,0.0*
1,1,.05,-1.875877,-.136808*
20,1,.05,-1.875877,-.136808,-1.893923,-.069459,0.0*
1,1,.05,-1.893923,-.069459*
20,1,.05,-1.893923,-.069459,-1.9,0.0,0.0*
1,1,.05,-1.9,0.0*
20,1,.05,-1.9,0.0,-1.893923,.069459,0.0*
1,1,.05,-1.893923,.069459*
20,1,.05,-1.893923,.069459,-1.875877,.136808,0.0*
1,1,.05,-1.875877,.136808*
20,1,.05,-1.875877,.136808,-1.84641,.2,0.0*
1,1,.05,-1.84641,.2*
20,1,.05,-1.84641,.2,-1.806418,.257115,0.0*
1,1,.05,-1.806418,.257115*
20,1,.05,-1.806418,.257115,-1.757115,.306418,0.0*
1,1,.05,-1.757115,.306418*
20,1,.05,-1.757115,.306418,-1.7,.34641,0.0*
1,1,.05,-1.7,.34641*
20,1,.05,-1.7,.34641,-1.636808,.375877,0.0*
1,1,.05,-1.636808,.375877*
20,1,.05,-1.636808,.375877,-1.569459,.393923,0.0*
1,1,.05,-1.569459,.393923*
20,1,.05,-1.569459,.393923,-1.5,.4,0.0*
1,1,.05,-1.5,.4*
1,1,.05,-.2,-.2*
20,1,.05,-.2,-.2,-.2533,-.1933,0.0*
1,1,.05,-.2533,-.1933*
20,1,.05,-.2533,-.1933,-.3,-.1667,0.0*
1,1,.05,-.3,-.1667*
20,1,.05,-.3,-.1667,-.34,-.1267,0.0*
1,1,.05,-.34,-.1267*
20,1,.05,-.34,-.1267,-.3667,-.08,0.0*
1,1,.05,-.3667,-.08*
20,1,.05,-.3667,-.08,-.38,-.0267,0.0*
1,1,.05,-.38,-.0267*
20,1,.05,-.38,-.0267,-.38,.0267,0.0*
1,1,.05,-.38,.0267*
20,1,.05,-.38,.0267,-.3667,.08,0.0*
1,1,.05,-.3667,.08*
20,1,.05,-.3667,.08,-.34,.1267,0.0*
1,1,.05,-.34,.1267*
20,1,.05,-.34,.1267,-.3,.1667,0.0*
1,1,.05,-.3,.1667*
20,1,.05,-.3,.1667,-.2533,.1933,0.0*
1,1,.05,-.2533,.1933*
20,1,.05,-.2533,.1933,-.2,.2,0.0*
1,1,.05,-.2,.2*
20,1,.05,-.2,.2,-.1467,.1933,0.0*
1,1,.05,-.1467,.1933*
20,1,.05,-.1467,.1933,-.1,.1667,0.0*
1,1,.05,-.1,.1667*
20,1,.05,-.1,.1667,-.06,.1267,0.0*
1,1,.05,-.06,.1267*
20,1,.05,-.06,.1267,-.0333,.08,0.0*
1,1,.05,-.0333,.08*
20,1,.05,-.0333,.08,-.02,.0267,0.0*
1,1,.05,-.02,.0267*
20,1,.05,-.02,.0267,-.02,-.0267,0.0*
1,1,.05,-.02,-.0267*
20,1,.05,-.02,-.0267,-.0333,-.08,0.0*
1,1,.05,-.0333,-.08*
20,1,.05,-.0333,-.08,-.06,-.1267,0.0*
1,1,.05,-.06,-.1267*
20,1,.05,-.06,-.1267,-.1,-.1667,0.0*
1,1,.05,-.1,-.1667*
20,1,.05,-.1,-.1667,-.1467,-.1933,0.0*
1,1,.05,-.1467,-.1933*
20,1,.05,-.1467,-.1933,-.2,-.2,0.0*
1,1,.05,-.2,-.2*
1,1,.05,.0334,-.2*
20,1,.05,.0334,-.2,.2001,.2,0.0*
1,1,.05,.2001,.2*
20,1,.05,.2001,.2,.3668,-.2,0.0*
1,1,.05,.3668,-.2*
1,1,.05,.3068,-.06*
20,1,.05,.3068,-.06,.0934,-.06,0.0*
1,1,.05,.0934,-.06*
%
%ADD10MACRO10*%
%AMMACRO17*
1,1,.05,.5,0.0*
20,1,.05,.5,0.0,.25,.433013,0.0*
1,1,.05,.25,.433013*
20,1,.05,.25,.433013,-.25,.433013,0.0*
1,1,.05,-.25,.433013*
20,1,.05,-.25,.433013,-.5,0.0,0.0*
1,1,.05,-.5,0.0*
20,1,.05,-.5,0.0,-.25,-.433013,0.0*
1,1,.05,-.25,-.433013*
20,1,.05,-.25,-.433013,.25,-.433013,0.0*
1,1,.05,.25,-.433013*
20,1,.05,.25,-.433013,.5,0.0,0.0*
1,1,.05,.5,0.0*
%
%ADD17MACRO17*%
%AMMACRO15*
1,1,.05,0.0,.51*
20,1,.05,0.0,.51,-.441673,.255,0.0*
1,1,.05,-.441673,.255*
20,1,.05,-.441673,.255,-.441673,-.255,0.0*
1,1,.05,-.441673,-.255*
20,1,.05,-.441673,-.255,0.0,-.51,0.0*
1,1,.05,0.0,-.51*
20,1,.05,0.0,-.51,.441673,-.255,0.0*
1,1,.05,.441673,-.255*
20,1,.05,.441673,-.255,.441673,.255,0.0*
1,1,.05,.441673,.255*
20,1,.05,.441673,.255,0.0,.51,0.0*
1,1,.05,0.0,.51*
%
%ADD15MACRO15*%
%AMMACRO14*
1,1,.05,.5499,0.0*
20,1,.05,.5499,0.0,0.0,-.5499,0.0*
1,1,.05,0.0,-.5499*
20,1,.05,0.0,-.5499,-.5499,0.0,0.0*
1,1,.05,-.5499,0.0*
20,1,.05,-.5499,0.0,0.0,.5499,0.0*
1,1,.05,0.0,.5499*
20,1,.05,0.0,.5499,.5499,0.0,0.0*
1,1,.05,.5499,0.0*
%
%ADD14MACRO14*%
%AMMACRO13*
1,1,.05,0.0,1.*
20,1,.05,0.0,1.,.866025,-.5,0.0*
1,1,.05,.866025,-.5*
20,1,.05,.866025,-.5,-.866025,-.5,0.0*
1,1,.05,-.866025,-.5*
20,1,.05,-.866025,-.5,0.0,1.,0.0*
1,1,.05,0.0,1.*
%
%ADD13MACRO13*%
%AMMACRO11*
1,1,.05,-.4,1.2*
20,1,.05,-.4,1.2,.4,1.2,0.0*
1,1,.05,.4,1.2*
20,1,.05,.4,1.2,.608378,1.181769,0.0*
1,1,.05,.608378,1.181769*
20,1,.05,.608378,1.181769,.810424,1.127631,0.0*
1,1,.05,.810424,1.127631*
20,1,.05,.810424,1.127631,1.,1.03923,0.0*
1,1,.05,1.,1.03923*
20,1,.05,1.,1.03923,1.171345,.919253,0.0*
1,1,.05,1.171345,.919253*
20,1,.05,1.171345,.919253,1.319253,.771345,0.0*
1,1,.05,1.319253,.771345*
20,1,.05,1.319253,.771345,1.43923,.6,0.0*
1,1,.05,1.43923,.6*
20,1,.05,1.43923,.6,1.527631,.410424,0.0*
1,1,.05,1.527631,.410424*
20,1,.05,1.527631,.410424,1.581769,.208378,0.0*
1,1,.05,1.581769,.208378*
20,1,.05,1.581769,.208378,1.6,0.0,0.0*
1,1,.05,1.6,0.0*
20,1,.05,1.6,0.0,1.581769,-.208378,0.0*
1,1,.05,1.581769,-.208378*
20,1,.05,1.581769,-.208378,1.527631,-.410424,0.0*
1,1,.05,1.527631,-.410424*
20,1,.05,1.527631,-.410424,1.43923,-.6,0.0*
1,1,.05,1.43923,-.6*
20,1,.05,1.43923,-.6,1.319253,-.771345,0.0*
1,1,.05,1.319253,-.771345*
20,1,.05,1.319253,-.771345,1.171345,-.919253,0.0*
1,1,.05,1.171345,-.919253*
20,1,.05,1.171345,-.919253,1.,-1.03923,0.0*
1,1,.05,1.,-1.03923*
20,1,.05,1.,-1.03923,.810424,-1.127631,0.0*
1,1,.05,.810424,-1.127631*
20,1,.05,.810424,-1.127631,.608378,-1.181769,0.0*
1,1,.05,.608378,-1.181769*
20,1,.05,.608378,-1.181769,.4,-1.2,0.0*
1,1,.05,.4,-1.2*
20,1,.05,.4,-1.2,-.4,-1.2,0.0*
1,1,.05,-.4,-1.2*
20,1,.05,-.4,-1.2,-.608378,-1.181769,0.0*
1,1,.05,-.608378,-1.181769*
20,1,.05,-.608378,-1.181769,-.810424,-1.127631,0.0*
1,1,.05,-.810424,-1.127631*
20,1,.05,-.810424,-1.127631,-1.,-1.03923,0.0*
1,1,.05,-1.,-1.03923*
20,1,.05,-1.,-1.03923,-1.171345,-.919253,0.0*
1,1,.05,-1.171345,-.919253*
20,1,.05,-1.171345,-.919253,-1.319253,-.771345,0.0*
1,1,.05,-1.319253,-.771345*
20,1,.05,-1.319253,-.771345,-1.43923,-.6,0.0*
1,1,.05,-1.43923,-.6*
20,1,.05,-1.43923,-.6,-1.527631,-.410424,0.0*
1,1,.05,-1.527631,-.410424*
20,1,.05,-1.527631,-.410424,-1.581769,-.208378,0.0*
1,1,.05,-1.581769,-.208378*
20,1,.05,-1.581769,-.208378,-1.6,0.0,0.0*
1,1,.05,-1.6,0.0*
20,1,.05,-1.6,0.0,-1.581769,.208378,0.0*
1,1,.05,-1.581769,.208378*
20,1,.05,-1.581769,.208378,-1.527631,.410424,0.0*
1,1,.05,-1.527631,.410424*
20,1,.05,-1.527631,.410424,-1.43923,.6,0.0*
1,1,.05,-1.43923,.6*
20,1,.05,-1.43923,.6,-1.319253,.771345,0.0*
1,1,.05,-1.319253,.771345*
20,1,.05,-1.319253,.771345,-1.171345,.919253,0.0*
1,1,.05,-1.171345,.919253*
20,1,.05,-1.171345,.919253,-1.,1.03923,0.0*
1,1,.05,-1.,1.03923*
20,1,.05,-1.,1.03923,-.810424,1.127631,0.0*
1,1,.05,-.810424,1.127631*
20,1,.05,-.810424,1.127631,-.608378,1.181769,0.0*
1,1,.05,-.608378,1.181769*
20,1,.05,-.608378,1.181769,-.4,1.2,0.0*
1,1,.05,-.4,1.2*
%
%ADD11MACRO11*%
%AMMACRO16*
1,1,.05,.211249,-.51*
20,1,.05,.211249,-.51,-.211249,-.51,0.0*
1,1,.05,-.211249,-.51*
20,1,.05,-.211249,-.51,-.51,-.211249,0.0*
1,1,.05,-.51,-.211249*
20,1,.05,-.51,-.211249,-.51,.211249,0.0*
1,1,.05,-.51,.211249*
20,1,.05,-.51,.211249,-.211249,.51,0.0*
1,1,.05,-.211249,.51*
20,1,.05,-.211249,.51,.211249,.51,0.0*
1,1,.05,.211249,.51*
20,1,.05,.211249,.51,.51,.211249,0.0*
1,1,.05,.51,.211249*
20,1,.05,.51,.211249,.51,-.211249,0.0*
1,1,.05,.51,-.211249*
20,1,.05,.51,-.211249,.211249,-.51,0.0*
1,1,.05,.211249,-.51*
%
%ADD16MACRO16*%
%ADD20C,.05*%
G75*
%LPD*%
G75*
G54D10*
X-8611870Y-8866900D03*
X9677400Y8636000D03*
Y9236000D03*
G54D20*
G01X-9753600Y-9184400D02*
Y-914400D01*
X21427440D01*
Y-9184400D01*
X-9753600D01*
G01Y-8549400D02*
X21427440D01*
G01X-9753600Y-7914400D02*
X21427440D01*
G01X-9753600Y-7279400D02*
X21427440D01*
G01X-9753600Y-6644400D02*
X21427440D01*
G01X-9753600Y-6009400D02*
X21427440D01*
G01X-9753600Y-5374400D02*
X21427440D01*
G01X-9753600Y-4739400D02*
X21427440D01*
G01X-9753600Y-4104400D02*
X21427440D01*
G01X-9753600Y-3469400D02*
X21427440D01*
G01X-9474080Y-2675650D02*
Y-2358150D01*
X-9324460D01*
G01X-9379590Y-2511600D02*
X-9474080D01*
G01X-9131550Y-2358150D02*
X-9037070D01*
G01X-9084310D02*
Y-2675650D01*
G01X-9131550D02*
X-9037070D01*
G01X-8745730Y-2516900D02*
X-8666980D01*
Y-2612150D01*
X-8690610Y-2643910D01*
X-8718170Y-2665070D01*
X-8757540Y-2675650D01*
X-8796910Y-2665070D01*
X-8824470Y-2643910D01*
X-8848090Y-2612150D01*
X-8863840Y-2575110D01*
X-8871720Y-2532780D01*
Y-2495730D01*
X-8863840Y-2463990D01*
X-8848090Y-2426940D01*
X-8824470Y-2395190D01*
X-8800850Y-2374030D01*
X-8769350Y-2358150D01*
X-8741790D01*
X-8710300Y-2368730D01*
X-8686670Y-2389900D01*
G01X-8541000Y-2358150D02*
Y-2585690D01*
X-8525260Y-2633330D01*
X-8493760Y-2665070D01*
X-8454390Y-2675650D01*
X-8415020Y-2665070D01*
X-8383520Y-2633330D01*
X-8367780Y-2585690D01*
Y-2358150D01*
G01X-8218170Y-2675650D02*
Y-2358150D01*
X-8119750D01*
X-8088250Y-2374030D01*
X-8068560Y-2395190D01*
X-8060690Y-2437530D01*
X-8068560Y-2479860D01*
X-8092190Y-2506310D01*
X-8119750Y-2522200D01*
X-8218170D01*
G01X-8119750D02*
X-8060690Y-2675650D01*
G01X-7745730D02*
X-7903210D01*
Y-2358150D01*
X-7745730D01*
G01X-7808720Y-2511600D02*
X-7903210D01*
G01X-9753600Y-2834400D02*
X21427440D01*
G01X-9753600Y-2199400D02*
X21427440D01*
G01X-9753600Y-1564400D02*
X21427440D01*
G01X-7470140Y-2199400D02*
Y-9184400D01*
G01X-6875660Y-2675650D02*
Y-2358150D01*
X-6726040D01*
G01X-6781170Y-2511600D02*
X-6875660D01*
G01X-6533130Y-2358150D02*
X-6438650D01*
G01X-6485890D02*
Y-2675650D01*
G01X-6533130D02*
X-6438650D01*
G01X-6261480D02*
Y-2358150D01*
X-6080380Y-2675650D01*
Y-2358150D01*
G01X-5903210D02*
X-5808730D01*
G01X-5855970D02*
Y-2675650D01*
G01X-5903210D02*
X-5808730D01*
G01X-5623690Y-2633330D02*
X-5592190Y-2659780D01*
X-5556760Y-2675650D01*
X-5525260D01*
X-5493770Y-2659780D01*
X-5470140Y-2633330D01*
X-5458330Y-2596270D01*
X-5466200Y-2559240D01*
X-5485890Y-2527490D01*
X-5521330Y-2506310D01*
X-5568570Y-2495730D01*
X-5596130Y-2474570D01*
X-5607940Y-2437530D01*
X-5600060Y-2400480D01*
X-5580380Y-2374030D01*
X-5552820Y-2358150D01*
X-5525260D01*
X-5497700Y-2368730D01*
X-5474080Y-2395190D01*
G01X-5308730Y-2675650D02*
Y-2358150D01*
G01X-5143370D02*
Y-2675650D01*
G01Y-2516900D02*
X-5308730D01*
G01X-4832350Y-2675650D02*
X-4989830D01*
Y-2358150D01*
X-4832350D01*
G01X-4895340Y-2511600D02*
X-4989830D01*
G01X-4682740Y-2675650D02*
Y-2358150D01*
X-4604010D01*
X-4572510Y-2374030D01*
X-4548890Y-2395190D01*
X-4529200Y-2426940D01*
X-4513450Y-2463990D01*
X-4509520Y-2516900D01*
X-4513450Y-2569820D01*
X-4529200Y-2606860D01*
X-4548890Y-2638620D01*
X-4572510Y-2659780D01*
X-4604010Y-2675650D01*
X-4682740D01*
G01X-4399280Y-2781480D02*
X-4163060D01*
G01X-4048890Y-2633330D02*
X-4017390Y-2659780D01*
X-3981960Y-2675650D01*
X-3950460D01*
X-3918970Y-2659780D01*
X-3895340Y-2633330D01*
X-3883530Y-2596270D01*
X-3891400Y-2559240D01*
X-3911090Y-2527490D01*
X-3946530Y-2506310D01*
X-3993770Y-2495730D01*
X-4021330Y-2474570D01*
X-4033140Y-2437530D01*
X-4025260Y-2400480D01*
X-4005580Y-2374030D01*
X-3978020Y-2358150D01*
X-3950460D01*
X-3922900Y-2368730D01*
X-3899280Y-2395190D01*
G01X-3698490Y-2358150D02*
X-3604010D01*
G01X-3651250D02*
Y-2675650D01*
G01X-3698490D02*
X-3604010D01*
G01X-3411100Y-2358150D02*
X-3261480D01*
X-3411100Y-2675650D01*
X-3261480D01*
G01X-2942590D02*
X-3100070D01*
Y-2358150D01*
X-2942590D01*
G01X-3005580Y-2511600D02*
X-3100070D01*
G01X-5942580Y-8962150D02*
X-5918970Y-8999200D01*
X-5887470Y-9020360D01*
X-5852030Y-9025650D01*
X-5820530Y-9020360D01*
X-5789040Y-8993910D01*
X-5769360Y-8962150D01*
X-5765420Y-8930400D01*
X-5773290Y-8893370D01*
X-5800850Y-8866900D01*
X-5828410Y-8856310D01*
X-5863850D01*
G01X-5828410D02*
X-5804790Y-8840440D01*
X-5785100Y-8813990D01*
X-5777230Y-8782240D01*
X-5785100Y-8750480D01*
X-5804790Y-8724030D01*
X-5840220Y-8708150D01*
X-5875650Y-8713440D01*
X-5911090Y-8734610D01*
G01X-5541010Y-9036230D02*
X-5548890Y-9030940D01*
Y-9020360D01*
X-5541010Y-9015070D01*
X-5533130Y-9020360D01*
Y-9030940D01*
X-5541010Y-9036230D01*
G01X-5226050Y-9025650D02*
X-5198490Y-9020360D01*
X-5167000Y-9004490D01*
X-5147310Y-8978040D01*
X-5139440Y-8940980D01*
X-5147310Y-8903950D01*
X-5170930Y-8872200D01*
X-5206370Y-8856310D01*
X-5245730D01*
X-5269360Y-8845730D01*
X-5289050Y-8819280D01*
X-5296920Y-8782240D01*
X-5285100Y-8745190D01*
X-5257550Y-8718730D01*
X-5226050Y-8708150D01*
X-5194560Y-8718730D01*
X-5167000Y-8745190D01*
X-5155180Y-8782240D01*
X-5163060Y-8819280D01*
X-5182740Y-8845730D01*
X-5206370Y-8856310D01*
X-5245730D01*
X-5281170Y-8872200D01*
X-5304790Y-8903950D01*
X-5312660Y-8940980D01*
X-5304790Y-8978040D01*
X-5285100Y-9004490D01*
X-5253610Y-9020360D01*
X-5226050Y-9025650D01*
G01X-4970140Y-8813990D02*
X-4852040Y-9025650D01*
G01Y-8813990D02*
X-4970140Y-9025650D01*
G01X-4596130Y-8708150D02*
X-4627630Y-8718730D01*
X-4651250Y-8745190D01*
X-4667000Y-8776940D01*
X-4678810Y-8819280D01*
X-4682740Y-8866900D01*
X-4678810Y-8914530D01*
X-4667000Y-8956860D01*
X-4651250Y-8988620D01*
X-4627630Y-9015070D01*
X-4596130Y-9025650D01*
X-4564640Y-9015070D01*
X-4541010Y-8988620D01*
X-4525260Y-8956860D01*
X-4513450Y-8914530D01*
X-4509520Y-8866900D01*
X-4513450Y-8819280D01*
X-4525260Y-8776940D01*
X-4541010Y-8745190D01*
X-4564640Y-8718730D01*
X-4596130Y-8708150D01*
G01X-4281170Y-9036230D02*
X-4289050Y-9030940D01*
Y-9020360D01*
X-4281170Y-9015070D01*
X-4273290Y-9020360D01*
Y-9030940D01*
X-4281170Y-9036230D01*
G01X-3966210Y-9025650D02*
X-3938650Y-9020360D01*
X-3907160Y-9004490D01*
X-3887470Y-8978040D01*
X-3879600Y-8940980D01*
X-3887470Y-8903950D01*
X-3911090Y-8872200D01*
X-3946530Y-8856310D01*
X-3985890D01*
X-4009520Y-8845730D01*
X-4029210Y-8819280D01*
X-4037080Y-8782240D01*
X-4025260Y-8745190D01*
X-3997710Y-8718730D01*
X-3966210Y-8708150D01*
X-3934720Y-8718730D01*
X-3907160Y-8745190D01*
X-3895340Y-8782240D01*
X-3903220Y-8819280D01*
X-3922900Y-8845730D01*
X-3946530Y-8856310D01*
X-3985890D01*
X-4021330Y-8872200D01*
X-4044950Y-8903950D01*
X-4052820Y-8940980D01*
X-4044950Y-8978040D01*
X-4025260Y-9004490D01*
X-3993770Y-9020360D01*
X-3966210Y-9025650D01*
G01X-5942580Y-8327150D02*
X-5918970Y-8364200D01*
X-5887470Y-8385360D01*
X-5852030Y-8390650D01*
X-5820530Y-8385360D01*
X-5789040Y-8358910D01*
X-5769360Y-8327150D01*
X-5765420Y-8295400D01*
X-5773290Y-8258370D01*
X-5800850Y-8231900D01*
X-5828410Y-8221310D01*
X-5863850D01*
G01X-5828410D02*
X-5804790Y-8205440D01*
X-5785100Y-8178990D01*
X-5777230Y-8147240D01*
X-5785100Y-8115480D01*
X-5804790Y-8089030D01*
X-5840220Y-8073150D01*
X-5875650Y-8078440D01*
X-5911090Y-8099610D01*
G01X-5541010Y-8401230D02*
X-5548890Y-8395940D01*
Y-8385360D01*
X-5541010Y-8380070D01*
X-5533130Y-8385360D01*
Y-8395940D01*
X-5541010Y-8401230D01*
G01X-5312660Y-8327150D02*
X-5289050Y-8364200D01*
X-5257550Y-8385360D01*
X-5222110Y-8390650D01*
X-5190610Y-8385360D01*
X-5159120Y-8358910D01*
X-5139440Y-8327150D01*
X-5135500Y-8295400D01*
X-5143370Y-8258370D01*
X-5170930Y-8231900D01*
X-5198490Y-8221310D01*
X-5233930D01*
G01X-5198490D02*
X-5174870Y-8205440D01*
X-5155180Y-8178990D01*
X-5147310Y-8147240D01*
X-5155180Y-8115480D01*
X-5174870Y-8089030D01*
X-5210300Y-8073150D01*
X-5245730Y-8078440D01*
X-5281170Y-8099610D01*
G01X-4970140Y-8178990D02*
X-4852040Y-8390650D01*
G01Y-8178990D02*
X-4970140Y-8390650D01*
G01X-4596130Y-8073150D02*
X-4627630Y-8083730D01*
X-4651250Y-8110190D01*
X-4667000Y-8141940D01*
X-4678810Y-8184280D01*
X-4682740Y-8231900D01*
X-4678810Y-8279530D01*
X-4667000Y-8321860D01*
X-4651250Y-8353620D01*
X-4627630Y-8380070D01*
X-4596130Y-8390650D01*
X-4564640Y-8380070D01*
X-4541010Y-8353620D01*
X-4525260Y-8321860D01*
X-4513450Y-8279530D01*
X-4509520Y-8231900D01*
X-4513450Y-8184280D01*
X-4525260Y-8141940D01*
X-4541010Y-8110190D01*
X-4564640Y-8083730D01*
X-4596130Y-8073150D01*
G01X-4281170Y-8401230D02*
X-4289050Y-8395940D01*
Y-8385360D01*
X-4281170Y-8380070D01*
X-4273290Y-8385360D01*
Y-8395940D01*
X-4281170Y-8401230D01*
G01X-3966210Y-8390650D02*
X-3938650Y-8385360D01*
X-3907160Y-8369490D01*
X-3887470Y-8343040D01*
X-3879600Y-8305980D01*
X-3887470Y-8268950D01*
X-3911090Y-8237200D01*
X-3946530Y-8221310D01*
X-3985890D01*
X-4009520Y-8210730D01*
X-4029210Y-8184280D01*
X-4037080Y-8147240D01*
X-4025260Y-8110190D01*
X-3997710Y-8083730D01*
X-3966210Y-8073150D01*
X-3934720Y-8083730D01*
X-3907160Y-8110190D01*
X-3895340Y-8147240D01*
X-3903220Y-8184280D01*
X-3922900Y-8210730D01*
X-3946530Y-8221310D01*
X-3985890D01*
X-4021330Y-8237200D01*
X-4044950Y-8268950D01*
X-4052820Y-8305980D01*
X-4044950Y-8343040D01*
X-4025260Y-8369490D01*
X-3993770Y-8385360D01*
X-3966210Y-8390650D01*
G01X-5698490Y-6485650D02*
Y-6168150D01*
X-5745730Y-6231650D01*
G01Y-6485650D02*
X-5651250D01*
G01X-5383530Y-6496230D02*
X-5391410Y-6490940D01*
Y-6480360D01*
X-5383530Y-6475070D01*
X-5375650Y-6480360D01*
Y-6490940D01*
X-5383530Y-6496230D01*
G01X-5068570Y-6168150D02*
X-5100070Y-6178730D01*
X-5123690Y-6205190D01*
X-5139440Y-6236940D01*
X-5151250Y-6279280D01*
X-5155180Y-6326900D01*
X-5151250Y-6374530D01*
X-5139440Y-6416860D01*
X-5123690Y-6448620D01*
X-5100070Y-6475070D01*
X-5068570Y-6485650D01*
X-5037080Y-6475070D01*
X-5013450Y-6448620D01*
X-4997700Y-6416860D01*
X-4985890Y-6374530D01*
X-4981960Y-6326900D01*
X-4985890Y-6279280D01*
X-4997700Y-6236940D01*
X-5013450Y-6205190D01*
X-5037080Y-6178730D01*
X-5068570Y-6168150D01*
G01X-4820540Y-6448620D02*
X-4792980Y-6475070D01*
X-4761490Y-6485650D01*
X-4729990Y-6475070D01*
X-4702430Y-6443330D01*
X-4682740Y-6395690D01*
X-4674870Y-6348070D01*
Y-6289860D01*
X-4682740Y-6242240D01*
X-4702430Y-6199900D01*
X-4726050Y-6178730D01*
X-4753610Y-6168150D01*
X-4785110Y-6178730D01*
X-4808730Y-6199900D01*
X-4824480Y-6231650D01*
X-4832350Y-6273990D01*
X-4824480Y-6311020D01*
X-4804790Y-6348070D01*
X-4781170Y-6369240D01*
X-4753610Y-6374530D01*
X-4722120Y-6363950D01*
X-4698490Y-6337490D01*
X-4674870Y-6289860D01*
G01X-4505580Y-6448620D02*
X-4478020Y-6475070D01*
X-4446530Y-6485650D01*
X-4415030Y-6475070D01*
X-4387470Y-6443330D01*
X-4367780Y-6395690D01*
X-4359910Y-6348070D01*
Y-6289860D01*
X-4367780Y-6242240D01*
X-4387470Y-6199900D01*
X-4411090Y-6178730D01*
X-4438650Y-6168150D01*
X-4470150Y-6178730D01*
X-4493770Y-6199900D01*
X-4509520Y-6231650D01*
X-4517390Y-6273990D01*
X-4509520Y-6311020D01*
X-4489830Y-6348070D01*
X-4466210Y-6369240D01*
X-4438650Y-6374530D01*
X-4407160Y-6363950D01*
X-4383530Y-6337490D01*
X-4359910Y-6289860D01*
G01X-4123690Y-6485650D02*
X-4096130Y-6480360D01*
X-4064640Y-6464490D01*
X-4044950Y-6438040D01*
X-4037080Y-6400980D01*
X-4044950Y-6363950D01*
X-4068570Y-6332200D01*
X-4104010Y-6316310D01*
X-4143370D01*
X-4167000Y-6305730D01*
X-4186690Y-6279280D01*
X-4194560Y-6242240D01*
X-4182740Y-6205190D01*
X-4155190Y-6178730D01*
X-4123690Y-6168150D01*
X-4092200Y-6178730D01*
X-4064640Y-6205190D01*
X-4052820Y-6242240D01*
X-4060700Y-6279280D01*
X-4080380Y-6305730D01*
X-4104010Y-6316310D01*
X-4143370D01*
X-4178810Y-6332200D01*
X-4202430Y-6363950D01*
X-4210300Y-6400980D01*
X-4202430Y-6438040D01*
X-4182740Y-6464490D01*
X-4151250Y-6480360D01*
X-4123690Y-6485650D01*
G01X-5541010Y-2993150D02*
X-5572510Y-3003730D01*
X-5596130Y-3030190D01*
X-5611880Y-3061940D01*
X-5623690Y-3104280D01*
X-5627620Y-3151900D01*
X-5623690Y-3199530D01*
X-5611880Y-3241860D01*
X-5596130Y-3273620D01*
X-5572510Y-3300070D01*
X-5541010Y-3310650D01*
X-5509520Y-3300070D01*
X-5485890Y-3273620D01*
X-5470140Y-3241860D01*
X-5458330Y-3199530D01*
X-5454400Y-3151900D01*
X-5458330Y-3104280D01*
X-5470140Y-3061940D01*
X-5485890Y-3030190D01*
X-5509520Y-3003730D01*
X-5541010Y-2993150D01*
G01X-5226050Y-3321230D02*
X-5233930Y-3315940D01*
Y-3305360D01*
X-5226050Y-3300070D01*
X-5218170Y-3305360D01*
Y-3315940D01*
X-5226050Y-3321230D01*
G01X-4985900Y-3046070D02*
X-4962270Y-3014320D01*
X-4934710Y-2998440D01*
X-4903210Y-2993150D01*
X-4863850Y-3003730D01*
X-4836280Y-3030190D01*
X-4828410Y-3061940D01*
X-4832350Y-3093700D01*
X-4848100Y-3120150D01*
X-4926840Y-3173070D01*
X-4962270Y-3210110D01*
X-4985900Y-3263040D01*
X-4993770Y-3310650D01*
X-4828410D01*
G01X-4682740Y-3263040D02*
X-4659130Y-3289490D01*
X-4631570Y-3305360D01*
X-4596130Y-3310650D01*
X-4560690Y-3300070D01*
X-4533140Y-3278910D01*
X-4513450Y-3241860D01*
X-4509520Y-3199530D01*
X-4517390Y-3157200D01*
X-4537080Y-3130730D01*
X-4564640Y-3109570D01*
X-4592190Y-3104280D01*
X-4619750Y-3109570D01*
X-4655180Y-3130730D01*
X-4643370Y-2993150D01*
X-4537080D01*
G01X-4233930Y-3310650D02*
Y-2993150D01*
X-4379600Y-3220690D01*
X-4182740D01*
G01X-5312660Y-7692150D02*
X-5289050Y-7729200D01*
X-5257550Y-7750360D01*
X-5222110Y-7755650D01*
X-5190610Y-7750360D01*
X-5159120Y-7723910D01*
X-5139440Y-7692150D01*
X-5135500Y-7660400D01*
X-5143370Y-7623370D01*
X-5170930Y-7596900D01*
X-5198490Y-7586310D01*
X-5233930D01*
G01X-5198490D02*
X-5174870Y-7570440D01*
X-5155180Y-7543990D01*
X-5147310Y-7512240D01*
X-5155180Y-7480480D01*
X-5174870Y-7454030D01*
X-5210300Y-7438150D01*
X-5245730Y-7443440D01*
X-5281170Y-7464610D01*
G01X-4911090Y-7766230D02*
X-4918970Y-7760940D01*
Y-7750360D01*
X-4911090Y-7745070D01*
X-4903210Y-7750360D01*
Y-7760940D01*
X-4911090Y-7766230D01*
G01X-4670940Y-7491070D02*
X-4647310Y-7459320D01*
X-4619750Y-7443440D01*
X-4588250Y-7438150D01*
X-4548890Y-7448730D01*
X-4521320Y-7475190D01*
X-4513450Y-7506940D01*
X-4517390Y-7538700D01*
X-4533140Y-7565150D01*
X-4611880Y-7618070D01*
X-4647310Y-7655110D01*
X-4670940Y-7708040D01*
X-4678810Y-7755650D01*
X-4513450D01*
G01X-5300860Y-6856070D02*
X-5277230Y-6824320D01*
X-5249670Y-6808440D01*
X-5218170Y-6803150D01*
X-5178810Y-6813730D01*
X-5151240Y-6840190D01*
X-5143370Y-6871940D01*
X-5147310Y-6903700D01*
X-5163060Y-6930150D01*
X-5241800Y-6983070D01*
X-5277230Y-7020110D01*
X-5300860Y-7073040D01*
X-5308730Y-7120650D01*
X-5143370D01*
G01X-4911090Y-7131230D02*
X-4918970Y-7125940D01*
Y-7115360D01*
X-4911090Y-7110070D01*
X-4903210Y-7115360D01*
Y-7125940D01*
X-4911090Y-7131230D01*
G01X-4596130Y-6803150D02*
X-4627630Y-6813730D01*
X-4651250Y-6840190D01*
X-4667000Y-6871940D01*
X-4678810Y-6914280D01*
X-4682740Y-6961900D01*
X-4678810Y-7009530D01*
X-4667000Y-7051860D01*
X-4651250Y-7083620D01*
X-4627630Y-7110070D01*
X-4596130Y-7120650D01*
X-4564640Y-7110070D01*
X-4541010Y-7083620D01*
X-4525260Y-7051860D01*
X-4513450Y-7009530D01*
X-4509520Y-6961900D01*
X-4513450Y-6914280D01*
X-4525260Y-6871940D01*
X-4541010Y-6840190D01*
X-4564640Y-6813730D01*
X-4596130Y-6803150D01*
G01X-5383530Y-5850650D02*
Y-5533150D01*
X-5430770Y-5596650D01*
G01Y-5850650D02*
X-5336290D01*
G01X-5068570Y-5861230D02*
X-5076450Y-5855940D01*
Y-5845360D01*
X-5068570Y-5840070D01*
X-5060690Y-5845360D01*
Y-5855940D01*
X-5068570Y-5861230D01*
G01X-4753610Y-5533150D02*
X-4785110Y-5543730D01*
X-4808730Y-5570190D01*
X-4824480Y-5601940D01*
X-4836290Y-5644280D01*
X-4840220Y-5691900D01*
X-4836290Y-5739530D01*
X-4824480Y-5781860D01*
X-4808730Y-5813620D01*
X-4785110Y-5840070D01*
X-4753610Y-5850650D01*
X-4722120Y-5840070D01*
X-4698490Y-5813620D01*
X-4682740Y-5781860D01*
X-4670930Y-5739530D01*
X-4667000Y-5691900D01*
X-4670930Y-5644280D01*
X-4682740Y-5601940D01*
X-4698490Y-5570190D01*
X-4722120Y-5543730D01*
X-4753610Y-5533150D01*
G01X-4513460Y-5586070D02*
X-4489830Y-5554320D01*
X-4462270Y-5538440D01*
X-4430770Y-5533150D01*
X-4391410Y-5543730D01*
X-4363840Y-5570190D01*
X-4355970Y-5601940D01*
X-4359910Y-5633700D01*
X-4375660Y-5660150D01*
X-4454400Y-5713070D01*
X-4489830Y-5750110D01*
X-4513460Y-5803040D01*
X-4521330Y-5850650D01*
X-4355970D01*
G01X-5383530Y-5215650D02*
Y-4898150D01*
X-5430770Y-4961650D01*
G01Y-5215650D02*
X-5336290D01*
G01X-5068570Y-5226230D02*
X-5076450Y-5220940D01*
Y-5210360D01*
X-5068570Y-5205070D01*
X-5060690Y-5210360D01*
Y-5220940D01*
X-5068570Y-5226230D01*
G01X-4753610Y-4898150D02*
X-4785110Y-4908730D01*
X-4808730Y-4935190D01*
X-4824480Y-4966940D01*
X-4836290Y-5009280D01*
X-4840220Y-5056900D01*
X-4836290Y-5104530D01*
X-4824480Y-5146860D01*
X-4808730Y-5178620D01*
X-4785110Y-5205070D01*
X-4753610Y-5215650D01*
X-4722120Y-5205070D01*
X-4698490Y-5178620D01*
X-4682740Y-5146860D01*
X-4670930Y-5104530D01*
X-4667000Y-5056900D01*
X-4670930Y-5009280D01*
X-4682740Y-4966940D01*
X-4698490Y-4935190D01*
X-4722120Y-4908730D01*
X-4753610Y-4898150D01*
G01X-4513460Y-4951070D02*
X-4489830Y-4919320D01*
X-4462270Y-4903440D01*
X-4430770Y-4898150D01*
X-4391410Y-4908730D01*
X-4363840Y-4935190D01*
X-4355970Y-4966940D01*
X-4359910Y-4998700D01*
X-4375660Y-5025150D01*
X-4454400Y-5078070D01*
X-4489830Y-5115110D01*
X-4513460Y-5168040D01*
X-4521330Y-5215650D01*
X-4355970D01*
G01X-5226050Y-4580650D02*
Y-4263150D01*
X-5273290Y-4326650D01*
G01Y-4580650D02*
X-5178810D01*
G01X-4911090Y-4591230D02*
X-4918970Y-4585940D01*
Y-4575360D01*
X-4911090Y-4570070D01*
X-4903210Y-4575360D01*
Y-4585940D01*
X-4911090Y-4591230D01*
G01X-4596130Y-4263150D02*
X-4627630Y-4273730D01*
X-4651250Y-4300190D01*
X-4667000Y-4331940D01*
X-4678810Y-4374280D01*
X-4682740Y-4421900D01*
X-4678810Y-4469530D01*
X-4667000Y-4511860D01*
X-4651250Y-4543620D01*
X-4627630Y-4570070D01*
X-4596130Y-4580650D01*
X-4564640Y-4570070D01*
X-4541010Y-4543620D01*
X-4525260Y-4511860D01*
X-4513450Y-4469530D01*
X-4509520Y-4421900D01*
X-4513450Y-4374280D01*
X-4525260Y-4331940D01*
X-4541010Y-4300190D01*
X-4564640Y-4273730D01*
X-4596130Y-4263150D01*
G01X-5226050Y-3628150D02*
X-5257550Y-3638730D01*
X-5281170Y-3665190D01*
X-5296920Y-3696940D01*
X-5308730Y-3739280D01*
X-5312660Y-3786900D01*
X-5308730Y-3834530D01*
X-5296920Y-3876860D01*
X-5281170Y-3908620D01*
X-5257550Y-3935070D01*
X-5226050Y-3945650D01*
X-5194560Y-3935070D01*
X-5170930Y-3908620D01*
X-5155180Y-3876860D01*
X-5143370Y-3834530D01*
X-5139440Y-3786900D01*
X-5143370Y-3739280D01*
X-5155180Y-3696940D01*
X-5170930Y-3665190D01*
X-5194560Y-3638730D01*
X-5226050Y-3628150D01*
G01X-4911090Y-3956230D02*
X-4918970Y-3950940D01*
Y-3940360D01*
X-4911090Y-3935070D01*
X-4903210Y-3940360D01*
Y-3950940D01*
X-4911090Y-3956230D01*
G01X-4663060Y-3908620D02*
X-4635500Y-3935070D01*
X-4604010Y-3945650D01*
X-4572510Y-3935070D01*
X-4544950Y-3903330D01*
X-4525260Y-3855690D01*
X-4517390Y-3808070D01*
Y-3749860D01*
X-4525260Y-3702240D01*
X-4544950Y-3659900D01*
X-4568570Y-3638730D01*
X-4596130Y-3628150D01*
X-4627630Y-3638730D01*
X-4651250Y-3659900D01*
X-4667000Y-3691650D01*
X-4674870Y-3733990D01*
X-4667000Y-3771020D01*
X-4647310Y-3808070D01*
X-4623690Y-3829240D01*
X-4596130Y-3834530D01*
X-4564640Y-3823950D01*
X-4541010Y-3797490D01*
X-4517390Y-3749860D01*
G01X-2352040Y-2199400D02*
Y-9184400D01*
G01X-1611880Y-2675650D02*
Y-2358150D01*
X-1533150D01*
X-1501650Y-2374030D01*
X-1478030Y-2395190D01*
X-1458340Y-2426940D01*
X-1442590Y-2463990D01*
X-1438660Y-2516900D01*
X-1442590Y-2569820D01*
X-1458340Y-2606860D01*
X-1478030Y-2638620D01*
X-1501650Y-2659780D01*
X-1533150Y-2675650D01*
X-1611880D01*
G01X-1289050D02*
Y-2358150D01*
X-1190630D01*
X-1159130Y-2374030D01*
X-1139440Y-2395190D01*
X-1131570Y-2437530D01*
X-1139440Y-2479860D01*
X-1163070Y-2506310D01*
X-1190630Y-2522200D01*
X-1289050D01*
G01X-1190630D02*
X-1131570Y-2675650D01*
G01X-942590Y-2358150D02*
X-848110D01*
G01X-895350D02*
Y-2675650D01*
G01X-942590D02*
X-848110D01*
G01X-659130Y-2358150D02*
Y-2675650D01*
X-501650D01*
G01X-344170Y-2358150D02*
Y-2675650D01*
X-186690D01*
G01X128270D02*
X-29210D01*
Y-2358150D01*
X128270D01*
G01X65280Y-2511600D02*
X-29210D01*
G01X277880Y-2675650D02*
Y-2358150D01*
X356610D01*
X388110Y-2374030D01*
X411730Y-2395190D01*
X431420Y-2426940D01*
X447170Y-2463990D01*
X451100Y-2516900D01*
X447170Y-2569820D01*
X431420Y-2606860D01*
X411730Y-2638620D01*
X388110Y-2659780D01*
X356610Y-2675650D01*
X277880D01*
G01X561340Y-2781480D02*
X797560D01*
G01X911730Y-2633330D02*
X943230Y-2659780D01*
X978660Y-2675650D01*
X1010160D01*
X1041650Y-2659780D01*
X1065280Y-2633330D01*
X1077090Y-2596270D01*
X1069220Y-2559240D01*
X1049530Y-2527490D01*
X1014090Y-2506310D01*
X966850Y-2495730D01*
X939290Y-2474570D01*
X927480Y-2437530D01*
X935360Y-2400480D01*
X955040Y-2374030D01*
X982600Y-2358150D01*
X1010160D01*
X1037720Y-2368730D01*
X1061340Y-2395190D01*
G01X1262130Y-2358150D02*
X1356610D01*
G01X1309370D02*
Y-2675650D01*
G01X1262130D02*
X1356610D01*
G01X1549520Y-2358150D02*
X1699140D01*
X1549520Y-2675650D01*
X1699140D01*
G01X2018030D02*
X1860550D01*
Y-2358150D01*
X2018030D01*
G01X1955040Y-2511600D02*
X1860550D01*
G01X155830Y-8919820D02*
X258190D01*
G01X155830Y-8284820D02*
X258190D01*
G01X155830Y-7649820D02*
X258190D01*
G01X155830Y-7014820D02*
X258190D01*
G01X155830Y-6379820D02*
X258190D01*
G01X155830Y-5744820D02*
X258190D01*
G01X155830Y-5109820D02*
X258190D01*
G01X155830Y-4474820D02*
X258190D01*
G01X155830Y-3839820D02*
X258190D01*
G01X155830Y-3204820D02*
X258190D01*
G01X0Y0D02*
Y10000000D01*
X10000000D01*
Y0D01*
X0D01*
G01X1486530Y-2040650D02*
X1584960Y-1723150D01*
X1683390Y-2040650D01*
G01X1647950Y-1929530D02*
X1521960D01*
G01X1821180Y-1723150D02*
Y-2040650D01*
X1978660D01*
G01X2136140Y-1723150D02*
Y-2040650D01*
X2293620D01*
G01X2758190Y-1723150D02*
Y-1950690D01*
X2773930Y-1998330D01*
X2805430Y-2030070D01*
X2844800Y-2040650D01*
X2884170Y-2030070D01*
X2915670Y-1998330D01*
X2931410Y-1950690D01*
Y-1723150D01*
G01X3069210Y-2040650D02*
Y-1723150D01*
X3250310Y-2040650D01*
Y-1723150D01*
G01X3427480D02*
X3521960D01*
G01X3474720D02*
Y-2040650D01*
G01X3427480D02*
X3521960D01*
G01X3789680Y-1723150D02*
Y-2040650D01*
G01X3699130Y-1723150D02*
X3880230D01*
G01X4021960Y-1998330D02*
X4053460Y-2024780D01*
X4088890Y-2040650D01*
X4120390D01*
X4151880Y-2024780D01*
X4175510Y-1998330D01*
X4187320Y-1961270D01*
X4179450Y-1924240D01*
X4159760Y-1892490D01*
X4124320Y-1871310D01*
X4077080Y-1860730D01*
X4049520Y-1839570D01*
X4037710Y-1802530D01*
X4045590Y-1765480D01*
X4065270Y-1739030D01*
X4092830Y-1723150D01*
X4120390D01*
X4147950Y-1733730D01*
X4171570Y-1760190D01*
G01X4636130Y-2040650D02*
X4734560Y-1723150D01*
X4832990Y-2040650D01*
G01X4797550Y-1929530D02*
X4671560D01*
G01X4970780Y-2040650D02*
Y-1723150D01*
X5069200D01*
X5100700Y-1739030D01*
X5120390Y-1760190D01*
X5128260Y-1802530D01*
X5120390Y-1844860D01*
X5096760Y-1871310D01*
X5069200Y-1887200D01*
X4970780D01*
G01X5069200D02*
X5128260Y-2040650D01*
G01X5443220D02*
X5285740D01*
Y-1723150D01*
X5443220D01*
G01X5380230Y-1876600D02*
X5285740D01*
G01X5947160Y-1723150D02*
X6041640D01*
G01X5994400D02*
Y-2040650D01*
G01X5947160D02*
X6041640D01*
G01X6218810D02*
Y-1723150D01*
X6399910Y-2040650D01*
Y-1723150D01*
G01X6836910Y-2040650D02*
Y-1723150D01*
X6939280Y-1987730D01*
X7041650Y-1723150D01*
Y-2040650D01*
G01X7207000Y-1723150D02*
X7301480D01*
G01X7254240D02*
Y-2040650D01*
G01X7207000D02*
X7301480D01*
G01X7490460Y-1723150D02*
Y-2040650D01*
X7647940D01*
G01X7805420Y-1723150D02*
Y-2040650D01*
X7962900D01*
G01X8151880Y-1723150D02*
X8246360D01*
G01X8199120D02*
Y-2040650D01*
G01X8151880D02*
X8246360D01*
G01X8411710D02*
Y-1723150D01*
X8514080Y-1987730D01*
X8616450Y-1723150D01*
Y-2040650D01*
G01X8907780D02*
X8750300D01*
Y-1723150D01*
X8907780D01*
G01X8844790Y-1876600D02*
X8750300D01*
G01X9144000Y-1723150D02*
Y-2040650D01*
G01X9053450Y-1723150D02*
X9234550D01*
G01X9537700Y-2040650D02*
X9380220D01*
Y-1723150D01*
X9537700D01*
G01X9474710Y-1876600D02*
X9380220D01*
G01X9695180Y-2040650D02*
Y-1723150D01*
X9793600D01*
X9825100Y-1739030D01*
X9844790Y-1760190D01*
X9852660Y-1802530D01*
X9844790Y-1844860D01*
X9821160Y-1871310D01*
X9793600Y-1887200D01*
X9695180D01*
G01X9793600D02*
X9852660Y-2040650D01*
G01X10006200Y-1998330D02*
X10037700Y-2024780D01*
X10073130Y-2040650D01*
X10104630D01*
X10136120Y-2024780D01*
X10159750Y-1998330D01*
X10171560Y-1961270D01*
X10163690Y-1924240D01*
X10144000Y-1892490D01*
X10108560Y-1871310D01*
X10061320Y-1860730D01*
X10033760Y-1839570D01*
X10021950Y-1802530D01*
X10029830Y-1765480D01*
X10049510Y-1739030D01*
X10077070Y-1723150D01*
X10104630D01*
X10132190Y-1733730D01*
X10155810Y-1760190D01*
G01X1813310Y-1390650D02*
Y-1073150D01*
X1892040D01*
X1923540Y-1089030D01*
X1947160Y-1110190D01*
X1966850Y-1141940D01*
X1982600Y-1178990D01*
X1986530Y-1231900D01*
X1982600Y-1284820D01*
X1966850Y-1321860D01*
X1947160Y-1353620D01*
X1923540Y-1374780D01*
X1892040Y-1390650D01*
X1813310D01*
G01X2136140D02*
Y-1073150D01*
X2234560D01*
X2266060Y-1089030D01*
X2285750Y-1110190D01*
X2293620Y-1152530D01*
X2285750Y-1194860D01*
X2262120Y-1221310D01*
X2234560Y-1237200D01*
X2136140D01*
G01X2234560D02*
X2293620Y-1390650D01*
G01X2482600Y-1073150D02*
X2577080D01*
G01X2529840D02*
Y-1390650D01*
G01X2482600D02*
X2577080D01*
G01X2766060Y-1073150D02*
Y-1390650D01*
X2923540D01*
G01X3081020Y-1073150D02*
Y-1390650D01*
X3238500D01*
G01X3876290Y-1099610D02*
X3852670Y-1083730D01*
X3825120Y-1073150D01*
X3793620D01*
X3758180Y-1089030D01*
X3730630Y-1115480D01*
X3710940Y-1147240D01*
X3695190Y-1200150D01*
X3691250Y-1247780D01*
X3699130Y-1295400D01*
X3710940Y-1327150D01*
X3734560Y-1358910D01*
X3762120Y-1380070D01*
X3789680Y-1390650D01*
X3817240D01*
X3844800Y-1380070D01*
X3868420Y-1364200D01*
X3888110Y-1343040D01*
G01X4021960Y-1390650D02*
Y-1073150D01*
G01X4187320D02*
Y-1390650D01*
G01Y-1231900D02*
X4021960D01*
G01X4321170Y-1390650D02*
X4419600Y-1073150D01*
X4518030Y-1390650D01*
G01X4482590Y-1279530D02*
X4356600D01*
G01X4655820Y-1390650D02*
Y-1073150D01*
X4754240D01*
X4785740Y-1089030D01*
X4805430Y-1110190D01*
X4813300Y-1152530D01*
X4805430Y-1194860D01*
X4781800Y-1221310D01*
X4754240Y-1237200D01*
X4655820D01*
G01X4754240D02*
X4813300Y-1390650D01*
G01X5049520Y-1073150D02*
Y-1390650D01*
G01X4958970Y-1073150D02*
X5140070D01*
G01X5364480Y-1401230D02*
X5356600Y-1395940D01*
Y-1385360D01*
X5364480Y-1380070D01*
X5372360Y-1385360D01*
Y-1395940D01*
X5364480Y-1401230D01*
G01Y-1258370D02*
X5356600Y-1253070D01*
Y-1242490D01*
X5364480Y-1237200D01*
X5372360Y-1242490D01*
Y-1253070D01*
X5364480Y-1258370D01*
G01X5994400Y-1073150D02*
Y-1390650D01*
G01X5903850Y-1073150D02*
X6084950D01*
G01X6309360Y-1390650D02*
X6277860Y-1385360D01*
X6250310Y-1364200D01*
X6226680Y-1332440D01*
X6210930Y-1295400D01*
X6203060Y-1253070D01*
Y-1210730D01*
X6210930Y-1168400D01*
X6226680Y-1131360D01*
X6250310Y-1099610D01*
X6277860Y-1078440D01*
X6309360Y-1073150D01*
X6340850Y-1078440D01*
X6368410Y-1099610D01*
X6392040Y-1131360D01*
X6407790Y-1168400D01*
X6415660Y-1210730D01*
Y-1253070D01*
X6407790Y-1295400D01*
X6392040Y-1332440D01*
X6368410Y-1364200D01*
X6340850Y-1385360D01*
X6309360Y-1390650D01*
G01X6545580D02*
Y-1073150D01*
X6640070D01*
X6671560Y-1089030D01*
X6695190Y-1126070D01*
X6703060Y-1168400D01*
X6695190Y-1210730D01*
X6675500Y-1242490D01*
X6640070Y-1258370D01*
X6545580D01*
G01X7254240Y-1073150D02*
Y-1390650D01*
G01X7199120Y-1178990D02*
X7309360D01*
G01X7569200Y-1390650D02*
X7545580Y-1385360D01*
X7521960Y-1364200D01*
X7506200Y-1327150D01*
X7498330Y-1284820D01*
X7506200Y-1242490D01*
X7521960Y-1205440D01*
X7545580Y-1184280D01*
X7569200Y-1178990D01*
X7592820Y-1184280D01*
X7616440Y-1205440D01*
X7632190Y-1242490D01*
X7636130Y-1284820D01*
X7632190Y-1327150D01*
X7616440Y-1364200D01*
X7592820Y-1385360D01*
X7569200Y-1390650D01*
G01X8230610Y-1221310D02*
X8246360Y-1205440D01*
X8258170Y-1178990D01*
X8266050Y-1141940D01*
X8258170Y-1110190D01*
X8242430Y-1089030D01*
X8214870Y-1073150D01*
X8108570D01*
Y-1390650D01*
X8238490D01*
X8266050Y-1369490D01*
X8281800Y-1337730D01*
X8289670Y-1300690D01*
X8281800Y-1263660D01*
X8258170Y-1231900D01*
X8230610Y-1221310D01*
X8108570D01*
G01X8514080Y-1390650D02*
X8482580Y-1385360D01*
X8455030Y-1364200D01*
X8431400Y-1332440D01*
X8415650Y-1295400D01*
X8407780Y-1253070D01*
Y-1210730D01*
X8415650Y-1168400D01*
X8431400Y-1131360D01*
X8455030Y-1099610D01*
X8482580Y-1078440D01*
X8514080Y-1073150D01*
X8545570Y-1078440D01*
X8573130Y-1099610D01*
X8596760Y-1131360D01*
X8612510Y-1168400D01*
X8620380Y-1210730D01*
Y-1253070D01*
X8612510Y-1295400D01*
X8596760Y-1332440D01*
X8573130Y-1364200D01*
X8545570Y-1385360D01*
X8514080Y-1390650D01*
G01X8829040Y-1073150D02*
Y-1390650D01*
G01X8738490Y-1073150D02*
X8919590D01*
G01X9144000D02*
Y-1390650D01*
G01X9053450Y-1073150D02*
X9234550D01*
G01X9458960Y-1390650D02*
X9427460Y-1385360D01*
X9399910Y-1364200D01*
X9376280Y-1332440D01*
X9360530Y-1295400D01*
X9352660Y-1253070D01*
Y-1210730D01*
X9360530Y-1168400D01*
X9376280Y-1131360D01*
X9399910Y-1099610D01*
X9427460Y-1078440D01*
X9458960Y-1073150D01*
X9490450Y-1078440D01*
X9518010Y-1099610D01*
X9541640Y-1131360D01*
X9557390Y-1168400D01*
X9565260Y-1210730D01*
Y-1253070D01*
X9557390Y-1295400D01*
X9541640Y-1332440D01*
X9518010Y-1364200D01*
X9490450Y-1385360D01*
X9458960Y-1390650D01*
G01X9671550D02*
Y-1073150D01*
X9773920Y-1337730D01*
X9876290Y-1073150D01*
Y-1390650D01*
G01X2766060Y-2199400D02*
Y-9184400D01*
G01X3199130Y-2675650D02*
Y-2358150D01*
X3297550D01*
X3329050Y-2374030D01*
X3348740Y-2395190D01*
X3356610Y-2437530D01*
X3348740Y-2479860D01*
X3325110Y-2506310D01*
X3297550Y-2522200D01*
X3199130D01*
G01X3297550D02*
X3356610Y-2675650D01*
G01X3592830D02*
X3561330Y-2670360D01*
X3533780Y-2649200D01*
X3510150Y-2617440D01*
X3494400Y-2580400D01*
X3486530Y-2538070D01*
Y-2495730D01*
X3494400Y-2453400D01*
X3510150Y-2416360D01*
X3533780Y-2384610D01*
X3561330Y-2363440D01*
X3592830Y-2358150D01*
X3624320Y-2363440D01*
X3651880Y-2384610D01*
X3675510Y-2416360D01*
X3691260Y-2453400D01*
X3699130Y-2495730D01*
Y-2538070D01*
X3691260Y-2580400D01*
X3675510Y-2617440D01*
X3651880Y-2649200D01*
X3624320Y-2670360D01*
X3592830Y-2675650D01*
G01X3907790Y-2358150D02*
Y-2675650D01*
G01X3817240Y-2358150D02*
X3998340D01*
G01X4124320Y-2675650D02*
X4222750Y-2358150D01*
X4321180Y-2675650D01*
G01X4285740Y-2564530D02*
X4159750D01*
G01X4537710Y-2358150D02*
Y-2675650D01*
G01X4447160Y-2358150D02*
X4628260D01*
G01X4805430D02*
X4899910D01*
G01X4852670D02*
Y-2675650D01*
G01X4805430D02*
X4899910D01*
G01X5167630D02*
X5136130Y-2670360D01*
X5108580Y-2649200D01*
X5084950Y-2617440D01*
X5069200Y-2580400D01*
X5061330Y-2538070D01*
Y-2495730D01*
X5069200Y-2453400D01*
X5084950Y-2416360D01*
X5108580Y-2384610D01*
X5136130Y-2363440D01*
X5167630Y-2358150D01*
X5199120Y-2363440D01*
X5226680Y-2384610D01*
X5250310Y-2416360D01*
X5266060Y-2453400D01*
X5273930Y-2495730D01*
Y-2538070D01*
X5266060Y-2580400D01*
X5250310Y-2617440D01*
X5226680Y-2649200D01*
X5199120Y-2670360D01*
X5167630Y-2675650D01*
G01X5392040D02*
Y-2358150D01*
X5573140Y-2675650D01*
Y-2358150D01*
G01X3525900Y-8353620D02*
X3553460Y-8380070D01*
X3584950Y-8390650D01*
X3616450Y-8380070D01*
X3644010Y-8348330D01*
X3663700Y-8300690D01*
X3671570Y-8253070D01*
Y-8194860D01*
X3663700Y-8147240D01*
X3644010Y-8104900D01*
X3620390Y-8083730D01*
X3592830Y-8073150D01*
X3561330Y-8083730D01*
X3537710Y-8104900D01*
X3521960Y-8136650D01*
X3514090Y-8178990D01*
X3521960Y-8216020D01*
X3541650Y-8253070D01*
X3565270Y-8274240D01*
X3592830Y-8279530D01*
X3624320Y-8268950D01*
X3647950Y-8242490D01*
X3671570Y-8194860D01*
G01X3907790Y-8073150D02*
X3876290Y-8083730D01*
X3852670Y-8110190D01*
X3836920Y-8141940D01*
X3825110Y-8184280D01*
X3821180Y-8231900D01*
X3825110Y-8279530D01*
X3836920Y-8321860D01*
X3852670Y-8353620D01*
X3876290Y-8380070D01*
X3907790Y-8390650D01*
X3939280Y-8380070D01*
X3962910Y-8353620D01*
X3978660Y-8321860D01*
X3990470Y-8279530D01*
X3994400Y-8231900D01*
X3990470Y-8184280D01*
X3978660Y-8141940D01*
X3962910Y-8110190D01*
X3939280Y-8083730D01*
X3907790Y-8073150D01*
G01X4222750Y-8401230D02*
X4214870Y-8395940D01*
Y-8385360D01*
X4222750Y-8380070D01*
X4230630Y-8385360D01*
Y-8395940D01*
X4222750Y-8401230D01*
G01X4537710Y-8073150D02*
X4506210Y-8083730D01*
X4482590Y-8110190D01*
X4466840Y-8141940D01*
X4455030Y-8184280D01*
X4451100Y-8231900D01*
X4455030Y-8279530D01*
X4466840Y-8321860D01*
X4482590Y-8353620D01*
X4506210Y-8380070D01*
X4537710Y-8390650D01*
X4569200Y-8380070D01*
X4592830Y-8353620D01*
X4608580Y-8321860D01*
X4620390Y-8279530D01*
X4624320Y-8231900D01*
X4620390Y-8184280D01*
X4608580Y-8141940D01*
X4592830Y-8110190D01*
X4569200Y-8083730D01*
X4537710Y-8073150D01*
G01X4852670D02*
X4821170Y-8083730D01*
X4797550Y-8110190D01*
X4781800Y-8141940D01*
X4769990Y-8184280D01*
X4766060Y-8231900D01*
X4769990Y-8279530D01*
X4781800Y-8321860D01*
X4797550Y-8353620D01*
X4821170Y-8380070D01*
X4852670Y-8390650D01*
X4884160Y-8380070D01*
X4907790Y-8353620D01*
X4923540Y-8321860D01*
X4935350Y-8279530D01*
X4939280Y-8231900D01*
X4935350Y-8184280D01*
X4923540Y-8141940D01*
X4907790Y-8110190D01*
X4884160Y-8083730D01*
X4852670Y-8073150D01*
G01X5167630D02*
X5136130Y-8083730D01*
X5112510Y-8110190D01*
X5096760Y-8141940D01*
X5084950Y-8184280D01*
X5081020Y-8231900D01*
X5084950Y-8279530D01*
X5096760Y-8321860D01*
X5112510Y-8353620D01*
X5136130Y-8380070D01*
X5167630Y-8390650D01*
X5199120Y-8380070D01*
X5222750Y-8353620D01*
X5238500Y-8321860D01*
X5250310Y-8279530D01*
X5254240Y-8231900D01*
X5250310Y-8184280D01*
X5238500Y-8141940D01*
X5222750Y-8110190D01*
X5199120Y-8083730D01*
X5167630Y-8073150D01*
G01X3750310Y-8708150D02*
X3718810Y-8718730D01*
X3695190Y-8745190D01*
X3679440Y-8776940D01*
X3667630Y-8819280D01*
X3663700Y-8866900D01*
X3667630Y-8914530D01*
X3679440Y-8956860D01*
X3695190Y-8988620D01*
X3718810Y-9015070D01*
X3750310Y-9025650D01*
X3781800Y-9015070D01*
X3805430Y-8988620D01*
X3821180Y-8956860D01*
X3832990Y-8914530D01*
X3836920Y-8866900D01*
X3832990Y-8819280D01*
X3821180Y-8776940D01*
X3805430Y-8745190D01*
X3781800Y-8718730D01*
X3750310Y-8708150D01*
G01X4065270Y-9036230D02*
X4057390Y-9030940D01*
Y-9020360D01*
X4065270Y-9015070D01*
X4073150Y-9020360D01*
Y-9030940D01*
X4065270Y-9036230D01*
G01X4380230Y-8708150D02*
X4348730Y-8718730D01*
X4325110Y-8745190D01*
X4309360Y-8776940D01*
X4297550Y-8819280D01*
X4293620Y-8866900D01*
X4297550Y-8914530D01*
X4309360Y-8956860D01*
X4325110Y-8988620D01*
X4348730Y-9015070D01*
X4380230Y-9025650D01*
X4411720Y-9015070D01*
X4435350Y-8988620D01*
X4451100Y-8956860D01*
X4462910Y-8914530D01*
X4466840Y-8866900D01*
X4462910Y-8819280D01*
X4451100Y-8776940D01*
X4435350Y-8745190D01*
X4411720Y-8718730D01*
X4380230Y-8708150D01*
G01X4695190D02*
X4663690Y-8718730D01*
X4640070Y-8745190D01*
X4624320Y-8776940D01*
X4612510Y-8819280D01*
X4608580Y-8866900D01*
X4612510Y-8914530D01*
X4624320Y-8956860D01*
X4640070Y-8988620D01*
X4663690Y-9015070D01*
X4695190Y-9025650D01*
X4726680Y-9015070D01*
X4750310Y-8988620D01*
X4766060Y-8956860D01*
X4777870Y-8914530D01*
X4781800Y-8866900D01*
X4777870Y-8819280D01*
X4766060Y-8776940D01*
X4750310Y-8745190D01*
X4726680Y-8718730D01*
X4695190Y-8708150D01*
G01X5010150D02*
X4978650Y-8718730D01*
X4955030Y-8745190D01*
X4939280Y-8776940D01*
X4927470Y-8819280D01*
X4923540Y-8866900D01*
X4927470Y-8914530D01*
X4939280Y-8956860D01*
X4955030Y-8988620D01*
X4978650Y-9015070D01*
X5010150Y-9025650D01*
X5041640Y-9015070D01*
X5065270Y-8988620D01*
X5081020Y-8956860D01*
X5092830Y-8914530D01*
X5096760Y-8866900D01*
X5092830Y-8819280D01*
X5081020Y-8776940D01*
X5065270Y-8745190D01*
X5041640Y-8718730D01*
X5010150Y-8708150D01*
G01X4329050Y-7649820D02*
X4431410D01*
G01X4329050Y-7014820D02*
X4431410D01*
G01X4329050Y-6379820D02*
X4431410D01*
G01X4329050Y-5744820D02*
X4431410D01*
G01X4329050Y-5109820D02*
X4431410D01*
G01X4329050Y-4474820D02*
X4431410D01*
G01X4329050Y-3839820D02*
X4431410D01*
G01X4329050Y-3204820D02*
X4431410D01*
G01X5994400Y-2199400D02*
Y-9184400D01*
G01X6305420Y-3204820D02*
X6399910D01*
G01X6348730Y-3136020D02*
Y-3273620D01*
G01X6663690Y-2993150D02*
X6632190Y-3003730D01*
X6608570Y-3030190D01*
X6592820Y-3061940D01*
X6581010Y-3104280D01*
X6577080Y-3151900D01*
X6581010Y-3199530D01*
X6592820Y-3241860D01*
X6608570Y-3273620D01*
X6632190Y-3300070D01*
X6663690Y-3310650D01*
X6695180Y-3300070D01*
X6718810Y-3273620D01*
X6734560Y-3241860D01*
X6746370Y-3199530D01*
X6750300Y-3151900D01*
X6746370Y-3104280D01*
X6734560Y-3061940D01*
X6718810Y-3030190D01*
X6695180Y-3003730D01*
X6663690Y-2993150D01*
G01X6978650Y-3321230D02*
X6970770Y-3315940D01*
Y-3305360D01*
X6978650Y-3300070D01*
X6986530Y-3305360D01*
Y-3315940D01*
X6978650Y-3321230D01*
G01X7293610Y-2993150D02*
X7262110Y-3003730D01*
X7238490Y-3030190D01*
X7222740Y-3061940D01*
X7210930Y-3104280D01*
X7207000Y-3151900D01*
X7210930Y-3199530D01*
X7222740Y-3241860D01*
X7238490Y-3273620D01*
X7262110Y-3300070D01*
X7293610Y-3310650D01*
X7325100Y-3300070D01*
X7348730Y-3273620D01*
X7364480Y-3241860D01*
X7376290Y-3199530D01*
X7380220Y-3151900D01*
X7376290Y-3104280D01*
X7364480Y-3061940D01*
X7348730Y-3030190D01*
X7325100Y-3003730D01*
X7293610Y-2993150D01*
G01X7600690Y-3310650D02*
X7608570Y-3241860D01*
X7620380Y-3183660D01*
X7636130Y-3130730D01*
X7655810Y-3072530D01*
X7687310Y-2993150D01*
X7529830D01*
G01X7848720Y-3178370D02*
X7876290Y-3141310D01*
X7899910Y-3120150D01*
X7931410Y-3109570D01*
X7958970Y-3120150D01*
X7978650Y-3141310D01*
X7994400Y-3173070D01*
X7998340Y-3210110D01*
X7994400Y-3241860D01*
X7978650Y-3273620D01*
X7955020Y-3300070D01*
X7927470Y-3310650D01*
X7895970Y-3300070D01*
X7868410Y-3268330D01*
X7852660Y-3220690D01*
X7848720Y-3167780D01*
X7856600Y-3098990D01*
X7868410Y-3061940D01*
X7888090Y-3024900D01*
X7915650Y-2998440D01*
X7943210Y-2993150D01*
X7970770Y-3003730D01*
X7990460Y-3030190D01*
G01X8163680Y-3046070D02*
X8187310Y-3014320D01*
X8214870Y-2998440D01*
X8246370Y-2993150D01*
X8285730Y-3003730D01*
X8313300Y-3030190D01*
X8321170Y-3061940D01*
X8317230Y-3093700D01*
X8301480Y-3120150D01*
X8222740Y-3173070D01*
X8187310Y-3210110D01*
X8163680Y-3263040D01*
X8155810Y-3310650D01*
X8321170D01*
G01X8482580Y-3321230D02*
X8624320Y-2993150D01*
G01X8817230Y-3204820D02*
X8919590D01*
G01X9183370Y-2993150D02*
X9151870Y-3003730D01*
X9128250Y-3030190D01*
X9112500Y-3061940D01*
X9100690Y-3104280D01*
X9096760Y-3151900D01*
X9100690Y-3199530D01*
X9112500Y-3241860D01*
X9128250Y-3273620D01*
X9151870Y-3300070D01*
X9183370Y-3310650D01*
X9214860Y-3300070D01*
X9238490Y-3273620D01*
X9254240Y-3241860D01*
X9266050Y-3199530D01*
X9269980Y-3151900D01*
X9266050Y-3104280D01*
X9254240Y-3061940D01*
X9238490Y-3030190D01*
X9214860Y-3003730D01*
X9183370Y-2993150D01*
G01X9498330Y-3321230D02*
X9490450Y-3315940D01*
Y-3305360D01*
X9498330Y-3300070D01*
X9506210Y-3305360D01*
Y-3315940D01*
X9498330Y-3321230D01*
G01X9813290Y-2993150D02*
X9781790Y-3003730D01*
X9758170Y-3030190D01*
X9742420Y-3061940D01*
X9730610Y-3104280D01*
X9726680Y-3151900D01*
X9730610Y-3199530D01*
X9742420Y-3241860D01*
X9758170Y-3273620D01*
X9781790Y-3300070D01*
X9813290Y-3310650D01*
X9844780Y-3300070D01*
X9868410Y-3273620D01*
X9884160Y-3241860D01*
X9895970Y-3199530D01*
X9899900Y-3151900D01*
X9895970Y-3104280D01*
X9884160Y-3061940D01*
X9868410Y-3030190D01*
X9844780Y-3003730D01*
X9813290Y-2993150D01*
G01X10120370Y-3310650D02*
X10128250Y-3241860D01*
X10140060Y-3183660D01*
X10155810Y-3130730D01*
X10175490Y-3072530D01*
X10206990Y-2993150D01*
X10049510D01*
G01X10368400Y-3178370D02*
X10395970Y-3141310D01*
X10419590Y-3120150D01*
X10451090Y-3109570D01*
X10478650Y-3120150D01*
X10498330Y-3141310D01*
X10514080Y-3173070D01*
X10518020Y-3210110D01*
X10514080Y-3241860D01*
X10498330Y-3273620D01*
X10474700Y-3300070D01*
X10447150Y-3310650D01*
X10415650Y-3300070D01*
X10388090Y-3268330D01*
X10372340Y-3220690D01*
X10368400Y-3167780D01*
X10376280Y-3098990D01*
X10388090Y-3061940D01*
X10407770Y-3024900D01*
X10435330Y-2998440D01*
X10462890Y-2993150D01*
X10490450Y-3003730D01*
X10510140Y-3030190D01*
G01X10683360Y-3046070D02*
X10706990Y-3014320D01*
X10734550Y-2998440D01*
X10766050Y-2993150D01*
X10805410Y-3003730D01*
X10832980Y-3030190D01*
X10840850Y-3061940D01*
X10836910Y-3093700D01*
X10821160Y-3120150D01*
X10742420Y-3173070D01*
X10706990Y-3210110D01*
X10683360Y-3263040D01*
X10675490Y-3310650D01*
X10840850D01*
G01X6746360Y-2675650D02*
Y-2358150D01*
X6895980D01*
G01X6840850Y-2511600D02*
X6746360D01*
G01X7088890Y-2358150D02*
X7183370D01*
G01X7136130D02*
Y-2675650D01*
G01X7088890D02*
X7183370D01*
G01X7360540D02*
Y-2358150D01*
X7541640Y-2675650D01*
Y-2358150D01*
G01X7718810D02*
X7813290D01*
G01X7766050D02*
Y-2675650D01*
G01X7718810D02*
X7813290D01*
G01X7998330Y-2633330D02*
X8029830Y-2659780D01*
X8065260Y-2675650D01*
X8096760D01*
X8128250Y-2659780D01*
X8151880Y-2633330D01*
X8163690Y-2596270D01*
X8155820Y-2559240D01*
X8136130Y-2527490D01*
X8100690Y-2506310D01*
X8053450Y-2495730D01*
X8025890Y-2474570D01*
X8014080Y-2437530D01*
X8021960Y-2400480D01*
X8041640Y-2374030D01*
X8069200Y-2358150D01*
X8096760D01*
X8124320Y-2368730D01*
X8147940Y-2395190D01*
G01X8313290Y-2675650D02*
Y-2358150D01*
G01X8478650D02*
Y-2675650D01*
G01Y-2516900D02*
X8313290D01*
G01X8789670Y-2675650D02*
X8632190D01*
Y-2358150D01*
X8789670D01*
G01X8726680Y-2511600D02*
X8632190D01*
G01X8939280Y-2675650D02*
Y-2358150D01*
X9018010D01*
X9049510Y-2374030D01*
X9073130Y-2395190D01*
X9092820Y-2426940D01*
X9108570Y-2463990D01*
X9112500Y-2516900D01*
X9108570Y-2569820D01*
X9092820Y-2606860D01*
X9073130Y-2638620D01*
X9049510Y-2659780D01*
X9018010Y-2675650D01*
X8939280D01*
G01X9222740Y-2781480D02*
X9458960D01*
G01X9655810Y-2358150D02*
Y-2675650D01*
G01X9565260Y-2358150D02*
X9746360D01*
G01X9970770Y-2675650D02*
X9939270Y-2670360D01*
X9911720Y-2649200D01*
X9888090Y-2617440D01*
X9872340Y-2580400D01*
X9864470Y-2538070D01*
Y-2495730D01*
X9872340Y-2453400D01*
X9888090Y-2416360D01*
X9911720Y-2384610D01*
X9939270Y-2363440D01*
X9970770Y-2358150D01*
X10002260Y-2363440D01*
X10029820Y-2384610D01*
X10053450Y-2416360D01*
X10069200Y-2453400D01*
X10077070Y-2495730D01*
Y-2538070D01*
X10069200Y-2580400D01*
X10053450Y-2617440D01*
X10029820Y-2649200D01*
X10002260Y-2670360D01*
X9970770Y-2675650D01*
G01X10206990Y-2358150D02*
Y-2675650D01*
X10364470D01*
G01X7250300Y-8919820D02*
X7344790D01*
G01X7293610Y-8851020D02*
Y-8988620D01*
G01X7608570Y-8708150D02*
X7577070Y-8718730D01*
X7553450Y-8745190D01*
X7537700Y-8776940D01*
X7525890Y-8819280D01*
X7521960Y-8866900D01*
X7525890Y-8914530D01*
X7537700Y-8956860D01*
X7553450Y-8988620D01*
X7577070Y-9015070D01*
X7608570Y-9025650D01*
X7640060Y-9015070D01*
X7663690Y-8988620D01*
X7679440Y-8956860D01*
X7691250Y-8914530D01*
X7695180Y-8866900D01*
X7691250Y-8819280D01*
X7679440Y-8776940D01*
X7663690Y-8745190D01*
X7640060Y-8718730D01*
X7608570Y-8708150D01*
G01X7923530Y-9036230D02*
X7915650Y-9030940D01*
Y-9020360D01*
X7923530Y-9015070D01*
X7931410Y-9020360D01*
Y-9030940D01*
X7923530Y-9036230D01*
G01X8238490Y-8708150D02*
X8206990Y-8718730D01*
X8183370Y-8745190D01*
X8167620Y-8776940D01*
X8155810Y-8819280D01*
X8151880Y-8866900D01*
X8155810Y-8914530D01*
X8167620Y-8956860D01*
X8183370Y-8988620D01*
X8206990Y-9015070D01*
X8238490Y-9025650D01*
X8269980Y-9015070D01*
X8293610Y-8988620D01*
X8309360Y-8956860D01*
X8321170Y-8914530D01*
X8325100Y-8866900D01*
X8321170Y-8819280D01*
X8309360Y-8776940D01*
X8293610Y-8745190D01*
X8269980Y-8718730D01*
X8238490Y-8708150D01*
G01X8482580Y-9036230D02*
X8624320Y-8708150D01*
G01X8817230Y-8919820D02*
X8919590D01*
G01X9183370Y-8708150D02*
X9151870Y-8718730D01*
X9128250Y-8745190D01*
X9112500Y-8776940D01*
X9100690Y-8819280D01*
X9096760Y-8866900D01*
X9100690Y-8914530D01*
X9112500Y-8956860D01*
X9128250Y-8988620D01*
X9151870Y-9015070D01*
X9183370Y-9025650D01*
X9214860Y-9015070D01*
X9238490Y-8988620D01*
X9254240Y-8956860D01*
X9266050Y-8914530D01*
X9269980Y-8866900D01*
X9266050Y-8819280D01*
X9254240Y-8776940D01*
X9238490Y-8745190D01*
X9214860Y-8718730D01*
X9183370Y-8708150D01*
G01X9498330Y-9036230D02*
X9490450Y-9030940D01*
Y-9020360D01*
X9498330Y-9015070D01*
X9506210Y-9020360D01*
Y-9030940D01*
X9498330Y-9036230D01*
G01X9813290Y-8708150D02*
X9781790Y-8718730D01*
X9758170Y-8745190D01*
X9742420Y-8776940D01*
X9730610Y-8819280D01*
X9726680Y-8866900D01*
X9730610Y-8914530D01*
X9742420Y-8956860D01*
X9758170Y-8988620D01*
X9781790Y-9015070D01*
X9813290Y-9025650D01*
X9844780Y-9015070D01*
X9868410Y-8988620D01*
X9884160Y-8956860D01*
X9895970Y-8914530D01*
X9899900Y-8866900D01*
X9895970Y-8819280D01*
X9884160Y-8776940D01*
X9868410Y-8745190D01*
X9844780Y-8718730D01*
X9813290Y-8708150D01*
G01X7250300Y-8284820D02*
X7344790D01*
G01X7293610Y-8216020D02*
Y-8353620D01*
G01X7608570Y-8073150D02*
X7577070Y-8083730D01*
X7553450Y-8110190D01*
X7537700Y-8141940D01*
X7525890Y-8184280D01*
X7521960Y-8231900D01*
X7525890Y-8279530D01*
X7537700Y-8321860D01*
X7553450Y-8353620D01*
X7577070Y-8380070D01*
X7608570Y-8390650D01*
X7640060Y-8380070D01*
X7663690Y-8353620D01*
X7679440Y-8321860D01*
X7691250Y-8279530D01*
X7695180Y-8231900D01*
X7691250Y-8184280D01*
X7679440Y-8141940D01*
X7663690Y-8110190D01*
X7640060Y-8083730D01*
X7608570Y-8073150D01*
G01X7923530Y-8401230D02*
X7915650Y-8395940D01*
Y-8385360D01*
X7923530Y-8380070D01*
X7931410Y-8385360D01*
Y-8395940D01*
X7923530Y-8401230D01*
G01X8238490Y-8073150D02*
X8206990Y-8083730D01*
X8183370Y-8110190D01*
X8167620Y-8141940D01*
X8155810Y-8184280D01*
X8151880Y-8231900D01*
X8155810Y-8279530D01*
X8167620Y-8321860D01*
X8183370Y-8353620D01*
X8206990Y-8380070D01*
X8238490Y-8390650D01*
X8269980Y-8380070D01*
X8293610Y-8353620D01*
X8309360Y-8321860D01*
X8321170Y-8279530D01*
X8325100Y-8231900D01*
X8321170Y-8184280D01*
X8309360Y-8141940D01*
X8293610Y-8110190D01*
X8269980Y-8083730D01*
X8238490Y-8073150D01*
G01X8482580Y-8401230D02*
X8624320Y-8073150D01*
G01X8817230Y-8284820D02*
X8919590D01*
G01X9183370Y-8073150D02*
X9151870Y-8083730D01*
X9128250Y-8110190D01*
X9112500Y-8141940D01*
X9100690Y-8184280D01*
X9096760Y-8231900D01*
X9100690Y-8279530D01*
X9112500Y-8321860D01*
X9128250Y-8353620D01*
X9151870Y-8380070D01*
X9183370Y-8390650D01*
X9214860Y-8380070D01*
X9238490Y-8353620D01*
X9254240Y-8321860D01*
X9266050Y-8279530D01*
X9269980Y-8231900D01*
X9266050Y-8184280D01*
X9254240Y-8141940D01*
X9238490Y-8110190D01*
X9214860Y-8083730D01*
X9183370Y-8073150D01*
G01X9498330Y-8401230D02*
X9490450Y-8395940D01*
Y-8385360D01*
X9498330Y-8380070D01*
X9506210Y-8385360D01*
Y-8395940D01*
X9498330Y-8401230D01*
G01X9813290Y-8073150D02*
X9781790Y-8083730D01*
X9758170Y-8110190D01*
X9742420Y-8141940D01*
X9730610Y-8184280D01*
X9726680Y-8231900D01*
X9730610Y-8279530D01*
X9742420Y-8321860D01*
X9758170Y-8353620D01*
X9781790Y-8380070D01*
X9813290Y-8390650D01*
X9844780Y-8380070D01*
X9868410Y-8353620D01*
X9884160Y-8321860D01*
X9895970Y-8279530D01*
X9899900Y-8231900D01*
X9895970Y-8184280D01*
X9884160Y-8141940D01*
X9868410Y-8110190D01*
X9844780Y-8083730D01*
X9813290Y-8073150D01*
G01X7250300Y-7649820D02*
X7344790D01*
G01X7293610Y-7581020D02*
Y-7718620D01*
G01X7608570Y-7438150D02*
X7577070Y-7448730D01*
X7553450Y-7475190D01*
X7537700Y-7506940D01*
X7525890Y-7549280D01*
X7521960Y-7596900D01*
X7525890Y-7644530D01*
X7537700Y-7686860D01*
X7553450Y-7718620D01*
X7577070Y-7745070D01*
X7608570Y-7755650D01*
X7640060Y-7745070D01*
X7663690Y-7718620D01*
X7679440Y-7686860D01*
X7691250Y-7644530D01*
X7695180Y-7596900D01*
X7691250Y-7549280D01*
X7679440Y-7506940D01*
X7663690Y-7475190D01*
X7640060Y-7448730D01*
X7608570Y-7438150D01*
G01X7923530Y-7766230D02*
X7915650Y-7760940D01*
Y-7750360D01*
X7923530Y-7745070D01*
X7931410Y-7750360D01*
Y-7760940D01*
X7923530Y-7766230D01*
G01X8238490Y-7438150D02*
X8206990Y-7448730D01*
X8183370Y-7475190D01*
X8167620Y-7506940D01*
X8155810Y-7549280D01*
X8151880Y-7596900D01*
X8155810Y-7644530D01*
X8167620Y-7686860D01*
X8183370Y-7718620D01*
X8206990Y-7745070D01*
X8238490Y-7755650D01*
X8269980Y-7745070D01*
X8293610Y-7718620D01*
X8309360Y-7686860D01*
X8321170Y-7644530D01*
X8325100Y-7596900D01*
X8321170Y-7549280D01*
X8309360Y-7506940D01*
X8293610Y-7475190D01*
X8269980Y-7448730D01*
X8238490Y-7438150D01*
G01X8482580Y-7766230D02*
X8624320Y-7438150D01*
G01X8817230Y-7649820D02*
X8919590D01*
G01X9183370Y-7438150D02*
X9151870Y-7448730D01*
X9128250Y-7475190D01*
X9112500Y-7506940D01*
X9100690Y-7549280D01*
X9096760Y-7596900D01*
X9100690Y-7644530D01*
X9112500Y-7686860D01*
X9128250Y-7718620D01*
X9151870Y-7745070D01*
X9183370Y-7755650D01*
X9214860Y-7745070D01*
X9238490Y-7718620D01*
X9254240Y-7686860D01*
X9266050Y-7644530D01*
X9269980Y-7596900D01*
X9266050Y-7549280D01*
X9254240Y-7506940D01*
X9238490Y-7475190D01*
X9214860Y-7448730D01*
X9183370Y-7438150D01*
G01X9498330Y-7766230D02*
X9490450Y-7760940D01*
Y-7750360D01*
X9498330Y-7745070D01*
X9506210Y-7750360D01*
Y-7760940D01*
X9498330Y-7766230D01*
G01X9813290Y-7438150D02*
X9781790Y-7448730D01*
X9758170Y-7475190D01*
X9742420Y-7506940D01*
X9730610Y-7549280D01*
X9726680Y-7596900D01*
X9730610Y-7644530D01*
X9742420Y-7686860D01*
X9758170Y-7718620D01*
X9781790Y-7745070D01*
X9813290Y-7755650D01*
X9844780Y-7745070D01*
X9868410Y-7718620D01*
X9884160Y-7686860D01*
X9895970Y-7644530D01*
X9899900Y-7596900D01*
X9895970Y-7549280D01*
X9884160Y-7506940D01*
X9868410Y-7475190D01*
X9844780Y-7448730D01*
X9813290Y-7438150D01*
G01X7250300Y-7014820D02*
X7344790D01*
G01X7293610Y-6946020D02*
Y-7083620D01*
G01X7608570Y-6803150D02*
X7577070Y-6813730D01*
X7553450Y-6840190D01*
X7537700Y-6871940D01*
X7525890Y-6914280D01*
X7521960Y-6961900D01*
X7525890Y-7009530D01*
X7537700Y-7051860D01*
X7553450Y-7083620D01*
X7577070Y-7110070D01*
X7608570Y-7120650D01*
X7640060Y-7110070D01*
X7663690Y-7083620D01*
X7679440Y-7051860D01*
X7691250Y-7009530D01*
X7695180Y-6961900D01*
X7691250Y-6914280D01*
X7679440Y-6871940D01*
X7663690Y-6840190D01*
X7640060Y-6813730D01*
X7608570Y-6803150D01*
G01X7923530Y-7131230D02*
X7915650Y-7125940D01*
Y-7115360D01*
X7923530Y-7110070D01*
X7931410Y-7115360D01*
Y-7125940D01*
X7923530Y-7131230D01*
G01X8238490Y-6803150D02*
X8206990Y-6813730D01*
X8183370Y-6840190D01*
X8167620Y-6871940D01*
X8155810Y-6914280D01*
X8151880Y-6961900D01*
X8155810Y-7009530D01*
X8167620Y-7051860D01*
X8183370Y-7083620D01*
X8206990Y-7110070D01*
X8238490Y-7120650D01*
X8269980Y-7110070D01*
X8293610Y-7083620D01*
X8309360Y-7051860D01*
X8321170Y-7009530D01*
X8325100Y-6961900D01*
X8321170Y-6914280D01*
X8309360Y-6871940D01*
X8293610Y-6840190D01*
X8269980Y-6813730D01*
X8238490Y-6803150D01*
G01X8482580Y-7131230D02*
X8624320Y-6803150D01*
G01X8817230Y-7014820D02*
X8919590D01*
G01X9183370Y-6803150D02*
X9151870Y-6813730D01*
X9128250Y-6840190D01*
X9112500Y-6871940D01*
X9100690Y-6914280D01*
X9096760Y-6961900D01*
X9100690Y-7009530D01*
X9112500Y-7051860D01*
X9128250Y-7083620D01*
X9151870Y-7110070D01*
X9183370Y-7120650D01*
X9214860Y-7110070D01*
X9238490Y-7083620D01*
X9254240Y-7051860D01*
X9266050Y-7009530D01*
X9269980Y-6961900D01*
X9266050Y-6914280D01*
X9254240Y-6871940D01*
X9238490Y-6840190D01*
X9214860Y-6813730D01*
X9183370Y-6803150D01*
G01X9498330Y-7131230D02*
X9490450Y-7125940D01*
Y-7115360D01*
X9498330Y-7110070D01*
X9506210Y-7115360D01*
Y-7125940D01*
X9498330Y-7131230D01*
G01X9813290Y-6803150D02*
X9781790Y-6813730D01*
X9758170Y-6840190D01*
X9742420Y-6871940D01*
X9730610Y-6914280D01*
X9726680Y-6961900D01*
X9730610Y-7009530D01*
X9742420Y-7051860D01*
X9758170Y-7083620D01*
X9781790Y-7110070D01*
X9813290Y-7120650D01*
X9844780Y-7110070D01*
X9868410Y-7083620D01*
X9884160Y-7051860D01*
X9895970Y-7009530D01*
X9899900Y-6961900D01*
X9895970Y-6914280D01*
X9884160Y-6871940D01*
X9868410Y-6840190D01*
X9844780Y-6813730D01*
X9813290Y-6803150D01*
G01X7250300Y-6379820D02*
X7344790D01*
G01X7293610Y-6311020D02*
Y-6448620D01*
G01X7608570Y-6168150D02*
X7577070Y-6178730D01*
X7553450Y-6205190D01*
X7537700Y-6236940D01*
X7525890Y-6279280D01*
X7521960Y-6326900D01*
X7525890Y-6374530D01*
X7537700Y-6416860D01*
X7553450Y-6448620D01*
X7577070Y-6475070D01*
X7608570Y-6485650D01*
X7640060Y-6475070D01*
X7663690Y-6448620D01*
X7679440Y-6416860D01*
X7691250Y-6374530D01*
X7695180Y-6326900D01*
X7691250Y-6279280D01*
X7679440Y-6236940D01*
X7663690Y-6205190D01*
X7640060Y-6178730D01*
X7608570Y-6168150D01*
G01X7923530Y-6496230D02*
X7915650Y-6490940D01*
Y-6480360D01*
X7923530Y-6475070D01*
X7931410Y-6480360D01*
Y-6490940D01*
X7923530Y-6496230D01*
G01X8238490Y-6168150D02*
X8206990Y-6178730D01*
X8183370Y-6205190D01*
X8167620Y-6236940D01*
X8155810Y-6279280D01*
X8151880Y-6326900D01*
X8155810Y-6374530D01*
X8167620Y-6416860D01*
X8183370Y-6448620D01*
X8206990Y-6475070D01*
X8238490Y-6485650D01*
X8269980Y-6475070D01*
X8293610Y-6448620D01*
X8309360Y-6416860D01*
X8321170Y-6374530D01*
X8325100Y-6326900D01*
X8321170Y-6279280D01*
X8309360Y-6236940D01*
X8293610Y-6205190D01*
X8269980Y-6178730D01*
X8238490Y-6168150D01*
G01X8482580Y-6496230D02*
X8624320Y-6168150D01*
G01X8817230Y-6379820D02*
X8919590D01*
G01X9183370Y-6168150D02*
X9151870Y-6178730D01*
X9128250Y-6205190D01*
X9112500Y-6236940D01*
X9100690Y-6279280D01*
X9096760Y-6326900D01*
X9100690Y-6374530D01*
X9112500Y-6416860D01*
X9128250Y-6448620D01*
X9151870Y-6475070D01*
X9183370Y-6485650D01*
X9214860Y-6475070D01*
X9238490Y-6448620D01*
X9254240Y-6416860D01*
X9266050Y-6374530D01*
X9269980Y-6326900D01*
X9266050Y-6279280D01*
X9254240Y-6236940D01*
X9238490Y-6205190D01*
X9214860Y-6178730D01*
X9183370Y-6168150D01*
G01X9498330Y-6496230D02*
X9490450Y-6490940D01*
Y-6480360D01*
X9498330Y-6475070D01*
X9506210Y-6480360D01*
Y-6490940D01*
X9498330Y-6496230D01*
G01X9813290Y-6168150D02*
X9781790Y-6178730D01*
X9758170Y-6205190D01*
X9742420Y-6236940D01*
X9730610Y-6279280D01*
X9726680Y-6326900D01*
X9730610Y-6374530D01*
X9742420Y-6416860D01*
X9758170Y-6448620D01*
X9781790Y-6475070D01*
X9813290Y-6485650D01*
X9844780Y-6475070D01*
X9868410Y-6448620D01*
X9884160Y-6416860D01*
X9895970Y-6374530D01*
X9899900Y-6326900D01*
X9895970Y-6279280D01*
X9884160Y-6236940D01*
X9868410Y-6205190D01*
X9844780Y-6178730D01*
X9813290Y-6168150D01*
G01X7250300Y-5744820D02*
X7344790D01*
G01X7293610Y-5676020D02*
Y-5813620D01*
G01X7608570Y-5533150D02*
X7577070Y-5543730D01*
X7553450Y-5570190D01*
X7537700Y-5601940D01*
X7525890Y-5644280D01*
X7521960Y-5691900D01*
X7525890Y-5739530D01*
X7537700Y-5781860D01*
X7553450Y-5813620D01*
X7577070Y-5840070D01*
X7608570Y-5850650D01*
X7640060Y-5840070D01*
X7663690Y-5813620D01*
X7679440Y-5781860D01*
X7691250Y-5739530D01*
X7695180Y-5691900D01*
X7691250Y-5644280D01*
X7679440Y-5601940D01*
X7663690Y-5570190D01*
X7640060Y-5543730D01*
X7608570Y-5533150D01*
G01X7923530Y-5861230D02*
X7915650Y-5855940D01*
Y-5845360D01*
X7923530Y-5840070D01*
X7931410Y-5845360D01*
Y-5855940D01*
X7923530Y-5861230D01*
G01X8238490Y-5533150D02*
X8206990Y-5543730D01*
X8183370Y-5570190D01*
X8167620Y-5601940D01*
X8155810Y-5644280D01*
X8151880Y-5691900D01*
X8155810Y-5739530D01*
X8167620Y-5781860D01*
X8183370Y-5813620D01*
X8206990Y-5840070D01*
X8238490Y-5850650D01*
X8269980Y-5840070D01*
X8293610Y-5813620D01*
X8309360Y-5781860D01*
X8321170Y-5739530D01*
X8325100Y-5691900D01*
X8321170Y-5644280D01*
X8309360Y-5601940D01*
X8293610Y-5570190D01*
X8269980Y-5543730D01*
X8238490Y-5533150D01*
G01X8482580Y-5861230D02*
X8624320Y-5533150D01*
G01X8817230Y-5744820D02*
X8919590D01*
G01X9183370Y-5533150D02*
X9151870Y-5543730D01*
X9128250Y-5570190D01*
X9112500Y-5601940D01*
X9100690Y-5644280D01*
X9096760Y-5691900D01*
X9100690Y-5739530D01*
X9112500Y-5781860D01*
X9128250Y-5813620D01*
X9151870Y-5840070D01*
X9183370Y-5850650D01*
X9214860Y-5840070D01*
X9238490Y-5813620D01*
X9254240Y-5781860D01*
X9266050Y-5739530D01*
X9269980Y-5691900D01*
X9266050Y-5644280D01*
X9254240Y-5601940D01*
X9238490Y-5570190D01*
X9214860Y-5543730D01*
X9183370Y-5533150D01*
G01X9498330Y-5861230D02*
X9490450Y-5855940D01*
Y-5845360D01*
X9498330Y-5840070D01*
X9506210Y-5845360D01*
Y-5855940D01*
X9498330Y-5861230D01*
G01X9813290Y-5533150D02*
X9781790Y-5543730D01*
X9758170Y-5570190D01*
X9742420Y-5601940D01*
X9730610Y-5644280D01*
X9726680Y-5691900D01*
X9730610Y-5739530D01*
X9742420Y-5781860D01*
X9758170Y-5813620D01*
X9781790Y-5840070D01*
X9813290Y-5850650D01*
X9844780Y-5840070D01*
X9868410Y-5813620D01*
X9884160Y-5781860D01*
X9895970Y-5739530D01*
X9899900Y-5691900D01*
X9895970Y-5644280D01*
X9884160Y-5601940D01*
X9868410Y-5570190D01*
X9844780Y-5543730D01*
X9813290Y-5533150D01*
G01X7250300Y-5109820D02*
X7344790D01*
G01X7293610Y-5041020D02*
Y-5178620D01*
G01X7608570Y-4898150D02*
X7577070Y-4908730D01*
X7553450Y-4935190D01*
X7537700Y-4966940D01*
X7525890Y-5009280D01*
X7521960Y-5056900D01*
X7525890Y-5104530D01*
X7537700Y-5146860D01*
X7553450Y-5178620D01*
X7577070Y-5205070D01*
X7608570Y-5215650D01*
X7640060Y-5205070D01*
X7663690Y-5178620D01*
X7679440Y-5146860D01*
X7691250Y-5104530D01*
X7695180Y-5056900D01*
X7691250Y-5009280D01*
X7679440Y-4966940D01*
X7663690Y-4935190D01*
X7640060Y-4908730D01*
X7608570Y-4898150D01*
G01X7923530Y-5226230D02*
X7915650Y-5220940D01*
Y-5210360D01*
X7923530Y-5205070D01*
X7931410Y-5210360D01*
Y-5220940D01*
X7923530Y-5226230D01*
G01X8238490Y-4898150D02*
X8206990Y-4908730D01*
X8183370Y-4935190D01*
X8167620Y-4966940D01*
X8155810Y-5009280D01*
X8151880Y-5056900D01*
X8155810Y-5104530D01*
X8167620Y-5146860D01*
X8183370Y-5178620D01*
X8206990Y-5205070D01*
X8238490Y-5215650D01*
X8269980Y-5205070D01*
X8293610Y-5178620D01*
X8309360Y-5146860D01*
X8321170Y-5104530D01*
X8325100Y-5056900D01*
X8321170Y-5009280D01*
X8309360Y-4966940D01*
X8293610Y-4935190D01*
X8269980Y-4908730D01*
X8238490Y-4898150D01*
G01X8482580Y-5226230D02*
X8624320Y-4898150D01*
G01X8817230Y-5109820D02*
X8919590D01*
G01X9183370Y-4898150D02*
X9151870Y-4908730D01*
X9128250Y-4935190D01*
X9112500Y-4966940D01*
X9100690Y-5009280D01*
X9096760Y-5056900D01*
X9100690Y-5104530D01*
X9112500Y-5146860D01*
X9128250Y-5178620D01*
X9151870Y-5205070D01*
X9183370Y-5215650D01*
X9214860Y-5205070D01*
X9238490Y-5178620D01*
X9254240Y-5146860D01*
X9266050Y-5104530D01*
X9269980Y-5056900D01*
X9266050Y-5009280D01*
X9254240Y-4966940D01*
X9238490Y-4935190D01*
X9214860Y-4908730D01*
X9183370Y-4898150D01*
G01X9498330Y-5226230D02*
X9490450Y-5220940D01*
Y-5210360D01*
X9498330Y-5205070D01*
X9506210Y-5210360D01*
Y-5220940D01*
X9498330Y-5226230D01*
G01X9813290Y-4898150D02*
X9781790Y-4908730D01*
X9758170Y-4935190D01*
X9742420Y-4966940D01*
X9730610Y-5009280D01*
X9726680Y-5056900D01*
X9730610Y-5104530D01*
X9742420Y-5146860D01*
X9758170Y-5178620D01*
X9781790Y-5205070D01*
X9813290Y-5215650D01*
X9844780Y-5205070D01*
X9868410Y-5178620D01*
X9884160Y-5146860D01*
X9895970Y-5104530D01*
X9899900Y-5056900D01*
X9895970Y-5009280D01*
X9884160Y-4966940D01*
X9868410Y-4935190D01*
X9844780Y-4908730D01*
X9813290Y-4898150D01*
G01X7250300Y-4474820D02*
X7344790D01*
G01X7293610Y-4406020D02*
Y-4543620D01*
G01X7608570Y-4263150D02*
X7577070Y-4273730D01*
X7553450Y-4300190D01*
X7537700Y-4331940D01*
X7525890Y-4374280D01*
X7521960Y-4421900D01*
X7525890Y-4469530D01*
X7537700Y-4511860D01*
X7553450Y-4543620D01*
X7577070Y-4570070D01*
X7608570Y-4580650D01*
X7640060Y-4570070D01*
X7663690Y-4543620D01*
X7679440Y-4511860D01*
X7691250Y-4469530D01*
X7695180Y-4421900D01*
X7691250Y-4374280D01*
X7679440Y-4331940D01*
X7663690Y-4300190D01*
X7640060Y-4273730D01*
X7608570Y-4263150D01*
G01X7923530Y-4591230D02*
X7915650Y-4585940D01*
Y-4575360D01*
X7923530Y-4570070D01*
X7931410Y-4575360D01*
Y-4585940D01*
X7923530Y-4591230D01*
G01X8238490Y-4263150D02*
X8206990Y-4273730D01*
X8183370Y-4300190D01*
X8167620Y-4331940D01*
X8155810Y-4374280D01*
X8151880Y-4421900D01*
X8155810Y-4469530D01*
X8167620Y-4511860D01*
X8183370Y-4543620D01*
X8206990Y-4570070D01*
X8238490Y-4580650D01*
X8269980Y-4570070D01*
X8293610Y-4543620D01*
X8309360Y-4511860D01*
X8321170Y-4469530D01*
X8325100Y-4421900D01*
X8321170Y-4374280D01*
X8309360Y-4331940D01*
X8293610Y-4300190D01*
X8269980Y-4273730D01*
X8238490Y-4263150D01*
G01X8482580Y-4591230D02*
X8624320Y-4263150D01*
G01X8817230Y-4474820D02*
X8919590D01*
G01X9183370Y-4263150D02*
X9151870Y-4273730D01*
X9128250Y-4300190D01*
X9112500Y-4331940D01*
X9100690Y-4374280D01*
X9096760Y-4421900D01*
X9100690Y-4469530D01*
X9112500Y-4511860D01*
X9128250Y-4543620D01*
X9151870Y-4570070D01*
X9183370Y-4580650D01*
X9214860Y-4570070D01*
X9238490Y-4543620D01*
X9254240Y-4511860D01*
X9266050Y-4469530D01*
X9269980Y-4421900D01*
X9266050Y-4374280D01*
X9254240Y-4331940D01*
X9238490Y-4300190D01*
X9214860Y-4273730D01*
X9183370Y-4263150D01*
G01X9498330Y-4591230D02*
X9490450Y-4585940D01*
Y-4575360D01*
X9498330Y-4570070D01*
X9506210Y-4575360D01*
Y-4585940D01*
X9498330Y-4591230D01*
G01X9813290Y-4263150D02*
X9781790Y-4273730D01*
X9758170Y-4300190D01*
X9742420Y-4331940D01*
X9730610Y-4374280D01*
X9726680Y-4421900D01*
X9730610Y-4469530D01*
X9742420Y-4511860D01*
X9758170Y-4543620D01*
X9781790Y-4570070D01*
X9813290Y-4580650D01*
X9844780Y-4570070D01*
X9868410Y-4543620D01*
X9884160Y-4511860D01*
X9895970Y-4469530D01*
X9899900Y-4421900D01*
X9895970Y-4374280D01*
X9884160Y-4331940D01*
X9868410Y-4300190D01*
X9844780Y-4273730D01*
X9813290Y-4263150D01*
G01X7250300Y-3839820D02*
X7344790D01*
G01X7293610Y-3771020D02*
Y-3908620D01*
G01X7608570Y-3628150D02*
X7577070Y-3638730D01*
X7553450Y-3665190D01*
X7537700Y-3696940D01*
X7525890Y-3739280D01*
X7521960Y-3786900D01*
X7525890Y-3834530D01*
X7537700Y-3876860D01*
X7553450Y-3908620D01*
X7577070Y-3935070D01*
X7608570Y-3945650D01*
X7640060Y-3935070D01*
X7663690Y-3908620D01*
X7679440Y-3876860D01*
X7691250Y-3834530D01*
X7695180Y-3786900D01*
X7691250Y-3739280D01*
X7679440Y-3696940D01*
X7663690Y-3665190D01*
X7640060Y-3638730D01*
X7608570Y-3628150D01*
G01X7923530Y-3956230D02*
X7915650Y-3950940D01*
Y-3940360D01*
X7923530Y-3935070D01*
X7931410Y-3940360D01*
Y-3950940D01*
X7923530Y-3956230D01*
G01X8238490Y-3628150D02*
X8206990Y-3638730D01*
X8183370Y-3665190D01*
X8167620Y-3696940D01*
X8155810Y-3739280D01*
X8151880Y-3786900D01*
X8155810Y-3834530D01*
X8167620Y-3876860D01*
X8183370Y-3908620D01*
X8206990Y-3935070D01*
X8238490Y-3945650D01*
X8269980Y-3935070D01*
X8293610Y-3908620D01*
X8309360Y-3876860D01*
X8321170Y-3834530D01*
X8325100Y-3786900D01*
X8321170Y-3739280D01*
X8309360Y-3696940D01*
X8293610Y-3665190D01*
X8269980Y-3638730D01*
X8238490Y-3628150D01*
G01X8482580Y-3956230D02*
X8624320Y-3628150D01*
G01X8817230Y-3839820D02*
X8919590D01*
G01X9183370Y-3628150D02*
X9151870Y-3638730D01*
X9128250Y-3665190D01*
X9112500Y-3696940D01*
X9100690Y-3739280D01*
X9096760Y-3786900D01*
X9100690Y-3834530D01*
X9112500Y-3876860D01*
X9128250Y-3908620D01*
X9151870Y-3935070D01*
X9183370Y-3945650D01*
X9214860Y-3935070D01*
X9238490Y-3908620D01*
X9254240Y-3876860D01*
X9266050Y-3834530D01*
X9269980Y-3786900D01*
X9266050Y-3739280D01*
X9254240Y-3696940D01*
X9238490Y-3665190D01*
X9214860Y-3638730D01*
X9183370Y-3628150D01*
G01X9498330Y-3956230D02*
X9490450Y-3950940D01*
Y-3940360D01*
X9498330Y-3935070D01*
X9506210Y-3940360D01*
Y-3950940D01*
X9498330Y-3956230D01*
G01X9813290Y-3628150D02*
X9781790Y-3638730D01*
X9758170Y-3665190D01*
X9742420Y-3696940D01*
X9730610Y-3739280D01*
X9726680Y-3786900D01*
X9730610Y-3834530D01*
X9742420Y-3876860D01*
X9758170Y-3908620D01*
X9781790Y-3935070D01*
X9813290Y-3945650D01*
X9844780Y-3935070D01*
X9868410Y-3908620D01*
X9884160Y-3876860D01*
X9895970Y-3834530D01*
X9899900Y-3786900D01*
X9895970Y-3739280D01*
X9884160Y-3696940D01*
X9868410Y-3665190D01*
X9844780Y-3638730D01*
X9813290Y-3628150D01*
G01X11112500Y-2199400D02*
Y-9184400D01*
G01X12010140Y-2675650D02*
Y-2358150D01*
X12088870D01*
X12120370Y-2374030D01*
X12143990Y-2395190D01*
X12163680Y-2426940D01*
X12179430Y-2463990D01*
X12183360Y-2516900D01*
X12179430Y-2569820D01*
X12163680Y-2606860D01*
X12143990Y-2638620D01*
X12120370Y-2659780D01*
X12088870Y-2675650D01*
X12010140D01*
G01X12332970D02*
Y-2358150D01*
X12431390D01*
X12462890Y-2374030D01*
X12482580Y-2395190D01*
X12490450Y-2437530D01*
X12482580Y-2479860D01*
X12458950Y-2506310D01*
X12431390Y-2522200D01*
X12332970D01*
G01X12431390D02*
X12490450Y-2675650D01*
G01X12679430Y-2358150D02*
X12773910D01*
G01X12726670D02*
Y-2675650D01*
G01X12679430D02*
X12773910D01*
G01X12962890Y-2358150D02*
Y-2675650D01*
X13120370D01*
G01X13277850Y-2358150D02*
Y-2675650D01*
X13435330D01*
G01X13750290D02*
X13592810D01*
Y-2358150D01*
X13750290D01*
G01X13687300Y-2511600D02*
X13592810D01*
G01X13899900Y-2675650D02*
Y-2358150D01*
X13978630D01*
X14010130Y-2374030D01*
X14033750Y-2395190D01*
X14053440Y-2426940D01*
X14069190Y-2463990D01*
X14073120Y-2516900D01*
X14069190Y-2569820D01*
X14053440Y-2606860D01*
X14033750Y-2638620D01*
X14010130Y-2659780D01*
X13978630Y-2675650D01*
X13899900D01*
G01X14183360Y-2781480D02*
X14419580D01*
G01X14616430Y-2358150D02*
Y-2675650D01*
G01X14525880Y-2358150D02*
X14706980D01*
G01X14931390Y-2675650D02*
X14899890Y-2670360D01*
X14872340Y-2649200D01*
X14848710Y-2617440D01*
X14832960Y-2580400D01*
X14825090Y-2538070D01*
Y-2495730D01*
X14832960Y-2453400D01*
X14848710Y-2416360D01*
X14872340Y-2384610D01*
X14899890Y-2363440D01*
X14931390Y-2358150D01*
X14962880Y-2363440D01*
X14990440Y-2384610D01*
X15014070Y-2416360D01*
X15029820Y-2453400D01*
X15037690Y-2495730D01*
Y-2538070D01*
X15029820Y-2580400D01*
X15014070Y-2617440D01*
X14990440Y-2649200D01*
X14962880Y-2670360D01*
X14931390Y-2675650D01*
G01X15167610Y-2358150D02*
Y-2675650D01*
X15325090D01*
G01X13620370Y-8919820D02*
X13722730D01*
G01X13620370Y-8284820D02*
X13722730D01*
G01X13620370Y-7649820D02*
X13722730D01*
G01X13620370Y-7014820D02*
X13722730D01*
G01X13620370Y-6379820D02*
X13722730D01*
G01X13620370Y-5744820D02*
X13722730D01*
G01X13620370Y-5109820D02*
X13722730D01*
G01X13620370Y-4474820D02*
X13722730D01*
G01X13620370Y-3839820D02*
X13722730D01*
G01X13620370Y-3204820D02*
X13722730D01*
G01X16230600Y-2199400D02*
Y-9184400D01*
G01X16978630Y-9025650D02*
Y-8708150D01*
X17073120D01*
X17104610Y-8724030D01*
X17128240Y-8761070D01*
X17136110Y-8803400D01*
X17128240Y-8845730D01*
X17108550Y-8877490D01*
X17073120Y-8893370D01*
X16978630D01*
G01X17293590Y-8708150D02*
Y-9025650D01*
X17451070D01*
G01X17588860D02*
X17687290Y-8708150D01*
X17785720Y-9025650D01*
G01X17750280Y-8914530D02*
X17624290D01*
G01X18002250Y-8708150D02*
Y-9025650D01*
G01X17911700Y-8708150D02*
X18092800D01*
G01X18395950Y-9025650D02*
X18238470D01*
Y-8708150D01*
X18395950D01*
G01X18332960Y-8861600D02*
X18238470D01*
G01X18545560Y-9025650D02*
Y-8708150D01*
X18624290D01*
X18655790Y-8724030D01*
X18679410Y-8745190D01*
X18699100Y-8776940D01*
X18714850Y-8813990D01*
X18718780Y-8866900D01*
X18714850Y-8919820D01*
X18699100Y-8956860D01*
X18679410Y-8988620D01*
X18655790Y-9009780D01*
X18624290Y-9025650D01*
X18545560D01*
G01X16978630Y-8390650D02*
Y-8073150D01*
X17073120D01*
X17104610Y-8089030D01*
X17128240Y-8126070D01*
X17136110Y-8168400D01*
X17128240Y-8210730D01*
X17108550Y-8242490D01*
X17073120Y-8258370D01*
X16978630D01*
G01X17293590Y-8073150D02*
Y-8390650D01*
X17451070D01*
G01X17588860D02*
X17687290Y-8073150D01*
X17785720Y-8390650D01*
G01X17750280Y-8279530D02*
X17624290D01*
G01X18002250Y-8073150D02*
Y-8390650D01*
G01X17911700Y-8073150D02*
X18092800D01*
G01X18395950Y-8390650D02*
X18238470D01*
Y-8073150D01*
X18395950D01*
G01X18332960Y-8226600D02*
X18238470D01*
G01X18545560Y-8390650D02*
Y-8073150D01*
X18624290D01*
X18655790Y-8089030D01*
X18679410Y-8110190D01*
X18699100Y-8141940D01*
X18714850Y-8178990D01*
X18718780Y-8231900D01*
X18714850Y-8284820D01*
X18699100Y-8321860D01*
X18679410Y-8353620D01*
X18655790Y-8374780D01*
X18624290Y-8390650D01*
X18545560D01*
G01X16978630Y-7755650D02*
Y-7438150D01*
X17073120D01*
X17104610Y-7454030D01*
X17128240Y-7491070D01*
X17136110Y-7533400D01*
X17128240Y-7575730D01*
X17108550Y-7607490D01*
X17073120Y-7623370D01*
X16978630D01*
G01X17293590Y-7438150D02*
Y-7755650D01*
X17451070D01*
G01X17588860D02*
X17687290Y-7438150D01*
X17785720Y-7755650D01*
G01X17750280Y-7644530D02*
X17624290D01*
G01X18002250Y-7438150D02*
Y-7755650D01*
G01X17911700Y-7438150D02*
X18092800D01*
G01X18395950Y-7755650D02*
X18238470D01*
Y-7438150D01*
X18395950D01*
G01X18332960Y-7591600D02*
X18238470D01*
G01X18545560Y-7755650D02*
Y-7438150D01*
X18624290D01*
X18655790Y-7454030D01*
X18679410Y-7475190D01*
X18699100Y-7506940D01*
X18714850Y-7543990D01*
X18718780Y-7596900D01*
X18714850Y-7649820D01*
X18699100Y-7686860D01*
X18679410Y-7718620D01*
X18655790Y-7739780D01*
X18624290Y-7755650D01*
X18545560D01*
G01X16978630Y-7120650D02*
Y-6803150D01*
X17073120D01*
X17104610Y-6819030D01*
X17128240Y-6856070D01*
X17136110Y-6898400D01*
X17128240Y-6940730D01*
X17108550Y-6972490D01*
X17073120Y-6988370D01*
X16978630D01*
G01X17293590Y-6803150D02*
Y-7120650D01*
X17451070D01*
G01X17588860D02*
X17687290Y-6803150D01*
X17785720Y-7120650D01*
G01X17750280Y-7009530D02*
X17624290D01*
G01X18002250Y-6803150D02*
Y-7120650D01*
G01X17911700Y-6803150D02*
X18092800D01*
G01X18395950Y-7120650D02*
X18238470D01*
Y-6803150D01*
X18395950D01*
G01X18332960Y-6956600D02*
X18238470D01*
G01X18545560Y-7120650D02*
Y-6803150D01*
X18624290D01*
X18655790Y-6819030D01*
X18679410Y-6840190D01*
X18699100Y-6871940D01*
X18714850Y-6908990D01*
X18718780Y-6961900D01*
X18714850Y-7014820D01*
X18699100Y-7051860D01*
X18679410Y-7083620D01*
X18655790Y-7104780D01*
X18624290Y-7120650D01*
X18545560D01*
G01X16978630Y-6485650D02*
Y-6168150D01*
X17073120D01*
X17104610Y-6184030D01*
X17128240Y-6221070D01*
X17136110Y-6263400D01*
X17128240Y-6305730D01*
X17108550Y-6337490D01*
X17073120Y-6353370D01*
X16978630D01*
G01X17293590Y-6168150D02*
Y-6485650D01*
X17451070D01*
G01X17588860D02*
X17687290Y-6168150D01*
X17785720Y-6485650D01*
G01X17750280Y-6374530D02*
X17624290D01*
G01X18002250Y-6168150D02*
Y-6485650D01*
G01X17911700Y-6168150D02*
X18092800D01*
G01X18395950Y-6485650D02*
X18238470D01*
Y-6168150D01*
X18395950D01*
G01X18332960Y-6321600D02*
X18238470D01*
G01X18545560Y-6485650D02*
Y-6168150D01*
X18624290D01*
X18655790Y-6184030D01*
X18679410Y-6205190D01*
X18699100Y-6236940D01*
X18714850Y-6273990D01*
X18718780Y-6326900D01*
X18714850Y-6379820D01*
X18699100Y-6416860D01*
X18679410Y-6448620D01*
X18655790Y-6469780D01*
X18624290Y-6485650D01*
X18545560D01*
G01X16978630Y-5850650D02*
Y-5533150D01*
X17073120D01*
X17104610Y-5549030D01*
X17128240Y-5586070D01*
X17136110Y-5628400D01*
X17128240Y-5670730D01*
X17108550Y-5702490D01*
X17073120Y-5718370D01*
X16978630D01*
G01X17293590Y-5533150D02*
Y-5850650D01*
X17451070D01*
G01X17588860D02*
X17687290Y-5533150D01*
X17785720Y-5850650D01*
G01X17750280Y-5739530D02*
X17624290D01*
G01X18002250Y-5533150D02*
Y-5850650D01*
G01X17911700Y-5533150D02*
X18092800D01*
G01X18395950Y-5850650D02*
X18238470D01*
Y-5533150D01*
X18395950D01*
G01X18332960Y-5686600D02*
X18238470D01*
G01X18545560Y-5850650D02*
Y-5533150D01*
X18624290D01*
X18655790Y-5549030D01*
X18679410Y-5570190D01*
X18699100Y-5601940D01*
X18714850Y-5638990D01*
X18718780Y-5691900D01*
X18714850Y-5744820D01*
X18699100Y-5781860D01*
X18679410Y-5813620D01*
X18655790Y-5834780D01*
X18624290Y-5850650D01*
X18545560D01*
G01X16978630Y-5215650D02*
Y-4898150D01*
X17073120D01*
X17104610Y-4914030D01*
X17128240Y-4951070D01*
X17136110Y-4993400D01*
X17128240Y-5035730D01*
X17108550Y-5067490D01*
X17073120Y-5083370D01*
X16978630D01*
G01X17293590Y-4898150D02*
Y-5215650D01*
X17451070D01*
G01X17588860D02*
X17687290Y-4898150D01*
X17785720Y-5215650D01*
G01X17750280Y-5104530D02*
X17624290D01*
G01X18002250Y-4898150D02*
Y-5215650D01*
G01X17911700Y-4898150D02*
X18092800D01*
G01X18395950Y-5215650D02*
X18238470D01*
Y-4898150D01*
X18395950D01*
G01X18332960Y-5051600D02*
X18238470D01*
G01X18545560Y-5215650D02*
Y-4898150D01*
X18624290D01*
X18655790Y-4914030D01*
X18679410Y-4935190D01*
X18699100Y-4966940D01*
X18714850Y-5003990D01*
X18718780Y-5056900D01*
X18714850Y-5109820D01*
X18699100Y-5146860D01*
X18679410Y-5178620D01*
X18655790Y-5199780D01*
X18624290Y-5215650D01*
X18545560D01*
G01X16978630Y-4580650D02*
Y-4263150D01*
X17073120D01*
X17104610Y-4279030D01*
X17128240Y-4316070D01*
X17136110Y-4358400D01*
X17128240Y-4400730D01*
X17108550Y-4432490D01*
X17073120Y-4448370D01*
X16978630D01*
G01X17293590Y-4263150D02*
Y-4580650D01*
X17451070D01*
G01X17588860D02*
X17687290Y-4263150D01*
X17785720Y-4580650D01*
G01X17750280Y-4469530D02*
X17624290D01*
G01X18002250Y-4263150D02*
Y-4580650D01*
G01X17911700Y-4263150D02*
X18092800D01*
G01X18395950Y-4580650D02*
X18238470D01*
Y-4263150D01*
X18395950D01*
G01X18332960Y-4416600D02*
X18238470D01*
G01X18545560Y-4580650D02*
Y-4263150D01*
X18624290D01*
X18655790Y-4279030D01*
X18679410Y-4300190D01*
X18699100Y-4331940D01*
X18714850Y-4368990D01*
X18718780Y-4421900D01*
X18714850Y-4474820D01*
X18699100Y-4511860D01*
X18679410Y-4543620D01*
X18655790Y-4564780D01*
X18624290Y-4580650D01*
X18545560D01*
G01X16978630Y-3945650D02*
Y-3628150D01*
X17073120D01*
X17104610Y-3644030D01*
X17128240Y-3681070D01*
X17136110Y-3723400D01*
X17128240Y-3765730D01*
X17108550Y-3797490D01*
X17073120Y-3813370D01*
X16978630D01*
G01X17293590Y-3628150D02*
Y-3945650D01*
X17451070D01*
G01X17588860D02*
X17687290Y-3628150D01*
X17785720Y-3945650D01*
G01X17750280Y-3834530D02*
X17624290D01*
G01X18002250Y-3628150D02*
Y-3945650D01*
G01X17911700Y-3628150D02*
X18092800D01*
G01X18395950Y-3945650D02*
X18238470D01*
Y-3628150D01*
X18395950D01*
G01X18332960Y-3781600D02*
X18238470D01*
G01X18545560Y-3945650D02*
Y-3628150D01*
X18624290D01*
X18655790Y-3644030D01*
X18679410Y-3665190D01*
X18699100Y-3696940D01*
X18714850Y-3733990D01*
X18718780Y-3786900D01*
X18714850Y-3839820D01*
X18699100Y-3876860D01*
X18679410Y-3908620D01*
X18655790Y-3929780D01*
X18624290Y-3945650D01*
X18545560D01*
G01X16978630Y-3310650D02*
Y-2993150D01*
X17073120D01*
X17104610Y-3009030D01*
X17128240Y-3046070D01*
X17136110Y-3088400D01*
X17128240Y-3130730D01*
X17108550Y-3162490D01*
X17073120Y-3178370D01*
X16978630D01*
G01X17293590Y-2993150D02*
Y-3310650D01*
X17451070D01*
G01X17588860D02*
X17687290Y-2993150D01*
X17785720Y-3310650D01*
G01X17750280Y-3199530D02*
X17624290D01*
G01X18002250Y-2993150D02*
Y-3310650D01*
G01X17911700Y-2993150D02*
X18092800D01*
G01X18395950Y-3310650D02*
X18238470D01*
Y-2993150D01*
X18395950D01*
G01X18332960Y-3146600D02*
X18238470D01*
G01X18545560Y-3310650D02*
Y-2993150D01*
X18624290D01*
X18655790Y-3009030D01*
X18679410Y-3030190D01*
X18699100Y-3061940D01*
X18714850Y-3098990D01*
X18718780Y-3151900D01*
X18714850Y-3204820D01*
X18699100Y-3241860D01*
X18679410Y-3273620D01*
X18655790Y-3294780D01*
X18624290Y-3310650D01*
X18545560D01*
G01X16978630Y-2675650D02*
Y-2358150D01*
X17073120D01*
X17104610Y-2374030D01*
X17128240Y-2411070D01*
X17136110Y-2453400D01*
X17128240Y-2495730D01*
X17108550Y-2527490D01*
X17073120Y-2543370D01*
X16978630D01*
G01X17293590Y-2358150D02*
Y-2675650D01*
X17451070D01*
G01X17588860D02*
X17687290Y-2358150D01*
X17785720Y-2675650D01*
G01X17750280Y-2564530D02*
X17624290D01*
G01X18002250Y-2358150D02*
Y-2675650D01*
G01X17911700Y-2358150D02*
X18092800D01*
G01X18395950Y-2675650D02*
X18238470D01*
Y-2358150D01*
X18395950D01*
G01X18332960Y-2511600D02*
X18238470D01*
G01X18545560Y-2675650D02*
Y-2358150D01*
X18624290D01*
X18655790Y-2374030D01*
X18679410Y-2395190D01*
X18699100Y-2426940D01*
X18714850Y-2463990D01*
X18718780Y-2516900D01*
X18714850Y-2569820D01*
X18699100Y-2606860D01*
X18679410Y-2638620D01*
X18655790Y-2659780D01*
X18624290Y-2675650D01*
X18545560D01*
G01X19458940Y-2199400D02*
Y-9184400D01*
G01X19970750Y-3310650D02*
Y-2993150D01*
X19923510Y-3056650D01*
G01Y-3310650D02*
X20017990D01*
G01X20332950D02*
Y-2993150D01*
X20187280Y-3220690D01*
X20384140D01*
G01X20525860Y-3178370D02*
X20553430Y-3141310D01*
X20577050Y-3120150D01*
X20608550Y-3109570D01*
X20636110Y-3120150D01*
X20655790Y-3141310D01*
X20671540Y-3173070D01*
X20675480Y-3210110D01*
X20671540Y-3241860D01*
X20655790Y-3273620D01*
X20632160Y-3300070D01*
X20604610Y-3310650D01*
X20573110Y-3300070D01*
X20545550Y-3268330D01*
X20529800Y-3220690D01*
X20525860Y-3167780D01*
X20533740Y-3098990D01*
X20545550Y-3061940D01*
X20565230Y-3024900D01*
X20592790Y-2998440D01*
X20620350Y-2993150D01*
X20647910Y-3003730D01*
X20667600Y-3030190D01*
G01X20907750Y-3310650D02*
X20915630Y-3241860D01*
X20927440Y-3183660D01*
X20943190Y-3130730D01*
X20962870Y-3072530D01*
X20994370Y-2993150D01*
X20836890D01*
G01X20128230Y-2675650D02*
X20096730Y-2670360D01*
X20069180Y-2649200D01*
X20045550Y-2617440D01*
X20029800Y-2580400D01*
X20021930Y-2538070D01*
Y-2495730D01*
X20029800Y-2453400D01*
X20045550Y-2416360D01*
X20069180Y-2384610D01*
X20096730Y-2363440D01*
X20128230Y-2358150D01*
X20159720Y-2363440D01*
X20187280Y-2384610D01*
X20210910Y-2416360D01*
X20226660Y-2453400D01*
X20234530Y-2495730D01*
Y-2538070D01*
X20226660Y-2580400D01*
X20210910Y-2617440D01*
X20187280Y-2649200D01*
X20159720Y-2670360D01*
X20128230Y-2675650D01*
G01X20159720Y-2590980D02*
X20206970Y-2675650D01*
G01X20443190Y-2358150D02*
Y-2675650D01*
G01X20352640Y-2358150D02*
X20533740D01*
G01X20758150Y-2675650D02*
Y-2532780D01*
X20679410Y-2358150D01*
G01X20836890D02*
X20758150Y-2532780D01*
G01X20368380Y-8761070D02*
X20392010Y-8729320D01*
X20419570Y-8713440D01*
X20451070Y-8708150D01*
X20490430Y-8718730D01*
X20518000Y-8745190D01*
X20525870Y-8776940D01*
X20521930Y-8808700D01*
X20506180Y-8835150D01*
X20427440Y-8888070D01*
X20392010Y-8925110D01*
X20368380Y-8978040D01*
X20360510Y-9025650D01*
X20525870D01*
G01X20443190Y-8390650D02*
Y-8073150D01*
X20395950Y-8136650D01*
G01Y-8390650D02*
X20490430D01*
G01Y-7755650D02*
Y-7438150D01*
X20344760Y-7665690D01*
X20541620D01*
G01X20443190Y-7120650D02*
X20470750Y-7115360D01*
X20502240Y-7099490D01*
X20521930Y-7073040D01*
X20529800Y-7035980D01*
X20521930Y-6998950D01*
X20498310Y-6967200D01*
X20462870Y-6951310D01*
X20423510D01*
X20399880Y-6940730D01*
X20380190Y-6914280D01*
X20372320Y-6877240D01*
X20384140Y-6840190D01*
X20411690Y-6813730D01*
X20443190Y-6803150D01*
X20474680Y-6813730D01*
X20502240Y-6840190D01*
X20514060Y-6877240D01*
X20506180Y-6914280D01*
X20486500Y-6940730D01*
X20462870Y-6951310D01*
X20423510D01*
X20388070Y-6967200D01*
X20364450Y-6998950D01*
X20356580Y-7035980D01*
X20364450Y-7073040D01*
X20384140Y-7099490D01*
X20415630Y-7115360D01*
X20443190Y-7120650D01*
G01X20199100Y-6422150D02*
X20222710Y-6459200D01*
X20254210Y-6480360D01*
X20289650Y-6485650D01*
X20321150Y-6480360D01*
X20352640Y-6453910D01*
X20372320Y-6422150D01*
X20376260Y-6390400D01*
X20368390Y-6353370D01*
X20340830Y-6326900D01*
X20313270Y-6316310D01*
X20277830D01*
G01X20313270D02*
X20336890Y-6300440D01*
X20356580Y-6273990D01*
X20364450Y-6242240D01*
X20356580Y-6210480D01*
X20336890Y-6184030D01*
X20301460Y-6168150D01*
X20266030Y-6173440D01*
X20230590Y-6194610D01*
G01X20600670Y-6168150D02*
X20569170Y-6178730D01*
X20545550Y-6205190D01*
X20529800Y-6236940D01*
X20517990Y-6279280D01*
X20514060Y-6326900D01*
X20517990Y-6374530D01*
X20529800Y-6416860D01*
X20545550Y-6448620D01*
X20569170Y-6475070D01*
X20600670Y-6485650D01*
X20632160Y-6475070D01*
X20655790Y-6448620D01*
X20671540Y-6416860D01*
X20683350Y-6374530D01*
X20687280Y-6326900D01*
X20683350Y-6279280D01*
X20671540Y-6236940D01*
X20655790Y-6205190D01*
X20632160Y-6178730D01*
X20600670Y-6168150D01*
G01X20199100Y-5803040D02*
X20222710Y-5829490D01*
X20250270Y-5845360D01*
X20285710Y-5850650D01*
X20321150Y-5840070D01*
X20348700Y-5818910D01*
X20368390Y-5781860D01*
X20372320Y-5739530D01*
X20364450Y-5697200D01*
X20344760Y-5670730D01*
X20317200Y-5649570D01*
X20289650Y-5644280D01*
X20262090Y-5649570D01*
X20226660Y-5670730D01*
X20238470Y-5533150D01*
X20344760D01*
G01X20525860Y-5586070D02*
X20549490Y-5554320D01*
X20577050Y-5538440D01*
X20608550Y-5533150D01*
X20647910Y-5543730D01*
X20675480Y-5570190D01*
X20683350Y-5601940D01*
X20679410Y-5633700D01*
X20663660Y-5660150D01*
X20584920Y-5713070D01*
X20549490Y-5750110D01*
X20525860Y-5803040D01*
X20517990Y-5850650D01*
X20683350D01*
G01X20210900Y-4951070D02*
X20234530Y-4919320D01*
X20262090Y-4903440D01*
X20293590Y-4898150D01*
X20332950Y-4908730D01*
X20360520Y-4935190D01*
X20368390Y-4966940D01*
X20364450Y-4998700D01*
X20348700Y-5025150D01*
X20269960Y-5078070D01*
X20234530Y-5115110D01*
X20210900Y-5168040D01*
X20203030Y-5215650D01*
X20368390D01*
G01X20525860Y-5083370D02*
X20553430Y-5046310D01*
X20577050Y-5025150D01*
X20608550Y-5014570D01*
X20636110Y-5025150D01*
X20655790Y-5046310D01*
X20671540Y-5078070D01*
X20675480Y-5115110D01*
X20671540Y-5146860D01*
X20655790Y-5178620D01*
X20632160Y-5205070D01*
X20604610Y-5215650D01*
X20573110Y-5205070D01*
X20545550Y-5173330D01*
X20529800Y-5125690D01*
X20525860Y-5072780D01*
X20533740Y-5003990D01*
X20545550Y-4966940D01*
X20565230Y-4929900D01*
X20592790Y-4903440D01*
X20620350Y-4898150D01*
X20647910Y-4908730D01*
X20667600Y-4935190D01*
G01X20285710Y-4580650D02*
Y-4263150D01*
X20238470Y-4326650D01*
G01Y-4580650D02*
X20332950D01*
G01X20525860Y-4448370D02*
X20553430Y-4411310D01*
X20577050Y-4390150D01*
X20608550Y-4379570D01*
X20636110Y-4390150D01*
X20655790Y-4411310D01*
X20671540Y-4443070D01*
X20675480Y-4480110D01*
X20671540Y-4511860D01*
X20655790Y-4543620D01*
X20632160Y-4570070D01*
X20604610Y-4580650D01*
X20573110Y-4570070D01*
X20545550Y-4538330D01*
X20529800Y-4490690D01*
X20525860Y-4437780D01*
X20533740Y-4368990D01*
X20545550Y-4331940D01*
X20565230Y-4294900D01*
X20592790Y-4268440D01*
X20620350Y-4263150D01*
X20647910Y-4273730D01*
X20667600Y-4300190D01*
G01X20285710Y-3945650D02*
Y-3628150D01*
X20238470Y-3691650D01*
G01Y-3945650D02*
X20332950D01*
G01X20525860Y-3813370D02*
X20553430Y-3776310D01*
X20577050Y-3755150D01*
X20608550Y-3744570D01*
X20636110Y-3755150D01*
X20655790Y-3776310D01*
X20671540Y-3808070D01*
X20675480Y-3845110D01*
X20671540Y-3876860D01*
X20655790Y-3908620D01*
X20632160Y-3935070D01*
X20604610Y-3945650D01*
X20573110Y-3935070D01*
X20545550Y-3903330D01*
X20529800Y-3855690D01*
X20525860Y-3802780D01*
X20533740Y-3733990D01*
X20545550Y-3696940D01*
X20565230Y-3659900D01*
X20592790Y-3633440D01*
X20620350Y-3628150D01*
X20647910Y-3638730D01*
X20667600Y-3665190D01*
G54D11*
X-8611870Y-7596900D03*
X400000Y400000D03*
Y8000000D03*
X9600000Y400000D03*
Y8000000D03*
G54D12*
X-8611870Y-8231900D03*
X9212400Y8886000D03*
G54D13*
X-8611870Y-6961900D03*
X1270000Y635000D03*
X2286000D03*
X3302000D03*
X4318000D03*
X5334000D03*
X6350000D03*
X7366000D03*
X8382000D03*
G54D14*
X-8611870Y-6326900D03*
X3302000Y9144000D03*
Y9398000D03*
X3556000Y9144000D03*
Y9398000D03*
X3810000Y9144000D03*
Y9398000D03*
X4064000Y9144000D03*
Y9398000D03*
X4318000Y9144000D03*
Y9398000D03*
X4572000Y9144000D03*
Y9398000D03*
X4826000Y9144000D03*
Y9398000D03*
X5080000Y9144000D03*
Y9398000D03*
X5334000Y9144000D03*
Y9398000D03*
X5588000Y9144000D03*
Y9398000D03*
X5842000Y9144000D03*
Y9398000D03*
X6096000Y9144000D03*
Y9398000D03*
X6604000Y9144000D03*
X6350000D03*
X6604000Y9398000D03*
X6350000D03*
X6858000Y9144000D03*
Y9398000D03*
G54D15*
X-8611870Y-5691900D03*
X508000Y4064000D03*
Y4318000D03*
Y5588000D03*
Y5842000D03*
Y6604000D03*
Y6858000D03*
X762000Y5588000D03*
Y5842000D03*
Y6604000D03*
Y6858000D03*
X1524000Y5588000D03*
Y5842000D03*
Y6604000D03*
Y6858000D03*
X1778000Y5588000D03*
Y5842000D03*
Y6604000D03*
Y6858000D03*
X2032000Y4064000D03*
Y4318000D03*
X2794000Y4064000D03*
Y4318000D03*
X4318000Y4064000D03*
Y4318000D03*
X4927600Y6477000D03*
X5181600D03*
X5588000Y4064000D03*
Y4318000D03*
X7112000Y4064000D03*
Y4318000D03*
X7874000Y4064000D03*
Y4318000D03*
X7950200Y9804400D03*
X8382000Y5588000D03*
Y5842000D03*
Y6604000D03*
Y6858000D03*
X8204200Y9804400D03*
X8636000Y5588000D03*
Y5842000D03*
Y6604000D03*
Y6858000D03*
X9398000Y4064000D03*
Y4318000D03*
Y5588000D03*
Y5842000D03*
Y6604000D03*
Y6858000D03*
X9652000Y5588000D03*
Y5842000D03*
Y6604000D03*
Y6858000D03*
G54D16*
X-8611870Y-5056900D03*
X254000Y5588000D03*
Y5842000D03*
Y6604000D03*
Y6858000D03*
X508000Y3810000D03*
X1270000Y5588000D03*
Y5842000D03*
Y6604000D03*
Y6858000D03*
X2032000Y3810000D03*
X2794000D03*
X4318000D03*
X4673600Y6477000D03*
X5588000Y3810000D03*
X7112000D03*
X7874000D03*
X8128000Y5588000D03*
Y5842000D03*
Y6604000D03*
Y6858000D03*
X8458200Y9804400D03*
X9144000Y5588000D03*
Y5842000D03*
Y6604000D03*
Y6858000D03*
X9398000Y3810000D03*
G54D17*
X-8611870Y-4421900D03*
X2667000Y635000D03*
Y889000D03*
X2921000Y635000D03*
Y889000D03*
X4699000Y635000D03*
Y889000D03*
X4953000Y635000D03*
Y889000D03*
X6731000Y635000D03*
Y889000D03*
X6985000Y635000D03*
Y889000D03*
X8763000Y635000D03*
Y889000D03*
X9017000Y635000D03*
Y889000D03*
G54D18*
X-8611870Y-3786900D03*
X1520000Y1524000D03*
X1778000Y1270000D03*
Y1524000D03*
X2033000D03*
X3552000D03*
X3810000Y1270000D03*
Y1524000D03*
X4065000D03*
X5584000D03*
X5842000Y1270000D03*
Y1524000D03*
X6097000D03*
X7616000D03*
X7874000Y1270000D03*
Y1524000D03*
X8129000D03*
G54D19*
X-8611870Y-3151900D03*
X222200Y1066800D03*
Y1466800D03*
X120600Y2108200D03*
Y2508200D03*
Y2971800D03*
Y3371800D03*
Y3810000D03*
Y4210000D03*
Y4673600D03*
Y5073600D03*
X177800Y8356600D03*
Y8756600D03*
Y9156600D03*
Y9556600D03*
X381000Y3962400D03*
Y4165600D03*
X355600Y6121400D03*
Y6299200D03*
Y7137400D03*
Y7340600D03*
X622200Y1066800D03*
Y1466800D03*
X603200Y2451000D03*
Y2851000D03*
X730200Y3187600D03*
Y3587600D03*
X685800Y3860800D03*
X609600Y3962400D03*
Y4165600D03*
X711200Y4267200D03*
X552400Y4686200D03*
Y5086200D03*
X609600Y6121400D03*
Y6299200D03*
Y7137400D03*
Y7340600D03*
X577800Y8356600D03*
Y8756600D03*
Y9156600D03*
Y9556600D03*
X914400Y158600D03*
X948790Y1797950D03*
X1019500Y1727240D03*
X919300Y1993500D03*
Y1893500D03*
Y2293500D03*
Y2193500D03*
Y2093500D03*
X852500Y2581410D03*
X893010Y2489980D03*
X919300Y2393500D03*
X852500Y2776260D03*
X875050Y2678840D03*
X919300Y3064000D03*
Y2964000D03*
X877850Y2873000D03*
X919300Y3364000D03*
Y3264000D03*
Y3164000D03*
Y3564000D03*
Y3464000D03*
Y3864000D03*
Y3764000D03*
Y3664000D03*
X812800Y3860800D03*
X929500Y4422600D03*
Y4522600D03*
Y4622600D03*
Y4722600D03*
X993210Y4799670D03*
X984200Y5702200D03*
Y6102200D03*
X977800Y8001000D03*
Y8356600D03*
Y8756600D03*
Y9156600D03*
Y9556600D03*
X1219200Y863600D03*
X1092200D03*
X1219200Y1168400D03*
X1231630Y1515110D03*
X1192070Y1801590D03*
X1262780Y1730880D03*
X1090210Y1656530D03*
X1160920Y1585820D03*
X1093900Y2068460D03*
Y1968460D03*
X1121360Y1872300D03*
X1093900Y2268460D03*
Y2168460D03*
X1081030Y2567630D03*
X1093900Y2468460D03*
Y2368460D03*
X1266110Y2868290D03*
X1093890Y2864000D03*
X1076970Y2765440D03*
X1093600Y2666830D03*
X1262680Y3068240D03*
X1265820Y2968290D03*
X1093900Y3064000D03*
Y2964000D03*
X1274210Y3366520D03*
X1260200Y3267500D03*
X1269910Y3167980D03*
X1093900Y3364000D03*
Y3264000D03*
Y3164000D03*
Y3564000D03*
Y3464000D03*
Y3864000D03*
Y3764000D03*
Y3664000D03*
X1193800Y4140200D03*
Y4013200D03*
X1092200Y4394200D03*
X1193800Y4216400D03*
X1092200Y4470400D03*
X1104100Y4622600D03*
X1193800Y4495800D03*
Y4572000D03*
X1063920Y4870390D03*
X1134640Y4941100D03*
X1151250Y4710790D03*
X1221960Y4781500D03*
X1205350Y5011810D03*
X1276060Y5082520D03*
X1066800Y5080000D03*
X1314400Y158600D03*
X1503500Y720300D03*
Y620300D03*
Y520300D03*
X1498600Y838200D03*
X1371600Y863600D03*
X1514480Y1232260D03*
X1302340Y1444400D03*
X1373050Y1373680D03*
X1443770Y1302970D03*
X1446100Y1784430D03*
X1485860Y1692680D03*
X1333490Y1660170D03*
X1404200Y1589460D03*
X1446100Y1984430D03*
Y1884430D03*
Y2284430D03*
Y2184430D03*
Y2084430D03*
Y2584430D03*
Y2484430D03*
Y2384430D03*
X1335170Y2795960D03*
X1434420Y2783750D03*
X1446100Y2684430D03*
Y3564000D03*
Y3464000D03*
X1352550Y3428680D03*
X1446100Y3864000D03*
Y3664000D03*
X1295400Y4140200D03*
X1397000Y4064000D03*
Y3937000D03*
X1295400Y4216400D03*
X1437500Y4322600D03*
Y4422600D03*
X1397000Y4191000D03*
X1295400Y4495800D03*
Y4572000D03*
X1437500Y4522600D03*
Y4622600D03*
X1292670Y4852210D03*
X1363380Y4922920D03*
X1437500Y4722600D03*
X1486120Y4809980D03*
X1346770Y5153230D03*
X1417480Y5223940D03*
X1434090Y4993630D03*
X1504800Y5064340D03*
X1488190Y5294650D03*
X1371600Y6121400D03*
Y6299200D03*
Y7137400D03*
Y7340600D03*
X1377800Y8001000D03*
Y8356600D03*
Y8756600D03*
Y9156600D03*
Y9556600D03*
X1714400Y158600D03*
X1765200Y558800D03*
Y958800D03*
X1601330Y1182700D03*
X1701800Y1168400D03*
X1616330Y1377330D03*
X1701800Y1371600D03*
X1676400Y1447800D03*
X1654300Y1771160D03*
X1725010Y1700450D03*
X1620700Y2065340D03*
Y1965340D03*
Y1865340D03*
X1752600Y2076400D03*
X1620700Y2265340D03*
Y2165340D03*
Y2565340D03*
Y2465340D03*
Y2365340D03*
X1752600Y2476400D03*
X1614100Y2865130D03*
X1620700Y2765340D03*
Y2665340D03*
X1610590Y3065090D03*
X1611580Y2965100D03*
X1752600Y2876400D03*
X1617190Y3364060D03*
X1606430Y3264640D03*
X1614860Y3165000D03*
X1752600Y3276400D03*
X1620700Y3564000D03*
Y3464000D03*
Y3864000D03*
Y3664000D03*
X1752600Y3860800D03*
X1676400Y3784600D03*
X1600200Y4394200D03*
X1803400Y4521200D03*
X1600200Y4470400D03*
X1612100Y4622600D03*
X1701800Y4521200D03*
X1752600Y4572000D03*
X1556830Y4880690D03*
X1627540Y4951400D03*
X1641300Y4718240D03*
X1712010Y4788950D03*
X1575510Y5135050D03*
X1673940Y5152720D03*
X1773940D03*
X1722790Y4981880D03*
X1582700Y5327320D03*
X1682700D03*
X1782700D03*
X1625600Y6121400D03*
Y6299200D03*
Y7137400D03*
Y7340600D03*
X1777800Y8001000D03*
Y8356600D03*
Y8756600D03*
Y9156600D03*
Y9556600D03*
X2062300Y720300D03*
Y620300D03*
Y520300D03*
X1854200Y1168400D03*
Y1371600D03*
Y1447800D03*
Y1651000D03*
X1879600Y3860800D03*
X1930400Y3987800D03*
Y4165600D03*
X1854200Y4572000D03*
X1810320Y4807280D03*
X1910320D03*
X2010320D03*
X1873940Y5152720D03*
X1973940D03*
X1822790Y4981880D03*
X1922790D03*
X2022790D03*
X1882700Y5327320D03*
X1982700D03*
X1924000Y9759800D03*
X2114400Y158600D03*
X2082800Y838200D03*
X2209800Y863600D03*
X2152600Y1676400D03*
Y2076400D03*
Y2476400D03*
Y2876400D03*
X2279600Y3752800D03*
X2133600Y3987800D03*
Y4165600D03*
X2279600Y4191000D03*
Y4591000D03*
X2110320Y4807280D03*
X2210320D03*
X2310320D03*
X2073940Y5152720D03*
X2173940D03*
X2273940D03*
X2122790Y4981880D03*
X2222790D03*
X2322790D03*
X2082700Y5327320D03*
X2182700D03*
X2282240Y5336870D03*
X2152600Y5702200D03*
Y6102200D03*
X2260600Y6908800D03*
X2108200Y7315200D03*
X2108000Y8001000D03*
Y8356600D03*
Y8756600D03*
Y9156600D03*
Y9556600D03*
X2311400Y9759800D03*
X2565400Y158600D03*
X2514600Y482600D03*
Y736600D03*
Y609600D03*
X2362200Y863600D03*
X2489200D03*
X2349400Y1092200D03*
Y1492200D03*
X2552600Y1676400D03*
Y2076400D03*
Y2476400D03*
Y3276400D03*
X2533600Y3752800D03*
Y4191000D03*
Y4591000D03*
X2410320Y4807280D03*
X2506610Y4834250D03*
X2577320Y4904960D03*
X2370610Y5178310D03*
X2421740Y4996300D03*
X2492450Y5067010D03*
X2563160Y5137720D03*
X2352960Y5407580D03*
X2423670Y5478290D03*
X2441320Y5249020D03*
X2512030Y5319730D03*
X2582740Y5390440D03*
X2494380Y5549000D03*
X2565090Y5619710D03*
X2508200Y5803800D03*
Y6203800D03*
X2489200Y7035800D03*
X2438400Y7264400D03*
X2514600Y7848600D03*
X2438400Y8128000D03*
Y8559800D03*
X2533600Y8737600D03*
Y9137600D03*
X2438400Y8991600D03*
X2463800Y9372600D03*
X2692400Y3962400D03*
Y4165600D03*
X2633870Y5208430D03*
X2648030Y4975670D03*
X2718740Y5046380D03*
X2789460Y5117090D03*
X2653450Y5461150D03*
X2704580Y5279150D03*
X2775290Y5349860D03*
X2846010Y5420570D03*
X2635800Y5690420D03*
X2724160Y5531860D03*
X2794870Y5602570D03*
X2706510Y5761130D03*
X2777220Y5831840D03*
X2847930Y5902550D03*
X2794000Y6273800D03*
Y6350000D03*
X2743200Y6604000D03*
X2667000D03*
X2743200Y6697800D03*
X2641600D03*
X2768600Y7069000D03*
X2692400Y7007900D03*
X2794000Y7162800D03*
X2819400Y7264400D03*
X2711400Y9759800D03*
X2965400Y158600D03*
X3073400Y1320800D03*
X3009800Y1676400D03*
Y2076400D03*
Y2476400D03*
X3036460Y3054100D03*
X3101450Y2978100D03*
X3114170Y3222820D03*
X3041650Y3153970D03*
X3098800Y3860800D03*
X2997200D03*
X2895600Y4165600D03*
Y3962400D03*
X3098800Y4267200D03*
X2997200D03*
X2990800Y4597400D03*
X2860170Y5187810D03*
X2990800Y4997400D03*
X2916720Y5491280D03*
X2930880Y5258520D03*
X3001590Y5329230D03*
X3072300Y5399940D03*
X2865580Y5673280D03*
X2936300Y5743990D03*
X2987430Y5561990D03*
X3058140Y5632700D03*
X3118180Y5712670D03*
X2918640Y5973260D03*
X3007010Y5814710D03*
X3077720Y5885420D03*
X3118180Y5812670D03*
X2970860Y6058540D03*
Y6158540D03*
X2870200Y6273800D03*
Y6350000D03*
X3098800Y6604000D03*
X2870200Y7069000D03*
Y7162800D03*
X2921000Y7848600D03*
X2933600Y8737600D03*
Y9137600D03*
X2971800Y9398000D03*
X3092400Y9759800D03*
X3365400Y158600D03*
X3124200Y431800D03*
X3251200D03*
X3276600Y863600D03*
X3149600D03*
X3276600Y1092200D03*
X3246250Y1471530D03*
X3316960Y1400820D03*
X3379900Y1765980D03*
Y1665980D03*
X3205300Y1762760D03*
Y1662760D03*
Y1562760D03*
X3379900Y2065980D03*
Y1965980D03*
Y1865980D03*
X3205300Y2062760D03*
Y1962760D03*
Y1862760D03*
X3379900Y2265980D03*
Y2165980D03*
X3205300Y2262760D03*
Y2162760D03*
X3379900Y2565980D03*
Y2465980D03*
Y2365980D03*
X3205300Y2562760D03*
Y2462760D03*
Y2362760D03*
X3379900Y2865980D03*
Y2765980D03*
Y2665980D03*
X3205300Y2862760D03*
Y2762760D03*
Y2662760D03*
X3364560Y3064800D03*
X3379900Y2965980D03*
X3200250Y2962630D03*
X3379900Y3364000D03*
Y3264000D03*
X3376820Y3164050D03*
X3205300Y3364000D03*
Y3264000D03*
X3379900Y3564000D03*
Y3464000D03*
X3205300Y3564000D03*
Y3464000D03*
X3379900Y3864000D03*
Y3764000D03*
Y3664000D03*
X3205300Y3864000D03*
Y3764000D03*
Y3664000D03*
X3378200Y4394200D03*
X3215500Y4360890D03*
X3200400Y4267200D03*
X3378200Y4470400D03*
X3215500Y4660890D03*
Y4560890D03*
Y4460890D03*
Y4960890D03*
Y4860890D03*
Y4760890D03*
X3315030Y5134370D03*
X3265450Y5047520D03*
X3143010Y5470650D03*
X3315130Y5422810D03*
X3348670Y5328610D03*
X3315210Y5234370D03*
X3213720Y5541360D03*
X3284430Y5612070D03*
X3352790Y5701750D03*
X3351400Y5516000D03*
X3145460Y5958970D03*
X3315030Y5894370D03*
X3315090Y5794370D03*
X3276600Y6019800D03*
X3127000Y6175000D03*
Y6098800D03*
X3327000Y6172600D03*
Y6096400D03*
X3302000Y6502400D03*
Y6400800D03*
Y6604000D03*
X3200400D03*
X3302000Y6705600D03*
Y7035800D03*
Y6832600D03*
Y7112000D03*
X3352800Y7188200D03*
X3251200D03*
X3327400Y7416800D03*
X3302000Y7797800D03*
X3327400Y8305800D03*
X3403600Y431800D03*
X3530600D03*
X3535500Y745700D03*
Y645700D03*
Y545700D03*
X3530600Y863600D03*
X3403600D03*
X3458380Y1259400D03*
X3529090Y1188680D03*
X3628920Y1182700D03*
X3611230Y1357300D03*
X3387670Y1330110D03*
X3397210Y1567490D03*
X3467160Y2529680D03*
X3538140Y2459240D03*
X3637560Y2448500D03*
X3468050Y2829530D03*
X3463440Y2729630D03*
X3464170Y2629640D03*
X3639680Y2908700D03*
X3540170Y2898800D03*
X3581400Y4140200D03*
X3403600Y3987800D03*
X3479800Y4140200D03*
X3454400Y4064000D03*
X3581400Y4216400D03*
X3479800D03*
X3581400Y4495800D03*
Y4572000D03*
X3390100Y4619330D03*
X3479800Y4495800D03*
Y4572000D03*
X3390100Y4919330D03*
Y4819330D03*
Y4719330D03*
X3593960Y5188710D03*
X3493970Y5187640D03*
X3489630Y5087730D03*
X3457790Y4992940D03*
X3489630Y5994370D03*
Y5894370D03*
X3606800Y5842000D03*
X3477000Y6175000D03*
Y6098800D03*
X3638220Y6193620D03*
X3403600Y6604000D03*
X3505200D03*
X3581400Y7391400D03*
X3403600Y8559800D03*
X3632200Y8737600D03*
X3479800Y9759800D03*
X3765400Y158600D03*
X3797200Y533400D03*
Y933400D03*
X3728920Y1182700D03*
X3711230Y1357300D03*
X3897300Y1792810D03*
Y1692810D03*
Y1592810D03*
X3722700Y1796040D03*
Y1696040D03*
Y1596040D03*
X3897300Y1992810D03*
Y1892810D03*
X3722700Y1996040D03*
Y1896040D03*
X3897300Y2292810D03*
Y2192810D03*
Y2092810D03*
X3722700Y2296040D03*
Y2196040D03*
Y2096040D03*
X3860220Y2585710D03*
X3897220Y2492810D03*
X3897300Y2392810D03*
X3722700Y2396040D03*
X3897220Y2864380D03*
X3860250Y2771470D03*
X3897300Y2678580D03*
Y3064380D03*
Y2964380D03*
X3722700Y3064440D03*
Y2964440D03*
X3897300Y3364380D03*
Y3264380D03*
Y3164380D03*
X3722700Y3364440D03*
Y3264440D03*
Y3164440D03*
X3897300Y3564380D03*
Y3464380D03*
X3722700Y3564440D03*
Y3464440D03*
X3905960Y3864000D03*
X3897300Y3764380D03*
Y3664380D03*
X3722700Y3864440D03*
Y3764440D03*
Y3664440D03*
X3698100Y4116980D03*
X3708400Y3987800D03*
X3886200Y4394200D03*
X3723500Y4396380D03*
X3698100Y4316980D03*
Y4216980D03*
X3886200Y4470400D03*
X3898100Y4649660D03*
Y4549660D03*
X3723500Y4696380D03*
Y4596380D03*
Y4496380D03*
X3898100Y4749660D03*
X3725800Y4896360D03*
X3723500Y4796380D03*
X3736900Y5193760D03*
X3727410Y5094210D03*
X3741200Y4995160D03*
X3681810Y5428030D03*
X3711510Y5332550D03*
X3681430Y5237170D03*
X3898100Y5491230D03*
X3711460Y5523530D03*
X3898100Y5691230D03*
Y5591230D03*
X3708400Y5664200D03*
X3815900Y5967180D03*
X3886610Y5896470D03*
X3708400Y5765800D03*
X3663620Y6119020D03*
X3745190Y6037890D03*
X3733800Y6273800D03*
X3810000D03*
X3733800Y6350000D03*
X3810000D03*
X3860800Y6604000D03*
Y6697800D03*
X3708400Y7162800D03*
X3784600D03*
X3708400Y7086600D03*
X3784600D03*
X3657600Y7899400D03*
X3784600Y8737600D03*
X3879800Y9759800D03*
X4114800Y431800D03*
X4094300Y745700D03*
Y645700D03*
Y545700D03*
X4089400Y863600D03*
X3911600Y1168400D03*
Y1371600D03*
X4108400Y1676400D03*
Y2076400D03*
Y2476400D03*
Y2876400D03*
X4089400Y4521200D03*
X4140200Y4572000D03*
X4038600D03*
X4137970Y4890700D03*
X4054990Y4834900D03*
X3955030Y4831870D03*
X4158520Y5185190D03*
X4141560Y5086640D03*
X4159730Y4988310D03*
X3997720Y5482470D03*
X4095860Y5463310D03*
X4156510Y5383790D03*
X4145740Y5284380D03*
X3911600Y5791200D03*
X3937000Y6604000D03*
Y6697800D03*
X4013200Y6553200D03*
X4102100Y6578600D03*
X4064000Y7035800D03*
X3937000Y7670800D03*
X4203600Y158600D03*
X4241800Y431800D03*
X4394200D03*
X4216400Y863600D03*
X4343400D03*
X4356000Y1066800D03*
Y1466800D03*
X4318000Y3632200D03*
X4368800Y4775200D03*
X4362400Y5245000D03*
Y5645000D03*
X4191000Y6019800D03*
X4292600Y6375400D03*
X4185000Y6607000D03*
X4267200Y6629400D03*
X4216400Y7416800D03*
X4191000Y8737600D03*
X4279800Y9759800D03*
X4603600Y158600D03*
X4546600Y482600D03*
Y736600D03*
Y609600D03*
X4470400Y863600D03*
X4565600Y1676400D03*
Y2076400D03*
Y2476400D03*
Y2876400D03*
X4622800Y6248400D03*
X4653280Y6101080D03*
X4514800Y6743600D03*
Y7143600D03*
X4572000Y7747000D03*
Y8229600D03*
Y8737600D03*
X4679800Y9759800D03*
X4718000Y4381400D03*
X4724400Y4775200D03*
X4718000Y5245000D03*
Y5645000D03*
X4724400Y6248400D03*
X4754880Y6101080D03*
X4953000Y8712200D03*
X4978400Y158600D03*
X5207000Y406400D03*
Y863600D03*
X5156200Y1244600D03*
X5073600Y1676400D03*
Y2076400D03*
Y2476400D03*
Y2876400D03*
Y3276600D03*
Y3676600D03*
Y4076600D03*
X5054600Y4394200D03*
Y4775200D03*
X5073600Y5245000D03*
Y5645000D03*
X5003800Y7416800D03*
X4978400Y7848600D03*
X5130800Y9759800D03*
X5378400Y158600D03*
X5359400Y406400D03*
Y863600D03*
X5410020Y1292430D03*
X5435600Y1066800D03*
X5340680Y1364480D03*
Y1464480D03*
Y1564480D03*
Y1664480D03*
Y1764480D03*
Y1864480D03*
Y1964480D03*
X5362530Y2062070D03*
X5433240Y2132780D03*
X5276800Y5499000D03*
Y5899000D03*
X5384800Y7035800D03*
X5410200Y7670800D03*
X5334000Y7950200D03*
Y8255000D03*
Y8712200D03*
X5537200Y406400D03*
X5567500Y745700D03*
Y645700D03*
Y545700D03*
X5511800Y863600D03*
X5709560Y1278980D03*
X5609870Y1286840D03*
X5509870D03*
X5740400Y1168400D03*
X5715000Y1473200D03*
X5515280Y1654340D03*
Y1754340D03*
X5715000Y1600200D03*
X5515280Y1854340D03*
Y1954340D03*
X5578890Y2031510D03*
X5503950Y2203490D03*
X5574660Y2274200D03*
X5645370Y2344910D03*
X5649600Y2102220D03*
X5720310Y2172930D03*
X5716080Y2415620D03*
X5530800Y2876400D03*
Y3276600D03*
X5664200Y3962400D03*
X5486400D03*
Y4165600D03*
X5664200D03*
X5740400Y4267200D03*
X5690670Y4957320D03*
X5687470Y5152440D03*
X5667170Y5054520D03*
X5721580Y5335030D03*
X5668090Y5250540D03*
X5638800Y6731000D03*
X5740400D03*
X5664200Y7467600D03*
X5734000Y8001000D03*
Y8401000D03*
X5530800Y9759800D03*
X5778400Y158600D03*
X5829200Y584200D03*
Y984200D03*
X5943600Y1168400D03*
Y1371600D03*
X5929770Y1808340D03*
X5929300Y1708350D03*
Y1608350D03*
X5754700Y1791970D03*
Y1691970D03*
X6000480Y1879060D03*
X5907260Y2032760D03*
X5836550Y1962050D03*
X5765840Y1891340D03*
X5791020Y2243640D03*
X5861730Y2314350D03*
X5977970Y2103470D03*
X5786790Y2486330D03*
X5857500Y2557040D03*
X5932440Y2385060D03*
X6003150Y2455770D03*
X5928210Y2627750D03*
X5998920Y2698470D03*
X5999300Y2798460D03*
Y2898460D03*
Y2998460D03*
Y3098460D03*
Y3198460D03*
Y3298460D03*
Y3398460D03*
Y3498460D03*
Y3598460D03*
Y3698460D03*
Y3798460D03*
X5892800Y3835400D03*
X5791200D03*
X5774640Y4903010D03*
X5874600Y4900470D03*
X5974600D03*
X5918240Y5360670D03*
X5818240D03*
X5867400Y6197600D03*
Y6350000D03*
X5829300Y6731000D03*
X5918200D03*
X5842000Y8763000D03*
X5930800Y9759800D03*
X6178400Y158600D03*
X6248400Y889000D03*
X6141900Y2020480D03*
X6071190Y1949770D03*
X6212610Y2091190D03*
X6190110Y2315610D03*
X6119400Y2244900D03*
X6048680Y2174190D03*
X6073860Y2526480D03*
X6144570Y2597190D03*
X6260820Y2386320D03*
X6173900Y2692790D03*
Y2792790D03*
Y2892790D03*
Y2992790D03*
Y3092790D03*
Y3192790D03*
Y3292790D03*
Y3392790D03*
Y3492790D03*
Y3592790D03*
Y3692790D03*
Y3792790D03*
X6197600Y3886200D03*
X6253400Y4018200D03*
X6172200Y4394200D03*
X6009500Y4406760D03*
X6019800Y4292600D03*
X6172200Y4470400D03*
X6184100Y4696660D03*
Y4596660D03*
X6009500Y4706760D03*
Y4606760D03*
Y4506760D03*
X6184100Y4896660D03*
Y4796660D03*
X6009500Y4806760D03*
X6167740Y5194960D03*
X6179500Y5095650D03*
X6172040Y4995930D03*
X6240260Y5476720D03*
X6184100Y5393990D03*
X6181380Y5294020D03*
X6009500Y5401560D03*
X6229960Y5713340D03*
X6159250Y5642630D03*
X6088540Y5571920D03*
X6017830Y5501210D03*
X6205220Y6057900D03*
X6207580Y6611800D03*
X6205400Y6697800D03*
X6248400Y7016440D03*
X6146800Y7112000D03*
Y7696200D03*
X6134000Y8001000D03*
Y8401000D03*
X6400800Y889000D03*
X6527800D03*
Y1752600D03*
Y2057400D03*
X6424740Y2303320D03*
X6354030Y2232610D03*
X6283320Y2161900D03*
X6495450Y2374030D03*
X6472950Y2598450D03*
X6402240Y2527740D03*
X6331530Y2457030D03*
X6526100Y2783150D03*
Y2683150D03*
X6358140Y3088650D03*
X6448940Y3046770D03*
X6526100Y2983150D03*
Y2883150D03*
X6321200Y3367300D03*
X6358230Y3274410D03*
X6321120Y3181550D03*
X6526100Y3564000D03*
X6444440Y3506280D03*
X6355090Y3461380D03*
X6526100Y3664000D03*
X6375400Y4140200D03*
X6483680Y4172000D03*
Y3972000D03*
Y4072000D03*
X6273800Y4140200D03*
X6375400Y4216400D03*
X6517500Y4349560D03*
X6483680Y4272000D03*
X6273800Y4216400D03*
X6375400Y4495800D03*
Y4572000D03*
X6517500Y4649560D03*
Y4549560D03*
Y4449560D03*
X6273800Y4495800D03*
Y4572000D03*
X6522750Y4948280D03*
X6520630Y4749510D03*
X6517500Y5147520D03*
X6528470Y5048120D03*
X6517500Y5447520D03*
Y5347520D03*
Y5247520D03*
X6452400Y5688860D03*
X6381690Y5618150D03*
X6310980Y5547430D03*
X6517500Y5747520D03*
Y5647520D03*
Y5547520D03*
X6512800Y5996180D03*
X6442090Y5925470D03*
X6371380Y5854760D03*
X6300670Y5784050D03*
X6521780Y6195780D03*
Y6095780D03*
X6426200Y6350000D03*
X6350000D03*
X6426200Y6286500D03*
X6350000D03*
X6289220Y6611800D03*
X6284140Y6697800D03*
X6461940Y7069000D03*
X6398440D03*
X6456860Y7155000D03*
X6393360D03*
X6324600Y7340600D03*
X6502400Y7696200D03*
X6350000Y8686800D03*
X6330800Y9759800D03*
X6629400Y158600D03*
X6553200Y508000D03*
Y685800D03*
X6700700Y2592430D03*
X6636870Y2515450D03*
X6566160Y2444740D03*
X6700700Y2792430D03*
Y2692430D03*
X6700560Y3092430D03*
X6700700Y2992430D03*
Y2892430D03*
X6661490Y3371990D03*
X6700660Y3279980D03*
X6665880Y3186230D03*
X6700700Y3564000D03*
X6700660Y3464000D03*
X6700700Y3664000D03*
X6756400Y3818250D03*
X6680200Y4394200D03*
Y4470400D03*
X6749120Y4680910D03*
X6692100Y4598760D03*
X6532710Y4848780D03*
X6692100Y5141280D03*
X6792100Y5141110D03*
X6692100Y5441280D03*
Y5341280D03*
Y5241280D03*
X6734260Y5731960D03*
X6692100Y5641280D03*
Y5541280D03*
X6671640Y5993760D03*
X6651240Y5895860D03*
X6580530Y5825150D03*
X6683000Y6175000D03*
Y6098800D03*
X6756400Y6604000D03*
X6654800D03*
X6783000Y7263200D03*
X6629400Y8407400D03*
Y8737600D03*
X6769000Y9759800D03*
X7029400Y158600D03*
X6858000Y1752600D03*
Y2057400D03*
Y3835400D03*
X6959600D03*
X7010400Y3987800D03*
Y4140200D03*
X6985000Y4267200D03*
X6883400Y4521200D03*
X6934200Y4572000D03*
X6945720Y4706780D03*
X6849120Y4680910D03*
X6832600Y4572000D03*
X6979290Y4889470D03*
X6998960Y4791430D03*
X6892070Y5138620D03*
X6976150Y5084490D03*
X6999850Y4987340D03*
X6890920Y5696020D03*
X6961630Y5625310D03*
X7032340Y5554600D03*
X6804970Y5802670D03*
X7044360Y5993760D03*
Y5893760D03*
Y5793760D03*
X6869760Y5893760D03*
Y5793760D03*
X6832600Y5956300D03*
X6883000Y6172600D03*
Y6096400D03*
X7033000Y6175000D03*
Y6098800D03*
X6858000Y6502400D03*
Y6400800D03*
Y6604000D03*
X6959600D03*
X6858000Y6705600D03*
Y6807200D03*
X6858400Y7035400D03*
Y7111600D03*
X6934200Y7264400D03*
X6858000Y7696200D03*
X6985000Y8001000D03*
Y8407400D03*
Y8737600D03*
X7188200Y457200D03*
X7162800Y762000D03*
Y584200D03*
X7239000Y863600D03*
X7086600Y1168400D03*
X7213600Y3987800D03*
Y4140200D03*
X7221120Y5144040D03*
X7277370Y5061360D03*
X7103050Y5483890D03*
X7173760Y5413180D03*
X7244470Y5342470D03*
X7237250Y5242730D03*
X7112910Y5720950D03*
X7183620Y5650240D03*
X7254330Y5579530D03*
X7269880Y5687660D03*
X7210300Y5994160D03*
X7281010Y5923450D03*
X7128460Y5829080D03*
X7199170Y5758370D03*
X7196760Y6193240D03*
Y6093240D03*
X7315200Y6273800D03*
Y6350000D03*
X7061200Y6604000D03*
X7259140Y7069000D03*
X7259500Y7155000D03*
X7169000Y9759800D03*
X7302400Y9912200D03*
X7429400Y158600D03*
X7543800Y457200D03*
X7518400Y863600D03*
X7391400D03*
X7577590Y1209270D03*
X7506880Y1279980D03*
X7416800Y1066800D03*
X7436170Y1350690D03*
X7365460Y1421400D03*
X7321880Y1511400D03*
Y1611400D03*
Y1711400D03*
Y1811400D03*
X7496480Y1594420D03*
Y1694420D03*
Y1794420D03*
X7321880Y1911400D03*
Y2011400D03*
X7496480Y1894420D03*
Y1994420D03*
X7321880Y2111400D03*
X7341300Y2209500D03*
X7412010Y2280210D03*
X7496480Y2094420D03*
X7554550Y2175830D03*
X7482720Y2350920D03*
X7553430Y2421630D03*
X7359600Y2946400D03*
Y3346400D03*
Y3778200D03*
Y4216400D03*
Y4616400D03*
X7418660Y4922510D03*
X7495200Y4858170D03*
X7561560Y4783360D03*
X7357680Y5001780D03*
X7395750Y5438110D03*
X7462480Y5363630D03*
X7529460Y5289370D03*
X7482020Y5475520D03*
X7561160Y5414400D03*
X7325040Y5508820D03*
X7493140Y5711320D03*
X7563850Y5640610D03*
X7340590Y5616950D03*
X7411300Y5546230D03*
X7351720Y5852740D03*
X7422430Y5782030D03*
X7569200Y5918200D03*
Y6223000D03*
X7391400Y6273800D03*
Y6350000D03*
X7434400Y6611800D03*
X7515680D03*
X7429680Y6697800D03*
X7515680D03*
X7322640Y7069000D03*
X7416800Y7010400D03*
X7323000Y7155000D03*
X7340600Y7696200D03*
Y8001000D03*
X7416800Y9575800D03*
X7493000D03*
X7829400Y158600D03*
X7599500Y745700D03*
Y645700D03*
Y545700D03*
X7774000Y1182700D03*
X7674000D03*
X7774000Y1357300D03*
X7674030Y1359750D03*
X7786700Y1732600D03*
Y1632600D03*
X7832260Y1821620D03*
X7625260Y2246540D03*
X7695970Y2317250D03*
X7624140Y2492340D03*
X7694850Y2563050D03*
X7766680Y2387960D03*
X7837390Y2458670D03*
X7765560Y2633760D03*
X7836270Y2704470D03*
X7759600Y2946400D03*
Y3346400D03*
X7613600Y3778200D03*
X7772400Y3962400D03*
Y4165600D03*
X7613600Y4216400D03*
Y4616400D03*
X7661190Y4774780D03*
X7742290Y4833290D03*
X7818450Y4768490D03*
X7601560Y5220080D03*
X7673410Y5150530D03*
X7740060Y5075980D03*
X7816390Y5011370D03*
X7764460Y5196610D03*
X7833380Y5124160D03*
X7625600Y5337930D03*
X7704780Y5276860D03*
X7663570Y5648120D03*
X7762310Y5663980D03*
X7823200Y6883400D03*
X7645400Y7137400D03*
X7696200Y7696200D03*
Y9271000D03*
X7620400Y9346800D03*
X7702400Y9912200D03*
X7861200Y609600D03*
Y1009600D03*
X7975600Y1143000D03*
Y1397000D03*
X8021310Y1763750D03*
X7961300Y1683760D03*
Y1583760D03*
X8092020Y1834460D03*
X8044390Y2033750D03*
X7973680Y1963040D03*
X7902970Y1892330D03*
X7908100Y2529380D03*
X7978810Y2600090D03*
X7906980Y2775180D03*
X7977690Y2845890D03*
X8049520Y2670800D03*
X8048400Y2916610D03*
X8077200Y3835400D03*
X7975600Y3962400D03*
Y4165600D03*
X8051800Y4267200D03*
X7889160Y4697780D03*
X7959870Y4627070D03*
X8030580Y4556360D03*
X8101290Y4485640D03*
X7890080Y4943780D03*
X7960790Y4873070D03*
X8031510Y4802360D03*
X8102220Y4731650D03*
X8045510Y4912030D03*
X8002240Y5202220D03*
X8072950Y5131510D03*
X7904090Y5053450D03*
X7974800Y4982740D03*
X7983710Y5466120D03*
X7998870Y5367270D03*
X7944120Y5283590D03*
X7844830Y5607500D03*
X7904660Y5527370D03*
X7848600Y5918200D03*
Y6223000D03*
X8026400Y7696200D03*
Y8001000D03*
X8267600Y158600D03*
X8280400Y863600D03*
X8304160Y2046600D03*
X8233450Y1975890D03*
X8162740Y1905170D03*
X8327230Y2316600D03*
X8256520Y2245880D03*
X8185810Y2175170D03*
X8115100Y2104460D03*
X8120240Y2741510D03*
X8190950Y2812230D03*
X8119110Y2987320D03*
X8189830Y3058030D03*
X8260540Y3128740D03*
X8261660Y2882940D03*
X8332370Y2953650D03*
X8285300Y3225620D03*
Y3325620D03*
Y3425620D03*
Y3525620D03*
Y3625620D03*
Y3725620D03*
Y3825620D03*
X8178800Y3835400D03*
X8172010Y4414930D03*
X8242720Y4344220D03*
X8128000Y4267200D03*
X8172930Y4660930D03*
X8243640Y4590220D03*
X8314350Y4519510D03*
X8257640Y4699900D03*
X8328350Y4629190D03*
X8285080Y4919380D03*
X8355790Y4848670D03*
X8116220Y4841320D03*
X8186930Y4770610D03*
X8143660Y5060800D03*
X8214370Y4990090D03*
X8229600Y6121400D03*
Y6299200D03*
Y7315200D03*
Y7137400D03*
X8356600Y7696200D03*
Y8001000D03*
X8331200Y9169400D03*
X8280400Y9118600D03*
X8585200Y711200D03*
Y533400D03*
X8432800Y863600D03*
X8587000Y2329440D03*
X8516290Y2258730D03*
X8445580Y2188020D03*
X8374870Y2117310D03*
X8610080Y2599440D03*
X8539370Y2528730D03*
X8468660Y2458020D03*
X8397950Y2387310D03*
X8403080Y3024360D03*
X8459900Y3106650D03*
Y3206650D03*
Y3306650D03*
Y3406650D03*
Y3506650D03*
Y3606650D03*
Y3706650D03*
Y3806650D03*
X8559800Y4140200D03*
X8534400Y4038600D03*
X8458200Y4394200D03*
X8559800Y4216400D03*
X8458200Y4470400D03*
X8385060Y4448800D03*
X8401410Y4560900D03*
X8559800Y4495800D03*
Y4572000D03*
X8426500Y4777960D03*
X8517040Y4735500D03*
X8617040D03*
X8509000Y5003800D03*
Y5308600D03*
X8483600Y6121400D03*
Y6299200D03*
Y7315200D03*
Y7137400D03*
X8432800Y8356600D03*
X8559800D03*
X8432800Y8229600D03*
X8559800D03*
X8432800Y8610600D03*
X8559800D03*
Y8483600D03*
X8432800D03*
X8509000Y9220200D03*
Y9296400D03*
X8667600Y158600D03*
X8731200Y1879600D03*
Y2279600D03*
X8799130Y2541570D03*
X8728420Y2470860D03*
X8657710Y2400150D03*
X8869840Y2612280D03*
X8812100Y2820410D03*
X8751500Y2740860D03*
X8680790Y2670150D03*
X8812100Y3120410D03*
Y3020410D03*
Y2920410D03*
X8704390Y3344840D03*
X8801210Y3319810D03*
X8812100Y3220410D03*
X8750020Y3585600D03*
X8668870Y3527170D03*
X8650250Y3428920D03*
X8812100Y3864000D03*
Y3764000D03*
Y3664000D03*
X8661400Y4140200D03*
X8763000Y3962400D03*
Y4114800D03*
X8661400Y4216400D03*
X8803500Y4357070D03*
X8763000Y4241800D03*
X8661400Y4495800D03*
Y4572000D03*
X8790650Y4667810D03*
X8861360Y4597100D03*
X8763020Y4448520D03*
X8717040Y4735500D03*
X8788400Y5003800D03*
Y5308600D03*
X8661400Y7696200D03*
Y8001000D03*
X8686800Y8229600D03*
Y8356600D03*
Y8483600D03*
Y8610600D03*
X8839200Y9220200D03*
Y9296400D03*
Y9575800D03*
X8712200D03*
Y9702800D03*
X8839200D03*
Y9829800D03*
X8712200D03*
X9131200Y1879600D03*
Y2279600D03*
X8986700Y2771710D03*
X8940550Y2682990D03*
X8986700Y3071710D03*
Y2971710D03*
Y2871710D03*
X8986150Y3371710D03*
X8986700Y3271710D03*
Y3171710D03*
Y3564000D03*
X8958930Y3467930D03*
X8986700Y3864000D03*
Y3764000D03*
Y3664000D03*
X9118600Y3860800D03*
X8966200Y4394200D03*
Y4470400D03*
X8932070Y4526390D03*
X9118600Y4572000D03*
X9067800Y4775200D03*
X8985200Y5727600D03*
Y6127600D03*
X8909000Y6794400D03*
Y7194400D03*
X8966200Y7696200D03*
Y8001000D03*
Y9575800D03*
Y9829800D03*
Y9702800D03*
X9417000Y914400D03*
Y1314400D03*
X9194800Y2692400D03*
Y2997200D03*
X9220200Y3860800D03*
X9296400Y3962400D03*
X9169400Y4521200D03*
X9220200Y4572000D03*
X9398000Y4648200D03*
X9271000Y5257800D03*
X9245600Y6121400D03*
Y6299200D03*
Y7137400D03*
Y7315200D03*
X9601200Y1879600D03*
Y2184400D03*
Y2463800D03*
Y2768600D03*
Y3073400D03*
Y3378200D03*
X9474200Y3962400D03*
X9652000Y3937000D03*
X9474200Y4191000D03*
X9652000Y4318000D03*
X9525000Y5003800D03*
X9499600Y6121400D03*
Y6299200D03*
Y7137400D03*
Y7315200D03*
X9817000Y914400D03*
Y1314400D03*
X9925000Y1689000D03*
Y2089000D03*
Y2501800D03*
Y2882800D03*
Y3282800D03*
Y3695600D03*
Y4095600D03*
Y4457600D03*
Y4857600D03*
Y5295800D03*
Y5695800D03*
Y6108600D03*
Y6508600D03*
Y6870600D03*
Y7270600D03*
M02*
