G04 ================== begin FILE IDENTIFICATION RECORD ==================*
G04 Layout Name:  C:/Jeonghyun/Lab/EEM2TTL3/allegro/eem2ttl.brd*
G04 Film Name:    Pastemask_TOP*
G04 File Format:  Gerber RS274X*
G04 File Origin:  Cadence Allegro 23.1-S003*
G04 Origin Date:  Sat Jul 27 12:53:41 2024*
G04 *
G04 Layer:  VIA CLASS/PASTEMASK_TOP*
G04 Layer:  PIN/PASTEMASK_TOP*
G04 Layer:  PACKAGE GEOMETRY/PASTEMASK_TOP*
G04 Layer:  DRC ERROR CLASS/PASTEMASK_TOP*
G04 *
G04 Offset:    (0.0000 0.0000)*
G04 Mirror:    No*
G04 Mode:      Positive*
G04 Rotation:  0*
G04 FullContactRelief:  No*
G04 UndefLineWidth:     0.0500*
G04 ================== end FILE IDENTIFICATION RECORD ====================*
%FSLAX25Y25*MOMM*%
%IR0*IPPOS*OFA0.00000B0.00000*MIA0B0*SFA1.00000B1.00000*%
%ADD21R,1.8199X1.1999*%
%ADD19R,1.1501X.5999*%
%AMMACRO17*
4,1,44,-.3975,.13,
.3975,.13,
.403133,.129518,
.408597,.128066,
.413726,.125687,
.418364,.122453,
.42237,.118463,
.425622,.113839,
.428022,.108719,
.429496,.103261,
.43,.09763,
.43,.0975,
.43,-.0975,
.429518,-.103133,
.428066,-.108597,
.425687,-.113726,
.422453,-.118364,
.418463,-.12237,
.413839,-.125622,
.408719,-.128022,
.403261,-.129496,
.39763,-.13,
.3975,-.13,
-.3975,-.13,
-.403133,-.129518,
-.408597,-.128066,
-.413726,-.125687,
-.418364,-.122453,
-.42237,-.118463,
-.425622,-.113839,
-.428022,-.108719,
-.429496,-.103261,
-.43,-.09763,
-.43,-.0975,
-.43,.0975,
-.429518,.103133,
-.428066,.108597,
-.425687,.113726,
-.422453,.118364,
-.418463,.12237,
-.413839,.125622,
-.408719,.128022,
-.403261,.129496,
-.39763,.13,
-.3975,.13,
0.0*
%
%ADD17MACRO17*%
%AMMACRO16*
4,1,44,-.13,-.3975,
-.13,.3975,
-.129518,.403133,
-.128066,.408597,
-.125687,.413726,
-.122453,.418364,
-.118463,.42237,
-.113839,.425622,
-.108719,.428022,
-.103261,.429496,
-.09763,.43,
-.0975,.43,
.0975,.43,
.103133,.429518,
.108597,.428066,
.113726,.425687,
.118364,.422453,
.12237,.418463,
.125622,.413839,
.128022,.408719,
.129496,.403261,
.13,.39763,
.13,.3975,
.13,-.3975,
.129518,-.403133,
.128066,-.408597,
.125687,-.413726,
.122453,-.418364,
.118463,-.42237,
.113839,-.425622,
.108719,-.428022,
.103261,-.429496,
.09763,-.43,
.0975,-.43,
-.0975,-.43,
-.103133,-.429518,
-.108597,-.428066,
-.113726,-.425687,
-.118364,-.422453,
-.12237,-.418463,
-.125622,-.413839,
-.128022,-.408719,
-.129496,-.403261,
-.13,-.39763,
-.13,-.3975,
0.0*
%
%ADD16MACRO16*%
%ADD18R,2.4X3.2*%
%ADD20R,2.72X1.22*%
%ADD13R,.25X.35*%
%ADD12R,1.07X2.77*%
%ADD15R,.5001X.475*%
%ADD10R,.475X.5001*%
%ADD11R,.54X.5999*%
%ADD14R,.5999X.54*%
G75*
%LPD*%
G75*
G36*
G01X3254000Y6556000D02*
X3092000D01*
Y6394000D01*
X3254000D01*
Y6556000D01*
G37*
G36*
G01Y6814000D02*
X3092000D01*
Y6652000D01*
X3254000D01*
Y6814000D01*
G37*
G36*
G01X3512000Y6556000D02*
X3350000D01*
Y6394000D01*
X3512000D01*
Y6556000D01*
G37*
G36*
G01Y6814000D02*
X3350000D01*
Y6652000D01*
X3512000D01*
Y6814000D01*
G37*
G36*
G01X6810000Y6556000D02*
X6648000D01*
Y6394000D01*
X6810000D01*
Y6556000D01*
G37*
G36*
G01Y6814000D02*
X6648000D01*
Y6652000D01*
X6810000D01*
Y6814000D01*
G37*
G36*
G01X7068000Y6556000D02*
X6906000D01*
Y6394000D01*
X7068000D01*
Y6556000D01*
G37*
G36*
G01Y6814000D02*
X6906000D01*
Y6652000D01*
X7068000D01*
Y6814000D01*
G37*
G54D10*
X431400Y6121400D03*
Y7137400D03*
X533800Y6121400D03*
X685400D03*
X533800Y7137400D03*
X685400D03*
X787800Y6121400D03*
Y7137400D03*
X1447400Y6121400D03*
Y7137400D03*
X1549800Y6121400D03*
X1701400D03*
X1549800Y7137400D03*
X1701400D03*
X1803800Y6121400D03*
Y7137400D03*
X2845200Y1270000D03*
X2742800D03*
X2845200Y1524000D03*
X2742800D03*
X3098400Y7086600D03*
X3200800D03*
X3403200D03*
X3505600D03*
X4877200Y1270000D03*
X4774800D03*
X4877200Y1524000D03*
X4774800D03*
X4922920Y6101080D03*
X4820520D03*
X6654400Y7086600D03*
X6756800D03*
X6909200Y1270000D03*
X6806800D03*
X6909200Y1524000D03*
X6806800D03*
X6959200Y7086600D03*
X7061600D03*
X7568800Y9575800D03*
X7671200D03*
X8305400Y6121400D03*
Y7137400D03*
X8559400Y6121400D03*
X8407800D03*
X8559400Y7137400D03*
X8407800D03*
X8838800Y1270000D03*
Y1524000D03*
X8661800Y6121400D03*
Y7137400D03*
X8941200Y1270000D03*
Y1524000D03*
X9321400Y6121400D03*
Y7137400D03*
X9423800Y6121400D03*
X9575400D03*
X9423800Y7137400D03*
X9575400D03*
X9677800Y6121400D03*
Y7137400D03*
G54D11*
X439600Y6299200D03*
Y7340600D03*
X525600Y6299200D03*
X693600D03*
X525600Y7340600D03*
X693600D03*
X779600Y6299200D03*
Y7340600D03*
X1201600Y4419600D03*
Y4292600D03*
X1287600Y4419600D03*
Y4292600D03*
X1541600Y6299200D03*
X1455600D03*
X1541600Y7340600D03*
X1455600D03*
X1709600Y4419600D03*
X1795600D03*
X1709600Y4292600D03*
X1795600D03*
Y6299200D03*
X1709600D03*
X1795600Y7340600D03*
X1709600D03*
X3487600Y4419600D03*
X3573600D03*
X3487600Y4292600D03*
X3573600D03*
X3995600Y4419600D03*
X4081600D03*
X3995600Y4292600D03*
X4081600D03*
X4919800Y6248400D03*
X4833800D03*
X6281600Y4419600D03*
X6367600D03*
X6281600Y4292600D03*
X6367600D03*
X6789600D03*
Y4419600D03*
X6875600Y4292600D03*
Y4419600D03*
X8313600Y6299200D03*
Y7315200D03*
X8567600Y4419600D03*
Y4292600D03*
Y6299200D03*
X8399600D03*
X8567600Y7315200D03*
X8399600D03*
X8653600Y4419600D03*
Y4292600D03*
Y6299200D03*
Y7315200D03*
X9075600Y4419600D03*
Y4292600D03*
X9161600Y4419600D03*
Y4292600D03*
X9415600Y6299200D03*
X9329600D03*
X9415600Y7315200D03*
X9329600D03*
X9669600Y6299200D03*
X9583600D03*
X9669600Y7315200D03*
X9583600D03*
G54D20*
X8509000Y8831200D03*
Y9101200D03*
X8839200Y8831200D03*
Y9101200D03*
G54D12*
X720600Y4064000D03*
X1006600D03*
X1533400D03*
X1819400D03*
X3006600D03*
X3292600D03*
X3819400D03*
X4105400D03*
X5800600D03*
X6086600D03*
X6613400D03*
X6899400D03*
X8086600D03*
X8372600D03*
X8899400D03*
X9185400D03*
G54D21*
X8356600Y9277400D03*
Y9569400D03*
G54D13*
X1116800Y4262600D03*
X1066800D03*
X1016800D03*
Y4322600D03*
X1066800D03*
X1116800D03*
X1524800Y4262600D03*
Y4322600D03*
X1624800Y4262600D03*
X1574800D03*
Y4322600D03*
X1624800D03*
X3352800Y4262600D03*
X3302800D03*
Y4322600D03*
X3352800D03*
X3402800Y4262600D03*
Y4322600D03*
X3860800Y4262600D03*
X3810800D03*
Y4322600D03*
X3860800D03*
X3910800Y4262600D03*
Y4322600D03*
X6196800Y4262600D03*
X6146800D03*
X6096800D03*
Y4322600D03*
X6146800D03*
X6196800D03*
X6704800Y4262600D03*
X6654800D03*
X6604800D03*
Y4322600D03*
X6654800D03*
X6704800D03*
X8482800Y4262600D03*
X8432800D03*
X8382800D03*
Y4322600D03*
X8432800D03*
X8482800D03*
X8990800Y4262600D03*
X8940800D03*
X8890800D03*
Y4322600D03*
X8940800D03*
X8990800D03*
G54D14*
X2819400Y6697800D03*
Y6611800D03*
X2971800Y7069000D03*
Y7155000D03*
X3632200Y7069000D03*
Y7155000D03*
X3784600Y6697800D03*
Y6611800D03*
X6375400Y6697800D03*
Y6611800D03*
X6527800Y7069000D03*
Y7155000D03*
X7188200Y7069000D03*
Y7155000D03*
X7340600Y6697800D03*
Y6611800D03*
X7848600Y9151800D03*
Y9237800D03*
G54D15*
X2819400Y6806800D03*
Y6909200D03*
X3784600D03*
Y6806800D03*
X6375400D03*
Y6909200D03*
X7340600D03*
Y6806800D03*
X7696200Y9346800D03*
Y9449200D03*
G54D16*
X3077000Y6260500D03*
X3027000D03*
Y6947500D03*
X3077000D03*
X3327000Y6260500D03*
X3277000D03*
X3227000D03*
X3177000D03*
X3127000D03*
X3177000Y6947500D03*
X3227000D03*
X3277000D03*
X3327000D03*
X3127000D03*
X3577000Y6260500D03*
X3527000D03*
X3477000D03*
X3427000D03*
X3377000D03*
Y6947500D03*
X3427000D03*
X3477000D03*
X3527000D03*
X3577000D03*
X6733000Y6260500D03*
X6683000D03*
X6633000D03*
X6583000D03*
X6733000Y6947500D03*
X6583000D03*
X6633000D03*
X6683000D03*
X6983000Y6260500D03*
X6933000D03*
X6883000D03*
X6833000D03*
X6783000D03*
Y6947500D03*
X6833000D03*
X6883000D03*
X6933000D03*
X6983000D03*
X7133000Y6260500D03*
X7083000D03*
X7033000D03*
Y6947500D03*
X7083000D03*
X7133000D03*
G54D17*
X2958500Y6329000D03*
Y6379000D03*
Y6429000D03*
Y6479000D03*
Y6529000D03*
Y6579000D03*
Y6629000D03*
Y6679000D03*
Y6729000D03*
Y6779000D03*
Y6829000D03*
Y6879000D03*
X3645500Y6479000D03*
Y6429000D03*
Y6379000D03*
Y6329000D03*
Y6779000D03*
Y6729000D03*
Y6679000D03*
Y6629000D03*
Y6579000D03*
Y6529000D03*
Y6879000D03*
Y6829000D03*
X6514500Y6329000D03*
Y6379000D03*
Y6429000D03*
Y6479000D03*
Y6529000D03*
Y6579000D03*
Y6629000D03*
Y6679000D03*
Y6729000D03*
Y6779000D03*
Y6829000D03*
Y6879000D03*
X7201500Y6479000D03*
Y6429000D03*
Y6379000D03*
Y6329000D03*
Y6779000D03*
Y6729000D03*
Y6679000D03*
Y6629000D03*
Y6579000D03*
Y6529000D03*
Y6879000D03*
Y6829000D03*
G54D18*
X7497800Y8407400D03*
X8097800D03*
G54D19*
X7871000Y9379200D03*
Y9474200D03*
Y9569200D03*
X8131000Y9379200D03*
Y9569200D03*
Y9474200D03*
M02*
