G04 ================== begin FILE IDENTIFICATION RECORD ==================*
G04 Layout Name:  C:/Jeonghyun/Lab/EEM2TTL3/allegro/eem2ttl.brd*
G04 Film Name:    Silkscreen_TOP*
G04 File Format:  Gerber RS274X*
G04 File Origin:  Cadence Allegro 23.1-S003*
G04 Origin Date:  Sat Jul 27 12:53:41 2024*
G04 *
G04 Layer:  USER PART NUMBER/SILKSCREEN_TOP*
G04 Layer:  TOLERANCE/SILKSCREEN_TOP*
G04 Layer:  REF DES/SILKSCREEN_TOP*
G04 Layer:  PACKAGE GEOMETRY/SILKSCREEN_TOP*
G04 Layer:  DEVICE TYPE/SILKSCREEN_TOP*
G04 Layer:  COMPONENT VALUE/SILKSCREEN_TOP*
G04 Layer:  BOARD GEOMETRY/SILKSCREEN_TOP*
G04 *
G04 Offset:    (0.0000 0.0000)*
G04 Mirror:    No*
G04 Mode:      Positive*
G04 Rotation:  0*
G04 FullContactRelief:  No*
G04 UndefLineWidth:     0.0500*
G04 ================== end FILE IDENTIFICATION RECORD ====================*
%FSLAX25Y25*MOMM*%
%IR0*IPPOS*OFA0.00000B0.00000*MIA0B0*SFA1.00000B1.00000*%
%ADD10C,.1*%
%ADD11C,.2*%
%ADD12C,.3*%
%ADD13C,.127*%
%ADD14C,.05*%
G75*
%LPD*%
G75*
G36*
G01X1149600Y4357600D02*
G03I-12800J0D01*
G37*
G36*
G01X1657600D02*
G03I-12800J0D01*
G37*
G36*
G01X2540690Y262000D02*
G03I-46690J0D01*
G37*
G36*
G01X2844800Y9728200D02*
G02X2895600I25400J12700D01*
G01X2844800D01*
G37*
G36*
G01X3435600Y4357600D02*
G03I-12800J0D01*
G37*
G36*
G01X3943600D02*
G03I-12800J0D01*
G37*
G36*
G01X4572690Y262000D02*
G03I-46690J0D01*
G37*
G36*
G01X5156200Y9728200D02*
G03X5003800I-76200J-6350D01*
G01X5156200D01*
G37*
G36*
G01X6229600Y4357600D02*
G03I-12800J0D01*
G37*
G36*
G01X6604690Y262000D02*
G03I-46690J0D01*
G37*
G36*
G01X6737600Y4357600D02*
G03I-12800J0D01*
G37*
G36*
G01X7239000Y9728200D02*
G02X7315200I38100J12700D01*
G01X7239000D01*
G37*
G36*
G01X8251000Y9174200D02*
G03I-50000J0D01*
G37*
G36*
G01X8636690Y262000D02*
G03I-46690J0D01*
G37*
G36*
G01X8515600Y4357600D02*
G03I-12800J0D01*
G37*
G36*
G01X9023600D02*
G03I-12800J0D01*
G37*
G54D10*
G01X7351000Y8841500D02*
X2809000D01*
G01D02*
Y9700500D01*
G54D11*
G01D02*
Y9144000D01*
G01X7351000Y9700500D02*
X2809000D01*
G01X3302000Y8841500D02*
X7351000D01*
G01X3587000Y7051500D02*
G03I-10000J0D01*
G01D02*
G03I-10000J0D01*
G01X7143000D02*
G03I-10000J0D01*
G01D02*
G03I-10000J0D01*
G01X7351000Y8841500D02*
Y9700500D01*
G01X8188500Y9314200D02*
X8073500D01*
G01X8038500Y9619200D02*
Y9329200D01*
G01X7963500D02*
Y9619200D01*
G01X8038500Y9329200D02*
X7963500D01*
G01Y9619200D02*
X8038500D01*
G54D12*
G01X9944900Y8576000D02*
G03Y8586000I0J5000D01*
G01D02*
G03Y8576000I0J-5000D01*
G54D13*
G01X535100Y6237700D02*
X430100D01*
G01Y6360700D02*
X535100D01*
G01Y7279100D02*
X430100D01*
G01Y7402100D02*
X535100D01*
G01X789100Y6237700D02*
X684100D01*
G01Y6360700D02*
X789100D01*
G01Y7279100D02*
X684100D01*
G01Y7402100D02*
X789100D01*
G01X806600Y3926000D02*
X920600D01*
G01X806600Y4202000D02*
X920600D01*
G01X1297100Y4358100D02*
X1192100D01*
G01Y4354100D02*
X1297100D01*
G01Y4231100D02*
X1192100D01*
G01Y4481100D02*
X1297100D01*
G01X1551100Y6237700D02*
X1446100D01*
G01Y6360700D02*
X1551100D01*
G01Y7279100D02*
X1446100D01*
G01Y7402100D02*
X1551100D01*
G01X1733400Y3926000D02*
X1619400D01*
G01X1805100Y4358100D02*
X1700100D01*
G01Y4354100D02*
X1805100D01*
G01Y4231100D02*
X1700100D01*
G01X1733400Y4202000D02*
X1619400D01*
G01X1700100Y4481100D02*
X1805100D01*
G01Y6237700D02*
X1700100D01*
G01Y6360700D02*
X1805100D01*
G01Y7279100D02*
X1700100D01*
G01Y7402100D02*
X1805100D01*
G01X2757900Y6602300D02*
Y6707300D01*
G01X2952000Y6284000D02*
Y6254000D01*
X2982000D01*
G01X2880900Y6707300D02*
Y6602300D01*
G01X2952000Y6924000D02*
Y6954000D01*
X2982000D01*
G01X2910300Y7059500D02*
Y7164500D01*
G01X3033300D02*
Y7059500D01*
G01X3092600Y3926000D02*
X3206600D01*
G01X3092600Y4202000D02*
X3206600D01*
G01X3583100Y4358100D02*
X3478100D01*
G01Y4354100D02*
X3583100D01*
G01Y4231100D02*
X3478100D01*
G01Y4481100D02*
X3583100D01*
G01X3570700Y7059500D02*
Y7164500D01*
G01X3652000Y6284000D02*
Y6254000D01*
X3622000D01*
G01X3846100Y6707300D02*
Y6602300D01*
G01X3723100D02*
Y6707300D01*
G01X3652000Y6924000D02*
Y6954000D01*
X3622000D01*
G01X3693700Y7164500D02*
Y7059500D01*
G01X4019400Y3926000D02*
X3905400D01*
G01X4091100Y4358100D02*
X3986100D01*
G01Y4354100D02*
X4091100D01*
G01Y4231100D02*
X3986100D01*
G01X4019400Y4202000D02*
X3905400D01*
G01X3986100Y4481100D02*
X4091100D01*
G01X4929300Y6186900D02*
X4824300D01*
G01Y6309900D02*
X4929300D01*
G01X5886600Y3926000D02*
X6000600D01*
G01X5886600Y4202000D02*
X6000600D01*
G01X6377100Y4358100D02*
X6272100D01*
G01Y4354100D02*
X6377100D01*
G01Y4231100D02*
X6272100D01*
G01Y4481100D02*
X6377100D01*
G01X6436900Y6707300D02*
Y6602300D01*
G01X6313900D02*
Y6707300D01*
G01X6466300Y7059500D02*
Y7164500D01*
G01X6813400Y3926000D02*
X6699400D01*
G01X6813400Y4202000D02*
X6699400D01*
G01X6508000Y6284000D02*
Y6254000D01*
X6538000D01*
G01X6508000Y6924000D02*
Y6954000D01*
X6538000D01*
G01X6589300Y7164500D02*
Y7059500D01*
G01X6780100Y4354100D02*
X6885100D01*
G01Y4231100D02*
X6780100D01*
G01X6885100Y4358100D02*
X6780100D01*
G01Y4481100D02*
X6885100D01*
G01X7208000Y6284000D02*
Y6254000D01*
X7178000D01*
G01X7279100Y6602300D02*
Y6707300D01*
G01X7208000Y6924000D02*
Y6954000D01*
X7178000D01*
G01X7126700Y7059500D02*
Y7164500D01*
G01X7249700D02*
Y7059500D01*
G01X7402100Y6707300D02*
Y6602300D01*
G01X7787100Y9142300D02*
Y9247300D01*
G01X7910100D02*
Y9142300D01*
G01X8172600Y3926000D02*
X8286600D01*
G01X8172600Y4202000D02*
X8286600D01*
G01X8409100Y6237700D02*
X8304100D01*
G01Y6360700D02*
X8409100D01*
G01Y7253700D02*
X8304100D01*
G01Y7376700D02*
X8409100D01*
G01X8266600Y9477400D02*
Y9369400D01*
G01X8663100Y4358100D02*
X8558100D01*
G01Y4354100D02*
X8663100D01*
G01Y4231100D02*
X8558100D01*
G01Y4481100D02*
X8663100D01*
G01Y6237700D02*
X8558100D01*
G01Y6360700D02*
X8663100D01*
G01Y7253700D02*
X8558100D01*
G01Y7376700D02*
X8663100D01*
G01X8446600Y9477400D02*
Y9369400D01*
G01X9099400Y3926000D02*
X8985400D01*
G01X9171100Y4358100D02*
X9066100D01*
G01Y4354100D02*
X9171100D01*
G01Y4231100D02*
X9066100D01*
G01X9099400Y4202000D02*
X8985400D01*
G01X9066100Y4481100D02*
X9171100D01*
G01X9425100Y6237700D02*
X9320100D01*
G01Y6360700D02*
X9425100D01*
G01Y7253700D02*
X9320100D01*
G01Y7376700D02*
X9425100D01*
G01X9679100Y6237700D02*
X9574100D01*
G01Y6360700D02*
X9679100D01*
G01Y7253700D02*
X9574100D01*
G01Y7376700D02*
X9679100D01*
G54D14*
G01X387600Y6118900D02*
G03Y6123900I0J2500D01*
G01D02*
G03Y6118900I0J-2500D01*
G01Y7134900D02*
G03Y7139900I0J2500D01*
G01D02*
G03Y7134900I0J-2500D01*
G01X641600Y6118900D02*
G03Y6123900I0J2500D01*
G01D02*
G03Y6118900I0J-2500D01*
G01Y7134900D02*
G03Y7139900I0J2500D01*
G01D02*
G03Y7134900I0J-2500D01*
G01X1403600Y6118900D02*
G03Y6123900I0J2500D01*
G01D02*
G03Y6118900I0J-2500D01*
G01Y7134900D02*
G03Y7139900I0J2500D01*
G01D02*
G03Y7134900I0J-2500D01*
G01X1657600Y6118900D02*
G03Y6123900I0J2500D01*
G01D02*
G03Y6118900I0J-2500D01*
G01Y7134900D02*
G03Y7139900I0J2500D01*
G01D02*
G03Y7134900I0J-2500D01*
G01X2579000Y1027000D02*
X3009000D01*
Y127000D01*
X2579000D01*
Y1027000D01*
G01X7376000Y8816500D02*
X2784000D01*
G01D02*
Y9725500D01*
G01X3429000Y9728200D02*
Y9644000D01*
X2870200D01*
Y8890000D01*
X4826000D01*
Y8813800D01*
G01X3225800D02*
X3302000Y8890000D01*
X3378200Y8813800D01*
G01X3556000Y8890000D02*
Y8839200D01*
G01X3479800Y8813800D02*
Y8839200D01*
G01X3886200D02*
Y8813800D01*
G01X3429000Y9644000D02*
Y9575800D01*
X3479800D01*
G01X3810000Y8890000D02*
Y8839200D01*
G01Y9652000D02*
X6350000D01*
Y9728200D01*
G01X3810000Y9575800D02*
Y9728200D01*
G01X4611000Y1027000D02*
X5041000D01*
Y127000D01*
X4611000D01*
Y1027000D01*
G01X4776720Y6098580D02*
G03Y6103580I0J2500D01*
G01D02*
G03Y6098580I0J-2500D01*
G01X4826000Y8890000D02*
Y8966200D01*
X5334000D01*
Y8890000D01*
G01X6756400Y9652000D02*
X7289800D01*
Y8890000D01*
X5334000D01*
Y8813800D01*
G01X6350000Y9575800D02*
Y9652000D01*
G01X6643000Y1027000D02*
X7073000D01*
Y127000D01*
X6643000D01*
Y1027000D01*
G01X6604000Y8890000D02*
Y8839200D01*
G01X6553200Y8813800D02*
Y8839200D01*
X6934200D01*
Y8813800D01*
G01X6756400Y9728200D02*
Y9575800D01*
X6705600D01*
G01X6858000Y8890000D02*
Y8839200D01*
G01X8147800Y8199300D02*
Y8077400D01*
X7447800D01*
Y8199300D01*
G01Y8615500D02*
Y8737400D01*
X8147800D01*
Y8615500D01*
G01X7698700Y9303000D02*
G03X7693700I-2500J0D01*
G01D02*
G03X7698700I2500J0D01*
G01X7715000Y9578300D02*
G03Y9573300I0J-2500D01*
G01D02*
G03Y9578300I0J2500D01*
G01X8261600Y6118900D02*
G03Y6123900I0J2500D01*
G01D02*
G03Y6118900I0J-2500D01*
G01Y7134900D02*
G03Y7139900I0J2500D01*
G01D02*
G03Y7134900I0J-2500D01*
G01X8515600Y6118900D02*
G03Y6123900I0J2500D01*
G01D02*
G03Y6118900I0J-2500D01*
G01Y7134900D02*
G03Y7139900I0J2500D01*
G01D02*
G03Y7134900I0J-2500D01*
G01X8675000Y1027000D02*
X9105000D01*
Y127000D01*
X8675000D01*
Y1027000D01*
G01X9277600Y6118900D02*
G03Y6123900I0J2500D01*
G01D02*
G03Y6118900I0J-2500D01*
G01Y7134900D02*
G03Y7139900I0J2500D01*
G01D02*
G03Y7134900I0J-2500D01*
G01X9677400Y8636000D02*
X9927400D01*
Y9986000D01*
X9212400D01*
Y8636000D01*
X9677400D01*
G01X9531600Y6118900D02*
G03Y6123900I0J2500D01*
G01D02*
G03Y6118900I0J-2500D01*
G01Y7134900D02*
G03Y7139900I0J2500D01*
G01D02*
G03Y7134900I0J-2500D01*
G01X330200Y3546520D02*
X170180D01*
Y3586310D01*
X178180Y3602230D01*
X188850Y3614170D01*
X204850Y3624120D01*
X223520Y3632070D01*
X250190Y3634060D01*
X276860Y3632070D01*
X295530Y3624120D01*
X311530Y3614170D01*
X322200Y3602230D01*
X330200Y3586310D01*
Y3546520D01*
G01X170180Y3726430D02*
Y3774180D01*
G01Y3750310D02*
X330200D01*
G01Y3726430D02*
Y3774180D01*
G01X308870Y3868550D02*
X322200Y3884460D01*
X330200Y3902370D01*
Y3918290D01*
X322200Y3934210D01*
X308870Y3946150D01*
X290190Y3952110D01*
X271530Y3948130D01*
X255530Y3938180D01*
X244850Y3920280D01*
X239520Y3896400D01*
X228860Y3882480D01*
X210190Y3876500D01*
X191520Y3880490D01*
X178180Y3890430D01*
X170180Y3904360D01*
Y3918290D01*
X175510Y3932220D01*
X188850Y3944160D01*
G01X152400Y4826000D02*
Y3530600D01*
X1346200D01*
Y4826000D01*
X152400D01*
G01X330200Y4265080D02*
Y4185500D01*
X170180D01*
Y4265080D01*
G01X247520Y4233250D02*
Y4185500D01*
G01X330200Y4339550D02*
X170180D01*
X330200Y4431070D01*
X170180D01*
G01X76200Y6400800D02*
Y5435600D01*
X1066800D01*
Y6400800D01*
X76200D01*
G01X161290Y5994400D02*
X145370Y5997070D01*
X131450Y6007730D01*
X119510Y6023740D01*
X111550Y6042410D01*
X107570Y6063740D01*
Y6085080D01*
X111550Y6106410D01*
X119510Y6125080D01*
X131450Y6141080D01*
X145370Y6151750D01*
X161290Y6154420D01*
X177210Y6151750D01*
X191130Y6141080D01*
X203070Y6125080D01*
X211030Y6106410D01*
X215010Y6085080D01*
Y6063740D01*
X211030Y6042410D01*
X203070Y6023740D01*
X191130Y6007730D01*
X177210Y5997070D01*
X161290Y5994400D01*
G01X123490Y6356350D02*
X135420Y6372350D01*
X149350Y6380350D01*
X165270Y6383020D01*
X185170Y6377690D01*
X199090Y6364350D01*
X203070Y6348350D01*
X201080Y6332340D01*
X193120Y6319010D01*
X153330Y6292340D01*
X135420Y6273670D01*
X123490Y6247000D01*
X119510Y6223000D01*
X203070D01*
G01X76200Y7416800D02*
Y6451600D01*
X1066800D01*
Y7416800D01*
X76200D01*
G01X161290Y7010400D02*
X145370Y7013070D01*
X131450Y7023730D01*
X119510Y7039740D01*
X111550Y7058410D01*
X107570Y7079740D01*
Y7101080D01*
X111550Y7122410D01*
X119510Y7141080D01*
X131450Y7157080D01*
X145370Y7167750D01*
X161290Y7170420D01*
X177210Y7167750D01*
X191130Y7157080D01*
X203070Y7141080D01*
X211030Y7122410D01*
X215010Y7101080D01*
Y7079740D01*
X211030Y7058410D01*
X203070Y7039740D01*
X191130Y7023730D01*
X177210Y7013070D01*
X161290Y7010400D01*
G01Y7213600D02*
Y7373620D01*
X137410Y7341620D01*
G01Y7213600D02*
X185160D01*
G01X248920Y9125370D02*
X259080Y9135530D01*
X266700Y9152460D01*
X271780Y9176180D01*
X266700Y9196490D01*
X256540Y9210040D01*
X238760Y9220200D01*
X170180D01*
Y9017000D01*
X254000D01*
X271780Y9030540D01*
X281940Y9050870D01*
X287020Y9074570D01*
X281940Y9098280D01*
X266700Y9118600D01*
X248920Y9125370D01*
X170180D01*
G01X431800Y9017000D02*
X416560Y9020390D01*
X401320Y9033930D01*
X391160Y9057640D01*
X386080Y9084730D01*
X391160Y9111830D01*
X401320Y9135530D01*
X416560Y9149080D01*
X431800Y9152460D01*
X447040Y9149080D01*
X462280Y9135530D01*
X472440Y9111830D01*
X474980Y9084730D01*
X472440Y9057640D01*
X462280Y9033930D01*
X447040Y9020390D01*
X431800Y9017000D01*
G01X680720D02*
Y9152460D01*
G01Y9128760D02*
X670560Y9142300D01*
X655320Y9149080D01*
X637540Y9152460D01*
X619760Y9145690D01*
X604520Y9132150D01*
X594360Y9111830D01*
X589280Y9084730D01*
X594360Y9057640D01*
X604520Y9037320D01*
X619760Y9023770D01*
X637540Y9017000D01*
X655320Y9020390D01*
X670560Y9030540D01*
X680720Y9044090D01*
G01X802640Y9017000D02*
Y9152460D01*
G01Y9125370D02*
X815340Y9138920D01*
X828040Y9149080D01*
X845820Y9152460D01*
X858520Y9149080D01*
X873760Y9138920D01*
G01X1087120Y9220200D02*
Y9017000D01*
G01Y9047470D02*
X1076960Y9030540D01*
X1061720Y9020390D01*
X1043940Y9017000D01*
X1023620Y9023770D01*
X1008380Y9040700D01*
X998220Y9061020D01*
X995680Y9084730D01*
X998220Y9108440D01*
X1008380Y9128760D01*
X1023620Y9145690D01*
X1043940Y9152460D01*
X1061720Y9149080D01*
X1074420Y9142300D01*
X1087120Y9128760D01*
G01X1402080Y9152460D02*
X1447800Y9017000D01*
X1493520Y9152460D01*
G01X1651000Y9017000D02*
Y9220200D01*
X1620520Y9179560D01*
G01Y9017000D02*
X1681480D01*
G01X1778000Y8949270D02*
X1930400D01*
G01X2057400Y9220200D02*
X2037080Y9213430D01*
X2021840Y9196490D01*
X2011680Y9176180D01*
X2004060Y9149080D01*
X2001520Y9118600D01*
X2004060Y9088120D01*
X2011680Y9061020D01*
X2021840Y9040700D01*
X2037080Y9023770D01*
X2057400Y9017000D01*
X2077720Y9023770D01*
X2092960Y9040700D01*
X2103120Y9061020D01*
X2110740Y9088120D01*
X2113280Y9118600D01*
X2110740Y9149080D01*
X2103120Y9176180D01*
X2092960Y9196490D01*
X2077720Y9213430D01*
X2057400Y9220200D01*
G01X279400Y9321800D02*
X177800D01*
Y9525000D01*
X279400D01*
G01X238760Y9426790D02*
X177800D01*
G01X482600Y9321800D02*
X381000D01*
Y9525000D01*
X482600D01*
G01X441960Y9426790D02*
X381000D01*
G01X568960Y9321800D02*
Y9525000D01*
X635000Y9355670D01*
X701040Y9525000D01*
Y9321800D01*
G01X789940Y9491130D02*
X805180Y9511450D01*
X822960Y9521610D01*
X843280Y9525000D01*
X868680Y9518230D01*
X886460Y9501290D01*
X891540Y9480980D01*
X889000Y9460650D01*
X878840Y9443720D01*
X828040Y9409850D01*
X805180Y9386150D01*
X789940Y9352270D01*
X784860Y9321800D01*
X891540D01*
G01X1041400Y9525000D02*
Y9321800D01*
G01X982980Y9525000D02*
X1099820D01*
G01X1244600D02*
Y9321800D01*
G01X1186180Y9525000D02*
X1303020D01*
G01X1397000D02*
Y9321800D01*
X1498600D01*
G01X228600Y9677400D02*
X208280Y9680790D01*
X190500Y9694330D01*
X175260Y9714650D01*
X165100Y9738360D01*
X160020Y9765450D01*
Y9792550D01*
X165100Y9819640D01*
X175260Y9843350D01*
X190500Y9863660D01*
X208280Y9877210D01*
X228600Y9880600D01*
X248920Y9877210D01*
X266700Y9863660D01*
X281940Y9843350D01*
X292100Y9819640D01*
X297180Y9792550D01*
Y9765450D01*
X292100Y9738360D01*
X281940Y9714650D01*
X266700Y9694330D01*
X248920Y9680790D01*
X228600Y9677400D01*
G01X248920Y9731590D02*
X279400Y9677400D01*
G01X388620Y9812860D02*
Y9718040D01*
X398780Y9694330D01*
X414020Y9680790D01*
X431800Y9677400D01*
X449580Y9680790D01*
X464820Y9694330D01*
X474980Y9718040D01*
G01Y9677400D02*
Y9812860D01*
G01X604520Y9880600D02*
X665480D01*
G01X635000D02*
Y9677400D01*
G01X604520D02*
X665480D01*
G01X838200D02*
X817880Y9680790D01*
X800100Y9694330D01*
X784860Y9714650D01*
X774700Y9738360D01*
X769620Y9765450D01*
Y9792550D01*
X774700Y9819640D01*
X784860Y9843350D01*
X800100Y9863660D01*
X817880Y9877210D01*
X838200Y9880600D01*
X858520Y9877210D01*
X876300Y9863660D01*
X891540Y9843350D01*
X901700Y9819640D01*
X906780Y9792550D01*
Y9765450D01*
X901700Y9738360D01*
X891540Y9714650D01*
X876300Y9694330D01*
X858520Y9680790D01*
X838200Y9677400D01*
G01X858520Y9731590D02*
X889000Y9677400D01*
G01X1097280Y9863660D02*
X1082040Y9873830D01*
X1064260Y9880600D01*
X1043940D01*
X1021080Y9870440D01*
X1003300Y9853510D01*
X990600Y9833180D01*
X980440Y9799320D01*
X977900Y9768840D01*
X982980Y9738360D01*
X990600Y9718040D01*
X1005840Y9697720D01*
X1023620Y9684170D01*
X1041400Y9677400D01*
X1059180D01*
X1076960Y9684170D01*
X1092200Y9694330D01*
X1104900Y9707870D01*
G01X1193800Y9880600D02*
Y9677400D01*
X1295400D01*
G01X489970Y4648200D02*
Y4808220D01*
X416350Y4693540D01*
X515830D01*
G01X965200Y5682150D02*
X1028700D01*
Y5656410D01*
G01X998010Y5665890D02*
Y5682150D01*
G01X973660Y5627620D02*
X968370Y5622210D01*
X965200Y5616110D01*
Y5610690D01*
X968370Y5605270D01*
X973660Y5601210D01*
X981080Y5599180D01*
X988480Y5600530D01*
X994830Y5603920D01*
X999070Y5610010D01*
X1001180Y5618140D01*
X1005420Y5622880D01*
X1012820Y5624920D01*
X1020230Y5623560D01*
X1025520Y5620170D01*
X1028700Y5615430D01*
Y5610690D01*
X1026580Y5605950D01*
X1021290Y5601880D01*
G01X965200Y5543970D02*
Y5571070D01*
X1028700D01*
Y5543970D01*
G01X998010Y5554810D02*
Y5571070D01*
G01X965200Y5517220D02*
X1028700D01*
X965200Y5486060D01*
X1028700D01*
G01X874010Y6154420D02*
X921760D01*
G01X897890D02*
Y5994400D01*
G01X874010D02*
X921760D01*
G01X965200Y6698150D02*
X1028700D01*
Y6672410D01*
G01X998010Y6681890D02*
Y6698150D01*
G01X973660Y6643620D02*
X968370Y6638210D01*
X965200Y6632110D01*
Y6626690D01*
X968370Y6621270D01*
X973660Y6617210D01*
X981080Y6615180D01*
X988480Y6616530D01*
X994830Y6619920D01*
X999070Y6626010D01*
X1001180Y6634140D01*
X1005420Y6638880D01*
X1012820Y6640920D01*
X1020230Y6639560D01*
X1025520Y6636170D01*
X1028700Y6631430D01*
Y6626690D01*
X1026580Y6621950D01*
X1021290Y6617880D01*
G01X965200Y6559970D02*
Y6587070D01*
X1028700D01*
Y6559970D01*
G01X998010Y6570810D02*
Y6587070D01*
G01X965200Y6533220D02*
X1028700D01*
X965200Y6502060D01*
X1028700D01*
G01X874010Y7170420D02*
X921760D01*
G01X897890D02*
Y7010400D01*
G01X874010D02*
X921760D01*
G01X1092200Y6400800D02*
Y5435600D01*
X2082800D01*
Y6400800D01*
X1092200D01*
G01X1202690Y6019800D02*
X1186770Y6022470D01*
X1172850Y6033130D01*
X1160910Y6049140D01*
X1152950Y6067810D01*
X1148970Y6089140D01*
Y6110480D01*
X1152950Y6131810D01*
X1160910Y6150480D01*
X1172850Y6166480D01*
X1186770Y6177150D01*
X1202690Y6179820D01*
X1218610Y6177150D01*
X1232530Y6166480D01*
X1244470Y6150480D01*
X1252430Y6131810D01*
X1256410Y6110480D01*
Y6089140D01*
X1252430Y6067810D01*
X1244470Y6049140D01*
X1232530Y6033130D01*
X1218610Y6022470D01*
X1202690Y6019800D01*
G01X1226570Y6223000D02*
Y6383020D01*
X1152950Y6268340D01*
X1252430D01*
G01X1092200Y7416800D02*
Y6451600D01*
X2082800D01*
Y7416800D01*
X1092200D01*
G01X1177290Y7010400D02*
X1161370Y7013070D01*
X1147450Y7023730D01*
X1135510Y7039740D01*
X1127550Y7058410D01*
X1123570Y7079740D01*
Y7101080D01*
X1127550Y7122410D01*
X1135510Y7141080D01*
X1147450Y7157080D01*
X1161370Y7167750D01*
X1177290Y7170420D01*
X1193210Y7167750D01*
X1207130Y7157080D01*
X1219070Y7141080D01*
X1227030Y7122410D01*
X1231010Y7101080D01*
Y7079740D01*
X1227030Y7058410D01*
X1219070Y7039740D01*
X1207130Y7023730D01*
X1193210Y7013070D01*
X1177290Y7010400D01*
G01X1133520Y7271000D02*
X1145450Y7252330D01*
X1161370Y7241670D01*
X1179280Y7239000D01*
X1195200Y7241670D01*
X1211120Y7255000D01*
X1221060Y7271000D01*
X1223050Y7287010D01*
X1219070Y7305670D01*
X1205140Y7319010D01*
X1191220Y7324350D01*
X1173310D01*
G01X1191220D02*
X1203160Y7332340D01*
X1213110Y7345680D01*
X1217080Y7361680D01*
X1213110Y7377680D01*
X1203160Y7391020D01*
X1185250Y7399020D01*
X1167340Y7396350D01*
X1149440Y7385680D01*
G01X1371600Y4826000D02*
Y3530600D01*
X2387600D01*
Y4826000D01*
X1371600D01*
G01X1463720Y4680200D02*
X1475650Y4661530D01*
X1491570Y4650870D01*
X1509480Y4648200D01*
X1525400Y4650870D01*
X1541320Y4664200D01*
X1551260Y4680200D01*
X1553250Y4696210D01*
X1549270Y4714870D01*
X1535340Y4728210D01*
X1521420Y4733550D01*
X1503510D01*
G01X1521420D02*
X1533360Y4741540D01*
X1543310Y4754880D01*
X1547280Y4770880D01*
X1543310Y4786880D01*
X1533360Y4800220D01*
X1515450Y4808220D01*
X1497540Y4805550D01*
X1479640Y4794880D01*
G01X1981200Y5682150D02*
X2044700D01*
Y5656410D01*
G01X2014010Y5665890D02*
Y5682150D01*
G01X1989660Y5627620D02*
X1984370Y5622210D01*
X1981200Y5616110D01*
Y5610690D01*
X1984370Y5605270D01*
X1989660Y5601210D01*
X1997080Y5599180D01*
X2004480Y5600530D01*
X2010830Y5603920D01*
X2015070Y5610010D01*
X2017180Y5618140D01*
X2021420Y5622880D01*
X2028820Y5624920D01*
X2036230Y5623560D01*
X2041520Y5620170D01*
X2044700Y5615430D01*
Y5610690D01*
X2042580Y5605950D01*
X2037290Y5601880D01*
G01X1981200Y5543970D02*
Y5571070D01*
X2044700D01*
Y5543970D01*
G01X2014010Y5554810D02*
Y5571070D01*
G01X1981200Y5517220D02*
X2044700D01*
X1981200Y5486060D01*
X2044700D01*
G01X1890010Y6154420D02*
X1937760D01*
G01X1913890D02*
Y5994400D01*
G01X1890010D02*
X1937760D01*
G01X1981200Y6698150D02*
X2044700D01*
Y6672410D01*
G01X2014010Y6681890D02*
Y6698150D01*
G01X1989660Y6643620D02*
X1984370Y6638210D01*
X1981200Y6632110D01*
Y6626690D01*
X1984370Y6621270D01*
X1989660Y6617210D01*
X1997080Y6615180D01*
X2004480Y6616530D01*
X2010830Y6619920D01*
X2015070Y6626010D01*
X2017180Y6634140D01*
X2021420Y6638880D01*
X2028820Y6640920D01*
X2036230Y6639560D01*
X2041520Y6636170D01*
X2044700Y6631430D01*
Y6626690D01*
X2042580Y6621950D01*
X2037290Y6617880D01*
G01X1981200Y6559970D02*
Y6587070D01*
X2044700D01*
Y6559970D01*
G01X2014010Y6570810D02*
Y6587070D01*
G01X1981200Y6533220D02*
X2044700D01*
X1981200Y6502060D01*
X2044700D01*
G01X1890010Y7170420D02*
X1937760D01*
G01X1913890D02*
Y7010400D01*
G01X1890010D02*
X1937760D01*
G01X2336800Y3546520D02*
X2176780D01*
Y3586310D01*
X2184780Y3602230D01*
X2195450Y3614170D01*
X2211450Y3624120D01*
X2230120Y3632070D01*
X2256790Y3634060D01*
X2283460Y3632070D01*
X2302130Y3624120D01*
X2318130Y3614170D01*
X2328800Y3602230D01*
X2336800Y3586310D01*
Y3546520D01*
G01X2176780Y3726430D02*
Y3774180D01*
G01Y3750310D02*
X2336800D01*
G01Y3726430D02*
Y3774180D01*
G01X2315470Y3868550D02*
X2328800Y3884460D01*
X2336800Y3902370D01*
Y3918290D01*
X2328800Y3934210D01*
X2315470Y3946150D01*
X2296790Y3952110D01*
X2278130Y3948130D01*
X2262130Y3938180D01*
X2251450Y3920280D01*
X2246120Y3896400D01*
X2235460Y3882480D01*
X2216790Y3876500D01*
X2198120Y3880490D01*
X2184780Y3890430D01*
X2176780Y3904360D01*
Y3918290D01*
X2182110Y3932220D01*
X2195450Y3944160D01*
G01X2336800Y4265080D02*
Y4185500D01*
X2176780D01*
Y4265080D01*
G01X2254120Y4233250D02*
Y4185500D01*
G01X2336800Y4339550D02*
X2176780D01*
X2336800Y4431070D01*
X2176780D01*
G01X2616200Y3546520D02*
X2456180D01*
Y3586310D01*
X2464180Y3602230D01*
X2474850Y3614170D01*
X2490850Y3624120D01*
X2509520Y3632070D01*
X2536190Y3634060D01*
X2562860Y3632070D01*
X2581530Y3624120D01*
X2597530Y3614170D01*
X2608200Y3602230D01*
X2616200Y3586310D01*
Y3546520D01*
G01X2456180Y3726430D02*
Y3774180D01*
G01Y3750310D02*
X2616200D01*
G01Y3726430D02*
Y3774180D01*
G01X2594870Y3868550D02*
X2608200Y3884460D01*
X2616200Y3902370D01*
Y3918290D01*
X2608200Y3934210D01*
X2594870Y3946150D01*
X2576190Y3952110D01*
X2557530Y3948130D01*
X2541530Y3938180D01*
X2530850Y3920280D01*
X2525520Y3896400D01*
X2514860Y3882480D01*
X2496190Y3876500D01*
X2477520Y3880490D01*
X2464180Y3890430D01*
X2456180Y3904360D01*
Y3918290D01*
X2461510Y3932220D01*
X2474850Y3944160D01*
G01X2438400Y4826000D02*
Y3530600D01*
X3632200D01*
Y4826000D01*
X2438400D01*
G01X2616200Y4265080D02*
Y4185500D01*
X2456180D01*
Y4265080D01*
G01X2533520Y4233250D02*
Y4185500D01*
G01X2616200Y4339550D02*
X2456180D01*
X2616200Y4431070D01*
X2456180D01*
G01X2714290Y4781550D02*
X2726220Y4797550D01*
X2740150Y4805550D01*
X2756070Y4808220D01*
X2775970Y4802890D01*
X2789890Y4789550D01*
X2793870Y4773550D01*
X2791880Y4757540D01*
X2783920Y4744210D01*
X2744130Y4717540D01*
X2726220Y4698870D01*
X2714290Y4672200D01*
X2710310Y4648200D01*
X2793870D01*
G01X2790430Y6989520D02*
X2779850Y6976650D01*
X2773500Y6962170D01*
Y6949310D01*
X2779850Y6936440D01*
X2790430Y6926780D01*
X2805250Y6921960D01*
X2820060Y6925170D01*
X2832770Y6933220D01*
X2841230Y6947700D01*
X2845470Y6967000D01*
X2853930Y6978260D01*
X2868750Y6983090D01*
X2883570Y6979870D01*
X2894150Y6971830D01*
X2900500Y6960570D01*
Y6949310D01*
X2896270Y6938040D01*
X2885680Y6928390D01*
G01X2773500Y6863200D02*
X2900500D01*
X2773500Y6789200D01*
X2900500D01*
G01X2826410Y6727230D02*
X2841230Y6715960D01*
X2849700Y6706310D01*
X2853930Y6693440D01*
X2849700Y6682180D01*
X2841230Y6674140D01*
X2828530Y6667700D01*
X2813720Y6666090D01*
X2801010Y6667700D01*
X2788310Y6674140D01*
X2777730Y6683790D01*
X2773500Y6695050D01*
X2777730Y6707920D01*
X2790430Y6719180D01*
X2809480Y6725620D01*
X2830650Y6727230D01*
X2858160Y6724010D01*
X2872990Y6719180D01*
X2887800Y6711140D01*
X2898380Y6699880D01*
X2900500Y6688620D01*
X2896270Y6677360D01*
X2885680Y6669310D01*
G01X2792550Y6602510D02*
X2781960Y6592860D01*
X2775620Y6581600D01*
X2773500Y6567120D01*
X2777730Y6552640D01*
X2786200Y6541380D01*
X2801010Y6533340D01*
X2817950Y6531730D01*
X2834880Y6534950D01*
X2845470Y6542990D01*
X2853930Y6554250D01*
X2856050Y6565510D01*
X2853930Y6576770D01*
X2845470Y6591250D01*
X2900500Y6586420D01*
Y6542990D01*
G01X2773500Y6479410D02*
X2900500D01*
X2794670Y6437580D01*
X2900500Y6395750D01*
X2773500D01*
G01X2900500Y6340210D02*
X2773500D01*
Y6275870D01*
G01X2900500Y6218720D02*
X2773500Y6178500D01*
X2900500Y6138280D01*
G01X2773500Y6084350D02*
X2900500D01*
Y6052180D01*
X2894150Y6039310D01*
X2885680Y6029660D01*
X2872990Y6021610D01*
X2858160Y6015180D01*
X2837000Y6013570D01*
X2815830Y6015180D01*
X2801010Y6021610D01*
X2788310Y6029660D01*
X2779850Y6039310D01*
X2773500Y6052180D01*
Y6084350D01*
G01X2900500Y5919420D02*
X2896270Y5932290D01*
X2885680Y5941940D01*
X2872990Y5948380D01*
X2856050Y5953200D01*
X2837000Y5954810D01*
X2817950Y5953200D01*
X2801010Y5948380D01*
X2788310Y5941940D01*
X2777730Y5932290D01*
X2773500Y5919420D01*
X2777730Y5906550D01*
X2788310Y5896900D01*
X2801010Y5890460D01*
X2817950Y5885640D01*
X2837000Y5884030D01*
X2856050Y5885640D01*
X2872990Y5890460D01*
X2885680Y5896900D01*
X2896270Y5906550D01*
X2900500Y5919420D01*
G01X2773500Y5770580D02*
X2900500D01*
X2809480Y5830100D01*
Y5749660D01*
G01X2900500Y5660340D02*
X2896270Y5673210D01*
X2885680Y5682860D01*
X2872990Y5689300D01*
X2856050Y5694120D01*
X2837000Y5695730D01*
X2817950Y5694120D01*
X2801010Y5689300D01*
X2788310Y5682860D01*
X2777730Y5673210D01*
X2773500Y5660340D01*
X2777730Y5647470D01*
X2788310Y5637820D01*
X2801010Y5631380D01*
X2817950Y5626560D01*
X2837000Y5624950D01*
X2856050Y5626560D01*
X2872990Y5631380D01*
X2885680Y5637820D01*
X2896270Y5647470D01*
X2900500Y5660340D01*
G01X2773500Y5562970D02*
X2900500D01*
Y5522760D01*
X2894150Y5509890D01*
X2885680Y5501840D01*
X2868750Y5498630D01*
X2851820Y5501840D01*
X2841230Y5511500D01*
X2834880Y5522760D01*
Y5562970D01*
G01Y5522760D02*
X2773500Y5498630D01*
G01X2837000Y5391610D02*
Y5359430D01*
X2798900D01*
X2786200Y5369090D01*
X2777730Y5380350D01*
X2773500Y5396430D01*
X2777730Y5412520D01*
X2786200Y5423780D01*
X2798900Y5433430D01*
X2813720Y5439870D01*
X2830650Y5443090D01*
X2845470D01*
X2858160Y5439870D01*
X2872990Y5433430D01*
X2885680Y5423780D01*
X2894150Y5414130D01*
X2900500Y5401260D01*
Y5390000D01*
X2896270Y5377130D01*
X2887800Y5367480D01*
G01X2900500Y5302290D02*
Y5241150D01*
X2773500Y5302290D01*
Y5241150D01*
G01X2900500Y5142180D02*
X2773500D01*
G01X2900500Y5179180D02*
Y5105180D01*
G01X3309790Y9222740D02*
Y9166310D01*
X3313680Y9154500D01*
X3321470Y9146620D01*
X3331210Y9144000D01*
X3340950Y9146620D01*
X3348740Y9154500D01*
X3352630Y9166310D01*
Y9222740D01*
G01X3409950Y9144000D02*
Y9222740D01*
X3398270Y9206990D01*
G01Y9144000D02*
X3421630D01*
G01X3479800Y8839200D02*
X3886200D01*
G01X3657600Y4826000D02*
Y3530600D01*
X4673600D01*
Y4826000D01*
X3657600D01*
G01X3793490Y4648200D02*
Y4808220D01*
X3769610Y4776220D01*
G01Y4648200D02*
X3817360D01*
G01X3879000Y6991130D02*
X3787980D01*
X3768930Y6984700D01*
X3756230Y6971830D01*
X3752000Y6955740D01*
X3756230Y6939650D01*
X3768930Y6926780D01*
X3787980Y6920350D01*
X3879000D01*
G01X3857830Y6856770D02*
X3870530Y6847110D01*
X3876880Y6835850D01*
X3879000Y6822980D01*
X3874770Y6806900D01*
X3864180Y6795630D01*
X3851490Y6792420D01*
X3838780Y6794030D01*
X3828200Y6800460D01*
X3807030Y6832630D01*
X3792220Y6847110D01*
X3771050Y6856770D01*
X3752000Y6859980D01*
Y6792420D01*
G01Y6677360D02*
X3879000D01*
X3787980Y6736880D01*
Y6656440D01*
G01X4368800Y6781800D02*
Y5994400D01*
X5562600D01*
Y6781800D01*
X4368800D01*
G01X4622800Y3546520D02*
X4462780D01*
Y3586310D01*
X4470780Y3602230D01*
X4481450Y3614170D01*
X4497450Y3624120D01*
X4516120Y3632070D01*
X4542790Y3634060D01*
X4569460Y3632070D01*
X4588130Y3624120D01*
X4604130Y3614170D01*
X4614800Y3602230D01*
X4622800Y3586310D01*
Y3546520D01*
G01X4462780Y3726430D02*
Y3774180D01*
G01Y3750310D02*
X4622800D01*
G01Y3726430D02*
Y3774180D01*
G01X4601470Y3868550D02*
X4614800Y3884460D01*
X4622800Y3902370D01*
Y3918290D01*
X4614800Y3934210D01*
X4601470Y3946150D01*
X4582790Y3952110D01*
X4564130Y3948130D01*
X4548130Y3938180D01*
X4537450Y3920280D01*
X4532120Y3896400D01*
X4521460Y3882480D01*
X4502790Y3876500D01*
X4484120Y3880490D01*
X4470780Y3890430D01*
X4462780Y3904360D01*
Y3918290D01*
X4468110Y3932220D01*
X4481450Y3944160D01*
G01X4622800Y4265080D02*
Y4185500D01*
X4462780D01*
Y4265080D01*
G01X4540120Y4233250D02*
Y4185500D01*
G01X4622800Y4339550D02*
X4462780D01*
X4622800Y4431070D01*
X4462780D01*
G01X4530090Y6604000D02*
X4514170Y6606670D01*
X4500250Y6617330D01*
X4488310Y6633340D01*
X4480350Y6652010D01*
X4476370Y6673340D01*
Y6694680D01*
X4480350Y6716010D01*
X4488310Y6734680D01*
X4500250Y6750680D01*
X4514170Y6761350D01*
X4530090Y6764020D01*
X4546010Y6761350D01*
X4559930Y6750680D01*
X4571870Y6734680D01*
X4579830Y6716010D01*
X4583810Y6694680D01*
Y6673340D01*
X4579830Y6652010D01*
X4571870Y6633340D01*
X4559930Y6617330D01*
X4546010Y6606670D01*
X4530090Y6604000D01*
G01X4644350D02*
Y6764020D01*
X4735870Y6604000D01*
Y6764020D01*
G01X5088890Y6604000D02*
X5072970Y6606670D01*
X5059050Y6617330D01*
X5047110Y6633340D01*
X5039150Y6652010D01*
X5035170Y6673340D01*
Y6694680D01*
X5039150Y6716010D01*
X5047110Y6734680D01*
X5059050Y6750680D01*
X5072970Y6761350D01*
X5088890Y6764020D01*
X5104810Y6761350D01*
X5118730Y6750680D01*
X5130670Y6734680D01*
X5138630Y6716010D01*
X5142610Y6694680D01*
Y6673340D01*
X5138630Y6652010D01*
X5130670Y6633340D01*
X5118730Y6617330D01*
X5104810Y6606670D01*
X5088890Y6604000D01*
G01X5211110D02*
Y6764020D01*
X5286710D01*
G01X5258860Y6686680D02*
X5211110D01*
G01X5371130Y6604000D02*
Y6764020D01*
X5446730D01*
G01X5418880Y6686680D02*
X5371130D01*
G01X5410200Y3546520D02*
X5250180D01*
Y3586310D01*
X5258180Y3602230D01*
X5268850Y3614170D01*
X5284850Y3624120D01*
X5303520Y3632070D01*
X5330190Y3634060D01*
X5356860Y3632070D01*
X5375530Y3624120D01*
X5391530Y3614170D01*
X5402200Y3602230D01*
X5410200Y3586310D01*
Y3546520D01*
G01X5250180Y3726430D02*
Y3774180D01*
G01Y3750310D02*
X5410200D01*
G01Y3726430D02*
Y3774180D01*
G01X5388870Y3868550D02*
X5402200Y3884460D01*
X5410200Y3902370D01*
Y3918290D01*
X5402200Y3934210D01*
X5388870Y3946150D01*
X5370190Y3952110D01*
X5351530Y3948130D01*
X5335530Y3938180D01*
X5324850Y3920280D01*
X5319520Y3896400D01*
X5308860Y3882480D01*
X5290190Y3876500D01*
X5271520Y3880490D01*
X5258180Y3890430D01*
X5250180Y3904360D01*
Y3918290D01*
X5255510Y3932220D01*
X5268850Y3944160D01*
G01X5232400Y4826000D02*
Y3530600D01*
X6426200D01*
Y4826000D01*
X5232400D01*
G01X5410200Y4265080D02*
Y4185500D01*
X5250180D01*
Y4265080D01*
G01X5327520Y4233250D02*
Y4185500D01*
G01X5410200Y4339550D02*
X5250180D01*
X5410200Y4431070D01*
X5250180D01*
G01X5546090Y4648200D02*
X5560020Y4650870D01*
X5575930Y4658870D01*
X5585880Y4672200D01*
X5589860Y4690870D01*
X5585880Y4709540D01*
X5573940Y4725540D01*
X5556040Y4733550D01*
X5536140D01*
X5524200Y4738880D01*
X5514250Y4752210D01*
X5510270Y4770880D01*
X5516250Y4789550D01*
X5530170Y4802890D01*
X5546090Y4808220D01*
X5562010Y4802890D01*
X5575930Y4789550D01*
X5581910Y4770880D01*
X5577920Y4752210D01*
X5567980Y4738880D01*
X5556040Y4733550D01*
X5536140D01*
X5518240Y4725540D01*
X5506300Y4709540D01*
X5502320Y4690870D01*
X5506300Y4672200D01*
X5516250Y4658870D01*
X5532160Y4650870D01*
X5546090Y4648200D01*
G01X6451600Y4826000D02*
Y3530600D01*
X7467600D01*
Y4826000D01*
X6451600D01*
G01X6346430Y6989520D02*
X6335850Y6976650D01*
X6329500Y6962170D01*
Y6949310D01*
X6335850Y6936440D01*
X6346430Y6926780D01*
X6361250Y6921960D01*
X6376060Y6925170D01*
X6388770Y6933220D01*
X6397230Y6947700D01*
X6401470Y6967000D01*
X6409930Y6978260D01*
X6424750Y6983090D01*
X6439570Y6979870D01*
X6450150Y6971830D01*
X6456500Y6960570D01*
Y6949310D01*
X6452270Y6938040D01*
X6441680Y6928390D01*
G01X6329500Y6863200D02*
X6456500D01*
X6329500Y6789200D01*
X6456500D01*
G01X6382410Y6727230D02*
X6397230Y6715960D01*
X6405700Y6706310D01*
X6409930Y6693440D01*
X6405700Y6682180D01*
X6397230Y6674140D01*
X6384530Y6667700D01*
X6369720Y6666090D01*
X6357010Y6667700D01*
X6344310Y6674140D01*
X6333730Y6683790D01*
X6329500Y6695050D01*
X6333730Y6707920D01*
X6346430Y6719180D01*
X6365480Y6725620D01*
X6386650Y6727230D01*
X6414160Y6724010D01*
X6428990Y6719180D01*
X6443800Y6711140D01*
X6454380Y6699880D01*
X6456500Y6688620D01*
X6452270Y6677360D01*
X6441680Y6669310D01*
G01X6348550Y6602510D02*
X6337960Y6592860D01*
X6331620Y6581600D01*
X6329500Y6567120D01*
X6333730Y6552640D01*
X6342200Y6541380D01*
X6357010Y6533340D01*
X6373950Y6531730D01*
X6390880Y6534950D01*
X6401470Y6542990D01*
X6409930Y6554250D01*
X6412050Y6565510D01*
X6409930Y6576770D01*
X6401470Y6591250D01*
X6456500Y6586420D01*
Y6542990D01*
G01X6329500Y6479410D02*
X6456500D01*
X6350670Y6437580D01*
X6456500Y6395750D01*
X6329500D01*
G01X6456500Y6340210D02*
X6329500D01*
Y6275870D01*
G01X6456500Y6218720D02*
X6329500Y6178500D01*
X6456500Y6138280D01*
G01X6329500Y6084350D02*
X6456500D01*
Y6052180D01*
X6450150Y6039310D01*
X6441680Y6029660D01*
X6428990Y6021610D01*
X6414160Y6015180D01*
X6393000Y6013570D01*
X6371830Y6015180D01*
X6357010Y6021610D01*
X6344310Y6029660D01*
X6335850Y6039310D01*
X6329500Y6052180D01*
Y6084350D01*
G01X6456500Y5919420D02*
X6452270Y5932290D01*
X6441680Y5941940D01*
X6428990Y5948380D01*
X6412050Y5953200D01*
X6393000Y5954810D01*
X6373950Y5953200D01*
X6357010Y5948380D01*
X6344310Y5941940D01*
X6333730Y5932290D01*
X6329500Y5919420D01*
X6333730Y5906550D01*
X6344310Y5896900D01*
X6357010Y5890460D01*
X6373950Y5885640D01*
X6393000Y5884030D01*
X6412050Y5885640D01*
X6428990Y5890460D01*
X6441680Y5896900D01*
X6452270Y5906550D01*
X6456500Y5919420D01*
G01X6329500Y5770580D02*
X6456500D01*
X6365480Y5830100D01*
Y5749660D01*
G01X6456500Y5660340D02*
X6452270Y5673210D01*
X6441680Y5682860D01*
X6428990Y5689300D01*
X6412050Y5694120D01*
X6393000Y5695730D01*
X6373950Y5694120D01*
X6357010Y5689300D01*
X6344310Y5682860D01*
X6333730Y5673210D01*
X6329500Y5660340D01*
X6333730Y5647470D01*
X6344310Y5637820D01*
X6357010Y5631380D01*
X6373950Y5626560D01*
X6393000Y5624950D01*
X6412050Y5626560D01*
X6428990Y5631380D01*
X6441680Y5637820D01*
X6452270Y5647470D01*
X6456500Y5660340D01*
G01X6329500Y5562970D02*
X6456500D01*
Y5522760D01*
X6450150Y5509890D01*
X6441680Y5501840D01*
X6424750Y5498630D01*
X6407820Y5501840D01*
X6397230Y5511500D01*
X6390880Y5522760D01*
Y5562970D01*
G01Y5522760D02*
X6329500Y5498630D01*
G01X6393000Y5391610D02*
Y5359430D01*
X6354900D01*
X6342200Y5369090D01*
X6333730Y5380350D01*
X6329500Y5396430D01*
X6333730Y5412520D01*
X6342200Y5423780D01*
X6354900Y5433430D01*
X6369720Y5439870D01*
X6386650Y5443090D01*
X6401470D01*
X6414160Y5439870D01*
X6428990Y5433430D01*
X6441680Y5423780D01*
X6450150Y5414130D01*
X6456500Y5401260D01*
Y5390000D01*
X6452270Y5377130D01*
X6443800Y5367480D01*
G01X6456500Y5302290D02*
Y5241150D01*
X6329500Y5302290D01*
Y5241150D01*
G01X6456500Y5142180D02*
X6329500D01*
G01X6456500Y5179180D02*
Y5105180D01*
G01X6583510Y4648200D02*
X6587490Y4682870D01*
X6593460Y4712200D01*
X6601420Y4738880D01*
X6611370Y4768210D01*
X6627280Y4808220D01*
X6547700D01*
G01X7416800Y3546520D02*
X7256780D01*
Y3586310D01*
X7264780Y3602230D01*
X7275450Y3614170D01*
X7291450Y3624120D01*
X7310120Y3632070D01*
X7336790Y3634060D01*
X7363460Y3632070D01*
X7382130Y3624120D01*
X7398130Y3614170D01*
X7408800Y3602230D01*
X7416800Y3586310D01*
Y3546520D01*
G01X7256780Y3726430D02*
Y3774180D01*
G01Y3750310D02*
X7416800D01*
G01Y3726430D02*
Y3774180D01*
G01X7395470Y3868550D02*
X7408800Y3884460D01*
X7416800Y3902370D01*
Y3918290D01*
X7408800Y3934210D01*
X7395470Y3946150D01*
X7376790Y3952110D01*
X7358130Y3948130D01*
X7342130Y3938180D01*
X7331450Y3920280D01*
X7326120Y3896400D01*
X7315460Y3882480D01*
X7296790Y3876500D01*
X7278120Y3880490D01*
X7264780Y3890430D01*
X7256780Y3904360D01*
Y3918290D01*
X7262110Y3932220D01*
X7275450Y3944160D01*
G01X7416800Y4265080D02*
Y4185500D01*
X7256780D01*
Y4265080D01*
G01X7334120Y4233250D02*
Y4185500D01*
G01X7416800Y4339550D02*
X7256780D01*
X7416800Y4431070D01*
X7256780D01*
G01X7435000Y6991130D02*
X7343980D01*
X7324930Y6984700D01*
X7312230Y6971830D01*
X7308000Y6955740D01*
X7312230Y6939650D01*
X7324930Y6926780D01*
X7343980Y6920350D01*
X7435000D01*
G01X7333400Y6861590D02*
X7318580Y6851940D01*
X7310120Y6839070D01*
X7308000Y6824590D01*
X7310120Y6811720D01*
X7320700Y6798850D01*
X7333400Y6790810D01*
X7346100Y6789200D01*
X7360910Y6792420D01*
X7371500Y6803680D01*
X7375730Y6814940D01*
Y6829420D01*
G01Y6814940D02*
X7382080Y6805290D01*
X7392660Y6797240D01*
X7405370Y6794030D01*
X7418070Y6797240D01*
X7428650Y6805290D01*
X7435000Y6819770D01*
X7432880Y6834240D01*
X7424420Y6848720D01*
G01X7308000Y6677360D02*
X7435000D01*
X7343980Y6736880D01*
Y6656440D01*
G01X7696200Y3546520D02*
X7536180D01*
Y3586310D01*
X7544180Y3602230D01*
X7554850Y3614170D01*
X7570850Y3624120D01*
X7589520Y3632070D01*
X7616190Y3634060D01*
X7642860Y3632070D01*
X7661530Y3624120D01*
X7677530Y3614170D01*
X7688200Y3602230D01*
X7696200Y3586310D01*
Y3546520D01*
G01X7536180Y3726430D02*
Y3774180D01*
G01Y3750310D02*
X7696200D01*
G01Y3726430D02*
Y3774180D01*
G01X7674870Y3868550D02*
X7688200Y3884460D01*
X7696200Y3902370D01*
Y3918290D01*
X7688200Y3934210D01*
X7674870Y3946150D01*
X7656190Y3952110D01*
X7637530Y3948130D01*
X7621530Y3938180D01*
X7610850Y3920280D01*
X7605520Y3896400D01*
X7594860Y3882480D01*
X7576190Y3876500D01*
X7557520Y3880490D01*
X7544180Y3890430D01*
X7536180Y3904360D01*
Y3918290D01*
X7541510Y3932220D01*
X7554850Y3944160D01*
G01X7518400Y4826000D02*
Y3530600D01*
X8712200D01*
Y4826000D01*
X7518400D01*
G01X7696200Y4265080D02*
Y4185500D01*
X7536180D01*
Y4265080D01*
G01X7613520Y4233250D02*
Y4185500D01*
G01X7696200Y4339550D02*
X7536180D01*
X7696200Y4431070D01*
X7536180D01*
G01X7401810Y9939020D02*
X7449560D01*
G01X7425690D02*
Y9779000D01*
G01X7401810D02*
X7449560D01*
G01X7539950D02*
Y9939020D01*
X7631470Y9779000D01*
Y9939020D01*
G01X7745730D02*
Y9779000D01*
G01X7699970Y9939020D02*
X7791490D01*
G01X7794290Y4714870D02*
X7808210Y4733550D01*
X7820150Y4744210D01*
X7836070Y4749540D01*
X7850000Y4744210D01*
X7859940Y4733550D01*
X7867910Y4717540D01*
X7869890Y4698870D01*
X7867910Y4682870D01*
X7859940Y4666870D01*
X7848010Y4653530D01*
X7834080Y4648200D01*
X7818160Y4653530D01*
X7804240Y4669530D01*
X7796270Y4693540D01*
X7794290Y4720210D01*
X7798260Y4754880D01*
X7804240Y4773550D01*
X7814180Y4792220D01*
X7828110Y4805550D01*
X7842040Y4808220D01*
X7855970Y4802890D01*
X7865920Y4789550D01*
G01X7991260Y9474200D02*
Y9395460D01*
X7967900D01*
X7960110Y9399400D01*
X7954260Y9408580D01*
X7952320Y9419080D01*
X7954260Y9429580D01*
X7959130Y9437460D01*
X7967900Y9441390D01*
X7991260D01*
G01X7913500Y9463700D02*
X7905710Y9470260D01*
X7896940Y9474200D01*
X7889160D01*
X7881370Y9470260D01*
X7875520Y9463700D01*
X7872600Y9454510D01*
X7874550Y9445330D01*
X7879420Y9437460D01*
X7888180Y9432200D01*
X7899870Y9429580D01*
X7906680Y9424330D01*
X7909600Y9415150D01*
X7907650Y9405960D01*
X7902790Y9399400D01*
X7895970Y9395460D01*
X7889160D01*
X7882340Y9398080D01*
X7876500Y9404650D01*
G01X7814310Y9474200D02*
Y9395460D01*
X7825990Y9411210D01*
G01Y9474200D02*
X7802630D01*
G01X7950200Y6400800D02*
Y5435600D01*
X8940800D01*
Y6400800D01*
X7950200D01*
G01X8035290Y5994400D02*
X8019370Y5997070D01*
X8005450Y6007730D01*
X7993510Y6023740D01*
X7985550Y6042410D01*
X7981570Y6063740D01*
Y6085080D01*
X7985550Y6106410D01*
X7993510Y6125080D01*
X8005450Y6141080D01*
X8019370Y6151750D01*
X8035290Y6154420D01*
X8051210Y6151750D01*
X8065130Y6141080D01*
X8077070Y6125080D01*
X8085030Y6106410D01*
X8089010Y6085080D01*
Y6063740D01*
X8085030Y6042410D01*
X8077070Y6023740D01*
X8065130Y6007730D01*
X8051210Y5997070D01*
X8035290Y5994400D01*
G01X7991520Y6247000D02*
X8003450Y6233670D01*
X8017380Y6225670D01*
X8035290Y6223000D01*
X8053200Y6228330D01*
X8067120Y6239000D01*
X8077070Y6257670D01*
X8079060Y6279000D01*
X8075080Y6300340D01*
X8065130Y6313680D01*
X8051210Y6324340D01*
X8037280Y6327010D01*
X8023350Y6324340D01*
X8005450Y6313680D01*
X8011410Y6383020D01*
X8065130D01*
G01X7950200Y7416800D02*
Y6451600D01*
X8940800D01*
Y7416800D01*
X7950200D01*
G01X8035290Y7010400D02*
X8019370Y7013070D01*
X8005450Y7023730D01*
X7993510Y7039740D01*
X7985550Y7058410D01*
X7981570Y7079740D01*
Y7101080D01*
X7985550Y7122410D01*
X7993510Y7141080D01*
X8005450Y7157080D01*
X8019370Y7167750D01*
X8035290Y7170420D01*
X8051210Y7167750D01*
X8065130Y7157080D01*
X8077070Y7141080D01*
X8085030Y7122410D01*
X8089010Y7101080D01*
Y7079740D01*
X8085030Y7058410D01*
X8077070Y7039740D01*
X8065130Y7023730D01*
X8051210Y7013070D01*
X8035290Y7010400D01*
G01X7997490Y7305670D02*
X8011410Y7324350D01*
X8023350Y7335010D01*
X8039270Y7340340D01*
X8053200Y7335010D01*
X8063140Y7324350D01*
X8071110Y7308340D01*
X8073090Y7289670D01*
X8071110Y7273670D01*
X8063140Y7257670D01*
X8051210Y7244330D01*
X8037280Y7239000D01*
X8021360Y7244330D01*
X8007440Y7260330D01*
X7999470Y7284340D01*
X7997490Y7311010D01*
X8001460Y7345680D01*
X8007440Y7364350D01*
X8017380Y7383020D01*
X8031310Y7396350D01*
X8045240Y7399020D01*
X8059170Y7393690D01*
X8069120Y7380350D01*
G01X8737600Y4826000D02*
Y3530600D01*
X9753600D01*
Y4826000D01*
X8737600D01*
G01X8829720Y4672200D02*
X8841650Y4658870D01*
X8855580Y4650870D01*
X8873490Y4648200D01*
X8891400Y4653530D01*
X8905320Y4664200D01*
X8915270Y4682870D01*
X8917260Y4704200D01*
X8913280Y4725540D01*
X8903330Y4738880D01*
X8889410Y4749540D01*
X8875480Y4752210D01*
X8861550Y4749540D01*
X8843650Y4738880D01*
X8849610Y4808220D01*
X8903330D01*
G01X8839200Y5682150D02*
X8902700D01*
Y5656410D01*
G01X8872010Y5665890D02*
Y5682150D01*
G01X8847660Y5627620D02*
X8842370Y5622210D01*
X8839200Y5616110D01*
Y5610690D01*
X8842370Y5605270D01*
X8847660Y5601210D01*
X8855080Y5599180D01*
X8862480Y5600530D01*
X8868830Y5603920D01*
X8873070Y5610010D01*
X8875180Y5618140D01*
X8879420Y5622880D01*
X8886820Y5624920D01*
X8894230Y5623560D01*
X8899520Y5620170D01*
X8902700Y5615430D01*
Y5610690D01*
X8900580Y5605950D01*
X8895290Y5601880D01*
G01X8839200Y5543970D02*
Y5571070D01*
X8902700D01*
Y5543970D01*
G01X8872010Y5554810D02*
Y5571070D01*
G01X8839200Y5517220D02*
X8902700D01*
X8839200Y5486060D01*
X8902700D01*
G01X8748010Y6154420D02*
X8795760D01*
G01X8771890D02*
Y5994400D01*
G01X8748010D02*
X8795760D01*
G01X8839200Y6698150D02*
X8902700D01*
Y6672410D01*
G01X8872010Y6681890D02*
Y6698150D01*
G01X8847660Y6643620D02*
X8842370Y6638210D01*
X8839200Y6632110D01*
Y6626690D01*
X8842370Y6621270D01*
X8847660Y6617210D01*
X8855080Y6615180D01*
X8862480Y6616530D01*
X8868830Y6619920D01*
X8873070Y6626010D01*
X8875180Y6634140D01*
X8879420Y6638880D01*
X8886820Y6640920D01*
X8894230Y6639560D01*
X8899520Y6636170D01*
X8902700Y6631430D01*
Y6626690D01*
X8900580Y6621950D01*
X8895290Y6617880D01*
G01X8839200Y6559970D02*
Y6587070D01*
X8902700D01*
Y6559970D01*
G01X8872010Y6570810D02*
Y6587070D01*
G01X8839200Y6533220D02*
X8902700D01*
X8839200Y6502060D01*
X8902700D01*
G01X8748010Y7170420D02*
X8795760D01*
G01X8771890D02*
Y7010400D01*
G01X8748010D02*
X8795760D01*
G01X8837080Y8305800D02*
X8757500D01*
Y8465820D01*
X8837080D01*
G01X8805250Y8388480D02*
X8757500D01*
G01X8915530Y8305800D02*
X8999090Y8465820D01*
G01X8915530D02*
X8999090Y8305800D01*
G01X9117330Y8465820D02*
Y8305800D01*
G01X9071570Y8465820D02*
X9163090D01*
G01X9437370Y8305800D02*
Y8465820D01*
X9413490Y8433820D01*
G01Y8305800D02*
X9461240D01*
G01X9559590Y8439150D02*
X9571520Y8455150D01*
X9585450Y8463150D01*
X9601370Y8465820D01*
X9621270Y8460490D01*
X9635190Y8447150D01*
X9639170Y8431150D01*
X9637180Y8415140D01*
X9629220Y8401810D01*
X9589430Y8375140D01*
X9571520Y8356470D01*
X9559590Y8329800D01*
X9555610Y8305800D01*
X9639170D01*
G01X9707670Y8465820D02*
X9757410Y8305800D01*
X9807150Y8465820D01*
G01X9917430D02*
X9901510Y8460490D01*
X9889580Y8447150D01*
X9881610Y8431150D01*
X9875650Y8409810D01*
X9873660Y8385810D01*
X9875650Y8361800D01*
X9881610Y8340470D01*
X9889580Y8324470D01*
X9901510Y8311130D01*
X9917430Y8305800D01*
X9933350Y8311130D01*
X9945280Y8324470D01*
X9953250Y8340470D01*
X9959210Y8361800D01*
X9961200Y8385810D01*
X9959210Y8409810D01*
X9953250Y8431150D01*
X9945280Y8447150D01*
X9933350Y8460490D01*
X9917430Y8465820D01*
G01X8661400Y9863670D02*
Y9958490D01*
X8851900D01*
Y9863670D01*
G01X8759830Y9901600D02*
Y9958490D01*
G01X8661400Y9770360D02*
X8851900Y9670800D01*
G01Y9770360D02*
X8661400Y9670800D01*
G01X8851900Y9530080D02*
X8661400D01*
G01X8851900Y9584600D02*
Y9475560D01*
G01X8966200Y6400800D02*
Y5435600D01*
X9956800D01*
Y6400800D01*
X8966200D01*
G01X9051290Y5994400D02*
X9035370Y5997070D01*
X9021450Y6007730D01*
X9009510Y6023740D01*
X9001550Y6042410D01*
X8997570Y6063740D01*
Y6085080D01*
X9001550Y6106410D01*
X9009510Y6125080D01*
X9021450Y6141080D01*
X9035370Y6151750D01*
X9051290Y6154420D01*
X9067210Y6151750D01*
X9081130Y6141080D01*
X9093070Y6125080D01*
X9101030Y6106410D01*
X9105010Y6085080D01*
Y6063740D01*
X9101030Y6042410D01*
X9093070Y6023740D01*
X9081130Y6007730D01*
X9067210Y5997070D01*
X9051290Y5994400D01*
G01Y6223000D02*
X9065220Y6225670D01*
X9081130Y6233670D01*
X9091080Y6247000D01*
X9095060Y6265670D01*
X9091080Y6284340D01*
X9079140Y6300340D01*
X9061240Y6308350D01*
X9041340D01*
X9029400Y6313680D01*
X9019450Y6327010D01*
X9015470Y6345680D01*
X9021450Y6364350D01*
X9035370Y6377690D01*
X9051290Y6383020D01*
X9067210Y6377690D01*
X9081130Y6364350D01*
X9087110Y6345680D01*
X9083120Y6327010D01*
X9073180Y6313680D01*
X9061240Y6308350D01*
X9041340D01*
X9023440Y6300340D01*
X9011500Y6284340D01*
X9007520Y6265670D01*
X9011500Y6247000D01*
X9021450Y6233670D01*
X9037360Y6225670D01*
X9051290Y6223000D01*
G01X8966200Y7416800D02*
Y6451600D01*
X9956800D01*
Y7416800D01*
X8966200D01*
G01X9051290Y7010400D02*
X9035370Y7013070D01*
X9021450Y7023730D01*
X9009510Y7039740D01*
X9001550Y7058410D01*
X8997570Y7079740D01*
Y7101080D01*
X9001550Y7122410D01*
X9009510Y7141080D01*
X9021450Y7157080D01*
X9035370Y7167750D01*
X9051290Y7170420D01*
X9067210Y7167750D01*
X9081130Y7157080D01*
X9093070Y7141080D01*
X9101030Y7122410D01*
X9105010Y7101080D01*
Y7079740D01*
X9101030Y7058410D01*
X9093070Y7039740D01*
X9081130Y7023730D01*
X9067210Y7013070D01*
X9051290Y7010400D01*
G01X9047310Y7239000D02*
X9051290Y7273670D01*
X9057260Y7303000D01*
X9065220Y7329680D01*
X9075170Y7359010D01*
X9091080Y7399020D01*
X9011500D01*
G01X9702800Y3546520D02*
X9542780D01*
Y3586310D01*
X9550780Y3602230D01*
X9561450Y3614170D01*
X9577450Y3624120D01*
X9596120Y3632070D01*
X9622790Y3634060D01*
X9649460Y3632070D01*
X9668130Y3624120D01*
X9684130Y3614170D01*
X9694800Y3602230D01*
X9702800Y3586310D01*
Y3546520D01*
G01X9542780Y3726430D02*
Y3774180D01*
G01Y3750310D02*
X9702800D01*
G01Y3726430D02*
Y3774180D01*
G01X9681470Y3868550D02*
X9694800Y3884460D01*
X9702800Y3902370D01*
Y3918290D01*
X9694800Y3934210D01*
X9681470Y3946150D01*
X9662790Y3952110D01*
X9644130Y3948130D01*
X9628130Y3938180D01*
X9617450Y3920280D01*
X9612120Y3896400D01*
X9601460Y3882480D01*
X9582790Y3876500D01*
X9564120Y3880490D01*
X9550780Y3890430D01*
X9542780Y3904360D01*
Y3918290D01*
X9548110Y3932220D01*
X9561450Y3944160D01*
G01X9702800Y4265080D02*
Y4185500D01*
X9542780D01*
Y4265080D01*
G01X9620120Y4233250D02*
Y4185500D01*
G01X9702800Y4339550D02*
X9542780D01*
X9702800Y4431070D01*
X9542780D01*
G01X9855200Y5682150D02*
X9918700D01*
Y5656410D01*
G01X9888010Y5665890D02*
Y5682150D01*
G01X9863660Y5627620D02*
X9858370Y5622210D01*
X9855200Y5616110D01*
Y5610690D01*
X9858370Y5605270D01*
X9863660Y5601210D01*
X9871080Y5599180D01*
X9878480Y5600530D01*
X9884830Y5603920D01*
X9889070Y5610010D01*
X9891180Y5618140D01*
X9895420Y5622880D01*
X9902820Y5624920D01*
X9910230Y5623560D01*
X9915520Y5620170D01*
X9918700Y5615430D01*
Y5610690D01*
X9916580Y5605950D01*
X9911290Y5601880D01*
G01X9855200Y5543970D02*
Y5571070D01*
X9918700D01*
Y5543970D01*
G01X9888010Y5554810D02*
Y5571070D01*
G01X9855200Y5517220D02*
X9918700D01*
X9855200Y5486060D01*
X9918700D01*
G01X9764010Y6154420D02*
X9811760D01*
G01X9787890D02*
Y5994400D01*
G01X9764010D02*
X9811760D01*
G01X9855200Y6698150D02*
X9918700D01*
Y6672410D01*
G01X9888010Y6681890D02*
Y6698150D01*
G01X9863660Y6643620D02*
X9858370Y6638210D01*
X9855200Y6632110D01*
Y6626690D01*
X9858370Y6621270D01*
X9863660Y6617210D01*
X9871080Y6615180D01*
X9878480Y6616530D01*
X9884830Y6619920D01*
X9889070Y6626010D01*
X9891180Y6634140D01*
X9895420Y6638880D01*
X9902820Y6640920D01*
X9910230Y6639560D01*
X9915520Y6636170D01*
X9918700Y6631430D01*
Y6626690D01*
X9916580Y6621950D01*
X9911290Y6617880D01*
G01X9855200Y6559970D02*
Y6587070D01*
X9918700D01*
Y6559970D01*
G01X9888010Y6570810D02*
Y6587070D01*
G01X9855200Y6533220D02*
X9918700D01*
X9855200Y6502060D01*
X9918700D01*
G01X9764010Y7170420D02*
X9811760D01*
G01X9787890D02*
Y7010400D01*
G01X9764010D02*
X9811760D01*
G01X9947150Y9134260D02*
X9939270Y9129390D01*
X9934020Y9123550D01*
X9931400Y9116740D01*
X9934020Y9108950D01*
X9939270Y9103110D01*
X9947150Y9097260D01*
X9957650Y9095320D01*
X10010140D01*
G01X9931400Y9036050D02*
X10010140D01*
X9994390Y9047730D01*
G01X9931400D02*
Y9024370D01*
M02*
