G04 ================== begin FILE IDENTIFICATION RECORD ==================*
G04 Layout Name:  C:/Jeonghyun/Lab/EEM2TTL3/allegro/eem2ttl.brd*
G04 Film Name:    Soldermask_BOTTOM*
G04 File Format:  Gerber RS274X*
G04 File Origin:  Cadence Allegro 23.1-S003*
G04 Origin Date:  Sat Jul 27 12:53:41 2024*
G04 *
G04 Layer:  VIA CLASS/SOLDERMASK_BOTTOM*
G04 Layer:  PIN/SOLDERMASK_BOTTOM*
G04 Layer:  DRC ERROR CLASS/SOLDERMASK_BOTTOM*
G04 *
G04 Offset:    (0.0000 0.0000)*
G04 Mirror:    No*
G04 Mode:      Positive*
G04 Rotation:  0*
G04 FullContactRelief:  No*
G04 UndefLineWidth:     0.0000*
G04 ================== end FILE IDENTIFICATION RECORD ====================*
%FSLAX25Y25*MOMM*%
%IR0*IPPOS*OFA0.00000B0.00000*MIA0B0*SFA1.00000B1.00000*%
%AMMACRO19*
4,1,38,.9,-1.25,
.9,1.25,
.886327,1.406283,
.845723,1.557818,
.779423,1.7,
.68944,1.828509,
.578509,1.93944,
.45,2.029423,
.307818,2.095723,
.156283,2.136327,
0.0,2.15,
-.156283,2.136327,
-.307818,2.095723,
-.45,2.029423,
-.578509,1.93944,
-.68944,1.828509,
-.779423,1.7,
-.845723,1.557818,
-.886327,1.406283,
-.9,1.25,
-.9,-1.25,
-.886327,-1.406283,
-.845723,-1.557818,
-.779423,-1.7,
-.68944,-1.828509,
-.578509,-1.93944,
-.45,-2.029423,
-.307818,-2.095723,
-.156283,-2.136327,
0.0,-2.15,
.156283,-2.136327,
.307818,-2.095723,
.45,-2.029423,
.578509,-1.93944,
.68944,-1.828509,
.779423,-1.7,
.845723,-1.557818,
.886327,-1.406283,
.9,-1.25,
0.0*
%
%ADD19MACRO19*%
%AMMACRO20*
4,1,38,2.4,0.0,
2.386327,.156283,
2.345723,.307818,
2.279423,.45,
2.18944,.578509,
2.078509,.68944,
1.95,.779423,
1.807818,.845723,
1.656283,.886327,
1.5,.9,
-1.5,.9,
-1.656283,.886327,
-1.807818,.845723,
-1.95,.779423,
-2.078509,.68944,
-2.18944,.578509,
-2.279423,.45,
-2.345723,.307818,
-2.386327,.156283,
-2.4,0.0,
-2.386327,-.156283,
-2.345723,-.307818,
-2.279423,-.45,
-2.18944,-.578509,
-2.078509,-.68944,
-1.95,-.779423,
-1.807818,-.845723,
-1.656283,-.886327,
-1.5,-.9,
1.5,-.9,
1.656283,-.886327,
1.807818,-.845723,
1.95,-.779423,
2.078509,-.68944,
2.18944,-.578509,
2.279423,-.45,
2.345723,-.307818,
2.386327,-.156283,
2.4,0.0,
0.0*
%
%ADD20MACRO20*%
%ADD14C,1.2*%
%ADD13C,3.*%
%ADD10C,5.*%
%ADD12C,1.5*%
%ADD16C,1.8*%
%ADD18C,1.651*%
%ADD15R,1.8X1.8*%
%ADD17R,1.651X1.651*%
%ADD11R,1.778X1.778*%
%LPD*%
G75*
G54D10*
X400000Y400000D03*
Y8000000D03*
X9600000Y400000D03*
Y8000000D03*
G54D11*
X254000Y5588000D03*
Y5842000D03*
Y6604000D03*
Y6858000D03*
X508000Y3810000D03*
X1270000Y5588000D03*
Y5842000D03*
Y6604000D03*
Y6858000D03*
X2032000Y3810000D03*
X2794000D03*
X4318000D03*
X4673600Y6477000D03*
X5588000Y3810000D03*
X7112000D03*
X7874000D03*
X8128000Y5588000D03*
Y5842000D03*
Y6604000D03*
Y6858000D03*
X8458200Y9804400D03*
X9144000Y5588000D03*
Y5842000D03*
Y6604000D03*
Y6858000D03*
X9398000Y3810000D03*
G54D20*
X9677400Y8636000D03*
Y9236000D03*
G54D12*
X508000Y4064000D03*
Y4318000D03*
Y5588000D03*
Y5842000D03*
Y6604000D03*
Y6858000D03*
X762000Y5588000D03*
Y5842000D03*
Y6604000D03*
Y6858000D03*
X1524000Y5588000D03*
Y5842000D03*
Y6604000D03*
Y6858000D03*
X1778000Y5588000D03*
Y5842000D03*
Y6604000D03*
Y6858000D03*
X2032000Y4064000D03*
Y4318000D03*
X2794000Y4064000D03*
Y4318000D03*
X4318000Y4064000D03*
Y4318000D03*
X4927600Y6477000D03*
X5181600D03*
X5588000Y4064000D03*
Y4318000D03*
X7112000Y4064000D03*
Y4318000D03*
X7874000Y4064000D03*
Y4318000D03*
X7950200Y9804400D03*
X8382000Y5588000D03*
Y5842000D03*
Y6604000D03*
Y6858000D03*
X8204200Y9804400D03*
X8636000Y5588000D03*
Y5842000D03*
Y6604000D03*
Y6858000D03*
X9398000Y4064000D03*
Y4318000D03*
Y5588000D03*
Y5842000D03*
Y6604000D03*
Y6858000D03*
X9652000Y5588000D03*
Y5842000D03*
Y6604000D03*
Y6858000D03*
G54D13*
X1270000Y635000D03*
X2286000D03*
X3302000D03*
X4318000D03*
X5334000D03*
X6350000D03*
X7366000D03*
X8382000D03*
G54D14*
X1520000Y1524000D03*
X1778000Y1270000D03*
Y1524000D03*
X2033000D03*
X3552000D03*
X3810000Y1270000D03*
Y1524000D03*
X4065000D03*
X5584000D03*
X5842000Y1270000D03*
Y1524000D03*
X6097000D03*
X7616000D03*
X7874000Y1270000D03*
Y1524000D03*
X8129000D03*
G54D15*
X2667000Y635000D03*
X4699000D03*
X6731000D03*
X8763000D03*
G54D16*
X2667000Y889000D03*
X2921000Y635000D03*
Y889000D03*
X4699000D03*
X4953000Y635000D03*
Y889000D03*
X6731000D03*
X6985000Y635000D03*
Y889000D03*
X8763000D03*
X9017000Y635000D03*
Y889000D03*
G54D17*
X3302000Y9144000D03*
G54D18*
Y9398000D03*
X3556000Y9144000D03*
Y9398000D03*
X3810000Y9144000D03*
Y9398000D03*
X4064000Y9144000D03*
Y9398000D03*
X4318000Y9144000D03*
Y9398000D03*
X4572000Y9144000D03*
Y9398000D03*
X4826000Y9144000D03*
Y9398000D03*
X5080000Y9144000D03*
Y9398000D03*
X5334000Y9144000D03*
Y9398000D03*
X5588000Y9144000D03*
Y9398000D03*
X5842000Y9144000D03*
Y9398000D03*
X6096000Y9144000D03*
Y9398000D03*
X6604000Y9144000D03*
X6350000D03*
X6604000Y9398000D03*
X6350000D03*
X6858000Y9144000D03*
Y9398000D03*
G54D19*
X9212400Y8886000D03*
M02*
