G04 ================== begin FILE IDENTIFICATION RECORD ==================*
G04 Layout Name:  C:/Jeonghyun/Lab/EEM2TTL3/allegro/eem2ttl.brd*
G04 Film Name:    Soldermask_TOP*
G04 File Format:  Gerber RS274X*
G04 File Origin:  Cadence Allegro 23.1-S003*
G04 Origin Date:  Sat Jul 27 12:53:41 2024*
G04 *
G04 Layer:  VIA CLASS/SOLDERMASK_TOP*
G04 Layer:  PIN/SOLDERMASK_TOP*
G04 Layer:  DRC ERROR CLASS/SOLDERMASK_TOP*
G04 *
G04 Offset:    (0.0000 0.0000)*
G04 Mirror:    No*
G04 Mode:      Positive*
G04 Rotation:  0*
G04 FullContactRelief:  No*
G04 UndefLineWidth:     0.0000*
G04 ================== end FILE IDENTIFICATION RECORD ====================*
%FSLAX25Y25*MOMM*%
%IR0*IPPOS*OFA0.00000B0.00000*MIA0B0*SFA1.00000B1.00000*%
%ADD31R,1.1501X.5999*%
%AMMACRO26*
4,1,44,-.3975,.13,
.3975,.13,
.403133,.129518,
.408597,.128066,
.413726,.125687,
.418364,.122453,
.42237,.118463,
.425622,.113839,
.428022,.108719,
.429496,.103261,
.43,.09763,
.43,.0975,
.43,-.0975,
.429518,-.103133,
.428066,-.108597,
.425687,-.113726,
.422453,-.118364,
.418463,-.12237,
.413839,-.125622,
.408719,-.128022,
.403261,-.129496,
.39763,-.13,
.3975,-.13,
-.3975,-.13,
-.403133,-.129518,
-.408597,-.128066,
-.413726,-.125687,
-.418364,-.122453,
-.42237,-.118463,
-.425622,-.113839,
-.428022,-.108719,
-.429496,-.103261,
-.43,-.09763,
-.43,-.0975,
-.43,.0975,
-.429518,.103133,
-.428066,.108597,
-.425687,.113726,
-.422453,.118364,
-.418463,.12237,
-.413839,.125622,
-.408719,.128022,
-.403261,.129496,
-.39763,.13,
-.3975,.13,
0.0*
%
%ADD26MACRO26*%
%AMMACRO24*
4,1,44,-.13,-.3975,
-.13,.3975,
-.129518,.403133,
-.128066,.408597,
-.125687,.413726,
-.122453,.418364,
-.118463,.42237,
-.113839,.425622,
-.108719,.428022,
-.103261,.429496,
-.09763,.43,
-.0975,.43,
.0975,.43,
.103133,.429518,
.108597,.428066,
.113726,.425687,
.118364,.422453,
.12237,.418463,
.125622,.413839,
.128022,.408719,
.129496,.403261,
.13,.39763,
.13,.3975,
.13,-.3975,
.129518,-.403133,
.128066,-.408597,
.125687,-.413726,
.122453,-.418364,
.118463,-.42237,
.113839,-.425622,
.108719,-.428022,
.103261,-.429496,
.09763,-.43,
.0975,-.43,
-.0975,-.43,
-.103133,-.429518,
-.108597,-.428066,
-.113726,-.425687,
-.118364,-.422453,
-.12237,-.418463,
-.125622,-.413839,
-.128022,-.408719,
-.129496,-.403261,
-.13,-.39763,
-.13,-.3975,
0.0*
%
%ADD24MACRO24*%
%AMMACRO34*
4,1,38,.9,-1.25,
.9,1.25,
.886327,1.406283,
.845723,1.557818,
.779423,1.7,
.68944,1.828509,
.578509,1.93944,
.45,2.029423,
.307818,2.095723,
.156283,2.136327,
0.0,2.15,
-.156283,2.136327,
-.307818,2.095723,
-.45,2.029423,
-.578509,1.93944,
-.68944,1.828509,
-.779423,1.7,
-.845723,1.557818,
-.886327,1.406283,
-.9,1.25,
-.9,-1.25,
-.886327,-1.406283,
-.845723,-1.557818,
-.779423,-1.7,
-.68944,-1.828509,
-.578509,-1.93944,
-.45,-2.029423,
-.307818,-2.095723,
-.156283,-2.136327,
0.0,-2.15,
.156283,-2.136327,
.307818,-2.095723,
.45,-2.029423,
.578509,-1.93944,
.68944,-1.828509,
.779423,-1.7,
.845723,-1.557818,
.886327,-1.406283,
.9,-1.25,
0.0*
%
%ADD34MACRO34*%
%ADD33R,2.0201X1.4*%
%ADD29R,2.4X3.2*%
%AMMACRO35*
4,1,38,2.4,0.0,
2.386327,.156283,
2.345723,.307818,
2.279423,.45,
2.18944,.578509,
2.078509,.68944,
1.95,.779423,
1.807818,.845723,
1.656283,.886327,
1.5,.9,
-1.5,.9,
-1.656283,.886327,
-1.807818,.845723,
-1.95,.779423,
-2.078509,.68944,
-2.18944,.578509,
-2.279423,.45,
-2.345723,.307818,
-2.386327,.156283,
-2.4,0.0,
-2.386327,-.156283,
-2.345723,-.307818,
-2.279423,-.45,
-2.18944,-.578509,
-2.078509,-.68944,
-1.95,-.779423,
-1.807818,-.845723,
-1.656283,-.886327,
-1.5,-.9,
1.5,-.9,
1.656283,-.886327,
1.807818,-.845723,
1.95,-.779423,
2.078509,-.68944,
2.18944,-.578509,
2.279423,-.45,
2.345723,-.307818,
2.386327,-.156283,
2.4,0.0,
0.0*
%
%ADD35MACRO35*%
%ADD32R,2.72X1.22*%
%ADD18C,1.2*%
%ADD16C,3.*%
%ADD10C,5.*%
%ADD12C,1.5*%
%ADD17R,.25X.35*%
%ADD20C,1.8*%
%ADD25R,5.35X5.35*%
%ADD30R,.5001X.475*%
%ADD28C,1.651*%
%ADD13R,.475X.5001*%
%ADD15R,1.27X2.97*%
%ADD19R,1.8X1.8*%
%ADD27R,1.651X1.651*%
%ADD23R,.7X.6749*%
%ADD21R,.6749X.7*%
%ADD14R,.7399X.8001*%
%ADD22R,.8001X.7399*%
%ADD11R,1.778X1.778*%
%LPD*%
G75*
G54D10*
X400000Y400000D03*
Y8000000D03*
X9600000Y400000D03*
Y8000000D03*
G54D11*
X254000Y5588000D03*
Y5842000D03*
Y6604000D03*
Y6858000D03*
X508000Y3810000D03*
X1270000Y5588000D03*
Y5842000D03*
Y6604000D03*
Y6858000D03*
X2032000Y3810000D03*
X2794000D03*
X4318000D03*
X4673600Y6477000D03*
X5588000Y3810000D03*
X7112000D03*
X7874000D03*
X8128000Y5588000D03*
Y5842000D03*
Y6604000D03*
Y6858000D03*
X8458200Y9804400D03*
X9144000Y5588000D03*
Y5842000D03*
Y6604000D03*
Y6858000D03*
X9398000Y3810000D03*
G54D20*
X2667000Y889000D03*
X2921000Y635000D03*
Y889000D03*
X4699000D03*
X4953000Y635000D03*
Y889000D03*
X6731000D03*
X6985000Y635000D03*
Y889000D03*
X8763000D03*
X9017000Y635000D03*
Y889000D03*
G54D21*
X2845200Y1270000D03*
X2742800D03*
X2845200Y1524000D03*
X2742800D03*
X3098400Y7086600D03*
X3200800D03*
X3403200D03*
X3505600D03*
X4877200Y1270000D03*
X4774800D03*
X4877200Y1524000D03*
X4774800D03*
X6654400Y7086600D03*
X6756800D03*
X6909200Y1270000D03*
X6806800D03*
X6909200Y1524000D03*
X6806800D03*
X6959200Y7086600D03*
X7061600D03*
X8838800Y1270000D03*
Y1524000D03*
X8941200Y1270000D03*
Y1524000D03*
G54D30*
X7696200Y9346800D03*
Y9449200D03*
G54D12*
X508000Y4064000D03*
Y4318000D03*
Y5588000D03*
Y5842000D03*
Y6604000D03*
Y6858000D03*
X762000Y5588000D03*
Y5842000D03*
Y6604000D03*
Y6858000D03*
X1524000Y5588000D03*
Y5842000D03*
Y6604000D03*
Y6858000D03*
X1778000Y5588000D03*
Y5842000D03*
Y6604000D03*
Y6858000D03*
X2032000Y4064000D03*
Y4318000D03*
X2794000Y4064000D03*
Y4318000D03*
X4318000Y4064000D03*
Y4318000D03*
X4927600Y6477000D03*
X5181600D03*
X5588000Y4064000D03*
Y4318000D03*
X7112000Y4064000D03*
Y4318000D03*
X7874000Y4064000D03*
Y4318000D03*
X7950200Y9804400D03*
X8382000Y5588000D03*
Y5842000D03*
Y6604000D03*
Y6858000D03*
X8204200Y9804400D03*
X8636000Y5588000D03*
Y5842000D03*
Y6604000D03*
Y6858000D03*
X9398000Y4064000D03*
Y4318000D03*
Y5588000D03*
Y5842000D03*
Y6604000D03*
Y6858000D03*
X9652000Y5588000D03*
Y5842000D03*
Y6604000D03*
Y6858000D03*
G54D22*
X2819400Y6697800D03*
Y6611800D03*
X2971800Y7069000D03*
Y7155000D03*
X3632200Y7069000D03*
Y7155000D03*
X3784600Y6697800D03*
Y6611800D03*
X6375400Y6697800D03*
Y6611800D03*
X6527800Y7069000D03*
Y7155000D03*
X7188200Y7069000D03*
Y7155000D03*
X7340600Y6697800D03*
Y6611800D03*
X7848600Y9151800D03*
Y9237800D03*
G54D13*
X431400Y6121400D03*
Y7137400D03*
X533800Y6121400D03*
X685400D03*
X533800Y7137400D03*
X685400D03*
X787800Y6121400D03*
Y7137400D03*
X1447400Y6121400D03*
Y7137400D03*
X1549800Y6121400D03*
X1701400D03*
X1549800Y7137400D03*
X1701400D03*
X1803800Y6121400D03*
Y7137400D03*
X4922920Y6101080D03*
X4820520D03*
X7568800Y9575800D03*
X7671200D03*
X8305400Y6121400D03*
Y7137400D03*
X8559400Y6121400D03*
X8407800D03*
X8559400Y7137400D03*
X8407800D03*
X8661800Y6121400D03*
Y7137400D03*
X9321400Y6121400D03*
Y7137400D03*
X9423800Y6121400D03*
X9575400D03*
X9423800Y7137400D03*
X9575400D03*
X9677800Y6121400D03*
Y7137400D03*
G54D31*
X7871000Y9379200D03*
Y9474200D03*
Y9569200D03*
X8131000Y9379200D03*
Y9569200D03*
Y9474200D03*
G54D14*
X439600Y6299200D03*
Y7340600D03*
X525600Y6299200D03*
X693600D03*
X525600Y7340600D03*
X693600D03*
X779600Y6299200D03*
Y7340600D03*
X1201600Y4419600D03*
Y4292600D03*
X1287600Y4419600D03*
Y4292600D03*
X1541600Y6299200D03*
X1455600D03*
X1541600Y7340600D03*
X1455600D03*
X1709600Y4419600D03*
X1795600D03*
X1709600Y4292600D03*
X1795600D03*
Y6299200D03*
X1709600D03*
X1795600Y7340600D03*
X1709600D03*
X3487600Y4419600D03*
X3573600D03*
X3487600Y4292600D03*
X3573600D03*
X3995600Y4419600D03*
X4081600D03*
X3995600Y4292600D03*
X4081600D03*
X4919800Y6248400D03*
X4833800D03*
X6281600Y4419600D03*
X6367600D03*
X6281600Y4292600D03*
X6367600D03*
X6789600D03*
Y4419600D03*
X6875600Y4292600D03*
Y4419600D03*
X8313600Y6299200D03*
Y7315200D03*
X8567600Y4419600D03*
Y4292600D03*
Y6299200D03*
X8399600D03*
X8567600Y7315200D03*
X8399600D03*
X8653600Y4419600D03*
Y4292600D03*
Y6299200D03*
Y7315200D03*
X9075600Y4419600D03*
Y4292600D03*
X9161600Y4419600D03*
Y4292600D03*
X9415600Y6299200D03*
X9329600D03*
X9415600Y7315200D03*
X9329600D03*
X9669600Y6299200D03*
X9583600D03*
X9669600Y7315200D03*
X9583600D03*
G54D23*
X2819400Y6806800D03*
Y6909200D03*
X3784600D03*
Y6806800D03*
X6375400D03*
Y6909200D03*
X7340600D03*
Y6806800D03*
G54D32*
X8509000Y8831200D03*
Y9101200D03*
X8839200Y8831200D03*
Y9101200D03*
G54D15*
X720600Y4064000D03*
X1006600D03*
X1533400D03*
X1819400D03*
X3006600D03*
X3292600D03*
X3819400D03*
X4105400D03*
X5800600D03*
X6086600D03*
X6613400D03*
X6899400D03*
X8086600D03*
X8372600D03*
X8899400D03*
X9185400D03*
G54D33*
X8356600Y9277400D03*
Y9569400D03*
G54D24*
X3077000Y6260500D03*
X3027000D03*
Y6947500D03*
X3077000D03*
X3327000Y6260500D03*
X3277000D03*
X3227000D03*
X3177000D03*
X3127000D03*
X3177000Y6947500D03*
X3227000D03*
X3277000D03*
X3327000D03*
X3127000D03*
X3577000Y6260500D03*
X3527000D03*
X3477000D03*
X3427000D03*
X3377000D03*
Y6947500D03*
X3427000D03*
X3477000D03*
X3527000D03*
X3577000D03*
X6733000Y6260500D03*
X6683000D03*
X6633000D03*
X6583000D03*
X6733000Y6947500D03*
X6583000D03*
X6633000D03*
X6683000D03*
X6983000Y6260500D03*
X6933000D03*
X6883000D03*
X6833000D03*
X6783000D03*
Y6947500D03*
X6833000D03*
X6883000D03*
X6933000D03*
X6983000D03*
X7133000Y6260500D03*
X7083000D03*
X7033000D03*
Y6947500D03*
X7083000D03*
X7133000D03*
G54D25*
X3302000Y6604000D03*
X6858000D03*
G54D16*
X1270000Y635000D03*
X2286000D03*
X3302000D03*
X4318000D03*
X5334000D03*
X6350000D03*
X7366000D03*
X8382000D03*
G54D34*
X9212400Y8886000D03*
G54D17*
X1116800Y4262600D03*
X1066800D03*
X1016800D03*
Y4322600D03*
X1066800D03*
X1116800D03*
X1524800Y4262600D03*
Y4322600D03*
X1624800Y4262600D03*
X1574800D03*
Y4322600D03*
X1624800D03*
X3352800Y4262600D03*
X3302800D03*
Y4322600D03*
X3352800D03*
X3402800Y4262600D03*
Y4322600D03*
X3860800Y4262600D03*
X3810800D03*
Y4322600D03*
X3860800D03*
X3910800Y4262600D03*
Y4322600D03*
X6196800Y4262600D03*
X6146800D03*
X6096800D03*
Y4322600D03*
X6146800D03*
X6196800D03*
X6704800Y4262600D03*
X6654800D03*
X6604800D03*
Y4322600D03*
X6654800D03*
X6704800D03*
X8482800Y4262600D03*
X8432800D03*
X8382800D03*
Y4322600D03*
X8432800D03*
X8482800D03*
X8990800Y4262600D03*
X8940800D03*
X8890800D03*
Y4322600D03*
X8940800D03*
X8990800D03*
G54D35*
X9677400Y8636000D03*
Y9236000D03*
G54D26*
X2958500Y6329000D03*
Y6379000D03*
Y6429000D03*
Y6479000D03*
Y6529000D03*
Y6579000D03*
Y6629000D03*
Y6679000D03*
Y6729000D03*
Y6779000D03*
Y6829000D03*
Y6879000D03*
X3645500Y6479000D03*
Y6429000D03*
Y6379000D03*
Y6329000D03*
Y6779000D03*
Y6729000D03*
Y6679000D03*
Y6629000D03*
Y6579000D03*
Y6529000D03*
Y6879000D03*
Y6829000D03*
X6514500Y6329000D03*
Y6379000D03*
Y6429000D03*
Y6479000D03*
Y6529000D03*
Y6579000D03*
Y6629000D03*
Y6679000D03*
Y6729000D03*
Y6779000D03*
Y6829000D03*
Y6879000D03*
X7201500Y6479000D03*
Y6429000D03*
Y6379000D03*
Y6329000D03*
Y6779000D03*
Y6729000D03*
Y6679000D03*
Y6629000D03*
Y6579000D03*
Y6529000D03*
Y6879000D03*
Y6829000D03*
G54D27*
X3302000Y9144000D03*
G54D18*
X1520000Y1524000D03*
X1778000Y1270000D03*
Y1524000D03*
X2033000D03*
X3552000D03*
X3810000Y1270000D03*
Y1524000D03*
X4065000D03*
X5584000D03*
X5842000Y1270000D03*
Y1524000D03*
X6097000D03*
X7616000D03*
X7874000Y1270000D03*
Y1524000D03*
X8129000D03*
G54D19*
X2667000Y635000D03*
X4699000D03*
X6731000D03*
X8763000D03*
G54D28*
X3302000Y9398000D03*
X3556000Y9144000D03*
Y9398000D03*
X3810000Y9144000D03*
Y9398000D03*
X4064000Y9144000D03*
Y9398000D03*
X4318000Y9144000D03*
Y9398000D03*
X4572000Y9144000D03*
Y9398000D03*
X4826000Y9144000D03*
Y9398000D03*
X5080000Y9144000D03*
Y9398000D03*
X5334000Y9144000D03*
Y9398000D03*
X5588000Y9144000D03*
Y9398000D03*
X5842000Y9144000D03*
Y9398000D03*
X6096000Y9144000D03*
Y9398000D03*
X6604000Y9144000D03*
X6350000D03*
X6604000Y9398000D03*
X6350000D03*
X6858000Y9144000D03*
Y9398000D03*
G54D29*
X7497800Y8407400D03*
X8097800D03*
M02*
