G04 ================== begin FILE IDENTIFICATION RECORD ==================*
G04 Layout Name:  C:/Jeonghyun/Lab/EEM2TTL7/allegro/eem2ttl.brd*
G04 Film Name:    BOTTOM*
G04 File Format:  Gerber RS274X*
G04 File Origin:  Cadence Allegro 23.1-S003*
G04 Origin Date:  Wed Aug 21 13:22:40 2024*
G04 *
G04 Layer:  ETCH/BOTTOM*
G04 Layer:  PIN/BOTTOM*
G04 Layer:  VIA CLASS/BOTTOM*
G04 *
G04 Offset:    (0.0000 0.0000)*
G04 Mirror:    No*
G04 Mode:      Positive*
G04 Rotation:  0*
G04 FullContactRelief:  No*
G04 UndefLineWidth:     0.0000*
G04 ================== end FILE IDENTIFICATION RECORD ====================*
%FSLAX25Y25*MOMM*%
%IR0*IPPOS*OFA0.00000B0.00000*MIA0B0*SFA1.00000B1.00000*%
%ADD10C,.508*%
%ADD15C,1.2*%
%ADD14C,3.*%
%ADD13C,5.*%
%ADD12C,1.5*%
%ADD20C,4.5*%
%ADD19C,3.8*%
%ADD18C,1.651*%
%ADD17R,1.651X1.651*%
%ADD16C,1.397*%
%ADD11R,1.778X1.778*%
%ADD21C,.2*%
%ADD22C,.127*%
%ADD23C,.238*%
%ADD27C,.7624*%
%ADD30C,1.6514*%
%ADD26C,4.0544*%
%ADD31C,3.2544*%
%ADD29C,1.4544*%
%ADD25C,1.9054*%
%ADD28C,5.2544*%
%ADD24C,1.7544*%
G75*
%LPD*%
G75*
G36*
G01X10Y9999990D02*
X9999990D01*
Y9285700D01*
G02X9980150Y9282620I-10159J0D01*
G03X9753600Y9448320I-226550J-72023D01*
G03Y8972880I0J-237720D01*
G03X9980150Y9138580I0J237723D01*
G02X9999990Y9135500I9681J-3080D01*
G01Y8685700D01*
G02X9980150Y8682620I-10159J0D01*
G03X9753600Y8848320I-226550J-72023D01*
G03Y8372880I0J-237720D01*
G03X9980150Y8538580I0J237723D01*
G02X9999990Y8535500I9681J-3080D01*
G01Y10D01*
X10D01*
Y9999990D01*
G37*
%LPC*%
G75*
G36*
G01X7732840Y4540200D02*
X7756650Y4564010D01*
G02X7774060Y4571220I17410J-17415D01*
G01X8001000D01*
G02X8018410Y4564010I0J-24625D01*
G01X8072670Y4509750D01*
G03X8089980Y4516190I7179J7187D01*
G02X8128000Y4551520I38020J-2792D01*
G02X8155000Y4540310I0J-38121D01*
G03X8169400I7200J7168D01*
G02X8196400Y4551520I27000J-26911D01*
G02X8234520Y4513400I0J-38120D01*
G01Y4513390D01*
G02X8223760Y4486850I-38122J5D01*
G03X8231050Y4469620I7292J-7072D01*
G01X8251120D01*
X8252920Y4471420D01*
X8252950Y4471450D01*
G02X8280400Y4483120I27450J-26449D01*
G02Y4406880I0J-38120D01*
G02X8252950Y4418550I0J38119D01*
G01X8252920Y4418580D01*
X8251120Y4420380D01*
X8102600D01*
G02X8085190Y4427590I0J24625D01*
G01X7990800Y4521980D01*
X7784260D01*
X7774870Y4512590D01*
Y4194250D01*
G02X7767660Y4176840I-24625J0D01*
G01X7707720Y4116900D01*
Y4064000D01*
G02X7620000Y4151720I-87720J0D01*
G01X7672900D01*
X7725630Y4204450D01*
Y4522790D01*
G02X7732840Y4540200I24625J0D01*
G37*
G36*
G01X1477080Y4445780D02*
X1475280Y4443980D01*
X1475250Y4443950D01*
G02X1447800Y4432280I-27450J26449D01*
G02Y4508520I0J38120D01*
G02X1475250Y4496850I0J-38119D01*
G01X1475280Y4496820D01*
X1477080Y4495020D01*
X2082800D01*
G02X2100210Y4487810I0J-24625D01*
G01X2176410Y4411610D01*
G02X2183620Y4394200I-17415J-17410D01*
G01Y4201200D01*
X2233100Y4151720D01*
X2286000D01*
G02X2198280Y4064000I0J-87720D01*
G01Y4116900D01*
X2141590Y4173590D01*
G02X2134380Y4191000I17415J17410D01*
G01Y4384000D01*
X2072600Y4445780D01*
X1477080D01*
G37*
G36*
G01X541390Y7662810D02*
G02X558800Y7670020I17410J-17415D01*
G01X3606800D01*
G02X3624210Y7662810I0J-24625D01*
G01X4360810Y6926210D01*
G02X4368020Y6908800I-17415J-17410D01*
G01Y6604000D01*
G02X4360810Y6586590I-24625J0D01*
G01X4314450Y6540230D01*
X4314110Y6539610D01*
G02X4310010Y6534190I-21500J12003D01*
G01X4286210Y6510390D01*
G02X4268800Y6503180I-17410J17415D01*
G01X4145680D01*
G02X4128270Y6510390I0J24625D01*
G01X4100760Y6537910D01*
X4094550Y6541230D01*
X4093870Y6541380D01*
G02X4063980Y6578600I8229J37220D01*
G02X4140220I38120J0D01*
G01Y6568080D01*
X4155880Y6552420D01*
X4258600D01*
X4270750Y6564570D01*
X4271090Y6565190D01*
G02X4275190Y6570610I21500J-12003D01*
G01X4278710Y6574130D01*
G03X4270620Y6591430I-7183J7183D01*
G02X4267200Y6591280I-3379J37972D01*
G02X4239470Y6603250I5J38118D01*
G03X4222170Y6598530I-7392J-6971D01*
G02X4185000Y6568880I-37170J8474D01*
G02X4146880Y6607000I0J38120D01*
G02X4158550Y6634450I38119J0D01*
G01X4158580Y6634480D01*
X4160380Y6636280D01*
Y6904600D01*
X4067300Y6997680D01*
X4064000D01*
G02X4051350Y6999840I0J38122D01*
G03X4037820Y6990260I-3370J-9584D01*
G01Y6582480D01*
X4039620Y6580680D01*
X4039650Y6580650D01*
G02X4051320Y6553200I-26449J-27450D01*
G02X3975080I-38120J0D01*
G02X3986750Y6580650I38119J0D01*
G01X3986780Y6580680D01*
X3988580Y6582480D01*
Y7000200D01*
X3723600Y7265180D01*
X3464600D01*
X3390920Y7191500D01*
Y7188200D01*
G02X3314680I-38120J0D01*
G01Y7191500D01*
X3306470Y7199710D01*
G03X3289170Y7191620I-7183J-7183D01*
G02X3289320Y7188200I-37972J-3379D01*
G02X3213080I-38120J0D01*
G01Y7191500D01*
X3198430Y7206150D01*
G02X3191220Y7223560I17415J17410D01*
G01Y7238760D01*
X3012400Y7417580D01*
X1558000D01*
X1548620Y7408200D01*
Y6957430D01*
X1585410Y6920640D01*
X1585430Y6920620D01*
G02X1611720Y6858000I-61432J-62620D01*
G02X1524000Y6770280I-87720J0D01*
G01X1468410D01*
X1419720Y6721590D01*
Y6502400D01*
G02X1413070Y6486330I-22723J-8D01*
G01X1140320Y6213590D01*
Y5562600D01*
G02X1133670Y5546530I-22723J-8D01*
G01X759320Y5172190D01*
Y4505220D01*
X796820Y4467720D01*
X820720D01*
Y4476360D01*
X817380Y4477570D01*
G02X792280Y4513400I13023J35830D01*
G02X806990Y4543480I38110J0D01*
G03Y4559520I-6243J8020D01*
G02X792280Y4589600I23400J30080D01*
G02X868520I38120J0D01*
G02X853810Y4559520I-38110J0D01*
G03Y4543480I6243J-8020D01*
G02X868520Y4513400I-23400J-30080D01*
G02X843420Y4477570I-38123J0D01*
G01X840080Y4476360D01*
Y4467720D01*
X854180D01*
X923720Y4537270D01*
G02X939790Y4543920I16062J-16073D01*
G01X990590D01*
G02X1006660Y4537270I8J-22723D01*
G01X1085570Y4458360D01*
G02X1092220Y4442290I-16073J-16062D01*
G01Y4324710D01*
X1381010Y4035920D01*
X1676390D01*
G02X1692460Y4029270I8J-22723D01*
G01X1717870Y4003860D01*
G02X1724520Y3987790I-16073J-16062D01*
G01Y3489210D01*
X1873610Y3340120D01*
X1879600D01*
G02X1841480Y3302000I0J-38120D01*
G01Y3307990D01*
X1685730Y3463730D01*
G02X1679080Y3479800I16073J16062D01*
G01Y3978380D01*
X1666980Y3990480D01*
X1371600D01*
G02X1355530Y3997130I-8J22723D01*
G01X1053430Y4299230D01*
G02X1046780Y4315300I16073J16062D01*
G01Y4432880D01*
X981180Y4498480D01*
X949200D01*
X879660Y4428930D01*
G02X863590Y4422280I-16062J16073D01*
G01X787410D01*
G02X771340Y4428930I-8J22723D01*
G01X720530Y4479740D01*
G02X713880Y4495810I16073J16062D01*
G01Y5181600D01*
G02X720530Y5197670I22723J8D01*
G01X1094880Y5572010D01*
Y6223000D01*
G02X1101530Y6239070I22723J8D01*
G01X1347510Y6485040D01*
G03X1340320Y6502380I-7188J7180D01*
G01X1181100D01*
G02X1168380Y6515100I0J12720D01*
G01Y6692900D01*
G02X1181100Y6705620I12720J0D01*
G01X1358900D01*
G02X1361800Y6705280I-21J-12718D01*
G03X1374280Y6715180I2319J9893D01*
G01Y6731000D01*
G02X1380930Y6747070I22723J8D01*
G01X1436280Y6802410D01*
Y6858000D01*
G02X1462570Y6920620I87722J0D01*
G01X1462590Y6920640D01*
X1499380Y6957430D01*
Y7418400D01*
G02X1506590Y7435810I24625J0D01*
G01X1521820Y7451040D01*
G03X1514630Y7468380I-7186J7181D01*
G01X1432600D01*
X1015220Y7051000D01*
Y6324600D01*
G02X1008010Y6307190I-24625J0D01*
G01X595720Y5894900D01*
Y5842000D01*
G02X508000Y5929720I-87720J0D01*
G01X560900D01*
X965980Y6334800D01*
Y7061200D01*
G02X973190Y7078610I24625J0D01*
G01X1396420Y7501840D01*
G03X1389230Y7519180I-7186J7181D01*
G01X1204000D01*
X595720Y6910900D01*
Y6858000D01*
G02X508000Y6945720I-87720J0D01*
G01X560900D01*
X1167820Y7552640D01*
G03X1160630Y7569980I-7186J7181D01*
G01X721400D01*
X507220Y7355800D01*
Y7061190D01*
G02X500010Y7043780I-24625J0D01*
G01X405620Y6949390D01*
Y6741200D01*
X455100Y6691720D01*
X508000D01*
G02X420280Y6604000I0J-87720D01*
G01Y6656900D01*
X363590Y6713590D01*
G02X356380Y6731000I17415J17410D01*
G01Y6746460D01*
G03X344750Y6756510I-10158J-1D01*
G02X342900Y6756380I-1814J12592D01*
G01X165100D01*
G02X152380Y6769100I0J12720D01*
G01Y6946900D01*
G02X165100Y6959620I12720J0D01*
G01X342900D01*
G02X345510Y6959350I3J-12720D01*
G03X357360Y6966460I2093J9942D01*
G02X363590Y6977000I23644J-6864D01*
G01X457980Y7071390D01*
Y7366000D01*
G02X465190Y7383410I24625J0D01*
G01X685220Y7603440D01*
G03X678030Y7620780I-7186J7181D01*
G01X569000D01*
X126220Y7178000D01*
Y6258600D01*
X398410Y5986410D01*
G02X405620Y5969000I-17415J-17410D01*
G01Y5725200D01*
X455100Y5675720D01*
X508000D01*
G02X420280Y5588000I0J-87720D01*
G01Y5640900D01*
X363590Y5697590D01*
G02X356380Y5715000I17415J17410D01*
G01Y5730460D01*
G03X344750Y5740510I-10158J-1D01*
G02X342900Y5740380I-1814J12592D01*
G01X165100D01*
G02X152380Y5753100I0J12720D01*
G01Y5930900D01*
G02X165100Y5943620I12720J0D01*
G01X342900D01*
G02X344750Y5943490I36J-12722D01*
G03X356380Y5953540I1472J10051D01*
G01Y5958800D01*
X84190Y6230990D01*
G02X76980Y6248400I17415J17410D01*
G01Y7188200D01*
G02X84190Y7205610I24625J0D01*
G01X541390Y7662810D01*
G37*
G36*
G01X6408790Y7561210D02*
G02X6426200Y7568420I17410J-17415D01*
G01X9550400D01*
G02X9567810Y7561210I0J-24625D01*
G01X9847210Y7281810D01*
G02X9854420Y7264400I-17415J-17410D01*
G01Y6273800D01*
G02X9847210Y6256390I-24625J0D01*
G01X9549620Y5958800D01*
Y5715000D01*
G02X9542410Y5697590I-24625J0D01*
G01X9485720Y5640900D01*
Y5588000D01*
G02X9398000Y5675720I-87720J0D01*
G01X9450900D01*
X9500380Y5725200D01*
Y5969000D01*
G02X9507590Y5986410I24625J0D01*
G01X9805180Y6284000D01*
Y6495030D01*
G03X9787840Y6502220I-10159J4D01*
G01X9669010Y6383390D01*
G02X9651600Y6376180I-17410J17415D01*
G01X9433600D01*
X9422620Y6365200D01*
Y5941430D01*
X9459410Y5904640D01*
G02X9485720Y5842000I-61413J-62640D01*
G02X9310280I-87720J0D01*
G02X9336590Y5904640I87723J0D01*
G01X9373380Y5941430D01*
Y6375400D01*
G02X9380590Y6392810I24625J0D01*
G01X9405990Y6418210D01*
G02X9423400Y6425420I17410J-17415D01*
G01X9641400D01*
X9754380Y6538400D01*
Y7228800D01*
X9617760Y7365420D01*
G03X9600420Y7358230I-7181J-7186D01*
G01Y6946680D01*
G03X9614880Y6937480I10159J4D01*
G02X9652000Y6945720I37120J-79490D01*
G02Y6770280I0J-87720D01*
G02X9593910Y6792270I0J87722D01*
G03X9577020Y6784660I-6730J-7610D01*
G01Y6758400D01*
G02X9569810Y6740990I-24625J0D01*
G01X9485720Y6656900D01*
Y6604000D01*
G02X9398000Y6691720I-87720J0D01*
G01X9450900D01*
X9527780Y6768600D01*
Y6899270D01*
G02X9534990Y6916680I24625J0D01*
G01X9551180Y6932870D01*
Y7355800D01*
X9489400Y7417580D01*
X8897770D01*
G03X8890580Y7400240I-4J-10159D01*
G01X9345100Y6945720D01*
X9398000D01*
G02X9310280Y6858000I0J-87720D01*
G01Y6910900D01*
X8854400Y7366780D01*
X6817000D01*
X6807620Y7357400D01*
Y7292480D01*
X6809420Y7290680D01*
X6809450Y7290650D01*
G02Y7235750I-26449J-27450D01*
G01X6809420Y7235720D01*
X6807620Y7233920D01*
Y7113200D01*
G02X6800410Y7095790I-24625J0D01*
G01X6501620Y6797000D01*
Y6578600D01*
G02X6494410Y6561190I-24625J0D01*
G01X6443610Y6510390D01*
G02X6426200Y6503180I-17410J17415D01*
G01X6038250D01*
X6019020Y6483950D01*
Y5892800D01*
G02X6011810Y5875390I-24625J0D01*
G01X5206220Y5069800D01*
Y3652120D01*
G02X5199010Y3634710I-24625J0D01*
G01X5156220Y3591920D01*
Y3570880D01*
X5171080Y3556020D01*
X5175320D01*
G02X5192730Y3548810I0J-24625D01*
G01X5249010Y3492530D01*
G02X5256220Y3475120I-17415J-17410D01*
G01Y3433680D01*
G02X5249010Y3416270I-24625J0D01*
G01X5206220Y3373480D01*
Y1381800D01*
X5496600Y1091420D01*
X5933400D01*
X6738990Y1897010D01*
G02X6756400Y1904220I17410J-17415D01*
G01X6934200D01*
G02X6951610Y1897010I0J-24625D01*
G01X7053210Y1795410D01*
G02X7060420Y1778000I-17415J-17410D01*
G01Y1553280D01*
X7062220Y1551480D01*
X7062250Y1551450D01*
G02X7073920Y1524000I-26449J-27450D01*
G02X6997680I-38120J0D01*
G02X7009350Y1551450I38119J0D01*
G01X7009380Y1551480D01*
X7011180Y1553280D01*
Y1767800D01*
X6924000Y1854980D01*
X6766600D01*
X5961010Y1049390D01*
G02X5943600Y1042180I-17410J17415D01*
G01X5486400D01*
G02X5468990Y1049390I0J24625D01*
G01X5164190Y1354190D01*
G02X5156980Y1371600I17415J17410D01*
G01Y3383680D01*
G02X5164190Y3401090I24625J0D01*
G01X5206980Y3443880D01*
Y3464920D01*
X5165120Y3506780D01*
X5160880D01*
G02X5143470Y3513990I0J24625D01*
G01X5114190Y3543270D01*
G02X5106980Y3560680I17415J17410D01*
G01Y3602120D01*
G02X5114190Y3619530I24625J0D01*
G01X5156980Y3662320D01*
Y5080000D01*
G02X5164190Y5097410I24625J0D01*
G01X5969780Y5903000D01*
Y6517600D01*
X5865430Y6621950D01*
G02X5858220Y6639360I17415J17410D01*
G01Y6686510D01*
G03X5844110Y6695880I-10161J7D01*
G02X5829300Y6692880I-14822J35117D01*
G02X5791180Y6731000I0J38120D01*
G02X5791330Y6734420I38122J41D01*
G01X5791550Y6736780D01*
X5786270Y6742060D01*
X5778520Y6734300D01*
Y6731000D01*
G02X5740400Y6769120I-38120J0D01*
G01X5743700D01*
X5751140Y6776560D01*
Y6809390D01*
G03X5733800Y6816580I-10159J4D01*
G01X5698780Y6781560D01*
Y6766360D01*
G02X5691570Y6748950I-24625J0D01*
G01X5676920Y6734300D01*
Y6731000D01*
G02X5638800Y6769120I-38120J0D01*
G01X5642100D01*
X5649540Y6776560D01*
Y6791760D01*
G02X5656750Y6809170I24625J0D01*
G01X6408790Y7561210D01*
G37*
G36*
G01X901680Y4416300D02*
Y4419300D01*
G02Y4419600I38121J150D01*
G02X939800Y4381480I38120J0D01*
G02X939500I-150J38121D01*
G01X936500D01*
X833560Y4278540D01*
G03X838570Y4261430I7184J-7185D01*
G02X868520Y4224200I-8165J-37230D01*
G02X830400Y4186080I-38120J0D01*
G02X793170Y4216030I0J38115D01*
G03X776060Y4221040I-9925J-2174D01*
G01X728610Y4173590D01*
G02X711200Y4166380I-17410J17415D01*
G01X391200D01*
X341720Y4116900D01*
Y4064000D01*
G02X254000Y4151720I-87720J0D01*
G01X306900D01*
X363590Y4208410D01*
G02X381000Y4215620I17410J-17415D01*
G01X701000D01*
X901680Y4416300D01*
G37*
G36*
G01X4298590Y6337280D02*
X4292600D01*
G02X4330720Y6375400I0J38120D01*
G01Y6369410D01*
X4892870Y5807270D01*
G02X4899520Y5791200I-16073J-16062D01*
G01Y3759200D01*
G02X4892870Y3743130I-22723J-8D01*
G01X4765870Y3616130D01*
G02X4749800Y3609480I-16062J16073D01*
G01X4374580D01*
X4371070Y3605980D01*
X4371030Y3605940D01*
G02X4343400Y3594080I-27630J26255D01*
G02Y3670320I0J38120D01*
G02X4371030Y3658460I0J-38115D01*
G01X4371070Y3658420D01*
X4374580Y3654920D01*
X4740390D01*
X4854080Y3768610D01*
Y5781790D01*
X4298590Y6337280D01*
G37*
G36*
G01X9006800Y4418820D02*
X9075790Y4487810D01*
G02X9093200Y4495020I17410J-17415D01*
G01X9450400D01*
G02X9467810Y4487810I0J-24625D01*
G01X9539160Y4416460D01*
G02X9546370Y4399050I-17415J-17410D01*
G01Y4204450D01*
X9559460Y4191350D01*
X9599100Y4151720D01*
X9652000D01*
G02X9564280Y4064000I0J-87720D01*
G01Y4116900D01*
X9504340Y4176840D01*
G02X9497130Y4194250I17415J17410D01*
G01Y4388850D01*
X9440200Y4445780D01*
X9103400D01*
X9034410Y4376790D01*
G02X9017000Y4369580I-17410J17415D01*
G01X8843080D01*
X8841280Y4367780D01*
X8841250Y4367750D01*
G02X8813800Y4356080I-27450J26449D01*
G02Y4432320I0J38120D01*
G02X8841250Y4420650I0J-38119D01*
G01X8841280Y4420620D01*
X8843080Y4418820D01*
X9006800D01*
G37*
G36*
G01X6380080Y6309910D02*
G03X6396120I8020J6243D01*
G02X6426200Y6324620I30080J-23400D01*
G02X6463800Y6292750I0J-38115D01*
G03X6481010Y6287230I10024J1663D01*
G01X6484990Y6291210D01*
G02X6502400Y6298420I17410J-17415D01*
G01X6808800D01*
G02X6826210Y6291210I0J-24625D01*
G01X6850010Y6267410D01*
G02X6857220Y6250000I-17415J-17410D01*
G01Y5985400D01*
G02X6870720Y5956300I-24613J-29100D01*
G02X6794480I-38120J0D01*
G02X6807980Y5985400I38113J0D01*
G01Y6239800D01*
X6798600Y6249180D01*
X6512600D01*
X6303910Y6040490D01*
G02X6286500Y6033280I-17410J17415D01*
G01X6234320D01*
G02X6205220Y6019780I-29100J24613D01*
G02Y6096020I0J38120D01*
G02X6234320Y6082520I0J-38113D01*
G01X6276300D01*
X6425470Y6231690D01*
G03X6419950Y6248900I-7183J7186D01*
G02X6396120Y6263090I6251J37601D01*
G03X6380080I-8020J-6243D01*
G02X6350000Y6248380I-30080J23400D01*
G02Y6324620I0J38120D01*
G02X6380080Y6309910I0J-38110D01*
G37*
G36*
G01X7463630Y6680470D02*
G02X7429680Y6659680I-33950J17325D01*
G02Y6735920I0J38120D01*
G02X7463630Y6715130I0J-38115D01*
G03X7481730I9050J4623D01*
G02X7515680Y6735920I33950J-17325D01*
G02Y6659680I0J-38120D01*
G02X7481730Y6680470I0J38115D01*
G03X7463630I-9050J-4623D01*
G37*
G36*
G01X7462920Y9552390D02*
G03X7446880I-8020J-6243D01*
G02X7416800Y9537680I-30080J23400D01*
G02Y9613920I0J38120D01*
G02X7446880Y9599210I0J-38110D01*
G03X7462920I8020J6243D01*
G02X7493000Y9613920I30080J-23400D01*
G02Y9537680I0J-38120D01*
G02X7462920Y9552390I0J38110D01*
G37*
G36*
G01X3754520Y7063190D02*
G03X3738480I-8020J-6243D01*
G02X3708400Y7048480I-30080J23400D01*
G02Y7124720I0J38120D01*
G02X3738480Y7110010I0J-38110D01*
G03X3754520I8020J6243D01*
G02X3784600Y7124720I30080J-23400D01*
G02Y7048480I0J-38120D01*
G02X3754520Y7063190I0J38110D01*
G37*
G36*
G01X7297570Y7040280D02*
G03X7284210I-6680J-7651D01*
G02X7259140Y7030880I-25070J28731D01*
G02Y7107120I0J38120D01*
G02X7284210Y7097720I0J-38131D01*
G03X7297570I6680J7651D01*
G02X7322640Y7107120I25070J-28731D01*
G02Y7030880I0J-38120D01*
G02X7297570Y7040280I0J38131D01*
G37*
G36*
G01X3906920Y6674390D02*
G03X3890880I-8020J-6243D01*
G02X3860800Y6659680I-30080J23400D01*
G02Y6735920I0J38120D01*
G02X3890880Y6721210I0J-38110D01*
G03X3906920I8020J6243D01*
G02X3937000Y6735920I30080J-23400D01*
G02Y6659680I0J-38120D01*
G02X3906920Y6674390I0J38110D01*
G37*
G36*
G01X3596600Y6323820D02*
X3716390Y6443610D01*
G02X3733800Y6450820I17410J-17415D01*
G01X3987800D01*
G02X4005210Y6443610I0J-24625D01*
G01X4208410Y6240410D01*
G02X4215620Y6223000I-17415J-17410D01*
G01Y6049080D01*
X4217420Y6047280D01*
X4217450Y6047250D01*
G02X4229120Y6019800I-26449J-27450D01*
G02X4152880I-38120J0D01*
G02X4164550Y6047250I38119J0D01*
G01X4164580Y6047280D01*
X4166380Y6049080D01*
Y6212800D01*
X3977600Y6401580D01*
X3744000D01*
X3624210Y6281790D01*
G02X3606800Y6274580I-17410J17415D01*
G01X3337600D01*
X3301620Y6238600D01*
Y6147200D01*
G02X3301290Y6143170I-24621J-12D01*
G01X3301220Y6142760D01*
Y6048900D01*
G02X3314720Y6019800I-24613J-29100D01*
G02X3238480I-38120J0D01*
G02X3251980Y6048900I38113J0D01*
G01Y6146800D01*
G02X3252310Y6150830I24621J12D01*
G01X3252380Y6151240D01*
Y6248800D01*
G02X3259590Y6266210I24625J0D01*
G01X3309990Y6316610D01*
G02X3327400Y6323820I17410J-17415D01*
G01X3596600D01*
G37*
G36*
G01X7361320Y6250390D02*
G03X7345280I-8020J-6243D01*
G02X7315200Y6235680I-30080J23400D01*
G02Y6311920I0J38120D01*
G02X7345280Y6297210I0J-38110D01*
G03X7361320I8020J6243D01*
G02X7391400Y6311920I30080J-23400D01*
G02Y6235680I0J-38120D01*
G02X7361320Y6250390I0J38110D01*
G37*
G36*
G01X3779920D02*
G03X3763880I-8020J-6243D01*
G02X3733800Y6235680I-30080J23400D01*
G02Y6311920I0J38120D01*
G02X3763880Y6297210I0J-38110D01*
G03X3779920I8020J6243D01*
G02X3810000Y6311920I30080J-23400D01*
G02Y6235680I0J-38120D01*
G02X3779920Y6250390I0J38110D01*
G37*
G36*
G01X2840120D02*
G03X2824080I-8020J-6243D01*
G02X2794000Y6235680I-30080J23400D01*
G02Y6311920I0J38120D01*
G02X2824080Y6297210I0J-38110D01*
G03X2840120I8020J6243D01*
G02X2870200Y6311920I30080J-23400D01*
G02Y6235680I0J-38120D01*
G02X2840120Y6250390I0J38110D01*
G37*
G36*
G01X6394990Y4543480D02*
G03Y4559520I-6243J8020D01*
G02X6380280Y4589600I23400J30080D01*
G02X6456520I38120J0D01*
G02X6441810Y4559520I-38110J0D01*
G03Y4543480I6243J-8020D01*
G02X6456520Y4513400I-23400J-30080D01*
G02X6380280I-38120J0D01*
G02X6394990Y4543480I38110J0D01*
G37*
G36*
G01X5886990D02*
G03Y4559520I-6243J8020D01*
G02X5872280Y4589600I23400J30080D01*
G02X5948520I38120J0D01*
G02X5933810Y4559520I-38110J0D01*
G03Y4543480I6243J-8020D01*
G02X5948520Y4513400I-23400J-30080D01*
G02X5872280I-38120J0D01*
G02X5886990Y4543480I38110J0D01*
G37*
G36*
G01X3600990D02*
G03Y4559520I-6243J8020D01*
G02X3586280Y4589600I23400J30080D01*
G02X3662520I38120J0D01*
G02X3647810Y4559520I-38110J0D01*
G03Y4543480I6243J-8020D01*
G02X3662520Y4513400I-23400J-30080D01*
G02X3586280I-38120J0D01*
G02X3600990Y4543480I38110J0D01*
G37*
G36*
G01X3092990D02*
G03Y4559520I-6243J8020D01*
G02X3078280Y4589600I23400J30080D01*
G02X3154520I38120J0D01*
G02X3139810Y4559520I-38110J0D01*
G03Y4543480I6243J-8020D01*
G02X3154520Y4513400I-23400J-30080D01*
G02X3078280I-38120J0D01*
G02X3092990Y4543480I38110J0D01*
G37*
G36*
G01X1314990D02*
G03Y4559520I-6243J8020D01*
G02X1300280Y4589600I23400J30080D01*
G02X1376520I38120J0D01*
G02X1361810Y4559520I-38110J0D01*
G03Y4543480I6243J-8020D01*
G02X1376520Y4513400I-23400J-30080D01*
G02X1300280I-38120J0D01*
G02X1314990Y4543480I38110J0D01*
G37*
G36*
G01X8677400Y4486490D02*
G03X8663000I-7200J-7168D01*
G02X8636000Y4475280I-27000J26911D01*
G02Y4551520I0J38120D01*
G02X8663000Y4540310I0J-38121D01*
G03X8677400I7200J7168D01*
G02X8704400Y4551520I27000J-26911D01*
G02Y4475280I0J-38120D01*
G02X8677400Y4486490I0J38121D01*
G37*
G36*
G01X406380Y2628900D02*
Y2806700D01*
G02X419100Y2819420I12720J0D01*
G01X596900D01*
G02X609620Y2806700I0J-12720D01*
G01Y2628900D01*
G02X596900Y2616180I-12720J0D01*
G01X419100D01*
G02X406380Y2628900I0J12720D01*
G37*
G36*
G01X1930380D02*
Y2806700D01*
G02X1943100Y2819420I12720J0D01*
G01X2120900D01*
G02X2133620Y2806700I0J-12720D01*
G01Y2628900D01*
G02X2120900Y2616180I-12720J0D01*
G01X1943100D01*
G02X1930380Y2628900I0J12720D01*
G37*
G36*
G01X2692380D02*
Y2806700D01*
G02X2705100Y2819420I12720J0D01*
G01X2882900D01*
G02X2895620Y2806700I0J-12720D01*
G01Y2628900D01*
G02X2882900Y2616180I-12720J0D01*
G01X2705100D01*
G02X2692380Y2628900I0J12720D01*
G37*
G36*
G01X4470380D02*
Y2806700D01*
G02X4483100Y2819420I12720J0D01*
G01X4660900D01*
G02X4673620Y2806700I0J-12720D01*
G01Y2628900D01*
G02X4660900Y2616180I-12720J0D01*
G01X4483100D01*
G02X4470380Y2628900I0J12720D01*
G37*
G36*
G01X5232380D02*
Y2806700D01*
G02X5245100Y2819420I12720J0D01*
G01X5422900D01*
G02X5435620Y2806700I0J-12720D01*
G01Y2628900D01*
G02X5422900Y2616180I-12720J0D01*
G01X5245100D01*
G02X5232380Y2628900I0J12720D01*
G37*
G36*
G01X7010380D02*
Y2806700D01*
G02X7023100Y2819420I12720J0D01*
G01X7200900D01*
G02X7213620Y2806700I0J-12720D01*
G01Y2628900D01*
G02X7200900Y2616180I-12720J0D01*
G01X7023100D01*
G02X7010380Y2628900I0J12720D01*
G37*
G36*
G01X7518380D02*
Y2806700D01*
G02X7531100Y2819420I12720J0D01*
G01X7708900D01*
G02X7721620Y2806700I0J-12720D01*
G01Y2628900D01*
G02X7708900Y2616180I-12720J0D01*
G01X7531100D01*
G02X7518380Y2628900I0J12720D01*
G37*
G36*
G01X9296380D02*
Y2806700D01*
G02X9309100Y2819420I12720J0D01*
G01X9486900D01*
G02X9499620Y2806700I0J-12720D01*
G01Y2628900D01*
G02X9486900Y2616180I-12720J0D01*
G01X9309100D01*
G02X9296380Y2628900I0J12720D01*
G37*
G36*
G01X152380Y3721100D02*
Y3898900D01*
G02X165100Y3911620I12720J0D01*
G01X342900D01*
G02X355620Y3898900I0J-12720D01*
G01Y3721100D01*
G02X342900Y3708380I-12720J0D01*
G01X165100D01*
G02X152380Y3721100I0J12720D01*
G37*
G36*
G01X406380D02*
Y3898900D01*
G02X419100Y3911620I12720J0D01*
G01X596900D01*
G02X609620Y3898900I0J-12720D01*
G01Y3721100D01*
G02X596900Y3708380I-12720J0D01*
G01X419100D01*
G02X406380Y3721100I0J12720D01*
G37*
G36*
G01X1930380D02*
Y3898900D01*
G02X1943100Y3911620I12720J0D01*
G01X2120900D01*
G02X2133620Y3898900I0J-12720D01*
G01Y3721100D01*
G02X2120900Y3708380I-12720J0D01*
G01X1943100D01*
G02X1930380Y3721100I0J12720D01*
G37*
G36*
G01X2184380D02*
Y3898900D01*
G02X2197100Y3911620I12720J0D01*
G01X2374900D01*
G02X2387620Y3898900I0J-12720D01*
G01Y3721100D01*
G02X2374900Y3708380I-12720J0D01*
G01X2197100D01*
G02X2184380Y3721100I0J12720D01*
G37*
G36*
G01X2438380D02*
Y3898900D01*
G02X2451100Y3911620I12720J0D01*
G01X2628900D01*
G02X2641620Y3898900I0J-12720D01*
G01Y3721100D01*
G02X2628900Y3708380I-12720J0D01*
G01X2451100D01*
G02X2438380Y3721100I0J12720D01*
G37*
G36*
G01X2692380D02*
Y3898900D01*
G02X2705100Y3911620I12720J0D01*
G01X2882900D01*
G02X2895620Y3898900I0J-12720D01*
G01Y3721100D01*
G02X2882900Y3708380I-12720J0D01*
G01X2705100D01*
G02X2692380Y3721100I0J12720D01*
G37*
G36*
G01X4216380D02*
Y3898900D01*
G02X4229100Y3911620I12720J0D01*
G01X4406900D01*
G02X4419620Y3898900I0J-12720D01*
G01Y3721100D01*
G02X4406900Y3708380I-12720J0D01*
G01X4229100D01*
G02X4216380Y3721100I0J12720D01*
G37*
G36*
G01X4470380D02*
Y3898900D01*
G02X4483100Y3911620I12720J0D01*
G01X4660900D01*
G02X4673620Y3898900I0J-12720D01*
G01Y3721100D01*
G02X4660900Y3708380I-12720J0D01*
G01X4483100D01*
G02X4470380Y3721100I0J12720D01*
G37*
G36*
G01X5232380D02*
Y3898900D01*
G02X5245100Y3911620I12720J0D01*
G01X5422900D01*
G02X5435620Y3898900I0J-12720D01*
G01Y3721100D01*
G02X5422900Y3708380I-12720J0D01*
G01X5245100D01*
G02X5232380Y3721100I0J12720D01*
G37*
G36*
G01X5486380D02*
Y3898900D01*
G02X5499100Y3911620I12720J0D01*
G01X5676900D01*
G02X5689620Y3898900I0J-12720D01*
G01Y3721100D01*
G02X5676900Y3708380I-12720J0D01*
G01X5499100D01*
G02X5486380Y3721100I0J12720D01*
G37*
G36*
G01X7010380D02*
Y3898900D01*
G02X7023100Y3911620I12720J0D01*
G01X7200900D01*
G02X7213620Y3898900I0J-12720D01*
G01Y3721100D01*
G02X7200900Y3708380I-12720J0D01*
G01X7023100D01*
G02X7010380Y3721100I0J12720D01*
G37*
G36*
G01X7264380D02*
Y3898900D01*
G02X7277100Y3911620I12720J0D01*
G01X7454900D01*
G02X7467620Y3898900I0J-12720D01*
G01Y3721100D01*
G02X7454900Y3708380I-12720J0D01*
G01X7277100D01*
G02X7264380Y3721100I0J12720D01*
G37*
G36*
G01X7518380D02*
Y3898900D01*
G02X7531100Y3911620I12720J0D01*
G01X7708900D01*
G02X7721620Y3898900I0J-12720D01*
G01Y3721100D01*
G02X7708900Y3708380I-12720J0D01*
G01X7531100D01*
G02X7518380Y3721100I0J12720D01*
G37*
G36*
G01X7772380D02*
Y3898900D01*
G02X7785100Y3911620I12720J0D01*
G01X7962900D01*
G02X7975620Y3898900I0J-12720D01*
G01Y3721100D01*
G02X7962900Y3708380I-12720J0D01*
G01X7785100D01*
G02X7772380Y3721100I0J12720D01*
G37*
G36*
G01X9296380D02*
Y3898900D01*
G02X9309100Y3911620I12720J0D01*
G01X9486900D01*
G02X9499620Y3898900I0J-12720D01*
G01Y3721100D01*
G02X9486900Y3708380I-12720J0D01*
G01X9309100D01*
G02X9296380Y3721100I0J12720D01*
G37*
G36*
G01X9550380D02*
Y3898900D01*
G02X9563100Y3911620I12720J0D01*
G01X9740900D01*
G02X9753620Y3898900I0J-12720D01*
G01Y3721100D01*
G02X9740900Y3708380I-12720J0D01*
G01X9563100D01*
G02X9550380Y3721100I0J12720D01*
G37*
G36*
G01X152380Y5499100D02*
Y5676900D01*
G02X165100Y5689620I12720J0D01*
G01X342900D01*
G02X355620Y5676900I0J-12720D01*
G01Y5499100D01*
G02X342900Y5486380I-12720J0D01*
G01X165100D01*
G02X152380Y5499100I0J12720D01*
G37*
G36*
G01X1168380D02*
Y5676900D01*
G02X1181100Y5689620I12720J0D01*
G01X1358900D01*
G02X1371620Y5676900I0J-12720D01*
G01Y5499100D01*
G02X1358900Y5486380I-12720J0D01*
G01X1181100D01*
G02X1168380Y5499100I0J12720D01*
G37*
G36*
G01X8026380D02*
Y5676900D01*
G02X8039100Y5689620I12720J0D01*
G01X8216900D01*
G02X8229620Y5676900I0J-12720D01*
G01Y5499100D01*
G02X8216900Y5486380I-12720J0D01*
G01X8039100D01*
G02X8026380Y5499100I0J12720D01*
G37*
G36*
G01X9042380D02*
Y5676900D01*
G02X9055100Y5689620I12720J0D01*
G01X9232900D01*
G02X9245620Y5676900I0J-12720D01*
G01Y5499100D01*
G02X9232900Y5486380I-12720J0D01*
G01X9055100D01*
G02X9042380Y5499100I0J12720D01*
G37*
G36*
G01X1168380Y5753100D02*
Y5930900D01*
G02X1181100Y5943620I12720J0D01*
G01X1358900D01*
G02X1371620Y5930900I0J-12720D01*
G01Y5753100D01*
G02X1358900Y5740380I-12720J0D01*
G01X1181100D01*
G02X1168380Y5753100I0J12720D01*
G37*
G36*
G01X8026380D02*
Y5930900D01*
G02X8039100Y5943620I12720J0D01*
G01X8216900D01*
G02X8229620Y5930900I0J-12720D01*
G01Y5753100D01*
G02X8216900Y5740380I-12720J0D01*
G01X8039100D01*
G02X8026380Y5753100I0J12720D01*
G37*
G36*
G01X9042380D02*
Y5930900D01*
G02X9055100Y5943620I12720J0D01*
G01X9232900D01*
G02X9245620Y5930900I0J-12720D01*
G01Y5753100D01*
G02X9232900Y5740380I-12720J0D01*
G01X9055100D01*
G02X9042380Y5753100I0J12720D01*
G37*
G36*
G01X152380Y6515100D02*
Y6692900D01*
G02X165100Y6705620I12720J0D01*
G01X342900D01*
G02X355620Y6692900I0J-12720D01*
G01Y6515100D01*
G02X342900Y6502380I-12720J0D01*
G01X165100D01*
G02X152380Y6515100I0J12720D01*
G37*
G36*
G01X4571980Y6388100D02*
Y6565900D01*
G02X4584700Y6578620I12720J0D01*
G01X4762500D01*
G02X4775220Y6565900I0J-12720D01*
G01Y6388100D01*
G02X4762500Y6375380I-12720J0D01*
G01X4584700D01*
G02X4571980Y6388100I0J12720D01*
G37*
G36*
G01X8026380Y6515100D02*
Y6692900D01*
G02X8039100Y6705620I12720J0D01*
G01X8216900D01*
G02X8229620Y6692900I0J-12720D01*
G01Y6515100D01*
G02X8216900Y6502380I-12720J0D01*
G01X8039100D01*
G02X8026380Y6515100I0J12720D01*
G37*
G36*
G01X9042380D02*
Y6692900D01*
G02X9055100Y6705620I12720J0D01*
G01X9232900D01*
G02X9245620Y6692900I0J-12720D01*
G01Y6515100D01*
G02X9232900Y6502380I-12720J0D01*
G01X9055100D01*
G02X9042380Y6515100I0J12720D01*
G37*
G36*
G01X1168380Y6769100D02*
Y6946900D01*
G02X1181100Y6959620I12720J0D01*
G01X1358900D01*
G02X1371620Y6946900I0J-12720D01*
G01Y6769100D01*
G02X1358900Y6756380I-12720J0D01*
G01X1181100D01*
G02X1168380Y6769100I0J12720D01*
G37*
G36*
G01X8026380D02*
Y6946900D01*
G02X8039100Y6959620I12720J0D01*
G01X8216900D01*
G02X8229620Y6946900I0J-12720D01*
G01Y6769100D01*
G02X8216900Y6756380I-12720J0D01*
G01X8039100D01*
G02X8026380Y6769100I0J12720D01*
G37*
G36*
G01X9042380D02*
Y6946900D01*
G02X9055100Y6959620I12720J0D01*
G01X9232900D01*
G02X9245620Y6946900I0J-12720D01*
G01Y6769100D01*
G02X9232900Y6756380I-12720J0D01*
G01X9055100D01*
G02X9042380Y6769100I0J12720D01*
G37*
G36*
G01X3206730Y9061450D02*
Y9226550D01*
G02X3219450Y9239270I12720J0D01*
G01X3384550D01*
G02X3397270Y9226550I0J-12720D01*
G01Y9061450D01*
G02X3384550Y9048730I-12720J0D01*
G01X3219450D01*
G02X3206730Y9061450I0J12720D01*
G37*
G36*
G01X8356580Y9715500D02*
Y9893300D01*
G02X8369300Y9906020I12720J0D01*
G01X8547100D01*
G02X8559820Y9893300I0J-12720D01*
G01Y9715500D01*
G02X8547100Y9702780I-12720J0D01*
G01X8369300D01*
G02X8356580Y9715500I0J12720D01*
G37*
G36*
G01X7420100Y6972280D02*
X7416800D01*
G02X7454920Y7010400I0J38120D01*
G01Y7007100D01*
X8399410Y6062610D01*
G02X8406620Y6045200I-17415J-17410D01*
G01Y5941430D01*
X8443410Y5904640D01*
G02X8469720Y5842000I-61413J-62640D01*
G02X8294280I-87720J0D01*
G02X8320590Y5904640I87723J0D01*
G01X8357380Y5941430D01*
Y6035000D01*
X7420100Y6972280D01*
G37*
G36*
G01X5443590Y4462410D02*
X5519790Y4538610D01*
G02X5537200Y4545820I17410J-17415D01*
G01X5791200D01*
G02X5808610Y4538610I0J-24625D01*
G01X5903000Y4444220D01*
X5990520D01*
X5992320Y4446020D01*
X5992350Y4446050D01*
G02X6019800Y4457720I27450J-26449D01*
G02Y4381480I0J-38120D01*
G02X5992350Y4393150I0J38119D01*
G01X5992320Y4393180D01*
X5990520Y4394980D01*
X5892800D01*
G02X5875390Y4402190I0J24625D01*
G01X5781000Y4496580D01*
X5547400D01*
X5485620Y4434800D01*
Y4191000D01*
G02X5478410Y4173590I-24625J0D01*
G01X5464500Y4159680D01*
X5421720Y4116900D01*
Y4064000D01*
G02X5334000Y4151720I-87720J0D01*
G01X5386900D01*
X5423960Y4188770D01*
X5436380Y4201200D01*
Y4445000D01*
G02X5443590Y4462410I24625J0D01*
G37*
G36*
G01X2646340Y4540210D02*
X2670140Y4564010D01*
G02X2687550Y4571220I17410J-17415D01*
G01X2946400D01*
G02X2963810Y4564010I0J-24625D01*
G01X3083600Y4444220D01*
X3196520D01*
X3198320Y4446020D01*
X3198350Y4446050D01*
G02X3225800Y4457720I27450J-26449D01*
G02Y4381480I0J-38120D01*
G02X3198350Y4393150I0J38119D01*
G01X3198320Y4393180D01*
X3196520Y4394980D01*
X3073400D01*
G02X3055990Y4402190I0J24625D01*
G01X2936200Y4521980D01*
X2697750D01*
X2688370Y4512600D01*
Y4187750D01*
G02X2681160Y4170340I-24625J0D01*
G01X2627720Y4116900D01*
Y4064000D01*
G02X2540000Y4151720I-87720J0D01*
G01X2592900D01*
X2639130Y4197950D01*
Y4522800D01*
G02X2646340Y4540210I24625J0D01*
G37*
G36*
G01X6963480Y7239780D02*
X6961680Y7237980D01*
X6961650Y7237950D01*
G02X6934200Y7226280I-27450J26449D01*
G02Y7302520I0J38120D01*
G02X6961650Y7290850I0J-38119D01*
G01X6961680Y7290820D01*
X6963480Y7289020D01*
X7975600D01*
G02X7993010Y7281810I0J-24625D01*
G01X8329100Y6945720D01*
X8382000D01*
G02X8294280Y6858000I0J-87720D01*
G01Y6910900D01*
X7965400Y7239780D01*
X6963480D01*
G37*
G36*
G01X3901400Y4444220D02*
X3970390Y4513210D01*
G02X3987800Y4520420I17410J-17415D01*
G01X4368800D01*
G02X4386210Y4513210I0J-24625D01*
G01X4465660Y4433760D01*
G02X4472870Y4416350I-17415J-17410D01*
G01Y4197950D01*
X4484620Y4186190D01*
X4519100Y4151720D01*
X4572000D01*
G02X4484280Y4064000I0J-87720D01*
G01Y4116900D01*
X4430840Y4170340D01*
G02X4423630Y4187750I17415J17410D01*
G01Y4406150D01*
X4358600Y4471180D01*
X3998000D01*
X3929010Y4402190D01*
G02X3911600Y4394980I-17410J17415D01*
G01X3763080D01*
X3761280Y4393180D01*
X3761250Y4393150D01*
G02X3733800Y4381480I-27450J26449D01*
G02Y4457720I0J38120D01*
G02X3761250Y4446050I0J-38119D01*
G01X3761280Y4446020D01*
X3763080Y4444220D01*
X3901400D01*
G37*
G36*
G01X6822400D02*
X6865990Y4487810D01*
G02X6883400Y4495020I17410J-17415D01*
G01X7189800D01*
G02X7207210Y4487810I0J-24625D01*
G01X7256410Y4438610D01*
G02X7263620Y4421200I-17415J-17410D01*
G01Y4201200D01*
X7276040Y4188770D01*
X7313100Y4151720D01*
X7366000D01*
G02X7278280Y4064000I0J-87720D01*
G01Y4116900D01*
X7221590Y4173590D01*
G02X7214380Y4191000I17415J17410D01*
G01Y4411000D01*
X7179600Y4445780D01*
X6893600D01*
X6850010Y4402190D01*
G02X6832600Y4394980I-17410J17415D01*
G01X6557080D01*
X6555280Y4393180D01*
X6555250Y4393150D01*
G02X6527800Y4381480I-27450J26449D01*
G02Y4457720I0J38120D01*
G02X6555250Y4446050I0J-38119D01*
G01X6555280Y4446020D01*
X6557080Y4444220D01*
X6822400D01*
G37*
G36*
G01X2644890Y6995210D02*
X2654280Y7004600D01*
Y7007900D01*
G02X2692400Y6969780I38120J0D01*
G01X2689100D01*
X2674450Y6955130D01*
G02X2667500Y6950250I-17412J17408D01*
G01X2666690Y6949870D01*
X1611720Y5894900D01*
Y5842000D01*
G02X1524000Y5929720I-87720J0D01*
G01X1576900D01*
X2637130Y6989950D01*
G02X2644080Y6994830I17412J-17408D01*
G01X2644890Y6995210D01*
G37*
G54D27*
X8686800Y8610600D03*
Y8483600D03*
X8432800D03*
X8559800D03*
Y8610600D03*
X8432800D03*
X8686800Y8356600D03*
Y8229600D03*
X8559800D03*
X8432800D03*
X8559800Y8356600D03*
X8432800D03*
X2870200Y7069000D03*
X2641600Y6697800D03*
X2743200D03*
X8704400Y4224200D03*
X8196400D03*
X6418400D03*
X5910400D03*
X3624400D03*
X3116400D03*
X1338400D03*
X2768600Y7069000D03*
G54D30*
X8991600Y1143000D03*
X8737600D03*
X6959600D03*
X6705600D03*
X4927600D03*
X4673600D03*
X2895600D03*
X2641600D03*
X8991600Y889000D03*
X8737600D03*
X6959600D03*
X6705600D03*
X4927600D03*
X4673600D03*
X2895600D03*
X2641600D03*
G54D26*
X9288600Y8860600D03*
G54D31*
X8382000Y635000D03*
X7366000D03*
X6350000D03*
X5334000D03*
X4318000D03*
X3302000D03*
X2286000D03*
X1270000D03*
G54D29*
X8129000Y1524000D03*
X7874000D03*
X7616000D03*
X6097000D03*
X5842000D03*
X5584000D03*
X4065000D03*
X3810000D03*
X3552000D03*
X2033000D03*
X1778000D03*
X1520000D03*
X7874000Y1270000D03*
X5842000D03*
X3810000D03*
X1778000D03*
G54D25*
X6858000Y9398000D03*
X6350000D03*
X6604000D03*
X6096000D03*
X5842000D03*
X5588000D03*
X5334000D03*
X5080000D03*
X4826000D03*
X4572000D03*
X4318000D03*
X4064000D03*
X3810000D03*
X3556000D03*
X3302000D03*
X6858000Y9144000D03*
X6350000D03*
X6604000D03*
X6096000D03*
X5842000D03*
X5588000D03*
X5334000D03*
X5080000D03*
X4826000D03*
X4572000D03*
X4318000D03*
X4064000D03*
X3810000D03*
X3556000D03*
G54D28*
X9450000Y8000000D03*
X555000D03*
X9445000Y357000D03*
X555000D03*
G54D24*
X8204200Y9804400D03*
X7950200D03*
X8636000Y6858000D03*
X1778000D03*
X762000D03*
X9652000Y6604000D03*
X8636000D03*
X8382000D03*
X5181600Y6477000D03*
X4927600D03*
X1778000Y6604000D03*
X1524000D03*
X762000D03*
X9652000Y5842000D03*
X8636000D03*
X1778000D03*
X762000D03*
X9652000Y5588000D03*
X8636000D03*
X8382000D03*
X1778000D03*
X1524000D03*
X762000D03*
X9652000Y4318000D03*
X9398000D03*
X7874000D03*
X7620000D03*
X7366000D03*
X7112000D03*
X5588000D03*
X5334000D03*
X4572000D03*
X4318000D03*
X2794000D03*
X2540000D03*
X2286000D03*
X2032000D03*
X508000D03*
X254000D03*
X9398000Y4064000D03*
X7874000D03*
X7112000D03*
X5588000D03*
X4318000D03*
X2794000D03*
X2032000D03*
X508000D03*
X9398000Y3225800D03*
X7620000D03*
X7112000D03*
X5334000D03*
X4572000D03*
X2794000D03*
X2032000D03*
X508000D03*
X9398000Y2971800D03*
X7620000D03*
X7112000D03*
X5334000D03*
X4572000D03*
X2794000D03*
X2032000D03*
X508000D03*
%LPD*%
G75*
G36*
G01X317100Y4139000D02*
X254000D01*
X251900Y4061900D01*
X329000Y4064000D01*
Y4127100D01*
G03X317100Y4139000I-11900J0D01*
G37*
G36*
G01X433000Y5651100D02*
Y5588000D01*
X510100Y5585900D01*
X508000Y5663000D01*
X444900D01*
G03X433000Y5651100I0J-11900D01*
G37*
G36*
G01Y6667100D02*
Y6604000D01*
X510100Y6601900D01*
X508000Y6679000D01*
X444900D01*
G03X433000Y6667100I0J-11900D01*
G37*
G36*
G01X571100Y5917000D02*
X508000D01*
X505900Y5839900D01*
X583000Y5842000D01*
Y5905100D01*
G03X571100Y5917000I-11900J0D01*
G37*
G36*
G01Y6933000D02*
X508000D01*
X505900Y6855900D01*
X583000Y6858000D01*
Y6921100D01*
G03X571100Y6933000I-11900J0D01*
G37*
G36*
G01X926300Y4394200D02*
X939800D01*
X941900Y4421700D01*
X914400Y4419600D01*
Y4406100D01*
G03X926300Y4394200I11900J0D01*
G37*
G36*
G01X1475310Y4478810D02*
X1465760Y4488350D01*
X1444820Y4470400D01*
X1465760Y4452450D01*
X1475310Y4461990D01*
G03Y4478810I-8420J8410D01*
G37*
G36*
G01X1459000Y6783000D02*
X1524000D01*
X1525770Y6859770D01*
X1449000Y6858000D01*
Y6793000D01*
G03X1459000Y6783000I10000J0D01*
G37*
G36*
G01X1515590Y6955650D02*
X1470970Y6911030D01*
X1524000Y6855020D01*
X1577030Y6911030D01*
X1532410Y6955650D01*
G03X1515590I-8410J-8410D01*
G37*
G36*
G01X1587100Y5917000D02*
X1524000D01*
X1521900Y5839900D01*
X1599000Y5842000D01*
Y5905100D01*
G03X1587100Y5917000I-11900J0D01*
G37*
G36*
G01X1854200Y3317400D02*
Y3302000D01*
X1881370Y3300230D01*
X1879600Y3327400D01*
X1864200D01*
G03X1854200Y3317400I0J-10000D01*
G37*
G36*
G01X2211000Y4127100D02*
Y4064000D01*
X2288100Y4061900D01*
X2286000Y4139000D01*
X2222900D01*
G03X2211000Y4127100I0J-11900D01*
G37*
G36*
G01X2603100Y4139000D02*
X2540000D01*
X2537900Y4061900D01*
X2615000Y4064000D01*
Y4127100D01*
G03X2603100Y4139000I-11900J0D01*
G37*
G36*
G01X2678900Y6982500D02*
X2692400D01*
X2694500Y7010000D01*
X2667000Y7007900D01*
Y6994400D01*
G03X2678900Y6982500I11900J0D01*
G37*
G36*
G01X3081170Y7519180D02*
X3545800D01*
X3733220Y7331760D01*
G02X3726030Y7314420I-7186J-7181D01*
G01X3454400D01*
G03X3436990Y7307210I0J-24625D01*
G01X3356100Y7226320D01*
X3349500D01*
X3308470Y7267350D01*
X3308190Y7267770D01*
G03X3305110Y7271530I-20493J-13646D01*
G01X3080530Y7496110D01*
G03X3076770Y7499190I-17406J-17413D01*
G01X3076350Y7499470D01*
X3073980Y7501840D01*
G02X3081170Y7519180I7186J7181D01*
G37*
G36*
G01X3198290Y4411190D02*
X3207840Y4401650D01*
X3228780Y4419600D01*
X3207840Y4437550D01*
X3198290Y4428010D01*
G03Y4411190I8420J-8410D01*
G37*
G36*
G01X3327400Y7201700D02*
Y7188200D01*
X3354900Y7186100D01*
X3352800Y7213600D01*
X3339300D01*
G03X3327400Y7201700I0J-11900D01*
G37*
G36*
G01X3225800D02*
Y7188200D01*
X3253300Y7186100D01*
X3251200Y7213600D01*
X3237700D01*
G03X3225800Y7201700I0J-11900D01*
G37*
G36*
G01X3366300Y7213600D02*
X3352800D01*
X3350700Y7186100D01*
X3378200Y7188200D01*
Y7201700D01*
G03X3366300Y7213600I-11900J0D01*
G37*
G36*
G01X3761310Y4428010D02*
X3751760Y4437550D01*
X3730820Y4419600D01*
X3751760Y4401650D01*
X3761310Y4411190D01*
G03Y4428010I-8420J8410D01*
G37*
G36*
G01X4004790Y6580710D02*
X3995250Y6571160D01*
X4013200Y6550220D01*
X4031150Y6571160D01*
X4021610Y6580710D01*
G03X4004790I-8410J-8420D01*
G37*
G36*
G01X4127500Y6557880D02*
Y6578600D01*
X4100480Y6581090D01*
X4096490Y6554620D01*
X4109990Y6547390D01*
G03X4127500Y6557880I5613J10490D01*
G37*
G36*
G01X4089400Y7022300D02*
Y7035800D01*
X4061900Y7037900D01*
X4064000Y7010400D01*
X4077500D01*
G03X4089400Y7022300I0J11900D01*
G37*
G36*
G01X4038600Y7049300D02*
Y7035800D01*
X4066100Y7033700D01*
X4064000Y7061200D01*
X4050500D01*
G03X4038600Y7049300I0J-11900D01*
G37*
G36*
G01X4372250Y3639270D02*
X4361350Y3650150D01*
X4340900Y3632200D01*
X4361350Y3614250D01*
X4372250Y3625130D01*
G03Y3639270I-7070J7070D01*
G37*
G36*
G01X4182590Y6047310D02*
X4173050Y6037760D01*
X4191000Y6016820D01*
X4208950Y6037760D01*
X4199410Y6047310D01*
G03X4182590I-8410J-8420D01*
G37*
G36*
G01X4318000Y6360000D02*
Y6375400D01*
X4290830Y6377170D01*
X4292600Y6350000D01*
X4308000D01*
G03X4318000Y6360000I0J10000D01*
G37*
G36*
G01X4176590Y6634510D02*
X4167050Y6624960D01*
X4185000Y6604020D01*
X4202950Y6624960D01*
X4193410Y6634510D01*
G03X4176590I-8410J-8420D01*
G37*
G36*
G01X4258790Y6656910D02*
X4249250Y6647360D01*
X4267200Y6626420D01*
X4285150Y6647360D01*
X4275610Y6656910D01*
G03X4258790I-8410J-8420D01*
G37*
G36*
G01X4497000Y4127100D02*
Y4064000D01*
X4574100Y4061900D01*
X4572000Y4139000D01*
X4508900D01*
G03X4497000Y4127100I0J-11900D01*
G37*
G36*
G01X5397100Y4139000D02*
X5334000D01*
X5331900Y4061900D01*
X5409000Y4064000D01*
Y4127100D01*
G03X5397100Y4139000I-11900J0D01*
G37*
G36*
G01X5652300Y6756400D02*
X5638800D01*
X5636700Y6728900D01*
X5664200Y6731000D01*
Y6744500D01*
G03X5652300Y6756400I-11900J0D01*
G37*
G36*
G01X5820890Y6758510D02*
X5811350Y6748960D01*
X5829300Y6728020D01*
X5847250Y6748960D01*
X5837710Y6758510D01*
G03X5820890I-8410J-8420D01*
G37*
G36*
G01X6527220Y6892240D02*
X6459590Y6824610D01*
G03X6452380Y6807200I17415J-17410D01*
G01Y6588800D01*
X6416000Y6552420D01*
X6004600D01*
X5907460Y6649560D01*
Y6685440D01*
X5914900Y6692880D01*
X5918200D01*
G03X5880080Y6731000I0J38120D01*
G01Y6727700D01*
X5872330Y6719940D01*
X5867050Y6725220D01*
X5867270Y6727580D01*
G03X5867420Y6731000I-37972J3379D01*
G03X5855750Y6758450I-38119J0D01*
G01X5855720Y6758480D01*
X5853920Y6760280D01*
Y6770800D01*
X5992700Y6909580D01*
X6520030D01*
G02X6527220Y6892240I4J-10159D01*
G37*
G36*
G01X5904700Y6705600D02*
X5918200D01*
X5920300Y6733100D01*
X5892800Y6731000D01*
Y6717500D01*
G03X5904700Y6705600I11900J0D01*
G37*
G36*
G01X5753900Y6756400D02*
X5740400D01*
X5738300Y6728900D01*
X5765800Y6731000D01*
Y6744500D01*
G03X5753900Y6756400I-11900J0D01*
G37*
G36*
G01X6614200Y7468380D02*
X6672430D01*
G02X6679620Y7451040I4J-10159D01*
G01X6637390Y7408810D01*
G03X6630180Y7391400I17415J-17410D01*
G01Y7071400D01*
X6517600Y6958820D01*
X5982500D01*
G03X5965090Y6951610I0J-24625D01*
G01X5809050Y6795570D01*
G02X5800380Y6799160I-3591J3593D01*
G01Y6806960D01*
X5985240Y6991820D01*
X6219120D01*
X6220920Y6990020D01*
X6220950Y6989990D01*
G03X6248400Y6978320I27450J26449D01*
G03X6286520Y7016440I0J38120D01*
G03X6274850Y7043890I-38119J0D01*
G01X6274820Y7043920D01*
X6273020Y7045720D01*
Y7127200D01*
X6614200Y7468380D01*
G37*
G36*
G01X5992290Y4411190D02*
X6001840Y4401650D01*
X6022780Y4419600D01*
X6001840Y4437550D01*
X5992290Y4428010D01*
G03Y4411190I8420J-8410D01*
G37*
G36*
G01X6028060Y6527800D02*
X5994400D01*
X6002810Y6485730D01*
X6036470Y6519390D01*
X6028060Y6527800D01*
G37*
G36*
G01X6220890Y7008030D02*
X6230440Y6998490D01*
X6251380Y7016440D01*
X6230440Y7034390D01*
X6220890Y7024850D01*
G03Y7008030I8420J-8410D01*
G37*
G36*
G01X6436400Y7519180D02*
X6570830D01*
G02X6578020Y7501840I4J-10159D01*
G01X6230990Y7154810D01*
G03X6223780Y7137400I17415J-17410D01*
G01Y7045720D01*
X6221980Y7043920D01*
X6221950Y7043890D01*
G03X6220950Y7042890I26450J-27450D01*
G01X6220920Y7042860D01*
X6219120Y7041060D01*
X5982810D01*
G02X5975620Y7058400I-4J10159D01*
G01X6436400Y7519180D01*
G37*
G36*
G01X6239990Y7043950D02*
X6230450Y7034400D01*
X6248400Y7013460D01*
X6266350Y7034400D01*
X6256810Y7043950D01*
G03X6239990I-8410J-8420D01*
G37*
G36*
G01X6555310Y4428010D02*
X6545760Y4437550D01*
X6524820Y4419600D01*
X6545760Y4401650D01*
X6555310Y4411190D01*
G03Y4428010I-8420J8410D01*
G37*
G36*
G01X7027390Y1551510D02*
X7017850Y1541960D01*
X7035800Y1521020D01*
X7053750Y1541960D01*
X7044210Y1551510D01*
G03X7027390I-8410J-8420D01*
G37*
G36*
G01X6961710Y7272810D02*
X6952160Y7282350D01*
X6931220Y7264400D01*
X6952160Y7246450D01*
X6961710Y7255990D01*
G03Y7272810I-8420J8410D01*
G37*
G36*
G01X6791410Y7235690D02*
X6800950Y7245240D01*
X6783000Y7266180D01*
X6765050Y7245240D01*
X6774590Y7235690D01*
G03X6791410I8410J8420D01*
G37*
G36*
G01X6774590Y7290710D02*
X6765050Y7281160D01*
X6783000Y7260220D01*
X6800950Y7281160D01*
X6791410Y7290710D01*
G03X6774590I-8410J-8420D01*
G37*
G36*
G01X7291000Y4127100D02*
Y4064000D01*
X7368100Y4061900D01*
X7366000Y4139000D01*
X7302900D01*
G03X7291000Y4127100I0J-11900D01*
G37*
G36*
G01X7442200Y6996900D02*
Y7010400D01*
X7414700Y7012500D01*
X7416800Y6985000D01*
X7430300D01*
G03X7442200Y6996900I0J11900D01*
G37*
G36*
G01X7683100Y4139000D02*
X7620000D01*
X7617900Y4061900D01*
X7695000Y4064000D01*
Y4127100D01*
G03X7683100Y4139000I-11900J0D01*
G37*
G36*
G01X8252890Y4436590D02*
X8262440Y4427050D01*
X8283380Y4445000D01*
X8262440Y4462950D01*
X8252890Y4453410D01*
G03Y4436590I8420J-8410D01*
G37*
G36*
G01X8373590Y5939650D02*
X8328970Y5895030D01*
X8382000Y5839020D01*
X8435030Y5895030D01*
X8390410Y5939650D01*
G03X8373590I-8410J-8410D01*
G37*
G36*
G01X8307000Y6921100D02*
Y6858000D01*
X8384100Y6855900D01*
X8382000Y6933000D01*
X8318900D01*
G03X8307000Y6921100I0J-11900D01*
G37*
G36*
G01X8841310Y4402610D02*
X8831760Y4412150D01*
X8810820Y4394200D01*
X8831760Y4376250D01*
X8841310Y4385790D01*
G03Y4402610I-8420J8410D01*
G37*
G36*
G01X9389590Y5939650D02*
X9344970Y5895030D01*
X9398000Y5839020D01*
X9451030Y5895030D01*
X9406410Y5939650D01*
G03X9389590I-8410J-8410D01*
G37*
G36*
G01X9323000Y6921100D02*
Y6858000D01*
X9400100Y6855900D01*
X9398000Y6933000D01*
X9334900D01*
G03X9323000Y6921100I0J-11900D01*
G37*
G36*
G01X9577000Y4127100D02*
Y4064000D01*
X9654100Y4061900D01*
X9652000Y4139000D01*
X9588900D01*
G03X9577000Y4127100I0J-11900D01*
G37*
G36*
G01X9461100Y5663000D02*
X9398000D01*
X9395900Y5585900D01*
X9473000Y5588000D01*
Y5651100D01*
G03X9461100Y5663000I-11900J0D01*
G37*
G36*
G01Y6679000D02*
X9398000D01*
X9395900Y6601900D01*
X9473000Y6604000D01*
Y6667100D01*
G03X9461100Y6679000I-11900J0D01*
G37*
%LPC*%
G75*
G36*
G01X6236490Y6675740D02*
G02X6205400Y6659680I-31090J22063D01*
G02Y6735920I0J38120D01*
G02X6236490Y6719860I0J-38123D01*
G03X6253050I8280J5885D01*
G02X6284140Y6735920I31090J-22063D01*
G02Y6659680I0J-38120D01*
G02X6253050Y6675740I0J38123D01*
G03X6236490I-8280J-5885D01*
G37*
G36*
G01X6436870Y7040280D02*
G03X6423510I-6680J-7651D01*
G02X6398440Y7030880I-25070J28731D01*
G02Y7107120I0J38120D01*
G02X6423510Y7097720I0J-38131D01*
G03X6436870I6680J7651D01*
G02X6461940Y7107120I25070J-28731D01*
G02Y7030880I0J-38120D01*
G02X6436870Y7040280I0J38131D01*
G37*
%LPD*%
G75*
G54D10*
X222200Y1066800D03*
Y1466800D03*
Y2209800D03*
Y2609800D03*
Y3149600D03*
Y3549600D03*
X177800Y8356600D03*
Y8756600D03*
Y9156600D03*
Y9556600D03*
X355600Y6121400D03*
Y6299200D03*
Y7137400D03*
Y7340600D03*
X622200Y1066800D03*
X711200Y2076400D03*
Y2476400D03*
Y2876400D03*
Y3276400D03*
X730200Y3587600D03*
X635000Y3454400D03*
Y3581400D03*
X685800Y3860800D03*
X660400Y4292600D03*
Y4419600D03*
Y4356100D03*
X552400Y4686200D03*
X609600Y4470400D03*
X552400Y5086200D03*
X609600Y6121400D03*
Y6299200D03*
Y7137400D03*
Y7340600D03*
X577800Y8356600D03*
Y8756600D03*
Y9156600D03*
Y9556600D03*
X914400Y158600D03*
X948790Y1797950D03*
X1019500Y1727240D03*
X919300Y1993500D03*
Y1893500D03*
Y2293500D03*
Y2193500D03*
Y2093500D03*
X852500Y2581410D03*
X893010Y2489980D03*
X919300Y2393500D03*
X852500Y2776260D03*
X875050Y2678840D03*
X919300Y3064000D03*
Y2964000D03*
X877850Y2873000D03*
X919300Y3364000D03*
Y3264000D03*
Y3164000D03*
Y3564000D03*
Y3464000D03*
Y3864000D03*
Y3764000D03*
Y3664000D03*
X812800Y3860800D03*
X889000Y4165600D03*
Y4089400D03*
X830400Y4224200D03*
X939800Y4419600D03*
X929500Y4622600D03*
X830400Y4513400D03*
Y4589600D03*
X929500Y4722600D03*
X993210Y4799670D03*
X984200Y5702200D03*
Y6102200D03*
X977800Y8001000D03*
Y8356600D03*
Y8756600D03*
Y9156600D03*
Y9556600D03*
X1219200Y863600D03*
X1092200D03*
X1219200Y1168400D03*
X1231630Y1515110D03*
X1192070Y1801590D03*
X1262780Y1730880D03*
X1090210Y1656530D03*
X1160920Y1585820D03*
X1093900Y2068460D03*
Y1968460D03*
X1121360Y1872300D03*
X1093900Y2268460D03*
Y2168460D03*
X1081030Y2567630D03*
X1093900Y2468460D03*
Y2368460D03*
X1093890Y2864000D03*
X1076970Y2765440D03*
X1093600Y2666830D03*
X1093900Y3064000D03*
Y2964000D03*
Y3364000D03*
Y3264000D03*
Y3164000D03*
Y3564000D03*
Y3464000D03*
Y3864000D03*
Y3764000D03*
Y3664000D03*
X1168400Y4292600D03*
Y4356100D03*
Y4419600D03*
X1104100Y4622600D03*
X1117600Y4470400D03*
X1063920Y4870390D03*
X1134640Y4941100D03*
X1151250Y4710790D03*
X1221960Y4781500D03*
X1205350Y5011810D03*
X1276060Y5082520D03*
X1066800Y5080000D03*
X1314400Y158600D03*
X1503500Y720300D03*
Y620300D03*
Y520300D03*
X1498600Y838200D03*
X1371600Y863600D03*
X1514480Y1232260D03*
X1302340Y1444400D03*
X1373050Y1373680D03*
X1443770Y1302970D03*
X1446100Y1784430D03*
X1485860Y1692680D03*
X1333490Y1660170D03*
X1404200Y1589460D03*
X1446100Y1984430D03*
Y1884430D03*
Y2284430D03*
Y2184430D03*
Y2084430D03*
Y2584430D03*
Y2484430D03*
Y2384430D03*
Y2684430D03*
X1447800Y2794000D03*
X1346200Y2844800D03*
X1295400Y2946400D03*
Y3073400D03*
Y3200400D03*
Y3327400D03*
X1446100Y3564000D03*
X1346200Y3454400D03*
X1446100Y3864000D03*
Y3664000D03*
X1447800Y3759200D03*
X1397000Y3937000D03*
Y4089400D03*
Y4165600D03*
X1338400Y4224200D03*
X1437500Y4622600D03*
X1338400Y4513400D03*
Y4589600D03*
X1447800Y4470400D03*
X1292670Y4852210D03*
X1363380Y4922920D03*
X1437500Y4722600D03*
X1486120Y4809980D03*
X1346770Y5153230D03*
X1417480Y5223940D03*
X1434090Y4993630D03*
X1504800Y5064340D03*
X1488190Y5294650D03*
X1371600Y6121400D03*
Y6299200D03*
Y7137400D03*
Y7340600D03*
X1377800Y8001000D03*
Y8356600D03*
Y8756600D03*
Y9156600D03*
Y9556600D03*
X1714400Y158600D03*
X1765200Y558800D03*
Y958800D03*
X1601330Y1182700D03*
X1701800Y1168400D03*
X1616330Y1377330D03*
X1701800Y1371600D03*
X1676400Y1447800D03*
X1654300Y1771160D03*
X1725010Y1700450D03*
X1620700Y2065340D03*
Y1965340D03*
Y1865340D03*
X1752600Y2076400D03*
X1620700Y2265340D03*
Y2165340D03*
Y2565340D03*
Y2465340D03*
Y2365340D03*
X1752600Y2476400D03*
X1614100Y2865130D03*
X1620700Y2765340D03*
Y2665340D03*
X1610590Y3065090D03*
X1611580Y2965100D03*
X1752600Y2876400D03*
X1617190Y3364060D03*
X1606430Y3264640D03*
X1614860Y3165000D03*
X1752600Y3276400D03*
X1620700Y3564000D03*
Y3464000D03*
Y3864000D03*
Y3664000D03*
X1752600Y3860800D03*
X1612100Y4622600D03*
X1556830Y4880690D03*
X1627540Y4951400D03*
X1641300Y4718240D03*
X1712010Y4788950D03*
X1575510Y5135050D03*
X1673940Y5152720D03*
X1773940D03*
X1722790Y4981880D03*
X1582700Y5327320D03*
X1682700D03*
X1782700D03*
X1625600Y6121400D03*
Y6299200D03*
Y7137400D03*
Y7340600D03*
X1777800Y8001000D03*
Y8356600D03*
Y8756600D03*
Y9156600D03*
Y9556600D03*
X2062300Y720300D03*
Y620300D03*
Y520300D03*
X1854200Y1168400D03*
Y1371600D03*
Y1447800D03*
Y1651000D03*
X1879600Y3302000D03*
X1905000Y3454400D03*
Y3581400D03*
X1879600Y3860800D03*
X1930400Y3987800D03*
Y4165600D03*
X1810320Y4807280D03*
X1910320D03*
X2010320D03*
X1873940Y5152720D03*
X1973940D03*
X1822790Y4981880D03*
X1922790D03*
X2022790D03*
X1882700Y5327320D03*
X1982700D03*
X1924000Y9759800D03*
X2114400Y158600D03*
X2082800Y838200D03*
X2209800Y863600D03*
X2152600Y1676400D03*
X2279600Y4591000D03*
X2110320Y4807280D03*
X2210320D03*
X2310320D03*
X2073940Y5152720D03*
X2173940D03*
X2273940D03*
X2122790Y4981880D03*
X2222790D03*
X2322790D03*
X2082700Y5327320D03*
X2182700D03*
X2282240Y5336870D03*
X2152600Y5702200D03*
Y6102200D03*
X2260600Y6908800D03*
X2108200Y7315200D03*
X2108000Y8001000D03*
Y8356600D03*
Y8756600D03*
Y9156600D03*
Y9556600D03*
X2311400Y9759800D03*
X2565400Y158600D03*
X2514600Y482600D03*
Y609600D03*
Y736600D03*
X2362200Y863600D03*
X2489200D03*
X2349400Y1092200D03*
Y1492200D03*
X2552600Y1676400D03*
Y2076400D03*
Y2476400D03*
X2410320Y4807280D03*
X2506610Y4834250D03*
X2577320Y4904960D03*
X2370610Y5178310D03*
X2421740Y4996300D03*
X2492450Y5067010D03*
X2563160Y5137720D03*
X2352960Y5407580D03*
X2423670Y5478290D03*
X2441320Y5249020D03*
X2512030Y5319730D03*
X2582740Y5390440D03*
X2494380Y5549000D03*
X2565090Y5619710D03*
X2508200Y5803800D03*
Y6203800D03*
X2489200Y7035800D03*
X2438400Y7264400D03*
X2514600Y7848600D03*
X2438400Y8128000D03*
Y8559800D03*
X2533600Y8737600D03*
Y9137600D03*
X2438400Y8991600D03*
X2463800Y9372600D03*
X2692400Y3454400D03*
Y3581400D03*
X2633870Y5208430D03*
X2648030Y4975670D03*
X2718740Y5046380D03*
X2789460Y5117090D03*
X2653450Y5461150D03*
X2704580Y5279150D03*
X2775290Y5349860D03*
X2846010Y5420570D03*
X2635800Y5690420D03*
X2724160Y5531860D03*
X2794870Y5602570D03*
X2706510Y5761130D03*
X2777220Y5831840D03*
X2847930Y5902550D03*
X2794000Y6273800D03*
Y6350000D03*
X2743200Y6604000D03*
X2667000D03*
X2743200Y6697800D03*
X2641600D03*
X2768600Y7069000D03*
X2692400Y7007900D03*
X2794000Y7162800D03*
X2819400Y7264400D03*
X2711400Y9759800D03*
X2965400Y158600D03*
X3009800Y1676400D03*
Y2076400D03*
Y2476400D03*
X3048000Y3048000D03*
Y3175000D03*
X3098800Y3860800D03*
X2895600Y4165600D03*
Y3962400D03*
X2946400Y4292600D03*
Y4356100D03*
Y4419600D03*
X3116400Y4224200D03*
X2895600Y4470400D03*
X3116400Y4513400D03*
Y4589600D03*
X2860170Y5187810D03*
X2990800Y4997400D03*
X2916720Y5491280D03*
X2930880Y5258520D03*
X3001590Y5329230D03*
X3072300Y5399940D03*
X2865580Y5673280D03*
X2936300Y5743990D03*
X2987430Y5561990D03*
X3058140Y5632700D03*
X3118180Y5712670D03*
X2918640Y5973260D03*
X3007010Y5814710D03*
X3077720Y5885420D03*
X3118180Y5812670D03*
X2970860Y6058540D03*
Y6158540D03*
X2870200Y6273800D03*
Y6350000D03*
X3098800D03*
X3048000Y6502400D03*
Y6400800D03*
X3098800Y6604000D03*
X3048000Y6705600D03*
Y6807200D03*
X2870200Y7069000D03*
Y7162800D03*
X2921000Y7848600D03*
X2933600Y8737600D03*
Y9137600D03*
X2971800Y9398000D03*
X3092400Y9759800D03*
X3365400Y158600D03*
X3124200Y431800D03*
X3251200D03*
X3276600Y863600D03*
X3149600D03*
X3276600Y1092200D03*
X3246250Y1471530D03*
X3316960Y1400820D03*
X3379900Y1765980D03*
Y1665980D03*
X3205300Y1762760D03*
Y1662760D03*
Y1562760D03*
X3379900Y2065980D03*
Y1965980D03*
Y1865980D03*
X3205300Y2062760D03*
Y1962760D03*
Y1862760D03*
X3379900Y2265980D03*
Y2165980D03*
X3205300Y2262760D03*
Y2162760D03*
X3379900Y2565980D03*
Y2465980D03*
Y2365980D03*
X3205300Y2562760D03*
Y2462760D03*
Y2362760D03*
X3379900Y2865980D03*
Y2765980D03*
Y2665980D03*
X3205300Y2862760D03*
Y2762760D03*
Y2662760D03*
X3364560Y3064800D03*
X3379900Y2965980D03*
X3149600Y2971800D03*
X3379900Y3364000D03*
Y3264000D03*
X3376820Y3164050D03*
X3205300Y3364000D03*
X3149600Y3251200D03*
X3379900Y3564000D03*
Y3464000D03*
X3205300Y3564000D03*
Y3464000D03*
X3379900Y3864000D03*
Y3764000D03*
Y3664000D03*
X3205300Y3864000D03*
Y3764000D03*
Y3664000D03*
X3175000Y4165600D03*
Y4089400D03*
X3225800Y4419600D03*
X3215500Y4556090D03*
Y4656090D03*
Y4960890D03*
Y4860890D03*
Y4760890D03*
X3315030Y5134370D03*
X3265450Y5047520D03*
X3143010Y5470650D03*
X3315130Y5422810D03*
X3348670Y5328610D03*
X3315210Y5234370D03*
X3213720Y5541360D03*
X3284430Y5612070D03*
X3352790Y5701750D03*
X3351400Y5516000D03*
X3145460Y5958970D03*
X3315030Y5894370D03*
X3315090Y5794370D03*
X3276600Y6019800D03*
X3127000Y6175000D03*
Y6098800D03*
X3327000Y6172600D03*
Y6096400D03*
X3302000Y6502400D03*
Y6400800D03*
X3200400Y6350000D03*
X3302000Y6604000D03*
X3200400D03*
X3302000Y6807200D03*
Y6705600D03*
Y7035800D03*
X3124200Y6858000D03*
X3225800D03*
X3378200D03*
X3302000Y7112000D03*
X3352800Y7188200D03*
X3251200D03*
X3327400Y7416800D03*
X3302000Y7797800D03*
X3327400Y8305800D03*
X3403600Y431800D03*
X3530600D03*
X3535500Y745700D03*
Y645700D03*
Y545700D03*
X3530600Y863600D03*
X3403600D03*
X3458380Y1259400D03*
X3529090Y1188680D03*
X3628920Y1182700D03*
X3611230Y1357300D03*
X3387670Y1330110D03*
X3397210Y1567490D03*
X3479800Y2565400D03*
X3556000Y2514600D03*
X3479800Y2667000D03*
Y2768600D03*
Y2870200D03*
X3530600Y2946400D03*
X3632200D03*
X3403600Y3987800D03*
X3454400Y4292600D03*
Y4356100D03*
Y4419600D03*
X3624400Y4224200D03*
X3390100Y4619330D03*
X3403600Y4470400D03*
X3624400Y4513400D03*
Y4589600D03*
X3390100Y4919330D03*
Y4819330D03*
Y4719330D03*
X3593960Y5188710D03*
X3493970Y5187640D03*
X3489630Y5087730D03*
X3457790Y4992940D03*
X3489630Y5994370D03*
Y5894370D03*
X3606800Y5842000D03*
X3477000Y6175000D03*
Y6098800D03*
X3638220Y6193620D03*
X3505200Y6350000D03*
X3403600D03*
X3556000Y6502400D03*
Y6400800D03*
X3403600Y6604000D03*
X3505200D03*
X3556000Y6807200D03*
Y6705600D03*
X3479800Y6858000D03*
X3581400Y7391400D03*
X3403600Y8559800D03*
X3632200Y8737600D03*
X3479800Y9759800D03*
X3765400Y158600D03*
X3797200Y533400D03*
Y933400D03*
X3728920Y1182700D03*
X3711230Y1357300D03*
X3897300Y1792810D03*
Y1692810D03*
Y1592810D03*
X3722700Y1796040D03*
Y1696040D03*
Y1596040D03*
X3897300Y1992810D03*
Y1892810D03*
X3722700Y1996040D03*
Y1896040D03*
X3897300Y2292810D03*
Y2192810D03*
Y2092810D03*
X3722700Y2296040D03*
Y2196040D03*
Y2096040D03*
X3860220Y2585710D03*
X3897220Y2492810D03*
X3897300Y2392810D03*
X3722700Y2396040D03*
X3657600Y2489200D03*
X3897220Y2864380D03*
X3860250Y2771470D03*
X3897300Y2678580D03*
Y3064380D03*
Y2964380D03*
X3722700Y3064440D03*
Y2964440D03*
X3897300Y3364380D03*
Y3264380D03*
Y3164380D03*
X3722700Y3364440D03*
Y3264440D03*
Y3164440D03*
X3897300Y3564380D03*
Y3464380D03*
X3722700Y3564440D03*
Y3464440D03*
X3905960Y3864000D03*
X3897300Y3764380D03*
Y3664380D03*
X3722700Y3864440D03*
Y3764440D03*
Y3664440D03*
X3708400Y3987800D03*
X3683000Y4165600D03*
Y4089400D03*
X3733800Y4419600D03*
X3723500Y4696380D03*
Y4596380D03*
X3901300Y4545580D03*
Y4645580D03*
X3898100Y4749660D03*
X3725800Y4896360D03*
X3723500Y4796380D03*
X3736900Y5193760D03*
X3727410Y5094210D03*
X3741200Y4995160D03*
X3681810Y5428030D03*
X3711510Y5332550D03*
X3681430Y5237170D03*
X3898100Y5491230D03*
X3711460Y5523530D03*
X3898100Y5691230D03*
Y5591230D03*
X3708400Y5664200D03*
X3815900Y5967180D03*
X3886610Y5896470D03*
X3708400Y5765800D03*
X3663620Y6119020D03*
X3745190Y6037890D03*
X3733800Y6273800D03*
X3810000D03*
X3733800Y6350000D03*
X3810000D03*
X3860800Y6604000D03*
Y6697800D03*
X3708400Y7162800D03*
X3784600D03*
X3708400Y7086600D03*
X3784600D03*
X3657600Y7899400D03*
X3784600Y8737600D03*
X3879800Y9759800D03*
X4114800Y431800D03*
X4094300Y745700D03*
Y645700D03*
Y545700D03*
X4089400Y863600D03*
X3911600Y1168400D03*
Y1371600D03*
X4108400Y1676400D03*
X4083000Y2076400D03*
Y2476400D03*
Y2876400D03*
X4137970Y4890700D03*
X4054990Y4834900D03*
X3955030Y4831870D03*
X4158520Y5185190D03*
X4141560Y5086640D03*
X4159730Y4988310D03*
X3997720Y5482470D03*
X4095860Y5463310D03*
X4156510Y5383790D03*
X4145740Y5284380D03*
X3911600Y5791200D03*
X3937000Y6604000D03*
Y6697800D03*
X4013200Y6553200D03*
X4102100Y6578600D03*
X4064000Y7035800D03*
X3937000Y7670800D03*
X4203600Y158600D03*
X4241800Y431800D03*
X4394200D03*
X4216400Y863600D03*
X4343400D03*
X4356000Y1066800D03*
Y1466800D03*
X4343400Y3632200D03*
X4368800Y4775200D03*
X4362400Y5219600D03*
Y5645000D03*
X4191000Y6019800D03*
X4292600Y6375400D03*
X4185000Y6607000D03*
X4267200Y6629400D03*
X4216400Y7416800D03*
X4191000Y8737600D03*
X4279800Y9759800D03*
X4603600Y158600D03*
X4546600Y482600D03*
Y609600D03*
Y736600D03*
X4470400Y863600D03*
X4565600Y1676400D03*
Y2076400D03*
X4470400Y3454400D03*
Y3581400D03*
X4622800Y6248400D03*
X4653280Y6101080D03*
X4514800Y6743600D03*
Y7143600D03*
X4572000Y7747000D03*
Y8229600D03*
Y8737600D03*
X4679800Y9759800D03*
X4724400Y4775200D03*
X4718000Y5219600D03*
Y5645000D03*
X4724400Y6248400D03*
X4754880Y6101080D03*
X4953000Y8712200D03*
X4978400Y158600D03*
X5207000Y406400D03*
Y863600D03*
X5073600Y1676400D03*
Y2076400D03*
Y2476400D03*
Y2876400D03*
Y3276600D03*
X5181600Y3454400D03*
Y3581400D03*
X5073600Y3676600D03*
Y4076600D03*
X5054600Y4394200D03*
Y4775200D03*
X5073600Y5219600D03*
Y5645000D03*
X5003800Y7416800D03*
X4978400Y7848600D03*
X5130800Y9759800D03*
X5378400Y158600D03*
X5359400Y406400D03*
Y863600D03*
X5410020Y1292430D03*
X5340680Y1364480D03*
Y1464480D03*
Y1564480D03*
Y1664480D03*
Y1764480D03*
Y1864480D03*
Y1964480D03*
X5362530Y2062070D03*
X5433240Y2132780D03*
X5276800Y5499000D03*
Y5899000D03*
X5384800Y7035800D03*
X5410200Y7670800D03*
X5334000Y7950200D03*
Y8255000D03*
Y8712200D03*
X5537200Y406400D03*
X5567500Y745700D03*
Y645700D03*
Y545700D03*
X5511800Y863600D03*
X5709560Y1278980D03*
X5609870Y1286840D03*
X5509870D03*
X5740400Y1168400D03*
X5715000Y1473200D03*
X5515280Y1654340D03*
Y1754340D03*
X5715000Y1600200D03*
X5515280Y1854340D03*
Y1954340D03*
X5578890Y2031510D03*
X5503950Y2203490D03*
X5574660Y2274200D03*
X5645370Y2344910D03*
X5649600Y2102220D03*
X5720310Y2172930D03*
X5716080Y2415620D03*
X5530800Y2876400D03*
Y3276600D03*
X5664200Y3962400D03*
Y4165600D03*
X5740400Y4292600D03*
Y4356100D03*
Y4419600D03*
X5689600Y4470400D03*
X5690670Y4957320D03*
X5687470Y5152440D03*
X5667170Y5054520D03*
X5721580Y5335030D03*
X5668090Y5250540D03*
X5638800Y6731000D03*
X5740400D03*
X5664200Y7467600D03*
X5734000Y8001000D03*
Y8401000D03*
X5530800Y9759800D03*
X5778400Y158600D03*
X5829200Y584200D03*
X5943600Y1168400D03*
Y1371600D03*
X5929770Y1808340D03*
X5929300Y1708350D03*
Y1608350D03*
X5754700Y1791970D03*
Y1691970D03*
X6000480Y1879060D03*
X5907260Y2032760D03*
X5836550Y1962050D03*
X5765840Y1891340D03*
X5791020Y2243640D03*
X5861730Y2314350D03*
X5977970Y2103470D03*
X5786790Y2486330D03*
X5857500Y2557040D03*
X5932440Y2385060D03*
X6003150Y2455770D03*
X5928210Y2627750D03*
X5998920Y2698470D03*
X5999300Y2798460D03*
Y2898460D03*
Y2998460D03*
Y3098460D03*
Y3198460D03*
Y3298460D03*
Y3398460D03*
Y3498460D03*
Y3598460D03*
Y3698460D03*
Y3798460D03*
X5892800Y3835400D03*
X5791200D03*
X5969000Y4165600D03*
Y4089400D03*
X5910400Y4224200D03*
Y4513400D03*
Y4589600D03*
X5774640Y4903010D03*
X5874600Y4900470D03*
X5974600D03*
X5918240Y5360670D03*
X5818240D03*
X5829300Y6731000D03*
X5918200D03*
X5842000Y8763000D03*
X5930800Y9759800D03*
X6178400Y158600D03*
X6248400Y889000D03*
X6141900Y2020480D03*
X6071190Y1949770D03*
X6212610Y2091190D03*
X6190110Y2315610D03*
X6119400Y2244900D03*
X6048680Y2174190D03*
X6073860Y2526480D03*
X6144570Y2597190D03*
X6260820Y2386320D03*
X6173900Y2692790D03*
Y2792790D03*
Y2892790D03*
Y2992790D03*
Y3092790D03*
Y3192790D03*
Y3292790D03*
Y3392790D03*
Y3492790D03*
Y3592790D03*
Y3692790D03*
Y3792790D03*
X6197600Y3886200D03*
X6248400Y4292600D03*
Y4356100D03*
Y4419600D03*
X6019800D03*
X6184100Y4696660D03*
Y4596660D03*
X6009500Y4706760D03*
X6197600Y4470400D03*
X6184100Y4896660D03*
Y4796660D03*
X6009500Y4806760D03*
X6167740Y5194960D03*
X6179500Y5095650D03*
X6172040Y4995930D03*
X6240260Y5476720D03*
X6184100Y5393990D03*
X6181380Y5294020D03*
X6009500Y5401560D03*
X6229960Y5713340D03*
X6159250Y5642630D03*
X6088540Y5571920D03*
X6017830Y5501210D03*
X6205220Y6057900D03*
X6207580Y6611800D03*
X6205400Y6697800D03*
X6248400Y7016440D03*
X6146800Y7112000D03*
Y7696200D03*
X6134000Y8001000D03*
Y8401000D03*
X6400800Y889000D03*
X6527800D03*
X6400800Y1168400D03*
X6527800Y2057400D03*
X6424740Y2303320D03*
X6354030Y2232610D03*
X6283320Y2161900D03*
X6495450Y2374030D03*
X6472950Y2598450D03*
X6402240Y2527740D03*
X6331530Y2457030D03*
X6526100Y2783150D03*
Y2683150D03*
X6358140Y3088650D03*
X6448940Y3046770D03*
X6526100Y2983150D03*
Y2883150D03*
X6321200Y3367300D03*
X6358230Y3274410D03*
X6321120Y3181550D03*
X6526100Y3564000D03*
X6444440Y3506280D03*
X6355090Y3461380D03*
X6526100Y3664000D03*
X6483680Y3972000D03*
X6477000Y4089400D03*
Y4165600D03*
X6418400Y4224200D03*
X6527800Y4419600D03*
X6517500Y4649560D03*
X6418400Y4513400D03*
Y4589600D03*
X6522750Y4948280D03*
X6520630Y4749510D03*
X6517500Y5147520D03*
X6528470Y5048120D03*
X6517500Y5447520D03*
Y5347520D03*
Y5247520D03*
X6452400Y5688860D03*
X6381690Y5618150D03*
X6310980Y5547430D03*
X6517500Y5747520D03*
Y5647520D03*
Y5547520D03*
X6512800Y5996180D03*
X6442090Y5925470D03*
X6371380Y5854760D03*
X6300670Y5784050D03*
X6521780Y6195780D03*
Y6095780D03*
X6426200Y6350000D03*
X6350000D03*
X6426200Y6286500D03*
X6350000D03*
X6289220Y6611800D03*
X6284140Y6697800D03*
X6461940Y7069000D03*
X6398440D03*
X6456860Y7155000D03*
X6393360D03*
X6324600Y7340600D03*
X6502400Y7696200D03*
X6350000Y8686800D03*
X6330800Y9759800D03*
X6629400Y158600D03*
X6553200Y508000D03*
Y685800D03*
X6700700Y2592430D03*
X6636870Y2515450D03*
X6566160Y2444740D03*
X6700700Y2792430D03*
Y2692430D03*
X6700560Y3092430D03*
X6700700Y2992430D03*
Y2892430D03*
X6661490Y3371990D03*
X6700660Y3279980D03*
X6665880Y3186230D03*
X6700700Y3564000D03*
X6700660Y3464000D03*
X6700700Y3664000D03*
X6749120Y4680910D03*
X6692100Y4598760D03*
X6532710Y4848780D03*
X6692100Y5141280D03*
X6792100Y5141110D03*
X6692100Y5441280D03*
Y5341280D03*
Y5241280D03*
X6734260Y5731960D03*
X6692100Y5641280D03*
Y5541280D03*
X6671640Y5993760D03*
X6651240Y5895860D03*
X6580530Y5825150D03*
X6683000Y6175000D03*
Y6098800D03*
X6604000Y6502400D03*
Y6400800D03*
X6654800Y6350000D03*
X6756400D03*
Y6604000D03*
X6654800D03*
X6604000Y6807200D03*
Y6705600D03*
X6654800Y6858000D03*
X6756400D03*
X6783000Y7263200D03*
X6629400Y8407400D03*
Y8737600D03*
X6769000Y9759800D03*
X7029400Y158600D03*
X7035800Y1524000D03*
X6858000Y2057400D03*
X6959600Y3454400D03*
Y3581400D03*
X6858000Y3835400D03*
X6959600D03*
X7010400Y3987800D03*
Y4140200D03*
X6985000Y4267200D03*
X6945720Y4706780D03*
X6849120Y4680910D03*
X6979290Y4889470D03*
X6998960Y4791430D03*
X6892070Y5138620D03*
X6976150Y5084490D03*
X6999850Y4987340D03*
X6890920Y5696020D03*
X6961630Y5625310D03*
X7032340Y5554600D03*
X6804970Y5802670D03*
X7044360Y5993760D03*
Y5893760D03*
Y5793760D03*
X6869760Y5893760D03*
Y5793760D03*
X6832600Y5956300D03*
X6883000Y6172600D03*
Y6096400D03*
X7033000Y6175000D03*
Y6098800D03*
X6858000Y6502400D03*
Y6400800D03*
X6934200Y6350000D03*
X7035800D03*
X6858000Y6604000D03*
X6959600D03*
X6858000Y6705600D03*
Y6807200D03*
X6858400Y7035400D03*
X6934200Y6858000D03*
X7035800D03*
X6858400Y7111600D03*
X6934200Y7264400D03*
X6858000Y7696200D03*
X6985000Y8001000D03*
Y8407400D03*
Y8737600D03*
X7188200Y457200D03*
X7162800Y762000D03*
Y584200D03*
X7239000Y863600D03*
Y1041400D03*
Y1320800D03*
X7264400Y5207000D03*
X7246520Y5067840D03*
X7302770Y4985160D03*
X7103050Y5483890D03*
X7173760Y5413180D03*
X7244470Y5342470D03*
X7112910Y5720950D03*
X7183620Y5650240D03*
X7254330Y5579530D03*
X7269880Y5687660D03*
X7210300Y5994160D03*
X7281010Y5923450D03*
X7128460Y5829080D03*
X7199170Y5758370D03*
X7196760Y6193240D03*
Y6093240D03*
X7315200Y6273800D03*
Y6350000D03*
X7112000Y6502400D03*
Y6400800D03*
X7061200Y6604000D03*
X7112000Y6807200D03*
Y6705600D03*
X7259140Y7069000D03*
X7259500Y7155000D03*
X7169000Y9759800D03*
X7302400Y9912200D03*
X7429400Y158600D03*
X7543800Y457200D03*
X7518400Y863600D03*
X7391400D03*
X7577590Y1209270D03*
X7506880Y1279980D03*
X7416800Y1066800D03*
X7436170Y1350690D03*
X7365460Y1421400D03*
X7321880Y1511400D03*
Y1611400D03*
Y1711400D03*
Y1811400D03*
X7496480Y1594420D03*
Y1694420D03*
Y1794420D03*
X7321880Y1911400D03*
Y2011400D03*
X7496480Y1894420D03*
Y1994420D03*
X7321880Y2111400D03*
X7341300Y2209500D03*
X7412010Y2280210D03*
X7496480Y2094420D03*
X7554550Y2175830D03*
X7482720Y2350920D03*
X7553430Y2421630D03*
X7359600Y2946400D03*
Y3346400D03*
X7467600Y3454400D03*
Y3581400D03*
X7359600Y4616400D03*
X7383080Y4925580D03*
X7444060Y4846310D03*
X7520600Y4781970D03*
X7395750Y5438110D03*
X7462480Y5363630D03*
X7529460Y5289370D03*
X7482020Y5475520D03*
X7561160Y5414400D03*
X7325040Y5508820D03*
X7493140Y5711320D03*
X7563850Y5640610D03*
X7340590Y5616950D03*
X7411300Y5546230D03*
X7351720Y5852740D03*
X7422430Y5782030D03*
X7569200Y5918200D03*
Y6223000D03*
X7391400Y6273800D03*
Y6350000D03*
X7434400Y6611800D03*
X7515680D03*
X7429680Y6697800D03*
X7515680D03*
X7322640Y7069000D03*
X7416800Y7010400D03*
X7323000Y7155000D03*
X7340600Y7696200D03*
Y8001000D03*
X7416800Y9575800D03*
X7493000D03*
X7829400Y158600D03*
X7599500Y745700D03*
Y645700D03*
Y545700D03*
X7774000Y1182700D03*
X7674000D03*
X7774000Y1357300D03*
X7674030Y1359750D03*
X7786700Y1732600D03*
Y1632600D03*
X7832260Y1821620D03*
X7625260Y2246540D03*
X7695970Y2317250D03*
X7624140Y2492340D03*
X7694850Y2563050D03*
X7766680Y2387960D03*
X7837390Y2458670D03*
X7765560Y2633760D03*
X7836270Y2704470D03*
X7613600Y4616400D03*
X7620000Y4826000D03*
X7747000Y4851400D03*
X7601560Y5220080D03*
X7673410Y5150530D03*
X7740060Y5075980D03*
X7764460Y5196610D03*
X7833380Y5124160D03*
X7625600Y5337930D03*
X7704780Y5276860D03*
X7663570Y5648120D03*
X7762310Y5663980D03*
X7823200Y6883400D03*
X7645400Y7137400D03*
X7696200Y7696200D03*
Y9271000D03*
X7620400Y9346800D03*
X7702400Y9912200D03*
X7861200Y609600D03*
X7848600Y939800D03*
X7975600Y1397000D03*
X8021310Y1763750D03*
X7961300Y1683760D03*
Y1583760D03*
X8092020Y1834460D03*
X8044390Y2033750D03*
X7973680Y1963040D03*
X7902970Y1892330D03*
X7908100Y2529380D03*
X7978810Y2600090D03*
X7906980Y2775180D03*
X7977690Y2845890D03*
X8049520Y2670800D03*
X8048400Y2916610D03*
X8026400Y3048000D03*
Y3302000D03*
X8077200Y3835400D03*
X7975600Y3962400D03*
Y4165600D03*
X8026400Y4292600D03*
Y4419600D03*
Y4356100D03*
X8010670Y4703270D03*
X8081380Y4632560D03*
X7975600Y4470400D03*
X7869250Y4844690D03*
X7939960Y4773980D03*
X8045510Y4912030D03*
X8002240Y5202220D03*
X8072950Y5131510D03*
X7904090Y5053450D03*
X7974800Y4982740D03*
X7983710Y5466120D03*
X7998870Y5367270D03*
X7944120Y5283590D03*
X7844830Y5607500D03*
X7904660Y5527370D03*
X7848600Y5918200D03*
Y6223000D03*
X8026400Y7696200D03*
Y8001000D03*
X8267600Y158600D03*
X8280400Y863600D03*
X8356600Y1473200D03*
X8304160Y2046600D03*
X8233450Y1975890D03*
X8162740Y1905170D03*
X8356600Y1879600D03*
X8327230Y2316600D03*
X8256520Y2245880D03*
X8185810Y2175170D03*
X8115100Y2104460D03*
X8120240Y2741510D03*
X8190950Y2812230D03*
X8119110Y2987320D03*
X8189830Y3058030D03*
X8260540Y3128740D03*
X8261660Y2882940D03*
X8332370Y2953650D03*
X8285300Y3225620D03*
Y3325620D03*
Y3425620D03*
Y3525620D03*
Y3625620D03*
Y3725620D03*
Y3825620D03*
X8178800Y3835400D03*
X8255000Y4165600D03*
Y4089400D03*
X8196400Y4224200D03*
X8280400Y4445000D03*
X8257640Y4699900D03*
X8328350Y4629190D03*
X8196400Y4513400D03*
X8128000D03*
X8285080Y4919380D03*
X8355790Y4848670D03*
X8116220Y4841320D03*
X8186930Y4770610D03*
X8143660Y5060800D03*
X8214370Y4990090D03*
X8229600Y6121400D03*
Y6299200D03*
Y7315200D03*
Y7137400D03*
X8356600Y7696200D03*
Y8001000D03*
X8331200Y9169400D03*
X8280400Y9118600D03*
X8585200Y711200D03*
Y533400D03*
X8432800Y863600D03*
X8585200Y1828800D03*
X8587000Y2329440D03*
X8516290Y2258730D03*
X8445580Y2188020D03*
X8374870Y2117310D03*
X8610080Y2599440D03*
X8539370Y2528730D03*
X8468660Y2458020D03*
X8397950Y2387310D03*
X8403080Y3024360D03*
X8459900Y3106650D03*
Y3206650D03*
Y3306650D03*
X8602790Y3344840D03*
X8459900Y3406650D03*
Y3506650D03*
Y3606650D03*
X8567270Y3527170D03*
X8548650Y3428920D03*
X8459900Y3706650D03*
Y3806650D03*
X8534400Y4292600D03*
Y4356100D03*
Y4419600D03*
X8401410Y4560900D03*
X8483600Y4470400D03*
X8426500Y4777960D03*
X8517040Y4735500D03*
X8617040D03*
X8509000Y5003800D03*
Y5308600D03*
X8483600Y6121400D03*
Y6299200D03*
Y7315200D03*
Y7137400D03*
X8432800Y8356600D03*
X8559800D03*
X8432800Y8229600D03*
X8559800D03*
X8432800Y8610600D03*
X8559800D03*
Y8483600D03*
X8432800D03*
X8509000Y9220200D03*
Y9296400D03*
X8667600Y158600D03*
X8686800Y1320800D03*
Y1549400D03*
X8890000Y1651000D03*
X8731200Y2279600D03*
X8799130Y2541570D03*
X8728420Y2470860D03*
X8657710Y2400150D03*
X8869840Y2612280D03*
X8812100Y2820410D03*
X8751500Y2740860D03*
X8680790Y2670150D03*
X8812100Y3120410D03*
Y3020410D03*
Y2920410D03*
Y3220410D03*
X8712200Y3302000D03*
X8648420Y3585600D03*
X8737600Y3606800D03*
X8812100Y3864000D03*
Y3764000D03*
Y3664000D03*
X8763000Y3962400D03*
Y4165600D03*
Y4089400D03*
X8704400Y4224200D03*
X8813800Y4394200D03*
X8790650Y4642410D03*
X8861360Y4571700D03*
X8704400Y4513400D03*
X8636000D03*
X8717040Y4710100D03*
X8788400Y5003800D03*
Y5308600D03*
X8661400Y7696200D03*
Y8001000D03*
X8686800Y8229600D03*
Y8356600D03*
Y8483600D03*
Y8610600D03*
X8839200Y9220200D03*
Y9296400D03*
Y9575800D03*
X8712200D03*
Y9702800D03*
X8839200D03*
Y9829800D03*
X8712200D03*
X9093200Y1397000D03*
X9131200Y1879600D03*
Y2279600D03*
X8986700Y2771710D03*
X8940550Y2682990D03*
X8986700Y3071710D03*
Y2971710D03*
Y2871710D03*
X8986150Y3371710D03*
X8986700Y3271710D03*
Y3171710D03*
Y3564000D03*
X8958930Y3467930D03*
X8986700Y3864000D03*
Y3764000D03*
Y3664000D03*
X9118600Y3860800D03*
X8932070Y4500990D03*
X9067800Y4775200D03*
X8985200Y5727600D03*
Y6127600D03*
X8909000Y6794400D03*
Y7194400D03*
X8966200Y7696200D03*
Y8001000D03*
Y9575800D03*
Y9829800D03*
Y9702800D03*
X9417000Y914400D03*
Y1314400D03*
X9194800Y2692400D03*
Y2997200D03*
X9220200Y3860800D03*
X9296400Y3962400D03*
X9398000Y4648200D03*
X9271000Y5257800D03*
X9245600Y6121400D03*
Y6299200D03*
Y7137400D03*
Y7315200D03*
X9601200Y1879600D03*
Y2184400D03*
Y2463800D03*
Y2768600D03*
Y3073400D03*
Y3378200D03*
X9550400Y3556000D03*
Y3632200D03*
X9525000Y5003800D03*
X9499600Y6121400D03*
Y6299200D03*
Y7137400D03*
Y7315200D03*
X9817000Y914400D03*
Y1314400D03*
X9925000Y1689000D03*
Y4857600D03*
Y5295800D03*
Y5695800D03*
Y6108600D03*
Y6508600D03*
Y6870600D03*
Y7270600D03*
G54D11*
X254000Y3810000D03*
Y5588000D03*
Y5842000D03*
Y6604000D03*
Y6858000D03*
X508000Y2717800D03*
Y3810000D03*
X1270000Y5588000D03*
Y5842000D03*
Y6604000D03*
Y6858000D03*
X2032000Y2717800D03*
Y3810000D03*
X2286000D03*
X2540000D03*
X2794000Y2717800D03*
Y3810000D03*
X4318000D03*
X4572000Y2717800D03*
Y3810000D03*
X4673600Y6477000D03*
X5334000Y2717800D03*
Y3810000D03*
X5588000D03*
X7112000Y2717800D03*
Y3810000D03*
X7366000D03*
X7620000Y2717800D03*
Y3810000D03*
X7874000D03*
X8128000Y5588000D03*
Y5842000D03*
Y6604000D03*
Y6858000D03*
X8458200Y9804400D03*
X9144000Y5588000D03*
Y5842000D03*
Y6604000D03*
Y6858000D03*
X9398000Y2717800D03*
Y3810000D03*
X9652000D03*
G54D20*
X9753600Y8610600D03*
Y9210600D03*
G54D21*
G01X1879600Y3302000D02*
X1701800Y3479800D01*
Y3987790D01*
X1676390Y4013200D01*
X1371600D01*
X1069500Y4315300D01*
Y4442290D01*
X990590Y4521200D01*
X939790D01*
X863590Y4445000D01*
X787410D01*
X736600Y4495810D01*
Y5181600D01*
X1117600Y5562600D01*
Y6223000D01*
X1397000Y6502400D01*
Y6731000D01*
X1524000Y6858000D01*
G01X4343400Y3632200D02*
X4749800D01*
X4876800Y3759200D01*
Y5791200D01*
X4292600Y6375400D01*
G54D12*
X254000Y4064000D03*
Y4318000D03*
X508000Y2971800D03*
Y3225800D03*
Y4064000D03*
Y4318000D03*
Y5588000D03*
Y5842000D03*
Y6604000D03*
Y6858000D03*
X762000Y5588000D03*
Y5842000D03*
Y6604000D03*
Y6858000D03*
X1524000Y5588000D03*
Y5842000D03*
Y6604000D03*
Y6858000D03*
X1778000Y5588000D03*
Y5842000D03*
Y6604000D03*
Y6858000D03*
X2032000Y2971800D03*
Y3225800D03*
Y4064000D03*
Y4318000D03*
X2286000Y4064000D03*
Y4318000D03*
X2540000Y4064000D03*
Y4318000D03*
X2794000Y2971800D03*
Y3225800D03*
Y4064000D03*
Y4318000D03*
X4318000Y4064000D03*
Y4318000D03*
X4572000Y2971800D03*
Y3225800D03*
Y4064000D03*
Y4318000D03*
X4927600Y6477000D03*
X5181600D03*
X5334000Y2971800D03*
Y3225800D03*
Y4064000D03*
Y4318000D03*
X5588000Y4064000D03*
Y4318000D03*
X7112000Y2971800D03*
Y3225800D03*
Y4064000D03*
Y4318000D03*
X7366000Y4064000D03*
Y4318000D03*
X7620000Y2971800D03*
Y3225800D03*
Y4064000D03*
Y4318000D03*
X7874000Y4064000D03*
Y4318000D03*
X7950200Y9804400D03*
X8382000Y5588000D03*
Y5842000D03*
Y6604000D03*
Y6858000D03*
X8204200Y9804400D03*
X8636000Y5588000D03*
Y5842000D03*
Y6604000D03*
Y6858000D03*
X9398000Y2971800D03*
Y3225800D03*
Y4064000D03*
Y4318000D03*
Y5588000D03*
Y5842000D03*
Y6604000D03*
Y6858000D03*
X9652000Y4064000D03*
Y4318000D03*
Y5588000D03*
Y5842000D03*
Y6604000D03*
Y6858000D03*
G54D22*
G01X161200Y4318000D02*
X254000D01*
G01X287200Y357000D02*
X555000D01*
G01X254000Y4225200D02*
Y4318000D01*
G01D02*
Y4410800D01*
G01Y4318000D02*
X346800D01*
G01X415200D02*
X508000D01*
G01X287200Y8000000D02*
X555000D01*
G01Y89200D02*
Y357000D01*
G01D02*
Y624800D01*
G01Y357000D02*
X822800D01*
G01X508000Y4225200D02*
Y4318000D01*
G01D02*
Y4410800D01*
G01Y4318000D02*
X600800D01*
G01X669200Y5588000D02*
X762000D01*
G01X669200Y5842000D02*
X762000D01*
G01X669200Y6604000D02*
X762000D01*
G01X669200Y6858000D02*
X762000D01*
G01X555000Y7732200D02*
Y8000000D01*
G01D02*
Y8267800D01*
G01Y8000000D02*
X822800D01*
G01X762000Y5495200D02*
Y5588000D01*
G01D02*
Y5680800D01*
G01Y5588000D02*
X854800D01*
G01X762000Y5749200D02*
Y5842000D01*
G01D02*
Y5934800D01*
G01Y5842000D02*
X854800D01*
G01X762000Y6511200D02*
Y6604000D01*
G01D02*
Y6696800D01*
G01Y6604000D02*
X854800D01*
G01X762000Y6765200D02*
Y6858000D01*
G01D02*
Y6950800D01*
G01Y6858000D02*
X854800D01*
G01X1102200Y635000D02*
X1270000D01*
G01Y467200D02*
Y635000D01*
G01D02*
Y802800D01*
G01Y635000D02*
X1437800D01*
G01X1442200Y1524000D02*
X1520000D01*
G01Y1446200D02*
Y1524000D01*
G01D02*
Y1601800D01*
G01Y1524000D02*
X1597800D01*
G01X1685200Y5588000D02*
X1778000D01*
G01X1685200Y5842000D02*
X1778000D01*
G01X1685200Y6604000D02*
X1778000D01*
G01X1685200Y6858000D02*
X1778000D01*
G01X2033000Y1446200D02*
Y1524000D01*
G01D02*
Y1601800D01*
G01X1955200Y1524000D02*
X2033000D01*
G01D02*
X2110800D01*
G01X2032000Y4225200D02*
Y4318000D01*
G01D02*
Y4410800D01*
G01X1939200Y4318000D02*
X2032000D01*
G01D02*
X2124800D01*
G01X1778000Y5495200D02*
Y5588000D01*
G01D02*
Y5680800D01*
G01Y5588000D02*
X1870800D01*
G01X1778000Y5749200D02*
Y5842000D01*
G01D02*
Y5934800D01*
G01Y5842000D02*
X1870800D01*
G01X1778000Y6511200D02*
Y6604000D01*
G01D02*
Y6696800D01*
G01Y6604000D02*
X1870800D01*
G01X1778000Y6765200D02*
Y6858000D01*
G01D02*
Y6950800D01*
G01Y6858000D02*
X1870800D01*
G01X2286000Y467200D02*
Y635000D01*
G01D02*
Y802800D01*
G01X2118200Y635000D02*
X2286000D01*
G01D02*
X2453800D01*
G01X2286000Y4225200D02*
Y4318000D01*
G01D02*
Y4410800D01*
G01X2193200Y4318000D02*
X2286000D01*
G01D02*
X2378800D01*
G01X2540000Y4225200D02*
Y4318000D01*
G01D02*
Y4410800D01*
G01X2447200Y4318000D02*
X2540000D01*
G01D02*
X2632800D01*
G01X2807950Y889000D02*
X2895600D01*
G01X2807950Y1143000D02*
X2895600D01*
G01X2794000Y4225200D02*
Y4318000D01*
G01D02*
Y4410800D01*
G01X2701200Y4318000D02*
X2794000D01*
G01D02*
X2886800D01*
G01X2895600Y801350D02*
Y889000D01*
G01D02*
Y976650D01*
G01Y889000D02*
X2983250D01*
G01X2895600Y1055350D02*
Y1143000D01*
G01D02*
Y1230650D01*
G01Y1143000D02*
X2983250D01*
G01X3302000Y467200D02*
Y635000D01*
G01D02*
Y802800D01*
G01X3134200Y635000D02*
X3302000D01*
G01D02*
X3469800D01*
G01X3302000Y9043650D02*
Y9144000D01*
G01D02*
Y9244350D01*
G01X3201650Y9144000D02*
X3302000D01*
G01D02*
X3402350D01*
G01X3552000Y1446200D02*
Y1524000D01*
G01D02*
Y1601800D01*
G01X3474200Y1524000D02*
X3552000D01*
G01D02*
X3629800D01*
G01X3556000Y9297650D02*
Y9398000D01*
G01D02*
Y9498350D01*
G01X3455650Y9398000D02*
X3556000D01*
G01D02*
X3656350D01*
G01X4065000Y1446200D02*
Y1524000D01*
G01D02*
Y1601800D01*
G01X3987200Y1524000D02*
X4065000D01*
G01D02*
X4142800D01*
G01X4064000Y9043650D02*
Y9144000D01*
G01D02*
Y9244350D01*
G01X3963650Y9144000D02*
X4064000D01*
G01D02*
X4164350D01*
G01X4318000Y467200D02*
Y635000D01*
G01D02*
Y802800D01*
G01X4150200Y635000D02*
X4318000D01*
G01D02*
X4485800D01*
G01X4318000Y4225200D02*
Y4318000D01*
G01D02*
Y4410800D01*
G01X4225200Y4318000D02*
X4318000D01*
G01D02*
X4410800D01*
G01X4318000Y9297650D02*
Y9398000D01*
G01D02*
Y9498350D01*
G01X4217650Y9398000D02*
X4318000D01*
G01D02*
X4418350D01*
G01X4572000Y4225200D02*
Y4318000D01*
G01D02*
Y4410800D01*
G01X4479200Y4318000D02*
X4572000D01*
G01D02*
X4664800D01*
G01X4839950Y889000D02*
X4927600D01*
G01X4839950Y1143000D02*
X4927600D01*
G01X4826000Y9043650D02*
Y9144000D01*
G01D02*
Y9244350D01*
G01X4725650Y9144000D02*
X4826000D01*
G01D02*
X4926350D01*
G01X5166200Y635000D02*
X5334000D01*
G01X4927600Y801350D02*
Y889000D01*
G01D02*
Y976650D01*
G01Y889000D02*
X5015250D01*
G01X4927600Y1055350D02*
Y1143000D01*
G01D02*
Y1230650D01*
G01Y1143000D02*
X5015250D01*
G01X5181600Y6384200D02*
Y6477000D01*
G01D02*
Y6569800D01*
G01X5088800Y6477000D02*
X5181600D01*
G01D02*
X5274400D01*
G01X5080000Y9297650D02*
Y9398000D01*
G01D02*
Y9498350D01*
G01X4979650Y9398000D02*
X5080000D01*
G01D02*
X5180350D01*
G01X5334000Y467200D02*
Y635000D01*
G01D02*
Y802800D01*
G01Y635000D02*
X5501800D01*
G01X5334000Y4225200D02*
Y4318000D01*
G01D02*
Y4410800D01*
G01X5241200Y4318000D02*
X5334000D01*
G01D02*
X5426800D01*
G01X5584000Y1446200D02*
Y1524000D01*
G01D02*
Y1601800D01*
G01X5506200Y1524000D02*
X5584000D01*
G01D02*
X5661800D01*
G01X5588000Y4225200D02*
Y4318000D01*
G01D02*
Y4410800D01*
G01X5495200Y4318000D02*
X5588000D01*
G01D02*
X5680800D01*
G01X5588000Y9043650D02*
Y9144000D01*
G01D02*
Y9244350D01*
G01X5487650Y9144000D02*
X5588000D01*
G01D02*
X5688350D01*
G01X5842000Y9297650D02*
Y9398000D01*
G01D02*
Y9498350D01*
G01X5741650Y9398000D02*
X5842000D01*
G01D02*
X5942350D01*
G01X6182200Y635000D02*
X6350000D01*
G01X6097000Y1446200D02*
Y1524000D01*
G01D02*
Y1601800D01*
G01X6019200Y1524000D02*
X6097000D01*
G01D02*
X6174800D01*
G01X6350000Y467200D02*
Y635000D01*
G01D02*
Y802800D01*
G01Y635000D02*
X6517800D01*
G01X6350000Y9043650D02*
Y9144000D01*
G01D02*
Y9244350D01*
G01X6249650Y9144000D02*
X6350000D01*
G01D02*
X6450350D01*
G01X6959600Y801350D02*
Y889000D01*
G01D02*
Y976650D01*
G01X6871950Y889000D02*
X6959600D01*
G01D02*
X7047250D01*
G01X6959600Y1055350D02*
Y1143000D01*
G01D02*
Y1230650D01*
G01X6871950Y1143000D02*
X6959600D01*
G01D02*
X7047250D01*
G01X7019200Y4318000D02*
X7112000D01*
G01X7198200Y635000D02*
X7366000D01*
G01X7112000Y4225200D02*
Y4318000D01*
G01D02*
Y4410800D01*
G01Y4318000D02*
X7204800D01*
G01X7273200D02*
X7366000D01*
G01Y467200D02*
Y635000D01*
G01D02*
Y802800D01*
G01Y635000D02*
X7533800D01*
G01X7538200Y1524000D02*
X7616000D01*
G01X7366000Y4225200D02*
Y4318000D01*
G01D02*
Y4410800D01*
G01Y4318000D02*
X7458800D01*
G01X7527200D02*
X7620000D01*
G01X7616000Y1446200D02*
Y1524000D01*
G01D02*
Y1601800D01*
G01Y1524000D02*
X7693800D01*
G01X7781200Y4318000D02*
X7874000D01*
G01X7620000Y4225200D02*
Y4318000D01*
G01D02*
Y4410800D01*
G01Y4318000D02*
X7712800D01*
G01X8051200Y1524000D02*
X8129000D01*
G01X7874000Y4225200D02*
Y4318000D01*
G01D02*
Y4410800D01*
G01Y4318000D02*
X7966800D01*
G01X8214200Y635000D02*
X8382000D01*
G01X8129000Y1446200D02*
Y1524000D01*
G01D02*
Y1601800D01*
G01Y1524000D02*
X8206800D01*
G01X8382000Y467200D02*
Y635000D01*
G01D02*
Y802800D01*
G01Y635000D02*
X8549800D01*
G01X8543200Y5588000D02*
X8636000D01*
G01X8543200Y5842000D02*
X8636000D01*
G01X8543200Y6604000D02*
X8636000D01*
G01X8543200Y6858000D02*
X8636000D01*
G01Y5495200D02*
Y5588000D01*
G01D02*
Y5680800D01*
G01Y5588000D02*
X8728800D01*
G01X8636000Y5749200D02*
Y5842000D01*
G01D02*
Y5934800D01*
G01Y5842000D02*
X8728800D01*
G01X8636000Y6511200D02*
Y6604000D01*
G01Y6765200D02*
Y6858000D01*
G01Y6604000D02*
Y6696800D01*
G01Y6604000D02*
X8728800D01*
G01X8636000Y6858000D02*
Y6950800D01*
G01Y6858000D02*
X8728800D01*
G01X8991600Y801350D02*
Y889000D01*
G01D02*
Y976650D01*
G01X8903950Y889000D02*
X8991600D01*
G01D02*
X9079250D01*
G01X8991600Y1055350D02*
Y1143000D01*
G01D02*
Y1230650D01*
G01X8903950Y1143000D02*
X8991600D01*
G01D02*
X9079250D01*
G01X9080800Y8860600D02*
X9288600D01*
G01X9177200Y357000D02*
X9445000D01*
G01X9305200Y4318000D02*
X9398000D01*
G01X9182200Y8000000D02*
X9450000D01*
G01X9288600Y8652800D02*
Y8860600D01*
G01D02*
Y9068400D01*
G01Y8860600D02*
X9496400D01*
G01X9445000Y89200D02*
Y357000D01*
G01D02*
Y624800D01*
G01Y357000D02*
X9712800D01*
G01X9398000Y4225200D02*
Y4318000D01*
G01D02*
Y4410800D01*
G01Y4318000D02*
X9490800D01*
G01X9559200D02*
X9652000D01*
G01X9559200Y5588000D02*
X9652000D01*
G01X9559200Y5842000D02*
X9652000D01*
G01X9559200Y6604000D02*
X9652000D01*
G01X9450000Y7732200D02*
Y8000000D01*
G01D02*
Y8267800D01*
G01Y8000000D02*
X9717800D01*
G01X9510800Y9210600D02*
X9753600D01*
G01X9652000Y4225200D02*
Y4318000D01*
G01D02*
Y4410800D01*
G01Y4318000D02*
X9744800D01*
G01X9652000Y5495200D02*
Y5588000D01*
G01D02*
Y5680800D01*
G01Y5588000D02*
X9744800D01*
G01X9652000Y5749200D02*
Y5842000D01*
G01D02*
Y5934800D01*
G01Y5842000D02*
X9744800D01*
G01X9652000Y6511200D02*
Y6604000D01*
G01Y6765200D02*
Y6858000D01*
G01Y6604000D02*
Y6696800D01*
G01Y6604000D02*
X9744800D01*
G01X9652000Y6858000D02*
Y6950800D01*
G01Y6858000D02*
X9744800D01*
G01X9753600Y8967800D02*
Y9210600D01*
G01D02*
Y9453400D01*
G54D13*
X555000Y357000D03*
Y8000000D03*
X9445000Y357000D03*
X9450000Y8000000D03*
G54D23*
G01X508000Y5588000D02*
X381000Y5715000D01*
Y5969000D01*
X101600Y6248400D01*
Y7188200D01*
X558800Y7645400D01*
X3606800D01*
X4343400Y6908800D01*
Y6604000D01*
X4292600Y6553200D01*
Y6551600D01*
X4268800Y6527800D01*
X4145680D01*
X4102100Y6571380D01*
Y6578600D01*
G01X939800Y4419600D02*
X711200Y4191000D01*
X381000D01*
X254000Y4064000D01*
G01X508000Y6604000D02*
X381000Y6731000D01*
Y6959590D01*
X482600Y7061190D01*
Y7366000D01*
X711200Y7594600D01*
X3581400D01*
X4267200Y6908800D01*
Y6629400D01*
G01X3352800Y7188200D02*
X3287700Y7253300D01*
Y7254120D01*
X3063120Y7478700D01*
X3062300D01*
X3048000Y7493000D01*
X1422400D01*
X990600Y7061200D01*
Y6324600D01*
X508000Y5842000D01*
G01Y6858000D02*
X1193800Y7543800D01*
X3556000D01*
X4064000Y7035800D01*
G01X1447800Y4470400D02*
X2082800D01*
X2159000Y4394200D01*
Y4191000D01*
X2286000Y4064000D01*
G01X2692400Y7007900D02*
X2657040Y6972540D01*
X2654540D01*
X1524000Y5842000D01*
G01X3251200Y7188200D02*
X3215840Y7223560D01*
Y7248960D01*
X3022600Y7442200D01*
X1547800D01*
X1524000Y7418400D01*
Y6858000D01*
G01X2540000Y4064000D02*
X2663750Y4187750D01*
Y4522800D01*
X2687550Y4546600D01*
X2946400D01*
X3073400Y4419600D01*
X3225800D01*
G01X3276600Y6019800D02*
Y6146800D01*
X3277000Y6147200D01*
Y6248800D01*
X3327400Y6299200D01*
X3606800D01*
X3733800Y6426200D01*
X3987800D01*
X4191000Y6223000D01*
Y6019800D01*
G01X4013200Y6553200D02*
Y7010400D01*
X3733800Y7289800D01*
X3454400D01*
X3352800Y7188200D01*
G01X3733800Y4419600D02*
X3911600D01*
X3987800Y4495800D01*
X4368800D01*
X4448250Y4416350D01*
Y4187750D01*
X4572000Y4064000D01*
G01X4185000Y6607000D02*
Y6914800D01*
X4064000Y7035800D01*
G01X5994400Y6527800D02*
Y5892800D01*
X5181600Y5080000D01*
Y3652120D01*
X5131600Y3602120D01*
Y3560680D01*
X5160880Y3531400D01*
X5175320D01*
X5231600Y3475120D01*
Y3433680D01*
X5181600Y3383680D01*
Y1371600D01*
X5486400Y1066800D01*
X5943600D01*
X6756400Y1879600D01*
X6934200D01*
X7035800Y1778000D01*
Y1524000D01*
G01X5334000Y4064000D02*
X5461000Y4191000D01*
Y4445000D01*
X5537200Y4521200D01*
X5791200D01*
X5892800Y4419600D01*
X6019800D01*
G01X9398000Y5588000D02*
X9525000Y5715000D01*
Y5969000D01*
X9829800Y6273800D01*
Y7264400D01*
X9550400Y7543800D01*
X6426200D01*
X5674160Y6791760D01*
Y6766360D01*
X5638800Y6731000D01*
G01X5829300D02*
Y6781000D01*
X5982500Y6934200D01*
X6527800D01*
X6654800Y7061200D01*
Y7391400D01*
X6705600Y7442200D01*
X9499600D01*
X9575800Y7366000D01*
Y6922670D01*
X9552400Y6899270D01*
Y6758400D01*
X9398000Y6604000D01*
G01X5994400Y6527800D02*
X5882840Y6639360D01*
Y6695640D01*
X5918200Y6731000D01*
G01X6248400Y7016440D02*
X5975040D01*
X5775760Y6817160D01*
Y6766360D01*
X5740400Y6731000D01*
G01X6205220Y6057900D02*
X6286500D01*
X6502400Y6273800D01*
X6808800D01*
X6832600Y6250000D01*
Y5956300D01*
G01X6783000Y7263200D02*
Y7113200D01*
X6477000Y6807200D01*
Y6578600D01*
X6426200Y6527800D01*
X5994400D01*
G01X9398000Y5842000D02*
Y6375400D01*
X9423400Y6400800D01*
X9651600D01*
X9779000Y6528200D01*
Y7239000D01*
X9525000Y7493000D01*
X6604000D01*
X6248400Y7137400D01*
Y7016440D01*
G01X7366000Y4064000D02*
X7239000Y4191000D01*
Y4421200D01*
X7189800Y4470400D01*
X6883400D01*
X6832600Y4419600D01*
X6527800D01*
G01X6934200Y7264400D02*
X7975600D01*
X8382000Y6858000D01*
G01X9398000D02*
X8864600Y7391400D01*
X6806800D01*
X6783000Y7367600D01*
Y7263200D01*
G01X7416800Y7010400D02*
X8382000Y6045200D01*
Y5842000D01*
G01X8280400Y4445000D02*
X8102600D01*
X8001000Y4546600D01*
X7774060D01*
X7750250Y4522790D01*
Y4194250D01*
X7620000Y4064000D01*
G01X9652000D02*
X9521750Y4194250D01*
Y4399050D01*
X9450400Y4470400D01*
X9093200D01*
X9017000Y4394200D01*
X8813800D01*
G54D14*
X1270000Y635000D03*
X2286000D03*
X3302000D03*
X4318000D03*
X5334000D03*
X6350000D03*
X7366000D03*
X8382000D03*
G54D15*
X1520000Y1524000D03*
X1778000Y1270000D03*
Y1524000D03*
X2033000D03*
X3552000D03*
X3810000Y1270000D03*
Y1524000D03*
X4065000D03*
X5584000D03*
X5842000Y1270000D03*
Y1524000D03*
X6097000D03*
X7616000D03*
X7874000Y1270000D03*
Y1524000D03*
X8129000D03*
G54D16*
X2641600Y889000D03*
Y1143000D03*
X2895600Y889000D03*
Y1143000D03*
X4673600Y889000D03*
Y1143000D03*
X4927600Y889000D03*
Y1143000D03*
X6705600Y889000D03*
Y1143000D03*
X6959600Y889000D03*
Y1143000D03*
X8737600Y889000D03*
Y1143000D03*
X8991600Y889000D03*
Y1143000D03*
G54D17*
X3302000Y9144000D03*
G54D18*
Y9398000D03*
X3556000Y9144000D03*
Y9398000D03*
X3810000Y9144000D03*
Y9398000D03*
X4064000Y9144000D03*
Y9398000D03*
X4318000Y9144000D03*
Y9398000D03*
X4572000Y9144000D03*
Y9398000D03*
X4826000Y9144000D03*
Y9398000D03*
X5080000Y9144000D03*
Y9398000D03*
X5334000Y9144000D03*
Y9398000D03*
X5588000Y9144000D03*
Y9398000D03*
X5842000Y9144000D03*
Y9398000D03*
X6096000Y9144000D03*
Y9398000D03*
X6604000Y9144000D03*
X6350000D03*
X6604000Y9398000D03*
X6350000D03*
X6858000Y9144000D03*
Y9398000D03*
G54D19*
X9288600Y8860600D03*
M02*
