G04 ================== begin FILE IDENTIFICATION RECORD ==================*
G04 Layout Name:  C:/Jeonghyun/Lab/EEM2TTL7/allegro/eem2ttl.brd*
G04 Film Name:    DRILL*
G04 File Format:  Gerber RS274X*
G04 File Origin:  Cadence Allegro 23.1-S003*
G04 Origin Date:  Wed Aug 21 13:22:40 2024*
G04 *
G04 Layer:  MANUFACTURING/NCLEGEND-1-4*
G04 Layer:  BOARD GEOMETRY/DESIGN_OUTLINE*
G04 *
G04 Offset:    (0.0000 0.0000)*
G04 Mirror:    No*
G04 Mode:      Positive*
G04 Rotation:  0*
G04 FullContactRelief:  No*
G04 UndefLineWidth:     0.0500*
G04 ================== end FILE IDENTIFICATION RECORD ====================*
%FSLAX25Y25*MOMM*%
%IR0*IPPOS*OFA0.00000B0.00000*MIA0B0*SFA1.00000B1.00000*%
%AMMACRO10*
1,1,.05,1.6,1.2*
20,1,.05,1.6,1.2,1.6,-1.2,0.0*
1,1,.05,1.6,-1.2*
20,1,.05,1.6,-1.2,-1.6,-1.2,0.0*
1,1,.05,-1.6,-1.2*
20,1,.05,-1.6,-1.2,-1.6,1.2,0.0*
1,1,.05,-1.6,1.2*
20,1,.05,-1.6,1.2,1.6,1.2,0.0*
1,1,.05,1.6,1.2*
%
%ADD10MACRO10*%
%AMMACRO19*
1,1,.05,.127,0.0*
20,1,.05,.127,0.0,-.127,0.0,0.0*
1,1,.05,-.127,0.0*
1,1,.05,0.0,.127*
20,1,.05,0.0,.127,0.0,-.127,0.0*
1,1,.05,0.0,-.127*
%
%ADD19MACRO19*%
%AMMACRO18*
1,1,.05,.4445,.4445*
20,1,.05,.4445,.4445,.4445,-.4445,0.0*
1,1,.05,.4445,-.4445*
20,1,.05,.4445,-.4445,-.4445,-.4445,0.0*
1,1,.05,-.4445,-.4445*
20,1,.05,-.4445,-.4445,-.4445,.4445,0.0*
1,1,.05,-.4445,.4445*
20,1,.05,-.4445,.4445,.4445,.4445,0.0*
1,1,.05,.4445,.4445*
%
%ADD18MACRO18*%
%AMMACRO15*
1,1,.05,0.0,.51*
20,1,.05,0.0,.51,-.441673,.255,0.0*
1,1,.05,-.441673,.255*
20,1,.05,-.441673,.255,-.441673,-.255,0.0*
1,1,.05,-.441673,-.255*
20,1,.05,-.441673,-.255,0.0,-.51,0.0*
1,1,.05,0.0,-.51*
20,1,.05,0.0,-.51,.441673,-.255,0.0*
1,1,.05,.441673,-.255*
20,1,.05,.441673,-.255,.441673,.255,0.0*
1,1,.05,.441673,.255*
20,1,.05,.441673,.255,0.0,.51,0.0*
1,1,.05,0.0,.51*
%
%ADD15MACRO15*%
%AMMACRO14*
1,1,.05,.5499,0.0*
20,1,.05,.5499,0.0,0.0,-.5499,0.0*
1,1,.05,0.0,-.5499*
20,1,.05,0.0,-.5499,-.5499,0.0,0.0*
1,1,.05,-.5499,0.0*
20,1,.05,-.5499,0.0,0.0,.5499,0.0*
1,1,.05,0.0,.5499*
20,1,.05,0.0,.5499,.5499,0.0,0.0*
1,1,.05,.5499,0.0*
%
%ADD14MACRO14*%
%AMMACRO13*
1,1,.05,0.0,1.*
20,1,.05,0.0,1.,.866025,-.5,0.0*
1,1,.05,.866025,-.5*
20,1,.05,.866025,-.5,-.866025,-.5,0.0*
1,1,.05,-.866025,-.5*
20,1,.05,-.866025,-.5,0.0,1.,0.0*
1,1,.05,0.0,1.*
%
%ADD13MACRO13*%
%AMMACRO17*
1,1,.05,.45,0.0*
20,1,.05,.45,0.0,.225,.389711,0.0*
1,1,.05,.225,.389711*
20,1,.05,.225,.389711,-.225,.389711,0.0*
1,1,.05,-.225,.389711*
20,1,.05,-.225,.389711,-.45,0.0,0.0*
1,1,.05,-.45,0.0*
20,1,.05,-.45,0.0,-.225,-.389711,0.0*
1,1,.05,-.225,-.389711*
20,1,.05,-.225,-.389711,.225,-.389711,0.0*
1,1,.05,.225,-.389711*
20,1,.05,.225,-.389711,.45,0.0,0.0*
1,1,.05,.45,0.0*
%
%ADD17MACRO17*%
%AMMACRO11*
1,1,.05,-1.18125,.39375*
20,1,.05,-1.18125,.39375,-1.163304,.598872,0.0*
1,1,.05,-1.163304,.598872*
20,1,.05,-1.163304,.598872,-1.110012,.797761,0.0*
1,1,.05,-1.110012,.797761*
20,1,.05,-1.110012,.797761,-1.022993,.984375,0.0*
1,1,.05,-1.022993,.984375*
20,1,.05,-1.022993,.984375,-.90489,1.153043,0.0*
1,1,.05,-.90489,1.153043*
20,1,.05,-.90489,1.153043,-.759293,1.29864,0.0*
1,1,.05,-.759293,1.29864*
20,1,.05,-.759293,1.29864,-.590625,1.416743,0.0*
1,1,.05,-.590625,1.416743*
20,1,.05,-.590625,1.416743,-.404011,1.503762,0.0*
1,1,.05,-.404011,1.503762*
20,1,.05,-.404011,1.503762,-.205122,1.557054,0.0*
1,1,.05,-.205122,1.557054*
20,1,.05,-.205122,1.557054,0.0,1.575,0.0*
1,1,.05,0.0,1.575*
20,1,.05,0.0,1.575,.205122,1.557054,0.0*
1,1,.05,.205122,1.557054*
20,1,.05,.205122,1.557054,.404011,1.503762,0.0*
1,1,.05,.404011,1.503762*
20,1,.05,.404011,1.503762,.590625,1.416743,0.0*
1,1,.05,.590625,1.416743*
20,1,.05,.590625,1.416743,.759293,1.29864,0.0*
1,1,.05,.759293,1.29864*
20,1,.05,.759293,1.29864,.90489,1.153043,0.0*
1,1,.05,.90489,1.153043*
20,1,.05,.90489,1.153043,1.022993,.984375,0.0*
1,1,.05,1.022993,.984375*
20,1,.05,1.022993,.984375,1.110012,.797761,0.0*
1,1,.05,1.110012,.797761*
20,1,.05,1.110012,.797761,1.163304,.598872,0.0*
1,1,.05,1.163304,.598872*
20,1,.05,1.163304,.598872,1.18125,.39375,0.0*
1,1,.05,1.18125,.39375*
20,1,.05,1.18125,.39375,1.18125,-.39375,0.0*
1,1,.05,1.18125,-.39375*
20,1,.05,1.18125,-.39375,1.163304,-.598872,0.0*
1,1,.05,1.163304,-.598872*
20,1,.05,1.163304,-.598872,1.110012,-.797761,0.0*
1,1,.05,1.110012,-.797761*
20,1,.05,1.110012,-.797761,1.022993,-.984375,0.0*
1,1,.05,1.022993,-.984375*
20,1,.05,1.022993,-.984375,.90489,-1.153043,0.0*
1,1,.05,.90489,-1.153043*
20,1,.05,.90489,-1.153043,.759293,-1.29864,0.0*
1,1,.05,.759293,-1.29864*
20,1,.05,.759293,-1.29864,.590625,-1.416743,0.0*
1,1,.05,.590625,-1.416743*
20,1,.05,.590625,-1.416743,.404011,-1.503762,0.0*
1,1,.05,.404011,-1.503762*
20,1,.05,.404011,-1.503762,.205122,-1.557054,0.0*
1,1,.05,.205122,-1.557054*
20,1,.05,.205122,-1.557054,0.0,-1.575,0.0*
1,1,.05,0.0,-1.575*
20,1,.05,0.0,-1.575,-.205122,-1.557054,0.0*
1,1,.05,-.205122,-1.557054*
20,1,.05,-.205122,-1.557054,-.404011,-1.503762,0.0*
1,1,.05,-.404011,-1.503762*
20,1,.05,-.404011,-1.503762,-.590625,-1.416743,0.0*
1,1,.05,-.590625,-1.416743*
20,1,.05,-.590625,-1.416743,-.759293,-1.29864,0.0*
1,1,.05,-.759293,-1.29864*
20,1,.05,-.759293,-1.29864,-.90489,-1.153043,0.0*
1,1,.05,-.90489,-1.153043*
20,1,.05,-.90489,-1.153043,-1.022993,-.984375,0.0*
1,1,.05,-1.022993,-.984375*
20,1,.05,-1.022993,-.984375,-1.110012,-.797761,0.0*
1,1,.05,-1.110012,-.797761*
20,1,.05,-1.110012,-.797761,-1.163304,-.598872,0.0*
1,1,.05,-1.163304,-.598872*
20,1,.05,-1.163304,-.598872,-1.18125,-.39375,0.0*
1,1,.05,-1.18125,-.39375*
20,1,.05,-1.18125,-.39375,-1.18125,.39375,0.0*
1,1,.05,-1.18125,.39375*
%
%ADD11MACRO11*%
%AMMACRO12*
1,1,.05,-.3281,.9844*
20,1,.05,-.3281,.9844,.3281,.9844,0.0*
1,1,.05,.3281,.9844*
20,1,.05,.3281,.9844,.499039,.969445,0.0*
1,1,.05,.499039,.969445*
20,1,.05,.499039,.969445,.664785,.925033,0.0*
1,1,.05,.664785,.925033*
20,1,.05,.664785,.925033,.8203,.852515,0.0*
1,1,.05,.8203,.852515*
20,1,.05,.8203,.852515,.96086,.754094,0.0*
1,1,.05,.96086,.754094*
20,1,.05,.96086,.754094,1.082194,.63276,0.0*
1,1,.05,1.082194,.63276*
20,1,.05,1.082194,.63276,1.180615,.4922,0.0*
1,1,.05,1.180615,.4922*
20,1,.05,1.180615,.4922,1.253133,.336685,0.0*
1,1,.05,1.253133,.336685*
20,1,.05,1.253133,.336685,1.297545,.170939,0.0*
1,1,.05,1.297545,.170939*
20,1,.05,1.297545,.170939,1.3125,0.0,0.0*
1,1,.05,1.3125,0.0*
20,1,.05,1.3125,0.0,1.297545,-.170939,0.0*
1,1,.05,1.297545,-.170939*
20,1,.05,1.297545,-.170939,1.253133,-.336685,0.0*
1,1,.05,1.253133,-.336685*
20,1,.05,1.253133,-.336685,1.180615,-.4922,0.0*
1,1,.05,1.180615,-.4922*
20,1,.05,1.180615,-.4922,1.082194,-.63276,0.0*
1,1,.05,1.082194,-.63276*
20,1,.05,1.082194,-.63276,.96086,-.754094,0.0*
1,1,.05,.96086,-.754094*
20,1,.05,.96086,-.754094,.8203,-.852515,0.0*
1,1,.05,.8203,-.852515*
20,1,.05,.8203,-.852515,.664785,-.925033,0.0*
1,1,.05,.664785,-.925033*
20,1,.05,.664785,-.925033,.499039,-.969445,0.0*
1,1,.05,.499039,-.969445*
20,1,.05,.499039,-.969445,.3281,-.9844,0.0*
1,1,.05,.3281,-.9844*
20,1,.05,.3281,-.9844,-.3281,-.9844,0.0*
1,1,.05,-.3281,-.9844*
20,1,.05,-.3281,-.9844,-.499039,-.969445,0.0*
1,1,.05,-.499039,-.969445*
20,1,.05,-.499039,-.969445,-.664785,-.925033,0.0*
1,1,.05,-.664785,-.925033*
20,1,.05,-.664785,-.925033,-.8203,-.852515,0.0*
1,1,.05,-.8203,-.852515*
20,1,.05,-.8203,-.852515,-.96086,-.754094,0.0*
1,1,.05,-.96086,-.754094*
20,1,.05,-.96086,-.754094,-1.082194,-.63276,0.0*
1,1,.05,-1.082194,-.63276*
20,1,.05,-1.082194,-.63276,-1.180615,-.4922,0.0*
1,1,.05,-1.180615,-.4922*
20,1,.05,-1.180615,-.4922,-1.253133,-.336685,0.0*
1,1,.05,-1.253133,-.336685*
20,1,.05,-1.253133,-.336685,-1.297545,-.170939,0.0*
1,1,.05,-1.297545,-.170939*
20,1,.05,-1.297545,-.170939,-1.3125,0.0,0.0*
1,1,.05,-1.3125,0.0*
20,1,.05,-1.3125,0.0,-1.297545,.170939,0.0*
1,1,.05,-1.297545,.170939*
20,1,.05,-1.297545,.170939,-1.253133,.336685,0.0*
1,1,.05,-1.253133,.336685*
20,1,.05,-1.253133,.336685,-1.180615,.4922,0.0*
1,1,.05,-1.180615,.4922*
20,1,.05,-1.180615,.4922,-1.082194,.63276,0.0*
1,1,.05,-1.082194,.63276*
20,1,.05,-1.082194,.63276,-.96086,.754094,0.0*
1,1,.05,-.96086,.754094*
20,1,.05,-.96086,.754094,-.8203,.852515,0.0*
1,1,.05,-.8203,.852515*
20,1,.05,-.8203,.852515,-.664785,.925033,0.0*
1,1,.05,-.664785,.925033*
20,1,.05,-.664785,.925033,-.499039,.969445,0.0*
1,1,.05,-.499039,.969445*
20,1,.05,-.499039,.969445,-.3281,.9844,0.0*
1,1,.05,-.3281,.9844*
%
%ADD12MACRO12*%
%AMMACRO16*
1,1,.05,.211249,-.51*
20,1,.05,.211249,-.51,-.211249,-.51,0.0*
1,1,.05,-.211249,-.51*
20,1,.05,-.211249,-.51,-.51,-.211249,0.0*
1,1,.05,-.51,-.211249*
20,1,.05,-.51,-.211249,-.51,.211249,0.0*
1,1,.05,-.51,.211249*
20,1,.05,-.51,.211249,-.211249,.51,0.0*
1,1,.05,-.211249,.51*
20,1,.05,-.211249,.51,.211249,.51,0.0*
1,1,.05,.211249,.51*
20,1,.05,.211249,.51,.51,.211249,0.0*
1,1,.05,.51,.211249*
20,1,.05,.51,.211249,.51,-.211249,0.0*
1,1,.05,.51,-.211249*
20,1,.05,.51,-.211249,.211249,-.51,0.0*
1,1,.05,.211249,-.51*
%
%ADD16MACRO16*%
%ADD20C,.05*%
G75*
%LPD*%
G75*
G54D10*
X-4979670Y-8739900D03*
X555000Y357000D03*
Y8000000D03*
X9445000Y357000D03*
X9450000Y8000000D03*
G54D20*
G01X-6121400Y-9057400D02*
Y-787400D01*
X21831300D01*
Y-9057400D01*
X-6121400D01*
G01Y-8422400D02*
X21831300D01*
G01X-6121400Y-7787400D02*
X21831300D01*
G01X-6121400Y-7152400D02*
X21831300D01*
G01X-6121400Y-6517400D02*
X21831300D01*
G01X-6121400Y-5882400D02*
X21831300D01*
G01X-6121400Y-5247400D02*
X21831300D01*
G01X-6121400Y-4612400D02*
X21831300D01*
G01X-6121400Y-3977400D02*
X21831300D01*
G01X-6121400Y-3342400D02*
X21831300D01*
G01X-6121400Y-2707400D02*
X21831300D01*
G01X-6121400Y-2072400D02*
X21831300D01*
G01X-6121400Y-1437400D02*
X21831300D01*
G01X-5841880Y-2548650D02*
Y-2231150D01*
X-5692260D01*
G01X-5747390Y-2384600D02*
X-5841880D01*
G01X-5499350Y-2231150D02*
X-5404870D01*
G01X-5452110D02*
Y-2548650D01*
G01X-5499350D02*
X-5404870D01*
G01X-5113530Y-2389900D02*
X-5034780D01*
Y-2485150D01*
X-5058410Y-2516910D01*
X-5085970Y-2538070D01*
X-5125340Y-2548650D01*
X-5164710Y-2538070D01*
X-5192270Y-2516910D01*
X-5215890Y-2485150D01*
X-5231640Y-2448110D01*
X-5239520Y-2405780D01*
Y-2368730D01*
X-5231640Y-2336990D01*
X-5215890Y-2299940D01*
X-5192270Y-2268190D01*
X-5168650Y-2247030D01*
X-5137150Y-2231150D01*
X-5109590D01*
X-5078100Y-2241730D01*
X-5054470Y-2262900D01*
G01X-4908800Y-2231150D02*
Y-2458690D01*
X-4893060Y-2506330D01*
X-4861560Y-2538070D01*
X-4822190Y-2548650D01*
X-4782820Y-2538070D01*
X-4751320Y-2506330D01*
X-4735580Y-2458690D01*
Y-2231150D01*
G01X-4585970Y-2548650D02*
Y-2231150D01*
X-4487550D01*
X-4456050Y-2247030D01*
X-4436360Y-2268190D01*
X-4428490Y-2310530D01*
X-4436360Y-2352860D01*
X-4459990Y-2379310D01*
X-4487550Y-2395200D01*
X-4585970D01*
G01X-4487550D02*
X-4428490Y-2548650D01*
G01X-4113530D02*
X-4271010D01*
Y-2231150D01*
X-4113530D01*
G01X-4176520Y-2384600D02*
X-4271010D01*
G01X-3837940Y-2072400D02*
Y-9057400D01*
G01X-3243460Y-2548650D02*
Y-2231150D01*
X-3093840D01*
G01X-3148970Y-2384600D02*
X-3243460D01*
G01X-2900930Y-2231150D02*
X-2806450D01*
G01X-2853690D02*
Y-2548650D01*
G01X-2900930D02*
X-2806450D01*
G01X-2629280D02*
Y-2231150D01*
X-2448180Y-2548650D01*
Y-2231150D01*
G01X-2271010D02*
X-2176530D01*
G01X-2223770D02*
Y-2548650D01*
G01X-2271010D02*
X-2176530D01*
G01X-1991490Y-2506330D02*
X-1959990Y-2532780D01*
X-1924560Y-2548650D01*
X-1893060D01*
X-1861570Y-2532780D01*
X-1837940Y-2506330D01*
X-1826130Y-2469270D01*
X-1834000Y-2432240D01*
X-1853690Y-2400490D01*
X-1889130Y-2379310D01*
X-1936370Y-2368730D01*
X-1963930Y-2347570D01*
X-1975740Y-2310530D01*
X-1967860Y-2273480D01*
X-1948180Y-2247030D01*
X-1920620Y-2231150D01*
X-1893060D01*
X-1865500Y-2241730D01*
X-1841880Y-2268190D01*
G01X-1676530Y-2548650D02*
Y-2231150D01*
G01X-1511170D02*
Y-2548650D01*
G01Y-2389900D02*
X-1676530D01*
G01X-1200150Y-2548650D02*
X-1357630D01*
Y-2231150D01*
X-1200150D01*
G01X-1263140Y-2384600D02*
X-1357630D01*
G01X-1050540Y-2548650D02*
Y-2231150D01*
X-971810D01*
X-940310Y-2247030D01*
X-916690Y-2268190D01*
X-897000Y-2299940D01*
X-881250Y-2336990D01*
X-877320Y-2389900D01*
X-881250Y-2442820D01*
X-897000Y-2479860D01*
X-916690Y-2511620D01*
X-940310Y-2532780D01*
X-971810Y-2548650D01*
X-1050540D01*
G01X-767080Y-2654480D02*
X-530860D01*
G01X-416690Y-2506330D02*
X-385190Y-2532780D01*
X-349760Y-2548650D01*
X-318260D01*
X-286770Y-2532780D01*
X-263140Y-2506330D01*
X-251330Y-2469270D01*
X-259200Y-2432240D01*
X-278890Y-2400490D01*
X-314330Y-2379310D01*
X-361570Y-2368730D01*
X-389130Y-2347570D01*
X-400940Y-2310530D01*
X-393060Y-2273480D01*
X-373380Y-2247030D01*
X-345820Y-2231150D01*
X-318260D01*
X-290700Y-2241730D01*
X-267080Y-2268190D01*
G01X-66290Y-2231150D02*
X28190D01*
G01X-19050D02*
Y-2548650D01*
G01X-66290D02*
X28190D01*
G01X221100Y-2231150D02*
X370720D01*
X221100Y-2548650D01*
X370720D01*
G01X689610D02*
X532130D01*
Y-2231150D01*
X689610D01*
G01X626620Y-2384600D02*
X532130D01*
G01X-2066290Y-6358650D02*
Y-6041150D01*
X-2113530Y-6104650D01*
G01Y-6358650D02*
X-2019050D01*
G01X-1751330Y-6369230D02*
X-1759210Y-6363940D01*
Y-6353360D01*
X-1751330Y-6348070D01*
X-1743450Y-6353360D01*
Y-6363940D01*
X-1751330Y-6369230D01*
G01X-1436370Y-6041150D02*
X-1467870Y-6051730D01*
X-1491490Y-6078190D01*
X-1507240Y-6109940D01*
X-1519050Y-6152280D01*
X-1522980Y-6199900D01*
X-1519050Y-6247530D01*
X-1507240Y-6289860D01*
X-1491490Y-6321620D01*
X-1467870Y-6348070D01*
X-1436370Y-6358650D01*
X-1404880Y-6348070D01*
X-1381250Y-6321620D01*
X-1365500Y-6289860D01*
X-1353690Y-6247530D01*
X-1349760Y-6199900D01*
X-1353690Y-6152280D01*
X-1365500Y-6109940D01*
X-1381250Y-6078190D01*
X-1404880Y-6051730D01*
X-1436370Y-6041150D01*
G01X-1188340Y-6321620D02*
X-1160780Y-6348070D01*
X-1129290Y-6358650D01*
X-1097790Y-6348070D01*
X-1070230Y-6316330D01*
X-1050540Y-6268690D01*
X-1042670Y-6221070D01*
Y-6162860D01*
X-1050540Y-6115240D01*
X-1070230Y-6072900D01*
X-1093850Y-6051730D01*
X-1121410Y-6041150D01*
X-1152910Y-6051730D01*
X-1176530Y-6072900D01*
X-1192280Y-6104650D01*
X-1200150Y-6146990D01*
X-1192280Y-6184020D01*
X-1172590Y-6221070D01*
X-1148970Y-6242240D01*
X-1121410Y-6247530D01*
X-1089920Y-6236950D01*
X-1066290Y-6210490D01*
X-1042670Y-6162860D01*
G01X-873380Y-6321620D02*
X-845820Y-6348070D01*
X-814330Y-6358650D01*
X-782830Y-6348070D01*
X-755270Y-6316330D01*
X-735580Y-6268690D01*
X-727710Y-6221070D01*
Y-6162860D01*
X-735580Y-6115240D01*
X-755270Y-6072900D01*
X-778890Y-6051730D01*
X-806450Y-6041150D01*
X-837950Y-6051730D01*
X-861570Y-6072900D01*
X-877320Y-6104650D01*
X-885190Y-6146990D01*
X-877320Y-6184020D01*
X-857630Y-6221070D01*
X-834010Y-6242240D01*
X-806450Y-6247530D01*
X-774960Y-6236950D01*
X-751330Y-6210490D01*
X-727710Y-6162860D01*
G01X-491490Y-6358650D02*
X-463930Y-6353360D01*
X-432440Y-6337490D01*
X-412750Y-6311040D01*
X-404880Y-6273980D01*
X-412750Y-6236950D01*
X-436370Y-6205200D01*
X-471810Y-6189310D01*
X-511170D01*
X-534800Y-6178730D01*
X-554490Y-6152280D01*
X-562360Y-6115240D01*
X-550540Y-6078190D01*
X-522990Y-6051730D01*
X-491490Y-6041150D01*
X-460000Y-6051730D01*
X-432440Y-6078190D01*
X-420620Y-6115240D01*
X-428500Y-6152280D01*
X-448180Y-6178730D01*
X-471810Y-6189310D01*
X-511170D01*
X-546610Y-6205200D01*
X-570230Y-6236950D01*
X-578100Y-6273980D01*
X-570230Y-6311040D01*
X-550540Y-6337490D01*
X-519050Y-6353360D01*
X-491490Y-6358650D01*
G01X-1983620Y-7364070D02*
X-1959990Y-7332320D01*
X-1932430Y-7316440D01*
X-1900930Y-7311150D01*
X-1861570Y-7321730D01*
X-1834000Y-7348190D01*
X-1826130Y-7379940D01*
X-1830070Y-7411700D01*
X-1845820Y-7438150D01*
X-1924560Y-7491070D01*
X-1959990Y-7528110D01*
X-1983620Y-7581040D01*
X-1991490Y-7628650D01*
X-1826130D01*
G01X-1593850Y-7639230D02*
X-1601730Y-7633940D01*
Y-7623360D01*
X-1593850Y-7618070D01*
X-1585970Y-7623360D01*
Y-7633940D01*
X-1593850Y-7639230D01*
G01X-1353700Y-7496370D02*
X-1326130Y-7459310D01*
X-1302510Y-7438150D01*
X-1271010Y-7427570D01*
X-1243450Y-7438150D01*
X-1223770Y-7459310D01*
X-1208020Y-7491070D01*
X-1204080Y-7528110D01*
X-1208020Y-7559860D01*
X-1223770Y-7591620D01*
X-1247400Y-7618070D01*
X-1274950Y-7628650D01*
X-1306450Y-7618070D01*
X-1334010Y-7586330D01*
X-1349760Y-7538690D01*
X-1353700Y-7485780D01*
X-1345820Y-7416990D01*
X-1334010Y-7379940D01*
X-1314330Y-7342900D01*
X-1286770Y-7316440D01*
X-1259210Y-7311150D01*
X-1231650Y-7321730D01*
X-1211960Y-7348190D01*
G01X-1038740Y-7364070D02*
X-1015110Y-7332320D01*
X-987550Y-7316440D01*
X-956050Y-7311150D01*
X-916690Y-7321730D01*
X-889120Y-7348190D01*
X-881250Y-7379940D01*
X-885190Y-7411700D01*
X-900940Y-7438150D01*
X-979680Y-7491070D01*
X-1015110Y-7528110D01*
X-1038740Y-7581040D01*
X-1046610Y-7628650D01*
X-881250D01*
G01X-735580Y-7581040D02*
X-711970Y-7607490D01*
X-684410Y-7623360D01*
X-648970Y-7628650D01*
X-613530Y-7618070D01*
X-585980Y-7596910D01*
X-566290Y-7559860D01*
X-562360Y-7517530D01*
X-570230Y-7475200D01*
X-589920Y-7448730D01*
X-617480Y-7427570D01*
X-645030Y-7422280D01*
X-672590Y-7427570D01*
X-708020Y-7448730D01*
X-696210Y-7311150D01*
X-589920D01*
G01X-1908810Y-3501150D02*
X-1940310Y-3511730D01*
X-1963930Y-3538190D01*
X-1979680Y-3569940D01*
X-1991490Y-3612280D01*
X-1995420Y-3659900D01*
X-1991490Y-3707530D01*
X-1979680Y-3749860D01*
X-1963930Y-3781620D01*
X-1940310Y-3808070D01*
X-1908810Y-3818650D01*
X-1877320Y-3808070D01*
X-1853690Y-3781620D01*
X-1837940Y-3749860D01*
X-1826130Y-3707530D01*
X-1822200Y-3659900D01*
X-1826130Y-3612280D01*
X-1837940Y-3569940D01*
X-1853690Y-3538190D01*
X-1877320Y-3511730D01*
X-1908810Y-3501150D01*
G01X-1593850Y-3829230D02*
X-1601730Y-3823940D01*
Y-3813360D01*
X-1593850Y-3808070D01*
X-1585970Y-3813360D01*
Y-3823940D01*
X-1593850Y-3829230D01*
G01X-1278890Y-3818650D02*
X-1251330Y-3813360D01*
X-1219840Y-3797490D01*
X-1200150Y-3771040D01*
X-1192280Y-3733980D01*
X-1200150Y-3696950D01*
X-1223770Y-3665200D01*
X-1259210Y-3649310D01*
X-1298570D01*
X-1322200Y-3638730D01*
X-1341890Y-3612280D01*
X-1349760Y-3575240D01*
X-1337940Y-3538190D01*
X-1310390Y-3511730D01*
X-1278890Y-3501150D01*
X-1247400Y-3511730D01*
X-1219840Y-3538190D01*
X-1208020Y-3575240D01*
X-1215900Y-3612280D01*
X-1235580Y-3638730D01*
X-1259210Y-3649310D01*
X-1298570D01*
X-1334010Y-3665200D01*
X-1357630Y-3696950D01*
X-1365500Y-3733980D01*
X-1357630Y-3771040D01*
X-1337940Y-3797490D01*
X-1306450Y-3813360D01*
X-1278890Y-3818650D01*
G01X-963930D02*
X-936370Y-3813360D01*
X-904880Y-3797490D01*
X-885190Y-3771040D01*
X-877320Y-3733980D01*
X-885190Y-3696950D01*
X-908810Y-3665200D01*
X-944250Y-3649310D01*
X-983610D01*
X-1007240Y-3638730D01*
X-1026930Y-3612280D01*
X-1034800Y-3575240D01*
X-1022980Y-3538190D01*
X-995430Y-3511730D01*
X-963930Y-3501150D01*
X-932440Y-3511730D01*
X-904880Y-3538190D01*
X-893060Y-3575240D01*
X-900940Y-3612280D01*
X-920620Y-3638730D01*
X-944250Y-3649310D01*
X-983610D01*
X-1019050Y-3665200D01*
X-1042670Y-3696950D01*
X-1050540Y-3733980D01*
X-1042670Y-3771040D01*
X-1022980Y-3797490D01*
X-991490Y-3813360D01*
X-963930Y-3818650D01*
G01X-715900Y-3781620D02*
X-688340Y-3808070D01*
X-656850Y-3818650D01*
X-625350Y-3808070D01*
X-597790Y-3776330D01*
X-578100Y-3728690D01*
X-570230Y-3681070D01*
Y-3622860D01*
X-578100Y-3575240D01*
X-597790Y-3532900D01*
X-621410Y-3511730D01*
X-648970Y-3501150D01*
X-680470Y-3511730D01*
X-704090Y-3532900D01*
X-719840Y-3564650D01*
X-727710Y-3606990D01*
X-719840Y-3644020D01*
X-700150Y-3681070D01*
X-676530Y-3702240D01*
X-648970Y-3707530D01*
X-617480Y-3696950D01*
X-593850Y-3670490D01*
X-570230Y-3622860D01*
G01X-1908810Y-2866150D02*
X-1940310Y-2876730D01*
X-1963930Y-2903190D01*
X-1979680Y-2934940D01*
X-1991490Y-2977280D01*
X-1995420Y-3024900D01*
X-1991490Y-3072530D01*
X-1979680Y-3114860D01*
X-1963930Y-3146620D01*
X-1940310Y-3173070D01*
X-1908810Y-3183650D01*
X-1877320Y-3173070D01*
X-1853690Y-3146620D01*
X-1837940Y-3114860D01*
X-1826130Y-3072530D01*
X-1822200Y-3024900D01*
X-1826130Y-2977280D01*
X-1837940Y-2934940D01*
X-1853690Y-2903190D01*
X-1877320Y-2876730D01*
X-1908810Y-2866150D01*
G01X-1593850Y-3194230D02*
X-1601730Y-3188940D01*
Y-3178360D01*
X-1593850Y-3173070D01*
X-1585970Y-3178360D01*
Y-3188940D01*
X-1593850Y-3194230D01*
G01X-1353700Y-2919070D02*
X-1330070Y-2887320D01*
X-1302510Y-2871440D01*
X-1271010Y-2866150D01*
X-1231650Y-2876730D01*
X-1204080Y-2903190D01*
X-1196210Y-2934940D01*
X-1200150Y-2966700D01*
X-1215900Y-2993150D01*
X-1294640Y-3046070D01*
X-1330070Y-3083110D01*
X-1353700Y-3136040D01*
X-1361570Y-3183650D01*
X-1196210D01*
G01X-1050540Y-3136040D02*
X-1026930Y-3162490D01*
X-999370Y-3178360D01*
X-963930Y-3183650D01*
X-928490Y-3173070D01*
X-900940Y-3151910D01*
X-881250Y-3114860D01*
X-877320Y-3072530D01*
X-885190Y-3030200D01*
X-904880Y-3003730D01*
X-932440Y-2982570D01*
X-959990Y-2977280D01*
X-987550Y-2982570D01*
X-1022980Y-3003730D01*
X-1011170Y-2866150D01*
X-904880D01*
G01X-601730Y-3183650D02*
Y-2866150D01*
X-747400Y-3093690D01*
X-550540D01*
G01X-1680460Y-8835150D02*
X-1656850Y-8872200D01*
X-1625350Y-8893360D01*
X-1589910Y-8898650D01*
X-1558410Y-8893360D01*
X-1526920Y-8866910D01*
X-1507240Y-8835150D01*
X-1503300Y-8803400D01*
X-1511170Y-8766370D01*
X-1538730Y-8739900D01*
X-1566290Y-8729310D01*
X-1601730D01*
G01X-1566290D02*
X-1542670Y-8713440D01*
X-1522980Y-8686990D01*
X-1515110Y-8655240D01*
X-1522980Y-8623480D01*
X-1542670Y-8597030D01*
X-1578100Y-8581150D01*
X-1613530Y-8586440D01*
X-1648970Y-8607610D01*
G01X-1278890Y-8909230D02*
X-1286770Y-8903940D01*
Y-8893360D01*
X-1278890Y-8888070D01*
X-1271010Y-8893360D01*
Y-8903940D01*
X-1278890Y-8909230D01*
G01X-1038740Y-8634070D02*
X-1015110Y-8602320D01*
X-987550Y-8586440D01*
X-956050Y-8581150D01*
X-916690Y-8591730D01*
X-889120Y-8618190D01*
X-881250Y-8649940D01*
X-885190Y-8681700D01*
X-900940Y-8708150D01*
X-979680Y-8761070D01*
X-1015110Y-8798110D01*
X-1038740Y-8851040D01*
X-1046610Y-8898650D01*
X-881250D01*
G01X-1837940Y-8200150D02*
X-1814330Y-8237200D01*
X-1782830Y-8258360D01*
X-1747390Y-8263650D01*
X-1715890Y-8258360D01*
X-1684400Y-8231910D01*
X-1664720Y-8200150D01*
X-1660780Y-8168400D01*
X-1668650Y-8131370D01*
X-1696210Y-8104900D01*
X-1723770Y-8094310D01*
X-1759210D01*
G01X-1723770D02*
X-1700150Y-8078440D01*
X-1680460Y-8051990D01*
X-1672590Y-8020240D01*
X-1680460Y-7988480D01*
X-1700150Y-7962030D01*
X-1735580Y-7946150D01*
X-1771010Y-7951440D01*
X-1806450Y-7972610D01*
G01X-1436370Y-8274230D02*
X-1444250Y-8268940D01*
Y-8258360D01*
X-1436370Y-8253070D01*
X-1428490Y-8258360D01*
Y-8268940D01*
X-1436370Y-8274230D01*
G01X-1121410Y-8263650D02*
Y-7946150D01*
X-1168650Y-8009650D01*
G01Y-8263650D02*
X-1074170D01*
G01X-893060Y-8216040D02*
X-869450Y-8242490D01*
X-841890Y-8258360D01*
X-806450Y-8263650D01*
X-771010Y-8253070D01*
X-743460Y-8231910D01*
X-723770Y-8194860D01*
X-719840Y-8152530D01*
X-727710Y-8110200D01*
X-747400Y-8083730D01*
X-774960Y-8062570D01*
X-802510Y-8057280D01*
X-830070Y-8062570D01*
X-865500Y-8083730D01*
X-853690Y-7946150D01*
X-747400D01*
G01X-1668660Y-6729070D02*
X-1645030Y-6697320D01*
X-1617470Y-6681440D01*
X-1585970Y-6676150D01*
X-1546610Y-6686730D01*
X-1519040Y-6713190D01*
X-1511170Y-6744940D01*
X-1515110Y-6776700D01*
X-1530860Y-6803150D01*
X-1609600Y-6856070D01*
X-1645030Y-6893110D01*
X-1668660Y-6946040D01*
X-1676530Y-6993650D01*
X-1511170D01*
G01X-1278890Y-7004230D02*
X-1286770Y-6998940D01*
Y-6988360D01*
X-1278890Y-6983070D01*
X-1271010Y-6988360D01*
Y-6998940D01*
X-1278890Y-7004230D01*
G01X-963930Y-6676150D02*
X-995430Y-6686730D01*
X-1019050Y-6713190D01*
X-1034800Y-6744940D01*
X-1046610Y-6787280D01*
X-1050540Y-6834900D01*
X-1046610Y-6882530D01*
X-1034800Y-6924860D01*
X-1019050Y-6956620D01*
X-995430Y-6983070D01*
X-963930Y-6993650D01*
X-932440Y-6983070D01*
X-908810Y-6956620D01*
X-893060Y-6924860D01*
X-881250Y-6882530D01*
X-877320Y-6834900D01*
X-881250Y-6787280D01*
X-893060Y-6744940D01*
X-908810Y-6713190D01*
X-932440Y-6686730D01*
X-963930Y-6676150D01*
G01X-1751330Y-5723650D02*
Y-5406150D01*
X-1798570Y-5469650D01*
G01Y-5723650D02*
X-1704090D01*
G01X-1436370Y-5734230D02*
X-1444250Y-5728940D01*
Y-5718360D01*
X-1436370Y-5713070D01*
X-1428490Y-5718360D01*
Y-5728940D01*
X-1436370Y-5734230D01*
G01X-1121410Y-5406150D02*
X-1152910Y-5416730D01*
X-1176530Y-5443190D01*
X-1192280Y-5474940D01*
X-1204090Y-5517280D01*
X-1208020Y-5564900D01*
X-1204090Y-5612530D01*
X-1192280Y-5654860D01*
X-1176530Y-5686620D01*
X-1152910Y-5713070D01*
X-1121410Y-5723650D01*
X-1089920Y-5713070D01*
X-1066290Y-5686620D01*
X-1050540Y-5654860D01*
X-1038730Y-5612530D01*
X-1034800Y-5564900D01*
X-1038730Y-5517280D01*
X-1050540Y-5474940D01*
X-1066290Y-5443190D01*
X-1089920Y-5416730D01*
X-1121410Y-5406150D01*
G01X-881260Y-5459070D02*
X-857630Y-5427320D01*
X-830070Y-5411440D01*
X-798570Y-5406150D01*
X-759210Y-5416730D01*
X-731640Y-5443190D01*
X-723770Y-5474940D01*
X-727710Y-5506700D01*
X-743460Y-5533150D01*
X-822200Y-5586070D01*
X-857630Y-5623110D01*
X-881260Y-5676040D01*
X-889130Y-5723650D01*
X-723770D01*
G01X-1751330Y-5088650D02*
Y-4771150D01*
X-1798570Y-4834650D01*
G01Y-5088650D02*
X-1704090D01*
G01X-1436370Y-5099230D02*
X-1444250Y-5093940D01*
Y-5083360D01*
X-1436370Y-5078070D01*
X-1428490Y-5083360D01*
Y-5093940D01*
X-1436370Y-5099230D01*
G01X-1121410Y-4771150D02*
X-1152910Y-4781730D01*
X-1176530Y-4808190D01*
X-1192280Y-4839940D01*
X-1204090Y-4882280D01*
X-1208020Y-4929900D01*
X-1204090Y-4977530D01*
X-1192280Y-5019860D01*
X-1176530Y-5051620D01*
X-1152910Y-5078070D01*
X-1121410Y-5088650D01*
X-1089920Y-5078070D01*
X-1066290Y-5051620D01*
X-1050540Y-5019860D01*
X-1038730Y-4977530D01*
X-1034800Y-4929900D01*
X-1038730Y-4882280D01*
X-1050540Y-4839940D01*
X-1066290Y-4808190D01*
X-1089920Y-4781730D01*
X-1121410Y-4771150D01*
G01X-881260Y-4824070D02*
X-857630Y-4792320D01*
X-830070Y-4776440D01*
X-798570Y-4771150D01*
X-759210Y-4781730D01*
X-731640Y-4808190D01*
X-723770Y-4839940D01*
X-727710Y-4871700D01*
X-743460Y-4898150D01*
X-822200Y-4951070D01*
X-857630Y-4988110D01*
X-881260Y-5041040D01*
X-889130Y-5088650D01*
X-723770D01*
G01X-1593850Y-4136150D02*
X-1625350Y-4146730D01*
X-1648970Y-4173190D01*
X-1664720Y-4204940D01*
X-1676530Y-4247280D01*
X-1680460Y-4294900D01*
X-1676530Y-4342530D01*
X-1664720Y-4384860D01*
X-1648970Y-4416620D01*
X-1625350Y-4443070D01*
X-1593850Y-4453650D01*
X-1562360Y-4443070D01*
X-1538730Y-4416620D01*
X-1522980Y-4384860D01*
X-1511170Y-4342530D01*
X-1507240Y-4294900D01*
X-1511170Y-4247280D01*
X-1522980Y-4204940D01*
X-1538730Y-4173190D01*
X-1562360Y-4146730D01*
X-1593850Y-4136150D01*
G01X-1278890Y-4464230D02*
X-1286770Y-4458940D01*
Y-4448360D01*
X-1278890Y-4443070D01*
X-1271010Y-4448360D01*
Y-4458940D01*
X-1278890Y-4464230D01*
G01X-1030860Y-4416620D02*
X-1003300Y-4443070D01*
X-971810Y-4453650D01*
X-940310Y-4443070D01*
X-912750Y-4411330D01*
X-893060Y-4363690D01*
X-885190Y-4316070D01*
Y-4257860D01*
X-893060Y-4210240D01*
X-912750Y-4167900D01*
X-936370Y-4146730D01*
X-963930Y-4136150D01*
X-995430Y-4146730D01*
X-1019050Y-4167900D01*
X-1034800Y-4199650D01*
X-1042670Y-4241990D01*
X-1034800Y-4279020D01*
X-1015110Y-4316070D01*
X-991490Y-4337240D01*
X-963930Y-4342530D01*
X-932440Y-4331950D01*
X-908810Y-4305490D01*
X-885190Y-4257860D01*
G01X0Y0D02*
Y10000000D01*
X10000000D01*
Y0D01*
X0D01*
G01X1280160Y-2072400D02*
Y-9057400D01*
G01X2020320Y-2548650D02*
Y-2231150D01*
X2099050D01*
X2130550Y-2247030D01*
X2154170Y-2268190D01*
X2173860Y-2299940D01*
X2189610Y-2336990D01*
X2193540Y-2389900D01*
X2189610Y-2442820D01*
X2173860Y-2479860D01*
X2154170Y-2511620D01*
X2130550Y-2532780D01*
X2099050Y-2548650D01*
X2020320D01*
G01X2343150D02*
Y-2231150D01*
X2441570D01*
X2473070Y-2247030D01*
X2492760Y-2268190D01*
X2500630Y-2310530D01*
X2492760Y-2352860D01*
X2469130Y-2379310D01*
X2441570Y-2395200D01*
X2343150D01*
G01X2441570D02*
X2500630Y-2548650D01*
G01X2689610Y-2231150D02*
X2784090D01*
G01X2736850D02*
Y-2548650D01*
G01X2689610D02*
X2784090D01*
G01X2973070Y-2231150D02*
Y-2548650D01*
X3130550D01*
G01X3288030Y-2231150D02*
Y-2548650D01*
X3445510D01*
G01X3760470D02*
X3602990D01*
Y-2231150D01*
X3760470D01*
G01X3697480Y-2384600D02*
X3602990D01*
G01X3910080Y-2548650D02*
Y-2231150D01*
X3988810D01*
X4020310Y-2247030D01*
X4043930Y-2268190D01*
X4063620Y-2299940D01*
X4079370Y-2336990D01*
X4083300Y-2389900D01*
X4079370Y-2442820D01*
X4063620Y-2479860D01*
X4043930Y-2511620D01*
X4020310Y-2532780D01*
X3988810Y-2548650D01*
X3910080D01*
G01X4193540Y-2654480D02*
X4429760D01*
G01X4543930Y-2506330D02*
X4575430Y-2532780D01*
X4610860Y-2548650D01*
X4642360D01*
X4673850Y-2532780D01*
X4697480Y-2506330D01*
X4709290Y-2469270D01*
X4701420Y-2432240D01*
X4681730Y-2400490D01*
X4646290Y-2379310D01*
X4599050Y-2368730D01*
X4571490Y-2347570D01*
X4559680Y-2310530D01*
X4567560Y-2273480D01*
X4587240Y-2247030D01*
X4614800Y-2231150D01*
X4642360D01*
X4669920Y-2241730D01*
X4693540Y-2268190D01*
G01X4894330Y-2231150D02*
X4988810D01*
G01X4941570D02*
Y-2548650D01*
G01X4894330D02*
X4988810D01*
G01X5181720Y-2231150D02*
X5331340D01*
X5181720Y-2548650D01*
X5331340D01*
G01X5650230D02*
X5492750D01*
Y-2231150D01*
X5650230D01*
G01X5587240Y-2384600D02*
X5492750D01*
G01X3504560Y-1913650D02*
X3602990Y-1596150D01*
X3701420Y-1913650D01*
G01X3665980Y-1802530D02*
X3539990D01*
G01X3839210Y-1596150D02*
Y-1913650D01*
X3996690D01*
G01X4154170Y-1596150D02*
Y-1913650D01*
X4311650D01*
G01X4776220Y-1596150D02*
Y-1823690D01*
X4791960Y-1871330D01*
X4823460Y-1903070D01*
X4862830Y-1913650D01*
X4902200Y-1903070D01*
X4933700Y-1871330D01*
X4949440Y-1823690D01*
Y-1596150D01*
G01X5087240Y-1913650D02*
Y-1596150D01*
X5268340Y-1913650D01*
Y-1596150D01*
G01X5445510D02*
X5539990D01*
G01X5492750D02*
Y-1913650D01*
G01X5445510D02*
X5539990D01*
G01X5807710Y-1596150D02*
Y-1913650D01*
G01X5717160Y-1596150D02*
X5898260D01*
G01X6039990Y-1871330D02*
X6071490Y-1897780D01*
X6106920Y-1913650D01*
X6138420D01*
X6169910Y-1897780D01*
X6193540Y-1871330D01*
X6205350Y-1834270D01*
X6197480Y-1797240D01*
X6177790Y-1765490D01*
X6142350Y-1744310D01*
X6095110Y-1733730D01*
X6067550Y-1712570D01*
X6055740Y-1675530D01*
X6063620Y-1638480D01*
X6083300Y-1612030D01*
X6110860Y-1596150D01*
X6138420D01*
X6165980Y-1606730D01*
X6189600Y-1633190D01*
G01X6654160Y-1913650D02*
X6752590Y-1596150D01*
X6851020Y-1913650D01*
G01X6815580Y-1802530D02*
X6689590D01*
G01X6988810Y-1913650D02*
Y-1596150D01*
X7087230D01*
X7118730Y-1612030D01*
X7138420Y-1633190D01*
X7146290Y-1675530D01*
X7138420Y-1717860D01*
X7114790Y-1744310D01*
X7087230Y-1760200D01*
X6988810D01*
G01X7087230D02*
X7146290Y-1913650D01*
G01X7461250D02*
X7303770D01*
Y-1596150D01*
X7461250D01*
G01X7398260Y-1749600D02*
X7303770D01*
G01X7965190Y-1596150D02*
X8059670D01*
G01X8012430D02*
Y-1913650D01*
G01X7965190D02*
X8059670D01*
G01X8236840D02*
Y-1596150D01*
X8417940Y-1913650D01*
Y-1596150D01*
G01X8854940Y-1913650D02*
Y-1596150D01*
X8957310Y-1860730D01*
X9059680Y-1596150D01*
Y-1913650D01*
G01X9225030Y-1596150D02*
X9319510D01*
G01X9272270D02*
Y-1913650D01*
G01X9225030D02*
X9319510D01*
G01X9508490Y-1596150D02*
Y-1913650D01*
X9665970D01*
G01X9823450Y-1596150D02*
Y-1913650D01*
X9980930D01*
G01X10169910Y-1596150D02*
X10264390D01*
G01X10217150D02*
Y-1913650D01*
G01X10169910D02*
X10264390D01*
G01X10429740D02*
Y-1596150D01*
X10532110Y-1860730D01*
X10634480Y-1596150D01*
Y-1913650D01*
G01X10925810D02*
X10768330D01*
Y-1596150D01*
X10925810D01*
G01X10862820Y-1749600D02*
X10768330D01*
G01X11162030Y-1596150D02*
Y-1913650D01*
G01X11071480Y-1596150D02*
X11252580D01*
G01X11555730Y-1913650D02*
X11398250D01*
Y-1596150D01*
X11555730D01*
G01X11492740Y-1749600D02*
X11398250D01*
G01X11713210Y-1913650D02*
Y-1596150D01*
X11811630D01*
X11843130Y-1612030D01*
X11862820Y-1633190D01*
X11870690Y-1675530D01*
X11862820Y-1717860D01*
X11839190Y-1744310D01*
X11811630Y-1760200D01*
X11713210D01*
G01X11811630D02*
X11870690Y-1913650D01*
G01X12024230Y-1871330D02*
X12055730Y-1897780D01*
X12091160Y-1913650D01*
X12122660D01*
X12154150Y-1897780D01*
X12177780Y-1871330D01*
X12189590Y-1834270D01*
X12181720Y-1797240D01*
X12162030Y-1765490D01*
X12126590Y-1744310D01*
X12079350Y-1733730D01*
X12051790Y-1712570D01*
X12039980Y-1675530D01*
X12047860Y-1638480D01*
X12067540Y-1612030D01*
X12095100Y-1596150D01*
X12122660D01*
X12150220Y-1606730D01*
X12173840Y-1633190D01*
G01X3788030Y-8792820D02*
X3890390D01*
G01X3788030Y-8157820D02*
X3890390D01*
G01X3788030Y-7522820D02*
X3890390D01*
G01X3788030Y-6887820D02*
X3890390D01*
G01X3788030Y-6252820D02*
X3890390D01*
G01X3788030Y-5617820D02*
X3890390D01*
G01X3788030Y-4982820D02*
X3890390D01*
G01X3788030Y-4347820D02*
X3890390D01*
G01X3788030Y-3712820D02*
X3890390D01*
G01X3788030Y-3077820D02*
X3890390D01*
G01X3831340Y-1263650D02*
Y-946150D01*
X3910070D01*
X3941570Y-962030D01*
X3965190Y-983190D01*
X3984880Y-1014940D01*
X4000630Y-1051990D01*
X4004560Y-1104900D01*
X4000630Y-1157820D01*
X3984880Y-1194860D01*
X3965190Y-1226620D01*
X3941570Y-1247780D01*
X3910070Y-1263650D01*
X3831340D01*
G01X4154170D02*
Y-946150D01*
X4252590D01*
X4284090Y-962030D01*
X4303780Y-983190D01*
X4311650Y-1025530D01*
X4303780Y-1067860D01*
X4280150Y-1094310D01*
X4252590Y-1110200D01*
X4154170D01*
G01X4252590D02*
X4311650Y-1263650D01*
G01X4500630Y-946150D02*
X4595110D01*
G01X4547870D02*
Y-1263650D01*
G01X4500630D02*
X4595110D01*
G01X4784090Y-946150D02*
Y-1263650D01*
X4941570D01*
G01X5099050Y-946150D02*
Y-1263650D01*
X5256530D01*
G01X5894320Y-972610D02*
X5870700Y-956730D01*
X5843150Y-946150D01*
X5811650D01*
X5776210Y-962030D01*
X5748660Y-988480D01*
X5728970Y-1020240D01*
X5713220Y-1073150D01*
X5709280Y-1120780D01*
X5717160Y-1168400D01*
X5728970Y-1200150D01*
X5752590Y-1231910D01*
X5780150Y-1253070D01*
X5807710Y-1263650D01*
X5835270D01*
X5862830Y-1253070D01*
X5886450Y-1237200D01*
X5906140Y-1216040D01*
G01X6039990Y-1263650D02*
Y-946150D01*
G01X6205350D02*
Y-1263650D01*
G01Y-1104900D02*
X6039990D01*
G01X6339200Y-1263650D02*
X6437630Y-946150D01*
X6536060Y-1263650D01*
G01X6500620Y-1152530D02*
X6374630D01*
G01X6673850Y-1263650D02*
Y-946150D01*
X6772270D01*
X6803770Y-962030D01*
X6823460Y-983190D01*
X6831330Y-1025530D01*
X6823460Y-1067860D01*
X6799830Y-1094310D01*
X6772270Y-1110200D01*
X6673850D01*
G01X6772270D02*
X6831330Y-1263650D01*
G01X7067550Y-946150D02*
Y-1263650D01*
G01X6977000Y-946150D02*
X7158100D01*
G01X7382510Y-1274230D02*
X7374630Y-1268940D01*
Y-1258360D01*
X7382510Y-1253070D01*
X7390390Y-1258360D01*
Y-1268940D01*
X7382510Y-1274230D01*
G01Y-1131370D02*
X7374630Y-1126070D01*
Y-1115490D01*
X7382510Y-1110200D01*
X7390390Y-1115490D01*
Y-1126070D01*
X7382510Y-1131370D01*
G01X8012430Y-946150D02*
Y-1263650D01*
G01X7921880Y-946150D02*
X8102980D01*
G01X8327390Y-1263650D02*
X8295890Y-1258360D01*
X8268340Y-1237200D01*
X8244710Y-1205440D01*
X8228960Y-1168400D01*
X8221090Y-1126070D01*
Y-1083730D01*
X8228960Y-1041400D01*
X8244710Y-1004360D01*
X8268340Y-972610D01*
X8295890Y-951440D01*
X8327390Y-946150D01*
X8358880Y-951440D01*
X8386440Y-972610D01*
X8410070Y-1004360D01*
X8425820Y-1041400D01*
X8433690Y-1083730D01*
Y-1126070D01*
X8425820Y-1168400D01*
X8410070Y-1205440D01*
X8386440Y-1237200D01*
X8358880Y-1258360D01*
X8327390Y-1263650D01*
G01X8563610D02*
Y-946150D01*
X8658100D01*
X8689590Y-962030D01*
X8713220Y-999070D01*
X8721090Y-1041400D01*
X8713220Y-1083730D01*
X8693530Y-1115490D01*
X8658100Y-1131370D01*
X8563610D01*
G01X9272270Y-946150D02*
Y-1263650D01*
G01X9217150Y-1051990D02*
X9327390D01*
G01X9587230Y-1263650D02*
X9563610Y-1258360D01*
X9539990Y-1237200D01*
X9524230Y-1200150D01*
X9516360Y-1157820D01*
X9524230Y-1115490D01*
X9539990Y-1078440D01*
X9563610Y-1057280D01*
X9587230Y-1051990D01*
X9610850Y-1057280D01*
X9634470Y-1078440D01*
X9650220Y-1115490D01*
X9654160Y-1157820D01*
X9650220Y-1200150D01*
X9634470Y-1237200D01*
X9610850Y-1258360D01*
X9587230Y-1263650D01*
G01X10248640Y-1094310D02*
X10264390Y-1078440D01*
X10276200Y-1051990D01*
X10284080Y-1014940D01*
X10276200Y-983190D01*
X10260460Y-962030D01*
X10232900Y-946150D01*
X10126600D01*
Y-1263650D01*
X10256520D01*
X10284080Y-1242490D01*
X10299830Y-1210730D01*
X10307700Y-1173690D01*
X10299830Y-1136660D01*
X10276200Y-1104900D01*
X10248640Y-1094310D01*
X10126600D01*
G01X10532110Y-1263650D02*
X10500610Y-1258360D01*
X10473060Y-1237200D01*
X10449430Y-1205440D01*
X10433680Y-1168400D01*
X10425810Y-1126070D01*
Y-1083730D01*
X10433680Y-1041400D01*
X10449430Y-1004360D01*
X10473060Y-972610D01*
X10500610Y-951440D01*
X10532110Y-946150D01*
X10563600Y-951440D01*
X10591160Y-972610D01*
X10614790Y-1004360D01*
X10630540Y-1041400D01*
X10638410Y-1083730D01*
Y-1126070D01*
X10630540Y-1168400D01*
X10614790Y-1205440D01*
X10591160Y-1237200D01*
X10563600Y-1258360D01*
X10532110Y-1263650D01*
G01X10847070Y-946150D02*
Y-1263650D01*
G01X10756520Y-946150D02*
X10937620D01*
G01X11162030D02*
Y-1263650D01*
G01X11071480Y-946150D02*
X11252580D01*
G01X11476990Y-1263650D02*
X11445490Y-1258360D01*
X11417940Y-1237200D01*
X11394310Y-1205440D01*
X11378560Y-1168400D01*
X11370690Y-1126070D01*
Y-1083730D01*
X11378560Y-1041400D01*
X11394310Y-1004360D01*
X11417940Y-972610D01*
X11445490Y-951440D01*
X11476990Y-946150D01*
X11508480Y-951440D01*
X11536040Y-972610D01*
X11559670Y-1004360D01*
X11575420Y-1041400D01*
X11583290Y-1083730D01*
Y-1126070D01*
X11575420Y-1168400D01*
X11559670Y-1205440D01*
X11536040Y-1237200D01*
X11508480Y-1258360D01*
X11476990Y-1263650D01*
G01X11689580D02*
Y-946150D01*
X11791950Y-1210730D01*
X11894320Y-946150D01*
Y-1263650D01*
G01X6398260Y-2072400D02*
Y-9057400D01*
G01X6709280Y-3077820D02*
X6803770D01*
G01X6752590Y-3009020D02*
Y-3146620D01*
G01X7067550Y-2866150D02*
X7036050Y-2876730D01*
X7012430Y-2903190D01*
X6996680Y-2934940D01*
X6984870Y-2977280D01*
X6980940Y-3024900D01*
X6984870Y-3072530D01*
X6996680Y-3114860D01*
X7012430Y-3146620D01*
X7036050Y-3173070D01*
X7067550Y-3183650D01*
X7099040Y-3173070D01*
X7122670Y-3146620D01*
X7138420Y-3114860D01*
X7150230Y-3072530D01*
X7154160Y-3024900D01*
X7150230Y-2977280D01*
X7138420Y-2934940D01*
X7122670Y-2903190D01*
X7099040Y-2876730D01*
X7067550Y-2866150D01*
G01X7382510Y-3194230D02*
X7374630Y-3188940D01*
Y-3178360D01*
X7382510Y-3173070D01*
X7390390Y-3178360D01*
Y-3188940D01*
X7382510Y-3194230D01*
G01X7697470Y-2866150D02*
X7665970Y-2876730D01*
X7642350Y-2903190D01*
X7626600Y-2934940D01*
X7614790Y-2977280D01*
X7610860Y-3024900D01*
X7614790Y-3072530D01*
X7626600Y-3114860D01*
X7642350Y-3146620D01*
X7665970Y-3173070D01*
X7697470Y-3183650D01*
X7728960Y-3173070D01*
X7752590Y-3146620D01*
X7768340Y-3114860D01*
X7780150Y-3072530D01*
X7784080Y-3024900D01*
X7780150Y-2977280D01*
X7768340Y-2934940D01*
X7752590Y-2903190D01*
X7728960Y-2876730D01*
X7697470Y-2866150D01*
G01X8004550Y-3183650D02*
X8012430Y-3114860D01*
X8024240Y-3056660D01*
X8039990Y-3003730D01*
X8059670Y-2945530D01*
X8091170Y-2866150D01*
X7933690D01*
G01X8252580Y-3051370D02*
X8280150Y-3014310D01*
X8303770Y-2993150D01*
X8335270Y-2982570D01*
X8362830Y-2993150D01*
X8382510Y-3014310D01*
X8398260Y-3046070D01*
X8402200Y-3083110D01*
X8398260Y-3114860D01*
X8382510Y-3146620D01*
X8358880Y-3173070D01*
X8331330Y-3183650D01*
X8299830Y-3173070D01*
X8272270Y-3141330D01*
X8256520Y-3093690D01*
X8252580Y-3040780D01*
X8260460Y-2971990D01*
X8272270Y-2934940D01*
X8291950Y-2897900D01*
X8319510Y-2871440D01*
X8347070Y-2866150D01*
X8374630Y-2876730D01*
X8394320Y-2903190D01*
G01X8567540Y-2919070D02*
X8591170Y-2887320D01*
X8618730Y-2871440D01*
X8650230Y-2866150D01*
X8689590Y-2876730D01*
X8717160Y-2903190D01*
X8725030Y-2934940D01*
X8721090Y-2966700D01*
X8705340Y-2993150D01*
X8626600Y-3046070D01*
X8591170Y-3083110D01*
X8567540Y-3136040D01*
X8559670Y-3183650D01*
X8725030D01*
G01X8886440Y-3194230D02*
X9028180Y-2866150D01*
G01X9221090Y-3077820D02*
X9323450D01*
G01X9587230Y-2866150D02*
X9555730Y-2876730D01*
X9532110Y-2903190D01*
X9516360Y-2934940D01*
X9504550Y-2977280D01*
X9500620Y-3024900D01*
X9504550Y-3072530D01*
X9516360Y-3114860D01*
X9532110Y-3146620D01*
X9555730Y-3173070D01*
X9587230Y-3183650D01*
X9618720Y-3173070D01*
X9642350Y-3146620D01*
X9658100Y-3114860D01*
X9669910Y-3072530D01*
X9673840Y-3024900D01*
X9669910Y-2977280D01*
X9658100Y-2934940D01*
X9642350Y-2903190D01*
X9618720Y-2876730D01*
X9587230Y-2866150D01*
G01X9902190Y-3194230D02*
X9894310Y-3188940D01*
Y-3178360D01*
X9902190Y-3173070D01*
X9910070Y-3178360D01*
Y-3188940D01*
X9902190Y-3194230D01*
G01X10217150Y-2866150D02*
X10185650Y-2876730D01*
X10162030Y-2903190D01*
X10146280Y-2934940D01*
X10134470Y-2977280D01*
X10130540Y-3024900D01*
X10134470Y-3072530D01*
X10146280Y-3114860D01*
X10162030Y-3146620D01*
X10185650Y-3173070D01*
X10217150Y-3183650D01*
X10248640Y-3173070D01*
X10272270Y-3146620D01*
X10288020Y-3114860D01*
X10299830Y-3072530D01*
X10303760Y-3024900D01*
X10299830Y-2977280D01*
X10288020Y-2934940D01*
X10272270Y-2903190D01*
X10248640Y-2876730D01*
X10217150Y-2866150D01*
G01X10524230Y-3183650D02*
X10532110Y-3114860D01*
X10543920Y-3056660D01*
X10559670Y-3003730D01*
X10579350Y-2945530D01*
X10610850Y-2866150D01*
X10453370D01*
G01X10772260Y-3051370D02*
X10799830Y-3014310D01*
X10823450Y-2993150D01*
X10854950Y-2982570D01*
X10882510Y-2993150D01*
X10902190Y-3014310D01*
X10917940Y-3046070D01*
X10921880Y-3083110D01*
X10917940Y-3114860D01*
X10902190Y-3146620D01*
X10878560Y-3173070D01*
X10851010Y-3183650D01*
X10819510Y-3173070D01*
X10791950Y-3141330D01*
X10776200Y-3093690D01*
X10772260Y-3040780D01*
X10780140Y-2971990D01*
X10791950Y-2934940D01*
X10811630Y-2897900D01*
X10839190Y-2871440D01*
X10866750Y-2866150D01*
X10894310Y-2876730D01*
X10914000Y-2903190D01*
G01X11087220Y-2919070D02*
X11110850Y-2887320D01*
X11138410Y-2871440D01*
X11169910Y-2866150D01*
X11209270Y-2876730D01*
X11236840Y-2903190D01*
X11244710Y-2934940D01*
X11240770Y-2966700D01*
X11225020Y-2993150D01*
X11146280Y-3046070D01*
X11110850Y-3083110D01*
X11087220Y-3136040D01*
X11079350Y-3183650D01*
X11244710D01*
G01X7150220Y-2548650D02*
Y-2231150D01*
X7299840D01*
G01X7244710Y-2384600D02*
X7150220D01*
G01X7492750Y-2231150D02*
X7587230D01*
G01X7539990D02*
Y-2548650D01*
G01X7492750D02*
X7587230D01*
G01X7764400D02*
Y-2231150D01*
X7945500Y-2548650D01*
Y-2231150D01*
G01X8122670D02*
X8217150D01*
G01X8169910D02*
Y-2548650D01*
G01X8122670D02*
X8217150D01*
G01X8402190Y-2506330D02*
X8433690Y-2532780D01*
X8469120Y-2548650D01*
X8500620D01*
X8532110Y-2532780D01*
X8555740Y-2506330D01*
X8567550Y-2469270D01*
X8559680Y-2432240D01*
X8539990Y-2400490D01*
X8504550Y-2379310D01*
X8457310Y-2368730D01*
X8429750Y-2347570D01*
X8417940Y-2310530D01*
X8425820Y-2273480D01*
X8445500Y-2247030D01*
X8473060Y-2231150D01*
X8500620D01*
X8528180Y-2241730D01*
X8551800Y-2268190D01*
G01X8717150Y-2548650D02*
Y-2231150D01*
G01X8882510D02*
Y-2548650D01*
G01Y-2389900D02*
X8717150D01*
G01X9193530Y-2548650D02*
X9036050D01*
Y-2231150D01*
X9193530D01*
G01X9130540Y-2384600D02*
X9036050D01*
G01X9343140Y-2548650D02*
Y-2231150D01*
X9421870D01*
X9453370Y-2247030D01*
X9476990Y-2268190D01*
X9496680Y-2299940D01*
X9512430Y-2336990D01*
X9516360Y-2389900D01*
X9512430Y-2442820D01*
X9496680Y-2479860D01*
X9476990Y-2511620D01*
X9453370Y-2532780D01*
X9421870Y-2548650D01*
X9343140D01*
G01X9626600Y-2654480D02*
X9862820D01*
G01X10059670Y-2231150D02*
Y-2548650D01*
G01X9969120Y-2231150D02*
X10150220D01*
G01X10374630Y-2548650D02*
X10343130Y-2543360D01*
X10315580Y-2522200D01*
X10291950Y-2490440D01*
X10276200Y-2453400D01*
X10268330Y-2411070D01*
Y-2368730D01*
X10276200Y-2326400D01*
X10291950Y-2289360D01*
X10315580Y-2257610D01*
X10343130Y-2236440D01*
X10374630Y-2231150D01*
X10406120Y-2236440D01*
X10433680Y-2257610D01*
X10457310Y-2289360D01*
X10473060Y-2326400D01*
X10480930Y-2368730D01*
Y-2411070D01*
X10473060Y-2453400D01*
X10457310Y-2490440D01*
X10433680Y-2522200D01*
X10406120Y-2543360D01*
X10374630Y-2548650D01*
G01X10610850Y-2231150D02*
Y-2548650D01*
X10768330D01*
G01X7654160Y-8792820D02*
X7748650D01*
G01X7697470Y-8724020D02*
Y-8861620D01*
G01X8012430Y-8581150D02*
X7980930Y-8591730D01*
X7957310Y-8618190D01*
X7941560Y-8649940D01*
X7929750Y-8692280D01*
X7925820Y-8739900D01*
X7929750Y-8787530D01*
X7941560Y-8829860D01*
X7957310Y-8861620D01*
X7980930Y-8888070D01*
X8012430Y-8898650D01*
X8043920Y-8888070D01*
X8067550Y-8861620D01*
X8083300Y-8829860D01*
X8095110Y-8787530D01*
X8099040Y-8739900D01*
X8095110Y-8692280D01*
X8083300Y-8649940D01*
X8067550Y-8618190D01*
X8043920Y-8591730D01*
X8012430Y-8581150D01*
G01X8327390Y-8909230D02*
X8319510Y-8903940D01*
Y-8893360D01*
X8327390Y-8888070D01*
X8335270Y-8893360D01*
Y-8903940D01*
X8327390Y-8909230D01*
G01X8642350Y-8581150D02*
X8610850Y-8591730D01*
X8587230Y-8618190D01*
X8571480Y-8649940D01*
X8559670Y-8692280D01*
X8555740Y-8739900D01*
X8559670Y-8787530D01*
X8571480Y-8829860D01*
X8587230Y-8861620D01*
X8610850Y-8888070D01*
X8642350Y-8898650D01*
X8673840Y-8888070D01*
X8697470Y-8861620D01*
X8713220Y-8829860D01*
X8725030Y-8787530D01*
X8728960Y-8739900D01*
X8725030Y-8692280D01*
X8713220Y-8649940D01*
X8697470Y-8618190D01*
X8673840Y-8591730D01*
X8642350Y-8581150D01*
G01X8886440Y-8909230D02*
X9028180Y-8581150D01*
G01X9221090Y-8792820D02*
X9323450D01*
G01X9587230Y-8581150D02*
X9555730Y-8591730D01*
X9532110Y-8618190D01*
X9516360Y-8649940D01*
X9504550Y-8692280D01*
X9500620Y-8739900D01*
X9504550Y-8787530D01*
X9516360Y-8829860D01*
X9532110Y-8861620D01*
X9555730Y-8888070D01*
X9587230Y-8898650D01*
X9618720Y-8888070D01*
X9642350Y-8861620D01*
X9658100Y-8829860D01*
X9669910Y-8787530D01*
X9673840Y-8739900D01*
X9669910Y-8692280D01*
X9658100Y-8649940D01*
X9642350Y-8618190D01*
X9618720Y-8591730D01*
X9587230Y-8581150D01*
G01X9902190Y-8909230D02*
X9894310Y-8903940D01*
Y-8893360D01*
X9902190Y-8888070D01*
X9910070Y-8893360D01*
Y-8903940D01*
X9902190Y-8909230D01*
G01X10217150Y-8581150D02*
X10185650Y-8591730D01*
X10162030Y-8618190D01*
X10146280Y-8649940D01*
X10134470Y-8692280D01*
X10130540Y-8739900D01*
X10134470Y-8787530D01*
X10146280Y-8829860D01*
X10162030Y-8861620D01*
X10185650Y-8888070D01*
X10217150Y-8898650D01*
X10248640Y-8888070D01*
X10272270Y-8861620D01*
X10288020Y-8829860D01*
X10299830Y-8787530D01*
X10303760Y-8739900D01*
X10299830Y-8692280D01*
X10288020Y-8649940D01*
X10272270Y-8618190D01*
X10248640Y-8591730D01*
X10217150Y-8581150D01*
G01X7654160Y-8157820D02*
X7748650D01*
G01X7697470Y-8089020D02*
Y-8226620D01*
G01X8012430Y-7946150D02*
X7980930Y-7956730D01*
X7957310Y-7983190D01*
X7941560Y-8014940D01*
X7929750Y-8057280D01*
X7925820Y-8104900D01*
X7929750Y-8152530D01*
X7941560Y-8194860D01*
X7957310Y-8226620D01*
X7980930Y-8253070D01*
X8012430Y-8263650D01*
X8043920Y-8253070D01*
X8067550Y-8226620D01*
X8083300Y-8194860D01*
X8095110Y-8152530D01*
X8099040Y-8104900D01*
X8095110Y-8057280D01*
X8083300Y-8014940D01*
X8067550Y-7983190D01*
X8043920Y-7956730D01*
X8012430Y-7946150D01*
G01X8327390Y-8274230D02*
X8319510Y-8268940D01*
Y-8258360D01*
X8327390Y-8253070D01*
X8335270Y-8258360D01*
Y-8268940D01*
X8327390Y-8274230D01*
G01X8642350Y-7946150D02*
X8610850Y-7956730D01*
X8587230Y-7983190D01*
X8571480Y-8014940D01*
X8559670Y-8057280D01*
X8555740Y-8104900D01*
X8559670Y-8152530D01*
X8571480Y-8194860D01*
X8587230Y-8226620D01*
X8610850Y-8253070D01*
X8642350Y-8263650D01*
X8673840Y-8253070D01*
X8697470Y-8226620D01*
X8713220Y-8194860D01*
X8725030Y-8152530D01*
X8728960Y-8104900D01*
X8725030Y-8057280D01*
X8713220Y-8014940D01*
X8697470Y-7983190D01*
X8673840Y-7956730D01*
X8642350Y-7946150D01*
G01X8886440Y-8274230D02*
X9028180Y-7946150D01*
G01X9221090Y-8157820D02*
X9323450D01*
G01X9587230Y-7946150D02*
X9555730Y-7956730D01*
X9532110Y-7983190D01*
X9516360Y-8014940D01*
X9504550Y-8057280D01*
X9500620Y-8104900D01*
X9504550Y-8152530D01*
X9516360Y-8194860D01*
X9532110Y-8226620D01*
X9555730Y-8253070D01*
X9587230Y-8263650D01*
X9618720Y-8253070D01*
X9642350Y-8226620D01*
X9658100Y-8194860D01*
X9669910Y-8152530D01*
X9673840Y-8104900D01*
X9669910Y-8057280D01*
X9658100Y-8014940D01*
X9642350Y-7983190D01*
X9618720Y-7956730D01*
X9587230Y-7946150D01*
G01X9902190Y-8274230D02*
X9894310Y-8268940D01*
Y-8258360D01*
X9902190Y-8253070D01*
X9910070Y-8258360D01*
Y-8268940D01*
X9902190Y-8274230D01*
G01X10217150Y-7946150D02*
X10185650Y-7956730D01*
X10162030Y-7983190D01*
X10146280Y-8014940D01*
X10134470Y-8057280D01*
X10130540Y-8104900D01*
X10134470Y-8152530D01*
X10146280Y-8194860D01*
X10162030Y-8226620D01*
X10185650Y-8253070D01*
X10217150Y-8263650D01*
X10248640Y-8253070D01*
X10272270Y-8226620D01*
X10288020Y-8194860D01*
X10299830Y-8152530D01*
X10303760Y-8104900D01*
X10299830Y-8057280D01*
X10288020Y-8014940D01*
X10272270Y-7983190D01*
X10248640Y-7956730D01*
X10217150Y-7946150D01*
G01X7654160Y-7522820D02*
X7748650D01*
G01X7697470Y-7454020D02*
Y-7591620D01*
G01X8012430Y-7311150D02*
X7980930Y-7321730D01*
X7957310Y-7348190D01*
X7941560Y-7379940D01*
X7929750Y-7422280D01*
X7925820Y-7469900D01*
X7929750Y-7517530D01*
X7941560Y-7559860D01*
X7957310Y-7591620D01*
X7980930Y-7618070D01*
X8012430Y-7628650D01*
X8043920Y-7618070D01*
X8067550Y-7591620D01*
X8083300Y-7559860D01*
X8095110Y-7517530D01*
X8099040Y-7469900D01*
X8095110Y-7422280D01*
X8083300Y-7379940D01*
X8067550Y-7348190D01*
X8043920Y-7321730D01*
X8012430Y-7311150D01*
G01X8327390Y-7639230D02*
X8319510Y-7633940D01*
Y-7623360D01*
X8327390Y-7618070D01*
X8335270Y-7623360D01*
Y-7633940D01*
X8327390Y-7639230D01*
G01X8642350Y-7311150D02*
X8610850Y-7321730D01*
X8587230Y-7348190D01*
X8571480Y-7379940D01*
X8559670Y-7422280D01*
X8555740Y-7469900D01*
X8559670Y-7517530D01*
X8571480Y-7559860D01*
X8587230Y-7591620D01*
X8610850Y-7618070D01*
X8642350Y-7628650D01*
X8673840Y-7618070D01*
X8697470Y-7591620D01*
X8713220Y-7559860D01*
X8725030Y-7517530D01*
X8728960Y-7469900D01*
X8725030Y-7422280D01*
X8713220Y-7379940D01*
X8697470Y-7348190D01*
X8673840Y-7321730D01*
X8642350Y-7311150D01*
G01X8886440Y-7639230D02*
X9028180Y-7311150D01*
G01X9221090Y-7522820D02*
X9323450D01*
G01X9587230Y-7311150D02*
X9555730Y-7321730D01*
X9532110Y-7348190D01*
X9516360Y-7379940D01*
X9504550Y-7422280D01*
X9500620Y-7469900D01*
X9504550Y-7517530D01*
X9516360Y-7559860D01*
X9532110Y-7591620D01*
X9555730Y-7618070D01*
X9587230Y-7628650D01*
X9618720Y-7618070D01*
X9642350Y-7591620D01*
X9658100Y-7559860D01*
X9669910Y-7517530D01*
X9673840Y-7469900D01*
X9669910Y-7422280D01*
X9658100Y-7379940D01*
X9642350Y-7348190D01*
X9618720Y-7321730D01*
X9587230Y-7311150D01*
G01X9902190Y-7639230D02*
X9894310Y-7633940D01*
Y-7623360D01*
X9902190Y-7618070D01*
X9910070Y-7623360D01*
Y-7633940D01*
X9902190Y-7639230D01*
G01X10217150Y-7311150D02*
X10185650Y-7321730D01*
X10162030Y-7348190D01*
X10146280Y-7379940D01*
X10134470Y-7422280D01*
X10130540Y-7469900D01*
X10134470Y-7517530D01*
X10146280Y-7559860D01*
X10162030Y-7591620D01*
X10185650Y-7618070D01*
X10217150Y-7628650D01*
X10248640Y-7618070D01*
X10272270Y-7591620D01*
X10288020Y-7559860D01*
X10299830Y-7517530D01*
X10303760Y-7469900D01*
X10299830Y-7422280D01*
X10288020Y-7379940D01*
X10272270Y-7348190D01*
X10248640Y-7321730D01*
X10217150Y-7311150D01*
G01X7654160Y-6887820D02*
X7748650D01*
G01X7697470Y-6819020D02*
Y-6956620D01*
G01X8012430Y-6676150D02*
X7980930Y-6686730D01*
X7957310Y-6713190D01*
X7941560Y-6744940D01*
X7929750Y-6787280D01*
X7925820Y-6834900D01*
X7929750Y-6882530D01*
X7941560Y-6924860D01*
X7957310Y-6956620D01*
X7980930Y-6983070D01*
X8012430Y-6993650D01*
X8043920Y-6983070D01*
X8067550Y-6956620D01*
X8083300Y-6924860D01*
X8095110Y-6882530D01*
X8099040Y-6834900D01*
X8095110Y-6787280D01*
X8083300Y-6744940D01*
X8067550Y-6713190D01*
X8043920Y-6686730D01*
X8012430Y-6676150D01*
G01X8327390Y-7004230D02*
X8319510Y-6998940D01*
Y-6988360D01*
X8327390Y-6983070D01*
X8335270Y-6988360D01*
Y-6998940D01*
X8327390Y-7004230D01*
G01X8642350Y-6676150D02*
X8610850Y-6686730D01*
X8587230Y-6713190D01*
X8571480Y-6744940D01*
X8559670Y-6787280D01*
X8555740Y-6834900D01*
X8559670Y-6882530D01*
X8571480Y-6924860D01*
X8587230Y-6956620D01*
X8610850Y-6983070D01*
X8642350Y-6993650D01*
X8673840Y-6983070D01*
X8697470Y-6956620D01*
X8713220Y-6924860D01*
X8725030Y-6882530D01*
X8728960Y-6834900D01*
X8725030Y-6787280D01*
X8713220Y-6744940D01*
X8697470Y-6713190D01*
X8673840Y-6686730D01*
X8642350Y-6676150D01*
G01X8886440Y-7004230D02*
X9028180Y-6676150D01*
G01X9221090Y-6887820D02*
X9323450D01*
G01X9587230Y-6676150D02*
X9555730Y-6686730D01*
X9532110Y-6713190D01*
X9516360Y-6744940D01*
X9504550Y-6787280D01*
X9500620Y-6834900D01*
X9504550Y-6882530D01*
X9516360Y-6924860D01*
X9532110Y-6956620D01*
X9555730Y-6983070D01*
X9587230Y-6993650D01*
X9618720Y-6983070D01*
X9642350Y-6956620D01*
X9658100Y-6924860D01*
X9669910Y-6882530D01*
X9673840Y-6834900D01*
X9669910Y-6787280D01*
X9658100Y-6744940D01*
X9642350Y-6713190D01*
X9618720Y-6686730D01*
X9587230Y-6676150D01*
G01X9902190Y-7004230D02*
X9894310Y-6998940D01*
Y-6988360D01*
X9902190Y-6983070D01*
X9910070Y-6988360D01*
Y-6998940D01*
X9902190Y-7004230D01*
G01X10217150Y-6676150D02*
X10185650Y-6686730D01*
X10162030Y-6713190D01*
X10146280Y-6744940D01*
X10134470Y-6787280D01*
X10130540Y-6834900D01*
X10134470Y-6882530D01*
X10146280Y-6924860D01*
X10162030Y-6956620D01*
X10185650Y-6983070D01*
X10217150Y-6993650D01*
X10248640Y-6983070D01*
X10272270Y-6956620D01*
X10288020Y-6924860D01*
X10299830Y-6882530D01*
X10303760Y-6834900D01*
X10299830Y-6787280D01*
X10288020Y-6744940D01*
X10272270Y-6713190D01*
X10248640Y-6686730D01*
X10217150Y-6676150D01*
G01X7654160Y-6252820D02*
X7748650D01*
G01X7697470Y-6184020D02*
Y-6321620D01*
G01X8012430Y-6041150D02*
X7980930Y-6051730D01*
X7957310Y-6078190D01*
X7941560Y-6109940D01*
X7929750Y-6152280D01*
X7925820Y-6199900D01*
X7929750Y-6247530D01*
X7941560Y-6289860D01*
X7957310Y-6321620D01*
X7980930Y-6348070D01*
X8012430Y-6358650D01*
X8043920Y-6348070D01*
X8067550Y-6321620D01*
X8083300Y-6289860D01*
X8095110Y-6247530D01*
X8099040Y-6199900D01*
X8095110Y-6152280D01*
X8083300Y-6109940D01*
X8067550Y-6078190D01*
X8043920Y-6051730D01*
X8012430Y-6041150D01*
G01X8327390Y-6369230D02*
X8319510Y-6363940D01*
Y-6353360D01*
X8327390Y-6348070D01*
X8335270Y-6353360D01*
Y-6363940D01*
X8327390Y-6369230D01*
G01X8642350Y-6041150D02*
X8610850Y-6051730D01*
X8587230Y-6078190D01*
X8571480Y-6109940D01*
X8559670Y-6152280D01*
X8555740Y-6199900D01*
X8559670Y-6247530D01*
X8571480Y-6289860D01*
X8587230Y-6321620D01*
X8610850Y-6348070D01*
X8642350Y-6358650D01*
X8673840Y-6348070D01*
X8697470Y-6321620D01*
X8713220Y-6289860D01*
X8725030Y-6247530D01*
X8728960Y-6199900D01*
X8725030Y-6152280D01*
X8713220Y-6109940D01*
X8697470Y-6078190D01*
X8673840Y-6051730D01*
X8642350Y-6041150D01*
G01X8886440Y-6369230D02*
X9028180Y-6041150D01*
G01X9221090Y-6252820D02*
X9323450D01*
G01X9587230Y-6041150D02*
X9555730Y-6051730D01*
X9532110Y-6078190D01*
X9516360Y-6109940D01*
X9504550Y-6152280D01*
X9500620Y-6199900D01*
X9504550Y-6247530D01*
X9516360Y-6289860D01*
X9532110Y-6321620D01*
X9555730Y-6348070D01*
X9587230Y-6358650D01*
X9618720Y-6348070D01*
X9642350Y-6321620D01*
X9658100Y-6289860D01*
X9669910Y-6247530D01*
X9673840Y-6199900D01*
X9669910Y-6152280D01*
X9658100Y-6109940D01*
X9642350Y-6078190D01*
X9618720Y-6051730D01*
X9587230Y-6041150D01*
G01X9902190Y-6369230D02*
X9894310Y-6363940D01*
Y-6353360D01*
X9902190Y-6348070D01*
X9910070Y-6353360D01*
Y-6363940D01*
X9902190Y-6369230D01*
G01X10217150Y-6041150D02*
X10185650Y-6051730D01*
X10162030Y-6078190D01*
X10146280Y-6109940D01*
X10134470Y-6152280D01*
X10130540Y-6199900D01*
X10134470Y-6247530D01*
X10146280Y-6289860D01*
X10162030Y-6321620D01*
X10185650Y-6348070D01*
X10217150Y-6358650D01*
X10248640Y-6348070D01*
X10272270Y-6321620D01*
X10288020Y-6289860D01*
X10299830Y-6247530D01*
X10303760Y-6199900D01*
X10299830Y-6152280D01*
X10288020Y-6109940D01*
X10272270Y-6078190D01*
X10248640Y-6051730D01*
X10217150Y-6041150D01*
G01X7654160Y-5617820D02*
X7748650D01*
G01X7697470Y-5549020D02*
Y-5686620D01*
G01X8012430Y-5406150D02*
X7980930Y-5416730D01*
X7957310Y-5443190D01*
X7941560Y-5474940D01*
X7929750Y-5517280D01*
X7925820Y-5564900D01*
X7929750Y-5612530D01*
X7941560Y-5654860D01*
X7957310Y-5686620D01*
X7980930Y-5713070D01*
X8012430Y-5723650D01*
X8043920Y-5713070D01*
X8067550Y-5686620D01*
X8083300Y-5654860D01*
X8095110Y-5612530D01*
X8099040Y-5564900D01*
X8095110Y-5517280D01*
X8083300Y-5474940D01*
X8067550Y-5443190D01*
X8043920Y-5416730D01*
X8012430Y-5406150D01*
G01X8327390Y-5734230D02*
X8319510Y-5728940D01*
Y-5718360D01*
X8327390Y-5713070D01*
X8335270Y-5718360D01*
Y-5728940D01*
X8327390Y-5734230D01*
G01X8642350Y-5406150D02*
X8610850Y-5416730D01*
X8587230Y-5443190D01*
X8571480Y-5474940D01*
X8559670Y-5517280D01*
X8555740Y-5564900D01*
X8559670Y-5612530D01*
X8571480Y-5654860D01*
X8587230Y-5686620D01*
X8610850Y-5713070D01*
X8642350Y-5723650D01*
X8673840Y-5713070D01*
X8697470Y-5686620D01*
X8713220Y-5654860D01*
X8725030Y-5612530D01*
X8728960Y-5564900D01*
X8725030Y-5517280D01*
X8713220Y-5474940D01*
X8697470Y-5443190D01*
X8673840Y-5416730D01*
X8642350Y-5406150D01*
G01X8886440Y-5734230D02*
X9028180Y-5406150D01*
G01X9221090Y-5617820D02*
X9323450D01*
G01X9587230Y-5406150D02*
X9555730Y-5416730D01*
X9532110Y-5443190D01*
X9516360Y-5474940D01*
X9504550Y-5517280D01*
X9500620Y-5564900D01*
X9504550Y-5612530D01*
X9516360Y-5654860D01*
X9532110Y-5686620D01*
X9555730Y-5713070D01*
X9587230Y-5723650D01*
X9618720Y-5713070D01*
X9642350Y-5686620D01*
X9658100Y-5654860D01*
X9669910Y-5612530D01*
X9673840Y-5564900D01*
X9669910Y-5517280D01*
X9658100Y-5474940D01*
X9642350Y-5443190D01*
X9618720Y-5416730D01*
X9587230Y-5406150D01*
G01X9902190Y-5734230D02*
X9894310Y-5728940D01*
Y-5718360D01*
X9902190Y-5713070D01*
X9910070Y-5718360D01*
Y-5728940D01*
X9902190Y-5734230D01*
G01X10217150Y-5406150D02*
X10185650Y-5416730D01*
X10162030Y-5443190D01*
X10146280Y-5474940D01*
X10134470Y-5517280D01*
X10130540Y-5564900D01*
X10134470Y-5612530D01*
X10146280Y-5654860D01*
X10162030Y-5686620D01*
X10185650Y-5713070D01*
X10217150Y-5723650D01*
X10248640Y-5713070D01*
X10272270Y-5686620D01*
X10288020Y-5654860D01*
X10299830Y-5612530D01*
X10303760Y-5564900D01*
X10299830Y-5517280D01*
X10288020Y-5474940D01*
X10272270Y-5443190D01*
X10248640Y-5416730D01*
X10217150Y-5406150D01*
G01X7654160Y-4982820D02*
X7748650D01*
G01X7697470Y-4914020D02*
Y-5051620D01*
G01X8012430Y-4771150D02*
X7980930Y-4781730D01*
X7957310Y-4808190D01*
X7941560Y-4839940D01*
X7929750Y-4882280D01*
X7925820Y-4929900D01*
X7929750Y-4977530D01*
X7941560Y-5019860D01*
X7957310Y-5051620D01*
X7980930Y-5078070D01*
X8012430Y-5088650D01*
X8043920Y-5078070D01*
X8067550Y-5051620D01*
X8083300Y-5019860D01*
X8095110Y-4977530D01*
X8099040Y-4929900D01*
X8095110Y-4882280D01*
X8083300Y-4839940D01*
X8067550Y-4808190D01*
X8043920Y-4781730D01*
X8012430Y-4771150D01*
G01X8327390Y-5099230D02*
X8319510Y-5093940D01*
Y-5083360D01*
X8327390Y-5078070D01*
X8335270Y-5083360D01*
Y-5093940D01*
X8327390Y-5099230D01*
G01X8642350Y-4771150D02*
X8610850Y-4781730D01*
X8587230Y-4808190D01*
X8571480Y-4839940D01*
X8559670Y-4882280D01*
X8555740Y-4929900D01*
X8559670Y-4977530D01*
X8571480Y-5019860D01*
X8587230Y-5051620D01*
X8610850Y-5078070D01*
X8642350Y-5088650D01*
X8673840Y-5078070D01*
X8697470Y-5051620D01*
X8713220Y-5019860D01*
X8725030Y-4977530D01*
X8728960Y-4929900D01*
X8725030Y-4882280D01*
X8713220Y-4839940D01*
X8697470Y-4808190D01*
X8673840Y-4781730D01*
X8642350Y-4771150D01*
G01X8886440Y-5099230D02*
X9028180Y-4771150D01*
G01X9221090Y-4982820D02*
X9323450D01*
G01X9587230Y-4771150D02*
X9555730Y-4781730D01*
X9532110Y-4808190D01*
X9516360Y-4839940D01*
X9504550Y-4882280D01*
X9500620Y-4929900D01*
X9504550Y-4977530D01*
X9516360Y-5019860D01*
X9532110Y-5051620D01*
X9555730Y-5078070D01*
X9587230Y-5088650D01*
X9618720Y-5078070D01*
X9642350Y-5051620D01*
X9658100Y-5019860D01*
X9669910Y-4977530D01*
X9673840Y-4929900D01*
X9669910Y-4882280D01*
X9658100Y-4839940D01*
X9642350Y-4808190D01*
X9618720Y-4781730D01*
X9587230Y-4771150D01*
G01X9902190Y-5099230D02*
X9894310Y-5093940D01*
Y-5083360D01*
X9902190Y-5078070D01*
X9910070Y-5083360D01*
Y-5093940D01*
X9902190Y-5099230D01*
G01X10217150Y-4771150D02*
X10185650Y-4781730D01*
X10162030Y-4808190D01*
X10146280Y-4839940D01*
X10134470Y-4882280D01*
X10130540Y-4929900D01*
X10134470Y-4977530D01*
X10146280Y-5019860D01*
X10162030Y-5051620D01*
X10185650Y-5078070D01*
X10217150Y-5088650D01*
X10248640Y-5078070D01*
X10272270Y-5051620D01*
X10288020Y-5019860D01*
X10299830Y-4977530D01*
X10303760Y-4929900D01*
X10299830Y-4882280D01*
X10288020Y-4839940D01*
X10272270Y-4808190D01*
X10248640Y-4781730D01*
X10217150Y-4771150D01*
G01X7654160Y-4347820D02*
X7748650D01*
G01X7697470Y-4279020D02*
Y-4416620D01*
G01X8012430Y-4136150D02*
X7980930Y-4146730D01*
X7957310Y-4173190D01*
X7941560Y-4204940D01*
X7929750Y-4247280D01*
X7925820Y-4294900D01*
X7929750Y-4342530D01*
X7941560Y-4384860D01*
X7957310Y-4416620D01*
X7980930Y-4443070D01*
X8012430Y-4453650D01*
X8043920Y-4443070D01*
X8067550Y-4416620D01*
X8083300Y-4384860D01*
X8095110Y-4342530D01*
X8099040Y-4294900D01*
X8095110Y-4247280D01*
X8083300Y-4204940D01*
X8067550Y-4173190D01*
X8043920Y-4146730D01*
X8012430Y-4136150D01*
G01X8327390Y-4464230D02*
X8319510Y-4458940D01*
Y-4448360D01*
X8327390Y-4443070D01*
X8335270Y-4448360D01*
Y-4458940D01*
X8327390Y-4464230D01*
G01X8642350Y-4136150D02*
X8610850Y-4146730D01*
X8587230Y-4173190D01*
X8571480Y-4204940D01*
X8559670Y-4247280D01*
X8555740Y-4294900D01*
X8559670Y-4342530D01*
X8571480Y-4384860D01*
X8587230Y-4416620D01*
X8610850Y-4443070D01*
X8642350Y-4453650D01*
X8673840Y-4443070D01*
X8697470Y-4416620D01*
X8713220Y-4384860D01*
X8725030Y-4342530D01*
X8728960Y-4294900D01*
X8725030Y-4247280D01*
X8713220Y-4204940D01*
X8697470Y-4173190D01*
X8673840Y-4146730D01*
X8642350Y-4136150D01*
G01X8886440Y-4464230D02*
X9028180Y-4136150D01*
G01X9221090Y-4347820D02*
X9323450D01*
G01X9587230Y-4136150D02*
X9555730Y-4146730D01*
X9532110Y-4173190D01*
X9516360Y-4204940D01*
X9504550Y-4247280D01*
X9500620Y-4294900D01*
X9504550Y-4342530D01*
X9516360Y-4384860D01*
X9532110Y-4416620D01*
X9555730Y-4443070D01*
X9587230Y-4453650D01*
X9618720Y-4443070D01*
X9642350Y-4416620D01*
X9658100Y-4384860D01*
X9669910Y-4342530D01*
X9673840Y-4294900D01*
X9669910Y-4247280D01*
X9658100Y-4204940D01*
X9642350Y-4173190D01*
X9618720Y-4146730D01*
X9587230Y-4136150D01*
G01X9902190Y-4464230D02*
X9894310Y-4458940D01*
Y-4448360D01*
X9902190Y-4443070D01*
X9910070Y-4448360D01*
Y-4458940D01*
X9902190Y-4464230D01*
G01X10217150Y-4136150D02*
X10185650Y-4146730D01*
X10162030Y-4173190D01*
X10146280Y-4204940D01*
X10134470Y-4247280D01*
X10130540Y-4294900D01*
X10134470Y-4342530D01*
X10146280Y-4384860D01*
X10162030Y-4416620D01*
X10185650Y-4443070D01*
X10217150Y-4453650D01*
X10248640Y-4443070D01*
X10272270Y-4416620D01*
X10288020Y-4384860D01*
X10299830Y-4342530D01*
X10303760Y-4294900D01*
X10299830Y-4247280D01*
X10288020Y-4204940D01*
X10272270Y-4173190D01*
X10248640Y-4146730D01*
X10217150Y-4136150D01*
G01X7654160Y-3712820D02*
X7748650D01*
G01X7697470Y-3644020D02*
Y-3781620D01*
G01X8012430Y-3501150D02*
X7980930Y-3511730D01*
X7957310Y-3538190D01*
X7941560Y-3569940D01*
X7929750Y-3612280D01*
X7925820Y-3659900D01*
X7929750Y-3707530D01*
X7941560Y-3749860D01*
X7957310Y-3781620D01*
X7980930Y-3808070D01*
X8012430Y-3818650D01*
X8043920Y-3808070D01*
X8067550Y-3781620D01*
X8083300Y-3749860D01*
X8095110Y-3707530D01*
X8099040Y-3659900D01*
X8095110Y-3612280D01*
X8083300Y-3569940D01*
X8067550Y-3538190D01*
X8043920Y-3511730D01*
X8012430Y-3501150D01*
G01X8327390Y-3829230D02*
X8319510Y-3823940D01*
Y-3813360D01*
X8327390Y-3808070D01*
X8335270Y-3813360D01*
Y-3823940D01*
X8327390Y-3829230D01*
G01X8642350Y-3501150D02*
X8610850Y-3511730D01*
X8587230Y-3538190D01*
X8571480Y-3569940D01*
X8559670Y-3612280D01*
X8555740Y-3659900D01*
X8559670Y-3707530D01*
X8571480Y-3749860D01*
X8587230Y-3781620D01*
X8610850Y-3808070D01*
X8642350Y-3818650D01*
X8673840Y-3808070D01*
X8697470Y-3781620D01*
X8713220Y-3749860D01*
X8725030Y-3707530D01*
X8728960Y-3659900D01*
X8725030Y-3612280D01*
X8713220Y-3569940D01*
X8697470Y-3538190D01*
X8673840Y-3511730D01*
X8642350Y-3501150D01*
G01X8886440Y-3829230D02*
X9028180Y-3501150D01*
G01X9221090Y-3712820D02*
X9323450D01*
G01X9587230Y-3501150D02*
X9555730Y-3511730D01*
X9532110Y-3538190D01*
X9516360Y-3569940D01*
X9504550Y-3612280D01*
X9500620Y-3659900D01*
X9504550Y-3707530D01*
X9516360Y-3749860D01*
X9532110Y-3781620D01*
X9555730Y-3808070D01*
X9587230Y-3818650D01*
X9618720Y-3808070D01*
X9642350Y-3781620D01*
X9658100Y-3749860D01*
X9669910Y-3707530D01*
X9673840Y-3659900D01*
X9669910Y-3612280D01*
X9658100Y-3569940D01*
X9642350Y-3538190D01*
X9618720Y-3511730D01*
X9587230Y-3501150D01*
G01X9902190Y-3829230D02*
X9894310Y-3823940D01*
Y-3813360D01*
X9902190Y-3808070D01*
X9910070Y-3813360D01*
Y-3823940D01*
X9902190Y-3829230D01*
G01X10217150Y-3501150D02*
X10185650Y-3511730D01*
X10162030Y-3538190D01*
X10146280Y-3569940D01*
X10134470Y-3612280D01*
X10130540Y-3659900D01*
X10134470Y-3707530D01*
X10146280Y-3749860D01*
X10162030Y-3781620D01*
X10185650Y-3808070D01*
X10217150Y-3818650D01*
X10248640Y-3808070D01*
X10272270Y-3781620D01*
X10288020Y-3749860D01*
X10299830Y-3707530D01*
X10303760Y-3659900D01*
X10299830Y-3612280D01*
X10288020Y-3569940D01*
X10272270Y-3538190D01*
X10248640Y-3511730D01*
X10217150Y-3501150D01*
G01X11516360Y-2072400D02*
Y-9057400D01*
G01X12414000Y-2548650D02*
Y-2231150D01*
X12492730D01*
X12524230Y-2247030D01*
X12547850Y-2268190D01*
X12567540Y-2299940D01*
X12583290Y-2336990D01*
X12587220Y-2389900D01*
X12583290Y-2442820D01*
X12567540Y-2479860D01*
X12547850Y-2511620D01*
X12524230Y-2532780D01*
X12492730Y-2548650D01*
X12414000D01*
G01X12736830D02*
Y-2231150D01*
X12835250D01*
X12866750Y-2247030D01*
X12886440Y-2268190D01*
X12894310Y-2310530D01*
X12886440Y-2352860D01*
X12862810Y-2379310D01*
X12835250Y-2395200D01*
X12736830D01*
G01X12835250D02*
X12894310Y-2548650D01*
G01X13083290Y-2231150D02*
X13177770D01*
G01X13130530D02*
Y-2548650D01*
G01X13083290D02*
X13177770D01*
G01X13366750Y-2231150D02*
Y-2548650D01*
X13524230D01*
G01X13681710Y-2231150D02*
Y-2548650D01*
X13839190D01*
G01X14154150D02*
X13996670D01*
Y-2231150D01*
X14154150D01*
G01X14091160Y-2384600D02*
X13996670D01*
G01X14303760Y-2548650D02*
Y-2231150D01*
X14382490D01*
X14413990Y-2247030D01*
X14437610Y-2268190D01*
X14457300Y-2299940D01*
X14473050Y-2336990D01*
X14476980Y-2389900D01*
X14473050Y-2442820D01*
X14457300Y-2479860D01*
X14437610Y-2511620D01*
X14413990Y-2532780D01*
X14382490Y-2548650D01*
X14303760D01*
G01X14587220Y-2654480D02*
X14823440D01*
G01X15020290Y-2231150D02*
Y-2548650D01*
G01X14929740Y-2231150D02*
X15110840D01*
G01X15335250Y-2548650D02*
X15303750Y-2543360D01*
X15276200Y-2522200D01*
X15252570Y-2490440D01*
X15236820Y-2453400D01*
X15228950Y-2411070D01*
Y-2368730D01*
X15236820Y-2326400D01*
X15252570Y-2289360D01*
X15276200Y-2257610D01*
X15303750Y-2236440D01*
X15335250Y-2231150D01*
X15366740Y-2236440D01*
X15394300Y-2257610D01*
X15417930Y-2289360D01*
X15433680Y-2326400D01*
X15441550Y-2368730D01*
Y-2411070D01*
X15433680Y-2453400D01*
X15417930Y-2490440D01*
X15394300Y-2522200D01*
X15366740Y-2543360D01*
X15335250Y-2548650D01*
G01X15571470Y-2231150D02*
Y-2548650D01*
X15728950D01*
G01X14024230Y-8792820D02*
X14126590D01*
G01X14024230Y-8157820D02*
X14126590D01*
G01X14024230Y-7522820D02*
X14126590D01*
G01X14024230Y-6887820D02*
X14126590D01*
G01X14024230Y-6252820D02*
X14126590D01*
G01X14024230Y-5617820D02*
X14126590D01*
G01X14024230Y-4982820D02*
X14126590D01*
G01X14024230Y-4347820D02*
X14126590D01*
G01X14024230Y-3712820D02*
X14126590D01*
G01X14024230Y-3077820D02*
X14126590D01*
G01X16634460Y-2072400D02*
Y-9057400D01*
G01X17382490Y-8898650D02*
Y-8581150D01*
X17476980D01*
X17508470Y-8597030D01*
X17532100Y-8634070D01*
X17539970Y-8676400D01*
X17532100Y-8718730D01*
X17512410Y-8750490D01*
X17476980Y-8766370D01*
X17382490D01*
G01X17697450Y-8581150D02*
Y-8898650D01*
X17854930D01*
G01X17992720D02*
X18091150Y-8581150D01*
X18189580Y-8898650D01*
G01X18154140Y-8787530D02*
X18028150D01*
G01X18406110Y-8581150D02*
Y-8898650D01*
G01X18315560Y-8581150D02*
X18496660D01*
G01X18799810Y-8898650D02*
X18642330D01*
Y-8581150D01*
X18799810D01*
G01X18736820Y-8734600D02*
X18642330D01*
G01X18949420Y-8898650D02*
Y-8581150D01*
X19028150D01*
X19059650Y-8597030D01*
X19083270Y-8618190D01*
X19102960Y-8649940D01*
X19118710Y-8686990D01*
X19122640Y-8739900D01*
X19118710Y-8792820D01*
X19102960Y-8829860D01*
X19083270Y-8861620D01*
X19059650Y-8882780D01*
X19028150Y-8898650D01*
X18949420D01*
G01X17382490Y-8263650D02*
Y-7946150D01*
X17476980D01*
X17508470Y-7962030D01*
X17532100Y-7999070D01*
X17539970Y-8041400D01*
X17532100Y-8083730D01*
X17512410Y-8115490D01*
X17476980Y-8131370D01*
X17382490D01*
G01X17697450Y-7946150D02*
Y-8263650D01*
X17854930D01*
G01X17992720D02*
X18091150Y-7946150D01*
X18189580Y-8263650D01*
G01X18154140Y-8152530D02*
X18028150D01*
G01X18406110Y-7946150D02*
Y-8263650D01*
G01X18315560Y-7946150D02*
X18496660D01*
G01X18799810Y-8263650D02*
X18642330D01*
Y-7946150D01*
X18799810D01*
G01X18736820Y-8099600D02*
X18642330D01*
G01X18949420Y-8263650D02*
Y-7946150D01*
X19028150D01*
X19059650Y-7962030D01*
X19083270Y-7983190D01*
X19102960Y-8014940D01*
X19118710Y-8051990D01*
X19122640Y-8104900D01*
X19118710Y-8157820D01*
X19102960Y-8194860D01*
X19083270Y-8226620D01*
X19059650Y-8247780D01*
X19028150Y-8263650D01*
X18949420D01*
G01X17382490Y-7628650D02*
Y-7311150D01*
X17476980D01*
X17508470Y-7327030D01*
X17532100Y-7364070D01*
X17539970Y-7406400D01*
X17532100Y-7448730D01*
X17512410Y-7480490D01*
X17476980Y-7496370D01*
X17382490D01*
G01X17697450Y-7311150D02*
Y-7628650D01*
X17854930D01*
G01X17992720D02*
X18091150Y-7311150D01*
X18189580Y-7628650D01*
G01X18154140Y-7517530D02*
X18028150D01*
G01X18406110Y-7311150D02*
Y-7628650D01*
G01X18315560Y-7311150D02*
X18496660D01*
G01X18799810Y-7628650D02*
X18642330D01*
Y-7311150D01*
X18799810D01*
G01X18736820Y-7464600D02*
X18642330D01*
G01X18949420Y-7628650D02*
Y-7311150D01*
X19028150D01*
X19059650Y-7327030D01*
X19083270Y-7348190D01*
X19102960Y-7379940D01*
X19118710Y-7416990D01*
X19122640Y-7469900D01*
X19118710Y-7522820D01*
X19102960Y-7559860D01*
X19083270Y-7591620D01*
X19059650Y-7612780D01*
X19028150Y-7628650D01*
X18949420D01*
G01X17382490Y-6993650D02*
Y-6676150D01*
X17476980D01*
X17508470Y-6692030D01*
X17532100Y-6729070D01*
X17539970Y-6771400D01*
X17532100Y-6813730D01*
X17512410Y-6845490D01*
X17476980Y-6861370D01*
X17382490D01*
G01X17697450Y-6676150D02*
Y-6993650D01*
X17854930D01*
G01X17992720D02*
X18091150Y-6676150D01*
X18189580Y-6993650D01*
G01X18154140Y-6882530D02*
X18028150D01*
G01X18406110Y-6676150D02*
Y-6993650D01*
G01X18315560Y-6676150D02*
X18496660D01*
G01X18799810Y-6993650D02*
X18642330D01*
Y-6676150D01*
X18799810D01*
G01X18736820Y-6829600D02*
X18642330D01*
G01X18949420Y-6993650D02*
Y-6676150D01*
X19028150D01*
X19059650Y-6692030D01*
X19083270Y-6713190D01*
X19102960Y-6744940D01*
X19118710Y-6781990D01*
X19122640Y-6834900D01*
X19118710Y-6887820D01*
X19102960Y-6924860D01*
X19083270Y-6956620D01*
X19059650Y-6977780D01*
X19028150Y-6993650D01*
X18949420D01*
G01X17382490Y-6358650D02*
Y-6041150D01*
X17476980D01*
X17508470Y-6057030D01*
X17532100Y-6094070D01*
X17539970Y-6136400D01*
X17532100Y-6178730D01*
X17512410Y-6210490D01*
X17476980Y-6226370D01*
X17382490D01*
G01X17697450Y-6041150D02*
Y-6358650D01*
X17854930D01*
G01X17992720D02*
X18091150Y-6041150D01*
X18189580Y-6358650D01*
G01X18154140Y-6247530D02*
X18028150D01*
G01X18406110Y-6041150D02*
Y-6358650D01*
G01X18315560Y-6041150D02*
X18496660D01*
G01X18799810Y-6358650D02*
X18642330D01*
Y-6041150D01*
X18799810D01*
G01X18736820Y-6194600D02*
X18642330D01*
G01X18949420Y-6358650D02*
Y-6041150D01*
X19028150D01*
X19059650Y-6057030D01*
X19083270Y-6078190D01*
X19102960Y-6109940D01*
X19118710Y-6146990D01*
X19122640Y-6199900D01*
X19118710Y-6252820D01*
X19102960Y-6289860D01*
X19083270Y-6321620D01*
X19059650Y-6342780D01*
X19028150Y-6358650D01*
X18949420D01*
G01X17382490Y-5723650D02*
Y-5406150D01*
X17476980D01*
X17508470Y-5422030D01*
X17532100Y-5459070D01*
X17539970Y-5501400D01*
X17532100Y-5543730D01*
X17512410Y-5575490D01*
X17476980Y-5591370D01*
X17382490D01*
G01X17697450Y-5406150D02*
Y-5723650D01*
X17854930D01*
G01X17992720D02*
X18091150Y-5406150D01*
X18189580Y-5723650D01*
G01X18154140Y-5612530D02*
X18028150D01*
G01X18406110Y-5406150D02*
Y-5723650D01*
G01X18315560Y-5406150D02*
X18496660D01*
G01X18799810Y-5723650D02*
X18642330D01*
Y-5406150D01*
X18799810D01*
G01X18736820Y-5559600D02*
X18642330D01*
G01X18949420Y-5723650D02*
Y-5406150D01*
X19028150D01*
X19059650Y-5422030D01*
X19083270Y-5443190D01*
X19102960Y-5474940D01*
X19118710Y-5511990D01*
X19122640Y-5564900D01*
X19118710Y-5617820D01*
X19102960Y-5654860D01*
X19083270Y-5686620D01*
X19059650Y-5707780D01*
X19028150Y-5723650D01*
X18949420D01*
G01X17382490Y-5088650D02*
Y-4771150D01*
X17476980D01*
X17508470Y-4787030D01*
X17532100Y-4824070D01*
X17539970Y-4866400D01*
X17532100Y-4908730D01*
X17512410Y-4940490D01*
X17476980Y-4956370D01*
X17382490D01*
G01X17697450Y-4771150D02*
Y-5088650D01*
X17854930D01*
G01X17992720D02*
X18091150Y-4771150D01*
X18189580Y-5088650D01*
G01X18154140Y-4977530D02*
X18028150D01*
G01X18406110Y-4771150D02*
Y-5088650D01*
G01X18315560Y-4771150D02*
X18496660D01*
G01X18799810Y-5088650D02*
X18642330D01*
Y-4771150D01*
X18799810D01*
G01X18736820Y-4924600D02*
X18642330D01*
G01X18949420Y-5088650D02*
Y-4771150D01*
X19028150D01*
X19059650Y-4787030D01*
X19083270Y-4808190D01*
X19102960Y-4839940D01*
X19118710Y-4876990D01*
X19122640Y-4929900D01*
X19118710Y-4982820D01*
X19102960Y-5019860D01*
X19083270Y-5051620D01*
X19059650Y-5072780D01*
X19028150Y-5088650D01*
X18949420D01*
G01X17382490Y-4453650D02*
Y-4136150D01*
X17476980D01*
X17508470Y-4152030D01*
X17532100Y-4189070D01*
X17539970Y-4231400D01*
X17532100Y-4273730D01*
X17512410Y-4305490D01*
X17476980Y-4321370D01*
X17382490D01*
G01X17697450Y-4136150D02*
Y-4453650D01*
X17854930D01*
G01X17992720D02*
X18091150Y-4136150D01*
X18189580Y-4453650D01*
G01X18154140Y-4342530D02*
X18028150D01*
G01X18406110Y-4136150D02*
Y-4453650D01*
G01X18315560Y-4136150D02*
X18496660D01*
G01X18799810Y-4453650D02*
X18642330D01*
Y-4136150D01*
X18799810D01*
G01X18736820Y-4289600D02*
X18642330D01*
G01X18949420Y-4453650D02*
Y-4136150D01*
X19028150D01*
X19059650Y-4152030D01*
X19083270Y-4173190D01*
X19102960Y-4204940D01*
X19118710Y-4241990D01*
X19122640Y-4294900D01*
X19118710Y-4347820D01*
X19102960Y-4384860D01*
X19083270Y-4416620D01*
X19059650Y-4437780D01*
X19028150Y-4453650D01*
X18949420D01*
G01X17382490Y-3818650D02*
Y-3501150D01*
X17476980D01*
X17508470Y-3517030D01*
X17532100Y-3554070D01*
X17539970Y-3596400D01*
X17532100Y-3638730D01*
X17512410Y-3670490D01*
X17476980Y-3686370D01*
X17382490D01*
G01X17697450Y-3501150D02*
Y-3818650D01*
X17854930D01*
G01X17992720D02*
X18091150Y-3501150D01*
X18189580Y-3818650D01*
G01X18154140Y-3707530D02*
X18028150D01*
G01X18406110Y-3501150D02*
Y-3818650D01*
G01X18315560Y-3501150D02*
X18496660D01*
G01X18799810Y-3818650D02*
X18642330D01*
Y-3501150D01*
X18799810D01*
G01X18736820Y-3654600D02*
X18642330D01*
G01X18949420Y-3818650D02*
Y-3501150D01*
X19028150D01*
X19059650Y-3517030D01*
X19083270Y-3538190D01*
X19102960Y-3569940D01*
X19118710Y-3606990D01*
X19122640Y-3659900D01*
X19118710Y-3712820D01*
X19102960Y-3749860D01*
X19083270Y-3781620D01*
X19059650Y-3802780D01*
X19028150Y-3818650D01*
X18949420D01*
G01X17382490Y-3183650D02*
Y-2866150D01*
X17476980D01*
X17508470Y-2882030D01*
X17532100Y-2919070D01*
X17539970Y-2961400D01*
X17532100Y-3003730D01*
X17512410Y-3035490D01*
X17476980Y-3051370D01*
X17382490D01*
G01X17697450Y-2866150D02*
Y-3183650D01*
X17854930D01*
G01X17992720D02*
X18091150Y-2866150D01*
X18189580Y-3183650D01*
G01X18154140Y-3072530D02*
X18028150D01*
G01X18406110Y-2866150D02*
Y-3183650D01*
G01X18315560Y-2866150D02*
X18496660D01*
G01X18799810Y-3183650D02*
X18642330D01*
Y-2866150D01*
X18799810D01*
G01X18736820Y-3019600D02*
X18642330D01*
G01X18949420Y-3183650D02*
Y-2866150D01*
X19028150D01*
X19059650Y-2882030D01*
X19083270Y-2903190D01*
X19102960Y-2934940D01*
X19118710Y-2971990D01*
X19122640Y-3024900D01*
X19118710Y-3077820D01*
X19102960Y-3114860D01*
X19083270Y-3146620D01*
X19059650Y-3167780D01*
X19028150Y-3183650D01*
X18949420D01*
G01X17382490Y-2548650D02*
Y-2231150D01*
X17476980D01*
X17508470Y-2247030D01*
X17532100Y-2284070D01*
X17539970Y-2326400D01*
X17532100Y-2368730D01*
X17512410Y-2400490D01*
X17476980Y-2416370D01*
X17382490D01*
G01X17697450Y-2231150D02*
Y-2548650D01*
X17854930D01*
G01X17992720D02*
X18091150Y-2231150D01*
X18189580Y-2548650D01*
G01X18154140Y-2437530D02*
X18028150D01*
G01X18406110Y-2231150D02*
Y-2548650D01*
G01X18315560Y-2231150D02*
X18496660D01*
G01X18799810Y-2548650D02*
X18642330D01*
Y-2231150D01*
X18799810D01*
G01X18736820Y-2384600D02*
X18642330D01*
G01X18949420Y-2548650D02*
Y-2231150D01*
X19028150D01*
X19059650Y-2247030D01*
X19083270Y-2268190D01*
X19102960Y-2299940D01*
X19118710Y-2336990D01*
X19122640Y-2389900D01*
X19118710Y-2442820D01*
X19102960Y-2479860D01*
X19083270Y-2511620D01*
X19059650Y-2532780D01*
X19028150Y-2548650D01*
X18949420D01*
G01X19862800Y-2072400D02*
Y-9057400D01*
G01X20374610Y-3183650D02*
Y-2866150D01*
X20327370Y-2929650D01*
G01Y-3183650D02*
X20421850D01*
G01X20736810D02*
Y-2866150D01*
X20591140Y-3093690D01*
X20788000D01*
G01X20917920Y-3120150D02*
X20941530Y-3157200D01*
X20973030Y-3178360D01*
X21008470Y-3183650D01*
X21039970Y-3178360D01*
X21071460Y-3151910D01*
X21091140Y-3120150D01*
X21095080Y-3088400D01*
X21087210Y-3051370D01*
X21059650Y-3024900D01*
X21032090Y-3014310D01*
X20996650D01*
G01X21032090D02*
X21055710Y-2998440D01*
X21075400Y-2971990D01*
X21083270Y-2940240D01*
X21075400Y-2908480D01*
X21055710Y-2882030D01*
X21020280Y-2866150D01*
X20984850Y-2871440D01*
X20949410Y-2892610D01*
G01X21319490Y-3183650D02*
Y-2866150D01*
X21272250Y-2929650D01*
G01Y-3183650D02*
X21366730D01*
G01X20602960Y-6295150D02*
X20626570Y-6332200D01*
X20658070Y-6353360D01*
X20693510Y-6358650D01*
X20725010Y-6353360D01*
X20756500Y-6326910D01*
X20776180Y-6295150D01*
X20780120Y-6263400D01*
X20772250Y-6226370D01*
X20744690Y-6199900D01*
X20717130Y-6189310D01*
X20681690D01*
G01X20717130D02*
X20740750Y-6173440D01*
X20760440Y-6146990D01*
X20768310Y-6115240D01*
X20760440Y-6083480D01*
X20740750Y-6057030D01*
X20705320Y-6041150D01*
X20669890Y-6046440D01*
X20634450Y-6067610D01*
G01X21004530Y-6041150D02*
X20973030Y-6051730D01*
X20949410Y-6078190D01*
X20933660Y-6109940D01*
X20921850Y-6152280D01*
X20917920Y-6199900D01*
X20921850Y-6247530D01*
X20933660Y-6289860D01*
X20949410Y-6321620D01*
X20973030Y-6348070D01*
X21004530Y-6358650D01*
X21036020Y-6348070D01*
X21059650Y-6321620D01*
X21075400Y-6289860D01*
X21087210Y-6247530D01*
X21091140Y-6199900D01*
X21087210Y-6152280D01*
X21075400Y-6109940D01*
X21059650Y-6078190D01*
X21036020Y-6051730D01*
X21004530Y-6041150D01*
G01X20689570Y-5723650D02*
X20717130Y-5718360D01*
X20748620Y-5702490D01*
X20768310Y-5676040D01*
X20776180Y-5638980D01*
X20768310Y-5601950D01*
X20744690Y-5570200D01*
X20709250Y-5554310D01*
X20669890D01*
X20646260Y-5543730D01*
X20626570Y-5517280D01*
X20618700Y-5480240D01*
X20630520Y-5443190D01*
X20658070Y-5416730D01*
X20689570Y-5406150D01*
X20721060Y-5416730D01*
X20748620Y-5443190D01*
X20760440Y-5480240D01*
X20752560Y-5517280D01*
X20732880Y-5543730D01*
X20709250Y-5554310D01*
X20669890D01*
X20634450Y-5570200D01*
X20610830Y-5601950D01*
X20602960Y-5638980D01*
X20610830Y-5676040D01*
X20630520Y-5702490D01*
X20662010Y-5718360D01*
X20689570Y-5723650D01*
G01X21051770D02*
Y-5406150D01*
X20906100Y-5633690D01*
X21102960D01*
G01X20736810Y-5088650D02*
Y-4771150D01*
X20591140Y-4998690D01*
X20788000D01*
G01X20929720Y-4824070D02*
X20953350Y-4792320D01*
X20980910Y-4776440D01*
X21012410Y-4771150D01*
X21051770Y-4781730D01*
X21079340Y-4808190D01*
X21087210Y-4839940D01*
X21083270Y-4871700D01*
X21067520Y-4898150D01*
X20988780Y-4951070D01*
X20953350Y-4988110D01*
X20929720Y-5041040D01*
X20921850Y-5088650D01*
X21087210D01*
G01X20689570Y-4453650D02*
Y-4136150D01*
X20642330Y-4199650D01*
G01Y-4453650D02*
X20736810D01*
G01X20929720Y-4321370D02*
X20957290Y-4284310D01*
X20980910Y-4263150D01*
X21012410Y-4252570D01*
X21039970Y-4263150D01*
X21059650Y-4284310D01*
X21075400Y-4316070D01*
X21079340Y-4353110D01*
X21075400Y-4384860D01*
X21059650Y-4416620D01*
X21036020Y-4443070D01*
X21008470Y-4453650D01*
X20976970Y-4443070D01*
X20949410Y-4411330D01*
X20933660Y-4363690D01*
X20929720Y-4310780D01*
X20937600Y-4241990D01*
X20949410Y-4204940D01*
X20969090Y-4167900D01*
X20996650Y-4141440D01*
X21024210Y-4136150D01*
X21051770Y-4146730D01*
X21071460Y-4173190D01*
G01X20689570Y-3818650D02*
Y-3501150D01*
X20642330Y-3564650D01*
G01Y-3818650D02*
X20736810D01*
G01X20929720Y-3686370D02*
X20957290Y-3649310D01*
X20980910Y-3628150D01*
X21012410Y-3617570D01*
X21039970Y-3628150D01*
X21059650Y-3649310D01*
X21075400Y-3681070D01*
X21079340Y-3718110D01*
X21075400Y-3749860D01*
X21059650Y-3781620D01*
X21036020Y-3808070D01*
X21008470Y-3818650D01*
X20976970Y-3808070D01*
X20949410Y-3776330D01*
X20933660Y-3728690D01*
X20929720Y-3675780D01*
X20937600Y-3606990D01*
X20949410Y-3569940D01*
X20969090Y-3532900D01*
X20996650Y-3506440D01*
X21024210Y-3501150D01*
X21051770Y-3511730D01*
X21071460Y-3538190D01*
G01X20532090Y-2548650D02*
X20500590Y-2543360D01*
X20473040Y-2522200D01*
X20449410Y-2490440D01*
X20433660Y-2453400D01*
X20425790Y-2411070D01*
Y-2368730D01*
X20433660Y-2326400D01*
X20449410Y-2289360D01*
X20473040Y-2257610D01*
X20500590Y-2236440D01*
X20532090Y-2231150D01*
X20563580Y-2236440D01*
X20591140Y-2257610D01*
X20614770Y-2289360D01*
X20630520Y-2326400D01*
X20638390Y-2368730D01*
Y-2411070D01*
X20630520Y-2453400D01*
X20614770Y-2490440D01*
X20591140Y-2522200D01*
X20563580Y-2543360D01*
X20532090Y-2548650D01*
G01X20563580Y-2463980D02*
X20610830Y-2548650D01*
G01X20847050Y-2231150D02*
Y-2548650D01*
G01X20756500Y-2231150D02*
X20937600D01*
G01X21162010Y-2548650D02*
Y-2405780D01*
X21083270Y-2231150D01*
G01X21240750D02*
X21162010Y-2405780D01*
G01X20894290Y-8898650D02*
Y-8581150D01*
X20748620Y-8808690D01*
X20945480D01*
G01X20772240Y-7999070D02*
X20795870Y-7967320D01*
X20823430Y-7951440D01*
X20854930Y-7946150D01*
X20894290Y-7956730D01*
X20921860Y-7983190D01*
X20929730Y-8014940D01*
X20925790Y-8046700D01*
X20910040Y-8073150D01*
X20831300Y-8126070D01*
X20795870Y-8163110D01*
X20772240Y-8216040D01*
X20764370Y-8263650D01*
X20929730D01*
G01X20847050Y-7628650D02*
Y-7311150D01*
X20799810Y-7374650D01*
G01Y-7628650D02*
X20894290D01*
G01X20847050Y-6993650D02*
X20874610Y-6988360D01*
X20906100Y-6972490D01*
X20925790Y-6946040D01*
X20933660Y-6908980D01*
X20925790Y-6871950D01*
X20902170Y-6840200D01*
X20866730Y-6824310D01*
X20827370D01*
X20803740Y-6813730D01*
X20784050Y-6787280D01*
X20776180Y-6750240D01*
X20788000Y-6713190D01*
X20815550Y-6686730D01*
X20847050Y-6676150D01*
X20878540Y-6686730D01*
X20906100Y-6713190D01*
X20917920Y-6750240D01*
X20910040Y-6787280D01*
X20890360Y-6813730D01*
X20866730Y-6824310D01*
X20827370D01*
X20791930Y-6840200D01*
X20768310Y-6871950D01*
X20760440Y-6908980D01*
X20768310Y-6946040D01*
X20788000Y-6972490D01*
X20819490Y-6988360D01*
X20847050Y-6993650D01*
G54D11*
X-4979670Y-8104900D03*
X9753600Y8610600D03*
Y9210600D03*
G54D12*
X-4979670Y-7469900D03*
X9288600Y8860600D03*
G54D13*
X-4979670Y-6834900D03*
X1270000Y635000D03*
X2286000D03*
X3302000D03*
X4318000D03*
X5334000D03*
X6350000D03*
X7366000D03*
X8382000D03*
G54D14*
X-4979670Y-6199900D03*
X3302000Y9144000D03*
Y9398000D03*
X3556000Y9144000D03*
Y9398000D03*
X3810000Y9144000D03*
Y9398000D03*
X4064000Y9144000D03*
Y9398000D03*
X4318000Y9144000D03*
Y9398000D03*
X4572000Y9144000D03*
Y9398000D03*
X4826000Y9144000D03*
Y9398000D03*
X5080000Y9144000D03*
Y9398000D03*
X5334000Y9144000D03*
Y9398000D03*
X5588000Y9144000D03*
Y9398000D03*
X5842000Y9144000D03*
Y9398000D03*
X6096000Y9144000D03*
Y9398000D03*
X6604000Y9144000D03*
X6350000D03*
X6604000Y9398000D03*
X6350000D03*
X6858000Y9144000D03*
Y9398000D03*
G54D15*
X-4979670Y-5564900D03*
X254000Y4064000D03*
Y4318000D03*
X508000Y2971800D03*
Y3225800D03*
Y4064000D03*
Y4318000D03*
Y5588000D03*
Y5842000D03*
Y6604000D03*
Y6858000D03*
X762000Y5588000D03*
Y5842000D03*
Y6604000D03*
Y6858000D03*
X1524000Y5588000D03*
Y5842000D03*
Y6604000D03*
Y6858000D03*
X1778000Y5588000D03*
Y5842000D03*
Y6604000D03*
Y6858000D03*
X2032000Y2971800D03*
Y3225800D03*
Y4064000D03*
Y4318000D03*
X2286000Y4064000D03*
Y4318000D03*
X2540000Y4064000D03*
Y4318000D03*
X2794000Y2971800D03*
Y3225800D03*
Y4064000D03*
Y4318000D03*
X4318000Y4064000D03*
Y4318000D03*
X4572000Y2971800D03*
Y3225800D03*
Y4064000D03*
Y4318000D03*
X4927600Y6477000D03*
X5181600D03*
X5334000Y2971800D03*
Y3225800D03*
Y4064000D03*
Y4318000D03*
X5588000Y4064000D03*
Y4318000D03*
X7112000Y2971800D03*
Y3225800D03*
Y4064000D03*
Y4318000D03*
X7366000Y4064000D03*
Y4318000D03*
X7620000Y2971800D03*
Y3225800D03*
Y4064000D03*
Y4318000D03*
X7874000Y4064000D03*
Y4318000D03*
X7950200Y9804400D03*
X8382000Y5588000D03*
Y5842000D03*
Y6604000D03*
Y6858000D03*
X8204200Y9804400D03*
X8636000Y5588000D03*
Y5842000D03*
Y6604000D03*
Y6858000D03*
X9398000Y2971800D03*
Y3225800D03*
Y4064000D03*
Y4318000D03*
Y5588000D03*
Y5842000D03*
Y6604000D03*
Y6858000D03*
X9652000Y4064000D03*
Y4318000D03*
Y5588000D03*
Y5842000D03*
Y6604000D03*
Y6858000D03*
G54D16*
X-4979670Y-4929900D03*
X254000Y3810000D03*
Y5588000D03*
Y5842000D03*
Y6604000D03*
Y6858000D03*
X508000Y2717800D03*
Y3810000D03*
X1270000Y5588000D03*
Y5842000D03*
Y6604000D03*
Y6858000D03*
X2032000Y2717800D03*
Y3810000D03*
X2286000D03*
X2540000D03*
X2794000Y2717800D03*
Y3810000D03*
X4318000D03*
X4572000Y2717800D03*
Y3810000D03*
X4673600Y6477000D03*
X5334000Y2717800D03*
Y3810000D03*
X5588000D03*
X7112000Y2717800D03*
Y3810000D03*
X7366000D03*
X7620000Y2717800D03*
Y3810000D03*
X7874000D03*
X8128000Y5588000D03*
Y5842000D03*
Y6604000D03*
Y6858000D03*
X8458200Y9804400D03*
X9144000Y5588000D03*
Y5842000D03*
Y6604000D03*
Y6858000D03*
X9398000Y2717800D03*
Y3810000D03*
X9652000D03*
G54D17*
X-4979670Y-4294900D03*
X1520000Y1524000D03*
X1778000Y1270000D03*
Y1524000D03*
X2033000D03*
X3552000D03*
X3810000Y1270000D03*
Y1524000D03*
X4065000D03*
X5584000D03*
X5842000Y1270000D03*
Y1524000D03*
X6097000D03*
X7616000D03*
X7874000Y1270000D03*
Y1524000D03*
X8129000D03*
G54D18*
X-4979670Y-3659900D03*
X2641600Y889000D03*
Y1143000D03*
X2895600Y889000D03*
Y1143000D03*
X4673600Y889000D03*
Y1143000D03*
X4927600Y889000D03*
Y1143000D03*
X6705600Y889000D03*
Y1143000D03*
X6959600Y889000D03*
Y1143000D03*
X8737600Y889000D03*
Y1143000D03*
X8991600Y889000D03*
Y1143000D03*
G54D19*
X-4979670Y-3024900D03*
X222200Y1066800D03*
Y1466800D03*
Y2209800D03*
Y2609800D03*
Y3149600D03*
Y3549600D03*
X177800Y8356600D03*
Y8756600D03*
Y9156600D03*
Y9556600D03*
X355600Y6121400D03*
Y6299200D03*
Y7137400D03*
Y7340600D03*
X622200Y1066800D03*
X711200Y2076400D03*
Y2476400D03*
Y2876400D03*
Y3276400D03*
X730200Y3587600D03*
X635000Y3454400D03*
Y3581400D03*
X685800Y3860800D03*
X660400Y4292600D03*
Y4419600D03*
Y4356100D03*
X552400Y4686200D03*
X609600Y4470400D03*
X552400Y5086200D03*
X609600Y6121400D03*
Y6299200D03*
Y7137400D03*
Y7340600D03*
X577800Y8356600D03*
Y8756600D03*
Y9156600D03*
Y9556600D03*
X914400Y158600D03*
X948790Y1797950D03*
X1019500Y1727240D03*
X919300Y1993500D03*
Y1893500D03*
Y2293500D03*
Y2193500D03*
Y2093500D03*
X852500Y2581410D03*
X893010Y2489980D03*
X919300Y2393500D03*
X852500Y2776260D03*
X875050Y2678840D03*
X919300Y3064000D03*
Y2964000D03*
X877850Y2873000D03*
X919300Y3364000D03*
Y3264000D03*
Y3164000D03*
Y3564000D03*
Y3464000D03*
Y3864000D03*
Y3764000D03*
Y3664000D03*
X812800Y3860800D03*
X889000Y4165600D03*
Y4089400D03*
X830400Y4224200D03*
X939800Y4419600D03*
X929500Y4622600D03*
X830400Y4513400D03*
Y4589600D03*
X929500Y4722600D03*
X993210Y4799670D03*
X984200Y5702200D03*
Y6102200D03*
X977800Y8001000D03*
Y8356600D03*
Y8756600D03*
Y9156600D03*
Y9556600D03*
X1219200Y863600D03*
X1092200D03*
X1219200Y1168400D03*
X1231630Y1515110D03*
X1192070Y1801590D03*
X1262780Y1730880D03*
X1090210Y1656530D03*
X1160920Y1585820D03*
X1093900Y2068460D03*
Y1968460D03*
X1121360Y1872300D03*
X1093900Y2268460D03*
Y2168460D03*
X1081030Y2567630D03*
X1093900Y2468460D03*
Y2368460D03*
X1093890Y2864000D03*
X1076970Y2765440D03*
X1093600Y2666830D03*
X1093900Y3064000D03*
Y2964000D03*
Y3364000D03*
Y3264000D03*
Y3164000D03*
Y3564000D03*
Y3464000D03*
Y3864000D03*
Y3764000D03*
Y3664000D03*
X1168400Y4292600D03*
Y4356100D03*
Y4419600D03*
X1104100Y4622600D03*
X1117600Y4470400D03*
X1063920Y4870390D03*
X1134640Y4941100D03*
X1151250Y4710790D03*
X1221960Y4781500D03*
X1205350Y5011810D03*
X1276060Y5082520D03*
X1066800Y5080000D03*
X1314400Y158600D03*
X1503500Y720300D03*
Y620300D03*
Y520300D03*
X1498600Y838200D03*
X1371600Y863600D03*
X1514480Y1232260D03*
X1302340Y1444400D03*
X1373050Y1373680D03*
X1443770Y1302970D03*
X1446100Y1784430D03*
X1485860Y1692680D03*
X1333490Y1660170D03*
X1404200Y1589460D03*
X1446100Y1984430D03*
Y1884430D03*
Y2284430D03*
Y2184430D03*
Y2084430D03*
Y2584430D03*
Y2484430D03*
Y2384430D03*
Y2684430D03*
X1447800Y2794000D03*
X1346200Y2844800D03*
X1295400Y2946400D03*
Y3073400D03*
Y3200400D03*
Y3327400D03*
X1446100Y3564000D03*
X1346200Y3454400D03*
X1446100Y3864000D03*
Y3664000D03*
X1447800Y3759200D03*
X1397000Y3937000D03*
Y4089400D03*
Y4165600D03*
X1338400Y4224200D03*
X1437500Y4622600D03*
X1338400Y4513400D03*
Y4589600D03*
X1447800Y4470400D03*
X1292670Y4852210D03*
X1363380Y4922920D03*
X1437500Y4722600D03*
X1486120Y4809980D03*
X1346770Y5153230D03*
X1417480Y5223940D03*
X1434090Y4993630D03*
X1504800Y5064340D03*
X1488190Y5294650D03*
X1371600Y6121400D03*
Y6299200D03*
Y7137400D03*
Y7340600D03*
X1377800Y8001000D03*
Y8356600D03*
Y8756600D03*
Y9156600D03*
Y9556600D03*
X1714400Y158600D03*
X1765200Y558800D03*
Y958800D03*
X1601330Y1182700D03*
X1701800Y1168400D03*
X1616330Y1377330D03*
X1701800Y1371600D03*
X1676400Y1447800D03*
X1654300Y1771160D03*
X1725010Y1700450D03*
X1620700Y2065340D03*
Y1965340D03*
Y1865340D03*
X1752600Y2076400D03*
X1620700Y2265340D03*
Y2165340D03*
Y2565340D03*
Y2465340D03*
Y2365340D03*
X1752600Y2476400D03*
X1614100Y2865130D03*
X1620700Y2765340D03*
Y2665340D03*
X1610590Y3065090D03*
X1611580Y2965100D03*
X1752600Y2876400D03*
X1617190Y3364060D03*
X1606430Y3264640D03*
X1614860Y3165000D03*
X1752600Y3276400D03*
X1620700Y3564000D03*
Y3464000D03*
Y3864000D03*
Y3664000D03*
X1752600Y3860800D03*
X1612100Y4622600D03*
X1556830Y4880690D03*
X1627540Y4951400D03*
X1641300Y4718240D03*
X1712010Y4788950D03*
X1575510Y5135050D03*
X1673940Y5152720D03*
X1773940D03*
X1722790Y4981880D03*
X1582700Y5327320D03*
X1682700D03*
X1782700D03*
X1625600Y6121400D03*
Y6299200D03*
Y7137400D03*
Y7340600D03*
X1777800Y8001000D03*
Y8356600D03*
Y8756600D03*
Y9156600D03*
Y9556600D03*
X2062300Y720300D03*
Y620300D03*
Y520300D03*
X1854200Y1168400D03*
Y1371600D03*
Y1447800D03*
Y1651000D03*
X1879600Y3302000D03*
X1905000Y3454400D03*
Y3581400D03*
X1879600Y3860800D03*
X1930400Y3987800D03*
Y4165600D03*
X1810320Y4807280D03*
X1910320D03*
X2010320D03*
X1873940Y5152720D03*
X1973940D03*
X1822790Y4981880D03*
X1922790D03*
X2022790D03*
X1882700Y5327320D03*
X1982700D03*
X1924000Y9759800D03*
X2114400Y158600D03*
X2082800Y838200D03*
X2209800Y863600D03*
X2152600Y1676400D03*
X2279600Y4591000D03*
X2110320Y4807280D03*
X2210320D03*
X2310320D03*
X2073940Y5152720D03*
X2173940D03*
X2273940D03*
X2122790Y4981880D03*
X2222790D03*
X2322790D03*
X2082700Y5327320D03*
X2182700D03*
X2282240Y5336870D03*
X2152600Y5702200D03*
Y6102200D03*
X2260600Y6908800D03*
X2108200Y7315200D03*
X2108000Y8001000D03*
Y8356600D03*
Y8756600D03*
Y9156600D03*
Y9556600D03*
X2311400Y9759800D03*
X2565400Y158600D03*
X2514600Y482600D03*
Y609600D03*
Y736600D03*
X2362200Y863600D03*
X2489200D03*
X2349400Y1092200D03*
Y1492200D03*
X2552600Y1676400D03*
Y2076400D03*
Y2476400D03*
X2410320Y4807280D03*
X2506610Y4834250D03*
X2577320Y4904960D03*
X2370610Y5178310D03*
X2421740Y4996300D03*
X2492450Y5067010D03*
X2563160Y5137720D03*
X2352960Y5407580D03*
X2423670Y5478290D03*
X2441320Y5249020D03*
X2512030Y5319730D03*
X2582740Y5390440D03*
X2494380Y5549000D03*
X2565090Y5619710D03*
X2508200Y5803800D03*
Y6203800D03*
X2489200Y7035800D03*
X2438400Y7264400D03*
X2514600Y7848600D03*
X2438400Y8128000D03*
Y8559800D03*
X2533600Y8737600D03*
Y9137600D03*
X2438400Y8991600D03*
X2463800Y9372600D03*
X2692400Y3454400D03*
Y3581400D03*
X2633870Y5208430D03*
X2648030Y4975670D03*
X2718740Y5046380D03*
X2789460Y5117090D03*
X2653450Y5461150D03*
X2704580Y5279150D03*
X2775290Y5349860D03*
X2846010Y5420570D03*
X2635800Y5690420D03*
X2724160Y5531860D03*
X2794870Y5602570D03*
X2706510Y5761130D03*
X2777220Y5831840D03*
X2847930Y5902550D03*
X2794000Y6273800D03*
Y6350000D03*
X2743200Y6604000D03*
X2667000D03*
X2743200Y6697800D03*
X2641600D03*
X2768600Y7069000D03*
X2692400Y7007900D03*
X2794000Y7162800D03*
X2819400Y7264400D03*
X2711400Y9759800D03*
X2965400Y158600D03*
X3009800Y1676400D03*
Y2076400D03*
Y2476400D03*
X3048000Y3048000D03*
Y3175000D03*
X3098800Y3860800D03*
X2895600Y4165600D03*
Y3962400D03*
X2946400Y4292600D03*
Y4356100D03*
Y4419600D03*
X3116400Y4224200D03*
X2895600Y4470400D03*
X3116400Y4513400D03*
Y4589600D03*
X2860170Y5187810D03*
X2990800Y4997400D03*
X2916720Y5491280D03*
X2930880Y5258520D03*
X3001590Y5329230D03*
X3072300Y5399940D03*
X2865580Y5673280D03*
X2936300Y5743990D03*
X2987430Y5561990D03*
X3058140Y5632700D03*
X3118180Y5712670D03*
X2918640Y5973260D03*
X3007010Y5814710D03*
X3077720Y5885420D03*
X3118180Y5812670D03*
X2970860Y6058540D03*
Y6158540D03*
X2870200Y6273800D03*
Y6350000D03*
X3098800D03*
X3048000Y6502400D03*
Y6400800D03*
X3098800Y6604000D03*
X3048000Y6705600D03*
Y6807200D03*
X2870200Y7069000D03*
Y7162800D03*
X2921000Y7848600D03*
X2933600Y8737600D03*
Y9137600D03*
X2971800Y9398000D03*
X3092400Y9759800D03*
X3365400Y158600D03*
X3124200Y431800D03*
X3251200D03*
X3276600Y863600D03*
X3149600D03*
X3276600Y1092200D03*
X3246250Y1471530D03*
X3316960Y1400820D03*
X3379900Y1765980D03*
Y1665980D03*
X3205300Y1762760D03*
Y1662760D03*
Y1562760D03*
X3379900Y2065980D03*
Y1965980D03*
Y1865980D03*
X3205300Y2062760D03*
Y1962760D03*
Y1862760D03*
X3379900Y2265980D03*
Y2165980D03*
X3205300Y2262760D03*
Y2162760D03*
X3379900Y2565980D03*
Y2465980D03*
Y2365980D03*
X3205300Y2562760D03*
Y2462760D03*
Y2362760D03*
X3379900Y2865980D03*
Y2765980D03*
Y2665980D03*
X3205300Y2862760D03*
Y2762760D03*
Y2662760D03*
X3364560Y3064800D03*
X3379900Y2965980D03*
X3149600Y2971800D03*
X3379900Y3364000D03*
Y3264000D03*
X3376820Y3164050D03*
X3205300Y3364000D03*
X3149600Y3251200D03*
X3379900Y3564000D03*
Y3464000D03*
X3205300Y3564000D03*
Y3464000D03*
X3379900Y3864000D03*
Y3764000D03*
Y3664000D03*
X3205300Y3864000D03*
Y3764000D03*
Y3664000D03*
X3175000Y4165600D03*
Y4089400D03*
X3225800Y4419600D03*
X3215500Y4556090D03*
Y4656090D03*
Y4960890D03*
Y4860890D03*
Y4760890D03*
X3315030Y5134370D03*
X3265450Y5047520D03*
X3143010Y5470650D03*
X3315130Y5422810D03*
X3348670Y5328610D03*
X3315210Y5234370D03*
X3213720Y5541360D03*
X3284430Y5612070D03*
X3352790Y5701750D03*
X3351400Y5516000D03*
X3145460Y5958970D03*
X3315030Y5894370D03*
X3315090Y5794370D03*
X3276600Y6019800D03*
X3127000Y6175000D03*
Y6098800D03*
X3327000Y6172600D03*
Y6096400D03*
X3302000Y6502400D03*
Y6400800D03*
X3200400Y6350000D03*
X3302000Y6604000D03*
X3200400D03*
X3302000Y6807200D03*
Y6705600D03*
Y7035800D03*
X3124200Y6858000D03*
X3225800D03*
X3378200D03*
X3302000Y7112000D03*
X3352800Y7188200D03*
X3251200D03*
X3327400Y7416800D03*
X3302000Y7797800D03*
X3327400Y8305800D03*
X3403600Y431800D03*
X3530600D03*
X3535500Y745700D03*
Y645700D03*
Y545700D03*
X3530600Y863600D03*
X3403600D03*
X3458380Y1259400D03*
X3529090Y1188680D03*
X3628920Y1182700D03*
X3611230Y1357300D03*
X3387670Y1330110D03*
X3397210Y1567490D03*
X3479800Y2565400D03*
X3556000Y2514600D03*
X3479800Y2667000D03*
Y2768600D03*
Y2870200D03*
X3530600Y2946400D03*
X3632200D03*
X3403600Y3987800D03*
X3454400Y4292600D03*
Y4356100D03*
Y4419600D03*
X3624400Y4224200D03*
X3390100Y4619330D03*
X3403600Y4470400D03*
X3624400Y4513400D03*
Y4589600D03*
X3390100Y4919330D03*
Y4819330D03*
Y4719330D03*
X3593960Y5188710D03*
X3493970Y5187640D03*
X3489630Y5087730D03*
X3457790Y4992940D03*
X3489630Y5994370D03*
Y5894370D03*
X3606800Y5842000D03*
X3477000Y6175000D03*
Y6098800D03*
X3638220Y6193620D03*
X3505200Y6350000D03*
X3403600D03*
X3556000Y6502400D03*
Y6400800D03*
X3403600Y6604000D03*
X3505200D03*
X3556000Y6807200D03*
Y6705600D03*
X3479800Y6858000D03*
X3581400Y7391400D03*
X3403600Y8559800D03*
X3632200Y8737600D03*
X3479800Y9759800D03*
X3765400Y158600D03*
X3797200Y533400D03*
Y933400D03*
X3728920Y1182700D03*
X3711230Y1357300D03*
X3897300Y1792810D03*
Y1692810D03*
Y1592810D03*
X3722700Y1796040D03*
Y1696040D03*
Y1596040D03*
X3897300Y1992810D03*
Y1892810D03*
X3722700Y1996040D03*
Y1896040D03*
X3897300Y2292810D03*
Y2192810D03*
Y2092810D03*
X3722700Y2296040D03*
Y2196040D03*
Y2096040D03*
X3860220Y2585710D03*
X3897220Y2492810D03*
X3897300Y2392810D03*
X3722700Y2396040D03*
X3657600Y2489200D03*
X3897220Y2864380D03*
X3860250Y2771470D03*
X3897300Y2678580D03*
Y3064380D03*
Y2964380D03*
X3722700Y3064440D03*
Y2964440D03*
X3897300Y3364380D03*
Y3264380D03*
Y3164380D03*
X3722700Y3364440D03*
Y3264440D03*
Y3164440D03*
X3897300Y3564380D03*
Y3464380D03*
X3722700Y3564440D03*
Y3464440D03*
X3905960Y3864000D03*
X3897300Y3764380D03*
Y3664380D03*
X3722700Y3864440D03*
Y3764440D03*
Y3664440D03*
X3708400Y3987800D03*
X3683000Y4165600D03*
Y4089400D03*
X3733800Y4419600D03*
X3723500Y4696380D03*
Y4596380D03*
X3901300Y4545580D03*
Y4645580D03*
X3898100Y4749660D03*
X3725800Y4896360D03*
X3723500Y4796380D03*
X3736900Y5193760D03*
X3727410Y5094210D03*
X3741200Y4995160D03*
X3681810Y5428030D03*
X3711510Y5332550D03*
X3681430Y5237170D03*
X3898100Y5491230D03*
X3711460Y5523530D03*
X3898100Y5691230D03*
Y5591230D03*
X3708400Y5664200D03*
X3815900Y5967180D03*
X3886610Y5896470D03*
X3708400Y5765800D03*
X3663620Y6119020D03*
X3745190Y6037890D03*
X3733800Y6273800D03*
X3810000D03*
X3733800Y6350000D03*
X3810000D03*
X3860800Y6604000D03*
Y6697800D03*
X3708400Y7162800D03*
X3784600D03*
X3708400Y7086600D03*
X3784600D03*
X3657600Y7899400D03*
X3784600Y8737600D03*
X3879800Y9759800D03*
X4114800Y431800D03*
X4094300Y745700D03*
Y645700D03*
Y545700D03*
X4089400Y863600D03*
X3911600Y1168400D03*
Y1371600D03*
X4108400Y1676400D03*
X4083000Y2076400D03*
Y2476400D03*
Y2876400D03*
X4137970Y4890700D03*
X4054990Y4834900D03*
X3955030Y4831870D03*
X4158520Y5185190D03*
X4141560Y5086640D03*
X4159730Y4988310D03*
X3997720Y5482470D03*
X4095860Y5463310D03*
X4156510Y5383790D03*
X4145740Y5284380D03*
X3911600Y5791200D03*
X3937000Y6604000D03*
Y6697800D03*
X4013200Y6553200D03*
X4102100Y6578600D03*
X4064000Y7035800D03*
X3937000Y7670800D03*
X4203600Y158600D03*
X4241800Y431800D03*
X4394200D03*
X4216400Y863600D03*
X4343400D03*
X4356000Y1066800D03*
Y1466800D03*
X4343400Y3632200D03*
X4368800Y4775200D03*
X4362400Y5219600D03*
Y5645000D03*
X4191000Y6019800D03*
X4292600Y6375400D03*
X4185000Y6607000D03*
X4267200Y6629400D03*
X4216400Y7416800D03*
X4191000Y8737600D03*
X4279800Y9759800D03*
X4603600Y158600D03*
X4546600Y482600D03*
Y609600D03*
Y736600D03*
X4470400Y863600D03*
X4565600Y1676400D03*
Y2076400D03*
X4470400Y3454400D03*
Y3581400D03*
X4622800Y6248400D03*
X4653280Y6101080D03*
X4514800Y6743600D03*
Y7143600D03*
X4572000Y7747000D03*
Y8229600D03*
Y8737600D03*
X4679800Y9759800D03*
X4724400Y4775200D03*
X4718000Y5219600D03*
Y5645000D03*
X4724400Y6248400D03*
X4754880Y6101080D03*
X4953000Y8712200D03*
X4978400Y158600D03*
X5207000Y406400D03*
Y863600D03*
X5073600Y1676400D03*
Y2076400D03*
Y2476400D03*
Y2876400D03*
Y3276600D03*
X5181600Y3454400D03*
Y3581400D03*
X5073600Y3676600D03*
Y4076600D03*
X5054600Y4394200D03*
Y4775200D03*
X5073600Y5219600D03*
Y5645000D03*
X5003800Y7416800D03*
X4978400Y7848600D03*
X5130800Y9759800D03*
X5378400Y158600D03*
X5359400Y406400D03*
Y863600D03*
X5410020Y1292430D03*
X5340680Y1364480D03*
Y1464480D03*
Y1564480D03*
Y1664480D03*
Y1764480D03*
Y1864480D03*
Y1964480D03*
X5362530Y2062070D03*
X5433240Y2132780D03*
X5276800Y5499000D03*
Y5899000D03*
X5384800Y7035800D03*
X5410200Y7670800D03*
X5334000Y7950200D03*
Y8255000D03*
Y8712200D03*
X5537200Y406400D03*
X5567500Y745700D03*
Y645700D03*
Y545700D03*
X5511800Y863600D03*
X5709560Y1278980D03*
X5609870Y1286840D03*
X5509870D03*
X5740400Y1168400D03*
X5715000Y1473200D03*
X5515280Y1654340D03*
Y1754340D03*
X5715000Y1600200D03*
X5515280Y1854340D03*
Y1954340D03*
X5578890Y2031510D03*
X5503950Y2203490D03*
X5574660Y2274200D03*
X5645370Y2344910D03*
X5649600Y2102220D03*
X5720310Y2172930D03*
X5716080Y2415620D03*
X5530800Y2876400D03*
Y3276600D03*
X5664200Y3962400D03*
Y4165600D03*
X5740400Y4292600D03*
Y4356100D03*
Y4419600D03*
X5689600Y4470400D03*
X5690670Y4957320D03*
X5687470Y5152440D03*
X5667170Y5054520D03*
X5721580Y5335030D03*
X5668090Y5250540D03*
X5638800Y6731000D03*
X5740400D03*
X5664200Y7467600D03*
X5734000Y8001000D03*
Y8401000D03*
X5530800Y9759800D03*
X5778400Y158600D03*
X5829200Y584200D03*
X5943600Y1168400D03*
Y1371600D03*
X5929770Y1808340D03*
X5929300Y1708350D03*
Y1608350D03*
X5754700Y1791970D03*
Y1691970D03*
X6000480Y1879060D03*
X5907260Y2032760D03*
X5836550Y1962050D03*
X5765840Y1891340D03*
X5791020Y2243640D03*
X5861730Y2314350D03*
X5977970Y2103470D03*
X5786790Y2486330D03*
X5857500Y2557040D03*
X5932440Y2385060D03*
X6003150Y2455770D03*
X5928210Y2627750D03*
X5998920Y2698470D03*
X5999300Y2798460D03*
Y2898460D03*
Y2998460D03*
Y3098460D03*
Y3198460D03*
Y3298460D03*
Y3398460D03*
Y3498460D03*
Y3598460D03*
Y3698460D03*
Y3798460D03*
X5892800Y3835400D03*
X5791200D03*
X5969000Y4165600D03*
Y4089400D03*
X5910400Y4224200D03*
Y4513400D03*
Y4589600D03*
X5774640Y4903010D03*
X5874600Y4900470D03*
X5974600D03*
X5918240Y5360670D03*
X5818240D03*
X5829300Y6731000D03*
X5918200D03*
X5842000Y8763000D03*
X5930800Y9759800D03*
X6178400Y158600D03*
X6248400Y889000D03*
X6141900Y2020480D03*
X6071190Y1949770D03*
X6212610Y2091190D03*
X6190110Y2315610D03*
X6119400Y2244900D03*
X6048680Y2174190D03*
X6073860Y2526480D03*
X6144570Y2597190D03*
X6260820Y2386320D03*
X6173900Y2692790D03*
Y2792790D03*
Y2892790D03*
Y2992790D03*
Y3092790D03*
Y3192790D03*
Y3292790D03*
Y3392790D03*
Y3492790D03*
Y3592790D03*
Y3692790D03*
Y3792790D03*
X6197600Y3886200D03*
X6248400Y4292600D03*
Y4356100D03*
Y4419600D03*
X6019800D03*
X6184100Y4696660D03*
Y4596660D03*
X6009500Y4706760D03*
X6197600Y4470400D03*
X6184100Y4896660D03*
Y4796660D03*
X6009500Y4806760D03*
X6167740Y5194960D03*
X6179500Y5095650D03*
X6172040Y4995930D03*
X6240260Y5476720D03*
X6184100Y5393990D03*
X6181380Y5294020D03*
X6009500Y5401560D03*
X6229960Y5713340D03*
X6159250Y5642630D03*
X6088540Y5571920D03*
X6017830Y5501210D03*
X6205220Y6057900D03*
X6207580Y6611800D03*
X6205400Y6697800D03*
X6248400Y7016440D03*
X6146800Y7112000D03*
Y7696200D03*
X6134000Y8001000D03*
Y8401000D03*
X6400800Y889000D03*
X6527800D03*
X6400800Y1168400D03*
X6527800Y2057400D03*
X6424740Y2303320D03*
X6354030Y2232610D03*
X6283320Y2161900D03*
X6495450Y2374030D03*
X6472950Y2598450D03*
X6402240Y2527740D03*
X6331530Y2457030D03*
X6526100Y2783150D03*
Y2683150D03*
X6358140Y3088650D03*
X6448940Y3046770D03*
X6526100Y2983150D03*
Y2883150D03*
X6321200Y3367300D03*
X6358230Y3274410D03*
X6321120Y3181550D03*
X6526100Y3564000D03*
X6444440Y3506280D03*
X6355090Y3461380D03*
X6526100Y3664000D03*
X6483680Y3972000D03*
X6477000Y4089400D03*
Y4165600D03*
X6418400Y4224200D03*
X6527800Y4419600D03*
X6517500Y4649560D03*
X6418400Y4513400D03*
Y4589600D03*
X6522750Y4948280D03*
X6520630Y4749510D03*
X6517500Y5147520D03*
X6528470Y5048120D03*
X6517500Y5447520D03*
Y5347520D03*
Y5247520D03*
X6452400Y5688860D03*
X6381690Y5618150D03*
X6310980Y5547430D03*
X6517500Y5747520D03*
Y5647520D03*
Y5547520D03*
X6512800Y5996180D03*
X6442090Y5925470D03*
X6371380Y5854760D03*
X6300670Y5784050D03*
X6521780Y6195780D03*
Y6095780D03*
X6426200Y6350000D03*
X6350000D03*
X6426200Y6286500D03*
X6350000D03*
X6289220Y6611800D03*
X6284140Y6697800D03*
X6461940Y7069000D03*
X6398440D03*
X6456860Y7155000D03*
X6393360D03*
X6324600Y7340600D03*
X6502400Y7696200D03*
X6350000Y8686800D03*
X6330800Y9759800D03*
X6629400Y158600D03*
X6553200Y508000D03*
Y685800D03*
X6700700Y2592430D03*
X6636870Y2515450D03*
X6566160Y2444740D03*
X6700700Y2792430D03*
Y2692430D03*
X6700560Y3092430D03*
X6700700Y2992430D03*
Y2892430D03*
X6661490Y3371990D03*
X6700660Y3279980D03*
X6665880Y3186230D03*
X6700700Y3564000D03*
X6700660Y3464000D03*
X6700700Y3664000D03*
X6749120Y4680910D03*
X6692100Y4598760D03*
X6532710Y4848780D03*
X6692100Y5141280D03*
X6792100Y5141110D03*
X6692100Y5441280D03*
Y5341280D03*
Y5241280D03*
X6734260Y5731960D03*
X6692100Y5641280D03*
Y5541280D03*
X6671640Y5993760D03*
X6651240Y5895860D03*
X6580530Y5825150D03*
X6683000Y6175000D03*
Y6098800D03*
X6604000Y6502400D03*
Y6400800D03*
X6654800Y6350000D03*
X6756400D03*
Y6604000D03*
X6654800D03*
X6604000Y6807200D03*
Y6705600D03*
X6654800Y6858000D03*
X6756400D03*
X6783000Y7263200D03*
X6629400Y8407400D03*
Y8737600D03*
X6769000Y9759800D03*
X7029400Y158600D03*
X7035800Y1524000D03*
X6858000Y2057400D03*
X6959600Y3454400D03*
Y3581400D03*
X6858000Y3835400D03*
X6959600D03*
X7010400Y3987800D03*
Y4140200D03*
X6985000Y4267200D03*
X6945720Y4706780D03*
X6849120Y4680910D03*
X6979290Y4889470D03*
X6998960Y4791430D03*
X6892070Y5138620D03*
X6976150Y5084490D03*
X6999850Y4987340D03*
X6890920Y5696020D03*
X6961630Y5625310D03*
X7032340Y5554600D03*
X6804970Y5802670D03*
X7044360Y5993760D03*
Y5893760D03*
Y5793760D03*
X6869760Y5893760D03*
Y5793760D03*
X6832600Y5956300D03*
X6883000Y6172600D03*
Y6096400D03*
X7033000Y6175000D03*
Y6098800D03*
X6858000Y6502400D03*
Y6400800D03*
X6934200Y6350000D03*
X7035800D03*
X6858000Y6604000D03*
X6959600D03*
X6858000Y6705600D03*
Y6807200D03*
X6858400Y7035400D03*
X6934200Y6858000D03*
X7035800D03*
X6858400Y7111600D03*
X6934200Y7264400D03*
X6858000Y7696200D03*
X6985000Y8001000D03*
Y8407400D03*
Y8737600D03*
X7188200Y457200D03*
X7162800Y762000D03*
Y584200D03*
X7239000Y863600D03*
Y1041400D03*
Y1320800D03*
X7264400Y5207000D03*
X7246520Y5067840D03*
X7302770Y4985160D03*
X7103050Y5483890D03*
X7173760Y5413180D03*
X7244470Y5342470D03*
X7112910Y5720950D03*
X7183620Y5650240D03*
X7254330Y5579530D03*
X7269880Y5687660D03*
X7210300Y5994160D03*
X7281010Y5923450D03*
X7128460Y5829080D03*
X7199170Y5758370D03*
X7196760Y6193240D03*
Y6093240D03*
X7315200Y6273800D03*
Y6350000D03*
X7112000Y6502400D03*
Y6400800D03*
X7061200Y6604000D03*
X7112000Y6807200D03*
Y6705600D03*
X7259140Y7069000D03*
X7259500Y7155000D03*
X7169000Y9759800D03*
X7302400Y9912200D03*
X7429400Y158600D03*
X7543800Y457200D03*
X7518400Y863600D03*
X7391400D03*
X7577590Y1209270D03*
X7506880Y1279980D03*
X7416800Y1066800D03*
X7436170Y1350690D03*
X7365460Y1421400D03*
X7321880Y1511400D03*
Y1611400D03*
Y1711400D03*
Y1811400D03*
X7496480Y1594420D03*
Y1694420D03*
Y1794420D03*
X7321880Y1911400D03*
Y2011400D03*
X7496480Y1894420D03*
Y1994420D03*
X7321880Y2111400D03*
X7341300Y2209500D03*
X7412010Y2280210D03*
X7496480Y2094420D03*
X7554550Y2175830D03*
X7482720Y2350920D03*
X7553430Y2421630D03*
X7359600Y2946400D03*
Y3346400D03*
X7467600Y3454400D03*
Y3581400D03*
X7359600Y4616400D03*
X7383080Y4925580D03*
X7444060Y4846310D03*
X7520600Y4781970D03*
X7395750Y5438110D03*
X7462480Y5363630D03*
X7529460Y5289370D03*
X7482020Y5475520D03*
X7561160Y5414400D03*
X7325040Y5508820D03*
X7493140Y5711320D03*
X7563850Y5640610D03*
X7340590Y5616950D03*
X7411300Y5546230D03*
X7351720Y5852740D03*
X7422430Y5782030D03*
X7569200Y5918200D03*
Y6223000D03*
X7391400Y6273800D03*
Y6350000D03*
X7434400Y6611800D03*
X7515680D03*
X7429680Y6697800D03*
X7515680D03*
X7322640Y7069000D03*
X7416800Y7010400D03*
X7323000Y7155000D03*
X7340600Y7696200D03*
Y8001000D03*
X7416800Y9575800D03*
X7493000D03*
X7829400Y158600D03*
X7599500Y745700D03*
Y645700D03*
Y545700D03*
X7774000Y1182700D03*
X7674000D03*
X7774000Y1357300D03*
X7674030Y1359750D03*
X7786700Y1732600D03*
Y1632600D03*
X7832260Y1821620D03*
X7625260Y2246540D03*
X7695970Y2317250D03*
X7624140Y2492340D03*
X7694850Y2563050D03*
X7766680Y2387960D03*
X7837390Y2458670D03*
X7765560Y2633760D03*
X7836270Y2704470D03*
X7613600Y4616400D03*
X7620000Y4826000D03*
X7747000Y4851400D03*
X7601560Y5220080D03*
X7673410Y5150530D03*
X7740060Y5075980D03*
X7764460Y5196610D03*
X7833380Y5124160D03*
X7625600Y5337930D03*
X7704780Y5276860D03*
X7663570Y5648120D03*
X7762310Y5663980D03*
X7823200Y6883400D03*
X7645400Y7137400D03*
X7696200Y7696200D03*
Y9271000D03*
X7620400Y9346800D03*
X7702400Y9912200D03*
X7861200Y609600D03*
X7848600Y939800D03*
X7975600Y1397000D03*
X8021310Y1763750D03*
X7961300Y1683760D03*
Y1583760D03*
X8092020Y1834460D03*
X8044390Y2033750D03*
X7973680Y1963040D03*
X7902970Y1892330D03*
X7908100Y2529380D03*
X7978810Y2600090D03*
X7906980Y2775180D03*
X7977690Y2845890D03*
X8049520Y2670800D03*
X8048400Y2916610D03*
X8026400Y3048000D03*
Y3302000D03*
X8077200Y3835400D03*
X7975600Y3962400D03*
Y4165600D03*
X8026400Y4292600D03*
Y4419600D03*
Y4356100D03*
X8010670Y4703270D03*
X8081380Y4632560D03*
X7975600Y4470400D03*
X7869250Y4844690D03*
X7939960Y4773980D03*
X8045510Y4912030D03*
X8002240Y5202220D03*
X8072950Y5131510D03*
X7904090Y5053450D03*
X7974800Y4982740D03*
X7983710Y5466120D03*
X7998870Y5367270D03*
X7944120Y5283590D03*
X7844830Y5607500D03*
X7904660Y5527370D03*
X7848600Y5918200D03*
Y6223000D03*
X8026400Y7696200D03*
Y8001000D03*
X8267600Y158600D03*
X8280400Y863600D03*
X8356600Y1473200D03*
X8304160Y2046600D03*
X8233450Y1975890D03*
X8162740Y1905170D03*
X8356600Y1879600D03*
X8327230Y2316600D03*
X8256520Y2245880D03*
X8185810Y2175170D03*
X8115100Y2104460D03*
X8120240Y2741510D03*
X8190950Y2812230D03*
X8119110Y2987320D03*
X8189830Y3058030D03*
X8260540Y3128740D03*
X8261660Y2882940D03*
X8332370Y2953650D03*
X8285300Y3225620D03*
Y3325620D03*
Y3425620D03*
Y3525620D03*
Y3625620D03*
Y3725620D03*
Y3825620D03*
X8178800Y3835400D03*
X8255000Y4165600D03*
Y4089400D03*
X8196400Y4224200D03*
X8280400Y4445000D03*
X8257640Y4699900D03*
X8328350Y4629190D03*
X8196400Y4513400D03*
X8128000D03*
X8285080Y4919380D03*
X8355790Y4848670D03*
X8116220Y4841320D03*
X8186930Y4770610D03*
X8143660Y5060800D03*
X8214370Y4990090D03*
X8229600Y6121400D03*
Y6299200D03*
Y7315200D03*
Y7137400D03*
X8356600Y7696200D03*
Y8001000D03*
X8331200Y9169400D03*
X8280400Y9118600D03*
X8585200Y711200D03*
Y533400D03*
X8432800Y863600D03*
X8585200Y1828800D03*
X8587000Y2329440D03*
X8516290Y2258730D03*
X8445580Y2188020D03*
X8374870Y2117310D03*
X8610080Y2599440D03*
X8539370Y2528730D03*
X8468660Y2458020D03*
X8397950Y2387310D03*
X8403080Y3024360D03*
X8459900Y3106650D03*
Y3206650D03*
Y3306650D03*
X8602790Y3344840D03*
X8459900Y3406650D03*
Y3506650D03*
Y3606650D03*
X8567270Y3527170D03*
X8548650Y3428920D03*
X8459900Y3706650D03*
Y3806650D03*
X8534400Y4292600D03*
Y4356100D03*
Y4419600D03*
X8401410Y4560900D03*
X8483600Y4470400D03*
X8426500Y4777960D03*
X8517040Y4735500D03*
X8617040D03*
X8509000Y5003800D03*
Y5308600D03*
X8483600Y6121400D03*
Y6299200D03*
Y7315200D03*
Y7137400D03*
X8432800Y8356600D03*
X8559800D03*
X8432800Y8229600D03*
X8559800D03*
X8432800Y8610600D03*
X8559800D03*
Y8483600D03*
X8432800D03*
X8509000Y9220200D03*
Y9296400D03*
X8667600Y158600D03*
X8686800Y1320800D03*
Y1549400D03*
X8890000Y1651000D03*
X8731200Y2279600D03*
X8799130Y2541570D03*
X8728420Y2470860D03*
X8657710Y2400150D03*
X8869840Y2612280D03*
X8812100Y2820410D03*
X8751500Y2740860D03*
X8680790Y2670150D03*
X8812100Y3120410D03*
Y3020410D03*
Y2920410D03*
Y3220410D03*
X8712200Y3302000D03*
X8648420Y3585600D03*
X8737600Y3606800D03*
X8812100Y3864000D03*
Y3764000D03*
Y3664000D03*
X8763000Y3962400D03*
Y4165600D03*
Y4089400D03*
X8704400Y4224200D03*
X8813800Y4394200D03*
X8790650Y4642410D03*
X8861360Y4571700D03*
X8704400Y4513400D03*
X8636000D03*
X8717040Y4710100D03*
X8788400Y5003800D03*
Y5308600D03*
X8661400Y7696200D03*
Y8001000D03*
X8686800Y8229600D03*
Y8356600D03*
Y8483600D03*
Y8610600D03*
X8839200Y9220200D03*
Y9296400D03*
Y9575800D03*
X8712200D03*
Y9702800D03*
X8839200D03*
Y9829800D03*
X8712200D03*
X9093200Y1397000D03*
X9131200Y1879600D03*
Y2279600D03*
X8986700Y2771710D03*
X8940550Y2682990D03*
X8986700Y3071710D03*
Y2971710D03*
Y2871710D03*
X8986150Y3371710D03*
X8986700Y3271710D03*
Y3171710D03*
Y3564000D03*
X8958930Y3467930D03*
X8986700Y3864000D03*
Y3764000D03*
Y3664000D03*
X9118600Y3860800D03*
X8932070Y4500990D03*
X9067800Y4775200D03*
X8985200Y5727600D03*
Y6127600D03*
X8909000Y6794400D03*
Y7194400D03*
X8966200Y7696200D03*
Y8001000D03*
Y9575800D03*
Y9829800D03*
Y9702800D03*
X9417000Y914400D03*
Y1314400D03*
X9194800Y2692400D03*
Y2997200D03*
X9220200Y3860800D03*
X9296400Y3962400D03*
X9398000Y4648200D03*
X9271000Y5257800D03*
X9245600Y6121400D03*
Y6299200D03*
Y7137400D03*
Y7315200D03*
X9601200Y1879600D03*
Y2184400D03*
Y2463800D03*
Y2768600D03*
Y3073400D03*
Y3378200D03*
X9550400Y3556000D03*
Y3632200D03*
X9525000Y5003800D03*
X9499600Y6121400D03*
Y6299200D03*
Y7137400D03*
Y7315200D03*
X9817000Y914400D03*
Y1314400D03*
X9925000Y1689000D03*
Y4857600D03*
Y5295800D03*
Y5695800D03*
Y6108600D03*
Y6508600D03*
Y6870600D03*
Y7270600D03*
M02*
