G04 ================== begin FILE IDENTIFICATION RECORD ==================*
G04 Layout Name:  C:/Jeonghyun/Lab/EEM2TTL7/allegro/eem2ttl.brd*
G04 Film Name:    L2*
G04 File Format:  Gerber RS274X*
G04 File Origin:  Cadence Allegro 23.1-S003*
G04 Origin Date:  Wed Aug 21 13:22:40 2024*
G04 *
G04 Layer:  ETCH/L2*
G04 Layer:  PIN/L2*
G04 Layer:  VIA CLASS/L2*
G04 *
G04 Offset:    (0.0000 0.0000)*
G04 Mirror:    No*
G04 Mode:      Positive*
G04 Rotation:  0*
G04 FullContactRelief:  No*
G04 UndefLineWidth:     0.0000*
G04 ================== end FILE IDENTIFICATION RECORD ====================*
%FSLAX25Y25*MOMM*%
%IR0*IPPOS*OFA0.00000B0.00000*MIA0B0*SFA1.00000B1.00000*%
%ADD10C,.508*%
%ADD15C,1.2*%
%ADD14C,3.*%
%ADD13C,5.*%
%ADD12C,1.5*%
%ADD20C,4.5*%
%ADD19C,3.8*%
%ADD18C,1.651*%
%ADD17R,1.651X1.651*%
%ADD16C,1.397*%
%ADD11R,1.778X1.778*%
%ADD21C,.127*%
%ADD26C,.7624*%
%ADD29C,4.0544*%
%ADD24C,1.6514*%
%ADD25C,1.4544*%
%ADD23C,3.2544*%
%ADD28C,1.9054*%
%ADD22C,5.2544*%
%ADD27C,1.7544*%
G75*
%LPD*%
G75*
G36*
G01X4391610Y3644900D02*
X9999990D01*
Y10D01*
X10D01*
Y3644900D01*
X4295190D01*
G02X4305330Y3634210I-5J-10159D01*
G03X4305280Y3632200I38071J-1953D01*
G03X4381520I38120J0D01*
G03X4381470Y3634210I-38121J57D01*
G02X4391610Y3644900I10145J531D01*
G37*
G36*
G01X8072140Y9999990D02*
X8310860D01*
Y9641650D01*
X8391970Y9560540D01*
X8677270D01*
G03X8747130I34930J15256D01*
G01X8804270D01*
G03X8839200Y9537680I34930J15256D01*
G03X8864750Y9547510I0J38120D01*
G01X8943320Y9468930D01*
Y8341170D01*
X9026970Y8257520D01*
X9334780D01*
G02X9339070Y8238150I-1J-10160D01*
G03X9187280Y8000000I110927J-238150D01*
G03X9712720I262720J0D01*
G03X9560930Y8238150I-262717J0D01*
G02X9565220Y8257520I4291J9210D01*
G01X9999990D01*
Y3660140D01*
X9576330D01*
G03X9524470I-25930J-27934D01*
G01X9024940D01*
X9024800Y3665080D01*
G03X8948600I-38100J-1075D01*
G01X8948460Y3660140D01*
X8850340D01*
X8850200Y3665080D01*
G03X8774000I-38100J-1075D01*
G01X8773860Y3660140D01*
X8491670D01*
G02X8484990Y3677950I4J10159D01*
G03X8498020Y3706650I-25092J28700D01*
G03X8421780I-38120J0D01*
G03X8434810Y3677950I38122J0D01*
G02X8428130Y3660140I-6684J-7651D01*
G01X8301510D01*
X8300530Y3660560D01*
G03X8285300Y3663740I-15242J-34938D01*
G03X8270070Y3660560I12J-38118D01*
G01X8269090Y3660140D01*
X6738940D01*
X6738800Y3665080D01*
G03X6662600I-38100J-1075D01*
G01X6662460Y3660140D01*
X6564340D01*
X6564200Y3665080D01*
G03X6488000I-38100J-1075D01*
G01X6487860Y3660140D01*
X6216620D01*
G02X6207630Y3675030I1J10160D01*
G03X6212020Y3692790I-33730J17760D01*
G03X6135780I-38120J0D01*
G03X6140170Y3675030I38120J0D01*
G02X6131180Y3660140I-8991J-4730D01*
G01X6038520D01*
G02X6030260Y3676230I-7J10162D01*
G03X6037420Y3698460I-30957J22239D01*
G03X5961180I-38120J0D01*
G03X5968340Y3676230I38117J9D01*
G02X5960080Y3660140I-8253J-5928D01*
G01X5121470D01*
G02X5111390Y3671630I-6J10161D01*
G03X5111720Y3676600I-37788J5005D01*
G03X5035480I-38120J0D01*
G03X5035810Y3671630I38118J35D01*
G02X5025730Y3660140I-10074J-1329D01*
G01X4369330D01*
G03X4317470I-25930J-27934D01*
G01X3935510D01*
X3935410Y3665120D01*
G03X3859190I-38110J-737D01*
G01X3859090Y3660140D01*
X3760900D01*
X3760810Y3665130D01*
G03X3684590I-38110J-686D01*
G01X3684500Y3660140D01*
X3418140D01*
X3418000Y3665080D01*
G03X3341800I-38100J-1075D01*
G01X3341660Y3660140D01*
X3243540D01*
X3243400Y3665080D01*
G03X3167200I-38100J-1075D01*
G01X3167060Y3660140D01*
X1658940D01*
X1658800Y3665080D01*
G03X1582600I-38100J-1075D01*
G01X1582460Y3660140D01*
X1484340D01*
X1484200Y3665080D01*
G03X1408000I-38100J-1075D01*
G01X1407860Y3660140D01*
X1132140D01*
X1132000Y3665080D01*
G03X1055800I-38100J-1075D01*
G01X1055660Y3660140D01*
X957540D01*
X957400Y3665080D01*
G03X881200I-38100J-1075D01*
G01X881060Y3660140D01*
X10D01*
Y9999990D01*
X6195040D01*
Y9454710D01*
G02X6176320Y9449240I-10159J-1D01*
G03X6096000Y9493270I-80320J-51245D01*
G03Y9302730I0J-95270D01*
G03X6176320Y9346760I0J95275D01*
G02X6195040Y9341290I8561J-5469D01*
G01Y9200710D01*
G02X6176320Y9195240I-10159J-1D01*
G03X6096000Y9239270I-80320J-51245D01*
G03Y9048730I0J-95270D01*
G03X6176320Y9092760I0J95275D01*
G02X6195040Y9087290I8561J-5469D01*
G01Y9049830D01*
X6334570Y8910300D01*
X7094410D01*
X7233940Y9049830D01*
Y9537510D01*
X7307770Y9611340D01*
X7970710D01*
X8072140Y9712770D01*
Y9999990D01*
G37*
G36*
G01X6207760Y9055100D02*
Y9999990D01*
X8059420D01*
Y9718040D01*
X7965440Y9624060D01*
X7302500D01*
X7221220Y9542780D01*
Y9055100D01*
X7089140Y8923020D01*
X6339840D01*
X6207760Y9055100D01*
G37*
G36*
G01X8323580Y9999990D02*
X9999990D01*
Y9285700D01*
G02X9980150Y9282620I-10159J0D01*
G03X9753600Y9448320I-226550J-72023D01*
G03Y8972880I0J-237720D01*
G03X9980150Y9138580I0J237723D01*
G02X9999990Y9135500I9681J-3080D01*
G01Y8685700D01*
G02X9980150Y8682620I-10159J0D01*
G03X9753600Y8848320I-226550J-72023D01*
G03Y8372880I0J-237720D01*
G03X9980150Y8538580I0J237723D01*
G02X9999990Y8535500I9681J-3080D01*
G01Y8270240D01*
X9032240D01*
X8956040Y8346440D01*
Y9474200D01*
X8872790Y9557450D01*
X8874170Y9560620D01*
G03X8877320Y9575800I-34971J15174D01*
G03X8839200Y9613920I-38120J0D01*
G03X8801150Y9578040I0J-38116D01*
G01X8800860Y9573260D01*
X8750540D01*
X8750250Y9578040D01*
G03X8674150I-38050J-2236D01*
G01X8673860Y9573260D01*
X8397240D01*
X8323580Y9646920D01*
Y9999990D01*
G37*
%LPC*%
G75*
G36*
G01X9296380Y2628900D02*
Y2806700D01*
G02X9309100Y2819420I12720J0D01*
G01X9486900D01*
G02X9499620Y2806700I0J-12720D01*
G01Y2628900D01*
G02X9486900Y2616180I-12720J0D01*
G01X9309100D01*
G02X9296380Y2628900I0J12720D01*
G37*
G36*
G01X7518380D02*
Y2806700D01*
G02X7531100Y2819420I12720J0D01*
G01X7708900D01*
G02X7721620Y2806700I0J-12720D01*
G01Y2628900D01*
G02X7708900Y2616180I-12720J0D01*
G01X7531100D01*
G02X7518380Y2628900I0J12720D01*
G37*
G36*
G01X7010380D02*
Y2806700D01*
G02X7023100Y2819420I12720J0D01*
G01X7200900D01*
G02X7213620Y2806700I0J-12720D01*
G01Y2628900D01*
G02X7200900Y2616180I-12720J0D01*
G01X7023100D01*
G02X7010380Y2628900I0J12720D01*
G37*
G36*
G01X5232380D02*
Y2806700D01*
G02X5245100Y2819420I12720J0D01*
G01X5422900D01*
G02X5435620Y2806700I0J-12720D01*
G01Y2628900D01*
G02X5422900Y2616180I-12720J0D01*
G01X5245100D01*
G02X5232380Y2628900I0J12720D01*
G37*
G36*
G01X4470380D02*
Y2806700D01*
G02X4483100Y2819420I12720J0D01*
G01X4660900D01*
G02X4673620Y2806700I0J-12720D01*
G01Y2628900D01*
G02X4660900Y2616180I-12720J0D01*
G01X4483100D01*
G02X4470380Y2628900I0J12720D01*
G37*
G36*
G01X2692380D02*
Y2806700D01*
G02X2705100Y2819420I12720J0D01*
G01X2882900D01*
G02X2895620Y2806700I0J-12720D01*
G01Y2628900D01*
G02X2882900Y2616180I-12720J0D01*
G01X2705100D01*
G02X2692380Y2628900I0J12720D01*
G37*
G36*
G01X1930380D02*
Y2806700D01*
G02X1943100Y2819420I12720J0D01*
G01X2120900D01*
G02X2133620Y2806700I0J-12720D01*
G01Y2628900D01*
G02X2120900Y2616180I-12720J0D01*
G01X1943100D01*
G02X1930380Y2628900I0J12720D01*
G37*
G36*
G01X406380D02*
Y2806700D01*
G02X419100Y2819420I12720J0D01*
G01X596900D01*
G02X609620Y2806700I0J-12720D01*
G01Y2628900D01*
G02X596900Y2616180I-12720J0D01*
G01X419100D01*
G02X406380Y2628900I0J12720D01*
G37*
G36*
G01X3206730Y9061450D02*
Y9226550D01*
G02X3219450Y9239270I12720J0D01*
G01X3384550D01*
G02X3397270Y9226550I0J-12720D01*
G01Y9061450D01*
G02X3384550Y9048730I-12720J0D01*
G01X3219450D01*
G02X3206730Y9061450I0J12720D01*
G37*
G36*
G01X9042380Y6769100D02*
Y6946900D01*
G02X9055100Y6959620I12720J0D01*
G01X9232900D01*
G02X9245620Y6946900I0J-12720D01*
G01Y6769100D01*
G02X9232900Y6756380I-12720J0D01*
G01X9055100D01*
G02X9042380Y6769100I0J12720D01*
G37*
G36*
G01X8026380D02*
Y6946900D01*
G02X8039100Y6959620I12720J0D01*
G01X8216900D01*
G02X8229620Y6946900I0J-12720D01*
G01Y6769100D01*
G02X8216900Y6756380I-12720J0D01*
G01X8039100D01*
G02X8026380Y6769100I0J12720D01*
G37*
G36*
G01X1168380D02*
Y6946900D01*
G02X1181100Y6959620I12720J0D01*
G01X1358900D01*
G02X1371620Y6946900I0J-12720D01*
G01Y6769100D01*
G02X1358900Y6756380I-12720J0D01*
G01X1181100D01*
G02X1168380Y6769100I0J12720D01*
G37*
G36*
G01X152380D02*
Y6946900D01*
G02X165100Y6959620I12720J0D01*
G01X342900D01*
G02X355620Y6946900I0J-12720D01*
G01Y6769100D01*
G02X342900Y6756380I-12720J0D01*
G01X165100D01*
G02X152380Y6769100I0J12720D01*
G37*
G36*
G01X9042380Y6515100D02*
Y6692900D01*
G02X9055100Y6705620I12720J0D01*
G01X9232900D01*
G02X9245620Y6692900I0J-12720D01*
G01Y6515100D01*
G02X9232900Y6502380I-12720J0D01*
G01X9055100D01*
G02X9042380Y6515100I0J12720D01*
G37*
G36*
G01X8026380D02*
Y6692900D01*
G02X8039100Y6705620I12720J0D01*
G01X8216900D01*
G02X8229620Y6692900I0J-12720D01*
G01Y6515100D01*
G02X8216900Y6502380I-12720J0D01*
G01X8039100D01*
G02X8026380Y6515100I0J12720D01*
G37*
G36*
G01X4571980Y6388100D02*
Y6565900D01*
G02X4584700Y6578620I12720J0D01*
G01X4762500D01*
G02X4775220Y6565900I0J-12720D01*
G01Y6388100D01*
G02X4762500Y6375380I-12720J0D01*
G01X4584700D01*
G02X4571980Y6388100I0J12720D01*
G37*
G36*
G01X1168380Y6515100D02*
Y6692900D01*
G02X1181100Y6705620I12720J0D01*
G01X1358900D01*
G02X1371620Y6692900I0J-12720D01*
G01Y6515100D01*
G02X1358900Y6502380I-12720J0D01*
G01X1181100D01*
G02X1168380Y6515100I0J12720D01*
G37*
G36*
G01X152380D02*
Y6692900D01*
G02X165100Y6705620I12720J0D01*
G01X342900D01*
G02X355620Y6692900I0J-12720D01*
G01Y6515100D01*
G02X342900Y6502380I-12720J0D01*
G01X165100D01*
G02X152380Y6515100I0J12720D01*
G37*
G36*
G01X9042380Y5753100D02*
Y5930900D01*
G02X9055100Y5943620I12720J0D01*
G01X9232900D01*
G02X9245620Y5930900I0J-12720D01*
G01Y5753100D01*
G02X9232900Y5740380I-12720J0D01*
G01X9055100D01*
G02X9042380Y5753100I0J12720D01*
G37*
G36*
G01X8026380D02*
Y5930900D01*
G02X8039100Y5943620I12720J0D01*
G01X8216900D01*
G02X8229620Y5930900I0J-12720D01*
G01Y5753100D01*
G02X8216900Y5740380I-12720J0D01*
G01X8039100D01*
G02X8026380Y5753100I0J12720D01*
G37*
G36*
G01X1168380D02*
Y5930900D01*
G02X1181100Y5943620I12720J0D01*
G01X1358900D01*
G02X1371620Y5930900I0J-12720D01*
G01Y5753100D01*
G02X1358900Y5740380I-12720J0D01*
G01X1181100D01*
G02X1168380Y5753100I0J12720D01*
G37*
G36*
G01X152380D02*
Y5930900D01*
G02X165100Y5943620I12720J0D01*
G01X342900D01*
G02X355620Y5930900I0J-12720D01*
G01Y5753100D01*
G02X342900Y5740380I-12720J0D01*
G01X165100D01*
G02X152380Y5753100I0J12720D01*
G37*
G36*
G01X9042380Y5499100D02*
Y5676900D01*
G02X9055100Y5689620I12720J0D01*
G01X9232900D01*
G02X9245620Y5676900I0J-12720D01*
G01Y5499100D01*
G02X9232900Y5486380I-12720J0D01*
G01X9055100D01*
G02X9042380Y5499100I0J12720D01*
G37*
G36*
G01X8026380D02*
Y5676900D01*
G02X8039100Y5689620I12720J0D01*
G01X8216900D01*
G02X8229620Y5676900I0J-12720D01*
G01Y5499100D01*
G02X8216900Y5486380I-12720J0D01*
G01X8039100D01*
G02X8026380Y5499100I0J12720D01*
G37*
G36*
G01X1168380D02*
Y5676900D01*
G02X1181100Y5689620I12720J0D01*
G01X1358900D01*
G02X1371620Y5676900I0J-12720D01*
G01Y5499100D01*
G02X1358900Y5486380I-12720J0D01*
G01X1181100D01*
G02X1168380Y5499100I0J12720D01*
G37*
G36*
G01X152380D02*
Y5676900D01*
G02X165100Y5689620I12720J0D01*
G01X342900D01*
G02X355620Y5676900I0J-12720D01*
G01Y5499100D01*
G02X342900Y5486380I-12720J0D01*
G01X165100D01*
G02X152380Y5499100I0J12720D01*
G37*
G36*
G01X9550380Y3721100D02*
Y3898900D01*
G02X9563100Y3911620I12720J0D01*
G01X9740900D01*
G02X9753620Y3898900I0J-12720D01*
G01Y3721100D01*
G02X9740900Y3708380I-12720J0D01*
G01X9563100D01*
G02X9550380Y3721100I0J12720D01*
G37*
G36*
G01X9296380D02*
Y3898900D01*
G02X9309100Y3911620I12720J0D01*
G01X9486900D01*
G02X9499620Y3898900I0J-12720D01*
G01Y3721100D01*
G02X9486900Y3708380I-12720J0D01*
G01X9309100D01*
G02X9296380Y3721100I0J12720D01*
G37*
G36*
G01X7772380D02*
Y3898900D01*
G02X7785100Y3911620I12720J0D01*
G01X7962900D01*
G02X7975620Y3898900I0J-12720D01*
G01Y3721100D01*
G02X7962900Y3708380I-12720J0D01*
G01X7785100D01*
G02X7772380Y3721100I0J12720D01*
G37*
G36*
G01X7518380D02*
Y3898900D01*
G02X7531100Y3911620I12720J0D01*
G01X7708900D01*
G02X7721620Y3898900I0J-12720D01*
G01Y3721100D01*
G02X7708900Y3708380I-12720J0D01*
G01X7531100D01*
G02X7518380Y3721100I0J12720D01*
G37*
G36*
G01X7264380D02*
Y3898900D01*
G02X7277100Y3911620I12720J0D01*
G01X7454900D01*
G02X7467620Y3898900I0J-12720D01*
G01Y3721100D01*
G02X7454900Y3708380I-12720J0D01*
G01X7277100D01*
G02X7264380Y3721100I0J12720D01*
G37*
G36*
G01X7010380D02*
Y3898900D01*
G02X7023100Y3911620I12720J0D01*
G01X7200900D01*
G02X7213620Y3898900I0J-12720D01*
G01Y3721100D01*
G02X7200900Y3708380I-12720J0D01*
G01X7023100D01*
G02X7010380Y3721100I0J12720D01*
G37*
G36*
G01X5486380D02*
Y3898900D01*
G02X5499100Y3911620I12720J0D01*
G01X5676900D01*
G02X5689620Y3898900I0J-12720D01*
G01Y3721100D01*
G02X5676900Y3708380I-12720J0D01*
G01X5499100D01*
G02X5486380Y3721100I0J12720D01*
G37*
G36*
G01X5232380D02*
Y3898900D01*
G02X5245100Y3911620I12720J0D01*
G01X5422900D01*
G02X5435620Y3898900I0J-12720D01*
G01Y3721100D01*
G02X5422900Y3708380I-12720J0D01*
G01X5245100D01*
G02X5232380Y3721100I0J12720D01*
G37*
G36*
G01X4470380D02*
Y3898900D01*
G02X4483100Y3911620I12720J0D01*
G01X4660900D01*
G02X4673620Y3898900I0J-12720D01*
G01Y3721100D01*
G02X4660900Y3708380I-12720J0D01*
G01X4483100D01*
G02X4470380Y3721100I0J12720D01*
G37*
G36*
G01X4216380D02*
Y3898900D01*
G02X4229100Y3911620I12720J0D01*
G01X4406900D01*
G02X4419620Y3898900I0J-12720D01*
G01Y3721100D01*
G02X4406900Y3708380I-12720J0D01*
G01X4229100D01*
G02X4216380Y3721100I0J12720D01*
G37*
G36*
G01X2692380D02*
Y3898900D01*
G02X2705100Y3911620I12720J0D01*
G01X2882900D01*
G02X2895620Y3898900I0J-12720D01*
G01Y3721100D01*
G02X2882900Y3708380I-12720J0D01*
G01X2705100D01*
G02X2692380Y3721100I0J12720D01*
G37*
G36*
G01X2438380D02*
Y3898900D01*
G02X2451100Y3911620I12720J0D01*
G01X2628900D01*
G02X2641620Y3898900I0J-12720D01*
G01Y3721100D01*
G02X2628900Y3708380I-12720J0D01*
G01X2451100D01*
G02X2438380Y3721100I0J12720D01*
G37*
G36*
G01X2184380D02*
Y3898900D01*
G02X2197100Y3911620I12720J0D01*
G01X2374900D01*
G02X2387620Y3898900I0J-12720D01*
G01Y3721100D01*
G02X2374900Y3708380I-12720J0D01*
G01X2197100D01*
G02X2184380Y3721100I0J12720D01*
G37*
G36*
G01X1930380D02*
Y3898900D01*
G02X1943100Y3911620I12720J0D01*
G01X2120900D01*
G02X2133620Y3898900I0J-12720D01*
G01Y3721100D01*
G02X2120900Y3708380I-12720J0D01*
G01X1943100D01*
G02X1930380Y3721100I0J12720D01*
G37*
G36*
G01X406380D02*
Y3898900D01*
G02X419100Y3911620I12720J0D01*
G01X596900D01*
G02X609620Y3898900I0J-12720D01*
G01Y3721100D01*
G02X596900Y3708380I-12720J0D01*
G01X419100D01*
G02X406380Y3721100I0J12720D01*
G37*
G36*
G01X152380D02*
Y3898900D01*
G02X165100Y3911620I12720J0D01*
G01X342900D01*
G02X355620Y3898900I0J-12720D01*
G01Y3721100D01*
G02X342900Y3708380I-12720J0D01*
G01X165100D01*
G02X152380Y3721100I0J12720D01*
G37*
G36*
G01X865590Y4119480D02*
G03Y4135520I-6243J8020D01*
G02X850880Y4165600I23400J30080D01*
G02X927120I38120J0D01*
G02X912410Y4135520I-38110J0D01*
G03Y4119480I6243J-8020D01*
G02X927120Y4089400I-23400J-30080D01*
G02X850880I-38120J0D01*
G02X865590Y4119480I38110J0D01*
G37*
G36*
G01X1373590D02*
G03Y4135520I-6243J8020D01*
G02X1358880Y4165600I23400J30080D01*
G02X1435120I38120J0D01*
G02X1420410Y4135520I-38110J0D01*
G03Y4119480I6243J-8020D01*
G02X1435120Y4089400I-23400J-30080D01*
G02X1358880I-38120J0D01*
G02X1373590Y4119480I38110J0D01*
G37*
G36*
G01X3151590D02*
G03Y4135520I-6243J8020D01*
G02X3136880Y4165600I23400J30080D01*
G02X3213120I38120J0D01*
G02X3198410Y4135520I-38110J0D01*
G03Y4119480I6243J-8020D01*
G02X3213120Y4089400I-23400J-30080D01*
G02X3136880I-38120J0D01*
G02X3151590Y4119480I38110J0D01*
G37*
G36*
G01X3659590D02*
G03Y4135520I-6243J8020D01*
G02X3644880Y4165600I23400J30080D01*
G02X3721120I38120J0D01*
G02X3706410Y4135520I-38110J0D01*
G03Y4119480I6243J-8020D01*
G02X3721120Y4089400I-23400J-30080D01*
G02X3644880I-38120J0D01*
G02X3659590Y4119480I38110J0D01*
G37*
G36*
G01X5945590D02*
G03Y4135520I-6243J8020D01*
G02X5930880Y4165600I23400J30080D01*
G02X6007120I38120J0D01*
G02X5992410Y4135520I-38110J0D01*
G03Y4119480I6243J-8020D01*
G02X6007120Y4089400I-23400J-30080D01*
G02X5930880I-38120J0D01*
G02X5945590Y4119480I38110J0D01*
G37*
G36*
G01X6453590D02*
G03Y4135520I-6243J8020D01*
G02X6438880Y4165600I23400J30080D01*
G02X6515120I38120J0D01*
G02X6500410Y4135520I-38110J0D01*
G03Y4119480I6243J-8020D01*
G02X6515120Y4089400I-23400J-30080D01*
G02X6438880I-38120J0D01*
G02X6453590Y4119480I38110J0D01*
G37*
G36*
G01X8231590D02*
G03Y4135520I-6243J8020D01*
G02X8216880Y4165600I23400J30080D01*
G02X8293120I38120J0D01*
G02X8278410Y4135520I-38110J0D01*
G03Y4119480I6243J-8020D01*
G02X8293120Y4089400I-23400J-30080D01*
G02X8216880I-38120J0D01*
G02X8231590Y4119480I38110J0D01*
G37*
G36*
G01X8739590D02*
G03Y4135520I-6243J8020D01*
G02X8724880Y4165600I23400J30080D01*
G02X8801120I38120J0D01*
G02X8786410Y4135520I-38110J0D01*
G03Y4119480I6243J-8020D01*
G02X8801120Y4089400I-23400J-30080D01*
G02X8724880I-38120J0D01*
G02X8739590Y4119480I38110J0D01*
G37*
G36*
G01X622330Y4421640D02*
G03X611640Y4432330I-10142J548D01*
G02X609600Y4432280I-1954J38072D01*
G02X647720Y4470400I0J38120D01*
G02X647670Y4468360I-38122J-86D01*
G03X658360Y4457670I10142J-548D01*
G02X660400Y4457720I1954J-38072D01*
G02X698520Y4419600I0J-38120D01*
G02X689120Y4394530I-38131J0D01*
G03Y4381170I7651J-6680D01*
G02Y4331030I-28731J-25070D01*
G03Y4317670I7651J-6680D01*
G02X698520Y4292600I-28731J-25070D01*
G02X622280I-38120J0D01*
G02X631680Y4317670I38131J0D01*
G03Y4331030I-7651J6680D01*
G02Y4381170I28731J25070D01*
G03Y4394530I-7651J6680D01*
G02X622280Y4419600I28731J25070D01*
G02X622330Y4421640I38122J86D01*
G37*
G36*
G01X1130330D02*
G03X1119640Y4432330I-10142J548D01*
G02X1117600Y4432280I-1954J38072D01*
G02X1155720Y4470400I0J38120D01*
G02X1155670Y4468360I-38122J-86D01*
G03X1166360Y4457670I10142J-548D01*
G02X1168400Y4457720I1954J-38072D01*
G02X1206520Y4419600I0J-38120D01*
G02X1197120Y4394530I-38131J0D01*
G03Y4381170I7651J-6680D01*
G02Y4331030I-28731J-25070D01*
G03Y4317670I7651J-6680D01*
G02X1206520Y4292600I-28731J-25070D01*
G02X1130280I-38120J0D01*
G02X1139680Y4317670I38131J0D01*
G03Y4331030I-7651J6680D01*
G02Y4381170I28731J25070D01*
G03Y4394530I-7651J6680D01*
G02X1130280Y4419600I28731J25070D01*
G02X1130330Y4421640I38122J86D01*
G37*
G36*
G01X2908330D02*
G03X2897640Y4432330I-10140J550D01*
G02X2895600Y4432280I-1954J38072D01*
G02X2933720Y4470400I0J38120D01*
G02X2933670Y4468360I-38122J-86D01*
G03X2944360Y4457670I10140J-550D01*
G02X2946400Y4457720I1954J-38072D01*
G02X2984520Y4419600I0J-38120D01*
G02X2975120Y4394530I-38131J0D01*
G03Y4381170I7651J-6680D01*
G02Y4331030I-28731J-25070D01*
G03Y4317670I7651J-6680D01*
G02X2984520Y4292600I-28731J-25070D01*
G02X2908280I-38120J0D01*
G02X2917680Y4317670I38131J0D01*
G03Y4331030I-7651J6680D01*
G02Y4381170I28731J25070D01*
G03Y4394530I-7651J6680D01*
G02X2908280Y4419600I28731J25070D01*
G02X2908330Y4421640I38122J86D01*
G37*
G36*
G01X3416330D02*
G03X3405640Y4432330I-10140J550D01*
G02X3403600Y4432280I-1954J38072D01*
G02X3441720Y4470400I0J38120D01*
G02X3441670Y4468360I-38122J-86D01*
G03X3452360Y4457670I10140J-550D01*
G02X3454400Y4457720I1954J-38072D01*
G02X3492520Y4419600I0J-38120D01*
G02X3483120Y4394530I-38131J0D01*
G03Y4381170I7651J-6680D01*
G02Y4331030I-28731J-25070D01*
G03Y4317670I7651J-6680D01*
G02X3492520Y4292600I-28731J-25070D01*
G02X3416280I-38120J0D01*
G02X3425680Y4317670I38131J0D01*
G03Y4331030I-7651J6680D01*
G02Y4381170I28731J25070D01*
G03Y4394530I-7651J6680D01*
G02X3416280Y4419600I28731J25070D01*
G02X3416330Y4421640I38122J86D01*
G37*
G36*
G01X5702330D02*
G03X5691640Y4432330I-10140J550D01*
G02X5689600Y4432280I-1954J38072D01*
G02X5727720Y4470400I0J38120D01*
G02X5727670Y4468360I-38122J-86D01*
G03X5738360Y4457670I10140J-550D01*
G02X5740400Y4457720I1954J-38072D01*
G02X5778520Y4419600I0J-38120D01*
G02X5769120Y4394530I-38131J0D01*
G03Y4381170I7651J-6680D01*
G02Y4331030I-28731J-25070D01*
G03Y4317670I7651J-6680D01*
G02X5778520Y4292600I-28731J-25070D01*
G02X5702280I-38120J0D01*
G02X5711680Y4317670I38131J0D01*
G03Y4331030I-7651J6680D01*
G02Y4381170I28731J25070D01*
G03Y4394530I-7651J6680D01*
G02X5702280Y4419600I28731J25070D01*
G02X5702330Y4421640I38122J86D01*
G37*
G36*
G01X6210330D02*
G03X6199640Y4432330I-10140J550D01*
G02X6197600Y4432280I-1954J38072D01*
G02X6235720Y4470400I0J38120D01*
G02X6235670Y4468360I-38122J-86D01*
G03X6246360Y4457670I10140J-550D01*
G02X6248400Y4457720I1954J-38072D01*
G02X6286520Y4419600I0J-38120D01*
G02X6277120Y4394530I-38131J0D01*
G03Y4381170I7651J-6680D01*
G02Y4331030I-28731J-25070D01*
G03Y4317670I7651J-6680D01*
G02X6286520Y4292600I-28731J-25070D01*
G02X6210280I-38120J0D01*
G02X6219680Y4317670I38131J0D01*
G03Y4331030I-7651J6680D01*
G02Y4381170I28731J25070D01*
G03Y4394530I-7651J6680D01*
G02X6210280Y4419600I28731J25070D01*
G02X6210330Y4421640I38122J86D01*
G37*
G36*
G01X7988330D02*
G03X7977640Y4432330I-10140J550D01*
G02X7975600Y4432280I-1954J38072D01*
G02X8013720Y4470400I0J38120D01*
G02X8013670Y4468360I-38122J-86D01*
G03X8024360Y4457670I10140J-550D01*
G02X8026400Y4457720I1954J-38072D01*
G02X8064520Y4419600I0J-38120D01*
G02X8055120Y4394530I-38131J0D01*
G03Y4381170I7651J-6680D01*
G02Y4331030I-28731J-25070D01*
G03Y4317670I7651J-6680D01*
G02X8064520Y4292600I-28731J-25070D01*
G02X7988280I-38120J0D01*
G02X7997680Y4317670I38131J0D01*
G03Y4331030I-7651J6680D01*
G02Y4381170I28731J25070D01*
G03Y4394530I-7651J6680D01*
G02X7988280Y4419600I28731J25070D01*
G02X7988330Y4421640I38122J86D01*
G37*
G36*
G01X8496330D02*
G03X8485640Y4432330I-10140J550D01*
G02X8483600Y4432280I-1954J38072D01*
G02X8521720Y4470400I0J38120D01*
G02X8521670Y4468360I-38122J-86D01*
G03X8532360Y4457670I10140J-550D01*
G02X8534400Y4457720I1954J-38072D01*
G02X8572520Y4419600I0J-38120D01*
G02X8563120Y4394530I-38131J0D01*
G03Y4381170I7651J-6680D01*
G02Y4331030I-28731J-25070D01*
G03Y4317670I7651J-6680D01*
G02X8572520Y4292600I-28731J-25070D01*
G02X8496280I-38120J0D01*
G02X8505680Y4317670I38131J0D01*
G03Y4331030I-7651J6680D01*
G02Y4381170I28731J25070D01*
G03Y4394530I-7651J6680D01*
G02X8496280Y4419600I28731J25070D01*
G02X8496330Y4421640I38122J86D01*
G37*
G36*
G01X3698930Y5190360D02*
G03X3687260Y5199500I-10120J-901D01*
G02X3681430Y5199050I-5840J37669D01*
G02Y5275290I0J38120D01*
G02X3719400Y5240570I0J-38122D01*
G03X3731070Y5231430I10120J901D01*
G02X3736900Y5231880I5840J-37669D01*
G02Y5155640I0J-38120D01*
G02X3698930Y5190360I0J38122D01*
G37*
G36*
G01X6840360Y5769490D02*
G03X6826730Y5771370I-7836J-6464D01*
G02X6804970Y5764550I-21760J31304D01*
G02Y5840790I0J38120D01*
G02X6834370Y5826940I0J-38129D01*
G03X6848000Y5825060I7836J6464D01*
G02X6869760Y5831880I21760J-31304D01*
G02Y5755640I0J-38120D01*
G02X6840360Y5769490I0J38129D01*
G37*
G36*
G01X6833540Y5905650D02*
G03X6825720Y5918810I-9654J3167D01*
G02X6794480Y5956300I6875J37490D01*
G02X6870720I38120J0D01*
G02X6868820Y5944410I-38121J-5D01*
G03X6876640Y5931250I9654J-3167D01*
G02X6907880Y5893760I-6875J-37490D01*
G02X6831640I-38120J0D01*
G02X6833540Y5905650I38121J5D01*
G37*
G36*
G01X3303590Y6126480D02*
G03Y6142520I-6243J8020D01*
G02X3288880Y6172600I23400J30080D01*
G02X3365120I38120J0D01*
G02X3350410Y6142520I-38110J0D01*
G03Y6126480I6243J-8020D01*
G02X3365120Y6096400I-23400J-30080D01*
G02X3288880I-38120J0D01*
G02X3303590Y6126480I38110J0D01*
G37*
G36*
G01X6859590D02*
G03Y6142520I-6243J8020D01*
G02X6844880Y6172600I23400J30080D01*
G02X6921120I38120J0D01*
G02X6906410Y6142520I-38110J0D01*
G03Y6126480I6243J-8020D01*
G02X6921120Y6096400I-23400J-30080D01*
G02X6844880I-38120J0D01*
G02X6859590Y6126480I38110J0D01*
G37*
G36*
G01X3103590Y6128880D02*
G03Y6144920I-6243J8020D01*
G02X3088880Y6175000I23400J30080D01*
G02X3165120I38120J0D01*
G02X3150410Y6144920I-38110J0D01*
G03Y6128880I6243J-8020D01*
G02X3165120Y6098800I-23400J-30080D01*
G02X3088880I-38120J0D01*
G02X3103590Y6128880I38110J0D01*
G37*
G36*
G01X3453590D02*
G03Y6144920I-6243J8020D01*
G02X3438880Y6175000I23400J30080D01*
G02X3515120I38120J0D01*
G02X3500410Y6144920I-38110J0D01*
G03Y6128880I6243J-8020D01*
G02X3515120Y6098800I-23400J-30080D01*
G02X3438880I-38120J0D01*
G02X3453590Y6128880I38110J0D01*
G37*
G36*
G01X6659590D02*
G03Y6144920I-6243J8020D01*
G02X6644880Y6175000I23400J30080D01*
G02X6721120I38120J0D01*
G02X6706410Y6144920I-38110J0D01*
G03Y6128880I6243J-8020D01*
G02X6721120Y6098800I-23400J-30080D01*
G02X6644880I-38120J0D01*
G02X6659590Y6128880I38110J0D01*
G37*
G36*
G01X7009590D02*
G03Y6144920I-6243J8020D01*
G02X6994880Y6175000I23400J30080D01*
G02X7071120I38120J0D01*
G02X7056410Y6144920I-38110J0D01*
G03Y6128880I6243J-8020D01*
G02X7071120Y6098800I-23400J-30080D01*
G02X6994880I-38120J0D01*
G02X7009590Y6128880I38110J0D01*
G37*
G36*
G01X2840120Y6326590D02*
G03X2824080I-8020J-6243D01*
G02X2794000Y6311880I-30080J23400D01*
G02Y6388120I0J38120D01*
G02X2824080Y6373410I0J-38110D01*
G03X2840120I8020J6243D01*
G02X2870200Y6388120I30080J-23400D01*
G02Y6311880I0J-38120D01*
G02X2840120Y6326590I0J38110D01*
G37*
G36*
G01X3779920D02*
G03X3763880I-8020J-6243D01*
G02X3733800Y6311880I-30080J23400D01*
G02Y6388120I0J38120D01*
G02X3763880Y6373410I0J-38110D01*
G03X3779920I8020J6243D01*
G02X3810000Y6388120I30080J-23400D01*
G02Y6311880I0J-38120D01*
G02X3779920Y6326590I0J38110D01*
G37*
G36*
G01X6396120D02*
G03X6380080I-8020J-6243D01*
G02X6350000Y6311880I-30080J23400D01*
G02Y6388120I0J38120D01*
G02X6380080Y6373410I0J-38110D01*
G03X6396120I8020J6243D01*
G02X6426200Y6388120I30080J-23400D01*
G02Y6311880I0J-38120D01*
G02X6396120Y6326590I0J38110D01*
G37*
G36*
G01X7361320D02*
G03X7345280I-8020J-6243D01*
G02X7315200Y6311880I-30080J23400D01*
G02Y6388120I0J38120D01*
G02X7345280Y6373410I0J-38110D01*
G03X7361320I8020J6243D01*
G02X7391400Y6388120I30080J-23400D01*
G02Y6311880I0J-38120D01*
G02X7361320Y6326590I0J38110D01*
G37*
G36*
G01X3060730Y6352040D02*
G03X3050040Y6362730I-10140J550D01*
G02X3048000Y6362680I-1954J38072D01*
G02X3086120Y6400800I0J38120D01*
G02X3086070Y6398760I-38122J-86D01*
G03X3096760Y6388070I10140J-550D01*
G02X3098800Y6388120I1954J-38072D01*
G02X3060680Y6350000I0J-38120D01*
G02X3060730Y6352040I38122J86D01*
G37*
G36*
G01X3507240Y6388070D02*
G03X3517930Y6398760I550J10140D01*
G02X3517880Y6400800I38072J1954D01*
G02X3556000Y6362680I38120J0D01*
G02X3553960Y6362730I-86J38122D01*
G03X3543270Y6352040I-550J-10140D01*
G02X3543320Y6350000I-38072J-1954D01*
G02X3505200Y6388120I-38120J0D01*
G02X3507240Y6388070I86J-38122D01*
G37*
G36*
G01X6616730Y6352040D02*
G03X6606040Y6362730I-10140J550D01*
G02X6604000Y6362680I-1954J38072D01*
G02X6642120Y6400800I0J38120D01*
G02X6642070Y6398760I-38122J-86D01*
G03X6652760Y6388070I10140J-550D01*
G02X6654800Y6388120I1954J-38072D01*
G02X6616680Y6350000I0J-38120D01*
G02X6616730Y6352040I38122J86D01*
G37*
G36*
G01X2713120Y6580590D02*
G03X2697080I-8020J-6243D01*
G02X2667000Y6565880I-30080J23400D01*
G02Y6642120I0J38120D01*
G02X2697080Y6627410I0J-38110D01*
G03X2713120I8020J6243D01*
G02X2743200Y6642120I30080J-23400D01*
G02Y6565880I0J-38120D01*
G02X2713120Y6580590I0J38110D01*
G37*
G36*
G01X3906920D02*
G03X3890880I-8020J-6243D01*
G02X3860800Y6565880I-30080J23400D01*
G02Y6642120I0J38120D01*
G02X3890880Y6627410I0J-38110D01*
G03X3906920I8020J6243D01*
G02X3937000Y6642120I30080J-23400D01*
G02Y6565880I0J-38120D01*
G02X3906920Y6580590I0J38110D01*
G37*
G36*
G01X6606040Y6845270D02*
G03X6616730Y6855960I550J10140D01*
G02X6616680Y6858000I38072J1954D01*
G02X6654800Y6819880I38120J0D01*
G02X6652760Y6819930I-86J38122D01*
G03X6642070Y6809240I-550J-10140D01*
G02X6642120Y6807200I-38072J-1954D01*
G02X6604000Y6845320I-38120J0D01*
G02X6606040Y6845270I86J-38122D01*
G37*
G36*
G01X6834990Y7065480D02*
G03Y7081520I-6243J8020D01*
G02X6820280Y7111600I23400J30080D01*
G02X6896520I38120J0D01*
G02X6881810Y7081520I-38110J0D01*
G03Y7065480I6243J-8020D01*
G02X6896520Y7035400I-23400J-30080D01*
G02X6820280I-38120J0D01*
G02X6834990Y7065480I38110J0D01*
G37*
G36*
G01X3278590Y7065880D02*
G03Y7081920I-6243J8020D01*
G02X3263880Y7112000I23400J30080D01*
G02X3340120I38120J0D01*
G02X3325410Y7081920I-38110J0D01*
G03Y7065880I6243J-8020D01*
G02X3340120Y7035800I-23400J-30080D01*
G02X3263880I-38120J0D01*
G02X3278590Y7065880I38110J0D01*
G37*
G36*
G01X6431790Y7126280D02*
G03X6418430I-6680J-7651D01*
G02X6393360Y7116880I-25070J28731D01*
G02Y7193120I0J38120D01*
G02X6418430Y7183720I0J-38131D01*
G03X6431790I6680J7651D01*
G02X6456860Y7193120I25070J-28731D01*
G02Y7116880I0J-38120D01*
G02X6431790Y7126280I0J38131D01*
G37*
G36*
G01X7297930D02*
G03X7284570I-6680J-7651D01*
G02X7259500Y7116880I-25070J28731D01*
G02Y7193120I0J38120D01*
G02X7284570Y7183720I0J-38131D01*
G03X7297930I6680J7651D01*
G02X7323000Y7193120I25070J-28731D01*
G02Y7116880I0J-38120D01*
G02X7297930Y7126280I0J38131D01*
G37*
G36*
G01X2840120Y7139390D02*
G03X2824080I-8020J-6243D01*
G02X2794000Y7124680I-30080J23400D01*
G02Y7200920I0J38120D01*
G02X2824080Y7186210I0J-38110D01*
G03X2840120I8020J6243D01*
G02X2870200Y7200920I30080J-23400D01*
G02Y7124680I0J-38120D01*
G02X2840120Y7139390I0J38110D01*
G37*
G36*
G01X3754520D02*
G03X3738480I-8020J-6243D01*
G02X3708400Y7124680I-30080J23400D01*
G02Y7200920I0J38120D01*
G02X3738480Y7186210I0J-38110D01*
G03X3754520I8020J6243D01*
G02X3784600Y7200920I30080J-23400D01*
G02Y7124680I0J-38120D01*
G02X3754520Y7139390I0J38110D01*
G37*
G36*
G01X8282440Y9156670D02*
G03X8293130Y9167360I550J10140D01*
G02X8293080Y9169400I38072J1954D01*
G02X8331200Y9131280I38120J0D01*
G02X8329160Y9131330I-86J38122D01*
G03X8318470Y9120640I-550J-10140D01*
G02X8318520Y9118600I-38072J-1954D01*
G02X8280400Y9156720I-38120J0D01*
G02X8282440Y9156670I86J-38122D01*
G37*
G36*
G01X8485590Y9250280D02*
G03Y9266320I-6243J8020D01*
G02X8470880Y9296400I23400J30080D01*
G02X8547120I38120J0D01*
G02X8532410Y9266320I-38110J0D01*
G03Y9250280I6243J-8020D01*
G02X8547120Y9220200I-23400J-30080D01*
G02X8470880I-38120J0D01*
G02X8485590Y9250280I38110J0D01*
G37*
G36*
G01X8815790D02*
G03Y9266320I-6243J8020D01*
G02X8801080Y9296400I23400J30080D01*
G02X8877320I38120J0D01*
G02X8862610Y9266320I-38110J0D01*
G03Y9250280I6243J-8020D01*
G02X8877320Y9220200I-23400J-30080D01*
G02X8801080I-38120J0D01*
G02X8815790Y9250280I38110J0D01*
G37*
G36*
G01X1948100Y4038380D02*
G02X1944280Y4064000I83902J25605D01*
G02X2032000Y3976280I87720J0D01*
G02X1983920Y3990630I0J87722D01*
G03X1968260Y3983330I-5572J-8494D01*
G02X1930400Y3949680I-37860J4473D01*
G02Y4025920I0J38120D01*
G02X1936710Y4025390I-24J-38118D01*
G03X1948100Y4038380I1674J10021D01*
G37*
G36*
G01X7016710Y4102610D02*
G02X7010400Y4102080I-6334J37588D01*
G02Y4178320I0J38120D01*
G02X7048260Y4144670I0J-38123D01*
G03X7063920Y4137370I10088J1194D01*
G02X7112000Y4151720I48080J-73372D01*
G02Y3976280I0J-87720D01*
G02X7063920Y3990630I0J87722D01*
G03X7048260Y3983330I-5572J-8494D01*
G02X7010400Y3949680I-37860J4473D01*
G02Y4025920I0J38120D01*
G02X7016710Y4025390I-24J-38118D01*
G03X7028100Y4038380I1674J10021D01*
G02X7024280Y4064000I83902J25605D01*
G02X7028100Y4089620I87722J15D01*
G03X7016710Y4102610I-9716J2969D01*
G37*
G36*
G01X5626610Y4159290D02*
G02X5626080Y4165600I37588J6334D01*
G02X5702320I38120J0D01*
G02X5668670Y4127740I-38123J0D01*
G03X5661370Y4112080I1194J-10088D01*
G02Y4015920I-73372J-48080D01*
G03X5668670Y4000260I8494J-5572D01*
G02X5702320Y3962400I-4473J-37860D01*
G02X5626080I-38120J0D01*
G02X5626610Y3968710I38118J-24D01*
G03X5613620Y3980100I-10021J1674D01*
G02X5588000Y3976280I-25605J83902D01*
G02Y4151720I0J87720D01*
G02X5613620Y4147900I15J-87722D01*
G03X5626610Y4159290I2969J9716D01*
G37*
G36*
G01X6465800Y5653170D02*
G02X6452400Y5650740I-13393J35691D01*
G02Y5726980I0J38120D01*
G02X6490400Y5691910I0J-38122D01*
G03X6504100Y5683210I10126J809D01*
G02X6517500Y5685640I13393J-35691D01*
G02Y5609400I0J-38120D01*
G02X6479500Y5644470I0J38122D01*
G03X6465800Y5653170I-10126J-809D01*
G37*
G36*
G01X3076810Y5847310D02*
G02X3039600Y5885420I911J38110D01*
G02X3115840I38120J0D01*
G02X3110570Y5866090I-38118J9D01*
G03X3119090Y5850780I8758J-5152D01*
G02X3156300Y5812670I-911J-38110D01*
G02X3080060I-38120J0D01*
G02X3085330Y5832000I38118J-9D01*
G03X3076810Y5847310I-8758J5152D01*
G37*
G36*
G01X3627400Y6157070D02*
G02X3600100Y6193620I10817J36550D01*
G02X3676340I38120J0D01*
G02X3669100Y6171270I-38117J0D01*
G03X3674440Y6155570I8230J-5959D01*
G02X3701740Y6119020I-10817J-36550D01*
G02X3625500I-38120J0D01*
G02X3632740Y6141370I38117J0D01*
G03X3627400Y6157070I-8230J5959D01*
G37*
G36*
G01X6239810Y6591440D02*
G02X6207580Y6573680I-32230J20365D01*
G02Y6649920I0J38120D01*
G02X6239810Y6632160I0J-38125D01*
G03X6256990I8590J5421D01*
G02X6289220Y6649920I32230J-20365D01*
G02Y6573680I0J-38120D01*
G02X6256990Y6591440I0J38125D01*
G03X6239810I-8590J-5421D01*
G37*
G36*
G01X7466490Y6591220D02*
G02X7434400Y6573680I-32090J20585D01*
G02Y6649920I0J38120D01*
G02X7466490Y6632380I0J-38125D01*
G03X7483590I8550J5484D01*
G02X7515680Y6649920I32090J-20585D01*
G02Y6573680I0J-38120D01*
G02X7483590Y6591220I0J38125D01*
G03X7466490I-8550J-5484D01*
G37*
G36*
G01X4230030Y6637870D02*
G02X4267200Y6667520I37170J-8474D01*
G02Y6591280I0J-38120D01*
G02X4239470Y6603250I5J38118D01*
G03X4222170Y6598530I-7392J-6971D01*
G02X4185000Y6568880I-37170J8474D01*
G02Y6645120I0J38120D01*
G02X4212730Y6633150I-5J-38118D01*
G03X4230030Y6637870I7392J6971D01*
G37*
G36*
G01X8356580Y9715500D02*
Y9893300D01*
G02X8369300Y9906020I12720J0D01*
G01X8547100D01*
G02X8559820Y9893300I0J-12720D01*
G01Y9715500D01*
G02X8547100Y9702780I-12720J0D01*
G01X8369300D01*
G02X8356580Y9715500I0J12720D01*
G37*
G54D26*
X7035800Y1524000D03*
X1879600Y3302000D03*
X685800Y3860800D03*
X919300Y3864000D03*
Y3764000D03*
X812800Y3860800D03*
X1093900Y3864000D03*
Y3764000D03*
X1447800Y3759200D03*
X1446100Y3864000D03*
X1620700D03*
X1752600Y3860800D03*
X1879600D03*
X3098800D03*
X3379900Y3864000D03*
Y3764000D03*
X3205300Y3864000D03*
Y3764000D03*
X3905960Y3864000D03*
X3897300Y3764380D03*
X3722700Y3864440D03*
Y3764440D03*
X5999300Y3798460D03*
X5892800Y3835400D03*
X5791200D03*
X6173900Y3792790D03*
X6197600Y3886200D03*
X6858000Y3835400D03*
X6959600D03*
X8077200D03*
X8285300Y3725620D03*
Y3825620D03*
X8178800Y3835400D03*
X8459900Y3806650D03*
X8812100Y3864000D03*
Y3764000D03*
X8986700Y3864000D03*
Y3764000D03*
X9118600Y3860800D03*
X9220200D03*
X1397000Y3937000D03*
X1930400Y4165600D03*
X2895600D03*
Y3962400D03*
X3403600Y3987800D03*
X3708400D03*
X5073600Y4076600D03*
X6483680Y3972000D03*
X7975600Y3962400D03*
Y4165600D03*
X8763000Y3962400D03*
X9296400D03*
X939800Y4419600D03*
X3225800D03*
X3733800D03*
X5054600Y4394200D03*
X6019800Y4419600D03*
X6527800D03*
X6985000Y4267200D03*
X8280400Y4445000D03*
X8813800Y4394200D03*
X552400Y4686200D03*
X929500Y4622600D03*
X1104100D03*
X1447800Y4470400D03*
X1437500Y4622600D03*
X1612100D03*
X2279600Y4591000D03*
X3215500Y4556090D03*
Y4656090D03*
X3390100Y4619330D03*
X3901300Y4545580D03*
Y4645580D03*
X3723500Y4696380D03*
Y4596380D03*
X6184100Y4696660D03*
Y4596660D03*
X6009500Y4706760D03*
X6517500Y4649560D03*
X6749120Y4680910D03*
X6692100Y4598760D03*
X6945720Y4706780D03*
X6849120Y4680910D03*
X7359600Y4616400D03*
X7613600D03*
X8081380Y4632560D03*
X8010670Y4703270D03*
X8257640Y4699900D03*
X8328350Y4629190D03*
X8401410Y4560900D03*
X8861360Y4571700D03*
X8790650Y4642410D03*
X8932070Y4500990D03*
X9398000Y4648200D03*
X929500Y4722600D03*
X993210Y4799670D03*
X1063920Y4870390D03*
X1134640Y4941100D03*
X1151250Y4710790D03*
X1221960Y4781500D03*
X1292670Y4852210D03*
X1363380Y4922920D03*
X1437500Y4722600D03*
X1486120Y4809980D03*
X1556830Y4880690D03*
X1627540Y4951400D03*
X1641300Y4718240D03*
X1712010Y4788950D03*
X1810320Y4807280D03*
X1910320D03*
X2010320D03*
X2110320D03*
X2210320D03*
X2310320D03*
X2410320D03*
X2506610Y4834250D03*
X2577320Y4904960D03*
X3215500Y4960890D03*
Y4860890D03*
Y4760890D03*
X3390100Y4919330D03*
Y4819330D03*
Y4719330D03*
X3898100Y4749660D03*
X3725800Y4896360D03*
X3723500Y4796380D03*
X4137970Y4890700D03*
X4054990Y4834900D03*
X3955030Y4831870D03*
X4368800Y4775200D03*
X4724400D03*
X5054600D03*
X5690670Y4957320D03*
X5774640Y4903010D03*
X5874600Y4900470D03*
X5974600D03*
X6184100Y4896660D03*
Y4796660D03*
X6009500Y4806760D03*
X6522750Y4948280D03*
X6520630Y4749510D03*
X6532710Y4848780D03*
X6979290Y4889470D03*
X6998960Y4791430D03*
X7444060Y4846310D03*
X7520600Y4781970D03*
X7383080Y4925580D03*
X7747000Y4851400D03*
X7620000Y4826000D03*
X7939960Y4773980D03*
X7869250Y4844690D03*
X8045510Y4912030D03*
X8285080Y4919380D03*
X8355790Y4848670D03*
X8116220Y4841320D03*
X8186930Y4770610D03*
X8426500Y4777960D03*
X8517040Y4735500D03*
X8617040D03*
X8717040Y4710100D03*
X9067800Y4775200D03*
X9925000Y4857600D03*
X552400Y5086200D03*
X1205350Y5011810D03*
X1276060Y5082520D03*
X1066800Y5080000D03*
X1346770Y5153230D03*
X1417480Y5223940D03*
X1434090Y4993630D03*
X1504800Y5064340D03*
X1575510Y5135050D03*
X1673940Y5152720D03*
X1773940D03*
X1722790Y4981880D03*
X1873940Y5152720D03*
X1973940D03*
X1822790Y4981880D03*
X1922790D03*
X2022790D03*
X2073940Y5152720D03*
X2173940D03*
X2273940D03*
X2122790Y4981880D03*
X2222790D03*
X2322790D03*
X2370610Y5178310D03*
X2421740Y4996300D03*
X2492450Y5067010D03*
X2563160Y5137720D03*
X2633870Y5208430D03*
X2648030Y4975670D03*
X2718740Y5046380D03*
X2789460Y5117090D03*
X2860170Y5187810D03*
X2990800Y4997400D03*
X3315030Y5134370D03*
X3265450Y5047520D03*
X3593960Y5188710D03*
X3493970Y5187640D03*
X3489630Y5087730D03*
X3457790Y4992940D03*
X3727410Y5094210D03*
X3741200Y4995160D03*
X4158520Y5185190D03*
X4141560Y5086640D03*
X4159730Y4988310D03*
X4362400Y5219600D03*
X4718000D03*
X5073600D03*
X5687470Y5152440D03*
X5667170Y5054520D03*
X6167740Y5194960D03*
X6179500Y5095650D03*
X6172040Y4995930D03*
X6517500Y5147520D03*
X6528470Y5048120D03*
X6692100Y5141280D03*
X6792100Y5141110D03*
X6892070Y5138620D03*
X6976150Y5084490D03*
X6999850Y4987340D03*
X7264400Y5207000D03*
X7246520Y5067840D03*
X7302770Y4985160D03*
X7601560Y5220080D03*
X7673410Y5150530D03*
X7740060Y5075980D03*
X7764460Y5196610D03*
X7833380Y5124160D03*
X8002240Y5202220D03*
X8072950Y5131510D03*
X7904090Y5053450D03*
X7974800Y4982740D03*
X8143660Y5060800D03*
X8214370Y4990090D03*
X8509000Y5003800D03*
X8788400D03*
X9525000D03*
X1488190Y5294650D03*
X1582700Y5327320D03*
X1682700D03*
X1782700D03*
X1882700D03*
X1982700D03*
X2082700D03*
X2182700D03*
X2282240Y5336870D03*
X2352960Y5407580D03*
X2423670Y5478290D03*
X2441320Y5249020D03*
X2512030Y5319730D03*
X2582740Y5390440D03*
X2653450Y5461150D03*
X2704580Y5279150D03*
X2775290Y5349860D03*
X2846010Y5420570D03*
X2916720Y5491280D03*
X2930880Y5258520D03*
X3001590Y5329230D03*
X3072300Y5399940D03*
X3143010Y5470650D03*
X3315130Y5422810D03*
X3348670Y5328610D03*
X3315210Y5234370D03*
X3681810Y5428030D03*
X3711510Y5332550D03*
X3898100Y5491230D03*
X3997720Y5482470D03*
X4095860Y5463310D03*
X4156510Y5383790D03*
X4145740Y5284380D03*
X5721580Y5335030D03*
X5668090Y5250540D03*
X5918240Y5360670D03*
X5818240D03*
X6240260Y5476720D03*
X6184100Y5393990D03*
X6181380Y5294020D03*
X6009500Y5401560D03*
X6517500Y5447520D03*
Y5347520D03*
Y5247520D03*
X6692100Y5441280D03*
Y5341280D03*
Y5241280D03*
X7103050Y5483890D03*
X7173760Y5413180D03*
X7244470Y5342470D03*
X7395750Y5438110D03*
X7462480Y5363630D03*
X7529460Y5289370D03*
X7482020Y5475520D03*
X7561160Y5414400D03*
X7625600Y5337930D03*
X7704780Y5276860D03*
X7983710Y5466120D03*
X7998870Y5367270D03*
X7944120Y5283590D03*
X8509000Y5308600D03*
X8788400D03*
X9271000Y5257800D03*
X9925000Y5295800D03*
X984200Y5702200D03*
X2152600D03*
X2494380Y5549000D03*
X2565090Y5619710D03*
X2635800Y5690420D03*
X2724160Y5531860D03*
X2794870Y5602570D03*
X2865580Y5673280D03*
X2936300Y5743990D03*
X2987430Y5561990D03*
X3058140Y5632700D03*
X3118180Y5712670D03*
X3213720Y5541360D03*
X3284430Y5612070D03*
X3352790Y5701750D03*
X3351400Y5516000D03*
X3711460Y5523530D03*
X3898100Y5691230D03*
Y5591230D03*
X3708400Y5664200D03*
X4362400Y5645000D03*
X4718000D03*
X5073600D03*
X5276800Y5499000D03*
X6229960Y5713340D03*
X6159250Y5642630D03*
X6088540Y5571920D03*
X6017830Y5501210D03*
X6381690Y5618150D03*
X6310980Y5547430D03*
X6517500Y5747520D03*
Y5547520D03*
X6734260Y5731960D03*
X6692100Y5641280D03*
Y5541280D03*
X6890920Y5696020D03*
X6961630Y5625310D03*
X7032340Y5554600D03*
X7112910Y5720950D03*
X7183620Y5650240D03*
X7254330Y5579530D03*
X7269880Y5687660D03*
X7325040Y5508820D03*
X7493140Y5711320D03*
X7563850Y5640610D03*
X7340590Y5616950D03*
X7411300Y5546230D03*
X7663570Y5648120D03*
X7762310Y5663980D03*
X7844830Y5607500D03*
X7904660Y5527370D03*
X8985200Y5727600D03*
X9925000Y5695800D03*
X2508200Y5803800D03*
X2706510Y5761130D03*
X2777220Y5831840D03*
X2847930Y5902550D03*
X2918640Y5973260D03*
X3007010Y5814710D03*
X3145460Y5958970D03*
X3315030Y5894370D03*
X3315090Y5794370D03*
X3276600Y6019800D03*
X3489630Y5994370D03*
Y5894370D03*
X3606800Y5842000D03*
X3815900Y5967180D03*
X3886610Y5896470D03*
X3708400Y5765800D03*
X3911600Y5791200D03*
X4191000Y6019800D03*
X5276800Y5899000D03*
X6512800Y5996180D03*
X6442090Y5925470D03*
X6371380Y5854760D03*
X6300670Y5784050D03*
X6671640Y5993760D03*
X6651240Y5895860D03*
X6580530Y5825150D03*
X7044360Y5993760D03*
Y5893760D03*
Y5793760D03*
X7210300Y5994160D03*
X7281010Y5923450D03*
X7128460Y5829080D03*
X7199170Y5758370D03*
X7351720Y5852740D03*
X7422430Y5782030D03*
X7569200Y5918200D03*
X7848600D03*
X355600Y6121400D03*
X609600D03*
X984200Y6102200D03*
X1371600Y6121400D03*
X1625600D03*
X2152600Y6102200D03*
X2508200Y6203800D03*
X2970860Y6058540D03*
Y6158540D03*
X3745190Y6037890D03*
X4622800Y6248400D03*
X4653280Y6101080D03*
X4724400Y6248400D03*
X4754880Y6101080D03*
X6205220Y6057900D03*
X6521780Y6195780D03*
Y6095780D03*
X7196760Y6193240D03*
Y6093240D03*
X7569200Y6223000D03*
X7848600D03*
X8229600Y6121400D03*
X8483600D03*
X8985200Y6127600D03*
X9245600Y6121400D03*
X9499600D03*
X9925000Y6108600D03*
X355600Y6299200D03*
X609600D03*
X1371600D03*
X1625600D03*
X3048000Y6502400D03*
X3200400Y6350000D03*
X3302000Y6502400D03*
Y6400800D03*
X3556000Y6502400D03*
X3403600Y6350000D03*
X4292600Y6375400D03*
X6756400Y6350000D03*
X6604000Y6502400D03*
X7035800Y6350000D03*
X6934200D03*
X6858000Y6502400D03*
Y6400800D03*
X7112000D03*
Y6502400D03*
X8229600Y6299200D03*
X8483600D03*
X9245600D03*
X9499600D03*
X9925000Y6508600D03*
X3048000Y6807200D03*
Y6705600D03*
X3098800Y6604000D03*
X3302000Y6807200D03*
Y6604000D03*
X3200400D03*
X3302000Y6705600D03*
X3556000D03*
Y6807200D03*
X3403600Y6604000D03*
X3505200D03*
X4013200Y6553200D03*
X4102100Y6578600D03*
X4514800Y6743600D03*
X5638800Y6731000D03*
X5740400D03*
X5829300D03*
X5918200D03*
X6604000Y6705600D03*
X6756400Y6604000D03*
X6654800D03*
X6858000D03*
X6959600D03*
X6858000Y6705600D03*
Y6807200D03*
X7112000Y6705600D03*
Y6807200D03*
X7061200Y6604000D03*
X8909000Y6794400D03*
X2260600Y6908800D03*
X2489200Y7035800D03*
X2692400Y7007900D03*
X3378200Y6858000D03*
X3225800D03*
X3124200D03*
X3479800D03*
X4064000Y7035800D03*
X5384800D03*
X6248400Y7016440D03*
X6756400Y6858000D03*
X7035800D03*
X6934200D03*
X7416800Y7010400D03*
X7823200Y6883400D03*
X9925000Y6870600D03*
X355600Y7137400D03*
X609600D03*
X1371600D03*
X1625600D03*
X2108200Y7315200D03*
X2438400Y7264400D03*
X2819400D03*
X3352800Y7188200D03*
X3251200D03*
X4514800Y7143600D03*
X6146800Y7112000D03*
X6783000Y7263200D03*
X6934200Y7264400D03*
X7645400Y7137400D03*
X8229600Y7315200D03*
Y7137400D03*
X8483600Y7315200D03*
Y7137400D03*
X8909000Y7194400D03*
X9245600Y7137400D03*
Y7315200D03*
X9499600Y7137400D03*
Y7315200D03*
X9925000Y7270600D03*
X355600Y7340600D03*
X609600D03*
X1371600D03*
X1625600D03*
X3327400Y7416800D03*
X3581400Y7391400D03*
X4216400Y7416800D03*
X5003800D03*
X5664200Y7467600D03*
X6324600Y7340600D03*
X2514600Y7848600D03*
X2921000D03*
X3302000Y7797800D03*
X3937000Y7670800D03*
X4572000Y7747000D03*
X4978400Y7848600D03*
X5410200Y7670800D03*
X6146800Y7696200D03*
X6502400D03*
X6858000D03*
X7340600D03*
X7696200D03*
X8026400D03*
X8356600D03*
X8661400D03*
X8966200D03*
X977800Y8001000D03*
X1377800D03*
X1777800D03*
X2108000D03*
X3657600Y7899400D03*
X5334000Y7950200D03*
X5734000Y8001000D03*
X6134000D03*
X6985000D03*
X7340600D03*
X8026400D03*
X8356600D03*
X8661400D03*
X8966200D03*
X177800Y8356600D03*
X577800D03*
X977800D03*
X1377800D03*
X1777800D03*
X2108000D03*
X2438400Y8128000D03*
X3327400Y8305800D03*
X4572000Y8229600D03*
X5334000Y8255000D03*
X2438400Y8559800D03*
X3403600D03*
X5734000Y8401000D03*
X6134000D03*
X6629400Y8407400D03*
X6985000D03*
X177800Y8756600D03*
X577800D03*
X977800D03*
X1377800D03*
X1777800D03*
X2108000D03*
X2533600Y8737600D03*
X2933600D03*
X3632200D03*
X3784600D03*
X4191000D03*
X4572000D03*
X4953000Y8712200D03*
X5334000D03*
X5842000Y8763000D03*
X6350000Y8686800D03*
X6629400Y8737600D03*
X6985000D03*
X177800Y9156600D03*
X577800D03*
X977800D03*
X1377800D03*
X1777800D03*
X2108000D03*
X2533600Y9137600D03*
X2438400Y8991600D03*
X2933600Y9137600D03*
X2463800Y9372600D03*
X2971800Y9398000D03*
X7696200Y9271000D03*
X7620400Y9346800D03*
X177800Y9556600D03*
X577800D03*
X977800D03*
X1377800D03*
X1777800D03*
X2108000D03*
X1924000Y9759800D03*
X2311400D03*
X2711400D03*
X3092400D03*
X3479800D03*
X3879800D03*
X4279800D03*
X4679800D03*
X5130800D03*
X5530800D03*
X5930800D03*
X6330800D03*
X6769000D03*
X7169000D03*
X7302400Y9912200D03*
X7702400D03*
X8966200Y9575800D03*
X8712200Y9702800D03*
X8839200D03*
Y9829800D03*
X8712200D03*
X8966200D03*
Y9702800D03*
G54D29*
X9288600Y8860600D03*
G54D24*
X2641600Y889000D03*
X2895600D03*
X4673600D03*
X4927600D03*
X6705600D03*
X6959600D03*
X8737600D03*
X8991600D03*
X2641600Y1143000D03*
X2895600D03*
X4673600D03*
X4927600D03*
X6705600D03*
X6959600D03*
X8737600D03*
X8991600D03*
G54D25*
X1778000Y1270000D03*
X3810000D03*
X5842000D03*
X7874000D03*
X1520000Y1524000D03*
X1778000D03*
X2033000D03*
X3552000D03*
X3810000D03*
X4065000D03*
X5584000D03*
X5842000D03*
X6097000D03*
X7616000D03*
X7874000D03*
X8129000D03*
G54D23*
X1270000Y635000D03*
X2286000D03*
X3302000D03*
X4318000D03*
X5334000D03*
X6350000D03*
X7366000D03*
X8382000D03*
G54D28*
X3556000Y9144000D03*
X3810000D03*
X4064000D03*
X4318000D03*
X4572000D03*
X4826000D03*
X5080000D03*
X5334000D03*
X5588000D03*
X5842000D03*
X3302000Y9398000D03*
X3556000D03*
X3810000D03*
X4064000D03*
X4318000D03*
X4572000D03*
X4826000D03*
X5080000D03*
X5334000D03*
X5588000D03*
X5842000D03*
X6604000Y9144000D03*
X6350000D03*
X6858000D03*
X6604000Y9398000D03*
X6350000D03*
X6858000D03*
G54D22*
X555000Y357000D03*
X9445000D03*
X555000Y8000000D03*
G54D27*
X508000Y2971800D03*
X2032000D03*
X2794000D03*
X4572000D03*
X5334000D03*
X7112000D03*
X7620000D03*
X9398000D03*
X508000Y3225800D03*
X2032000D03*
X2794000D03*
X4572000D03*
X5334000D03*
X7112000D03*
X7620000D03*
X9398000D03*
X254000Y4064000D03*
X508000D03*
X2286000D03*
X2540000D03*
X2794000D03*
X4318000D03*
X4572000D03*
X5334000D03*
X7366000D03*
X7620000D03*
X7874000D03*
X9398000D03*
X9652000D03*
X254000Y4318000D03*
X508000D03*
X2032000D03*
X2286000D03*
X2540000D03*
X2794000D03*
X4318000D03*
X4572000D03*
X5334000D03*
X5588000D03*
X7112000D03*
X7366000D03*
X7620000D03*
X7874000D03*
X9398000D03*
X9652000D03*
X508000Y5588000D03*
X762000D03*
X1524000D03*
X1778000D03*
X8382000D03*
X8636000D03*
X9398000D03*
X9652000D03*
X508000Y5842000D03*
X762000D03*
X1524000D03*
X1778000D03*
X8382000D03*
X8636000D03*
X9398000D03*
X9652000D03*
X508000Y6604000D03*
X762000D03*
X1524000D03*
X1778000D03*
X4927600Y6477000D03*
X5181600D03*
X8382000Y6604000D03*
X8636000D03*
X9398000D03*
X9652000D03*
X508000Y6858000D03*
X762000D03*
X1524000D03*
X1778000D03*
X8382000D03*
X8636000D03*
X9398000D03*
X9652000D03*
X8204200Y9804400D03*
X7950200D03*
%LPD*%
G75*
G54D10*
X222200Y1066800D03*
Y1466800D03*
Y2209800D03*
Y2609800D03*
Y3149600D03*
Y3549600D03*
X177800Y8356600D03*
Y8756600D03*
Y9156600D03*
Y9556600D03*
X355600Y6121400D03*
Y6299200D03*
Y7137400D03*
Y7340600D03*
X622200Y1066800D03*
X711200Y2076400D03*
Y2476400D03*
Y2876400D03*
Y3276400D03*
X730200Y3587600D03*
X635000Y3454400D03*
Y3581400D03*
X685800Y3860800D03*
X660400Y4292600D03*
Y4419600D03*
Y4356100D03*
X552400Y4686200D03*
X609600Y4470400D03*
X552400Y5086200D03*
X609600Y6121400D03*
Y6299200D03*
Y7137400D03*
Y7340600D03*
X577800Y8356600D03*
Y8756600D03*
Y9156600D03*
Y9556600D03*
X914400Y158600D03*
X948790Y1797950D03*
X1019500Y1727240D03*
X919300Y1993500D03*
Y1893500D03*
Y2293500D03*
Y2193500D03*
Y2093500D03*
X852500Y2581410D03*
X893010Y2489980D03*
X919300Y2393500D03*
X852500Y2776260D03*
X875050Y2678840D03*
X919300Y3064000D03*
Y2964000D03*
X877850Y2873000D03*
X919300Y3364000D03*
Y3264000D03*
Y3164000D03*
Y3564000D03*
Y3464000D03*
Y3864000D03*
Y3764000D03*
Y3664000D03*
X812800Y3860800D03*
X889000Y4165600D03*
Y4089400D03*
X830400Y4224200D03*
X939800Y4419600D03*
X929500Y4622600D03*
X830400Y4513400D03*
Y4589600D03*
X929500Y4722600D03*
X993210Y4799670D03*
X984200Y5702200D03*
Y6102200D03*
X977800Y8001000D03*
Y8356600D03*
Y8756600D03*
Y9156600D03*
Y9556600D03*
X1219200Y863600D03*
X1092200D03*
X1219200Y1168400D03*
X1231630Y1515110D03*
X1192070Y1801590D03*
X1262780Y1730880D03*
X1090210Y1656530D03*
X1160920Y1585820D03*
X1093900Y2068460D03*
Y1968460D03*
X1121360Y1872300D03*
X1093900Y2268460D03*
Y2168460D03*
X1081030Y2567630D03*
X1093900Y2468460D03*
Y2368460D03*
X1093890Y2864000D03*
X1076970Y2765440D03*
X1093600Y2666830D03*
X1093900Y3064000D03*
Y2964000D03*
Y3364000D03*
Y3264000D03*
Y3164000D03*
Y3564000D03*
Y3464000D03*
Y3864000D03*
Y3764000D03*
Y3664000D03*
X1168400Y4292600D03*
Y4356100D03*
Y4419600D03*
X1104100Y4622600D03*
X1117600Y4470400D03*
X1063920Y4870390D03*
X1134640Y4941100D03*
X1151250Y4710790D03*
X1221960Y4781500D03*
X1205350Y5011810D03*
X1276060Y5082520D03*
X1066800Y5080000D03*
X1314400Y158600D03*
X1503500Y720300D03*
Y620300D03*
Y520300D03*
X1498600Y838200D03*
X1371600Y863600D03*
X1514480Y1232260D03*
X1302340Y1444400D03*
X1373050Y1373680D03*
X1443770Y1302970D03*
X1446100Y1784430D03*
X1485860Y1692680D03*
X1333490Y1660170D03*
X1404200Y1589460D03*
X1446100Y1984430D03*
Y1884430D03*
Y2284430D03*
Y2184430D03*
Y2084430D03*
Y2584430D03*
Y2484430D03*
Y2384430D03*
Y2684430D03*
X1447800Y2794000D03*
X1346200Y2844800D03*
X1295400Y2946400D03*
Y3073400D03*
Y3200400D03*
Y3327400D03*
X1446100Y3564000D03*
X1346200Y3454400D03*
X1446100Y3864000D03*
Y3664000D03*
X1447800Y3759200D03*
X1397000Y3937000D03*
Y4089400D03*
Y4165600D03*
X1338400Y4224200D03*
X1437500Y4622600D03*
X1338400Y4513400D03*
Y4589600D03*
X1447800Y4470400D03*
X1292670Y4852210D03*
X1363380Y4922920D03*
X1437500Y4722600D03*
X1486120Y4809980D03*
X1346770Y5153230D03*
X1417480Y5223940D03*
X1434090Y4993630D03*
X1504800Y5064340D03*
X1488190Y5294650D03*
X1371600Y6121400D03*
Y6299200D03*
Y7137400D03*
Y7340600D03*
X1377800Y8001000D03*
Y8356600D03*
Y8756600D03*
Y9156600D03*
Y9556600D03*
X1714400Y158600D03*
X1765200Y558800D03*
Y958800D03*
X1601330Y1182700D03*
X1701800Y1168400D03*
X1616330Y1377330D03*
X1701800Y1371600D03*
X1676400Y1447800D03*
X1654300Y1771160D03*
X1725010Y1700450D03*
X1620700Y2065340D03*
Y1965340D03*
Y1865340D03*
X1752600Y2076400D03*
X1620700Y2265340D03*
Y2165340D03*
Y2565340D03*
Y2465340D03*
Y2365340D03*
X1752600Y2476400D03*
X1614100Y2865130D03*
X1620700Y2765340D03*
Y2665340D03*
X1610590Y3065090D03*
X1611580Y2965100D03*
X1752600Y2876400D03*
X1617190Y3364060D03*
X1606430Y3264640D03*
X1614860Y3165000D03*
X1752600Y3276400D03*
X1620700Y3564000D03*
Y3464000D03*
Y3864000D03*
Y3664000D03*
X1752600Y3860800D03*
X1612100Y4622600D03*
X1556830Y4880690D03*
X1627540Y4951400D03*
X1641300Y4718240D03*
X1712010Y4788950D03*
X1575510Y5135050D03*
X1673940Y5152720D03*
X1773940D03*
X1722790Y4981880D03*
X1582700Y5327320D03*
X1682700D03*
X1782700D03*
X1625600Y6121400D03*
Y6299200D03*
Y7137400D03*
Y7340600D03*
X1777800Y8001000D03*
Y8356600D03*
Y8756600D03*
Y9156600D03*
Y9556600D03*
X2062300Y720300D03*
Y620300D03*
Y520300D03*
X1854200Y1168400D03*
Y1371600D03*
Y1447800D03*
Y1651000D03*
X1879600Y3302000D03*
X1905000Y3454400D03*
Y3581400D03*
X1879600Y3860800D03*
X1930400Y3987800D03*
Y4165600D03*
X1810320Y4807280D03*
X1910320D03*
X2010320D03*
X1873940Y5152720D03*
X1973940D03*
X1822790Y4981880D03*
X1922790D03*
X2022790D03*
X1882700Y5327320D03*
X1982700D03*
X1924000Y9759800D03*
X2114400Y158600D03*
X2082800Y838200D03*
X2209800Y863600D03*
X2152600Y1676400D03*
X2279600Y4591000D03*
X2110320Y4807280D03*
X2210320D03*
X2310320D03*
X2073940Y5152720D03*
X2173940D03*
X2273940D03*
X2122790Y4981880D03*
X2222790D03*
X2322790D03*
X2082700Y5327320D03*
X2182700D03*
X2282240Y5336870D03*
X2152600Y5702200D03*
Y6102200D03*
X2260600Y6908800D03*
X2108200Y7315200D03*
X2108000Y8001000D03*
Y8356600D03*
Y8756600D03*
Y9156600D03*
Y9556600D03*
X2311400Y9759800D03*
X2565400Y158600D03*
X2514600Y482600D03*
Y609600D03*
Y736600D03*
X2362200Y863600D03*
X2489200D03*
X2349400Y1092200D03*
Y1492200D03*
X2552600Y1676400D03*
Y2076400D03*
Y2476400D03*
X2410320Y4807280D03*
X2506610Y4834250D03*
X2577320Y4904960D03*
X2370610Y5178310D03*
X2421740Y4996300D03*
X2492450Y5067010D03*
X2563160Y5137720D03*
X2352960Y5407580D03*
X2423670Y5478290D03*
X2441320Y5249020D03*
X2512030Y5319730D03*
X2582740Y5390440D03*
X2494380Y5549000D03*
X2565090Y5619710D03*
X2508200Y5803800D03*
Y6203800D03*
X2489200Y7035800D03*
X2438400Y7264400D03*
X2514600Y7848600D03*
X2438400Y8128000D03*
Y8559800D03*
X2533600Y8737600D03*
Y9137600D03*
X2438400Y8991600D03*
X2463800Y9372600D03*
X2692400Y3454400D03*
Y3581400D03*
X2633870Y5208430D03*
X2648030Y4975670D03*
X2718740Y5046380D03*
X2789460Y5117090D03*
X2653450Y5461150D03*
X2704580Y5279150D03*
X2775290Y5349860D03*
X2846010Y5420570D03*
X2635800Y5690420D03*
X2724160Y5531860D03*
X2794870Y5602570D03*
X2706510Y5761130D03*
X2777220Y5831840D03*
X2847930Y5902550D03*
X2794000Y6273800D03*
Y6350000D03*
X2743200Y6604000D03*
X2667000D03*
X2743200Y6697800D03*
X2641600D03*
X2768600Y7069000D03*
X2692400Y7007900D03*
X2794000Y7162800D03*
X2819400Y7264400D03*
X2711400Y9759800D03*
X2965400Y158600D03*
X3009800Y1676400D03*
Y2076400D03*
Y2476400D03*
X3048000Y3048000D03*
Y3175000D03*
X3098800Y3860800D03*
X2895600Y4165600D03*
Y3962400D03*
X2946400Y4292600D03*
Y4356100D03*
Y4419600D03*
X3116400Y4224200D03*
X2895600Y4470400D03*
X3116400Y4513400D03*
Y4589600D03*
X2860170Y5187810D03*
X2990800Y4997400D03*
X2916720Y5491280D03*
X2930880Y5258520D03*
X3001590Y5329230D03*
X3072300Y5399940D03*
X2865580Y5673280D03*
X2936300Y5743990D03*
X2987430Y5561990D03*
X3058140Y5632700D03*
X3118180Y5712670D03*
X2918640Y5973260D03*
X3007010Y5814710D03*
X3077720Y5885420D03*
X3118180Y5812670D03*
X2970860Y6058540D03*
Y6158540D03*
X2870200Y6273800D03*
Y6350000D03*
X3098800D03*
X3048000Y6502400D03*
Y6400800D03*
X3098800Y6604000D03*
X3048000Y6705600D03*
Y6807200D03*
X2870200Y7069000D03*
Y7162800D03*
X2921000Y7848600D03*
X2933600Y8737600D03*
Y9137600D03*
X2971800Y9398000D03*
X3092400Y9759800D03*
X3365400Y158600D03*
X3124200Y431800D03*
X3251200D03*
X3276600Y863600D03*
X3149600D03*
X3276600Y1092200D03*
X3246250Y1471530D03*
X3316960Y1400820D03*
X3379900Y1765980D03*
Y1665980D03*
X3205300Y1762760D03*
Y1662760D03*
Y1562760D03*
X3379900Y2065980D03*
Y1965980D03*
Y1865980D03*
X3205300Y2062760D03*
Y1962760D03*
Y1862760D03*
X3379900Y2265980D03*
Y2165980D03*
X3205300Y2262760D03*
Y2162760D03*
X3379900Y2565980D03*
Y2465980D03*
Y2365980D03*
X3205300Y2562760D03*
Y2462760D03*
Y2362760D03*
X3379900Y2865980D03*
Y2765980D03*
Y2665980D03*
X3205300Y2862760D03*
Y2762760D03*
Y2662760D03*
X3364560Y3064800D03*
X3379900Y2965980D03*
X3149600Y2971800D03*
X3379900Y3364000D03*
Y3264000D03*
X3376820Y3164050D03*
X3205300Y3364000D03*
X3149600Y3251200D03*
X3379900Y3564000D03*
Y3464000D03*
X3205300Y3564000D03*
Y3464000D03*
X3379900Y3864000D03*
Y3764000D03*
Y3664000D03*
X3205300Y3864000D03*
Y3764000D03*
Y3664000D03*
X3175000Y4165600D03*
Y4089400D03*
X3225800Y4419600D03*
X3215500Y4556090D03*
Y4656090D03*
Y4960890D03*
Y4860890D03*
Y4760890D03*
X3315030Y5134370D03*
X3265450Y5047520D03*
X3143010Y5470650D03*
X3315130Y5422810D03*
X3348670Y5328610D03*
X3315210Y5234370D03*
X3213720Y5541360D03*
X3284430Y5612070D03*
X3352790Y5701750D03*
X3351400Y5516000D03*
X3145460Y5958970D03*
X3315030Y5894370D03*
X3315090Y5794370D03*
X3276600Y6019800D03*
X3127000Y6175000D03*
Y6098800D03*
X3327000Y6172600D03*
Y6096400D03*
X3302000Y6502400D03*
Y6400800D03*
X3200400Y6350000D03*
X3302000Y6604000D03*
X3200400D03*
X3302000Y6807200D03*
Y6705600D03*
Y7035800D03*
X3124200Y6858000D03*
X3225800D03*
X3378200D03*
X3302000Y7112000D03*
X3352800Y7188200D03*
X3251200D03*
X3327400Y7416800D03*
X3302000Y7797800D03*
X3327400Y8305800D03*
X3403600Y431800D03*
X3530600D03*
X3535500Y745700D03*
Y645700D03*
Y545700D03*
X3530600Y863600D03*
X3403600D03*
X3458380Y1259400D03*
X3529090Y1188680D03*
X3628920Y1182700D03*
X3611230Y1357300D03*
X3387670Y1330110D03*
X3397210Y1567490D03*
X3479800Y2565400D03*
X3556000Y2514600D03*
X3479800Y2667000D03*
Y2768600D03*
Y2870200D03*
X3530600Y2946400D03*
X3632200D03*
X3403600Y3987800D03*
X3454400Y4292600D03*
Y4356100D03*
Y4419600D03*
X3624400Y4224200D03*
X3390100Y4619330D03*
X3403600Y4470400D03*
X3624400Y4513400D03*
Y4589600D03*
X3390100Y4919330D03*
Y4819330D03*
Y4719330D03*
X3593960Y5188710D03*
X3493970Y5187640D03*
X3489630Y5087730D03*
X3457790Y4992940D03*
X3489630Y5994370D03*
Y5894370D03*
X3606800Y5842000D03*
X3477000Y6175000D03*
Y6098800D03*
X3638220Y6193620D03*
X3505200Y6350000D03*
X3403600D03*
X3556000Y6502400D03*
Y6400800D03*
X3403600Y6604000D03*
X3505200D03*
X3556000Y6807200D03*
Y6705600D03*
X3479800Y6858000D03*
X3581400Y7391400D03*
X3403600Y8559800D03*
X3632200Y8737600D03*
X3479800Y9759800D03*
X3765400Y158600D03*
X3797200Y533400D03*
Y933400D03*
X3728920Y1182700D03*
X3711230Y1357300D03*
X3897300Y1792810D03*
Y1692810D03*
Y1592810D03*
X3722700Y1796040D03*
Y1696040D03*
Y1596040D03*
X3897300Y1992810D03*
Y1892810D03*
X3722700Y1996040D03*
Y1896040D03*
X3897300Y2292810D03*
Y2192810D03*
Y2092810D03*
X3722700Y2296040D03*
Y2196040D03*
Y2096040D03*
X3860220Y2585710D03*
X3897220Y2492810D03*
X3897300Y2392810D03*
X3722700Y2396040D03*
X3657600Y2489200D03*
X3897220Y2864380D03*
X3860250Y2771470D03*
X3897300Y2678580D03*
Y3064380D03*
Y2964380D03*
X3722700Y3064440D03*
Y2964440D03*
X3897300Y3364380D03*
Y3264380D03*
Y3164380D03*
X3722700Y3364440D03*
Y3264440D03*
Y3164440D03*
X3897300Y3564380D03*
Y3464380D03*
X3722700Y3564440D03*
Y3464440D03*
X3905960Y3864000D03*
X3897300Y3764380D03*
Y3664380D03*
X3722700Y3864440D03*
Y3764440D03*
Y3664440D03*
X3708400Y3987800D03*
X3683000Y4165600D03*
Y4089400D03*
X3733800Y4419600D03*
X3723500Y4696380D03*
Y4596380D03*
X3901300Y4545580D03*
Y4645580D03*
X3898100Y4749660D03*
X3725800Y4896360D03*
X3723500Y4796380D03*
X3736900Y5193760D03*
X3727410Y5094210D03*
X3741200Y4995160D03*
X3681810Y5428030D03*
X3711510Y5332550D03*
X3681430Y5237170D03*
X3898100Y5491230D03*
X3711460Y5523530D03*
X3898100Y5691230D03*
Y5591230D03*
X3708400Y5664200D03*
X3815900Y5967180D03*
X3886610Y5896470D03*
X3708400Y5765800D03*
X3663620Y6119020D03*
X3745190Y6037890D03*
X3733800Y6273800D03*
X3810000D03*
X3733800Y6350000D03*
X3810000D03*
X3860800Y6604000D03*
Y6697800D03*
X3708400Y7162800D03*
X3784600D03*
X3708400Y7086600D03*
X3784600D03*
X3657600Y7899400D03*
X3784600Y8737600D03*
X3879800Y9759800D03*
X4114800Y431800D03*
X4094300Y745700D03*
Y645700D03*
Y545700D03*
X4089400Y863600D03*
X3911600Y1168400D03*
Y1371600D03*
X4108400Y1676400D03*
X4083000Y2076400D03*
Y2476400D03*
Y2876400D03*
X4137970Y4890700D03*
X4054990Y4834900D03*
X3955030Y4831870D03*
X4158520Y5185190D03*
X4141560Y5086640D03*
X4159730Y4988310D03*
X3997720Y5482470D03*
X4095860Y5463310D03*
X4156510Y5383790D03*
X4145740Y5284380D03*
X3911600Y5791200D03*
X3937000Y6604000D03*
Y6697800D03*
X4013200Y6553200D03*
X4102100Y6578600D03*
X4064000Y7035800D03*
X3937000Y7670800D03*
X4203600Y158600D03*
X4241800Y431800D03*
X4394200D03*
X4216400Y863600D03*
X4343400D03*
X4356000Y1066800D03*
Y1466800D03*
X4343400Y3632200D03*
X4368800Y4775200D03*
X4362400Y5219600D03*
Y5645000D03*
X4191000Y6019800D03*
X4292600Y6375400D03*
X4185000Y6607000D03*
X4267200Y6629400D03*
X4216400Y7416800D03*
X4191000Y8737600D03*
X4279800Y9759800D03*
X4603600Y158600D03*
X4546600Y482600D03*
Y609600D03*
Y736600D03*
X4470400Y863600D03*
X4565600Y1676400D03*
Y2076400D03*
X4470400Y3454400D03*
Y3581400D03*
X4622800Y6248400D03*
X4653280Y6101080D03*
X4514800Y6743600D03*
Y7143600D03*
X4572000Y7747000D03*
Y8229600D03*
Y8737600D03*
X4679800Y9759800D03*
X4724400Y4775200D03*
X4718000Y5219600D03*
Y5645000D03*
X4724400Y6248400D03*
X4754880Y6101080D03*
X4953000Y8712200D03*
X4978400Y158600D03*
X5207000Y406400D03*
Y863600D03*
X5073600Y1676400D03*
Y2076400D03*
Y2476400D03*
Y2876400D03*
Y3276600D03*
X5181600Y3454400D03*
Y3581400D03*
X5073600Y3676600D03*
Y4076600D03*
X5054600Y4394200D03*
Y4775200D03*
X5073600Y5219600D03*
Y5645000D03*
X5003800Y7416800D03*
X4978400Y7848600D03*
X5130800Y9759800D03*
X5378400Y158600D03*
X5359400Y406400D03*
Y863600D03*
X5410020Y1292430D03*
X5340680Y1364480D03*
Y1464480D03*
Y1564480D03*
Y1664480D03*
Y1764480D03*
Y1864480D03*
Y1964480D03*
X5362530Y2062070D03*
X5433240Y2132780D03*
X5276800Y5499000D03*
Y5899000D03*
X5384800Y7035800D03*
X5410200Y7670800D03*
X5334000Y7950200D03*
Y8255000D03*
Y8712200D03*
X5537200Y406400D03*
X5567500Y745700D03*
Y645700D03*
Y545700D03*
X5511800Y863600D03*
X5709560Y1278980D03*
X5609870Y1286840D03*
X5509870D03*
X5740400Y1168400D03*
X5715000Y1473200D03*
X5515280Y1654340D03*
Y1754340D03*
X5715000Y1600200D03*
X5515280Y1854340D03*
Y1954340D03*
X5578890Y2031510D03*
X5503950Y2203490D03*
X5574660Y2274200D03*
X5645370Y2344910D03*
X5649600Y2102220D03*
X5720310Y2172930D03*
X5716080Y2415620D03*
X5530800Y2876400D03*
Y3276600D03*
X5664200Y3962400D03*
Y4165600D03*
X5740400Y4292600D03*
Y4356100D03*
Y4419600D03*
X5689600Y4470400D03*
X5690670Y4957320D03*
X5687470Y5152440D03*
X5667170Y5054520D03*
X5721580Y5335030D03*
X5668090Y5250540D03*
X5638800Y6731000D03*
X5740400D03*
X5664200Y7467600D03*
X5734000Y8001000D03*
Y8401000D03*
X5530800Y9759800D03*
X5778400Y158600D03*
X5829200Y584200D03*
X5943600Y1168400D03*
Y1371600D03*
X5929770Y1808340D03*
X5929300Y1708350D03*
Y1608350D03*
X5754700Y1791970D03*
Y1691970D03*
X6000480Y1879060D03*
X5907260Y2032760D03*
X5836550Y1962050D03*
X5765840Y1891340D03*
X5791020Y2243640D03*
X5861730Y2314350D03*
X5977970Y2103470D03*
X5786790Y2486330D03*
X5857500Y2557040D03*
X5932440Y2385060D03*
X6003150Y2455770D03*
X5928210Y2627750D03*
X5998920Y2698470D03*
X5999300Y2798460D03*
Y2898460D03*
Y2998460D03*
Y3098460D03*
Y3198460D03*
Y3298460D03*
Y3398460D03*
Y3498460D03*
Y3598460D03*
Y3698460D03*
Y3798460D03*
X5892800Y3835400D03*
X5791200D03*
X5969000Y4165600D03*
Y4089400D03*
X5910400Y4224200D03*
Y4513400D03*
Y4589600D03*
X5774640Y4903010D03*
X5874600Y4900470D03*
X5974600D03*
X5918240Y5360670D03*
X5818240D03*
X5829300Y6731000D03*
X5918200D03*
X5842000Y8763000D03*
X5930800Y9759800D03*
X6178400Y158600D03*
X6248400Y889000D03*
X6141900Y2020480D03*
X6071190Y1949770D03*
X6212610Y2091190D03*
X6190110Y2315610D03*
X6119400Y2244900D03*
X6048680Y2174190D03*
X6073860Y2526480D03*
X6144570Y2597190D03*
X6260820Y2386320D03*
X6173900Y2692790D03*
Y2792790D03*
Y2892790D03*
Y2992790D03*
Y3092790D03*
Y3192790D03*
Y3292790D03*
Y3392790D03*
Y3492790D03*
Y3592790D03*
Y3692790D03*
Y3792790D03*
X6197600Y3886200D03*
X6248400Y4292600D03*
Y4356100D03*
Y4419600D03*
X6019800D03*
X6184100Y4696660D03*
Y4596660D03*
X6009500Y4706760D03*
X6197600Y4470400D03*
X6184100Y4896660D03*
Y4796660D03*
X6009500Y4806760D03*
X6167740Y5194960D03*
X6179500Y5095650D03*
X6172040Y4995930D03*
X6240260Y5476720D03*
X6184100Y5393990D03*
X6181380Y5294020D03*
X6009500Y5401560D03*
X6229960Y5713340D03*
X6159250Y5642630D03*
X6088540Y5571920D03*
X6017830Y5501210D03*
X6205220Y6057900D03*
X6207580Y6611800D03*
X6205400Y6697800D03*
X6248400Y7016440D03*
X6146800Y7112000D03*
Y7696200D03*
X6134000Y8001000D03*
Y8401000D03*
X6400800Y889000D03*
X6527800D03*
X6400800Y1168400D03*
X6527800Y2057400D03*
X6424740Y2303320D03*
X6354030Y2232610D03*
X6283320Y2161900D03*
X6495450Y2374030D03*
X6472950Y2598450D03*
X6402240Y2527740D03*
X6331530Y2457030D03*
X6526100Y2783150D03*
Y2683150D03*
X6358140Y3088650D03*
X6448940Y3046770D03*
X6526100Y2983150D03*
Y2883150D03*
X6321200Y3367300D03*
X6358230Y3274410D03*
X6321120Y3181550D03*
X6526100Y3564000D03*
X6444440Y3506280D03*
X6355090Y3461380D03*
X6526100Y3664000D03*
X6483680Y3972000D03*
X6477000Y4089400D03*
Y4165600D03*
X6418400Y4224200D03*
X6527800Y4419600D03*
X6517500Y4649560D03*
X6418400Y4513400D03*
Y4589600D03*
X6522750Y4948280D03*
X6520630Y4749510D03*
X6517500Y5147520D03*
X6528470Y5048120D03*
X6517500Y5447520D03*
Y5347520D03*
Y5247520D03*
X6452400Y5688860D03*
X6381690Y5618150D03*
X6310980Y5547430D03*
X6517500Y5747520D03*
Y5647520D03*
Y5547520D03*
X6512800Y5996180D03*
X6442090Y5925470D03*
X6371380Y5854760D03*
X6300670Y5784050D03*
X6521780Y6195780D03*
Y6095780D03*
X6426200Y6350000D03*
X6350000D03*
X6426200Y6286500D03*
X6350000D03*
X6289220Y6611800D03*
X6284140Y6697800D03*
X6461940Y7069000D03*
X6398440D03*
X6456860Y7155000D03*
X6393360D03*
X6324600Y7340600D03*
X6502400Y7696200D03*
X6350000Y8686800D03*
X6330800Y9759800D03*
X6629400Y158600D03*
X6553200Y508000D03*
Y685800D03*
X6700700Y2592430D03*
X6636870Y2515450D03*
X6566160Y2444740D03*
X6700700Y2792430D03*
Y2692430D03*
X6700560Y3092430D03*
X6700700Y2992430D03*
Y2892430D03*
X6661490Y3371990D03*
X6700660Y3279980D03*
X6665880Y3186230D03*
X6700700Y3564000D03*
X6700660Y3464000D03*
X6700700Y3664000D03*
X6749120Y4680910D03*
X6692100Y4598760D03*
X6532710Y4848780D03*
X6692100Y5141280D03*
X6792100Y5141110D03*
X6692100Y5441280D03*
Y5341280D03*
Y5241280D03*
X6734260Y5731960D03*
X6692100Y5641280D03*
Y5541280D03*
X6671640Y5993760D03*
X6651240Y5895860D03*
X6580530Y5825150D03*
X6683000Y6175000D03*
Y6098800D03*
X6604000Y6502400D03*
Y6400800D03*
X6654800Y6350000D03*
X6756400D03*
Y6604000D03*
X6654800D03*
X6604000Y6807200D03*
Y6705600D03*
X6654800Y6858000D03*
X6756400D03*
X6783000Y7263200D03*
X6629400Y8407400D03*
Y8737600D03*
X6769000Y9759800D03*
X7029400Y158600D03*
X7035800Y1524000D03*
X6858000Y2057400D03*
X6959600Y3454400D03*
Y3581400D03*
X6858000Y3835400D03*
X6959600D03*
X7010400Y3987800D03*
Y4140200D03*
X6985000Y4267200D03*
X6945720Y4706780D03*
X6849120Y4680910D03*
X6979290Y4889470D03*
X6998960Y4791430D03*
X6892070Y5138620D03*
X6976150Y5084490D03*
X6999850Y4987340D03*
X6890920Y5696020D03*
X6961630Y5625310D03*
X7032340Y5554600D03*
X6804970Y5802670D03*
X7044360Y5993760D03*
Y5893760D03*
Y5793760D03*
X6869760Y5893760D03*
Y5793760D03*
X6832600Y5956300D03*
X6883000Y6172600D03*
Y6096400D03*
X7033000Y6175000D03*
Y6098800D03*
X6858000Y6502400D03*
Y6400800D03*
X6934200Y6350000D03*
X7035800D03*
X6858000Y6604000D03*
X6959600D03*
X6858000Y6705600D03*
Y6807200D03*
X6858400Y7035400D03*
X6934200Y6858000D03*
X7035800D03*
X6858400Y7111600D03*
X6934200Y7264400D03*
X6858000Y7696200D03*
X6985000Y8001000D03*
Y8407400D03*
Y8737600D03*
X7188200Y457200D03*
X7162800Y762000D03*
Y584200D03*
X7239000Y863600D03*
Y1041400D03*
Y1320800D03*
X7264400Y5207000D03*
X7246520Y5067840D03*
X7302770Y4985160D03*
X7103050Y5483890D03*
X7173760Y5413180D03*
X7244470Y5342470D03*
X7112910Y5720950D03*
X7183620Y5650240D03*
X7254330Y5579530D03*
X7269880Y5687660D03*
X7210300Y5994160D03*
X7281010Y5923450D03*
X7128460Y5829080D03*
X7199170Y5758370D03*
X7196760Y6193240D03*
Y6093240D03*
X7315200Y6273800D03*
Y6350000D03*
X7112000Y6502400D03*
Y6400800D03*
X7061200Y6604000D03*
X7112000Y6807200D03*
Y6705600D03*
X7259140Y7069000D03*
X7259500Y7155000D03*
X7169000Y9759800D03*
X7302400Y9912200D03*
X7429400Y158600D03*
X7543800Y457200D03*
X7518400Y863600D03*
X7391400D03*
X7577590Y1209270D03*
X7506880Y1279980D03*
X7416800Y1066800D03*
X7436170Y1350690D03*
X7365460Y1421400D03*
X7321880Y1511400D03*
Y1611400D03*
Y1711400D03*
Y1811400D03*
X7496480Y1594420D03*
Y1694420D03*
Y1794420D03*
X7321880Y1911400D03*
Y2011400D03*
X7496480Y1894420D03*
Y1994420D03*
X7321880Y2111400D03*
X7341300Y2209500D03*
X7412010Y2280210D03*
X7496480Y2094420D03*
X7554550Y2175830D03*
X7482720Y2350920D03*
X7553430Y2421630D03*
X7359600Y2946400D03*
Y3346400D03*
X7467600Y3454400D03*
Y3581400D03*
X7359600Y4616400D03*
X7383080Y4925580D03*
X7444060Y4846310D03*
X7520600Y4781970D03*
X7395750Y5438110D03*
X7462480Y5363630D03*
X7529460Y5289370D03*
X7482020Y5475520D03*
X7561160Y5414400D03*
X7325040Y5508820D03*
X7493140Y5711320D03*
X7563850Y5640610D03*
X7340590Y5616950D03*
X7411300Y5546230D03*
X7351720Y5852740D03*
X7422430Y5782030D03*
X7569200Y5918200D03*
Y6223000D03*
X7391400Y6273800D03*
Y6350000D03*
X7434400Y6611800D03*
X7515680D03*
X7429680Y6697800D03*
X7515680D03*
X7322640Y7069000D03*
X7416800Y7010400D03*
X7323000Y7155000D03*
X7340600Y7696200D03*
Y8001000D03*
X7416800Y9575800D03*
X7493000D03*
X7829400Y158600D03*
X7599500Y745700D03*
Y645700D03*
Y545700D03*
X7774000Y1182700D03*
X7674000D03*
X7774000Y1357300D03*
X7674030Y1359750D03*
X7786700Y1732600D03*
Y1632600D03*
X7832260Y1821620D03*
X7625260Y2246540D03*
X7695970Y2317250D03*
X7624140Y2492340D03*
X7694850Y2563050D03*
X7766680Y2387960D03*
X7837390Y2458670D03*
X7765560Y2633760D03*
X7836270Y2704470D03*
X7613600Y4616400D03*
X7620000Y4826000D03*
X7747000Y4851400D03*
X7601560Y5220080D03*
X7673410Y5150530D03*
X7740060Y5075980D03*
X7764460Y5196610D03*
X7833380Y5124160D03*
X7625600Y5337930D03*
X7704780Y5276860D03*
X7663570Y5648120D03*
X7762310Y5663980D03*
X7823200Y6883400D03*
X7645400Y7137400D03*
X7696200Y7696200D03*
Y9271000D03*
X7620400Y9346800D03*
X7702400Y9912200D03*
X7861200Y609600D03*
X7848600Y939800D03*
X7975600Y1397000D03*
X8021310Y1763750D03*
X7961300Y1683760D03*
Y1583760D03*
X8092020Y1834460D03*
X8044390Y2033750D03*
X7973680Y1963040D03*
X7902970Y1892330D03*
X7908100Y2529380D03*
X7978810Y2600090D03*
X7906980Y2775180D03*
X7977690Y2845890D03*
X8049520Y2670800D03*
X8048400Y2916610D03*
X8026400Y3048000D03*
Y3302000D03*
X8077200Y3835400D03*
X7975600Y3962400D03*
Y4165600D03*
X8026400Y4292600D03*
Y4419600D03*
Y4356100D03*
X8010670Y4703270D03*
X8081380Y4632560D03*
X7975600Y4470400D03*
X7869250Y4844690D03*
X7939960Y4773980D03*
X8045510Y4912030D03*
X8002240Y5202220D03*
X8072950Y5131510D03*
X7904090Y5053450D03*
X7974800Y4982740D03*
X7983710Y5466120D03*
X7998870Y5367270D03*
X7944120Y5283590D03*
X7844830Y5607500D03*
X7904660Y5527370D03*
X7848600Y5918200D03*
Y6223000D03*
X8026400Y7696200D03*
Y8001000D03*
X8267600Y158600D03*
X8280400Y863600D03*
X8356600Y1473200D03*
X8304160Y2046600D03*
X8233450Y1975890D03*
X8162740Y1905170D03*
X8356600Y1879600D03*
X8327230Y2316600D03*
X8256520Y2245880D03*
X8185810Y2175170D03*
X8115100Y2104460D03*
X8120240Y2741510D03*
X8190950Y2812230D03*
X8119110Y2987320D03*
X8189830Y3058030D03*
X8260540Y3128740D03*
X8261660Y2882940D03*
X8332370Y2953650D03*
X8285300Y3225620D03*
Y3325620D03*
Y3425620D03*
Y3525620D03*
Y3625620D03*
Y3725620D03*
Y3825620D03*
X8178800Y3835400D03*
X8255000Y4165600D03*
Y4089400D03*
X8196400Y4224200D03*
X8280400Y4445000D03*
X8257640Y4699900D03*
X8328350Y4629190D03*
X8196400Y4513400D03*
X8128000D03*
X8285080Y4919380D03*
X8355790Y4848670D03*
X8116220Y4841320D03*
X8186930Y4770610D03*
X8143660Y5060800D03*
X8214370Y4990090D03*
X8229600Y6121400D03*
Y6299200D03*
Y7315200D03*
Y7137400D03*
X8356600Y7696200D03*
Y8001000D03*
X8331200Y9169400D03*
X8280400Y9118600D03*
X8585200Y711200D03*
Y533400D03*
X8432800Y863600D03*
X8585200Y1828800D03*
X8587000Y2329440D03*
X8516290Y2258730D03*
X8445580Y2188020D03*
X8374870Y2117310D03*
X8610080Y2599440D03*
X8539370Y2528730D03*
X8468660Y2458020D03*
X8397950Y2387310D03*
X8403080Y3024360D03*
X8459900Y3106650D03*
Y3206650D03*
Y3306650D03*
X8602790Y3344840D03*
X8459900Y3406650D03*
Y3506650D03*
Y3606650D03*
X8567270Y3527170D03*
X8548650Y3428920D03*
X8459900Y3706650D03*
Y3806650D03*
X8534400Y4292600D03*
Y4356100D03*
Y4419600D03*
X8401410Y4560900D03*
X8483600Y4470400D03*
X8426500Y4777960D03*
X8517040Y4735500D03*
X8617040D03*
X8509000Y5003800D03*
Y5308600D03*
X8483600Y6121400D03*
Y6299200D03*
Y7315200D03*
Y7137400D03*
X8432800Y8356600D03*
X8559800D03*
X8432800Y8229600D03*
X8559800D03*
X8432800Y8610600D03*
X8559800D03*
Y8483600D03*
X8432800D03*
X8509000Y9220200D03*
Y9296400D03*
X8667600Y158600D03*
X8686800Y1320800D03*
Y1549400D03*
X8890000Y1651000D03*
X8731200Y2279600D03*
X8799130Y2541570D03*
X8728420Y2470860D03*
X8657710Y2400150D03*
X8869840Y2612280D03*
X8812100Y2820410D03*
X8751500Y2740860D03*
X8680790Y2670150D03*
X8812100Y3120410D03*
Y3020410D03*
Y2920410D03*
Y3220410D03*
X8712200Y3302000D03*
X8648420Y3585600D03*
X8737600Y3606800D03*
X8812100Y3864000D03*
Y3764000D03*
Y3664000D03*
X8763000Y3962400D03*
Y4165600D03*
Y4089400D03*
X8704400Y4224200D03*
X8813800Y4394200D03*
X8790650Y4642410D03*
X8861360Y4571700D03*
X8704400Y4513400D03*
X8636000D03*
X8717040Y4710100D03*
X8788400Y5003800D03*
Y5308600D03*
X8661400Y7696200D03*
Y8001000D03*
X8686800Y8229600D03*
Y8356600D03*
Y8483600D03*
Y8610600D03*
X8839200Y9220200D03*
Y9296400D03*
Y9575800D03*
X8712200D03*
Y9702800D03*
X8839200D03*
Y9829800D03*
X8712200D03*
X9093200Y1397000D03*
X9131200Y1879600D03*
Y2279600D03*
X8986700Y2771710D03*
X8940550Y2682990D03*
X8986700Y3071710D03*
Y2971710D03*
Y2871710D03*
X8986150Y3371710D03*
X8986700Y3271710D03*
Y3171710D03*
Y3564000D03*
X8958930Y3467930D03*
X8986700Y3864000D03*
Y3764000D03*
Y3664000D03*
X9118600Y3860800D03*
X8932070Y4500990D03*
X9067800Y4775200D03*
X8985200Y5727600D03*
Y6127600D03*
X8909000Y6794400D03*
Y7194400D03*
X8966200Y7696200D03*
Y8001000D03*
Y9575800D03*
Y9829800D03*
Y9702800D03*
X9417000Y914400D03*
Y1314400D03*
X9194800Y2692400D03*
Y2997200D03*
X9220200Y3860800D03*
X9296400Y3962400D03*
X9398000Y4648200D03*
X9271000Y5257800D03*
X9245600Y6121400D03*
Y6299200D03*
Y7137400D03*
Y7315200D03*
X9601200Y1879600D03*
Y2184400D03*
Y2463800D03*
Y2768600D03*
Y3073400D03*
Y3378200D03*
X9550400Y3556000D03*
Y3632200D03*
X9525000Y5003800D03*
X9499600Y6121400D03*
Y6299200D03*
Y7137400D03*
Y7315200D03*
X9817000Y914400D03*
Y1314400D03*
X9925000Y1689000D03*
Y4857600D03*
Y5295800D03*
Y5695800D03*
Y6108600D03*
Y6508600D03*
Y6870600D03*
Y7270600D03*
G54D11*
X254000Y3810000D03*
Y5588000D03*
Y5842000D03*
Y6604000D03*
Y6858000D03*
X508000Y2717800D03*
Y3810000D03*
X1270000Y5588000D03*
Y5842000D03*
Y6604000D03*
Y6858000D03*
X2032000Y2717800D03*
Y3810000D03*
X2286000D03*
X2540000D03*
X2794000Y2717800D03*
Y3810000D03*
X4318000D03*
X4572000Y2717800D03*
Y3810000D03*
X4673600Y6477000D03*
X5334000Y2717800D03*
Y3810000D03*
X5588000D03*
X7112000Y2717800D03*
Y3810000D03*
X7366000D03*
X7620000Y2717800D03*
Y3810000D03*
X7874000D03*
X8128000Y5588000D03*
Y5842000D03*
Y6604000D03*
Y6858000D03*
X8458200Y9804400D03*
X9144000Y5588000D03*
Y5842000D03*
Y6604000D03*
Y6858000D03*
X9398000Y2717800D03*
Y3810000D03*
X9652000D03*
G54D20*
X9753600Y8610600D03*
Y9210600D03*
G54D21*
G01X147300Y3810000D02*
X254000D01*
G01X147300Y5588000D02*
X254000D01*
G01X147300Y5842000D02*
X254000D01*
G01X147300Y6604000D02*
X254000D01*
G01X147300Y6858000D02*
X254000D01*
G01X287200Y357000D02*
X555000D01*
G01X254000Y3703300D02*
Y3810000D01*
G01D02*
Y3916700D01*
G01Y3810000D02*
X360700D01*
G01X254000Y5481300D02*
Y5588000D01*
G01D02*
Y5694700D01*
G01Y5588000D02*
X360700D01*
G01X254000Y5735300D02*
Y5842000D01*
G01D02*
Y5948700D01*
G01Y5842000D02*
X360700D01*
G01X254000Y6497300D02*
Y6604000D01*
G01D02*
Y6710700D01*
G01Y6604000D02*
X360700D01*
G01X254000Y6751300D02*
Y6858000D01*
G01D02*
Y6964700D01*
G01Y6858000D02*
X360700D01*
G01X555000Y89200D02*
Y357000D01*
G01D02*
Y624800D01*
G01Y357000D02*
X822800D01*
G01X1102200Y635000D02*
X1270000D01*
G01X1163300Y5588000D02*
X1270000D01*
G01X1163300Y5842000D02*
X1270000D01*
G01X1163300Y6604000D02*
X1270000D01*
G01X1163300Y6858000D02*
X1270000D01*
G01Y467200D02*
Y635000D01*
G01D02*
Y802800D01*
G01Y635000D02*
X1437800D01*
G01X1442200Y1524000D02*
X1520000D01*
G01X1270000Y5481300D02*
Y5588000D01*
G01D02*
Y5694700D01*
G01Y5588000D02*
X1376700D01*
G01X1270000Y5735300D02*
Y5842000D01*
G01D02*
Y5948700D01*
G01Y5842000D02*
X1376700D01*
G01X1270000Y6497300D02*
Y6604000D01*
G01D02*
Y6710700D01*
G01Y6604000D02*
X1376700D01*
G01X1270000Y6751300D02*
Y6858000D01*
G01D02*
Y6964700D01*
G01Y6858000D02*
X1376700D01*
G01X1520000Y1446200D02*
Y1524000D01*
G01D02*
Y1601800D01*
G01Y1524000D02*
X1597800D01*
G01X2033000Y1446200D02*
Y1524000D01*
G01D02*
Y1601800D01*
G01X1955200Y1524000D02*
X2033000D01*
G01D02*
X2110800D01*
G01X2286000Y467200D02*
Y635000D01*
G01D02*
Y802800D01*
G01X2118200Y635000D02*
X2286000D01*
G01D02*
X2453800D01*
G01X2286000Y3703300D02*
Y3810000D01*
G01D02*
Y3916700D01*
G01X2179300Y3810000D02*
X2286000D01*
G01D02*
X2392700D01*
G01X2540000Y3703300D02*
Y3810000D01*
G01D02*
Y3916700D01*
G01X2433300Y3810000D02*
X2540000D01*
G01D02*
X2646700D01*
G01X2807950Y889000D02*
X2895600D01*
G01X2807950Y1143000D02*
X2895600D01*
G01Y801350D02*
Y889000D01*
G01D02*
Y976650D01*
G01Y889000D02*
X2983250D01*
G01X2895600Y1055350D02*
Y1143000D01*
G01D02*
Y1230650D01*
G01Y1143000D02*
X2983250D01*
G01X3302000Y467200D02*
Y635000D01*
G01D02*
Y802800D01*
G01X3134200Y635000D02*
X3302000D01*
G01D02*
X3469800D01*
G01X3552000Y1446200D02*
Y1524000D01*
G01D02*
Y1601800D01*
G01X3474200Y1524000D02*
X3552000D01*
G01D02*
X3629800D01*
G01X4065000Y1446200D02*
Y1524000D01*
G01D02*
Y1601800D01*
G01X3987200Y1524000D02*
X4065000D01*
G01D02*
X4142800D01*
G01X4318000Y467200D02*
Y635000D01*
G01D02*
Y802800D01*
G01X4150200Y635000D02*
X4318000D01*
G01D02*
X4485800D01*
G01X4572000Y3703300D02*
Y3810000D01*
G01D02*
Y3916700D01*
G01X4465300Y3810000D02*
X4572000D01*
G01D02*
X4678700D01*
G01X4566900Y6477000D02*
X4673600D01*
G01X4839950Y889000D02*
X4927600D01*
G01X4839950Y1143000D02*
X4927600D01*
G01X4673600Y6370300D02*
Y6477000D01*
G01D02*
Y6583700D01*
G01Y6477000D02*
X4780300D01*
G01X5166200Y635000D02*
X5334000D01*
G01X4927600Y801350D02*
Y889000D01*
G01D02*
Y976650D01*
G01Y889000D02*
X5015250D01*
G01X4927600Y1055350D02*
Y1143000D01*
G01D02*
Y1230650D01*
G01Y1143000D02*
X5015250D01*
G01X5334000Y467200D02*
Y635000D01*
G01D02*
Y802800D01*
G01Y635000D02*
X5501800D01*
G01X5334000Y3703300D02*
Y3810000D01*
G01D02*
Y3916700D01*
G01X5227300Y3810000D02*
X5334000D01*
G01D02*
X5440700D01*
G01X5584000Y1446200D02*
Y1524000D01*
G01D02*
Y1601800D01*
G01X5506200Y1524000D02*
X5584000D01*
G01D02*
X5661800D01*
G01X6182200Y635000D02*
X6350000D01*
G01X6097000Y1446200D02*
Y1524000D01*
G01D02*
Y1601800D01*
G01X6019200Y1524000D02*
X6097000D01*
G01D02*
X6174800D01*
G01X6350000Y467200D02*
Y635000D01*
G01D02*
Y802800D01*
G01Y635000D02*
X6517800D01*
G01X6604000Y9297650D02*
Y9398000D01*
G01D02*
Y9498350D01*
G01X6503650Y9398000D02*
X6604000D01*
G01D02*
X6704350D01*
G01X6757650Y9144000D02*
X6858000D01*
G01X6959600Y801350D02*
Y889000D01*
G01D02*
Y976650D01*
G01X6871950Y889000D02*
X6959600D01*
G01D02*
X7047250D01*
G01X6959600Y1055350D02*
Y1143000D01*
G01D02*
Y1230650D01*
G01X6871950Y1143000D02*
X6959600D01*
G01D02*
X7047250D01*
G01X6858000Y9043650D02*
Y9144000D01*
G01D02*
Y9244350D01*
G01Y9144000D02*
X6958350D01*
G01X7198200Y635000D02*
X7366000D01*
G01X7259300Y3810000D02*
X7366000D01*
G01Y467200D02*
Y635000D01*
G01D02*
Y802800D01*
G01Y635000D02*
X7533800D01*
G01X7538200Y1524000D02*
X7616000D01*
G01X7513300Y3810000D02*
X7620000D01*
G01X7366000Y3703300D02*
Y3810000D01*
G01D02*
Y3916700D01*
G01Y3810000D02*
X7472700D01*
G01X7616000Y1446200D02*
Y1524000D01*
G01D02*
Y1601800D01*
G01Y1524000D02*
X7693800D01*
G01X7620000Y3703300D02*
Y3810000D01*
G01D02*
Y3916700D01*
G01Y3810000D02*
X7726700D01*
G01X8051200Y1524000D02*
X8129000D01*
G01X8021300Y5588000D02*
X8128000D01*
G01X8021300Y5842000D02*
X8128000D01*
G01X8021300Y6604000D02*
X8128000D01*
G01X8021300Y6858000D02*
X8128000D01*
G01X7950200Y9711600D02*
Y9804400D01*
G01D02*
Y9897200D01*
G01X7857400Y9804400D02*
X7950200D01*
G01D02*
X8043000D01*
G01X8214200Y635000D02*
X8382000D01*
G01X8129000Y1446200D02*
Y1524000D01*
G01D02*
Y1601800D01*
G01Y1524000D02*
X8206800D01*
G01X8128000Y5481300D02*
Y5588000D01*
G01D02*
Y5694700D01*
G01Y5588000D02*
X8234700D01*
G01X8128000Y5735300D02*
Y5842000D01*
G01D02*
Y5948700D01*
G01Y5842000D02*
X8234700D01*
G01X8128000Y6497300D02*
Y6604000D01*
G01D02*
Y6710700D01*
G01Y6604000D02*
X8234700D01*
G01X8128000Y6751300D02*
Y6858000D01*
G01D02*
Y6964700D01*
G01Y6858000D02*
X8234700D01*
G01X8382000Y467200D02*
Y635000D01*
G01D02*
Y802800D01*
G01Y635000D02*
X8549800D01*
G01X8458200Y9697700D02*
Y9804400D01*
G01D02*
Y9911100D01*
G01X8351500Y9804400D02*
X8458200D01*
G01D02*
X8564900D01*
G01X8991600Y801350D02*
Y889000D01*
G01D02*
Y976650D01*
G01X8903950Y889000D02*
X8991600D01*
G01D02*
X9079250D01*
G01X8991600Y1055350D02*
Y1143000D01*
G01D02*
Y1230650D01*
G01X8903950Y1143000D02*
X8991600D01*
G01D02*
X9079250D01*
G01X9037300Y5588000D02*
X9144000D01*
G01X9037300Y5842000D02*
X9144000D01*
G01X9037300Y6604000D02*
X9144000D01*
G01X9037300Y6858000D02*
X9144000D01*
G01X9177200Y357000D02*
X9445000D01*
G01X9144000Y5481300D02*
Y5588000D01*
G01D02*
Y5694700D01*
G01Y5588000D02*
X9250700D01*
G01X9144000Y5735300D02*
Y5842000D01*
G01D02*
Y5948700D01*
G01Y5842000D02*
X9250700D01*
G01X9144000Y6497300D02*
Y6604000D01*
G01Y6751300D02*
Y6858000D01*
G01Y6604000D02*
Y6710700D01*
G01Y6604000D02*
X9250700D01*
G01X9144000Y6858000D02*
Y6964700D01*
G01Y6858000D02*
X9250700D01*
G01X9445000Y89200D02*
Y357000D01*
G01D02*
Y624800D01*
G01Y357000D02*
X9712800D01*
G01X9545300Y3810000D02*
X9652000D01*
G01X9510800Y8610600D02*
X9753600D01*
G01X9652000Y3703300D02*
Y3810000D01*
G01D02*
Y3916700D01*
G01Y3810000D02*
X9758700D01*
G01X9753600Y8367800D02*
Y8610600D01*
G01D02*
Y8853400D01*
G54D12*
X254000Y4064000D03*
Y4318000D03*
X508000Y2971800D03*
Y3225800D03*
Y4064000D03*
Y4318000D03*
Y5588000D03*
Y5842000D03*
Y6604000D03*
Y6858000D03*
X762000Y5588000D03*
Y5842000D03*
Y6604000D03*
Y6858000D03*
X1524000Y5588000D03*
Y5842000D03*
Y6604000D03*
Y6858000D03*
X1778000Y5588000D03*
Y5842000D03*
Y6604000D03*
Y6858000D03*
X2032000Y2971800D03*
Y3225800D03*
Y4064000D03*
Y4318000D03*
X2286000Y4064000D03*
Y4318000D03*
X2540000Y4064000D03*
Y4318000D03*
X2794000Y2971800D03*
Y3225800D03*
Y4064000D03*
Y4318000D03*
X4318000Y4064000D03*
Y4318000D03*
X4572000Y2971800D03*
Y3225800D03*
Y4064000D03*
Y4318000D03*
X4927600Y6477000D03*
X5181600D03*
X5334000Y2971800D03*
Y3225800D03*
Y4064000D03*
Y4318000D03*
X5588000Y4064000D03*
Y4318000D03*
X7112000Y2971800D03*
Y3225800D03*
Y4064000D03*
Y4318000D03*
X7366000Y4064000D03*
Y4318000D03*
X7620000Y2971800D03*
Y3225800D03*
Y4064000D03*
Y4318000D03*
X7874000Y4064000D03*
Y4318000D03*
X7950200Y9804400D03*
X8382000Y5588000D03*
Y5842000D03*
Y6604000D03*
Y6858000D03*
X8204200Y9804400D03*
X8636000Y5588000D03*
Y5842000D03*
Y6604000D03*
Y6858000D03*
X9398000Y2971800D03*
Y3225800D03*
Y4064000D03*
Y4318000D03*
Y5588000D03*
Y5842000D03*
Y6604000D03*
Y6858000D03*
X9652000Y4064000D03*
Y4318000D03*
Y5588000D03*
Y5842000D03*
Y6604000D03*
Y6858000D03*
G54D13*
X555000Y357000D03*
Y8000000D03*
X9445000Y357000D03*
X9450000Y8000000D03*
G54D14*
X1270000Y635000D03*
X2286000D03*
X3302000D03*
X4318000D03*
X5334000D03*
X6350000D03*
X7366000D03*
X8382000D03*
G54D15*
X1520000Y1524000D03*
X1778000Y1270000D03*
Y1524000D03*
X2033000D03*
X3552000D03*
X3810000Y1270000D03*
Y1524000D03*
X4065000D03*
X5584000D03*
X5842000Y1270000D03*
Y1524000D03*
X6097000D03*
X7616000D03*
X7874000Y1270000D03*
Y1524000D03*
X8129000D03*
G54D16*
X2641600Y889000D03*
Y1143000D03*
X2895600Y889000D03*
Y1143000D03*
X4673600Y889000D03*
Y1143000D03*
X4927600Y889000D03*
Y1143000D03*
X6705600Y889000D03*
Y1143000D03*
X6959600Y889000D03*
Y1143000D03*
X8737600Y889000D03*
Y1143000D03*
X8991600Y889000D03*
Y1143000D03*
G54D17*
X3302000Y9144000D03*
G54D18*
Y9398000D03*
X3556000Y9144000D03*
Y9398000D03*
X3810000Y9144000D03*
Y9398000D03*
X4064000Y9144000D03*
Y9398000D03*
X4318000Y9144000D03*
Y9398000D03*
X4572000Y9144000D03*
Y9398000D03*
X4826000Y9144000D03*
Y9398000D03*
X5080000Y9144000D03*
Y9398000D03*
X5334000Y9144000D03*
Y9398000D03*
X5588000Y9144000D03*
Y9398000D03*
X5842000Y9144000D03*
Y9398000D03*
X6096000Y9144000D03*
Y9398000D03*
X6604000Y9144000D03*
X6350000D03*
X6604000Y9398000D03*
X6350000D03*
X6858000Y9144000D03*
Y9398000D03*
G54D19*
X9288600Y8860600D03*
M02*
